<svg xmlns="http://www.w3.org/2000/svg" class="HeroAbility-icon HeroAbility-icon--hoverState" viewBox="0 0 40 40" preserveAspectRatio="xMidYMid meet"><path d="M15.07,20.27l-1.23-.87a.15.15,0,0,0-.21,0l-.49.4a.21.21,0,0,0-.07.24c.1.49.2,1,.3,1.48a.31.31,0,0,0,.14.21l1.11.77a.17.17,0,0,0,.23,0L15.4,22a.16.16,0,0,0,.08-.16l-.3-1.48A.23.23,0,0,0,15.07,20.27Z"/><path d="M24.88,22l.63.4a.21.21,0,0,0,.26,0l.87-.56a.45.45,0,0,0,.19-.25q.22-.62.46-1.24a.25.25,0,0,0-.07-.3c-.21-.19-.41-.39-.6-.6a.18.18,0,0,0-.29,0c-.32.25-.64.5-1,.74a.69.69,0,0,0-.33.51,5.25,5.25,0,0,1-.13.57l-.12.57A.18.18,0,0,0,24.88,22Z"/><path d="M13.69,15.25c.09.09.16.06.25,0L15,14.41a.48.48,0,0,0,.19-.31c.09-.4.17-.81.26-1.21a.21.21,0,0,0-.11-.26l-.59-.4a.18.18,0,0,0-.26,0,6,6,0,0,1-.66.53,1.51,1.51,0,0,0-.75,1.17,4.44,4.44,0,0,1-.12.54.19.19,0,0,0,.07.17Z"/><path d="M24.78,12.9c.07.41.14.82.2,1.23a.27.27,0,0,0,.11.17l1,.83a.16.16,0,0,0,.21,0l.66-.39a.18.18,0,0,0,.11-.21c-.05-.36-.11-.73-.17-1.11a.27.27,0,0,0-.08-.13l-1.08-1.05a.16.16,0,0,0-.23,0l-.68.46A.18.18,0,0,0,24.78,12.9Z"/><path d="M22.34,11.14a.35.35,0,0,0,.17.16l1.12.49a.3.3,0,0,0,.28,0l.74-.36c.17-.08.17-.09.08-.26l-.62-1a.38.38,0,0,0-.22-.18l-1-.33-.14,0-.09,0-.82.38c-.14.06-.09.15,0,.24Z"/><path d="M15.51,11.3l.59.41a.24.24,0,0,0,.27,0l1.29-.56a.36.36,0,0,0,.18-.14l.48-.82a.14.14,0,0,0-.05-.22l-.6-.38a.24.24,0,0,0-.17,0l-.08,0-1.2.49a.37.37,0,0,0-.18.15l-.57.86A.13.13,0,0,0,15.51,11.3Z"/><path d="M18.9,11.31,20,12a.23.23,0,0,0,.27,0l1.06-.64c.11-.07.11-.14.06-.24L21,10.26a.2.2,0,0,0-.21-.13h-.45l-.79,0a.24.24,0,0,0-.24.13l-.43.79C18.78,11.2,18.81,11.26,18.9,11.31Z"/><path d="M12.42,15.89l-.43.5a.46.46,0,0,0-.12.34c0,.38,0,.76,0,1.14a.43.43,0,0,0,0,.23l.53.9c.27-.19.49-.41.73-.6a.22.22,0,0,0,.06-.19q0-.79,0-1.59a.42.42,0,0,0-.11-.29l-.38-.44C12.58,15.72,12.58,15.72,12.42,15.89Z"/><path d="M27,16.56c0,.25,0,.49,0,.74s0,.53,0,.79a.28.28,0,0,0,.11.26l.61.47c.08.07.14.06.19,0l.38-.7a.31.31,0,0,0,0-.15q0-.71,0-1.43a.27.27,0,0,0-.07-.22l-.5-.47a.14.14,0,0,0-.22,0l-.44.46A.35.35,0,0,0,27,16.56Z"/><path d="M21.21,23.31l-.86-.47a.24.24,0,0,0-.25,0l-.89.46,1,0Z"/><path d="M19.82,9.57a1.38,1.38,0,0,1,.23,0,1.5,1.5,0,0,0,1.08-.28s.09,0,.08-.1L20.8,9a.66.66,0,0,0-.39-.11,3.81,3.81,0,0,1-.55,0c-.36,0-.61.18-.93.33C19.21,9.39,19.45,9.63,19.82,9.57Z"/><path d="M26.26,11.71l.14.1c.13.1.16.1.29,0s.06-.07,0-.11-.19-.24-.28-.36a3,3,0,0,0-.86-.77,1.22,1.22,0,0,0-.25-.15c0,.23,0,.22.08.39A2.64,2.64,0,0,0,26.26,11.71Z"/><path d="M13.49,12.23a.28.28,0,0,0,.19-.07,3.31,3.31,0,0,0,1.18-1.26l0-.07c.09-.16,0-.25-.12-.28a.2.2,0,0,0-.15.06l-.69.5a.73.73,0,0,0-.15.15c-.16.21-.32.42-.49.62a.21.21,0,0,0,0,.25C13.3,12.24,13.38,12.22,13.49,12.23Z"/><path d="M11.92,19.4a.28.28,0,0,0-.32-.13c.07.29.15.55.21.83a3.66,3.66,0,0,0,.51.95.06.06,0,0,0,.08,0,.25.25,0,0,0,.15-.27c0-.11-.06-.22-.07-.33a1.52,1.52,0,0,0-.44-.94A.76.76,0,0,1,11.92,19.4Z"/><path d="M27.86,14.22a1.39,1.39,0,0,0,.25.58c.08.12.08.12.23.08s.12,0,.09-.15A4.55,4.55,0,0,0,28,13.49c0-.07-.08-.16-.12-.23s0-.06-.08-.07a1.27,1.27,0,0,0,0,.48C27.77,13.85,27.83,14,27.86,14.22Z"/><path d="M28.35,19.29l-.41.51a.37.37,0,0,0-.09.17c-.06.33-.12.65-.18,1,0,.14.11.14.19.18s.11,0,.14-.08c.13-.28.28-.56.39-.85s.2-.6.29-.91c0-.1,0-.14-.1-.14A.31.31,0,0,0,28.35,19.29Z"/><path d="M11.73,15.26c.07.05.11,0,.16,0l.25-.34a.88.88,0,0,0,.19-.4c.05-.27.13-.53.18-.8a3.22,3.22,0,0,0,.05-.72.24.24,0,0,0-.12.14l-.3.56A5.65,5.65,0,0,0,11.62,15l0,.08C11.56,15.19,11.67,15.21,11.73,15.26Z"/><path d="M23.64,9.59a.79.79,0,0,0,.51,0,1.78,1.78,0,0,0-.49-.33l-1-.33a.84.84,0,0,0-.41,0,1.9,1.9,0,0,0,.67.45C23.18,9.44,23.41,9.52,23.64,9.59Z"/><path d="M16.51,9.6l.77-.29A1.55,1.55,0,0,0,17.74,9a4,4,0,0,0-1.68.6A.62.62,0,0,0,16.51,9.6Z"/><path d="M11.5,17.63c0-.39,0-.78.05-1.16a.46.46,0,0,0-.18-.42,6.75,6.75,0,0,0,0,2A1,1,0,0,0,11.5,17.63Z"/><path d="M28.89,17.94a5.89,5.89,0,0,0,0-1.75l0,0a2.29,2.29,0,0,0-.14.77c0,.23,0,.47,0,.71A.27.27,0,0,0,28.89,17.94Z"/><path d="M19.92,15l-1.83,1a.33.33,0,0,0-.19.33c0,.7,0,1.4,0,2.1a.38.38,0,0,0,.23.38q.83.45,1.65.92a.45.45,0,0,0,.51,0c.59-.34,1.17-.67,1.77-1a.4.4,0,0,0,.24-.41c0-.32,0-.64,0-1s0-.67,0-1A.46.46,0,0,0,22,16L20.36,15A.4.4,0,0,0,19.92,15Z"/><path d="M22.4,23l1.6-.87a.28.28,0,0,0,.17-.24c0-.54.08-1.07.12-1.6,0-.17-.08-.23-.18-.3l-1.3-.83a.32.32,0,0,0-.35,0L20.61,20a.3.3,0,0,0-.19.29c0,.59-.08,1.19-.12,1.78a.27.27,0,0,0,.18.32l1.59.64A.35.35,0,0,0,22.4,23Z"/><path d="M16.36,22.33l1.49.58a.36.36,0,0,0,.3,0l1.38-.59a.27.27,0,0,0,.18-.29c0-.26,0-.52,0-.78s0-.52,0-.78a.3.3,0,0,0-.17-.3l-1.6-.92a.3.3,0,0,0-.35,0l-1.44.88a.29.29,0,0,0-.15.31c0,.51.08,1,.11,1.53A.34.34,0,0,0,16.36,22.33Z"/><path d="M24.79,19.68l1.43-1a.4.4,0,0,0,.19-.36c0-.32,0-.64,0-1h0c0-.31,0-.62,0-.93a.45.45,0,0,0-.23-.44c-.47-.31-.94-.63-1.4-.94-.26-.17-.28-.17-.53,0-.41.3-.81.61-1.23.9a.57.57,0,0,0-.25.51c0,.65,0,1.3,0,2a.37.37,0,0,0,.19.35l1.45.92A.3.3,0,0,0,24.79,19.68Z"/><path d="M15.71,19.7l1.51-1a.34.34,0,0,0,.19-.34c0-.34,0-.68,0-1h0c0-.33,0-.66,0-1a.4.4,0,0,0-.2-.4c-.48-.3-.95-.61-1.42-.92a.27.27,0,0,0-.34,0L14,16a.33.33,0,0,0-.17.29c0,.64,0,1.28-.06,1.92a.35.35,0,0,0,.14.3c.45.38.9.75,1.34,1.14A.3.3,0,0,0,15.71,19.7Z"/><path d="M19.73,12.43l-1.43-.83a.3.3,0,0,0-.31,0l-1.54.7a.35.35,0,0,0-.22.27c-.12.53-.23,1.06-.36,1.58a.26.26,0,0,0,.14.32l1.63,1.08a.29.29,0,0,0,.36,0l1.69-1a.34.34,0,0,0,.2-.35c0-.24,0-.49,0-.73h0c0-.25,0-.51,0-.76A.29.29,0,0,0,19.73,12.43Z"/><path d="M20.55,14.59c.55.3,1.1.62,1.64.94a.47.47,0,0,0,.58,0c.41-.29.83-.59,1.26-.85a.47.47,0,0,0,.23-.58c-.1-.45-.18-.91-.24-1.37a.54.54,0,0,0-.38-.48l-1.43-.52a.41.41,0,0,0-.38,0l-1.26.73a.35.35,0,0,0-.2.35c0,.24,0,.49,0,.73h0c0,.23,0,.46,0,.7A.35.35,0,0,0,20.55,14.59Z"/><path d="M8.47,21.19a5.71,5.71,0,0,0,1.26,2.06,9,9,0,0,0,1.81,1.49,12.28,12.28,0,0,0,2.05,1,15.77,15.77,0,0,0,2.17.69,18.81,18.81,0,0,0,2.23.4,21.5,21.5,0,0,0,2.25.13,21.32,21.32,0,0,0,2.25-.13,18.73,18.73,0,0,0,2.23-.4,15.74,15.74,0,0,0,2.17-.7,12.22,12.22,0,0,0,2.05-1,8.91,8.91,0,0,0,1.81-1.5,6.16,6.16,0,0,0,.73-1A4.92,4.92,0,0,0,32,21.17a4,4,0,0,0,0-2.42,4.28,4.28,0,0,0-1.23-1.91.15.15,0,0,0-.23.19,4.41,4.41,0,0,1,.63,1.89,3.23,3.23,0,0,1-.39,1.77,3.75,3.75,0,0,1-.52.75,5.17,5.17,0,0,1-.67.65,8.39,8.39,0,0,1-1.62,1,13.1,13.1,0,0,1-2.15.83l-.5.14q-.54.14-1.09.25h0a19.46,19.46,0,0,1-2,.28l-.28,0c-.58,0-1.16.07-1.74.07s-1.34,0-2-.09h0a19.37,19.37,0,0,1-2-.28l-.43-.09-1-.24-.61-.18a12.91,12.91,0,0,1-1.78-.71,8.46,8.46,0,0,1-1.62-1,5.28,5.28,0,0,1-.67-.65,3.82,3.82,0,0,1-.52-.75,3.24,3.24,0,0,1-.41-1.77A4.37,4.37,0,0,1,9.86,17a.15.15,0,0,0-.23-.19A4.25,4.25,0,0,0,8.4,18.78,4,4,0,0,0,8.47,21.19Z"/><path d="M35.27,20.57A6.66,6.66,0,0,0,34,17.4a8.93,8.93,0,0,0-2.41-2.21.15.15,0,0,0-.18.23h0a9.93,9.93,0,0,1,1.87,2.43A5.83,5.83,0,0,1,34,20.64a5.5,5.5,0,0,1-.73,2.67,7.93,7.93,0,0,1-1.85,2.14A12.51,12.51,0,0,1,28.95,27a17.73,17.73,0,0,1-2.78,1,20.66,20.66,0,0,1-2.94.6,23,23,0,0,1-6,0,20.66,20.66,0,0,1-2.94-.6,17.73,17.73,0,0,1-2.78-1A12.51,12.51,0,0,1,9,25.45a7.93,7.93,0,0,1-1.85-2.14,5.5,5.5,0,0,1-.73-2.67,5.83,5.83,0,0,1,.72-2.79A9.93,9.93,0,0,1,9,15.42H9a.15.15,0,0,0-.18-.23A8.93,8.93,0,0,0,6.46,17.4,6.44,6.44,0,0,0,5.75,24a9.13,9.13,0,0,0,2,2.81,15.21,15.21,0,0,0,5.85,3.32,21.32,21.32,0,0,0,3.26.75,22.57,22.57,0,0,0,6.64,0,21.32,21.32,0,0,0,3.26-.75,15.21,15.21,0,0,0,5.85-3.32,9.13,9.13,0,0,0,2-2.81A6.65,6.65,0,0,0,35.27,20.57Z"/></svg>