<svg xmlns="http://www.w3.org/2000/svg" class="HeroAbility-icon HeroAbility-icon--hoverState" viewBox="0 0 40 40" preserveAspectRatio="xMidYMid meet"><path id="_Path_14" data-name="&lt;Path&gt;" d="M26.89,27.08l-4.61-3a1.29,1.29,0,1,1,1.42-2.15l4.49,3a8.82,8.82,0,1,0-1.3,2.24Z"/><g id="_Group_4" data-name="&lt;Group&gt;"><path id="_Path_15" data-name="&lt;Path&gt;" d="M33,21.48A13.06,13.06,0,0,0,21.79,8.57c-.19.49-.92,2.49-.92,2.49A10.46,10.46,0,0,1,27,29.28h0a1.29,1.29,0,0,0,1.71,1.92h0l.08-.07.06-.05A13.06,13.06,0,0,0,33,21.48Z"/><path id="_Path_16" data-name="&lt;Path&gt;" d="M19.29,11c-.25-.83-.46-1.69-.69-2.53A13,13,0,0,0,11,31l.08.08.06.06h0a1.29,1.29,0,0,0,1.73-1.89h0A10.46,10.46,0,0,1,19.29,11Z"/></g></svg>