<svg xmlns="http://www.w3.org/2000/svg" class="HeroAbility-icon HeroAbility-icon--hoverState" viewBox="0 0 40 40" preserveAspectRatio="xMidYMid meet"><path class="st0" d="M30.13,14.45l-3.13-1l1.54,1.93h-3.16L25.28,19h3.25l-1.63,1.89l3.43-1.05l-1.45,2.52c0,0,5.93-2.25,5.93-4.86&#10;      S29.12,12,29.12,12L30.13,14.45z"/><path d="M23.14,15.67c0,0-0.01,0-0.01,0c-0.07-0.01-0.11-0.07-0.1-0.14v-4.47l0,0c0.01-0.07,0.06-0.12,0.13-0.12l0,0&#10;      c0.07,0,0.12,0.05,0.12,0.12v4.49v0c0,0.07-0.05,0.12-0.12,0.12L23.14,15.67z"/><path d="M19.45,17c-0.07,0-0.12-0.05-0.12-0.12v-3.95v0c0-0.07,0.05-0.12,0.12-0.12c0,0,0.01,0,0.01,0c0.07,0,0.12,0.05,0.12,0.12&#10;      v3.95c0,0,0,0.01,0,0.01C19.57,16.96,19.51,17.01,19.45,17C19.45,17,19.45,17,19.45,17z"/><path d="M23.03,22.29v-4.52l0,0c0,0,0-0.01,0-0.01c0.01-0.07,0.06-0.12,0.13-0.11h0c0.07,0,0.12,0.05,0.12,0.12v4.47v0&#10;      c0,0.07-0.05,0.12-0.12,0.12C23.1,22.37,23.04,22.34,23.03,22.29z"/><path d="M19.45,22.08c0,0-0.01,0-0.01,0c-0.07-0.01-0.12-0.06-0.11-0.13v-3.83v0c0-0.07,0.05-0.12,0.12-0.12&#10;      c0.06-0.01,0.12,0.03,0.13,0.09v3.83c-0.01,0.07-0.06,0.12-0.13,0.13V22.08z"/><path d="M21.74,20.14c-0.07-0.01-0.12-0.07-0.12-0.14v0c0-0.07,0.05-0.12,0.12-0.12h2.87c0.07,0,0.12,0.05,0.13,0.12&#10;      c0,0,0,0.01,0,0.01c-0.01,0.08-0.07,0.14-0.15,0.13L21.74,20.14C21.74,20.14,21.74,20.14,21.74,20.14z"/><path d="M18.34,20.14c-0.07-0.01-0.12-0.07-0.12-0.14v0c0-0.07,0.05-0.12,0.12-0.12h2.15c0.07,0,0.12,0.05,0.13,0.12&#10;      c0,0.07-0.06,0.13-0.13,0.14L18.34,20.14C18.34,20.14,18.34,20.14,18.34,20.14z"/><path d="M21.59,14.07c-0.03-0.06-0.01-0.14,0.05-0.17l2.9-1.59l0,0c0.05-0.01,0.11,0.03,0.12,0.08l0,0c0.04,0.05,0.04,0.11,0,0.16&#10;      l-2.91,1.58l0,0C21.68,14.15,21.62,14.12,21.59,14.07z"/><path d="M18.27,15.43c-0.05-0.01-0.08-0.05-0.1-0.09l0,0c-0.01-0.07,0.03-0.13,0.1-0.15c0.73-0.28,1.39-0.53,2.24-0.89l0,0&#10;      c0.06-0.02,0.13,0.01,0.15,0.07c0.02,0.06-0.01,0.13-0.07,0.16c-0.85,0.39-1.54,0.64-2.24,0.89l0,0L18.27,15.43z"/><path d="M14.92,23.85v2.52c3.23,1.15,6.33,2.6,9.28,4.34l0.36,0.22l0.42,0.25V8.93l0,0c-3.04,2.08-6.31,3.82-9.74,5.18l-0.34,0.13&#10;      v2.86h-1.42v-3.63c0.09-0.23,0.26-0.43,0.48-0.54c3.93-1.46,7.65-3.43,11.07-5.85c0.17-0.2,0.41-0.34,0.67-0.38h0.05&#10;      c0.42,0.02,0.76,0.37,0.75,0.8v25c-0.02,0.31-0.22,0.58-0.51,0.7c-0.22,0.05-0.44,0.02-0.64-0.08c-3.5-2.24-7.25-4.08-11.17-5.48&#10;      c-0.56-0.17-0.78-0.41-0.78-0.79v-3H14.92z"/><path class="st0" d="M16.84,24.62h4.59c0.49,0,1.58-0.63,1.58-0.94s-1.06-0.94-1.58-0.94h-4.59C17.1,23.34,17.1,24.02,16.84,24.62z&#10;      "/><path class="st0" d="M12.75,20.8h3.61c0.37,0,1.37-0.53,1.37-0.8s-0.96-0.74-1.37-0.74h-3.61C13.02,19.74,13.02,20.32,12.75,20.8z"/><path d="M9.73,17.32L9.73,17.32c-0.22-0.03-0.37-0.24-0.34-0.46c0.03-0.22,0.24-0.37,0.46-0.34h11.38c0.22,0,0.4,0.18,0.4,0.4&#10;      c0,0.22-0.18,0.4-0.4,0.4H9.85H9.73z"/><path d="M6.76,20.22c-0.13-0.03-0.22-0.16-0.2-0.3l0,0c0-0.01,0-0.01,0-0.02c0.04-0.12,0.16-0.19,0.29-0.15h5.13&#10;      c0.13,0.03,0.21,0.15,0.19,0.28l0,0c0,0.01,0,0.01,0,0.02c-0.03,0.13-0.16,0.21-0.29,0.18h-5L6.76,20.22z"/><path d="M8.54,24c-0.21,0-0.38-0.17-0.38-0.38l0,0c0,0,0-0.01,0-0.01c0.01-0.2,0.18-0.37,0.38-0.36h7.55c0,0,0.01,0,0.01,0&#10;      c0.2,0,0.37,0.17,0.37,0.37c0,0.21-0.17,0.38-0.38,0.38H8.54L8.54,24z"/></svg>