<svg xmlns="http://www.w3.org/2000/svg" class="HeroAbility-icon HeroAbility-icon--hoverState" viewBox="0 0 40 40" preserveAspectRatio="xMidYMid meet"><path d="M32.06,8.12c-.56,0-.33-.28-.18-.53l.33-.54H32c-.3.18-.59.38-.89.54a55.64,55.64,0,0,0-10.85,7.47,1.36,1.36,0,0,0-.5,1.08,7.34,7.34,0,0,1,0,1.88c0,.18-.08.43-.3.44s-.2-.24-.26-.4A7,7,0,0,1,19,16.34a1.34,1.34,0,0,0-.21.14,44.8,44.8,0,0,1-4.93,4.46,1,1,0,0,0-.4.92c0,.73,0,1.47.08,2.2a5,5,0,0,1,0,1.1c0,.21-.07.43-.33.48s-.35-.15-.44-.31A4.72,4.72,0,0,1,12,23.1c0-.18.06-.38-.11-.54a1.74,1.74,0,0,0-.71.92.15.15,0,0,0-.08.06,5.7,5.7,0,0,0-.42,2.92A5.41,5.41,0,0,0,10.85,28c0,.12,0,.23,0,.35a11.46,11.46,0,0,1-2.37,3c.06.17,0,.37-.3.68s-.47.54-.69.83h.13l.13,0h.07a5.14,5.14,0,0,1,.55-.39,6.87,6.87,0,0,1,2.55-2.08,4.72,4.72,0,0,1,.51-.19h.07a6.32,6.32,0,0,0,1.17,0,7.51,7.51,0,0,0,2-.33l.53-.12a6.78,6.78,0,0,0,.79-.15h.12a1.94,1.94,0,0,0,.17-.24c-.28-.06-.51-.09-.74-.16s-.36-.15-.37-.38.12-.31.28-.4.57-.34.87-.47a2.28,2.28,0,0,1,1.56-.32c1,.3,1.53-.51,2.29-1-.35-.1-.62,0-.93-.14.91-.69,1.52-1.7,2.76-1.77a.49.49,0,0,0,.31-.18c.54-.66,1.07-1.34,1.6-2,.14-.18.1-.27-.12-.31s-.62-.1-.92-.17c-.15,0-.35-.07-.36-.25s.18-.24.32-.3A7.25,7.25,0,0,1,24.55,21a1.21,1.21,0,0,0,.86-.59c1-1.47,2-2.93,2.94-4.4.08-.12.22-.25.11-.42s-.24-.09-.38-.08-.42.13-.5-.13.16-.32.31-.43a1.45,1.45,0,0,1,.27-.17,5.39,5.39,0,0,0,2.66-2.91q.53-1.25,1-2.51c.12-.31.23-.62.32-.94C32.21,8.33,32.28,8.13,32.06,8.12ZM14.91,25.69c3.83-3.73,7.21-7.94,11.53-11.16A77.21,77.21,0,0,1,14.91,25.69Z"/></svg>