<svg xmlns="http://www.w3.org/2000/svg" class="HeroAbility-icon HeroAbility-icon--hoverState" viewBox="0 0 40 40" preserveAspectRatio="xMidYMid meet"><path id="_Compound_Path_3" data-name="&lt;Compound Path&gt;" d="M31.35,25.09a.45.45,0,0,1,0-.19c.08-.28.12-.57.2-.85q1.18-4.4,2.35-8.8c.1-.36.25-.73.33-1.09a.44.44,0,0,1,.07-.13L35,12.95a.57.57,0,0,0,.12-.36c0-.2,0-.43-.06-.61a6.64,6.64,0,0,1-.35-.67.79.79,0,0,0-.5-.48.5.5,0,0,0-.41,0l-1.06.48a.4.4,0,0,1-.21,0c-.39,0-.79-.07-1.19-.09l-1.76-.08c-.68,0-1.37,0-2.05-.06-.91,0-1.84,0-2.76,0-2.29,0-4.58,0-6.88,0-.77,0-1.54,0-2.3,0h-.06c-.57.05-1.12,0-1.68.08l-1.34.07a5.4,5.4,0,0,0-.64,0,.47.47,0,0,1-.32,0l-.73-.45a.87.87,0,0,0-.94.18c-.26.25-.5.51-.78.73a2.24,2.24,0,0,0-.59.86.48.48,0,0,0,0,.26q.06.4.1.81a1.29,1.29,0,0,1,0,.43c-.06.28-.11.57-.19.85-.87,3.19-1.67,6.39-2.59,9.58a2.28,2.28,0,0,1-.33.72c-.12.17-.23.33-.34.51s-.28.34-.31.54a1.25,1.25,0,0,0,.07.83,3.72,3.72,0,0,1,.3.59.78.78,0,0,0,.53.5.43.43,0,0,0,.33,0l1-.46a.66.66,0,0,1,.35-.06l1.75.12,2,.09,1,0L16,28c1.5,0,3,0,4.54,0,1.12-.05,2.2,0,3.27,0,.28,0,.53,0,.76,0,.56,0,1.13-.05,1.69-.07l.56,0c.46,0,.91-.07,1.36-.09a.46.46,0,0,1,.26,0l.73.44a.94.94,0,0,0,.9-.19l1-.92a1.48,1.48,0,0,0,.26-.35,1.16,1.16,0,0,0,.17-.9A7.53,7.53,0,0,1,31.35,25.09ZM26.53,20l-1.09.45-.33-.28-3,.14-.28.33L22,21l-.14.52-1.25.71-.32,0-.2.21-.55,2.05-.26.19.36.4-.76,1h-.94l-.23-1,.58-.4-.16-.19.55-2.05-.08-.21-.34,0-.87-.71.14-.52.28-.35-.1-.33-2.89-.14-.48.28L13.46,20l.28-1,1.11-.45.23.45.23-.14,2.48,0,.45-.28-.11-.12.15-.38,1.73-1,.66-2.48.3-.24L20.65,14l.68-1h1.08l.17,1-.53.38.17.24-.66,2.48,1.2,1-.05.38-.17.12.3.28,2.47,0,.15.14.47-.45.87.45Z"/></svg>