<svg xmlns="http://www.w3.org/2000/svg" class="HeroAbility-icon" viewBox="0 0 40 40" preserveAspectRatio="xMidYMid meet"><g id="_Group_"><g id="_Group_2"><path id="_Path_" d="M20.22,22.05c-0.29-0.17-0.57-0.35-0.87-0.5c-0.78-0.42-1.5-0.96-2.11-1.6c-0.89-0.94-1.6-1.94-2.4-2.94&#10;&#9;&#9;&#9;&#9;c-0.58-0.71-1.16-1.42-1.8-2.09c-0.55-0.58-1.18-1.09-1.87-1.5c-0.08-0.08-0.09-0.14,0-0.25c0.24-0.29,0.48-0.58,0.74-0.85&#10;&#9;&#9;&#9;&#9;c0,0,0.01-0.01,0.01-0.01c0.06-0.05,0.15-0.05,0.2,0.01l0.47,0.31c1.01,0.74,1.9,1.62,2.67,2.61c1.12,1.37,2.33,2.68,3.61,3.9&#10;&#9;&#9;&#9;&#9;c0.15,0.15,0.31,0.27,0.49,0.37l0.89,0.5c0.14,0.09,0.28,0.17,0.44,0.23l-0.12-0.37c-0.02-0.03-0.02-0.07,0-0.1&#10;&#9;&#9;&#9;&#9;c0.04-0.05,0.11,0,0.11,0l0.12,0.07l1.05,0.73c0.17,0.09,0.17,0.08,0.17-0.08c-0.01-0.19-0.01-0.39,0-0.58&#10;&#9;&#9;&#9;&#9;c0-0.05-0.05-0.12,0-0.13s0.11,0.07,0.11,0.07l0.69,0.66l0.44,0.4c0.05-0.67,0.05-1.33,0-2l0.08,0.07c0.5,0.71,0.84,1.52,1,2.37&#10;&#9;&#9;&#9;&#9;c0.02,0.24,0.09,0.48,0.09,0.72c0,0.4-0.13,0.8-0.36,1.13c-0.23,0.45-0.57,0.82-1,1.09c-0.35,0.16-0.74,0.23-1.12,0.2H20.6&#10;&#9;&#9;&#9;&#9;c-0.05,0-0.11,0.1-0.12,0s0.08-0.1,0.08-0.1l0.31-0.18l0.75-0.43l-0.1-0.05l-0.82-0.34c-0.13-0.07-0.13-0.1,0-0.19l0.47-0.31&#10;&#9;&#9;&#9;&#9;c0.16-0.1,0.16-0.11,0-0.19l-0.74-0.35c-0.17-0.06-0.33-0.17-0.44-0.31l0.32,0.05L20.22,22.05z"/><path id="_Path_2" d="M21.94,31.52c-0.8-0.45-1.46-0.83-2.39-1.38s-1.88-1.08-2.82-1.62c-0.11-0.06-0.21-0.11-0.11-0.27&#10;&#9;&#9;&#9;&#9;c0.57-0.92,1.13-1.85,1.68-2.78c0.09-0.14,0.16-0.15,0.3-0.07l2.15,1.25l2.98,1.81c0.26,0.14,0.49,0.33,0.69,0.55&#10;&#9;&#9;&#9;&#9;c0.41,0.5,0.69,1.09,0.8,1.73c-0.02,0.37-0.19,0.71-0.47,0.95l0,0c-0.41,0.18-0.85,0.28-1.3,0.31&#10;&#9;&#9;&#9;&#9;C22.91,31.99,22.38,31.83,21.94,31.52z"/><path id="_Path_3" d="M10.78,21.24c0-0.04-0.05-0.05,0-0.14s0.13,0,0.13,0l1.49,1c0.04,0.06,0.13,0.08,0.13,0.06s0-0.1,0-0.15&#10;&#9;&#9;&#9;&#9;c0-0.24,0-0.49,0-0.73c0-0.06-0.01-0.15,0.06-0.18s0.16,0.1,0.16,0.1l1.24,1.14c0.03,0.07,0.05,0.07,0.13,0.07&#10;&#9;&#9;&#9;&#9;c0-0.18,0-0.36,0-0.54c0.01-0.56-0.02-1.12-0.09-1.68c-0.05-0.06-0.1-0.15,0-0.16s0.1,0.12,0.1,0.12&#10;&#9;&#9;&#9;&#9;c0.21,0.37,0.43,0.73,0.61,1.12c0.2,0.38,0.35,0.78,0.46,1.19c0.07,0.35,0.15,0.67,0.15,1c0.12,0.53,0.05,1.09-0.2,1.57&#10;&#9;&#9;&#9;&#9;c-0.24,0.52-0.58,0.99-1,1.38c-0.34,0.31-0.76,0.5-1.22,0.55c-0.78,0-1.57,0-2.35,0c-0.05,0-0.12,0.09-0.13,0&#10;&#9;&#9;&#9;&#9;s0.09-0.09,0.09-0.09l0.74-0.42l0.65-0.37L11.75,26l-0.97-0.4c-0.06-0.03-0.15-0.04-0.15-0.12s0.09-0.14,0.14-0.14l0.6-0.39&#10;&#9;&#9;&#9;&#9;c0.04-0.03,0.12,0,0.12-0.1s-0.09-0.1-0.14-0.1l-1.57-0.74c-0.06-0.02-0.15-0.04-0.15-0.13c0.23-0.01,0.44,0.11,0.71,0.11&#10;&#9;&#9;&#9;&#9;l-0.13-0.08l-1.77-1c-0.09-0.04-0.14-0.12-0.15-0.21c0-0.83,0-1.65,0-2.43c0.81,0.49,1.66,0.93,2.52,1.43L10.78,21.24z"/><path id="_Path_4" d="M29.61,28.13l-1.86-1.08l-2.25-1.3c-0.08-0.07-0.16-0.14-0.08-0.27c0.44-0.72,0.88-1.44,1.31-2.17&#10;&#9;&#9;&#9;&#9;c0.08-0.14,0.15-0.15,0.28-0.07c1.29,0.76,2.59,1.52,3.9,2.26c0.65,0.34,1.13,0.92,1.35,1.61c0.14,0.33,0.09,0.71-0.13,1&#10;&#9;&#9;&#9;&#9;c-0.05,0.08-0.12,0.14-0.2,0.17c-0.35,0.13-0.72,0.2-1.1,0.2C30.39,28.48,29.97,28.36,29.61,28.13z"/><path id="_Path_5" d="M19.38,15.09c-0.09-0.05-0.11-0.09,0-0.16l0.27-0.18c0.04-0.03,0.11-0.03,0.1-0.1s-0.11-0.07-0.11-0.07&#10;&#9;&#9;&#9;&#9;l-0.77-0.36c-0.04-0.02-0.18-0.04-0.1-0.1s0.15,0,0.23,0c-0.04-0.05-0.09-0.1-0.15-0.12l-0.59-0.3&#10;&#9;&#9;&#9;&#9;c-1.17-0.73-2.48-1.23-3.84-1.46c-0.54-0.08-1.07-0.2-1.61-0.3c-0.04-0.06-0.11,0-0.13-0.06s0.08-0.12,0.08-0.12l0.73-0.64&#10;&#9;&#9;&#9;&#9;c0.09-0.09,0.22-0.12,0.34-0.09c0.76,0.14,1.51,0.35,2.27,0.53c0.92,0.21,1.82,0.55,2.65,1c0.24,0.13,0.49,0.25,0.76,0.38&#10;&#9;&#9;&#9;&#9;l-0.06-0.2c0-0.04-0.05-0.05,0-0.12s0.12,0,0.12,0l0.08,0.06l0.77,0.53c0-0.19,0-0.44,0-0.49s-0.05-0.11,0-0.12&#10;&#9;&#9;&#9;&#9;s0.11,0.07,0.11,0.07l0.58,0.55c0.04,0.04,0.14,0.12,0.14,0.09s0-0.11,0-0.17c0.02-0.33,0.02-0.67,0-1c0-0.03-0.08-0.09,0-0.1&#10;&#9;&#9;&#9;&#9;s0.08,0.07,0.08,0.07v0.06c0.37,0.57,0.6,1.23,0.66,1.91c0.03,0.19,0,0.39-0.06,0.57c-0.1,0.22-0.22,0.43-0.37,0.63&#10;&#9;&#9;&#9;&#9;c-0.26,0.4-0.72,0.64-1.2,0.62c-0.33,0-0.66,0-1,0c-0.05,0-0.15,0.02-0.15-0.06l0.81-0.47L19.38,15.09z"/><path id="_Path_6" d="M20.37,8.08C20.82,8.03,21.28,8,21.75,8c0.08,0.02,0.15,0.07,0.19,0.14c0.36,0.25,0.7,0.54,1,0.86&#10;&#9;&#9;&#9;&#9;c0.28,0.32,0.53,0.65,0.76,1c0.93,1.31,2.07,2.46,3.38,3.39c0.03,0,0.02,0.16,0.11,0s0.12-0.05,0.22,0&#10;&#9;&#9;&#9;&#9;c0.1,0.05,0.19,0.13,0.28,0.19c0.28,0.17,0.28,0.17,0.28-0.13c0-0.05-0.05-0.1,0-0.12s0.11,0.06,0.11,0.06l0.41,0.39&#10;&#9;&#9;&#9;&#9;c0.03,0.06,0.1,0.08,0.1,0.06s0-0.12,0-0.12c0.01-0.22,0.01-0.43,0-0.65c0-0.04-0.08-0.11,0-0.12s0.08,0.08,0.08,0.08&#10;&#9;&#9;&#9;&#9;c0.12,0.2,0.22,0.4,0.31,0.61c0.27,0.53,0.23,1.16-0.1,1.65c-0.21,0.34-0.6,0.55-1,0.53h-0.55c-0.09,0-0.24,0.09-0.26,0&#10;&#9;&#9;&#9;&#9;c-0.02-0.09,0.11-0.1,0.21-0.17c0.1-0.07,0.28-0.1,0.28-0.19s-0.23-0.11-0.28-0.15s-0.14-0.02-0.15-0.1s-0.05-0.02,0.13-0.14&#10;&#9;&#9;&#9;&#9;s0.18-0.12,0-0.23l-0.08-0.06c-0.36-0.35-0.73-0.69-1.13-1c-0.46-0.41-0.99-0.81-1.46-1.25c-0.58-0.57-1.1-1.2-1.54-1.88&#10;&#9;&#9;&#9;&#9;c-0.65-1.04-1.57-1.88-2.66-2.43c-0.07-0.02-0.07-0.07-0.07-0.07C20.32,8.12,20.37,8.08,20.37,8.08z"/><path id="_Path_7" d="M25.8,18.52c-0.66-0.34-1.29-0.73-1.93-1.09l-1.14-0.65c-0.08-0.05-0.15-0.1-0.08-0.22l0.9-1.51&#10;&#9;&#9;&#9;&#9;c0.05-0.05,0.11-0.11,0.2-0.05l0.13,0.05c0.84,0.45,1.68,0.98,2.54,1.45c0.57,0.27,0.98,0.79,1.1,1.41&#10;&#9;&#9;&#9;&#9;c0.02,0.24-0.1,0.46-0.3,0.59c-0.23,0.09-0.48,0.14-0.73,0.15C26.25,18.65,26.01,18.61,25.8,18.52z"/><path id="_Path_8" d="M31.67,17.72l-1-0.61l-1-0.61c-0.07-0.04-0.13-0.07-0.07-0.17l0.67-1.11c0.05-0.05,0.09-0.1,0.18-0.05&#10;&#9;&#9;&#9;&#9;l2.13,1.24c0.33,0.19,0.56,0.5,0.63,0.87c0,0.01,0.01,0.02,0.01,0.03c0.06,0.24-0.09,0.47-0.33,0.53&#10;&#9;&#9;&#9;&#9;c-0.15,0.05-0.3,0.07-0.45,0.07C32.16,17.93,31.89,17.87,31.67,17.72z"/><path id="_Path_9" d="M17.21,24.58l0.67,0.38c0.12,0.06,0.13,0.13,0.06,0.24l-1.73,2.81c-0.01,0.02-0.02,0.04-0.03,0.05&#10;&#9;&#9;&#9;&#9;c-0.05,0.05-0.14,0.05-0.2,0l-0.63-0.37c-0.02-0.01-0.03-0.01-0.05-0.03c-0.05-0.05-0.06-0.13-0.01-0.18l1.72-2.86&#10;&#9;&#9;&#9;&#9;c0.03-0.08,0.06-0.08,0.13-0.08L17.21,24.58z"/><path id="_Path_10" d="M24.41,24.84l1.33-2.22c0.06-0.05,0.12-0.11,0.21-0.05l0.5,0.29c0.07,0.06,0.06,0.13,0,0.22l-1.38,2.23&#10;&#9;&#9;&#9;&#9;c-0.05,0.05-0.1,0.05-0.18,0.05l-0.52-0.3c-0.04-0.02-0.06-0.06-0.06-0.11L24.41,24.84z"/><path id="_Path_11" d="M22.04,16.31c-0.1-0.06-0.11-0.12-0.05-0.22l0.75-1.24c0.28-0.45,0.14-0.42,0.65-0.14l0,0&#10;&#9;&#9;&#9;&#9;c0,0.04,0,0.1,0,0.17l-0.95,1.54c-0.02,0.04-0.06,0.07-0.11,0.07L22.04,16.31z"/><path id="_Path_12" d="M29.11,15.96c0.21-0.33,0.42-0.66,0.61-1c0.08-0.14,0.16-0.18,0.29-0.08l0.12,0.07&#10;&#9;&#9;&#9;&#9;c0.06,0.05,0.05,0.1,0,0.19l-0.66,1.06c-0.03,0.09-0.06,0.09-0.14,0.09c-0.12-0.05-0.23-0.12-0.32-0.22L29.11,15.96z"/></g></g></svg>