<svg xmlns="http://www.w3.org/2000/svg" class="HeroAbility-icon HeroAbility-icon--hoverState" viewBox="0 0 40 40" preserveAspectRatio="xMidYMid meet"><path d="M20.8,26.93l.69-1.37L20.83,25l.3-.26V21.89l.2-.29.46.07,1.47-1V20L23,19.47l.26-.46,4.06-.2.56.39,1.34-.62V17.14l-1.37-.62-.49.62L27.08,17l-3.44,0-.53-.39.2-.16-.07-.52-2-1.37V11l-.33-.33.59-.52L20.9,8.83H19.39l-.59,1.34.59.52-.33.33v3.44l-2,1.37-.07.52.2.16-.53.39-3.44,0-.26.19-.49-.62-1.37.62v1.44l1.34.62.56-.39L17,19l.26.46L17,20v.72l1.48,1L19,21.6l.2.29v2.85l.29.26-.65.56.69,1.37ZM20.17,5.57a34.71,34.71,0,0,1,8.63,1.38l1,1v5.7l1.39,1.22v5.44L30,21.57v3.52l-1.82,2.08-2.62,6.11a26.87,26.87,0,0,1-5.37,1.07,26.88,26.88,0,0,1-5.36-1.07l-2.62-6.11-1.82-2.08V21.57L9.13,20.26V14.83l1.41-1.14V8l1-1A34.71,34.71,0,0,1,20.17,5.57Z" fill-rule="evenodd"/></svg>