<svg xmlns="http://www.w3.org/2000/svg" class="HeroAbility-icon HeroAbility-icon--hoverState" viewBox="0 0 40 40" preserveAspectRatio="xMidYMid meet"><g id="_Group_" data-name="&lt;Group&gt;"><g id="_Group_2" data-name="&lt;Group&gt;"><path id="_Path_" data-name="&lt;Path&gt;" d="M27.77,15.6a.34.34,0,0,0-.55.2l0,.1A4.81,4.81,0,0,1,28.48,19c0,3.31-3.8,6-8.48,6s-8.48-2.69-8.48-6a4.83,4.83,0,0,1,1.35-3.24l0-.11a.34.34,0,0,0-.54-.16,6,6,0,0,0-2.36,4.58c0,3.93,4.51,7.12,10.06,7.12S30.06,24,30.06,20.12A6,6,0,0,0,27.77,15.6Z"/><path id="_Path_2" data-name="&lt;Path&gt;" d="M27.89,14.5a.34.34,0,0,0-.49.25l0,.14c2.79,1.52,4.38,3.77,4.38,6.21,0,4.13-4.65,7.54-10.59,7.95q-.57,0-1.16,0h0c-6.49,0-11.78-3.58-11.78-8,0-2.44,1.6-4.7,4.4-6.22l0-.14a.34.34,0,0,0-.49-.21C8.8,16.28,6.93,19,6.93,21.86c0,5.09,5.86,9.23,13.07,9.23s13.07-4.14,13.07-9.23C33.07,18.94,31.18,16.26,27.89,14.5Z"/></g><path id="_Path_3" data-name="&lt;Path&gt;" class="cls-1" d="M25.08,15.9h-3.3l-.86,3.33a.65.65,0,0,1-.64.49H17.93a.81.81,0,0,1-.78-1l.74-2.84H15.11a.81.81,0,0,1-.78-1L15,12.49A.65.65,0,0,1,15.6,12h3.3l.86-3.33a.65.65,0,0,1,.64-.49h2.35a.81.81,0,0,1,.78,1L22.79,12h2.78a.81.81,0,0,1,.78,1l-.63,2.44A.65.65,0,0,1,25.08,15.9Z"/></g></svg>