<svg xmlns="http://www.w3.org/2000/svg" class="HeroAbility-icon HeroAbility-icon--hoverState" viewBox="0 0 40 40" preserveAspectRatio="xMidYMid meet"><path d="M23.64,10.25a10.28,10.28,0,0,0-1.11-.4,3.06,3.06,0,0,0-.29-.33A3.23,3.23,0,0,0,22,9.26l-.28-.2-.34-.2L21,8.71l-.2-.08-.42-.13-.2,0-.32-.07a5.86,5.86,0,0,0-.67-.08,6.35,6.35,0,0,0-.86,0l-.37,0a6.27,6.27,0,0,0-.66.12,5.59,5.59,0,0,0-1,.32l-.24.11L15.86,9l-.14.08-.27.17a4.8,4.8,0,0,0-.51.38,2.61,2.61,0,0,0-.33.34l-.13.18a2.61,2.61,0,0,0-.19.34q-.05.12-.1.24l-.06.18-.43.28a3.56,3.56,0,0,1,.06-.4c0-.1,0-.19.07-.29a3.15,3.15,0,0,1,.14-.39,2.82,2.82,0,0,1,.24-.43,3.25,3.25,0,0,1,.49-.56,8,8,0,0,1,.76-.6l.37-.24.22-.13a6.41,6.41,0,0,1,.78-.35,7.17,7.17,0,0,1,.92-.27l.43-.08a7.6,7.6,0,0,1,1-.08h.21a6.65,6.65,0,0,1,1,.09l.51.11A4.8,4.8,0,0,1,22,8.07l.22.13a4.17,4.17,0,0,1,.74.61,3.56,3.56,0,0,1,.24.28,3.36,3.36,0,0,1,.35.55c0,.07.06.14.09.21a2.65,2.65,0,0,1,.13.47h0l.06,0a10.43,10.43,0,0,1,2.81,1.87l.46.46h0a10.51,10.51,0,0,1,1,1.21v-.09c0-.11,0-.22,0-.33s-.07-.43-.12-.64-.06-.23-.09-.34l-.05-.17-.07-.24-.09-.26,0-.08-.09-.24-.08-.19-.06-.14-.11-.24-.15-.29L27,10.51,27,10.39l-.09-.16,0-.08L26.77,10l-.06-.11-.08-.14-.06-.11-.06-.11-.07-.11-.21-.3L26.14,9l-.2-.24-.16-.16-.25-.22-.27-.19a3.29,3.29,0,0,0-.53-.28,3.46,3.46,0,0,0-.49-.16L24,7.7l-.23,0-.09-.1.1-.09h.08l.41,0a4.76,4.76,0,0,1,1,.2l.17.06.14.06.24.1.32.17.14.08.36.26.09.07.06.05c.12.11.24.22.35.33l.19.21.08.1.14.18,0,0,.06.1.09.15.08.15.06.13.07.15.06.15.1.28c0,.12.07.24.1.35l0,.09,0,.15c0,.14.06.29.08.43s0,.17,0,.25,0,.28,0,.42,0,.12,0,.19,0,.3,0,.45,0,.25,0,.37,0,.16,0,.23q0,.39-.07.77.18.28.34.58a5.58,5.58,0,0,1,.71-.38,4.18,4.18,0,0,1,.5-.18l.35-.09.49-.07.38,0h.08a3.67,3.67,0,0,1,.67.07l.29.07a2.31,2.31,0,0,1,.61.3,1.91,1.91,0,0,1,.34.31,1.84,1.84,0,0,1,.3.46,2,2,0,0,1,.11.32,1.91,1.91,0,0,1,0,.25,2.52,2.52,0,0,1,0,.34c0,.08,0,.16,0,.24l0,.23c0,.12,0,.25,0,.37s0,.12,0,.18a3.76,3.76,0,0,1-.08.4l-.06.21-.12.34c-.06.16-.12.31-.19.47s-.16.34-.25.51-.21.38-.32.56l-.16.26a11.71,11.71,0,0,1-.95,1.22l-.2.22-.36.37-.33.32-.18.16q-.36.32-.74.62l-.11.36h0l.17.26c.09.15.18.31.26.47l.09.22a4.43,4.43,0,0,1,.15.44c0,.1.05.19.07.29a5,5,0,0,1,.11,1c0,.12,0,.24,0,.36A5,5,0,0,1,30,27.69c0,.1-.08.2-.12.29a5.22,5.22,0,0,1-.51.86,4.87,4.87,0,0,1-.35.43,4.93,4.93,0,0,1-.44.42l-.29.22a5.59,5.59,0,0,1-.57.36,6,6,0,0,1-.67.31l-.32.12a6.22,6.22,0,0,1-1.24.27,5.45,5.45,0,0,1-1.68-.06,4.22,4.22,0,0,1-1.05-.35,3.68,3.68,0,0,1-.62-.39L21.89,30q-.44.1-.89.16a3.32,3.32,0,0,1,.07.71,2.68,2.68,0,0,1-.36,1.34l-.14.2a2.16,2.16,0,0,1-.72.61,3,3,0,0,1-1.64.28l-.32,0-.37-.08-.42-.13a5.93,5.93,0,0,1-1-.44l-.45-.28-.39-.29a8.75,8.75,0,0,1-.72-.63c-.18-.18-.36-.36-.52-.55l-.32-.4c-.1-.13-.2-.27-.29-.41l-.2-.33c-.09-.16-.18-.33-.27-.5s-.12-.26-.17-.39-.12-.32-.17-.48-.09-.3-.12-.45-.07-.33-.09-.49l0,0,0,0,0,0a10.46,10.46,0,0,1-2.17-3,10.37,10.37,0,0,1-1.05-4.52H9a2,2,0,0,1-.48-.07,2.43,2.43,0,0,1-.43-.16l-.25-.14a3.36,3.36,0,0,1-.45-.34,3.7,3.7,0,0,1-.48-.52l-.21-.31-.1-.17a4.16,4.16,0,0,1-.19-.4A4.62,4.62,0,0,1,6.16,17,5.48,5.48,0,0,1,6,15.88a6.22,6.22,0,0,1,.13-1.35q0-.18.09-.36L6.3,14a7.06,7.06,0,0,1,.33-.86,7.23,7.23,0,0,1,.57-1l.14-.2.26-.33a6.76,6.76,0,0,1,1.14-1.08l.3-.21a4.5,4.5,0,0,1,1.77-.74,3.31,3.31,0,0,1,.45,0h.07l.31,0a3,3,0,0,1,.58.13,3.22,3.22,0,0,1,.57.25l.27.16,0,0,0,.13-.13,0-.1-.06-.1-.05L12.57,10a2.85,2.85,0,0,0-.51-.17,2.64,2.64,0,0,0-.47-.07h-.34a3.13,3.13,0,0,0-1,.25,4.61,4.61,0,0,0-1,.57,6,6,0,0,0-1.14,1.13,6.41,6.41,0,0,0-.46.69,6.31,6.31,0,0,0-.43.9,6.09,6.09,0,0,0-.25.84c0,.16-.07.32-.09.48a5.29,5.29,0,0,0,0,1.07c0,.1,0,.2,0,.3s0,.15,0,.23a4.73,4.73,0,0,0,.11.51,3.9,3.9,0,0,0,.16.47,3.2,3.2,0,0,0,.22.42l.12.19a3,3,0,0,0,.31.38,2.63,2.63,0,0,0,.41.35l.24.14.12.06a1.1,1.1,0,0,0,.26.07h.29q0-.43.12-.86a10.35,10.35,0,0,1,.92-2.78,10.46,10.46,0,0,1,1.89-2.66h0a2.07,2.07,0,0,0-.36-.6l-.14-.14-.21-.17a1.67,1.67,0,0,0-.32-.16,1.93,1.93,0,0,0-.52-.12,2.41,2.41,0,0,0-.67,0,5.07,5.07,0,0,0-1.27.49l-.06,0-.13,0,0-.12a5.2,5.2,0,0,1,1.5-.64l.35,0a2.63,2.63,0,0,1,.41,0,2.2,2.2,0,0,1,.56.13,2,2,0,0,1,.35.17l.24.18a2.39,2.39,0,0,1,.54.66,10.44,10.44,0,0,1,2.7-1.83,10.34,10.34,0,0,1,2.68-.83q.49-.08,1-.12l.53,0h.27l.53,0q.49,0,1,.1a10.36,10.36,0,0,1,2.49.71ZM13.77,28.5l.13.3c.07.15.14.29.22.43l.17.29c.1.15.19.31.3.45l.22.29.14.18.33.38a7.57,7.57,0,0,0,.62.6l.29.24.3.22a4.88,4.88,0,0,0,1.14.61l.34.11a3.29,3.29,0,0,0,.58.1,2.46,2.46,0,0,0,.81-.06,1.82,1.82,0,0,0,.42-.16,1.71,1.71,0,0,0,.31-.22l.15-.15a2.19,2.19,0,0,0,.5-1.3,2.93,2.93,0,0,0,0-.61,10.53,10.53,0,0,1-1.15.06,10.37,10.37,0,0,1-5.79-1.76Zm15.17-4.11a10.46,10.46,0,0,1-6.7,5.52l.2.13a3.63,3.63,0,0,0,1.24.45,4.62,4.62,0,0,0,1.31,0l.44-.07.49-.12a5.72,5.72,0,0,0,.56-.2,5.38,5.38,0,0,0,.85-.45,4.68,4.68,0,0,0,.51-.38l.19-.17a3.9,3.9,0,0,0,.41-.45,4.3,4.3,0,0,0,.58-1c0-.11.08-.22.12-.33a4.12,4.12,0,0,0,.15-.74,4.07,4.07,0,0,0,0-.44c0-.06,0-.13,0-.19s0-.23,0-.34a4.2,4.2,0,0,0-.09-.48c0-.12-.06-.24-.1-.36s-.06-.16-.09-.24l-.05-.11ZM9.44,22.23a10.35,10.35,0,0,0,.33,1.1h0l-.07.08a2.89,2.89,0,0,0-.23.31l-.11.18a3.22,3.22,0,0,0-.15.31l-.07.16a3.38,3.38,0,0,0-.11.34,4,4,0,0,0-.12.69c0,.08,0,.15,0,.23a4.34,4.34,0,0,0,0,.48,4.77,4.77,0,0,0,.08.62c0,.15.06.29.11.43a4.57,4.57,0,0,0,.33.81,4.23,4.23,0,0,0,.31.51,3.51,3.51,0,0,0,.92.89,3.18,3.18,0,0,0,.42.23,3,3,0,0,0,.65.21h0l.08.1-.11.08h-.11l-.31-.06a3.48,3.48,0,0,1-.5-.16,3.53,3.53,0,0,1-.5-.25,4.38,4.38,0,0,1-1.21-1.12,5.09,5.09,0,0,1-.49-.81,5.54,5.54,0,0,1-.28-.67,5.25,5.25,0,0,1-.16-.59,5.43,5.43,0,0,1-.09-.63c0-.1,0-.2,0-.31a4.74,4.74,0,0,1,.1-1.07q0-.15.07-.29l0-.15a4.06,4.06,0,0,1,.19-.45l.11-.21L8.74,23A3.66,3.66,0,0,1,9,22.65l.11-.12.28-.26.05,0Zm16.67-8.57-.35-.35a9,9,0,0,0-2.41-1.64A8.93,8.93,0,0,0,21,11q-.42-.07-.85-.1l-.46,0H19c-.28,0-.57,0-.85.09a8.92,8.92,0,0,0-2.33.69,9,9,0,0,0-4.24,4A8.93,8.93,0,0,0,10.76,18a9.08,9.08,0,0,0-.1,3,8.94,8.94,0,0,0,.76,2.6,9,9,0,0,0,1.87,2.64l.12.12L26.12,13.67Zm-2.86,9.75H20.91c-.38,0-.54-.22-.44-.58l.26-1c.07-.26.16-.33.42-.33h4.74a.41.41,0,0,1,.43.55c-.08.34-.17.68-.27,1s-.16.32-.42.32Zm6.53-1.57.06-.07.16-.17.32-.38.3-.39.13-.18c.16-.22.31-.43.45-.66s.22-.36.32-.54l.11-.2.19-.38q.1-.22.19-.44l.09-.23.1-.27.12-.35c0-.1.06-.2.09-.3s0-.17,0-.26,0-.17,0-.25,0-.27,0-.4,0-.15,0-.22,0-.06,0-.09a1.48,1.48,0,0,0,0-.29,1.21,1.21,0,0,0,0-.14.93.93,0,0,0-.07-.17,1,1,0,0,0-.35-.37,1.65,1.65,0,0,0-.28-.14l-.19-.07-.19,0-.23,0-.31,0h-.39a3.79,3.79,0,0,0-.93.16,4.85,4.85,0,0,0-.69.29,10.46,10.46,0,0,1,.88,6.62Zm-15.1-5.92c.23,0,.46,0,.68,0a.23.23,0,0,0,.28-.21c.11-.45.23-.89.34-1.34s.19-.4.52-.4h1a.45.45,0,0,1,.48.62c-.1.38-.19.76-.3,1.14-.05.17,0,.2.16.19H19a.45.45,0,0,1,.47.62l-.27,1a.42.42,0,0,1-.48.38c-.44,0-.88,0-1.33,0-.2,0-.28.07-.32.25-.1.44-.22.88-.34,1.32-.08.29-.17.36-.47.36H15.18a.44.44,0,0,1-.47-.61c.09-.38.18-.75.3-1.12.06-.18,0-.21-.17-.2H13.79c-.46,0-.63-.24-.52-.68l.26-1c.08-.28.18-.36.47-.36Zm-2.51-3.42h0ZM23.75,10.3h0Zm0,0h0Zm0,0h0Z" fill-rule="evenodd"/></svg>