<svg xmlns="http://www.w3.org/2000/svg" class="HeroAbility-icon HeroAbility-icon--hoverState" viewBox="0 0 40 40" preserveAspectRatio="xMidYMid meet"><path d="M30.78,25.67A12,12,0,0,1,26,27.45a4.27,4.27,0,0,1-2-.25,2.12,2.12,0,0,1-1.34-1.78h-.1c-.15,0-.35-.35-.35-.35h0a1.69,1.69,0,0,1-.75-.08,2.16,2.16,0,0,1-.41-.32l-.48-.41a2.79,2.79,0,0,1-.58.22,6.44,6.44,0,0,1-1.2.1l-1.62.14a7.87,7.87,0,0,1-1,.28,8.35,8.35,0,0,1-1.54,0,3,3,0,0,1-.74-.28,3,3,0,0,1-1.08-.26.22.22,0,0,1-.13-.25c0-.11.23-.19.23-.19l.65-.23a1.31,1.31,0,0,1,.41-.31,2,2,0,0,1,.74-.2c.32,0,1.51,0,1.51,0l1.1-.39.77-.34.34-.49,0-.15a.61.61,0,0,1-.26,0c-.06,0-.08-.18-.08-.21a2.65,2.65,0,0,1,0-.36c0-.1,0-.19,0-.29h0v0s.71-.11.71-.11a4.93,4.93,0,0,1,.91-.22,10.22,10.22,0,0,0,1.36-.2h.1l.11,0c.07,0,.5.26.5.26.3.17.45.19.5.11l-.57-.54,0,0,0-.05s.19-.3,0-.42l-.18.19a.41.41,0,0,1-.12.13l-.17.11a1,1,0,0,1-.19.07,7.26,7.26,0,0,1-1.55.13l-.9.21-1,.14c-.13,0-.3.28-.54.37a4.85,4.85,0,0,1-1,.25,1.61,1.61,0,0,1-.6,0,.8.8,0,0,1-.34-.21l-.66.33-.14,0c-.09,0-.25-.12-.16-.23a6.7,6.7,0,0,1,.56-.6,3.52,3.52,0,0,1,.58-.42,2.61,2.61,0,0,1,.48-.16l1.59-.72,2-.48,1.75-.26.37,0-.23-.14h-.13l-1,.09a9.92,9.92,0,0,1-1.61.23l-.45-.35c-.24-.2-.63-.4-.86-.61l0,0h0c-.25,0-.51,0-.76,0A3.26,3.26,0,0,1,15,17.62a5.64,5.64,0,0,1-.78.18,1.63,1.63,0,0,1-.72,0,1.63,1.63,0,0,1-.57-.45,2,2,0,0,1-.11-.25l-.46,0s-.17,0-.18-.12.16-.16.27-.2a2.06,2.06,0,0,1,.38-.09l.84-.12,1.26-.15h.3s1.66-.15,1.95-.12a13.51,13.51,0,0,1,1.7.7l1.22.71.9.22.23,0a.32.32,0,0,1,.16.08l.42.37a2.51,2.51,0,0,1,.46,0,1.44,1.44,0,0,1,.33.18l.53.67.58,1c.08.14.72-.14.72-.14a3.42,3.42,0,0,1,.49.43A32,32,0,0,1,28,24.21a16.17,16.17,0,0,0-2.64.34l-.52.25a4.19,4.19,0,0,1-1.22.28s0,.08,0,.11a.17.17,0,0,1-.1.13l-.1,0a1.4,1.4,0,0,0,.9,1.21c1.73.7,4.19-.4,5.48-1.1L29,25.34l-.59-1,0-.06A29.42,29.42,0,0,0,25.72,21a6.36,6.36,0,0,1,.69-.39A38.73,38.73,0,0,1,30.84,20a3.47,3.47,0,0,1,.9.27h0l.16.34c.29.09,2.82.89,3.13,1a.28.28,0,0,1,.13.08.51.51,0,0,1-.19.82l-3.33,1.14-.18.26,3.89.51v0h0l2.59.21a1.32,1.32,0,0,0-.55-.45c-.4-.2-4.61-.6-4.61-.6l2-.75a15.63,15.63,0,0,1,3.55.6,4.08,4.08,0,0,1,1.37,1.59l-1.38-.16-3-.24-.36.18-3.39.88-.71-.1a.18.18,0,0,1-.12,0Zm-7.42-.55h0s.1-.3.09-.23l.46-.07,0-.25-.23-.47-.27-.35-.45-.57-.05-.07.26-.14c0-.15-.43-.43-.43-.73s.55-.62.55-.62l.46-.15L23.45,21s-.67.24-.77.3a4.27,4.27,0,0,1-.88.11,7.62,7.62,0,0,1-.77-.48l-.93.12s.43.26.57.36.53.47.53.47.3.28.38.37.41.63.21,1-1.33.33-1.33.33l-.19,0,.2.23.82.71.18.16a.93.93,0,0,0,.71.17h.18a1.57,1.57,0,0,0,.34.38l0-.16a.35.35,0,0,1,.23-.42.33.33,0,0,1,.4.24c0,.1.06.2.08.3Zm-7.8-5.66a9.66,9.66,0,0,0-2,1.84c.22.85,1.35.68,1.39,1.12l-2.31-.19-.66.42a7.14,7.14,0,0,1-1.67.57l-2.67.11A5.72,5.72,0,0,1,6,23.62,7.58,7.58,0,0,0,4.42,23H4.27l-1.72-.78-.35-.42.18-.06,1.28.44a1,1,0,0,1,.53-.34,5.51,5.51,0,0,1,1.36.06l.68.29a5.61,5.61,0,0,0,1.69-.44l.63-.43.31-.82A3,3,0,0,0,7.93,19l-.66-1.1a6.68,6.68,0,0,0-.3-1,13.47,13.47,0,0,0-1.08-1.75,7.8,7.8,0,0,1-1.82.17l-.54.4a3,3,0,0,1-.74.23c-.32,0-.54-.06-.63-.25C1.52,16.31,1,16.86.43,17.41a.14.14,0,0,1-.17-.13,2.16,2.16,0,0,1,.36-.69,8.88,8.88,0,0,1,2-1.67l.19,0a3.86,3.86,0,0,1,.8-.53,7,7,0,0,1,1.17-.16,9.08,9.08,0,0,1,1.54-.16l.54.28.34.49.28,0,1.84,2.36.54.25c.86.4,1.52.86,2.57,1.28.33.13,3,.65,3.12.67Zm4,3.7a2.3,2.3,0,0,1-.46-.51l-.06-.33s0-.27,0-.33.13,0,.22,0a2.7,2.7,0,0,1,.39.19l.24.18a7.13,7.13,0,0,1,.61.58c.12.15.18.27.14.33a1.89,1.89,0,0,1-.49.16,1.79,1.79,0,0,1-.6-.25Zm.23-.36c-.21-.17-.41-.26-.45-.2s.09.24.3.41.41.26.45.2-.09-.24-.3-.41Zm12.71-2.57.13.3,3,.9.73-.93-2.44-.59-1.39.31ZM28,19a13.57,13.57,0,0,0,2.15-.24c1.63-.25,2.92-.54,3-.54.33-.08,1.29-.43,1.75-.61l.5,0,0,0h0l.24.18.46,0a.11.11,0,0,1,.08,0,.11.11,0,0,1,.08.09l.15.76a.13.13,0,0,1-.08.14L34,19.73l-2,.42a4,4,0,0,0-1.06-.33,37.21,37.21,0,0,0-4.54.64,7,7,0,0,0-.77.44l0,0h0a8.65,8.65,0,0,0-.67-.58h0a6.31,6.31,0,0,1-.16-.81,1.06,1.06,0,0,1,.1-.43c.06-.05.66-.35,1.2-.6h0l.44-.52.54-.24v0h0A7.65,7.65,0,0,0,28,19Zm6.74.77,1.89.34,1.45-1.53L34.75,19.8Zm-8.56-1.9h0l0,0-.29.34a11,11,0,0,0-1.25.64,1.15,1.15,0,0,0-.16.6,5.47,5.47,0,0,0,.09.54h0a1.21,1.21,0,0,1-.39-.49,2.43,2.43,0,0,1,.26-1.09,13.29,13.29,0,0,1,1.68-.58Zm-19,.25-.38.17A2.49,2.49,0,0,0,6,19a7.91,7.91,0,0,0-1,.8l0,.1.5-.15q.37-.23.73-.48a2.47,2.47,0,0,0,.44-.15l.5-.39.2-.07-.33-.54Zm8.41,1.32h0Zm2-1,.25.7.75-.17-.18-.12L18,18.63l-.72-.55h-.11l.4.42ZM4,15.57l-.27.21-.14.28-.16.07a11.09,11.09,0,0,0-1,2.29v.67L2.59,19a7.8,7.8,0,0,1,.79-2,.55.55,0,0,0,.47,0,1.41,1.41,0,0,0,.7-.54l0-.2.28-.17a6.73,6.73,0,0,0,1.25-.21l-.33-.46a9.3,9.3,0,0,1-1.8.15Zm2.37.72-.91.22a7.79,7.79,0,0,1-.89.69A7.28,7.28,0,0,0,3.3,18.31c-.23.28-.39.45-.4.56h.22c.5-.41,1-.81,1.53-1.16l.64-.1.62-.42L6.75,17l-.4-.7Zm27.91,1.26h0l.05,0c-.37.14-1,.36-1.25.41-.61.14-4.21.74-4.87.73h0a6,6,0,0,1-.78-1.12l.54.15h0l.08.52a.36.36,0,0,0,.18.26.34.34,0,0,0,.16,0l1-.14c.12,0,.16-.13.18-.21l.08-.43,1.48.17,3.11-.44,0,0Zm-5.95.79a.14.14,0,0,1-.09-.11l-.11-.76,1.18.06h0l.15.21-.09.42a.07.07,0,0,1-.06.06l-.93.14-.08,0ZM14.15,16a8.25,8.25,0,0,0,1.6.1s1.19-.08,1.33-.07,1.82.73,1.82.73l1.23.8.79.27-.18-.27-.5-.2L19.78,17l-.33-.33-2.06-1.92L17,14.52l-.63,0h0c-.39,0-1.26.11-1.89.19l-.65.08h-.07a1,1,0,0,1-.31-.07l-.08,0a1.56,1.56,0,0,1-.42-.35,5.71,5.71,0,0,0-.81-.23,3.49,3.49,0,0,0-.69,0,.48.48,0,0,0-.19.14l1,.32a1.37,1.37,0,0,0-.08.34,1.25,1.25,0,0,0,.26.51,2.47,2.47,0,0,0,.38.33,3.8,3.8,0,0,0,1.36.26Zm-1.45-2.8a2.58,2.58,0,0,0,.14.64,1.19,1.19,0,0,0,.16.25h0a1.94,1.94,0,0,0,.4.36l.08,0a.84.84,0,0,0,.26.06l.7-.08,1.35-.15L15,14l-.73-.31-.19-.34s-.32-.46-.49-.64a3.2,3.2,0,0,0-.52-.45,2.89,2.89,0,0,0-.56-.29c-.12,0-.25.13-.21.19l.48.72a.87.87,0,0,0-.1.36Z" fill-rule="evenodd"/></svg>