<svg xmlns="http://www.w3.org/2000/svg" class="HeroAbility-icon" viewBox="0 0 40 40" preserveAspectRatio="xMidYMid meet"><g id="_Group_2" data-name=" Group 2"><path id="_Path_3" data-name=" Path 3" d="M25,8.94c-.4,1.22-.92,2.36-1.35,3.54a12,12,0,0,0,1-1,1.47,1.47,0,0,1-.2.51,9.2,9.2,0,0,0-.56,1.26,3.89,3.89,0,0,0-.15.53.63.63,0,0,0,.22.67,5.09,5.09,0,0,1,1.14,1.43.33.33,0,0,0,.36.2c.64,0,1.24-.26,1.87-.37l1-.19c0,.13-.13.14-.2.17a9.43,9.43,0,0,0-1.82,1.18A1.06,1.06,0,0,0,25.89,18a3.22,3.22,0,0,1,.07.66c0,.16.06.19.21.14a5.47,5.47,0,0,1,1.6-.24,2.79,2.79,0,0,1,2.25,1c.78.94,1.59,1.84,2.39,2.76a1.24,1.24,0,0,1,.3.46,2.59,2.59,0,0,0-.9-.42,4.74,4.74,0,0,0-2.63.2A11,11,0,0,0,24,26.31a9.2,9.2,0,0,0-1.77,3.22,3.92,3.92,0,0,0-.07,2.16,4.88,4.88,0,0,0,.19.49c-.09,0-.12,0-.16-.07-1-1.06-2-2.11-3-3.19A2.46,2.46,0,0,1,18.61,27,5.51,5.51,0,0,1,19,25.38c.06-.15,0-.2-.13-.23a6.09,6.09,0,0,1-2.36-.86.23.23,0,0,0-.3,0,6.11,6.11,0,0,0-1,1l-.69.86s-.07.15-.16.12-.08-.15-.06-.23c.12-.49.24-1,.38-1.45A11.25,11.25,0,0,0,15,23.28.32.32,0,0,0,15,23a6.1,6.1,0,0,1-1-1.75.21.21,0,0,0-.23-.15h0c-1.12-.1-1.13-.1-1.43-1.1a3.81,3.81,0,0,1,.13-2.3,8.1,8.1,0,0,1,1.08-2.09.24.24,0,0,1,.32-.12l.05,0c.33.18.66.34,1,.5.15.07.2.14.11.31a6.13,6.13,0,0,0,1.32,7.26A6.89,6.89,0,0,0,19,25c.16.06.21,0,.27-.15A10.56,10.56,0,0,1,20.35,23c.18-.24.2-.25.31,0a5.46,5.46,0,0,0,1.42,1.72.18.18,0,0,0,.24,0l.52-.24a1.12,1.12,0,0,1,.91-.14.26.26,0,0,0,.28-.09A2,2,0,0,1,24.3,24a.78.78,0,0,0,.4-.84.89.89,0,0,1,.15-.42l.32-.58a.26.26,0,0,0,0-.34,5,5,0,0,0-1.59-1.55c-.16-.08-.15-.15,0-.24a10.17,10.17,0,0,1,2-1c.21-.07.26-.17.21-.38a6.16,6.16,0,0,0-4.64-4.85,5.54,5.54,0,0,0-3.6.23c-.17.07-.27.05-.34-.14-.13-.36-.27-.71-.41-1.07a.2.2,0,0,1,0-.28l0,0a6.49,6.49,0,0,1,3.55-1A3.21,3.21,0,0,1,22,12a.25.25,0,0,0,.35,0l0,0A28.66,28.66,0,0,0,24.8,9.12.51.51,0,0,1,25,8.94Z"/><path id="_Path_4" data-name=" Path 4" d="M12.11,20.52a7.78,7.78,0,0,1-1-1c-.61-.66-1.21-1.33-1.82-2a2.6,2.6,0,0,1-.65-2.21,7.61,7.61,0,0,1,1.73-3.75A10.84,10.84,0,0,1,15.25,8,4.74,4.74,0,0,1,18,7.7a2.3,2.3,0,0,1,1.22.71l2.61,2.89.19.24h0a3.74,3.74,0,0,0-3-.23,8.11,8.11,0,0,0-2.12.91c-.15.09-.21.11-.34-.08A11.36,11.36,0,0,0,15.4,10.8a.35.35,0,0,0-.4-.06,5.29,5.29,0,0,0-.61.27.73.73,0,0,1-.7,0,.34.34,0,0,0-.42.1c-.21.22-.44.41-.67.61a.27.27,0,0,0-.11.33.82.82,0,0,1-.14.78,4.8,4.8,0,0,0-.3.54.36.36,0,0,0,.07.46,10.63,10.63,0,0,0,1.27,1.25c.14.1,0,.17,0,.23a9,9,0,0,0-1.07,1.91,5,5,0,0,0-.41,2A3.17,3.17,0,0,0,12.11,20.52Z"/><path id="_Path_5" data-name=" Path 5" d="M8.79,27.77h.88A.3.3,0,0,0,10,27.5h0c.14-.58.29-1.16.44-1.73.11-.41.24-.52.67-.52H12.4A.58.58,0,0,1,13,26c-.12.49-.24,1-.39,1.48-.07.22,0,.25.2.25h1.46a.58.58,0,0,1,.61.81l-.35,1.34a.54.54,0,0,1-.58.49H12.21a.36.36,0,0,0-.42.33c-.13.57-.29,1.14-.44,1.71-.1.37-.22.46-.61.46H9.42a.57.57,0,0,1-.6-.78c.12-.49.24-1,.38-1.45.07-.24,0-.27-.22-.26H7.62a.62.62,0,0,1-.62-.9c.2-.57.22-.86.34-1.29s.23-.46.61-.47Z"/><path id="_Path_6" data-name=" Path 6" d="M27.25,31.52s0,.08-.07.08a5.59,5.59,0,0,1-2.6.77,1.33,1.33,0,0,1-1.38-1.64,5.89,5.89,0,0,1,1.1-2.54,12,12,0,0,1,5.14-4.27,4.32,4.32,0,0,1,1.87-.41A1.31,1.31,0,0,1,32.66,25a4.47,4.47,0,0,1-.54,1.74,6.83,6.83,0,0,1-.55.93.4.4,0,0,1,.08-.3A2.64,2.64,0,0,0,32,26.26a.91.91,0,0,0-1-1.08,3,3,0,0,0-1.36.3,9.17,9.17,0,0,0-4.4,4.07,3.25,3.25,0,0,0-.34,1c-.15.93.42,1.35,1.25,1.25a3.2,3.2,0,0,0,.94-.25Z"/><path id="_Path_7" data-name=" Path 7" d="M28.91,9.37H26.1c-.45,0-.65-.26-.53-.7l.31-1.17c.08-.31.19-.4.5-.4h5.68a.49.49,0,0,1,.52.66c-.1.41-.21.82-.32,1.22s-.19.39-.51.39Z"/><path id="_Path_8" data-name=" Path 8" d="M25,22.1a2.25,2.25,0,0,1-.4.69s-.1,0-.16,0a1.44,1.44,0,0,1-.28-.12.5.5,0,0,0-.7.07l0,0-.11.09a.69.69,0,0,0-.32.92l0,.08c.12.21,0,.36-.18.43l-.24.11c-.34.15-.46.13-.7-.16h0A4.89,4.89,0,0,1,20.46,22c-.11-.31-.24-.61-.37-.9a.31.31,0,0,1,.08-.38c.39-.39.81-.74,1.22-1.1a.29.29,0,0,1,.37,0l2,1a1.63,1.63,0,0,1,.44.4l.67.75A.44.44,0,0,1,25,22.1Z"/><path id="_Path_9" data-name=" Path 9" d="M15,11a.45.45,0,0,1,.34.17l.85,1a.71.71,0,0,1,.11.21c.26.71.52,1.42.79,2.12a.31.31,0,0,1-.08.38l-1.08,1a.28.28,0,0,1-.35,0l-2.08-1a.79.79,0,0,1-.21-.15l-.87-.89a.44.44,0,0,1-.09-.56c.29-.59.29-.6.9-.35a.36.36,0,0,0,.45-.08l.62-.56a.27.27,0,0,0,.09-.34.53.53,0,0,1,0-.14c0-.18-.21-.39-.07-.51A1.46,1.46,0,0,1,15,11Z"/><path id="_Path_10" data-name=" Path 10" d="M31.51,27.2a1.43,1.43,0,0,1-.23.7,8.28,8.28,0,0,1-3.81,3.41,1.3,1.3,0,0,1-.67.13.41.41,0,0,1-.4-.51,1.83,1.83,0,0,1,.28-.73,9.22,9.22,0,0,1,3.62-3.27,1.58,1.58,0,0,1,.75-.2.41.41,0,0,1,.46.47Z"/><path id="_Path_11" data-name=" Path 11" d="M13.6,11.31a.76.76,0,0,1,.65.82,2.42,2.42,0,0,1-.85.76.77.77,0,0,1-.73-.58.35.35,0,0,1,.14-.39c.21-.16.39-.34.59-.52S13.52,11.28,13.6,11.31Z"/><path id="_Path_12" data-name=" Path 12" d="M24.5,23.38a.24.24,0,0,1-.11.25A2.73,2.73,0,0,0,24,24a.47.47,0,0,1-.58.16.65.65,0,0,1-.28-1L23.3,23a.67.67,0,0,1,.93-.16l.07.05C24.52,23,24.45,23.24,24.5,23.38Z"/></g></svg>