<svg xmlns="http://www.w3.org/2000/svg" class="HeroAbility-icon HeroAbility-icon--hoverState" viewBox="0 0 40 40" preserveAspectRatio="xMidYMid meet"><g id="_Group_2-2" data-name="&lt;Group&gt;"><path id="_Path_2-2" data-name="&lt;Path&gt;" d="M21.53,19.07h0l0,.52,0,0h1.94a.46.46,0,0,1-.05-.1L23.21,19a.09.09,0,0,1,0,0h0a10.61,10.61,0,0,0-1.63,0A.42.42,0,0,0,21.53,19.07Z"/><path id="_Path_3-2" data-name="&lt;Path&gt;" d="M21.76,18.82h.14v-.37h-.15Z"/><path id="_Path_4-2" data-name="&lt;Path&gt;" d="M21.31,20.16a1.52,1.52,0,0,1-.33,0c0,.15,0,.54,0,.84h.55Z"/><polygon id="_Path_5-2" data-name="&lt;Path&gt;" points="26.3 19.37 26.32 19.37 26.32 19.37 26.32 18.99 25.29 19 25.12 19.25 25.75 19.69 25.97 19.48 26.3 19.37"/><path id="_Path_6-2" data-name="&lt;Path&gt;" d="M34.33,23.05a.87.87,0,0,0-.1-.24s-.19-.3-.41-.31l-.23,0a7.13,7.13,0,0,0-.62.62l-.07.1a.17.17,0,0,0-.06.17,1,1,0,0,0,.16.33,7.46,7.46,0,0,1,.91-.49Z"/><path id="_Compound_Path_2-2" data-name="&lt;Compound Path&gt;" d="M21.68,21.3a.69.69,0,0,1,.19.14h.54l.13-.28,0,0h.79l.12.09,1,0,.18.09h.24l.47-.93c-.29-.18-.91-.58-1-.62a.68.68,0,0,0-.21,0,.36.36,0,0,1-.15,0H21.48l-.08-.09v.07c0,.06-.06.08-.08.16v.07h0l.35,1.34h0Zm1.39-1.18a.1.1,0,0,1,.2,0h0a.1.1,0,1,1-.2,0Zm-.24.31h0a.1.1,0,1,1,0,.2h0a.1.1,0,1,1,0-.2Zm-.58,0h0a.1.1,0,1,1,0,.2h0a.1.1,0,1,1,0-.2Zm-.38-.37h0a.1.1,0,0,1,.14.14h0a.1.1,0,1,1-.14-.14Z"/><path id="_Path_7-2" data-name="&lt;Path&gt;" d="M22,18.82l.59,0v-.3H22Z"/><polygon id="_Path_8-2" data-name="&lt;Path&gt;" points="25.75 19.9 25.42 19.77 25.33 19.91 25.53 20.13 25.63 20.12 25.75 19.9"/><path id="_Path_9-2" data-name="&lt;Path&gt;" d="M36.85,22s-.05,0-.05.1a.56.56,0,0,0,0,.21l.17,0,.38-.07v-.38l-.53.11Z"/><path id="_Path_10-2" data-name="&lt;Path&gt;" d="M30.27,20.64l0,0,.21-.21,0-.32-.7-.77H27.35l-.07-.09v-.16h-.86l-.07.33c.12,0,.43.1.46.25a1,1,0,0,1,0,.38l-.08.2c.5.22.95.52,1.45.71h.23l.23-.27h1.63Z"/><path id="_Compound_Path_3-2" data-name="&lt;Compound Path&gt;" d="M21.54,17.8s0,.59,0,1l.11,0v-.51H22v.09h.6v-.09H23v.12l3.34,0v-.1l2.93,0,.11-.11,1,0h.16a.21.21,0,0,1,.17.19,1.54,1.54,0,0,1,0,.37c0,.14-.23.21-.25.22H29.37l-.11-.09H27.4v.14h2.44l.07.07h.79A.42.42,0,0,0,31,19l0-.1a.36.36,0,0,0,.05-.3.41.41,0,0,0-.18-.3.21.21,0,0,0-.15,0H27.26v-.05c0-.14,0-.35,0-.37h0v0c0-.15-.07-.24-.09-.28l-2,0-.25,0c-.29.08-.58.13-.86.21a1.89,1.89,0,0,1-.49.09c-.67,0-1.34,0-2,0Zm5.25.2h0a.1.1,0,0,1,.14.14h0a.1.1,0,1,1-.14-.14Z"/><path id="_Path_11-2" data-name="&lt;Path&gt;" d="M34.35,22.15l-.08.51.06.08a.94.94,0,0,1,.11.27l2.84-.61.08-.06-.35.07-.24,0v0a.69.69,0,0,1-.08-.29.18.18,0,0,1,.12-.2h0a3.11,3.11,0,0,1,.58-.13v-.08a1.38,1.38,0,0,0-.32,0v0l-.07,0a2.1,2.1,0,0,1-.56.07,2,2,0,0,1-.56.05h-.06a4.89,4.89,0,0,1-.52.07,2.43,2.43,0,0,0-.31,0,.32.32,0,0,1-.19,0,1.48,1.48,0,0,1-.4-.22H34Z"/><path id="_Path_12-2" data-name="&lt;Path&gt;" d="M29.28,18.95h0l.11.09h1c.06,0,.16-.08.17-.13a1.4,1.4,0,0,0,0-.34s0-.09-.07-.09H30.4l-1,0-.11.11h0l-2.84,0v.43h2.85Z"/><path id="_Path_13-2" data-name="&lt;Path&gt;" d="M19.65,18.61h0s-.09.29-.13.46l-.08.28h0l.08.1.08-.3c.06.11.09.21.2.24v.44l1,1.37,0-.05a.12.12,0,0,0,0-.05h0c0-.44,0-1,0-1h0a.33.33,0,0,0-.15-.19h-.46v-.48a.36.36,0,0,0,.15-.16,1.64,1.64,0,0,1,0-.2c0-.14,0-1.06,0-1.2a.23.23,0,0,1,0-.14h0a.29.29,0,0,0-.11-.11h-.61l0,0Z"/><path id="_Compound_Path_4" data-name="&lt;Compound Path&gt;" d="M25,16.76s0,.07,0,.1-.13,0-.19,0,0,.17,0,.25.12,0,.18,0l-.34,0a.22.22,0,0,0,.13.16h.47a.22.22,0,0,1,0,.07l1.91,0s0,0,.14.36v0h0l.25,0a1.68,1.68,0,0,1,.29,0,3.62,3.62,0,0,0,.3-.54.81.81,0,0,1-.14-.18c-.06,0-.12,0-.17-.07v-.72a.35.35,0,0,0-.18,0c-.28,0-.56,0-.84,0a11.31,11.31,0,0,1-1.65,0,1,1,0,0,0-.54.05c0,.08.07.09.1.14s0,.08,0,.1-.12,0-.17,0a.18.18,0,0,0,.06.13A3.08,3.08,0,0,1,25,16.76Zm1.33.09h-.93s0,0,0-.1a3.84,3.84,0,0,1,.48,0h.48S26.34,16.82,26.31,16.85Zm.6,0a.33.33,0,0,1-.21,0s0-.06,0-.09a.54.54,0,0,1,.18,0S26.93,16.81,26.91,16.85Zm-.2-.41h.23s0,.09,0,.14h-.24S26.69,16.5,26.71,16.44Zm-1.33,0h1.09s0,.08,0,.12a6.86,6.86,0,0,1-1.12,0A.15.15,0,0,1,25.38,16.44Z"/><path id="_Path_14-2" data-name="&lt;Path&gt;" d="M31.27,20.79v0l0,0Z"/><path id="_Path_15-2" data-name="&lt;Path&gt;" d="M30.95,20.47h-.42l-.06.06,0,0,.19.29c0,.11-.05.18-.06.28s.13.06.16.13S31,21,31.09,21l0,0,.14-.21-.08,0A.92.92,0,0,0,30.95,20.47Z"/><path id="_Path_16" data-name="&lt;Path&gt;" d="M31.52,21.67a1.4,1.4,0,0,1,0,.22c.1.1.17.25.28.32l.06.16a4.16,4.16,0,0,0,.66-.74c.21-.26.41-.54.6-.81l0,0,0,0a3.6,3.6,0,0,1-.38,0l-.57.06v0l-.37.44Z"/><path id="_Path_17" data-name="&lt;Path&gt;" d="M24.35,19.65a.09.09,0,0,1,0-.08l.21-.36a.26.26,0,0,1,.07-.08,1.39,1.39,0,0,0-.28-.1v0a2.82,2.82,0,0,0,0,.3c0,.06,0,.18,0,.23a.09.09,0,0,1,0,.07Z"/><path id="_Path_18" data-name="&lt;Path&gt;" d="M33.41,21.46l-.47.53-1,1.08a1.06,1.06,0,0,1-.05.17.38.38,0,0,1,.21.11s.37.38.45.5a.08.08,0,0,0,.05,0,.1.1,0,0,0,.06,0l.2-.12a1,1,0,0,1-.17-.37.28.28,0,0,1,.08-.25l.07-.09a7.73,7.73,0,0,1,.66-.66l0,0,.28,0a.58.58,0,0,1,.34.17l.06-.38-.36-.48,0,0h0l-.3-.4Z"/><path id="_Path_19" data-name="&lt;Path&gt;" d="M31.59,19.53c0-.2.05-.39.09-.58a4.9,4.9,0,0,0,.1-.77,1.86,1.86,0,0,1-.34,0h0a13,13,0,0,1-.17,1.34A1.13,1.13,0,0,0,31.59,19.53Z"/><path id="_Path_20" data-name="&lt;Path&gt;" d="M31.38,21.36h0v0l0,0Z"/><path id="_Path_21" data-name="&lt;Path&gt;" d="M32.08,20.44h0l.57-.15,0-.05-.1-.24-.08,0-.34.37Z"/><path id="_Path_22" data-name="&lt;Path&gt;" d="M23.83,19.64a.07.07,0,0,1,0-.05,1.25,1.25,0,0,0,0-.35.55.55,0,0,1,0-.23h-.24l.12.29a.91.91,0,0,1,.1.31.08.08,0,0,1,0,0Z"/><path id="_Path_23" data-name="&lt;Path&gt;" d="M24.62,19l.41.19.12-.19Z"/><path id="_Path_24" data-name="&lt;Path&gt;" d="M25.37,19.62l.22.09L25,19.29l-.14-.07a.39.39,0,0,1-.07.19l-.16.26a.09.09,0,0,1,0,.05l0,0,.85.53,0-.09-.25-.27Z"/><path id="_Path_25" data-name="&lt;Path&gt;" d="M29.13,22.25a.36.36,0,0,0-.47.17l-.25.38a1.06,1.06,0,0,1-.32.13,2.37,2.37,0,0,0-.53-.37l-1-.6a1,1,0,0,0-.26-.12,1.8,1.8,0,0,1-.48-.24l.79-1.32h0l.12-.3a.88.88,0,0,0,0-.32c0-.06-.2-.13-.38-.17v0h0l-.28.09-.2.2.06.1-.19.36h-.16l-.07.15-.53,1h-.33l-.18-.09-1,0-.12-.09h-.69l-.13.28a.25.25,0,0,1,0,.08c0,.21.05.41.08.61a.55.55,0,0,0,0,.12l.38.29a4,4,0,0,0,.44-.06l.09,0c.32,0,.64,0,1,0a5.53,5.53,0,0,1,.86.11,3,3,0,0,1,.7.23,2.25,2.25,0,0,1,.65.39.81.81,0,0,1,.26.34c0,.08.11.13.12.21a.57.57,0,0,0,.71,0c.09,0,.17.07.29.07a3.37,3.37,0,0,0,.66-.52c0-.19,0-.39,0-.58S29,22.43,29.13,22.25Z"/><path id="_Path_26" data-name="&lt;Path&gt;" d="M22.73,18.45l0,.39.48,0h.2a.08.08,0,0,1,.08,0l.34,0h2.49v-.27l-3.34,0v.27h-.11v-.39Z"/><path id="_Compound_Path_5" data-name="&lt;Compound Path&gt;" d="M29.91,18.08s0,.06,0,.1h.85a.32.32,0,0,1,.24.07.52.52,0,0,1,.22.36.46.46,0,0,1-.06.38l0,.1a.53.53,0,0,1-.34.27H30l.61.68,0,.33H31a1,1,0,0,1,.26.4l.12-.15c.08-.08.2-.15.24-.26a1.25,1.25,0,0,1,.08-.18,3.89,3.89,0,0,1,.61-.7A.68.68,0,0,0,32,19.1a.39.39,0,0,1,.22-.14l.17-.13a.33.33,0,0,0,0-.31,1,1,0,0,1-.15-.31c-.15-.2-.38-.24-.54-.37h-.84a.37.37,0,0,0-.32-.11.82.82,0,0,1-.4,0s-.07,0-.12,0-.07-.11-.13-.12-.25-.08-.39,0a.28.28,0,0,0-.13.26A.78.78,0,0,1,29.91,18.08Zm1.42,0h.12a1.51,1.51,0,0,0,.38,0h.07v.07a4.59,4.59,0,0,1-.1.85c0,.18-.07.37-.09.55l.06.1h-.08l-.2,0a1.23,1.23,0,0,1-.29,0h-.05v-.05a12.91,12.91,0,0,0,.18-1.43Z"/><path id="_Path_27" data-name="&lt;Path&gt;" d="M21.4,19.39l0-.31c0-.28,0-1.18,0-1.28l-.94,0v0s0,0,0,.08,0,1,0,1.17a1.22,1.22,0,0,0,0,.19h.86Z"/><path id="_Path_28" data-name="&lt;Path&gt;" d="M7.35,18.89a1,1,0,0,1-.09-.22,1.34,1.34,0,0,1,0-.62H7.12a.91.91,0,0,0,.06.94l0,0H7.4Z"/><path id="_Path_29" data-name="&lt;Path&gt;" d="M6.37,18h0a.7.7,0,0,0-.1.44A1.37,1.37,0,0,0,6.4,19h0A1.39,1.39,0,0,1,6.37,18Z"/><path id="_Path_30" data-name="&lt;Path&gt;" d="M6,18.63a.78.78,0,0,0,.19.3,1.64,1.64,0,0,1-.09-.53A.91.91,0,0,1,6.23,18H6.15v0c-.06,0-.1.1-.11.13A.78.78,0,0,0,6,18.63Z"/><path id="_Path_31" data-name="&lt;Path&gt;" d="M6.57,18.56a.9.9,0,0,1,0-.23A.6.6,0,0,1,6.76,18h-.1A1.05,1.05,0,0,0,6.57,18.56Z"/><path id="_Path_32" data-name="&lt;Path&gt;" d="M6.54,18H6.49a1.29,1.29,0,0,0,0,1.06h.08A1.18,1.18,0,0,1,6.54,18Z"/><path id="_Path_33" data-name="&lt;Path&gt;" d="M14.43,19c-.05-.09-.11-.19-.16-.29h0a.61.61,0,0,0,.09.27h0Z"/><path id="_Path_34" data-name="&lt;Path&gt;" d="M6.68,18.35A.84.84,0,0,0,6.9,19h.18A1,1,0,0,1,7,18H7l0,0A.4.4,0,0,0,6.68,18.35Z"/><path id="_Path_35" data-name="&lt;Path&gt;" d="M13.83,18H7.37a1.23,1.23,0,0,0,0,.59.91.91,0,0,0,.08.2l.08.12H13.9A1.28,1.28,0,0,1,13.83,18Z"/><path id="_Path_36" data-name="&lt;Path&gt;" d="M14.16,18.71a1.66,1.66,0,0,1,0-.67H14a1.16,1.16,0,0,0,.06.89,0,0,0,0,0,0,0v0h.25A.92.92,0,0,1,14.16,18.71Z"/><path id="_Path_37" data-name="&lt;Path&gt;" d="M6.57,18.58v0Z"/><path id="_Path_38" data-name="&lt;Path&gt;" d="M7.11,18h0A0,0,0,0,0,7.11,18Z"/><path id="_Compound_Path_6" data-name="&lt;Compound Path&gt;" d="M37,23.19l0,0a.08.08,0,0,1,.07,0h0l.32-.11h0l0,0a1.75,1.75,0,0,0,.33-.52l0-1.7.42-.91a.29.29,0,0,0,0-.16c0-.06-.07-.11-.13-.15l-.07-.05-1.79,0a.91.91,0,0,0-.32.15l-.13.08A.68.68,0,0,0,36,20h1.22a.3.3,0,0,1,.25.08,9.51,9.51,0,0,1-.37.9v.6c.25,0,.33,0,.35,0l0,0v.81l-.18.12-2.9.62-.47.18a8.26,8.26,0,0,0-.94.51l0,0h0l-.2.12a.2.2,0,0,1-.11,0h0a.19.19,0,0,1-.12-.09c-.08-.11-.43-.48-.44-.48s-.11-.09-.16-.07v0h0c0,.06-.21.06-.27.2a3.42,3.42,0,0,0,.5.81c.17,0,.31-.06.47-.09a.43.43,0,0,1,.07.15.3.3,0,0,0,.29.22.38.38,0,0,1,.15.05.61.61,0,0,1,.06.33.35.35,0,0,0,0,.19.17.17,0,0,1,0,.11A2.45,2.45,0,0,1,33,26a3.87,3.87,0,0,1-.61.78,6.24,6.24,0,0,1-.91.7c-.14.09-.3.16-.45.24a6.68,6.68,0,0,1-1.43.58,8.65,8.65,0,0,1-1.05.25,3.63,3.63,0,0,0-.57.11h0a2.69,2.69,0,0,0-.54,0,14.72,14.72,0,0,1-1.51,0,5.54,5.54,0,0,1-1.29-.17A15.26,15.26,0,0,1,23,28.09c-.16-.06-.31-.14-.46-.21s-.54-.26-.8-.4a11.34,11.34,0,0,1-1.27-.8c-.22-.16-.43-.34-.64-.5a5,5,0,0,1-.45-.41,11.06,11.06,0,0,1-1-1c-.18-.22-.36-.45-.51-.68a8.3,8.3,0,0,1-.7-1.24c-.08-.18-.13-.36-.2-.55a.56.56,0,0,1,.2-.15.34.34,0,0,0,.2-.33c0-.07,0-.14,0-.22l.11-.09v-.24l-.09-.1a1.2,1.2,0,0,0-.43,0c0-.07,0-.09,0-.14h1.26a.2.2,0,0,1,0-.16h0s.09-.35.17-.67H17.15l.12-.85a3.55,3.55,0,0,1-.13-1.26V18a1.91,1.91,0,0,0-.33-.07,1,1,0,0,0-.34,0A5.9,5.9,0,0,1,16.32,19c0,.13-.05.27-.08.4h0c0,.23-.06.46-.07.69,0,0,0,0,0,.06H13.81a1.12,1.12,0,0,0,.09.85H16a.12.12,0,0,1,0,.14c-.2,0-.41-.08-.63,0a.26.26,0,0,0-.08.09.43.43,0,0,0,.05.28s.07,0,.1.06,0,.19,0,.3a.24.24,0,0,0,.16.25,1.43,1.43,0,0,1,.27.14l0,.12c.07.22.12.44.2.65a9.09,9.09,0,0,0,.58,1.27,7.55,7.55,0,0,0,.9,1.22,10.4,10.4,0,0,0,1.08,1c.32.26.66.51,1,.74a7.08,7.08,0,0,0,1,.54,9.37,9.37,0,0,0,.95.41c.38.13.76.27,1.14.36a9.89,9.89,0,0,0,1.11.25l.69.12L25,29c.24,0,.48.1.72.14s.22,0,.33,0a2,2,0,0,0,.52.07.24.24,0,0,1,.1,0,2.06,2.06,0,0,0,.54.06c.26,0,.54,0,.81,0s.54-.07.82,0h.06c.12-.06.26,0,.38-.07a2.62,2.62,0,0,0,.76-.13,7.9,7.9,0,0,0,1.76-.64l.41-.22a5.74,5.74,0,0,0,.94-.66,6.84,6.84,0,0,0,.62-.66l0,0,.36-.6a.48.48,0,0,0,.08-.18,3.08,3.08,0,0,1,.1-.45,2.06,2.06,0,0,0,0-.83,1.21,1.21,0,0,1,0-.41s.07-.12.14-.15a.29.29,0,0,0,.13-.18c0-.24-.12-.43-.11-.67l2.6-.67-.13.33A.61.61,0,0,0,37,23.19ZM15.71,21.86a1.65,1.65,0,0,1,0-.32.48.48,0,0,1,.33-.06l.11.19a6.77,6.77,0,0,0,.76,0l.08-.22c.07,0,.12,0,.16.06v.31A8.81,8.81,0,0,0,15.71,21.86ZM33,24.31s-.07,0-.07.12l-.09-.29,1.3-.69a3,3,0,0,1,.15.54C33.86,24.06,33.44,24.19,33,24.31Z"/><path id="_Path_39" data-name="&lt;Path&gt;" d="M13.1,20.84a1,1,0,0,1,0-.36.6.6,0,0,1,0-.25.26.26,0,0,1,.16-.14L13.21,20a.49.49,0,0,0-.15-.05h-.68a4.22,4.22,0,0,0-.13.62.33.33,0,0,0,0,0l.1.49c.11,0,.12.07.16.11h.71a.11.11,0,0,0,.09-.11A.4.4,0,0,1,13.1,20.84Z"/><path id="_Path_40" data-name="&lt;Path&gt;" d="M37.1,23.23h0v0h0Z"/><path id="_Path_41" data-name="&lt;Path&gt;" d="M39.08,19.66c0-.15-.06-.28,0-.43a.16.16,0,0,0-.07-.15c-.09-.05-.14-.15-.25-.21h-.19c-.48,0-1,0-1.45,0a.82.82,0,0,0-.44.12c-.24.16-.52.25-.75.42a.82.82,0,0,0,0,.23l.09-.06a1,1,0,0,1,.36-.17l1.83,0h0l0,0,.08.06a.38.38,0,0,1,.17.22.39.39,0,0,1,0,.22l-.41.9,0,1.7a1.86,1.86,0,0,1-.34.55.1.1,0,0,1-.06.06l-.31.11h0c.1.07.22,0,.32.07l.18-.06a.67.67,0,0,0,.52-.39.76.76,0,0,1,.11-.18.45.45,0,0,0,.11-.32c0-.37.06-.74,0-1.12a1.25,1.25,0,0,1,0-.39,1.89,1.89,0,0,1,.26-.62c.11-.16.2-.33.29-.49S39.08,19.68,39.08,19.66Z"/><path id="_Path_42" data-name="&lt;Path&gt;" d="M6.68,18.92l.07.11h0Z"/><path id="_Path_43" data-name="&lt;Path&gt;" d="M5.93,18.67a.89.89,0,0,1,0-.58A.38.38,0,0,1,6,17.94a6.28,6.28,0,0,0-.66,0v0h-.2l-.09,0a.17.17,0,0,0-.06.12,1.33,1.33,0,0,0,.09.67.44.44,0,0,0,.06.13.47.47,0,0,0,.3.13v0h.7l0,0A.89.89,0,0,1,5.93,18.67Z"/><path id="_Path_44" data-name="&lt;Path&gt;" d="M6.67,18.89l0-.05Z"/><path id="_Path_45" data-name="&lt;Path&gt;" d="M6.61,18.75v0Z"/><path id="_Path_46" data-name="&lt;Path&gt;" d="M5.07,19A.54.54,0,0,1,5,18.83a1.43,1.43,0,0,1-.1-.73A.27.27,0,0,1,5,17.9a.3.3,0,0,1,.15,0H5.2a.44.44,0,0,0-.44-.06.74.74,0,0,1-.4,0l-.14-.07H1.37c-.06,0-.08.08-.05.14s.37,0,.58.08l-.47.24a4.55,4.55,0,0,0-.49.2,4,4,0,0,1,1,.45.41.41,0,0,1,.17-.1.34.34,0,0,1,.28.21,1.3,1.3,0,0,1-.32-.06.78.78,0,0,1-.42.11c-.09,0-.18,0-.24.08a.07.07,0,0,0,0,.08.33.33,0,0,0,.23,0c.82,0,1.65,0,2.48,0,.17,0,.34,0,.51,0l-.06-.08h0a.72.72,0,0,1-.32-.41c0-.11-.06-.31.07-.36s.24.14.27.25a1.05,1.05,0,0,0,.34.61l0,0,.07,0c.08,0,.18,0,.28,0l.06,0A.49.49,0,0,1,5.07,19Z"/><path id="_Path_47" data-name="&lt;Path&gt;" d="M16,19A3.35,3.35,0,0,1,15.66,18h-.2A2.49,2.49,0,0,0,15.79,19Z"/><path id="_Path_48" data-name="&lt;Path&gt;" d="M15.77,18A3.24,3.24,0,0,0,16.13,19h.07v0l0-.12A2.37,2.37,0,0,1,16,18Z"/><path id="_Path_49" data-name="&lt;Path&gt;" d="M16.19,17.86a.14.14,0,0,1,.08.11h0a2.42,2.42,0,0,0,.09.32,3.3,3.3,0,0,0,0-.38v-.06h0a1.2,1.2,0,0,1,.43-.06,2.06,2.06,0,0,1,.36.08.1.1,0,0,1,.06,0,.1.1,0,0,1,0,.06v.1a3.75,3.75,0,0,0,.1,1.14h.92l.38.48,0-.07h0l-.25-.32a6.48,6.48,0,0,1-.61-.84c-.12-.23-.28-.59-.36-.77l-.09,0h-1c-.11-.09-.18-.21-.32-.23l-.13.09C16,17.63,16.07,17.77,16.19,17.86Z"/><path id="_Path_50" data-name="&lt;Path&gt;" d="M19.34,21.28h.56l-.27-.45-.42-.53c0,.14,0,.35,0,.47a2.72,2.72,0,0,1,0,.33A.79.79,0,0,0,19.34,21.28Z"/><path id="_Path_51" data-name="&lt;Path&gt;" d="M15,18h-.24A2.64,2.64,0,0,0,15.2,19h.17A2.54,2.54,0,0,1,15,18Z"/><path id="_Path_52" data-name="&lt;Path&gt;" d="M14.69,18h-.16a1,1,0,0,0,0,.19,1.27,1.27,0,0,0,.05.17,5.8,5.8,0,0,0,.32.71h.14A2.75,2.75,0,0,1,14.69,18Z"/><path id="_Path_53" data-name="&lt;Path&gt;" d="M18.46,18l.5.7c.15-.59.21-.83.24-.93h-.52l0-.11c-.09,0-.16-.05-.22-.08s-.1,0-.14.07Z"/><path id="_Path_54" data-name="&lt;Path&gt;" d="M18.54,21.12c.17,0,.37.05.53-.09,0-.06,0-.15,0-.26s0-.54,0-.61l-.35-.45c-.07.25-.3,1.09-.3,1.14a.12.12,0,0,1,0,.05s0,.06,0,.09l0,0A.58.58,0,0,0,18.54,21.12Z"/><path id="_Path_55" data-name="&lt;Path&gt;" d="M17.91,18.4a6.53,6.53,0,0,0,.59.82l1.21,1.55.36.58,0,0,0,0h.69a.1.1,0,0,0,0-.09h0l-1.72-2.25-.69-1-.24-.43a1.67,1.67,0,0,0-.58,0C17.63,17.8,17.79,18.17,17.91,18.4Z"/><path id="_Path_56" data-name="&lt;Path&gt;" d="M15.35,18h-.19A2.43,2.43,0,0,0,15.5,19h.16A2.61,2.61,0,0,1,15.35,18Z"/><path id="_Path_57" data-name="&lt;Path&gt;" d="M16.26,18.71l0-.2a2.53,2.53,0,0,1-.17-.52h0l0,0h0A2.54,2.54,0,0,0,16.26,18.71Z"/><path id="_Path_58" data-name="&lt;Path&gt;" d="M14.57,19l0,0h.2a5.91,5.91,0,0,1-.3-.67,1.36,1.36,0,0,1-.06-.18,1,1,0,0,1,0-.15l0,0h-.15C14.17,18.34,14.4,18.72,14.57,19Z"/><path id="_Path_59" data-name="&lt;Path&gt;" d="M19.32,17.79s-.18.67-.27,1h0l.13.18.2.26.06-.21c.08-.28.12-.42.14-.46v-.86h-.21l-.06,0Z"/><path id="_Path_60" data-name="&lt;Path&gt;" d="M13.78,21a1.24,1.24,0,0,1-.08-.85h-.36v0a.14.14,0,0,0-.12.09.51.51,0,0,0,0,.2.9.9,0,0,0,0,.32.27.27,0,0,0,.2.18v0Z"/></g></svg>