<svg xmlns="http://www.w3.org/2000/svg" class="HeroAbility-icon HeroAbility-icon--hoverState" viewBox="0 0 40 40" preserveAspectRatio="xMidYMid meet"><path id="smg" class="cls-1" d="M19.4,13.39h0v.1h0Zm0-.11a.14.14,0,1,1-.14.14h0A.14.14,0,0,1,19.4,13.28Zm0-.06a.19.19,0,0,1,.21.17h0a.21.21,0,0,1-.19.21h0a.22.22,0,0,1-.25-.16.21.21,0,0,1,.15-.25h.09Zm.23.44H19v-.4a.17.17,0,0,1,0-.14l.21-.21a.2.2,0,0,1,.14-.06h.27l.19.3-.27.19ZM3.9,14.07H2.16a1.19,1.19,0,0,1,0-.46,5.21,5.21,0,0,1,.79,0,1.46,1.46,0,0,1,.36.34h.47S3.88,14,3.9,14.07Zm16.66.19h-.87L19.4,14h1Zm1,.18h0l.08.06h0Zm7.65.09h-1.6v-.11h-.19l-1-.86v-.15H24.83a5.9,5.9,0,0,1,1.78,0v.16h0v.08c0,.08.16.15.22.19a.82.82,0,0,1,.27.22h0l.3.24a1.66,1.66,0,0,0,.54.06h1l.09.05a.13.13,0,0,1,.07.09v.08Zm-7.62-.15a.08.08,0,0,1,.1.06v0h0a.11.11,0,0,1-.1.1.09.09,0,0,1-.1-.1h0a.09.09,0,0,1,.06-.1h0Zm0-.06a.16.16,0,0,1,.16.16.17.17,0,0,1-.16.15.16.16,0,0,1-.15-.17.15.15,0,0,1,.11-.14ZM19,13.9h-.21l-.21-.18v-.83q.2-.21.36-.42V10.6a.09.09,0,0,1,.09-.09h.4a.08.08,0,0,1,.1.07v2.18h-.26a.18.18,0,0,0-.14.06l-.26.26a.13.13,0,0,0-.06.14v.54h.78v-.37l.37-.26,1.12.18a3.42,3.42,0,0,1,.64,0,.47.47,0,0,1,.25.11v.21l-.38.38v.32a.28.28,0,0,1,.11.23.27.27,0,0,1-.33.16h-.05l-.75-.42-.18-.3H19Zm11,.61-.12.12v.06l-.25-.16h-.42v-.16c.08,0,.14-.16.22-.19h.76l.06.09v.05h1.36a2,2,0,0,1,.59.15h.2Zm-.1.49H27.08l-1.49-1.32h-.51L25,13.52h-.2a.09.09,0,0,1,0-.07h1.54v.12l1.19,1h2.14l.29.17Zm-26-.25H2.41a.17.17,0,0,0-.17.16.18.18,0,0,0,.17.17H4a.18.18,0,0,0,.17-.17h0A.16.16,0,0,0,4,14.72H4Zm11.43.46H13.8a1.09,1.09,0,0,1,.23-.29H15.4v.29Zm-11,0H1.9c-.08-.35,0-.94.27-1H4.42a.69.69,0,0,1,0,.35v.66Zm15.41-.49h-.63v.46h.63Zm1.15.28-.31.11v-.29l.31.13H21v-.06l-.42-.19-.12.07v.41l.11.07L21,15h-.11Zm15.77.13h-.49s-.05,0-.06,0h0v.08a.16.16,0,0,0,.1.08h.5a.06.06,0,0,0,.06-.06h0v-.07a.08.08,0,0,0-.06-.08ZM32,14.65h0a2.73,2.73,0,0,1,0,.7h.16v-.71H32Zm-1.07,0h0v.7h.16v-.71h-.16Zm-24.12,0,.34.09c0,.29,0,.57,0,.86l-.33.1h.56a8,8,0,0,0,.07-1.1Zm-1.09,0,.33.09a4.12,4.12,0,0,1,0,.86l-.33.1h.57c0-.37.06-.73.07-1.1Zm14.4,1.11h-1v-.3l.75-.2v-.62l-.75-.19V14h.14l.37.32h.51v1.43Zm-3.27,0v-.23h1.29v.23Zm-.61,0s-.07-.07-.07-.1a.87.87,0,0,1,.37-.16h.24v.23h-.33Zm2,0v-.24l.08.07v.2h0Zm-14.58.16H1.76a4.78,4.78,0,0,0,.06-.53l.06-.1H4.33a1.63,1.63,0,0,1-.64.66Zm26-.08h0l.09.07h0Zm0-.07a.12.12,0,0,1,0,.24h0a.12.12,0,0,1-.12-.12h0a.12.12,0,0,1,.12-.12ZM18.19,16v-.17l.09.08V16Zm-1.42,0v-.18h1.35V16ZM16,16h0c0-.09.29-.17.38-.17h.26V16Zm8.12-1.28a.12.12,0,0,1,.12.09c.16.32.29.66.42,1a.13.13,0,0,1,0,.12.18.18,0,0,1-.2.08l-.91-.42a.16.16,0,0,1-.07-.2h0l.51-.58a.12.12,0,0,1,.16-.05h0Zm5.5.92a.2.2,0,0,1,.19.19h0a.18.18,0,0,1-.18.18h0a.18.18,0,0,1-.18-.18h0a.18.18,0,0,1,.21-.15h0Zm.2-.68v.45l.13.32A.37.37,0,0,1,30,16a.39.39,0,0,1-.53.19h-.08c-.13-.09-.24-.18-.36-.28h0l-.46-.39H26.9L25.13,14h-3.3l.31-.31.11.11h.23l.12-.12H23l.13.13h.22l.13-.14H24l.13.14h.24l.09-.14H25l.1.13h.53L27,15Zm-5.06-.21h.09l1,.91a.15.15,0,0,1,.19.12h0A.16.16,0,0,1,26,16h0l-.54.29a.17.17,0,0,1-.21-.07c-.19-.4-.36-.8-.52-1.21a.17.17,0,0,1,.13-.19h0Zm-5.69,1.62H19V16h1v.45Zm-3.82-1.16V16.5H14a1.31,1.31,0,0,1-.25-.22l.06-1Zm23.35.89a.11.11,0,0,0,0-.13.09.09,0,0,0-.13,0h0l-.33.34a.07.07,0,0,0,0,.1h0a.08.08,0,0,0,.11,0h0ZM22.8,17l-.18-.13H22V16.7h.88ZM8.19,16h0a5,5,0,0,0-1.39.19c-.8.21-1.59.44-2.38.66A9.39,9.39,0,0,1,1.94,17L2,16.61H2l-.17-.22m-.05,0H1.57a.44.44,0,0,1,.11-.24H3.75a2.4,2.4,0,0,0,.47-.37,1.67,1.67,0,0,0,.28-.46,3.35,3.35,0,0,1,0-1v-.09c.07-.24.29-.21.6-.21H16.73c.14,0,1.53.11,2,.1l-.09.37h-5.1a.55.55,0,0,0-.44.18,2.86,2.86,0,0,0-.24.42.54.54,0,0,1-.43.26H8.56v-.61H8l.34.09a4.12,4.12,0,0,1,0,.86l-.33.1h.55v-.41h3.89a.59.59,0,0,0,.41-.18,1.76,1.76,0,0,0,.24-.42.54.54,0,0,1,.44-.27h5.17l.1-.43H19v1H17.9l-.2-.28H13.89a1.18,1.18,0,0,0-.32.38V16Zm17.09.53a.09.09,0,0,0-.08-.08v-.52h0l-.29-.18v-.67a.07.07,0,0,0-.07-.07H16.12a.08.08,0,0,0-.08.07v.65h0l-.21.17h0v.6l-.25.19v-.5h0v-.1a14.44,14.44,0,0,1,.06-1.61h2.19l.2.28h1V16.7Zm-17.8.3c0-.09.1-.56.14-.76h.52l.13.17-.08.56h0Zm36.23-.85a1.25,1.25,0,0,1-.07,1l.66-.24a.78.78,0,0,0,0-.6Zm-1.41,0-.57.3v.19a.76.76,0,0,0,0,.3l.52.27H37a1,1,0,0,0,.07-1,4,4,0,0,0-1.2-.12Zm-2.18,1a.09.09,0,0,1,.09.08h0s0,.07-.09.08-.07,0-.08-.08h0a.11.11,0,0,1,0-.11h0Zm-13.17.23v-.36L21.93,17h.69l.21.15v.37l-.08-.05h-.49l-1.39.15Zm-4.45,0h0a9.26,9.26,0,0,1,0-1.29H18.4a9.72,9.72,0,0,1-.06,1.32h-1a8.28,8.28,0,0,0-1.22,0Zm5.86.16H20.58v-.12l1.69-.18h.46l.16.1v.07l-.16-.11h-.5l-.3.08Zm-2.06-.67a1.43,1.43,0,0,1,.84-.27h1v.09l-1.26.25v.49a1.33,1.33,0,0,0-.54.21Zm18.56.78a.09.09,0,1,0,.13-.13h0l-.31-.36a.09.09,0,0,0-.13,0h0a.09.09,0,0,0,0,.13h0Zm-1.63-.13h-.5a.09.09,0,0,0-.09.09h0a.08.08,0,0,0,.07.08h.52a.08.08,0,0,0,.08-.08h0a.09.09,0,0,0-.06-.1h0ZM22,17.77V17.7l.21-.06h.47l.19.13V18H22Zm-3.6-.1q0-.68.06-1.35l.18.12h0a7.35,7.35,0,0,1-.08,1.48l-.14.08H16l-.14-.1h0a12,12,0,0,1,0-1.47l.13-.09a9.84,9.84,0,0,0,0,1.33l-.1.22.16-.15h.05a21.49,21.49,0,0,1,2.27,0l.19.2Zm-7.8.69H3.81v-.24h6.83ZM34.53,15H36.9a2.07,2.07,0,0,0,.22.77h0v.47H35.89l-.62.32a1,1,0,0,0,0,.6l.57.3h1.24v.72a.31.31,0,0,1-.33.18h-.09a4.92,4.92,0,0,1-1.42-.24,7,7,0,0,1-1-.47l.11-.19-1-.55H31.2l-.54-.12H29.33a.71.71,0,0,1-.4-.16c-.21-.2-.44-.39-.65-.6h.82l.33.27a.56.56,0,0,0,.42.08.37.37,0,0,0,.34-.41.42.42,0,0,0,0-.15L30,15.48v-.82l.07-.07h3.39ZM3.58,18.2a.09.09,0,0,0-.08-.08H2.4a.07.07,0,0,0-.08.05v.19s0,.07.06.08H3.5a.09.09,0,0,0,.08-.08Zm19.93.25V17.9l-.2-.4v-.86L23,16.46H20.23V16h2.49a35.17,35.17,0,0,1,3.93,1.6l-1.39.83ZM26.18,18h2.33a.29.29,0,0,1,.13.14.33.33,0,0,1-.13.38H27l-.22-.3h-1Zm-3.25.12v.46H22v-.46Zm-3,0a1.08,1.08,0,0,1,.54-.25V18h1.38v.64l-1.92.16Zm5.71.22h1.12l.23.3h1.58a.64.64,0,0,0,.21-.25.4.4,0,0,0-.21-.52H26.39l.33-.19h4a.57.57,0,0,1,.52.6h0v.16a.59.59,0,0,1-.48.31H26.92l-.34-.38h-.9l-.12.07h-.13Zm-24-.75H.91v.16A10.94,10.94,0,0,0,1,18.89m.05.05a3.49,3.49,0,0,0,.72-.05c.06,0,0-.11,0-.19v-1c-.13,0-.11-.13-.18-.13Zm1-1.66,1.7.37h0V18h0l.07.06v.27l-.06.06h0v.34h0L2,19.22H1.15c-.06,0-.25-.2-.2-.2h.81c0-.37-.06-.73-.07-1.09,0-.11,0-.25-.11-.25a4.45,4.45,0,0,0-.73,0A2.41,2.41,0,0,1,1,17.35Zm28.43,2.07a.1.1,0,0,1,.1.08h0a.13.13,0,0,1-.1.1.1.1,0,0,1-.11-.09h0a.13.13,0,0,1,0-.12h0Zm-2.56,0h0l.07-.15.2-.08.2.08.08.2-.08.2-.2.08-.2-.08-.06-.14H28v-.05h0Zm.52-.21.11.26-.11.26-.26.11-.26-.11-.11-.26.11-.26L28,19Zm-.9-.15-.16.43.65.47c.42-.1.84-.18,1.26-.29.13,0,.14-.29.17-.5a.09.09,0,0,0-.08-.1H27.49ZM2,20H1.43l-.21-.64H2l.15.45Zm27.24-1a.17.17,0,0,1,.17.19h0c0,.24,0,.51-.24.56l-1.28.3-.73-.53.21-.54a13,13,0,0,1,1.87-.08Zm-25,.61a.09.09,0,0,0-.1,0l-.45.54H2.15L2,20l.17-.24m0-.05L2,19.31,3.68,19l.08-.09h0v-.35h7a1,1,0,0,0,0-.49h-7v-.35h0l-.06-.08h0L2,17.3H3a6.55,6.55,0,0,0,1.39-.19c.8-.21,1.59-.44,2.38-.66A5.22,5.22,0,0,1,8,16.11h5.5v.28a1.3,1.3,0,0,0,.32.3h1.51v.62a13.33,13.33,0,0,0-.23,2.18H11.21A3,3,0,0,0,11,19h-.09a16.87,16.87,0,0,0-2.66,0,.07.07,0,0,0-.07.07A4.72,4.72,0,0,0,8,19.6Zm5.73.52h-4l.31-.37H8a.42.42,0,0,1-.08.29Zm5.81,0h-2.3a3.13,3.13,0,0,0-.1-.44h2.8Zm1.36.3h-3l-.21-.2h1.85l.57-.69h.77a3.93,3.93,0,0,1,0,.84Zm-7.5-.25h0a.91.91,0,0,0-.13.26H4.14l-.26-.27H7.57Zm7.51.53H12.17v-.17h3Zm12.45.06a.09.09,0,0,1,0-.1h0l.26-.22m.07,0a0,0,0,0,1,.05.05L28,21ZM9.4,20.89h0L9.21,21h0Zm-.16-.17a.28.28,0,0,1,.37.15h0a.3.3,0,0,1-.17.38h0a.31.31,0,1,1-.14-.61h0Zm5.09.57h-2.2v-.38h2.2Zm.08,0V20.9h.1v.47a.22.22,0,0,0-.08-.13Zm-5.19-.64a.44.44,0,0,1,.55.28.46.46,0,0,1-.24.62h0a.48.48,0,1,1-.37-.89h0Zm5.37.25h.49v.66H14.6v-.65Zm-2.89-.58.24.24v.94l-.12.11a2,2,0,0,0,0-.77.49.49,0,0,0-.21-.4H7.75v-.11H8a.06.06,0,0,0,.06-.06,2.19,2.19,0,0,1,.28-1.09h0a13.74,13.74,0,0,1,2.4,0h0a3.38,3.38,0,0,1,.42,1c0,.07,0,.14.08.14Zm25.6-4.05v-.5h0A2.13,2.13,0,0,1,37,15h0l1.57.05a1.79,1.79,0,0,1,.39.2,1.5,1.5,0,0,1,.13,1L39,18.14c-.06.21-.16.4-.22.63v.38a9.35,9.35,0,0,1-.14,1.4,3.25,3.25,0,0,1-.33.57,8.3,8.3,0,0,1-1.07.55,2.39,2.39,0,0,1-.37-.15A11.35,11.35,0,0,1,37,18.61l-.13-.11h0a.42.42,0,0,0,.29-.26v-.75h.07l.72-.27a.93.93,0,0,0,0-.73l-.66-.22ZM5.4,21l1.26.69.67-.14L7.21,21Zm1.84,0h0l.12.61h0l-.71.15h0L5.27,21Zm19.63-5.37h1.76L29,16h-.71a.07.07,0,0,0-.09.05v0h0a.06.06,0,0,0,0,.08l.65.65a.82.82,0,0,0,.45.16h1.32l.7.27h2.19l.58.33L34,17.7a5.64,5.64,0,0,0-.82.15c-.16,0-.1.1-.18.15a20.89,20.89,0,0,0-2.09,1.24,1.23,1.23,0,0,0-.33.35.67.67,0,0,1-.15.14l-2.6.56L27,19.64H25.48v.13l-.16.23a13.53,13.53,0,0,1-.64,1.33c-.1.15-.24.5-.41.56a.92.92,0,0,1-.33,0,19.41,19.41,0,0,0,0-3.05l-.28-.35H25.6l.13-.07h.85l.33.38h3.83a.6.6,0,0,0,.61-.59h0a.38.38,0,0,0,0-.15.62.62,0,0,0-.59-.48H26.83A33.68,33.68,0,0,0,23,15.85a.58.58,0,0,0-.22-.08H20.26V14.35h.39l.73.4a.4.4,0,0,0,.34,0,.3.3,0,0,0,.17-.38h0a.21.21,0,0,0-.08-.11h0V14h3.32Zm-19.26,6a.27.27,0,0,0,.08.22l-1.08.25L4.47,20.85H2.31a.32.32,0,0,1-.23-.09,2.28,2.28,0,0,1-.26-.67H2l.12.12H3.77l.34.34H7.45a1.85,1.85,0,0,0-.06.57v.37ZM5,21.34a5.83,5.83,0,0,1,0,1.32c-.11.31-.34.3-.74.3a1.48,1.48,0,0,1-.42,0l-.16-.11a8.14,8.14,0,0,1-.13-1.21,9.51,9.51,0,0,1-1-.65h1.9a9,9,0,0,0,.07,1.47c.11.55.3.27.35.15s0-.16,0-.16,0,.21-.11.22-.09-.13-.1-.21A8.9,8.9,0,0,1,4.53,21ZM23.57,18.6l.25.31a22,22,0,0,1,0,2.81v.7a2.41,2.41,0,0,1-.12.65,1.87,1.87,0,0,1-.15.32c0-.41.07-.82.08-1.23l-.07-.08V19.7a.48.48,0,0,0,.07-.2.66.66,0,0,0,0-.28Zm3.78,3.64a4.41,4.41,0,0,1,.88.17l.26.09a.72.72,0,0,1,.2.36.26.26,0,0,1,0,.21.54.54,0,0,1-.33.55.39.39,0,0,1-.26,0h0a1,1,0,0,0-.19-.34c-.13-.21-.22-.43-.34-.64A1.56,1.56,0,0,1,27.35,22.24Zm-3.91,1.39-.14.3h0c.06-1.73.09-3.47,0-5.23l-.3-.12h0a4.69,4.69,0,0,0-.07-.92v-.08h0v-.79l.21.1v.67l.19.4.08.36.12.18h0c0,.33.06.67.07,1l-.06.2v2.42l.06.08v.08C23.53,22.72,23.49,23.18,23.44,23.63Zm-7.67-.43a5.88,5.88,0,0,0,.1.93,1.61,1.61,0,0,1-.31-.38,24.72,24.72,0,0,1,0-6.43l.14-.11v.71h0a2.81,2.81,0,0,1-.07.71l-.13.08a4.45,4.45,0,0,1,0,.73l.13.06v1l-.11.06v.85l.11.07v.93l-.13.06v.65Zm2.89.94h-2a6.85,6.85,0,0,1-.13-.79,30.1,30.1,0,0,1,0-5.2h2l.15-.08Zm-2.14,0h-.59c0-.32-.07-.63-.1-.95l.11-.08a2.81,2.81,0,0,0,0-.58l-.12-.1v-.92l.13-.1v-.78l-.13-.12v-1l.12-.1v-.66l-.11-.09v-.58h0l.16.11h.33a29.64,29.64,0,0,0,0,4.42A8.78,8.78,0,0,0,16.52,24.14Zm3.37,0V19l2.19-.15H23l.21.13V19c.08,1.75,0,3.22,0,5-.08.12-.16.24-.25.35h0l-.46.06h-.29c-.82-.05-1.54-.18-2.34-.28Zm11.73-1.57c.28.54.52,1.1.7,1.52h0a.14.14,0,0,1,0,.15l-.08.11a2.13,2.13,0,0,1-.3.3c-.11-.29-.22-.57-.32-.86a2.31,2.31,0,0,1-.16-.69A1,1,0,0,0,31.62,22.57Zm.31,2.22c-.18.14-.37.27-.56.39h0c-.15-.26-.4-.61-.76-.64h-.1a5.62,5.62,0,0,0-.15-1,2.29,2.29,0,0,0-.29-.83,4.64,4.64,0,0,0-1.35-1.37h0a4.33,4.33,0,0,1-.28-1.07L29.82,20h-.09a1.36,1.36,0,0,0,.07.35,6,6,0,0,1,1.36,1.34,4.25,4.25,0,0,1,.35.58h0c.1.36-.16.75-.06,1.12A11.56,11.56,0,0,0,31.93,24.79Zm-12.2-8.11c0,2.9,0,5.87-.06,8.76h-.36a1.2,1.2,0,0,0-.13-.33c-.09-.22-.17-.43-.26-.64h0V17l.34-.34Zm8.77,8,.56.05h.15a1.27,1.27,0,0,1,.09.47h0a1.46,1.46,0,0,1-.32.42.42.42,0,0,1-.27,0h0l-.06-.16a1.94,1.94,0,0,0-.12-.53C28.48,24.76,28.52,24.76,28.5,24.68Zm-5.32-.39h0a5.62,5.62,0,0,1-.15,1,1.45,1.45,0,0,1-.26.43,2.33,2.33,0,0,1-.87.13c-.14,0-1.71-.31-2-.37V24.37H20c.78.1,1.45.19,2.21.27l.77-.08ZM27,19.72h0l.84.6.41-.09h0a3.77,3.77,0,0,0,.3,1.14A4.51,4.51,0,0,1,29.9,22.7a2.13,2.13,0,0,1,.28.68,5.91,5.91,0,0,1,.18,1.18c-.6.18-.56.93-.91,1.39a1.81,1.81,0,0,1-1,.12.48.48,0,0,1,.21-.34H29a1.34,1.34,0,0,0,.34-.44h0a1.23,1.23,0,0,0-.1-.46v-.06a7.45,7.45,0,0,1-.94-.08.21.21,0,0,1-.14-.1v-.2A2.16,2.16,0,0,1,28,23.9v-.12h0a.46.46,0,0,0,.53-.28v-.42a.54.54,0,0,0-.15-.47.39.39,0,0,0-.08-.1,5.78,5.78,0,0,0-1.3-.27l-.12-.08a.17.17,0,0,1-.15-.07c-.05-.07,0-.1-.06-.12h-.32a1.89,1.89,0,0,0,0,.23,1.18,1.18,0,0,0,.08.49h-.19c0-.05-.14-.08-.15-.16l-.06-.35a3.56,3.56,0,0,1-.11-.86l.07-.06h.19c.07.1.1,0,.1.23h.29V21h-.27v.21h-.2A.62.62,0,0,0,26,21v-.37a3.53,3.53,0,0,1,.13-.54v-.2h.33l-.13.61h.26s.41-.5.41-.73h0Zm5.48,4.45h.14l.15.24a2.41,2.41,0,0,1,0,.38,10.11,10.11,0,0,1-1.48,1.72c-.06.08-3,.66-3.44.26,0-.1-.08-.19-.11-.28a.66.66,0,0,1,.12-.27,1.51,1.51,0,0,1,.53-.32.2.2,0,0,0-.05.22.14.14,0,0,0,.1.07,2.12,2.12,0,0,0,1-.11h.1a2.69,2.69,0,0,0,.19-.38c.16-.42.33-.9.71-1s.66.31.88.67l.09-.05a4.11,4.11,0,0,0,1-.86.31.31,0,0,0,.06-.29Zm-24.67-2h0A1.54,1.54,0,0,1,8,22l.21-.17a1.48,1.48,0,0,1,1.33,0c.31.21.25.57.21.88-.1,1-.31,2-.43,3.06h0c-.47.45-1,.89-1.46,1.3l-.65.25v-.66a.48.48,0,0,0-.08-.16L7,26.15,6.86,26A7,7,0,0,1,7,25.1c.06-.1.2-.17.22-.28v-.45c0-.08-.18-.26-.18-.34a5.63,5.63,0,0,1,.16-1c0-.08.11-.14.15-.21s.2-.32.31-.47a2.39,2.39,0,0,1,.13-.21Zm3.72-1.63a.1.1,0,0,1,.06.09,1.71,1.71,0,0,1,0,1.4h0a3.54,3.54,0,0,1-.45.08v.1a1.47,1.47,0,0,1,.17.62,14.71,14.71,0,0,1-.39,3.62c0,.1-.1.21-.13.32s.06.13.07.18v.8a1.42,1.42,0,0,0,.08.41.86.86,0,0,1,0,.32,1.06,1.06,0,0,1-.18.33c0-.21-.45-.25-.75-.27h-.6a12.64,12.64,0,0,0-2.13.14.51.51,0,0,0-.39.22.21.21,0,0,0,0,.11,1.29,1.29,0,0,1-.13-.61,1.15,1.15,0,0,1,.11-.31l.29-.16v-.45l.71-.27h0c.53-.43,1-.89,1.53-1.36v-.43c.16-1,.35-2,.41-3a.77.77,0,0,0,0-.37,1,1,0,0,0-.87-.47h0a1.76,1.76,0,0,0-.46.06,2.42,2.42,0,0,0-.36.1,1.89,1.89,0,0,0-.31.25,1.85,1.85,0,0,1-.07-1.44ZM6.91,29.19a.36.36,0,0,1,.34-.33A11,11,0,0,1,10,28.73h.22c.13,0,.32,0,.36.19a.09.09,0,0,1,0,.07.5.5,0,0,1-.29.28,21.36,21.36,0,0,1-2.88.23A1,1,0,0,1,6.91,29.19Z"/></svg>