<svg xmlns="http://www.w3.org/2000/svg" class="HeroAbility-icon HeroAbility-icon--hoverState" viewBox="0 0 40 40" preserveAspectRatio="xMidYMid meet"><path d="M31.11,29.69C30,29,28.79,28.3,27.66,27.63c-2-1.16-4-2.37-5.95-3.65a2.71,2.71,0,0,0-3.08,0c-2.11,1.18-4.35,2.2-6.51,3.19-1.77.81-3.6,1.65-5.36,2.57a2.52,2.52,0,0,0-1.28,1.54,1,1,0,0,0,.15.84l.05.07h6.41a49.68,49.68,0,0,0,5.19-2.46,2.58,2.58,0,0,1,2.84,0,25.67,25.67,0,0,0,4.2,2.43l0,0h6.74l0,0a1.53,1.53,0,0,0,.59-1.22A1.5,1.5,0,0,0,31.11,29.69Z"/><path d="M31.46,22.31c-.76-.53-1.55-1.06-2.31-1.57a56.18,56.18,0,0,1-5.58-4.09,2.39,2.39,0,0,0-2.89,0c-2.2,1.36-4.55,2.55-6.81,3.71-1.2.61-2.44,1.25-3.65,1.9-.79.45-1.51,1.51-1.38,2a.37.37,0,0,0,.38.28h5.5l.07,0a48,48,0,0,0,4.57-2.3,2.29,2.29,0,0,1,2.65,0,23,23,0,0,0,3.55,2.35l0,0h5.82a.6.6,0,0,0,.57-.46A1.76,1.76,0,0,0,31.46,22.31Z"/><path d="M12.49,17.48h4.87l0,0c1.69-.91,2.5-1.37,4-2.3a2,2,0,0,1,2.43,0,23.22,23.22,0,0,0,2.89,2.37l0,0h1.37l3.6,0h.07l0,0a1.43,1.43,0,0,0,.51-1.09,1.52,1.52,0,0,0-.56-1.15c-.7-.59-1.32-1.11-1.9-1.59a40.59,40.59,0,0,1-4.46-4.1,2.15,2.15,0,0,0-2.75,0c-2.72,1.88-5.61,3.58-8.42,5.22l-.68.4c-1,.6-1.49,1.58-1.11,2.21Z"/></svg>