<svg xmlns="http://www.w3.org/2000/svg" class="HeroAbility-icon HeroAbility-icon--hoverState" viewBox="0 0 40 40" preserveAspectRatio="xMidYMid meet"><g id="_Group_" data-name="&lt;Group&gt;"><path id="_Path_" data-name="&lt;Path&gt;" d="M18.64,25.9q0-1,0-2.09c0-.12,0-.24,0-.36a1.32,1.32,0,0,0-.11-.63.33.33,0,0,1,0-.43l1-1.14a.24.24,0,0,1,.29-.08h0c.4-.15.53.22.72.41s.46.47.68.72.27.33.05.54a.14.14,0,0,0,0,.14s0,.09,0,.13c-.16.31,0,.62,0,.93s0,.64,0,1c0,.62,0,1.23,0,1.85,0,.13.08.16.15.2l2.42,1.36a.6.6,0,0,1,.25.2.14.14,0,0,0,.16.07.24.24,0,0,1,.23.08.21.21,0,0,0,.21.06.27.27,0,0,1,.34.19,3.33,3.33,0,0,1,.12.34c.12.38.23.77.35,1.15a.5.5,0,0,1-.05.33c-.13.4-.49.36-.76.42s-.67.17-1,.23-.36,0-.42-.22a.16.16,0,0,0-.12-.11c-.11,0-.2-.07-.23-.2a.12.12,0,0,0-.08-.07A9.11,9.11,0,0,1,21.28,30c-.39-.21-.77-.45-1.14-.68a.4.4,0,0,0-.47,0c-.73.44-1.46.87-2.2,1.31a.79.79,0,0,1-.37.16.13.13,0,0,0-.13.1.26.26,0,0,1-.19.16.2.2,0,0,0-.15.14c-.05.21-.21.24-.39.21l-1.11-.24-.36-.08c-.13,0-.19-.13-.28-.23-.29-.31-.06-.6,0-.87s.18-.66.3-1,.17-.32.4-.26a.18.18,0,0,0,.16,0s.07-.07.1-.07c.42-.06.67-.41,1-.58s.7-.39,1.05-.58l.87-.48a.4.4,0,0,0,.24-.41c0-.24,0-.47,0-.71Z"/><path id="_Path_2" data-name="&lt;Path&gt;" d="M8.26,22.56a.26.26,0,0,1-.3-.19c-.13-.36-.24-.73-.36-1.1,0-.06,0-.14,0-.18-.2-.28,0-.52.1-.75a.22.22,0,0,1,.16-.1l1.51-.34a.3.3,0,0,1,.4.2.2.2,0,0,0,.13.13c.1,0,.2.08.24.2a.11.11,0,0,0,.06.06,17.68,17.68,0,0,1,2.14,1.19,6.15,6.15,0,0,1,.57.34.42.42,0,0,0,.51,0l2.46-1.45a.46.46,0,0,1,.24-.09h.06c.08-.21.36-.22.44-.42a.28.28,0,0,1,.34-.19l1.57.35.1,0a.78.78,0,0,1,.19.66c-.13.41-.25.82-.38,1.23s-.11.34-.47.37a.35.35,0,0,0-.13.06s-.06.07-.1.08a11.48,11.48,0,0,0-1.49.83c-.51.26-1,.56-1.51.83a.6.6,0,0,0-.36.63c0,.78,0,1.56,0,2.34,0,.18-.06.37,0,.53s0,.47.12.66a.24.24,0,0,1,0,.3,1.76,1.76,0,0,1-.22.27c-.3.3-.59.62-.87.95-.08.09-.19.08-.3.11-.35.08-.49-.16-.68-.36l-.82-.88a.27.27,0,0,1,0-.4.21.21,0,0,0,.06-.22s0-.08,0-.1c.18-.27,0-.55,0-.82,0-.9,0-1.79,0-2.69a.32.32,0,0,0-.2-.33L9.16,23a.65.65,0,0,1-.27-.21.11.11,0,0,0-.1-.06.36.36,0,0,1-.33-.12A.18.18,0,0,0,8.26,22.56Z"/><path id="_Path_3" data-name="&lt;Path&gt;" d="M21.32,14.15q0,.72,0,1.44a.57.57,0,0,1,0,.29.14.14,0,0,0,0,.18.18.18,0,0,1,.06.18.34.34,0,0,0,.09.35.22.22,0,0,1,0,.28c-.08.11-.17.21-.26.31l-.8.87a.5.5,0,0,1-.33.13c-.47.08-.59-.32-.82-.55s-.4-.39-.58-.6a.43.43,0,0,1-.08-.53,1,1,0,0,0,.09-.69,1,1,0,0,1,0-.32c0-.8,0-1.59,0-2.39,0-.21,0-.43,0-.64s-.1-.15-.17-.19l-2.36-1.33a.72.72,0,0,1-.28-.22.13.13,0,0,0-.16-.06.21.21,0,0,1-.21-.07.24.24,0,0,0-.23-.07.26.26,0,0,1-.33-.2c-.13-.37-.25-.75-.36-1.12,0-.12-.07-.23-.11-.35s0-.23.06-.34c.11-.39.44-.35.7-.4s.72-.19,1.09-.25c.19,0,.33,0,.39.21a.2.2,0,0,0,.13.13s.09,0,.12.05c.26.3.67.37,1,.59s.67.41,1,.61l1,.6a.31.31,0,0,0,.37,0l2.27-1.35a.75.75,0,0,1,.33-.14A.15.15,0,0,0,23,8.42c0-.1.11-.13.19-.16s.14-.05.16-.13.21-.24.38-.21l1.09.24.36.08c.13,0,.19.13.28.22.29.31.07.6,0,.87s-.18.66-.31,1-.17.32-.4.25a.16.16,0,0,0-.16.05c-.08.07-.16.14-.29.1a.12.12,0,0,0-.1,0,7.84,7.84,0,0,1-1.51.94c-.39.24-.8.45-1.2.67a.35.35,0,0,0-.2.36c0,.48,0,1,0,1.44Z"/><path id="_Path_4" data-name="&lt;Path&gt;" d="M28.25,26.15v1.29a.64.64,0,0,1-.05.34.14.14,0,0,0,0,.18.18.18,0,0,1,.05.18.34.34,0,0,0,.09.35.22.22,0,0,1,0,.3l-.31.35-.74.8a.51.51,0,0,1-.31.13c-.43.1-.58-.26-.78-.47s-.46-.47-.67-.72-.21-.31,0-.49a.15.15,0,0,0,0-.14.4.4,0,0,1,.05-.33.11.11,0,0,0,0-.08,6.83,6.83,0,0,1,0-1.65c0-.49,0-1,0-1.46a.43.43,0,0,0-.25-.43l-2.4-1.35a.73.73,0,0,1-.3-.23.13.13,0,0,0-.17-.07.22.22,0,0,1-.21-.07A.24.24,0,0,0,22,22.5a.26.26,0,0,1-.33-.2c-.17-.51-.33-1-.49-1.53v0a.82.82,0,0,1,.34-.56l1.55-.35a.28.28,0,0,1,.37.2.24.24,0,0,0,.17.15.24.24,0,0,1,.18.17.12.12,0,0,0,.07.07,12.51,12.51,0,0,1,2,1.1l1.06.61c.11.06.18,0,.26-.05.64-.38,1.28-.77,1.93-1.14a8.38,8.38,0,0,1,.77-.41.9.9,0,0,0,.46-.39.28.28,0,0,1,.34-.19l1.19.27s.08,0,.12,0c.34,0,.45.22.58.44a.23.23,0,0,1,0,.19c-.16.51-.31,1-.47,1.51a.27.27,0,0,1-.36.21.17.17,0,0,0-.18,0,.29.29,0,0,1-.29.1.13.13,0,0,0-.1,0,14,14,0,0,1-2,1.21c-.26.15-.52.3-.79.44a.33.33,0,0,0-.18.35c0,.45,0,.9,0,1.35Z"/><path id="_Path_5" data-name="&lt;Path&gt;" d="M25.63,13.24c0-.46,0-.92,0-1.38,0-.27-.06-.53,0-.79a.14.14,0,0,0-.06-.13.26.26,0,0,1,0-.4q.4-.45.81-.88l.2-.22c.09-.12.22-.12.36-.15.43-.09.55.27.74.46s.47.48.69.74.19.3,0,.47a.17.17,0,0,0,0,.18.27.27,0,0,1-.05.28.12.12,0,0,0,0,.1,5.94,5.94,0,0,1,.06,1.54c0,.56,0,1.12,0,1.68a.37.37,0,0,0,.22.37l2.21,1.25a.85.85,0,0,1,.36.27.12.12,0,0,0,.15.06.22.22,0,0,1,.23.07.22.22,0,0,0,.21.07A.27.27,0,0,1,32,17c.14.36.21.74.35,1.1,0,.1.06.22.1.33s0,.24-.06.38c-.11.36-.4.32-.64.38s-.77.18-1.15.26a.28.28,0,0,1-.37-.18.28.28,0,0,0-.16-.16s-.08,0-.1,0c-.24-.31-.64-.36-.94-.57s-.66-.4-1-.6l-1-.59a.39.39,0,0,0-.46,0l-2.41,1.42a.69.69,0,0,1-.33.14.14.14,0,0,0-.14.11.21.21,0,0,1-.17.15.23.23,0,0,0-.18.16.26.26,0,0,1-.34.19l-1.17-.26-.27-.06c-.15,0-.22-.13-.33-.25-.29-.32,0-.59,0-.85s.17-.62.28-.92.15-.41.44-.32c.07,0,.12,0,.17-.07a.24.24,0,0,1,.23-.08.12.12,0,0,0,.12,0,10.64,10.64,0,0,1,1.73-1.06c.41-.25.84-.47,1.25-.72.1-.06.09-.13.09-.22,0-.48,0-1,0-1.44Z"/><path id="_Path_6" data-name="&lt;Path&gt;" d="M11.71,13.29c0-.44,0-.87,0-1.3a.75.75,0,0,1,0-.34.15.15,0,0,0,0-.18.29.29,0,0,1,0-.26.26.26,0,0,0-.06-.22.27.27,0,0,1,0-.39l1.09-1.18h0a.72.72,0,0,1,.67,0l1,1.07c.15.16.25.32,0,.52-.05.05,0,.12,0,.18a.24.24,0,0,1-.06.26.11.11,0,0,0,0,.14,1.08,1.08,0,0,1,.06.55c0,.82,0,1.63,0,2.45a.51.51,0,0,0,.3.53c.8.44,1.59.89,2.38,1.34a.71.71,0,0,1,.28.22.13.13,0,0,0,.14.07.27.27,0,0,1,.25.09.22.22,0,0,0,.23.06.24.24,0,0,1,.3.17c.13.37.25.75.36,1.12,0,.12.07.23.11.35s0,.24-.06.36c-.11.41-.46.34-.71.41s-.71.18-1.07.24c-.19,0-.33,0-.39-.21a.21.21,0,0,0-.15-.14.27.27,0,0,1-.2-.18.11.11,0,0,0-.09-.09A4,4,0,0,1,15,18.4c-.65-.35-1.27-.77-1.93-1.12-.11-.06-.18,0-.25,0l-2.24,1.32a.89.89,0,0,1-.47.2c-.07,0-.09.06-.11.11a.22.22,0,0,1-.15.14.29.29,0,0,0-.23.23c0,.14-.17.17-.3.14L8.1,19.2l-.32-.06c-.13,0-.19-.11-.27-.21-.27-.31-.08-.6,0-.87s.18-.63.29-.94.15-.38.43-.3a.15.15,0,0,0,.14,0,.33.33,0,0,1,.31-.11.11.11,0,0,0,.08,0A17.23,17.23,0,0,1,11,15.28l.56-.32a.27.27,0,0,0,.16-.27C11.73,14.21,11.74,13.75,11.71,13.29Z"/><path id="_Path_7" data-name="&lt;Path&gt;" d="M20,30.18a.34.34,0,0,1,.16.06l2.07,1.15a2,2,0,0,1,.33.24c.28.24.28.43,0,.63l-1.32.88-.55.37a.39.39,0,0,1-.34,0,2.9,2.9,0,0,1-1-.48l-1.7-1.17c-.32-.22-.31-.4,0-.58l1.86-1A1.24,1.24,0,0,1,20,30.18Z"/><path id="_Path_8" data-name="&lt;Path&gt;" d="M19.81,5.76a.3.3,0,0,1,.19.06l1.94,1.07a2.34,2.34,0,0,1,.5.37.29.29,0,0,1,0,.5L21,8.69c-.16.11-.33.21-.48.32a.57.57,0,0,1-.58.07,4.31,4.31,0,0,1-1.05-.61c-.47-.31-.94-.63-1.4-1a.88.88,0,0,1-.21-.18c-.1-.13-.1-.27.06-.36l2.16-1.15A.56.56,0,0,1,19.81,5.76Z"/><path id="_Path_9" data-name="&lt;Path&gt;" d="M8,25.4a11.92,11.92,0,0,1,0-1.52c.06-.36.23-.46.55-.3l2,1a.48.48,0,0,1,.27.34,4.33,4.33,0,0,1,0,1.5c0,.51-.08,1-.11,1.52a.65.65,0,0,1,0,.27c-.08.15-.19.21-.35.11L8.28,27a.58.58,0,0,1-.3-.57A6.38,6.38,0,0,0,8,25.4Z"/><path id="_Path_10" data-name="&lt;Path&gt;" d="M29,13c0-.44,0-.87,0-1.31a1.39,1.39,0,0,1,0-.3c.06-.26.23-.34.46-.23l1.31.64.75.37a.43.43,0,0,1,.25.35,3.06,3.06,0,0,1,.06.81c-.07.77-.12,1.54-.18,2.31,0,.31-.19.38-.44.22l-1.83-1.13A.73.73,0,0,1,29,14c0-.34,0-.67,0-1Z"/><path id="_Path_11" data-name="&lt;Path&gt;" d="M28.94,25.54c-.1-.44.27-.63.58-.79.77-.41,1.57-.78,2.35-1.15.26-.12.42,0,.41.28q0,1.13-.08,2.25a.62.62,0,0,1-.34.57c-.61.34-1.21.72-1.81,1.08a2.44,2.44,0,0,1-.55.25.3.3,0,0,1-.43-.29C29,27,29,26.3,28.94,25.54Z"/><path id="_Path_12" data-name="&lt;Path&gt;" d="M11,11.86c0,.73,0,1.46-.06,2.19a.65.65,0,0,1-.36.63c-.6.33-1.18.7-1.77,1.06a2.26,2.26,0,0,1-.61.27.29.29,0,0,1-.39-.28c-.05-.78-.09-1.56-.14-2.33A.42.42,0,0,1,7.85,13a3,3,0,0,1,.69-.46l2.05-1C10.89,11.43,11,11.54,11,11.86Z"/></g></svg>