<svg xmlns="http://www.w3.org/2000/svg" class="HeroAbility-icon" viewBox="0 0 40 40" preserveAspectRatio="xMidYMid meet"><path d="M18.5,15.67a.63.63,0,0,0-.65-.62h0a.62.62,0,1,0,.66.62Z"/><path d="M21.85,15.05a.62.62,0,0,0-.14,1.22h.14A.62.62,0,0,0,22,15.05Z"/><path d="M15.78,11.46a18.74,18.74,0,0,0,4.07.51A18.74,18.74,0,0,0,24,11.46,3.29,3.29,0,0,0,26.13,9a.47.47,0,0,0,0-.34.42.42,0,0,0-.68-.09A8.57,8.57,0,0,1,24,9.87h0a7.7,7.7,0,0,1-2.93.76A9.44,9.44,0,0,0,23,9.81a1.71,1.71,0,0,0,.78-2,3.35,3.35,0,0,0-1-1.52,5.22,5.22,0,0,0-2.93-.82,4.88,4.88,0,0,0-2.8.82,4,4,0,0,0-1.23,3.48v.12a8.57,8.57,0,0,1-1.41-1.32.42.42,0,0,0-.68.09.47.47,0,0,0,0,.34A3.29,3.29,0,0,0,15.78,11.46Z"/><path d="M24.66,19.16h0a2.61,2.61,0,0,0-.44-.12l.77-2.3.82-.15v-.1a11.58,11.58,0,0,0,.27-1.76v0a8.74,8.74,0,0,0-1.31-2.47.48.48,0,0,0-.53-.17h0a9.92,9.92,0,0,1,1.52,2.67,12,12,0,0,1-.24,1.57l-.82.16L23.84,19h-.34a2,2,0,0,0-.89.38,1.8,1.8,0,0,0-.54.62l-.07.14a.21.21,0,0,1-.07.18,1.76,1.76,0,0,0,0,.82,1.17,1.17,0,0,0,0,.18.12.12,0,0,0,0,0l0,.12h0a2,2,0,0,0,1.83,1.18,1.64,1.64,0,0,0,.35,0,1.87,1.87,0,0,0,1.61-2.09v-.06a1.78,1.78,0,0,0-.48-.93h0a2,2,0,0,0-.42-.32h0ZM25,21.51a1.29,1.29,0,0,1-.87.53h-.24a1.32,1.32,0,0,1-1.24-.82l2.28-1.13A1.11,1.11,0,0,1,25,21.48Z"/><path d="M17.73,20.34a.46.46,0,0,0,0-.1,1.85,1.85,0,0,0-.57-.82,2,2,0,0,0-1-.43h-.34L15,16.46l-.82-.16A12,12,0,0,1,14,14.73a9.92,9.92,0,0,1,1.52-2.67h0a.48.48,0,0,0-.53.17,8.74,8.74,0,0,0-1.31,2.47v0a11.58,11.58,0,0,0,.27,1.76v.1l.82.15.77,2.3a2.61,2.61,0,0,0-.44.12h0a1.21,1.21,0,0,0-.23.12h0a2,2,0,0,0-.42.32h0a1.78,1.78,0,0,0-.48.93,1.87,1.87,0,0,0,1.54,2.14h.06a1.64,1.64,0,0,0,.35,0,2,2,0,0,0,1.76-1.12h0l0-.12a.12.12,0,0,0,0,0,1.17,1.17,0,0,0,0-.18,1.41,1.41,0,0,0,0-.37A1.48,1.48,0,0,0,17.73,20.34Zm-1.89,1.73H15.6a1.29,1.29,0,0,1-.87-.53,1.11,1.11,0,0,1,.07-1.39l2.28,1.13A1.32,1.32,0,0,1,15.84,22.07Z"/><path d="M28.84,25l-.42,1-1.78.89L22.18,24.5,19.85,26,17.51,24.5,13.06,26.9,11.27,26l-.42-1a.24.24,0,0,0-.45.09l.12,2.42,1.78,2.84,2.62,1.22-.07-.82a7.54,7.54,0,0,1,2.53-2.64l2.47.68,2.47-.68a7.54,7.54,0,0,1,2.56,2.64l-.07.82,2.6-1.22,1.78-2.84.12-2.42a.24.24,0,0,0-.45-.09Z"/><path d="M25.85,11a1,1,0,0,0,0,1.41A8.86,8.86,0,0,1,28.15,18a19.91,19.91,0,0,1-1.92,7.78h0a.68.68,0,0,0,.82.06l.28-.18A21.3,21.3,0,0,0,29.11,18a10.19,10.19,0,0,0-3.23-7Z"/><path d="M12.61,25.78a.82.82,0,0,0,.86,0h0A20.47,20.47,0,0,1,11.55,18a8.86,8.86,0,0,1,2.34-5.56,1,1,0,0,0,0-1.41h0a10.2,10.2,0,0,0-3.23,7,21.26,21.26,0,0,0,1.78,7.65Z"/><path d="M23.34,30.09h0c-1.41,2.37-1.91,3.09-3.1,3.21h-.79c-1.19-.12-1.69-.82-3.1-3.21h0A1.64,1.64,0,0,0,16.42,32c1.13,1.5,1.78,2.33,3,2.47h.94c1.19-.11,1.83-.94,3-2.47a1.64,1.64,0,0,0,.07-1.87Z"/></svg>