<svg xmlns="http://www.w3.org/2000/svg" class="HeroAbility-icon HeroAbility-icon--hoverState" viewBox="0 0 40 40" preserveAspectRatio="xMidYMid meet"><path id="_Compound_Path_3" data-name="&lt;Compound Path&gt;" d="M12.34,31.78c-.62.16-1.23.32-1.83.51A27.61,27.61,0,0,1,15.6,28.2a26,26,0,0,0-1.74,2.47A2.52,2.52,0,0,1,12.34,31.78ZM22.48,29c-.22.2-.45.39-.69.56a24.64,24.64,0,0,0,4.75-.87,1.34,1.34,0,0,0,.33-.26c.2-.35.42-.7.65-1,.48-.76,1-1.52,1.49-2.24.11-.19.22-.38.32-.57C29,24.85,22.54,29,22.48,29ZM34.54,12.43A17.33,17.33,0,0,1,31.61,19a.33.33,0,0,1,.06.38c-1.81,3.61-6.54,6.14-10.35,8.18-.76.41-1.48.79-2.13,1.16a.33.33,0,0,1-.45-.44l2.41-4.57c-2.77.44-6.74,3-9.69,4.9-.86.55-1.6,1-2.23,1.4a.33.33,0,0,1-.49-.32v-.06a63.67,63.67,0,0,1,3.51-7.87c-.71.29-1.77.68-2.05.84a.19.19,0,0,1-.27-.26l2.79-3.11c-1.64.26-4,1.77-5.74,2.9-.51.33-.95.61-1.32.83a.19.19,0,0,1-.29-.19v0c.53-1.58,2.89-6.94,4.53-8.15a3.53,3.53,0,0,0-.47.06.19.19,0,0,1-.2-.09c0-.07,0,0,0-.11a6.25,6.25,0,0,1,.64-.81l.07-.07c2.25-2.65,6.68-4.65,9.44-3.49l.09,0,.07,0h0a1.89,1.89,0,0,1,.73.62c3.86-2.57,8.71-3.95,12.09-2.52a.33.33,0,0,1,.14.06l.11.05h0l0,0h0C34.19,9.14,34.8,10.52,34.54,12.43ZM14.48,16.24c.44-.13.41.7.37.81a8.22,8.22,0,0,0,2.81-2.76c.72-2.66-2.32-2.53-2.33-2.55a13.12,13.12,0,0,0-3.45,2.81s1,.19,1,.25a23.73,23.73,0,0,1-2.12,2.68,1.62,1.62,0,0,0,.26-.06A28.72,28.72,0,0,1,14.48,16.24ZM25.5,11a14,14,0,0,0-8,6.42c0,.06,3.28-1.39,3.23-.49,0,.59-1.91,2.36-3,3.74a2.73,2.73,0,0,0,.44-.1,48.48,48.48,0,0,1,5.85-2c.74-.22.7,2.15.63,2.34,2.63-.61,4.46-4.63,4.73-5.63C30.65,10.85,25.52,11.08,25.5,11Z"/></svg>