<svg xmlns="http://www.w3.org/2000/svg" class="HeroAbility-icon HeroAbility-icon--hoverState" viewBox="0 0 40 40" preserveAspectRatio="xMidYMid meet"><g id="_Group_2" data-name="&lt;Group&gt;"><path id="_Compound_Path_" data-name="&lt;Compound Path&gt;" d="M18.68,21.32H12.22a4.79,4.79,0,0,1-1.06-.12c-.59-.13-1.18-.25-1.77-.36A.55.55,0,0,1,9,20.49a3.06,3.06,0,0,1-.14-2.22.5.5,0,0,1,.5-.42c.65,0,1.27-.27,1.92-.34a6.85,6.85,0,0,1,1.42,0l13.12,1.3a3,3,0,0,1,.61.08,1.18,1.18,0,0,1,.84.79A1.2,1.2,0,0,1,26.64,21a3.74,3.74,0,0,1-1.73.34ZM11.46,17.8c-.12,0-.26,0-.26.21s.1.14.2.14.29,0,.29-.2S11.57,17.81,11.46,17.8Zm.08,3.15a.26.26,0,0,0-.26-.22c-.1,0-.18.05-.16.16s.14.21.28.22S11.55,21.05,11.54,20.95Z"/><path id="_Compound_Path_2" data-name="&lt;Compound Path&gt;" d="M25,28.05a1.37,1.37,0,0,1-.62-.33,1.28,1.28,0,0,0-.56-.27l-2.13-.59a.34.34,0,0,0-.29,0,.71.71,0,0,1-.61.05l-8.31-2.4a1.1,1.1,0,0,1-.49-.27c-.25-.24-.52-.47-.78-.69a.59.59,0,0,1-.23-.42.24.24,0,0,0-.21-.24c-.24-.07-.48-.17-.72-.24s-.19-.1-.16-.24a.8.8,0,0,0,0-.35.26.26,0,0,0-.29-.23H9.17c-.28,0-.38,0-.44-.3a.36.36,0,0,0-.31-.3c-.2,0-.4-.11-.59-.16a1.28,1.28,0,0,1-1-1.31,9.87,9.87,0,0,1,.07-1.21c.06-.59.41-.74.9-.89a3.61,3.61,0,0,1,.73-.1.31.31,0,0,0,.31-.24c.17-.5.24-.53.76-.43l.16,0c.4,0,.49-.07.37-.45v0c-.13-.4-.11-.43.3-.52l.39-.09c.21,0,.38-.11.4-.36s.12-.16.2-.22a6.45,6.45,0,0,1,2.6-1c1.41-.36,2.84-.66,4.26-1,1.1-.22,2.2-.44,3.32-.6.16,0,.32,0,.42.13s.13.09.23.07a18.46,18.46,0,0,1,2.4-.44c.1,0,.13-.07.18-.13a2.31,2.31,0,0,1,.87-.75s.09-.05.12,0,0,.08,0,.11a6.38,6.38,0,0,1-1.31,1.57,1.64,1.64,0,0,1-.62.21c-.49.15-1,.27-1.48.41a.58.58,0,0,1-.25,0c-.14,0-.17-.07-.12-.21.2-.55.1-.66-.47-.56a.48.48,0,0,0-.35.17.44.44,0,0,1-.27.13L18.71,14a.37.37,0,0,1-.21,0c-.31-.14-.59,0-.88.06s-.21.16-.24.31.06.23.17.3.21.06.3.15a1.78,1.78,0,0,1-.52.16,2.29,2.29,0,0,0-.75.31,2.88,2.88,0,0,1-.76.23c-.48.17-1,.07-1.48.23a12.45,12.45,0,0,0-2.44.8l-.3.18s-.1.06-.08.13.09.06.14.06h.55a.39.39,0,0,1,.37.17c.12.2.3.21.48.21.66,0,1.31,0,2,.05s1.61.08,2.41.1l.61,0a2.41,2.41,0,0,0,1.6-.36.46.46,0,0,1,.29,0,4.32,4.32,0,0,1,1.14.16,3.13,3.13,0,0,0,.87,0c.41,0,.61.22.55.62,0,.14,0,.15.13.16a.67.67,0,0,1,.45.24l-2-.2c-2.8-.28-5.6-.55-8.39-.84a7.13,7.13,0,0,0-2.42.16c-.38.09-.76.14-1.15.2a.46.46,0,0,0-.39.29,3.21,3.21,0,0,0-.07,2.43c0,.13.12.26.18.39a.51.51,0,0,0,.41.32c.8.14,1.58.31,2.37.49a2.07,2.07,0,0,0,.47,0H22.32a.94.94,0,0,1,.35,0s0,.05,0,.05c-.27,0-.38.13-.27.41a.12.12,0,0,1-.07.16,1.16,1.16,0,0,1-.59.17,4.33,4.33,0,0,0-1.22,0,1.53,1.53,0,0,1-1.37-.24,1.31,1.31,0,0,0-.86-.26l-2.6-.09c-.82,0-1.64-.09-2.46-.09-.09,0-.17,0-.26,0s-.38-.09-.51.15A.35.35,0,0,1,12,22a1.54,1.54,0,0,0-.5,0s-.1,0-.12.05,0,.1.07.13a6.24,6.24,0,0,0,1,.59,20.83,20.83,0,0,0,2.15.73,9.73,9.73,0,0,1,1.19.28,1.72,1.72,0,0,1,.63.33,1.75,1.75,0,0,0,.68.25c.18.06.23.1,0,.23a.39.39,0,0,0,.06.64,4.19,4.19,0,0,1,.52.29.24.24,0,0,0,.29,0,.79.79,0,0,1,.55-.06,8,8,0,0,1,1.94.62.17.17,0,0,1,.09.07c.14.32.47.29.72.38s.24,0,.23-.19a2.12,2.12,0,0,0-.05-.4c-.05-.2,0-.25.21-.22a1.68,1.68,0,0,1,.29.09c.56.2,1.12.42,1.69.6.22.07.32.25.45.4A6,6,0,0,1,25,28.05ZM11,16.69a.51.51,0,0,0,.32-.08,8.45,8.45,0,0,1,.89-.5.14.14,0,0,0,.1-.17c0-.24-.09-.48-.15-.72a.18.18,0,0,0-.2-.16,1.1,1.1,0,0,0-.75.63.54.54,0,0,1-.12.2,1.19,1.19,0,0,1-.77.33c-.09,0-.18,0-.17.16s0,.2.17.22Zm-.46,5.53h0a2.16,2.16,0,0,0-.31,0,.2.2,0,0,0-.18.19c0,.11.08.14.17.16l.38.13c.18.07.4.14.43.34.06.41.39.5.67.66.1.06.2,0,.22-.08a2.93,2.93,0,0,0,.1-.77c0-.18-.19-.24-.3-.35a.85.85,0,0,0-.91-.31A1.12,1.12,0,0,1,10.53,22.22Z"/><path id="_Path_18" data-name="&lt;Path&gt;" d="M38.79,20.79a3.76,3.76,0,0,1-.08.57.23.23,0,0,1-.18.2,4.31,4.31,0,0,1-1.72.23c-.67-.06-1.33-.17-2-.22s-1.14,0-1.7,0a6.43,6.43,0,0,0-2,.26c-.19.05-.28.05-.3-.19a2.64,2.64,0,0,0-.66-1.49c0-.05-.13-.1-.1-.18s.13,0,.2-.05a14.09,14.09,0,0,1,4.14,0c.61.1,1.22.17,1.83.25a2.3,2.3,0,0,0,.83,0,1,1,0,0,0,.77-1.23c0-.11-.06-.23.09-.28s.33,0,.39.13A9.74,9.74,0,0,1,38.79,20.79Z"/><path id="_Path_19" data-name="&lt;Path&gt;" d="M25.33,11.47a6.57,6.57,0,0,0-.74.67.39.39,0,0,1-.22.09l-2.08.39c-.13,0-.2,0-.23-.13s-.1-.17-.21-.12a2.93,2.93,0,0,1-.86.18c-2.42.45-4.84.9-7.22,1.53a7.31,7.31,0,0,1-1.07.22,3.22,3.22,0,0,0-1.12.54c-.28.14-.6.27-.7.64,0,.08-.12.09-.2.11l-.94.25c-.17,0-.24,0-.26-.19A.56.56,0,0,1,9.83,15c.76-.42,1.51-.86,2.28-1.27a3.46,3.46,0,0,1,1-.26c.79-.15,1.58-.27,2.37-.4l3-.51L22,12l3.17-.55Z"/><path id="_Compound_Path_3" data-name="&lt;Compound Path&gt;" d="M31.83,19.46c-.46,0-1.2.1-2,.18a.29.29,0,0,1-.28-.07,4.58,4.58,0,0,0-.89-.71,1,1,0,0,1-.23-.2c-.21-.24-.13-.47.2-.52a1.73,1.73,0,0,1,.61,0c.54.12,1.09.14,1.63.22l1.61.21,1.08.12a34.22,34.22,0,0,0,3.67.09.24.24,0,0,1,.27.23.71.71,0,0,1-.62.85,5.86,5.86,0,0,1-1.63-.12A23.08,23.08,0,0,0,31.83,19.46Zm5.38-.08c0-.15-.08-.24-.24-.23a.2.2,0,0,0-.21.23c0,.14.08.24.24.24S37.21,19.52,37.22,19.39Zm-8.32-1.08a.17.17,0,0,0-.16.18.15.15,0,0,0,.16.16.14.14,0,0,0,.17-.15A.18.18,0,0,0,28.89,18.31Z"/><path id="_Path_20" data-name="&lt;Path&gt;" d="M25.06,28.39a.44.44,0,0,1-.42,0l-6.55-1.62-4.2-1c-.57-.14-1.15-.28-1.71-.44A4.78,4.78,0,0,1,11,24.63c-.52-.32-1-.67-1.52-1a.54.54,0,0,1-.22-.6.3.3,0,0,1,.37-.21,6.62,6.62,0,0,1,1,.31.24.24,0,0,1,.15.2.81.81,0,0,0,.33.47,9.93,9.93,0,0,1,.78.7,1,1,0,0,0,.44.26q4.12,1.19,8.24,2.39a1.3,1.3,0,0,0,.94,0,.73.73,0,0,1,.49.05l1.94.55a1.09,1.09,0,0,1,.34.21A3.88,3.88,0,0,0,25.06,28.39Z"/><path id="_Path_21" data-name="&lt;Path&gt;" d="M24.57,17.88l-.76,0c-.15,0-.16-.07-.08-.18a1.17,1.17,0,0,1,1.05-.31,13.76,13.76,0,0,0,1.73.27.14.14,0,0,0,.09,0c.4-.3.76-.1,1.11.09a2.57,2.57,0,0,1,.4.33.13.13,0,0,1,0,.17c-.18.36,0,.61.28.79a14.63,14.63,0,0,1,1.21,1,2.63,2.63,0,0,1,.9,1.65.86.86,0,0,1,0,.17s0,.07-.05.07-.06,0-.07-.08a.84.84,0,0,1,0-.12,1.61,1.61,0,0,0-.68-1.37L29,19.64c-.08-.07-.17-.18-.28-.06s0,.2.08.28l.58.59a4.75,4.75,0,0,1,.52.65.91.91,0,0,1,.15.42.5.5,0,0,1-.41.62,1.08,1.08,0,0,1-1.23-.33c-.11-.11-.15-.2-.06-.35a1.65,1.65,0,0,0,.16-.37.74.74,0,0,0-.25-.81,2,2,0,0,1-.43-.44,9.45,9.45,0,0,0-1-1.11,2.71,2.71,0,0,0-2-.86h-.24Z"/><path id="_Path_22" data-name="&lt;Path&gt;" d="M5.35,20.73a14.14,14.14,0,0,1-1.64-.19c-.57-.07-1.14-.15-1.7-.25s-.63-.2-.69-.78a3.54,3.54,0,0,1,0-.62.32.32,0,0,1,.26-.33c.17,0,.34-.05.43.18s.3.23.48.25a10.21,10.21,0,0,0,1.42,0,.39.39,0,0,0,.37-.29.24.24,0,0,1,.24-.19,5.31,5.31,0,0,1,1.18.06c.16,0,.23.1.21.27A3.8,3.8,0,0,0,6,20.35a.31.31,0,0,1-.29.37Z"/><path id="_Path_23" data-name="&lt;Path&gt;" d="M23.48,21.59c.53,0,1,0,1.56,0a3.75,3.75,0,0,0,1.76-.41,1.4,1.4,0,0,0,.67-.91.63.63,0,0,1,.11-.29l.59.64a.39.39,0,0,1,.06.46c-.2.38-.3.82-.69,1.07a.78.78,0,0,1-.56.12c-.77-.13-1.55-.25-2.31-.44a3.83,3.83,0,0,0-.84,0A.36.36,0,0,1,23.48,21.59Z"/><path id="_Path_24" data-name="&lt;Path&gt;" d="M18.65,14.78a4.73,4.73,0,0,1-.9-.34c-.1,0-.1-.13,0-.17a.74.74,0,0,1,.48-.07,1,1,0,0,0,.62,0L21,13.66a.69.69,0,0,0,.4-.2.26.26,0,0,1,.19-.09c.07,0,.15,0,.2,0s0,.13,0,.2l-.14.28a.54.54,0,0,1-.41.31c-.76.17-1.51.37-2.26.57A1,1,0,0,1,18.65,14.78Z"/><path id="_Path_25" data-name="&lt;Path&gt;" d="M18.23,24.6l.66.2,1.89.63a1,1,0,0,1,.52.69c0,.11,0,.15-.14.12a.41.41,0,0,1-.31-.18c-.15-.27-.47-.24-.7-.35a5.66,5.66,0,0,0-1.73-.5c-.07,0-.15,0-.21,0-.3.2-.54,0-.79-.13s-.16-.22,0-.33S18,24.68,18.23,24.6Z"/><path id="_Path_26" data-name="&lt;Path&gt;" d="M5.16,17.66a2.2,2.2,0,0,1,.59.05.42.42,0,0,1,.32.41c0,.14,0,.29-.28.19a2.54,2.54,0,0,0-.89,0c-.24,0-.47,0-.66-.21a.62.62,0,0,0-.51-.15L2.43,18a.49.49,0,0,0-.36.15.45.45,0,0,1-.44.16c-.06,0-.16,0-.18-.06a.2.2,0,0,1,.1-.2A1,1,0,0,1,2,17.86Z"/><path id="_Path_27" data-name="&lt;Path&gt;" d="M27.92,16.64a.31.31,0,0,1-.28.17L27,16.9a.53.53,0,0,0-.41.26.3.3,0,0,1-.36.16l-1-.14c-.07,0-.18,0-.2-.08s.08-.16.16-.21a3.39,3.39,0,0,1,1-.31A7.41,7.41,0,0,1,27.92,16.64Z"/><path id="_Path_28" data-name="&lt;Path&gt;" d="M3.19,18.74H2.55c-.2,0-.34-.12-.34-.32s.19-.19.34-.2l1,0a1.36,1.36,0,0,1,.28,0c.12,0,.3,0,.27.2s0,.37-.29.37H3.19Z"/><path id="_Path_29" data-name="&lt;Path&gt;" d="M26.16,18.56a2.42,2.42,0,0,1-.71,0l-1.77-.18c-.07,0-.16,0-.18-.08s.08-.15.16-.18a.36.36,0,0,1,.16,0c.56.06,1.12,0,1.68.14A1.52,1.52,0,0,1,26.16,18.56Z"/><path id="_Path_30" data-name="&lt;Path&gt;" d="M6.55,19.46c0,.17,0,.33,0,.5s0,.19-.14.2-.22,0-.24-.13a3.5,3.5,0,0,1,.07-1.53c0-.14.17-.13.28-.12s.1.12.1.2c0,.29-.05.58-.08.87Z"/><path id="_Path_31" data-name="&lt;Path&gt;" d="M9.39,16.14c.25,0,.41,0,.44.3,0,.08.1.18,0,.22s-.26,0-.29-.1S9.37,16.29,9.39,16.14Z"/><path id="_Path_32" data-name="&lt;Path&gt;" d="M9.23,22.63c-.08-.22.11-.34.15-.51s.15-.06.19,0,.11.25,0,.34A1.89,1.89,0,0,1,9.23,22.63Z"/><path id="_Path_33" data-name="&lt;Path&gt;" d="M27.1,17.19a1.18,1.18,0,0,1,.54-.11c.06,0,.17,0,.16.09a.15.15,0,0,1-.19.13Z"/><path id="_Path_34" data-name="&lt;Path&gt;" d="M10.8,16.39a1.06,1.06,0,0,0,.67-.73c0-.18.23-.2.37-.25s.07,0,.09.06a.42.42,0,0,1-.15.56l-.53.31A.47.47,0,0,1,10.8,16.39Z"/><path id="_Path_35" data-name="&lt;Path&gt;" d="M11.74,23.12c0,.05,0,.23-.12.24a.27.27,0,0,1-.29-.24A.63.63,0,0,0,11,22.6s-.1,0-.07-.1a.17.17,0,0,1,.12-.07.66.66,0,0,1,.52.23C11.63,22.77,11.79,22.87,11.74,23.12Z"/></g></svg>