<svg xmlns="http://www.w3.org/2000/svg" class="HeroAbility-icon HeroAbility-icon--hoverState" viewBox="0 0 40 40" preserveAspectRatio="xMidYMid meet"><g id="_Group_" data-name="&lt;Group&gt;"><path id="_Path_" data-name="&lt;Path&gt;" d="M21.78,22.95a.41.41,0,0,1-.07.19,11,11,0,0,1-.65,1c-.26.38-.46.79-.74,1.16s-.34.5-.52.74c-.06.07-.1.08-.17,0l-.83-.75c-.34-.3-.66-.62-1-.91-.15-.12-.26-.27-.42-.39l-.32-.2c-.35-.19-.71-.35-1.05-.56a6.68,6.68,0,0,0-1.93-.66c-.26-.07-.53-.12-.78-.2a2.74,2.74,0,0,0-.47-.05,4.87,4.87,0,0,0-.56-.06c-.31,0-.61-.08-.92-.07l-.07,0a1.71,1.71,0,0,1-.61-.51,10,10,0,0,1-.55-1.06c0-.1,0-.15.08-.18.81-.31,1.63-.57,2.45-.84l1.58-.5,1.37-.41a.29.29,0,0,1,.3.06,3.51,3.51,0,0,0,.4.32,2.62,2.62,0,0,0,1.74.35,4.44,4.44,0,0,0,1-.2.15.15,0,0,1,.17.05,3.38,3.38,0,0,1,.46.53c.18.25.38.48.58.71a7.34,7.34,0,0,1,.64.9c.2.31.42.62.63.93a1.57,1.57,0,0,1,.26.54Z"/><path id="_Path_2" data-name="&lt;Path&gt;" d="M22,23a1.79,1.79,0,0,1-.1.51,1.94,1.94,0,0,1-.11.38,1.65,1.65,0,0,0-.1.84,1.29,1.29,0,0,0,.36.74c.25.27.5.55.74.84s.53.65.83.94a2,2,0,0,0,1,.59,3,3,0,0,0,.7.08c.52,0,1,0,1.56,0a1.63,1.63,0,0,0,.61-.22.07.07,0,0,0,0-.08c0-.1,0-.19,0-.28s.06-.43,0-.64,0-.26,0-.39a3.28,3.28,0,0,0-.31-1.37c-.26-.55-.48-1.11-.72-1.66-.13-.29-.26-.57-.37-.87a.23.23,0,0,0-.12-.12l-.63-.34L25,21.61c-.15-.08-.16-.13-.09-.29a2.67,2.67,0,0,1,.48-.77.26.26,0,0,0,.05-.18c0-.38.09-.76.13-1.14,0-.1,0-.16.16-.17a16.53,16.53,0,0,0,1.78-.33c.07,0,.09,0,.12.07a.57.57,0,0,1,.05.22c0,.57,0,1.14,0,1.71a.32.32,0,0,0,0,.09c.3,1,.63,2.05,1,3.05a12.25,12.25,0,0,0,.89,1.87,1.23,1.23,0,0,0,.29.32,9.58,9.58,0,0,0,1.25.87c.39.23.42.23.83.07s.89-.31,1.33-.46.45-.08.68.2.32.41.47.61.08.31-.12.36l-.95.25c-.62.16-1.23.34-1.86.49s-1.26.3-1.9.41c-.33.06-.66.08-1,.12a12.37,12.37,0,0,0-1.32.18,4.87,4.87,0,0,1-.6,0c-.16,0-.33,0-.49,0-.44,0-.89,0-1.33.06a.67.67,0,0,1-.28,0,3.84,3.84,0,0,1-.86-.39,6.29,6.29,0,0,1-1.48-1.3c-.28-.29-.57-.56-.83-.86s-.66-.7-1-1c-.14-.14-.14-.17,0-.34.4-.62.79-1.26,1.22-1.87A3.08,3.08,0,0,0,22,23Z"/><path id="_Path_3" data-name="&lt;Path&gt;" d="M11,18.66c-1.26,0-2.52,0-3.78,0a.6.6,0,0,1-.51-.27s0-.08-.08-.11a.89.89,0,0,1-.31-.54c-.06-.21-.12-.42-.18-.63a.49.49,0,0,1,0-.15q0-1,0-2.1a1.41,1.41,0,0,1,.19-.53c0-.08.11,0,.17,0h2.4A.77.77,0,0,0,9.72,14a.28.28,0,0,1,.25-.12h.63c.1,0,.13,0,.13.14s0,.37,0,.55,0,.15.12.14c.53-.05,1.05,0,1.58,0a1.11,1.11,0,0,1,.45,0c.1,0,.13,0,.15-.12s.09-.36.12-.54.08-.16.2-.16h1.49c.2,0,.23,0,.23.24,0,.58,0,1.17,0,1.75q0,1.24,0,2.48c0,.05,0,.1,0,.15s0,.16-.14.15H11Z"/><path id="_Path_4" data-name="&lt;Path&gt;" d="M19.2,18.06a.72.72,0,0,1,.16-.21,2.5,2.5,0,0,0,.37-.53.92.92,0,0,0,.09-.41,3.4,3.4,0,0,0-.24-1.59,1.85,1.85,0,0,0-.47-.71,5.65,5.65,0,0,0-.65-.45.2.2,0,0,1,.13,0h2.86A1.38,1.38,0,0,0,22,14c.37-.18.76-.31,1.15-.47a1.58,1.58,0,0,0,.26-.12.52.52,0,0,1,.51,0c.46.17.5.2.73.63,0,.23.19.23.34.29,1.07.41,2.13.83,3.18,1.28a2.55,2.55,0,0,1,.72.47c.17.16.3.36.46.53a5.34,5.34,0,0,1,.71,1l.07.14c0,.12,0,.2-.12.22-.85.13-1.68.35-2.52.5l-1.7.33a.39.39,0,0,1-.32-.07l-1.22-.82a.29.29,0,0,0-.2-.06c-1.29.1-2.58,0-3.87.05a5.07,5.07,0,0,0-.77.13Z"/><path id="_Path_5" data-name="&lt;Path&gt;" d="M6.11,14.23a1.88,1.88,0,0,1,.35-1.32.42.42,0,0,1,.41-.19H7a.54.54,0,0,0,.42-.13l.21-.16a.8.8,0,0,1,.56-.21c.43,0,.85,0,1.28,0a.31.31,0,0,1,.25.1c.13.14.24.33.41.38a1.85,1.85,0,0,0,.57,0c2.43,0,4.87,0,7.3,0a12.84,12.84,0,0,1,2.1.16c.5.09,1,.15,1.5.26a4.5,4.5,0,0,1,.89.29s.08,0,.1.08-.06.05-.1.07l-.14.06a3,3,0,0,1-1.65.33c-1,0-2,0-3,0a2.25,2.25,0,0,0-2.08,1.24,2.18,2.18,0,0,0-.19,1.65,2.33,2.33,0,0,0,3.29,1.54A3.94,3.94,0,0,1,20,18.08c.86-.1,1.73,0,2.59,0h.61c.12,0,.15,0,.12.15a.43.43,0,0,1-.4.33c-.31,0-.61.06-.91.05-.07,0-.1,0-.11.1s0,0,0,0c0,.32,0,.32-.32.32h-.34c-.1,0-.19,0-.26-.08a.13.13,0,0,0-.12,0,2.51,2.51,0,0,0-.62,0,1.13,1.13,0,0,1-.3,0s-.1,0-.12,0a.13.13,0,0,0,0,.14l.45.63,1,1.35c.25.35.49.7.72,1.06a.28.28,0,0,1-.1.38c-.05,0-.06,0-.08-.05l-.88-1.36a7.18,7.18,0,0,0-.72-1,13.91,13.91,0,0,0-.94-1.1c-.13-.12-.12-.12-.28,0l-.12,0a4.73,4.73,0,0,1-1.43.15,2.19,2.19,0,0,1-1.5-.73.16.16,0,0,0-.18-.06l-.31.09c-.1,0-.16,0-.15-.11s0-.09,0-.13q0-2.15,0-4.29a.27.27,0,0,0-.29-.3H13.33c-.15,0-.3,0-.32.2,0,.06-.07.07-.12.07H11.45s-.07,0-.09,0a.8.8,0,0,0-.42-.2.8.8,0,0,0-.25-.05H9.9a.27.27,0,0,0-.25.1.86.86,0,0,1-.83.34c-.74,0-1.47,0-2.21,0a.62.62,0,0,1-.19,0A.23.23,0,0,0,6.11,14.23Z"/><path id="_Path_6" data-name="&lt;Path&gt;" d="M30.43,19.19a1,1,0,0,1-.09.4,1.49,1.49,0,0,0,0,.88,3.43,3.43,0,0,0,.45,1c.14.27.31.53.45.8a17.15,17.15,0,0,0,1,1.58c.18.28.39.55.56.84a2,2,0,0,1,.32,1.07c0,.16,0,.32,0,.48a.14.14,0,0,1-.09.15l-1,.45h0a.8.8,0,0,1-.82-.07,8.53,8.53,0,0,1-1.28-1,2.58,2.58,0,0,1-.38-.59,13.06,13.06,0,0,1-.71-1.62c-.32-.82-.59-1.65-.84-2.49a2.6,2.6,0,0,1-.09-.49c-.06-.61,0-1.22,0-1.83,0-.09,0-.13.11-.14l1.64-.34a.33.33,0,0,1,.34.11,1.54,1.54,0,0,0,.25.23A.66.66,0,0,1,30.43,19.19Z"/><path id="_Path_7" data-name="&lt;Path&gt;" d="M28.79,15.69A9.65,9.65,0,0,0,27.34,15c-.76-.31-1.52-.61-2.28-.91a.24.24,0,0,1-.14-.11,1.76,1.76,0,0,0-.3-.44.26.26,0,0,1-.06-.12.13.13,0,0,0-.1-.1,6.82,6.82,0,0,1-.67-.22.26.26,0,0,0-.22,0,5.28,5.28,0,0,1-.62.29s-.09.06-.14,0a1.14,1.14,0,0,0-.58-.3A8,8,0,0,0,21,12.86l-.69-.12a3.34,3.34,0,0,1,.89.05c.18,0,.36,0,.54.07s.07,0,.09-.07a4.27,4.27,0,0,0,.29-.48c.15-.35.45-.37.74-.33.84.12,1.66.38,2.49.54a1.69,1.69,0,0,1,1,.73l.65.85a.58.58,0,0,0,.29.15,6.25,6.25,0,0,0,1,.36,1.07,1.07,0,0,1,.31.05l.19.09a.26.26,0,0,1,.11.4A1.6,1.6,0,0,0,28.79,15.69Z"/><path id="_Path_8" data-name="&lt;Path&gt;" d="M9.48,18.83a2,2,0,0,0-.19,1.58,2.78,2.78,0,0,0,.28.64c.06.12,0,.17-.09.18h-2A2.79,2.79,0,0,1,7,21.19a.58.58,0,0,1-.41-.37,1.62,1.62,0,0,1-.14-.55,2.75,2.75,0,0,1,0-1c0-.05,0-.11.05-.16.1-.24.12-.24.38-.25.79,0,1.59,0,2.38,0A.52.52,0,0,1,9.48,18.83Z"/><path id="_Path_9" data-name="&lt;Path&gt;" d="M25.42,19.16c0,.33-.07.67-.12,1a.31.31,0,0,1-.43.27.35.35,0,0,1-.31-.26.23.23,0,0,0-.25-.18c-.3,0-.61,0-.91,0a1.88,1.88,0,0,1-.55,0,1.41,1.41,0,0,1-.54-.26.81.81,0,0,1-.22-.51c0-.11,0-.23,0-.34s0-.13.12-.15a4.66,4.66,0,0,1,.82,0,.29.29,0,0,0,.29-.14.85.85,0,0,0,.21-.42s0-.06.08-.06A4,4,0,0,0,24,18a.26.26,0,0,1,.19.07c.39.27.77.54,1.13.84C25.42,19,25.43,19,25.42,19.16Z"/><path id="_Path_10" data-name="&lt;Path&gt;" d="M14.31,18.85,13,19.27c-.51.16-1,.35-1.53.52l-1.42.5c-.18.06-.2.1-.13.28s.17.35.23.54c-.25.05-.32,0-.43-.16a2.1,2.1,0,0,1-.27-1.52,1.34,1.34,0,0,1,.13-.34s.07-.09.05-.14,0-.13.12-.13h4.59Z"/><path id="_Path_11" data-name="&lt;Path&gt;" d="M17.15,14.29l-.21.09a1.76,1.76,0,0,0-1.11,1.86,1.82,1.82,0,0,0,3.59,0,1.67,1.67,0,0,0-.55-1.57l-.14-.13a.4.4,0,0,1,.27.16,2.36,2.36,0,0,1,.61,1.31,2.46,2.46,0,0,1,0,1.17,1,1,0,0,1-.19.33,2.52,2.52,0,0,1-.81.68,2,2,0,0,1-1.69.06,1.88,1.88,0,0,1-1.3-1.63,3.65,3.65,0,0,1,0-.82A1.8,1.8,0,0,1,17.15,14.29Z"/><path id="_Path_12" data-name="&lt;Path&gt;" d="M29.29,16.16c.11,0,.21,0,.32,0a.79.79,0,0,0,.54-.38c.09-.14.09-.14.2,0a1.94,1.94,0,0,1,.29.6c.18.4.34.82.52,1.22a.81.81,0,0,1,0,.77,1.22,1.22,0,0,1-.59.41s-.08,0-.12,0l-.43-.41c-.07-.06-.05-.1,0-.15h0c.34-.25.35-.24.12-.68a5.78,5.78,0,0,0-.83-1.15S29.28,16.23,29.29,16.16Z"/><path id="_Path_13" data-name="&lt;Path&gt;" d="M23.43,20.14a5,5,0,0,1,.88,0,.16.16,0,0,1,.14.14.31.31,0,0,0,.3.26,1.68,1.68,0,0,0,.31.06c-.15.25-.28.48-.43.69a1,1,0,0,0-.19.32c-.06.23-.2.43-.27.66a.15.15,0,0,1-.17.11,1.34,1.34,0,0,1-.33-.09c-.08,0-.08-.11-.07-.18.07-.35,0-.7,0-1a1.38,1.38,0,0,0-.19-.86A.11.11,0,0,1,23.43,20.14Z"/><path id="_Path_14" data-name="&lt;Path&gt;" d="M6.68,21.26a1.54,1.54,0,0,1-.64-.1A.45.45,0,0,1,5.8,21a2.83,2.83,0,0,0-.23-.37c-.08-.1-.05-.22-.09-.32a1.62,1.62,0,0,1,.08-1.1.53.53,0,0,1,.58-.39h.13c.18,0,.19,0,.1.16a1.21,1.21,0,0,0-.13.45,3.73,3.73,0,0,0,.09,1.29A1.11,1.11,0,0,0,6.68,21.26Z"/><path id="_Path_15" data-name="&lt;Path&gt;" d="M29.49,16a.45.45,0,0,1-.45-.64.93.93,0,0,1,.38-.45c.09-.05.14,0,.21,0a.59.59,0,0,1,.47.45.64.64,0,0,1-.37.57A.62.62,0,0,1,29.49,16Z"/><path id="_Path_16" data-name="&lt;Path&gt;" d="M11.9,14.5h-.82c-.17,0-.18,0-.2-.18s0-.18,0-.27,0-.12.14-.1.13,0,.16.09.13.11.24.11H12.8c.16,0,.16,0,.12.16s0,.19-.25.19Z"/><path id="_Path_17" data-name="&lt;Path&gt;" d="M17.62,15.06a.95.95,0,1,1-1,.95A1,1,0,0,1,17.62,15.06Z"/></g></svg>