<svg xmlns="http://www.w3.org/2000/svg" class="HeroAbility-icon HeroAbility-icon--hoverState" viewBox="0 0 40 40" preserveAspectRatio="xMidYMid meet"><path id="_Path_2" d="M8.13,28.9c1.41,1.14,2.76,1.9,4.21,0.39c0.87-0.9,1.58-1.93,2.49-2.81l2.36-2.29h0.07&#10;&#9;&#9;c0.33-0.06,0.61-0.28,0.74-0.58c0.38,0.11,0.75,0.21,1.11,0.29c0.26,0.06,0.53-0.01,0.72-0.2l0.87-0.85l0.43-0.42&#10;&#9;&#9;c0.15-0.11,0.23-0.29,0.23-0.48c-0.04-0.19-0.17-0.34-0.35-0.41l-0.46-0.27L20.08,21c0.32-0.94,0.72-1.84,1.2-2.71&#10;&#9;&#9;c0.8-1.47,1.73-2.86,2.78-4.16c0.37-0.45,0.79-0.89,1.19-1.32l0.23-0.24c0.24-0.22,0.58-0.28,0.88-0.15&#10;&#9;&#9;c1.31,0.35,2.56,0.9,3.7,1.64c0.33,0.2,0.64,0.43,0.94,0.67c0.09,0.06,0.15,0.16,0.14,0.27c-0.01,1.07-0.09,2.15-0.24,3.21l-1-0.09&#10;&#9;&#9;c-0.19-0.04-0.38,0-0.53,0.12l-0.45,0.31l0.84,0.43c0.29,0.15,0.56,0.29,0.84,0.42l0,0c-0.09,0.36-0.2,0.72-0.3,1.07l-0.16,0.56&#10;&#9;&#9;l-1.07-0.32l0,0c-0.15-0.05-0.3-0.05-0.45,0l-0.56,0.15l0.41,0.4c0.18,0.17,0.38,0.33,0.58,0.48l0.25,0.19l0.43,0.32&#10;&#9;&#9;c-0.23,0.5-0.52,0.97-0.87,1.4l-0.24-0.2l-0.35-0.28l0,0c-0.15-0.13-0.33-0.22-0.52-0.27L27,22.69l0.35,0.65l0.15,0.29&#10;&#9;&#9;c0.15,0.31,0.33,0.61,0.54,0.89l0,0c-0.23,0.17-0.47,0.32-0.72,0.48l-0.34,0.25H26.9c-0.1,0.06-0.19,0.12-0.27,0.2l-0.67,0.63&#10;&#9;&#9;l0.92-0.06c0.51-0.03,1.02-0.09,1.52-0.19c0.06,0.13,0.16,0.23,0.28,0.31c0.24,0.13,0.54,0.13,0.78,0l0.12-0.06&#10;&#9;&#9;c0.27-0.13,0.51-0.32,0.7-0.54c0.2-0.19,0.3-0.45,0.29-0.72c-0.03-0.16-0.1-0.31-0.22-0.42c0.22-0.23,0.43-0.46,0.62-0.71l0,0&#10;&#9;&#9;c0.23,0.16,0.54,0.18,0.79,0.05l0.2-0.13c0.48-0.37,0.77-0.93,0.8-1.53c0.02-0.3-0.14-0.59-0.42-0.72&#10;&#9;&#9;c0.09-0.15,0.17-0.31,0.23-0.47c0.24,0.11,0.52,0.11,0.76,0c0.19-0.11,0.34-0.26,0.45-0.44c0.26-0.38,0.41-0.82,0.43-1.28&#10;&#9;&#9;c0-0.01,0.01-0.03,0.01-0.04c0.08-0.45-0.23-0.88-0.68-0.96c0.26-0.87,0.46-1.76,0.59-2.66c0.08-0.43,0.17-0.86,0.17-1.27&#10;&#9;&#9;c0.06-0.18,0.06-0.36,0.06-0.54c0.07-0.45-0.11-0.89-0.48-1.16c-1.26-1.04-2.63-1.94-4.09-2.68c-0.86-0.42-1.74-0.79-2.64-1.1&#10;&#9;&#9;c-0.28-0.08-0.58-0.08-0.86,0l-0.54,0.12l-1.62,0.37c-0.44,0.1-0.83,0.33-1.14,0.66c-1.44,1.51-2.75,3.13-3.92,4.85&#10;&#9;&#9;c-0.67,1-1.28,2.05-1.82,3.12c-0.19,0.37-0.35,0.75-0.5,1.12l-0.21,0.54c-0.28-0.03-0.55,0.03-0.79,0.18c0.11,0.4,0,0.83-0.28,1.13&#10;&#9;&#9;c-1.74,1.83-3.72,3.41-5.9,4.68c-0.63,0.21-1.24,0.48-1.82,0.8C6.5,27.07,7.25,28.15,8.13,28.9z"/></svg>