<svg xmlns="http://www.w3.org/2000/svg" class="HeroAbility-icon HeroAbility-icon--hoverState" viewBox="0 0 40 40" preserveAspectRatio="xMidYMid meet"><g id="_Group_"><path id="_Compound_Path_2" d="M31.96,26.09c-0.45,0.81-1,1.57-1.64,2.24c-0.86,1.01-1.89,1.86-3.05,2.52&#10;&#9;&#9;&#9;c-0.17,0.12-0.36,0.21-0.56,0.25c-0.19,0.02-0.38,0.07-0.56,0.16c-1.19,0.45-2.42,0.78-3.67,1c-0.71,0.17-1.43,0.25-2.16,0.26&#10;&#9;&#9;&#9;c-0.63,0-1.27,0-1.9,0c-0.06,0-0.13,0.07-0.2,0c1.11-0.39,2.24-0.71,3.32-1.16c1.08-0.43,2.1-1.02,3-1.76&#10;&#9;&#9;&#9;c-1.01,0.37-2.09,0.53-3.16,0.47c0.59-0.41,1.2-0.72,1.74-1.13c0.13-0.08,0.24-0.19,0.34-0.3c0.41-0.53,0.8-1.08,1.17-1.65&#10;&#9;&#9;&#9;c0.07-0.11,0.06-0.17-0.08-0.17c-0.51-0.07-1.01-0.18-1.5-0.34c-0.47-0.14-0.92-0.36-1.39-0.5c-1.03-0.32-2.06-0.58-3.11-0.91&#10;&#9;&#9;&#9;s-2.11-0.63-3.16-0.94c-0.06-0.02-0.18-0.01-0.18-0.11l2.93-0.47c-0.62-0.14-1.24-0.23-1.85-0.4c-0.83-0.24-1.7-0.33-2.53-0.56&#10;&#9;&#9;&#9;c-0.53-0.14-1.08-0.19-1.6-0.36c-1.75-0.58-3.51-1.15-5.27-1.72c-0.05-0.02-0.13,0-0.13-0.09s0.12-0.09,0.12-0.09h0.08&#10;&#9;&#9;&#9;c1.6-0.36,3.34-0.84,4.8-1.09s2.97-0.47,4.46-0.71L18,18.24c-1.95-0.4-3.89-0.43-5.82-0.66c0.04-0.1,0.15-0.1,0.15-0.1&#10;&#9;&#9;&#9;c0.71-0.17,1.42-0.33,2.12-0.52c1.08-0.3,2.19-0.48,3.24-0.87c0.39-0.15,0.8-0.25,1.19-0.4c1.36-0.6,2.78-1.07,4.23-1.41&#10;&#9;&#9;&#9;c0.06,0,0.06-0.05,0.06-0.05c-1.37-0.79-2.72-1.6-4.14-2.29c0.65,0,1.3,0,1.94,0c0.93,0,1.87,0,2.8,0c0.13,0,0.32,0.13,0.37,0&#10;&#9;&#9;&#9;s-0.11-0.26-0.21-0.36c-0.7-0.73-1.5-1.35-2.38-1.85c-1.16-0.62-2.38-1.13-3.64-1.52c-0.87-0.31-1.75-0.58-2.65-0.8&#10;&#9;&#9;&#9;c0.54-0.02,1.07,0.06,1.61,0.06c1.35,0.07,2.68,0.25,4,0.53c1.72,0.34,3.4,0.89,4.98,1.65c0.83,0.44,1.62,0.95,2.36,1.54&#10;&#9;&#9;&#9;l0.22,0.19c0-0.06-0.02-0.13-0.07-0.17c-0.28-0.39-0.54-0.8-0.77-1.22c0-0.05-0.06-0.06,0-0.16s0.16,0,0.16,0&#10;&#9;&#9;&#9;c0.57,0.35,1.11,0.74,1.62,1.17c1.23,1.05,2.27,2.3,3.07,3.7c0.7,1.26,1.17,2.64,1.39,4.06c0.14,0.98,0.19,1.96,0.15,2.95&#10;&#9;&#9;&#9;c-0.01,0.57-0.08,1.14-0.21,1.7c-0.19,1.01-0.53,1.99-1,2.9c-0.28,0.46-0.52,0.98-0.79,1.46c-0.16,0.3-0.35,0.58-0.56,0.85&#10;&#9;&#9;&#9;c-0.04,0.05-0.06,0.13-0.16,0.13c0.39-0.81,0.64-1.68,0.71-2.58L31.96,26.09z M27.78,24.4l3-3.24l0.36-0.4&#10;&#9;&#9;&#9;c0.01-0.01,0.02-0.02,0.04-0.04c0.07-0.09,0.06-0.22-0.04-0.29l-1.29-1.39l-2.61-2.81L27.02,16c0,0.08,0,0.15,0,0.22&#10;&#9;&#9;&#9;c0,0.69,0,1.37,0,2.06c0,0.33-0.01,0.33-0.34,0.33h-3.17c-0.26,0-0.26,0-0.26,0.27c0,1.13,0,2.25,0,3.38c0,0.26,0,0.26,0.27,0.26&#10;&#9;&#9;&#9;h3.18c0.27,0,0.27,0.01,0.27,0.27c0,0.7,0,1.4,0,2.1c0,0.07,0,0.14,0,0.28L27.78,24.4z"/></g></svg>