<svg xmlns="http://www.w3.org/2000/svg" class="HeroAbility-icon HeroAbility-icon--hoverState" viewBox="0 0 40 40" preserveAspectRatio="xMidYMid meet"><path d="M30,14.06a.92.92,0,0,0-1.29,0,1,1,0,0,0-.32,1.29,5.78,5.78,0,0,1,.85,5,9.47,9.47,0,0,1-3.31,5,1,1,0,0,0-.32,1.29.68.68,0,0,0,.57.26,1.14,1.14,0,0,0,.71-.26A11.89,11.89,0,0,0,31,20.35,7.3,7.3,0,0,0,30,14.06ZM11,20.35a9.42,9.42,0,0,1,3.32-5,1,1,0,0,0,.32-1.31.9.9,0,0,0-1.28,0,11.89,11.89,0,0,0-4.18,6.26,7.3,7.3,0,0,0,1,6.26.69.69,0,0,0,.57.26,1.13,1.13,0,0,0,.7-.26,1,1,0,0,0,.33-1.29A5.78,5.78,0,0,1,11,20.35Zm21.65-8.83a.9.9,0,0,0-1.27,0h0a1,1,0,0,0-.32,1.28c3.12,4.18,1.4,11-3.82,15.15a1,1,0,0,0-.32,1.28.68.68,0,0,0,.57.27,1.15,1.15,0,0,0,.71-.27C34.32,24.33,36.32,16.38,32.68,11.53ZM12.75,12.78a1,1,0,0,0,.32-1.25.9.9,0,0,0-1.27,0h0C5.68,16.38,3.67,24.33,7.32,29.2a.68.68,0,0,0,.57.27,1.15,1.15,0,0,0,.71-.27,1,1,0,0,0,.33-1.28C5.81,23.75,7.52,17,12.75,12.78Zm10,10.09a5.77,5.77,0,0,0,.62-.74l4.14-.41c.14,0,.23-.2.1-.25l-3.38-1.69a3.48,3.48,0,0,0,0-.85l2.06-2.46a.11.11,0,0,0-.12-.19l-2.68.93a.24.24,0,0,1-.24,0,2.79,2.79,0,0,0-.7-.43l.11-4.43c0-.14-.19-.14-.25,0l-2,4a.59.59,0,0,1-.35.25,4.65,4.65,0,0,0-.85.3.4.4,0,0,1-.36,0l-2.66-1.47c-.1-.06-.26.08-.22.19L17,18.54l-3.34.33c-.14,0-.23.19-.14.26L16,21v.3l-2.54,1.79c-.13.08-.09.25,0,.23L16.05,23a.3.3,0,0,1,.31.14,2.78,2.78,0,0,0,.63.7.19.19,0,0,1,.07.19L16.75,26c0,.13.12.17.21.07l1.59-1.56h.07l.51,4c0,.24.4.18.46-.08l1.21-4a.58.58,0,0,1,.3-.35c.14-.05.07,0,.19-.07a.4.4,0,0,1,.39,0L24,25.19c.11.06.27-.1.2-.21Zm1.52-9.23,1.69-2.32-.64-.76c-.11-.14-.37,0-.45.15l-1,2.8C23.7,13.78,24.06,13.89,24.23,13.63Zm-9.14,11.6L13.24,27.1c-.08.08-.08.21,0,.25l.93.3a.19.19,0,0,0,.24-.13l.9-2.16C15.41,25.18,15.22,25.05,15.09,25.23Zm10.42-6.3,2.25.19c.18,0,.36-.14.3-.27l-.39-.8A.2.2,0,0,0,27.4,18l-1.86.61C25.3,18.67,25.28,18.91,25.5,18.93Z"/></svg>