<svg xmlns="http://www.w3.org/2000/svg" class="HeroAbility-icon HeroAbility-icon--hoverState" viewBox="0 0 40 40" preserveAspectRatio="xMidYMid meet"><path d="M26.43,14.32c2,1.85,2.4,5.68,3,5.87s.78-1.3.32-3.37c4.88,6.94,1.33,14.69-3.22,15.53-.36.07,1.27-1.16.76-1.65s-.83.26-1.37.73h0l-.29.27a9,9,0,0,1-2.68,1.59l-.35.13-.21.07a9,9,0,0,1-1.48.31l-.22,0-.6,0c-.29,0-.58,0-.87,0h-.13l-.17,0-.56-.09a9.11,9.11,0,0,1-.89-.22L17,33.3l-.45-.18a9,9,0,0,1-.94-.48l-.29-.18a26.56,26.56,0,0,1-2.71-1.84c-.39-.26-1-.48-1.19.16s.49,1.05,1.29,1.74c-2.23-.54-4.22-3.06-4.22-3.06s1,.49,1.26.19S6.27,25.88,8.25,20.2c1,3,2,1.36,1.86-.32a6.43,6.43,0,0,1,2.71-4.78s-.76,2.26.61,2C14.54,16.84,18.71,8,18.71,8s-2.43,6.86-3.07,8.39a15.62,15.62,0,0,1-2.33,3.72A8.4,8.4,0,0,0,12.45,28a7.15,7.15,0,0,0,1.27,2.2l.13.14a8,8,0,0,0,1,.9l.41.29a8.13,8.13,0,0,0,.91.53,8,8,0,0,0,.74.32l.37.13.27.08.55.14a8.05,8.05,0,0,0,.8.13l.25,0h.3l.45,0,.69,0,.24,0,.53-.07c.25,0,.51-.1.75-.16l.19-.05.37-.12a8.09,8.09,0,0,0,2.07-1.05l.38-.28.43-.36a8,8,0,0,0,1.92-2.61q.14-.31.26-.63c0-.13.09-.27.13-.4h0q.05-.18.1-.36.08-.33.14-.67a8.36,8.36,0,0,0,.07-2,14.78,14.78,0,0,0-1.91-5.68L25.7,19a25,25,0,0,1-2.28-4.34C21.22,9.41,20,6.17,20,6.17s5.21,9.18,5.69,9.71,1.06.82.7-1.57" fill-rule="evenodd"/><path d="M17.6,17.54c2-.75,5.7-.23,7.23,4.35a7.88,7.88,0,0,1,.05,4.81,6,6,0,0,0-.31-1.84c-.64,5.59-8.18,4.74-9.13,1,.16,2.44,2,3.81,4.87,4.52a5.59,5.59,0,0,1-5.44-3c-.89-1.83-1-7.05,3.81-7.68a4.49,4.49,0,0,1,4.51,2.08,4.31,4.31,0,0,0-3.92-3.32,5.1,5.1,0,0,0-2.94.53c1.09-2.3,3.46-12.16,3.46-12.16l3.4,11.27s-2.91-2.67-5.59-.6Z" fill-rule="evenodd"/></svg>