<svg xmlns="http://www.w3.org/2000/svg" class="HeroAbility-icon HeroAbility-icon--hoverState" viewBox="0 0 40 40" preserveAspectRatio="xMidYMid meet"><g id="_Group_3" data-name="&lt;Group&gt;"><g id="_Group_4" data-name="&lt;Group&gt;"><path id="_Path_2" data-name="&lt;Path&gt;" d="M12,15.52a20.68,20.68,0,0,0-2.55,1A18.93,18.93,0,0,0,7.29,18a3,3,0,0,1,.6-1.14A34.27,34.27,0,0,1,12,12.22a21.55,21.55,0,0,1,3.7-3.09c.09-.05.23-.11.19-.24s-.18-.11-.29-.11a10.76,10.76,0,0,1-1.48-.17c-.09,0-.2,0-.25-.11s.13-.13.21-.16a15.71,15.71,0,0,1,6.47-.83,13.49,13.49,0,0,1,10.07,6.05,13.18,13.18,0,0,1,2.23,6.28,11.45,11.45,0,0,1-2.57,8.91,10.87,10.87,0,0,1-7.07,3.82,5.07,5.07,0,0,1-4.77-2.1,8.28,8.28,0,0,1-.92-1.42c-.16-.29-.29-.29-.46,0s-.42.65-.64,1c-.1.14-.16.35-.39.31s-.23-.26-.26-.43a11,11,0,0,1-.09-4c.09-.46.13-.93.22-1.38s.27-.56.7-.48A20.16,20.16,0,0,1,21,25.51c.14.06.28.15.27.33s-.16.24-.3.3c-.48.22-1,.42-1.43.65s-.4.26-.07.53a5,5,0,0,0,8.18-4,8,8,0,0,0-1.85-5.56,8.22,8.22,0,0,0-5.27-2.83,9.23,9.23,0,0,0-6.7,1.45,6.74,6.74,0,0,0-2.39,2.52,2.65,2.65,0,0,1-.15.25c-.06.09-.12.21-.25.17s-.1-.17-.1-.28A6,6,0,0,1,11.74,16Z"/><path id="_Path_3" data-name="&lt;Path&gt;" d="M7.11,13A4.47,4.47,0,0,1,12,10a23.49,23.49,0,0,0-4.69,3.19A.15.15,0,0,1,7.11,13Z"/></g></g></svg>