<svg xmlns="http://www.w3.org/2000/svg" class="HeroAbility-icon" viewBox="0 0 40 40" preserveAspectRatio="xMidYMid meet"><g id="_Group_3" data-name="&lt;Group&gt;"><g id="_Group_4" data-name="&lt;Group&gt;"><path id="_Path_13" data-name="&lt;Path&gt;" d="M12.3,17.81,12,17.67l-.14-.07-.25,0-.48.08-.24,0-.08.13a5.43,5.43,0,0,0-.92,3C9.85,24.82,14.4,28,20,28s10.15-3.22,10.15-7.19a5.49,5.49,0,0,0-1.08-3.22L29,17.52l-.41-.06h-.05a1.79,1.79,0,0,1-.39,0l-.67,0,.31.54A4.13,4.13,0,0,1,28.34,20c0,3.15-3.74,5.72-8.34,5.72S11.66,23.2,11.66,20a4.07,4.07,0,0,1,.48-1.89Z"/><path id="_Path_14" data-name="&lt;Path&gt;" d="M31.83,18.49l-.08-.12-1.64-.21.4.62a5.84,5.84,0,0,1,1,3.2c0,4.37-5.16,7.92-11.49,7.92S8.51,26.34,8.51,22a5.9,5.9,0,0,1,1.16-3.44l.6-.85-1,.32-.91.31-.1,0-.06.09a7.11,7.11,0,0,0-1.39,4.16c0,5.13,5.92,9.31,13.19,9.31s13.19-4.18,13.19-9.31A7.1,7.1,0,0,0,31.83,18.49Z"/><path id="_Path_15" data-name="&lt;Path&gt;" d="M12.27,15.16a6.55,6.55,0,0,1,2.93,2,2.74,2.74,0,0,0-.39,1.39c0,2,2.31,3.65,5.16,3.65s5.16-1.64,5.16-3.65a2.73,2.73,0,0,0-.36-1.35,6.54,6.54,0,0,1,3-2.08l.67,2,2.07-4.09L26.38,11,27,13a8.76,8.76,0,0,0-3.91,2.67,6.23,6.23,0,0,0-1.79-.63V11.33h1.88L20,8.08l-3.24,3.24h1.88v3.74a6.16,6.16,0,0,0-1.76.61A8.76,8.76,0,0,0,13,13l.65-2L9.52,13.12l2.07,4.09Z"/></g></g></svg>