<svg xmlns="http://www.w3.org/2000/svg" class="HeroAbility-icon HeroAbility-icon--hoverState" viewBox="0 0 40 40" preserveAspectRatio="xMidYMid meet"><path id="_Compound_Path_4" data-name="&lt;Compound Path&gt;" d="M15,29a4.89,4.89,0,0,1,.14-1.51,1,1,0,0,0-.07-.66,9.27,9.27,0,0,0-2.26-3.25,12.13,12.13,0,0,1-1.91-2.34,1.39,1.39,0,0,1-.2-.64c0-.38-.06-.75,0-1.13a1.72,1.72,0,0,0-.35-1.08l-.44-.59A1.18,1.18,0,0,1,9.61,17,3.39,3.39,0,0,0,8,13.84a.75.75,0,0,1-.35-.75.65.65,0,0,1,.73-.65,7,7,0,0,1,4.44,1.68,2.18,2.18,0,0,1,.76,1.41,7.73,7.73,0,0,0,.84,2.54c.32.61.6.69,1.21.36.27-.15.54-.31.83-.43s.57-.1.89.22c.62.61,1.07,1.37,1.63,2a6.36,6.36,0,0,1,.35.64A28.54,28.54,0,0,0,23.28,26c.27.26.27.35,0,.61s-.3.48,0,.8.65.69,1,1l1.2,1.28a.51.51,0,0,1,.08.74c-.52.72-.95,1.5-1.44,2.24a1.22,1.22,0,0,1-1,.61,6.4,6.4,0,0,1-3-.25,17.44,17.44,0,0,1-2.43-1.33,26.73,26.73,0,0,1-2.4-1.56.59.59,0,0,1-.3-.61A3.83,3.83,0,0,0,15,29Zm4.45-9c.54.92,1.06,1.85,1.63,2.75a23.61,23.61,0,0,0,2.87,3.38c.29.31.29.31,0,.6s-.35.34,0,.71l2.73,3.06c.2.22.35.25.59.07a5,5,0,0,0,.62-.54,52.22,52.22,0,0,1,3.91-3.61,2.74,2.74,0,0,0,.43-.44.51.51,0,0,0,0-.67c-.38-.52-.73-1.06-1.06-1.61-.07-.11-.15-.22-.28-.22-.34,0-.47-.28-.64-.49s-.19-.26-.29-.39c-.22-.28-.36-.3-.59,0-.52.59-1.13,1.08-1.67,1.65a2.79,2.79,0,0,1-1.41.73,1.18,1.18,0,0,1-1.14-.48,2.65,2.65,0,0,1-.34-1c-.05-.4-.05-.4-.46-.3a1.11,1.11,0,0,1-1-.13,2.3,2.3,0,0,1-1-1.77c0-.31-.13-.4-.41-.39a2.77,2.77,0,0,1-2.17-.9,1,1,0,0,0-.4-.25A1.45,1.45,0,0,0,19.45,20Zm1.2-8.37a9.77,9.77,0,0,0-.59,1.1,26,26,0,0,0-1.62,3.74,1.46,1.46,0,0,0,.49,1.78c.73.56,1.43.63,1.84-.39.14-.35,1.68-3.67,2.58-5.23a1.1,1.1,0,0,0,.16-.95,1.48,1.48,0,0,0-1.35-.87A1.59,1.59,0,0,0,20.65,11.64Zm4.08,5.25c.4-.74,1.24-2,1.62-2.76A1.15,1.15,0,0,0,26,12.73a1.87,1.87,0,0,0-1.43-.26c-.18,0-.68.68-.79.83a37,37,0,0,0-3.16,5.78.83.83,0,0,0,.21,1,1.55,1.55,0,0,0,1.57.24C23.13,20,24.11,18,24.73,16.89Zm-.85,5.78a.62.62,0,0,0,.71-.13,4.06,4.06,0,0,0,.68-.8,7.62,7.62,0,0,1,.68-1,14.21,14.21,0,0,0,2-3.36.5.5,0,0,0,.08-.29,2.53,2.53,0,0,0-.79-1.53.58.58,0,0,0-1,.13c-.3.45-.64.87-1,1.3-.76,1-1.36,2.13-2,3.2a2.92,2.92,0,0,0-.38,1A1.68,1.68,0,0,0,23.88,22.68Zm3.45,1.14a26.41,26.41,0,0,0,2.39-3.19.65.65,0,0,0,.15-.47,4,4,0,0,0-.59-1.43.57.57,0,0,0-.72-.24,2.86,2.86,0,0,0-1,.77,30.15,30.15,0,0,0-1.93,2.83,1.72,1.72,0,0,0-.29,1.73.87.87,0,0,0,.9.57A1.4,1.4,0,0,0,27.33,23.82ZM20.72,9.07h0a.09.09,0,0,1,0-.08.5.5,0,0,0-.18-.56,4,4,0,0,0-1-.66.49.49,0,0,0-.61.1,2.43,2.43,0,0,0-.42.51.24.24,0,0,1-.27.14c-.13,0-.11-.14-.15-.22a1.69,1.69,0,0,0-.7-1c-.34-.18-.66-.4-1-.61a.38.38,0,0,0-.33-.07.52.52,0,0,1-.16,0A10.06,10.06,0,0,0,13,7.08a15.05,15.05,0,0,0-1.59.6c-.13.05-.17.14-.17.29A1.25,1.25,0,0,0,12,9.17a1,1,0,0,1,.48.72c.09.37.35.48.65.58a.26.26,0,0,0,.35-.19c.06-.16.11-.33.15-.49a.29.29,0,0,1,.24-.23,12.14,12.14,0,0,1,1.44-.29.79.79,0,0,1,.7.21c.14.14.32.23.42.42a1.22,1.22,0,0,1-.16,1.37.21.21,0,0,1-.15.09,1.7,1.7,0,0,0-.57.16c-.11.05-.19,0-.27-.06l-.24-.17c-.21-.17-.3-.16-.45.06l-.45.65c-.09.13-.08.27.07.33a1,1,0,0,1,.6.93c0,.17,0,.32-.09.44s-.09.48-.14.73a3.41,3.41,0,0,0,0,.52.92.92,0,0,0,.48.81l.74.47a5.25,5.25,0,0,1,.92.66,1.06,1.06,0,0,0,.41.23c.12,0,.18,0,.22-.11C17.52,16.64,20.58,9.21,20.72,9.07Z"/></svg>