<svg xmlns="http://www.w3.org/2000/svg" class="HeroAbility-icon HeroAbility-icon--hoverState" viewBox="0 0 40 40" preserveAspectRatio="xMidYMid meet"><g id="_Group_5" data-name="&lt;Group&gt;"><path id="_Path_17" data-name="&lt;Path&gt;" d="M24.12,26,17.24,14a3.3,3.3,0,0,0-3-1.58h-.33l.51-1.92L10,13.65l2.74,3.12.53-2h.33a1.57,1.57,0,0,1,1.42.75l6.88,11.92a3.3,3.3,0,0,0,3,1.58h2.41l.62-2.33H25.54A1.58,1.58,0,0,1,24.12,26Z"/><path id="_Path_18" data-name="&lt;Path&gt;" d="M12.89,25.65a3.92,3.92,0,0,1-2.55,1.05h-2L7.7,29h2a7,7,0,0,0,4.55-1.88l4.5-4-1-1.79Z"/><path id="_Path_19" data-name="&lt;Path&gt;" d="M26.87,15.83a3.94,3.94,0,0,1,2.49-1.05l-.53,2,4.41-3.12-2.74-3.12L30,12.45a7,7,0,0,0-4.49,1.88l-4.88,4.38,1.09,1.76Z"/></g><g id="_Group_6" data-name="&lt;Group&gt;"><path id="_Path_20" data-name="&lt;Path&gt;" class="cls-1" d="M13.14,22.59H11l-.56,2.18a.42.42,0,0,1-.42.32H8.46a.53.53,0,0,1-.51-.64l.48-1.86H6.61A.53.53,0,0,1,6.1,22l.41-1.59A.42.42,0,0,1,6.94,20H9.09l.56-2.18a.42.42,0,0,1,.42-.32h1.54a.53.53,0,0,1,.51.64L11.64,20h1.82a.53.53,0,0,1,.51.64l-.41,1.59A.42.42,0,0,1,13.14,22.59Z"/></g><g id="_Group_7" data-name="&lt;Group&gt;"><g id="_Group_8" data-name="&lt;Group&gt;"><path id="_Path_21" data-name="&lt;Path&gt;" d="M27.53,18.14h-2c-.4,0-.73.48-.52.77L26.53,21a.48.48,0,0,1-.17.63l-2.65,2.09c-.36.28-.29.77.11.77h2a.58.58,0,0,0,.35-.13l3.46-2.73a.48.48,0,0,0,.17-.63l-2-2.73A.34.34,0,0,0,27.53,18.14Z"/></g><g id="_Group_9" data-name="&lt;Group&gt;"><path id="_Path_22" data-name="&lt;Path&gt;" d="M31.57,18.14h-2c-.4,0-.73.48-.52.77L30.57,21a.48.48,0,0,1-.17.63l-2.65,2.09c-.36.28-.29.77.11.77h2a.58.58,0,0,0,.35-.13l3.46-2.73a.48.48,0,0,0,.17-.63l-2-2.73A.34.34,0,0,0,31.57,18.14Z"/></g></g></svg>