<svg xmlns="http://www.w3.org/2000/svg" class="HeroAbility-icon HeroAbility-icon--hoverState" viewBox="0 0 40 40" preserveAspectRatio="xMidYMid meet"><path id="_Compound_Path_" data-name="&lt;Compound Path&gt;" d="M29.88,24c-.34-.4-.62-.86-1-1.24a2,2,0,0,1-.5-2c.52-2.38.89-4.76,1.32-7.13.2-1.1.37-2.2.58-3.3a.57.57,0,0,0-.22-.63c-1.66-1.33-3.32-2.65-5-4-.29-.24-.55-.19-.94.06-1,.7-2.11,1.37-3.17,2.05a2.32,2.32,0,0,0-.88.95c-.62,1.25-1.35,2.48-1.93,3.74a4.29,4.29,0,0,1-2.92,2.79,1.2,1.2,0,0,0-.82.82c-.86,2.08-1.81,4.15-2.63,6.24A4.88,4.88,0,0,1,9.56,25c-.18.1-.34.25-.51.36a.72.72,0,0,0-.41.87c.19.86.35,1.73.51,2.6a1.07,1.07,0,0,0,.44.68c.84.63,1.66,1.29,2.49,1.93s1.89,1.45,2.81,2.2c.3.24.55.25.88-.12.16-.18.34-.34.51-.5L18,31.35c.16.16,1.07,1,1.17,1s.25.16.48,0S20.86,31,21,30.83h0c1.11,1.31,1.11,1.3,3.15.63a1.38,1.38,0,0,0,.71-.48q2.46-3.14,4.92-6.28C30,24.41,30.08,24.2,29.88,24ZM10.15,26.28c-.28-.12-.27-.29.07-.49l.08,0c.88-.58.9-.58,1.17.19a3,3,0,0,1,.15,1Zm7.55-5.71c-.71,1.64-1.46,3.28-2.19,4.92a14.18,14.18,0,0,0-.61,3.28c-1-1.45-1.87-2.79-2.77-4.12a.69.69,0,0,1,0-.71l3-6.91a1.83,1.83,0,0,1,1-1.14c-.43,1.6-1.86,6.78-1.81,6.78,1.42-2.81,3.24-6.27,4.7-9.16a16.08,16.08,0,0,1-.22,4.32A11.92,11.92,0,0,1,17.7,20.57Zm2.17,9.36c-.14,0-.72-.54-.81-.64.2-.2,1.38-2.06,1.58-2.26.11.14.16,1.87.27,2A6.28,6.28,0,0,1,19.87,29.93Zm.77-14.74a8.71,8.71,0,0,1,.26-2.3c.16-1.32.44-2.65.63-4A.78.78,0,0,1,22,8.28Q23.12,7.63,24.22,7c.3-.19.5-.2.71,0,1.27,1.18,2.56,2.35,3.91,3.58Zm3.58,12.52a21.23,21.23,0,0,1,1.13-3.15c.24-.77,1-1.13,1.57-1.59.19-.14.3-.09.4,0l1.43,1.65Z"/></svg>