<svg xmlns="http://www.w3.org/2000/svg" class="HeroAbility-icon HeroAbility-icon--hoverState" viewBox="0 0 40 40" preserveAspectRatio="xMidYMid meet"><g id="_Group_" data-name="&lt;Group&gt;"><path id="_Compound_Path_" data-name="&lt;Compound Path&gt;" d="M21.88,7.81a.2.2,0,0,0-.19,0l-.34-.07h-.13l-.17,0-.25,0-.07,0L20,7.55c-.38,0-.76,0-1.14.08l-.06,0-.54.11a.2.2,0,0,0-.19,0C13,8.94,6.9,11.93,9,18.09a.29.29,0,0,0,0,.22,6.5,6.5,0,0,0,.69,1.11c1.34-.2,2.68-.38,4-.51,0-1.87.37-3.48,1.58-3a.43.43,0,0,1,.27.5,17.89,17.89,0,0,1,.06,2.36,25,25,0,0,1,2.84-.2,4.46,4.46,0,0,1-.28,1.82c-.37,0-.75,0-1.14.06a8.09,8.09,0,0,1-1.24.16l-.15,0c0,.8.12,1.6.13,2.39a.38.38,0,0,1-.12.28.34.34,0,0,1-.21.32,3.36,3.36,0,0,1-.84.31.42.42,0,0,1-.51-.29c0-.26-.22-1.36-.32-2.67L13,21c-.69.12-1.37.3-2.05.45a6,6,0,0,1-1,1.61c-.44.53-1,.87-.91,1.59,0,0,0,.08,0,.12.46.51.77,1.13,1.28,1.62,1.16,1.11,3.28,0,4.62-.23.24,0,.41.29.35.52-.22.9-.48,1.76-.68,2.63a15,15,0,0,0,4.64,3.38.75.75,0,0,0,.35.2l.16,0a.86.86,0,0,0,.76-.2v.05a14.89,14.89,0,0,0,4.83-3.46c-.2-.87-.46-1.74-.68-2.63-.06-.23.11-.56.35-.52,1.35.2,3.46,1.34,4.62.23.52-.49.83-1.12,1.28-1.62,0,0,0-.08,0-.12,0-.72-.48-1.06-.91-1.59a5.86,5.86,0,0,1-1-1.71c.53-1.15,1.49-1.94,2-3.09a.29.29,0,0,0,0-.22C33.1,11.93,27,8.94,21.88,7.81Zm-.82,17.51a1.37,1.37,0,0,1-.78-.51,1.5,1.5,0,0,1-.28-.28,2,2,0,0,1-.39.39,1.29,1.29,0,0,1-.68.4.38.38,0,0,1-.46-.4A10.36,10.36,0,0,1,19,22.4c.18-.49.42-1.07.87-1.22v0l.19,0v0c.45.15.69.73.87,1.22a10.37,10.37,0,0,1,.55,2.53A.38.38,0,0,1,21.06,25.32Zm6.8-3.77-.07,0-.5.42-.41.29c-.33.12-.66.23-1,.34a12.61,12.61,0,0,1-2.1.14,4.05,4.05,0,0,1-1.58-1,2.32,2.32,0,0,0-.23-.47s0-.08,0-.12l-.12-.06a2.19,2.19,0,0,0-.71-.57.77.77,0,0,1-.07-.13c.49-.56,1.45-.76,2.07-1.08h0a5.32,5.32,0,0,0,.65-.22c.68-.29,1.21-.78,1.91-1a3,3,0,0,1,2,.13c.14.16.27.32.39.48a1.36,1.36,0,0,1,0,.14A4.11,4.11,0,0,1,27.86,21.55Z"/></g></svg>