<svg xmlns="http://www.w3.org/2000/svg" class="HeroAbility-icon HeroAbility-icon--hoverState" viewBox="0 0 40 40" preserveAspectRatio="xMidYMid meet"><path id="_Compound_Path_2" data-name="&lt;Compound Path&gt;" d="M13.7,28.72A14,14,0,0,0,16,29a3.4,3.4,0,0,0,2.77-.9.5.5,0,0,0,.15-.22.25.25,0,0,0-.13-.36,2.49,2.49,0,0,0-.83-.2.43.43,0,0,1-.23-.06l.66-.27a2.35,2.35,0,0,0,1.2-1.14.23.23,0,0,0-.09-.34,1.11,1.11,0,0,0-.54-.17,3.61,3.61,0,0,0-2.31.36A4.09,4.09,0,0,1,13.4,26,9,9,0,0,1,11,25,5.34,5.34,0,0,1,9.6,24s-.1-.08-.1-.15.12,0,.17.07a3.9,3.9,0,0,0,2.61.54,7.71,7.71,0,0,0,1-.16.8.8,0,0,0,.25-.09c.25-.17.39-.3.17-.6a6,6,0,0,0-.69-.71,15,15,0,0,0-1.36-1c-.63-.48-1.2-1-1.87-1.46L9,20a1.06,1.06,0,0,0-.71-.1.24.24,0,0,0-.24.27c0,.16,0,.32,0,.48s-.17.32-.37.19a.44.44,0,0,1-.16-.16,4.31,4.31,0,0,1-.59-2.06,8.91,8.91,0,0,1,.19-1.09,10.12,10.12,0,0,0,.14-1.31,1.65,1.65,0,0,0-.2-.9.6.6,0,0,1,0-.62,6.82,6.82,0,0,1,1.2-1.63,7,7,0,0,1,.58-.55.74.74,0,0,1-.16.31A4.1,4.1,0,0,0,8,14.9a.84.84,0,0,0,.27.69A7.37,7.37,0,0,0,10.31,17a1,1,0,0,0,1.36-.53,1.8,1.8,0,0,0,.14-1.62,1.16,1.16,0,0,0-.32-.47.72.72,0,0,1-.22-.88,3.24,3.24,0,0,1,.42-.88,9.71,9.71,0,0,1,1.51-1.92l.51-.46c.06-.05.14-.11.2,0s0,.12-.06.17A5.32,5.32,0,0,0,13,12.26,2,2,0,0,0,13,13c.05.34.25.45.61.4a.89.89,0,0,0,.48-.31c.18-.18.33-.39.53-.57-.09.28-.19.55-.27.83a6.27,6.27,0,0,1-.6,1.61,6.08,6.08,0,0,1-.61.78,2.19,2.19,0,0,0-.76,2A4.92,4.92,0,0,0,13.28,20a9.47,9.47,0,0,0,1.19,1.07,30.46,30.46,0,0,0,2.92,2,.84.84,0,0,0,.2.11,15.11,15.11,0,0,0,2.36.63,9.56,9.56,0,0,0,1.36.06,3.81,3.81,0,0,1-1.6-.69.53.53,0,0,1,.28-.05,10.1,10.1,0,0,0,2.14-.29A16.32,16.32,0,0,0,24,22.37a2.51,2.51,0,0,0,.78-.47A4.83,4.83,0,0,0,26,20.56a5.35,5.35,0,0,1,.57-.75,14.53,14.53,0,0,0,.92-1.31,1,1,0,0,0,.16-.49,4.94,4.94,0,0,0-1.06-3.62,10.93,10.93,0,0,1-.73-1,4.82,4.82,0,0,1-.42-1,7.37,7.37,0,0,0-1.16-2.12s-.07-.07-.06-.13.1,0,.13.08.34.34.5.52a1.79,1.79,0,0,0,.88.48,12.66,12.66,0,0,1,3.38,1.36,12.09,12.09,0,0,1,2,1.64l.09.1a.26.26,0,0,1-.2-.06,9.17,9.17,0,0,0-1.73-.66c-.08,0-.18-.1-.25,0A.32.32,0,0,0,29,14a.61.61,0,0,0,.07.14s.11.07.06.14-.11,0-.16,0c-.28-.07-.37,0-.4.28a4.2,4.2,0,0,0-.08.64.61.61,0,0,0,.21.47,10.39,10.39,0,0,0,2.48,1.58,2.1,2.1,0,0,0,.62.24.67.67,0,0,0,.74-.44,2.19,2.19,0,0,0,.07-1.23,5.4,5.4,0,0,0-.35-1.17,1.31,1.31,0,0,1,.29.45,9.36,9.36,0,0,0,.92,1.61,1.77,1.77,0,0,1,.21.39c.3.72.71,1.39,1,2.11a.62.62,0,0,1,0,.63c-.15.23-.27.48-.43.7a3.35,3.35,0,0,0-.47,1.75c0,.52,0,1,0,1.55,0,.24,0,.48,0,.73A1.46,1.46,0,0,1,33,25.61c-.56.42-1.19.73-1.77,1.11l-.61.39a.27.27,0,0,1-.19.06,6.66,6.66,0,0,0,.82-.87c.21-.26.42-.51.62-.78A4.86,4.86,0,0,0,32.56,24a1.29,1.29,0,0,0,0-.55c-.06-.47-.11-.94-.21-1.4a1.6,1.6,0,0,0-.41-.77c-.11-.12-.22-.23-.32-.36a1.3,1.3,0,0,0-.91-.47,3,3,0,0,0-1.34.13,2.58,2.58,0,0,1,.9.22.32.32,0,0,1-.2.08,1.87,1.87,0,0,0-1.21.85,1.46,1.46,0,0,0-.12,1,1.7,1.7,0,0,0,.18.64.48.48,0,0,1,0,.45,5.22,5.22,0,0,1-1.55,1.92,11.68,11.68,0,0,1-1.21.88.49.49,0,0,1-.22.11c0-.06,0-.07.08-.09a1.67,1.67,0,0,0,.76-1.32,4.09,4.09,0,0,0-.05-1.14c-.09-.39-.21-.46-.61-.33a4.77,4.77,0,0,0-1.18.59,5.78,5.78,0,0,1-.89.49.42.42,0,0,0-.25.64,4.68,4.68,0,0,0,.81,1.23,3.68,3.68,0,0,0,.53.47c.39.29.39.56,0,.83a9.9,9.9,0,0,1-2,1,7.65,7.65,0,0,1-2.43.38,13.8,13.8,0,0,0-2.2.28c-.65.12-1.28.29-1.92.42a.29.29,0,0,1-.22,0c-.79-.48-1.68-.77-2.47-1.27A.3.3,0,0,1,13.7,28.72Zm14.55-9a3.35,3.35,0,0,0-.5.51,15,15,0,0,1-1.81,1.38.72.72,0,0,0-.22.21l-.55.87s-.08.07,0,.13a8.15,8.15,0,0,1,.95-.3,1.68,1.68,0,0,0,1.1-.76A7.58,7.58,0,0,0,28.24,19.71Z"/><path id="_Compound_Path_3" data-name="&lt;Compound Path&gt;" d="M20.42,11.21a5.46,5.46,0,0,1,2.19.61c.21.1.41.22.61.32a1.13,1.13,0,0,1,.52.56,15.53,15.53,0,0,0,.95,1.77.31.31,0,0,1,0,.41l-1.32,1.81a.4.4,0,0,0-.08.4,3.47,3.47,0,0,1,.11.48c0,.14,0,.23-.18.25-.43.06-.87.15-1.3.2-.17,0-.21.1-.2.25s0,.4,0,.59a.33.33,0,0,1-.21.33c-.4.21-.8.42-1.2.65a.3.3,0,0,1-.34,0l-1.21-.66a.32.32,0,0,1-.19-.32c0-.19,0-.38,0-.57s0-.23-.21-.25l-1.27-.19c-.19,0-.25-.13-.21-.3a3.69,3.69,0,0,1,.1-.45.35.35,0,0,0-.06-.35L15.74,15.1a.29.29,0,0,1,0-.3c.22-.63.46-1.26.71-1.88a2.5,2.5,0,0,1,1.82-1.46A11.68,11.68,0,0,1,20.42,11.21Zm-3.71,3.13a1.45,1.45,0,0,1,.23.5A2.15,2.15,0,0,0,17.69,16a.78.78,0,0,0,.64.2,4.54,4.54,0,0,1,.71,0,.28.28,0,0,0,.26-.15c.06-.1,0-.14-.07-.15a.5.5,0,0,1-.31-.09,15.65,15.65,0,0,1-1.21-1A1.34,1.34,0,0,0,16.71,14.34Zm6.84,0a1,1,0,0,0-.85.23c-.3.27-.62.51-.91.79a1.4,1.4,0,0,1-.77.46c-.1,0-.1.07,0,.15a.38.38,0,0,0,.37.16l.92,0a.26.26,0,0,0,.17-.08l.43-.37a1.23,1.23,0,0,0,.37-.55A2.62,2.62,0,0,1,23.55,14.37Zm-3.42,2.22-.52,1c0,.07-.06.15,0,.2.55.35.37.48.93,0h0c.11-.06.1-.14.06-.24C20.5,17.21,20.29,16.93,20.12,16.59Z"/><path id="_Path_4" data-name="&lt;Path&gt;" d="M30.1,28.07a.43.43,0,0,1-.18.18,3.25,3.25,0,0,0-.79.77.84.84,0,0,1-.65.39c-.39,0-.78.12-1.17.17a.68.68,0,0,1-.36,0c0-.1.09-.09.14-.11a3.18,3.18,0,0,0,1.47-1,.27.27,0,0,1,.17-.12A11,11,0,0,0,30.1,28.07Z"/><path id="_Path_5" data-name="&lt;Path&gt;" d="M10.95,27c.57.34,1.21.56,1.76.93,0,0,.1,0,.09.11s-.08,0-.12,0A1.16,1.16,0,0,1,11.8,28a3.67,3.67,0,0,1-.87-.88S10.9,27,10.95,27Z"/><path id="_Path_6" data-name="&lt;Path&gt;" d="M16.08,9.38l0,.1c-.14.26-.29.52-.43.79a.16.16,0,0,1-.26.08l-.29-.15c-.19-.1-.2-.21,0-.36a2.17,2.17,0,0,1,.49-.3l.46-.24C16,9.28,16.07,9.27,16.08,9.38Z"/></svg>