<svg xmlns="http://www.w3.org/2000/svg" class="HeroAbility-icon HeroAbility-icon--hoverState" viewBox="0 0 40 40" preserveAspectRatio="xMidYMid meet"><g id="_Group_3" data-name="&lt;Group&gt;"><g id="_Group_4" data-name="&lt;Group&gt;"><g id="_Group_5" data-name="&lt;Group&gt;"><path d="M21.86,31.45H10.14L5,15.85l10.14-7.3H28.78L35.16,16Zm-11.06-.9H21.45L34,16l-5.6-6.57H15.48L6.11,16.2Z"/></g><g id="_Group_6" data-name="&lt;Group&gt;"><path d="M21.44,27.56H12.71L8.93,16l7.53-5.42h10l4.77,5.59Zm-8.07-.9H21l9.06-10.51-4-4.69H16.75L10,16.32Z"/></g><g id="_Group_7" data-name="&lt;Group&gt;"><path d="M21,23.67H15.28l-2.47-7.58,4.92-3.54h6.5l3.17,3.71Zm-5.07-.9H20.6l5.61-6.5-2.39-2.81H18l-4.14,3Z"/></g></g></g><polygon points="21.63 17.53 20.01 17.53 20.44 15.91 19.35 15.91 18.92 17.53 17.3 17.53 17 18.62 18.63 18.62 18.19 20.24 19.28 20.24 19.72 18.62 21.34 18.62 21.63 17.53"/></svg>