<svg xmlns="http://www.w3.org/2000/svg" class="HeroAbility-icon HeroAbility-icon--hoverState" viewBox="0 0 40 40" preserveAspectRatio="xMidYMid meet"><g id="_Group_8" data-name="&lt;Group&gt;"><path d="M31.46,23,29.1,23l-.2,0h-.79l-.2,0-2.23,0a.72.72,0,0,0-.73.72v.18a.72.72,0,0,0,.72.73h1.09l-.1,7.92h0A1.34,1.34,0,0,0,28,33.82h.79a1.34,1.34,0,0,0,1.34-1.29h0v0h0v0h0l.1-7.85h1.22a.72.72,0,0,0,.73-.72v-.18A.72.72,0,0,0,31.46,23Zm-2.35,7.27-.52.39a.3.3,0,0,1-.36,0l-.51-.4a.3.3,0,0,1,0-.47l.52-.39a.3.3,0,0,1,.36,0l.51.4A.3.3,0,0,1,29.11,30.27Zm0-2.13-.52.39a.3.3,0,0,1-.36,0l-.51-.4a.3.3,0,0,1,0-.47l.52-.39a.3.3,0,0,1,.36,0l.51.4A.3.3,0,0,1,29.13,28.14Zm0-2.07-.52.39a.3.3,0,0,1-.36,0l-.51-.4a.3.3,0,0,1,0-.47l.52-.39a.3.3,0,0,1,.36,0l.51.4A.3.3,0,0,1,29.15,26.07Z"/><polygon points="24.96 21.1 21.32 12.45 23.25 12.25 19.2 6.17 18.87 12.71 20.5 12.54 21.67 19.52 20.18 20.04 15.44 14.7 17.24 13.63 9.69 7.82 12.84 16.22 14.5 15.24 18.12 20.77 7.61 24.48 8.11 24.84 19.18 22.39 20.41 24.25 10.77 32.37 11.15 32.61 24.37 24.75 21.75 21.81 24.96 21.1"/><polygon id="_Path_8" data-name="&lt;Path&gt;" points="26.67 21.98 26.67 9.88 30.5 6.17 30.23 21.98 28.42 20.85 26.67 21.98"/></g></svg>