<svg xmlns="http://www.w3.org/2000/svg" class="HeroAbility-icon HeroAbility-icon--hoverState" viewBox="0 0 40 40" preserveAspectRatio="xMidYMid meet"><path d="M11.32,22.7c-.23.23-.21.53-.28.81,0,.13,0,.3-.16.35-.37.1-.8-.66-.81-.93,0-.5.52-.77.82-1.1C11,22,11.42,22.6,11.32,22.7Zm-.48-4.87-.31,0a10.8,10.8,0,0,1-3.22-.91,6.13,6.13,0,0,1-1.14-.76c-.44-.32-.07-1.76-.62-1.87-.35-.07-.45-.35-.52-.63-.11-.45-.4-1.39.12-1.7s-.07-.82.15-1.13A2,2,0,0,1,6,10l.74-.36c.57-.28,1.25-.13,1.8-.44.21-.12.59-.41.84-.4a2.4,2.4,0,0,0,1-.37c.49-.21-.31-1-.65-.93S8.52,7.3,8.67,6.9a1.08,1.08,0,0,1,.61-.7c.45-.17.9-.36,1.35-.55s.6,0,.95,0c.87-.09,1.81.87,2.47,1.33s2,.1,2.74.16a14.94,14.94,0,0,1,2.42.37c.52.13,1,.23,1.57.34a1,1,0,0,1,.43.16,3.25,3.25,0,0,0,1.46.63c.39.08.65,0,.7.47s-.11.93.55,1.06c.29.06.41.34.71.37l2,.22,2.5.26c.87.09,1.74.16,2.61.28a1.54,1.54,0,0,0,1-.17,1.31,1.31,0,0,1,.83-.06c.52.08,1,.09,1.57.17s.51.19.46.61,0,1.44-.38,1.58a6.29,6.29,0,0,1-2.26-.26.7.7,0,0,1-.47-.21.57.57,0,0,0-.39-.17l-2.47-.25-1.13-.11c-1.28-.12-2.56-.22-3.83-.39a1.9,1.9,0,0,0-1.22.64,2.35,2.35,0,0,1-.59.67c-.42.41,0,.56.38.6l2.47.27,2,.21,1.83.2,1.89.2a.72.72,0,0,0,.57-.18c.51-.44,1.85,0,2.46,0l.72.09c.25,0,.34.12.36.37a1.81,1.81,0,0,1,0,.38c-.05.43,0,2-.72,1.87-.53-.07-1.06-.13-1.59-.18a2.74,2.74,0,0,1-1.48-.34,1.56,1.56,0,0,0-1.08-.37c-1.17,0-2.38-.23-3.54-.35-.86-.09-1.72-.19-2.59-.26s-1.7-.2-2.56-.24c-.29,0-.38.33-.66.38-.5.09-.3,0-.61.37l-.68.88c-.23.3-.63.15-.95.12a1,1,0,0,0-.44,0l-.08,0,.08,0c.86-.06.87,1.09,1.35,1.59a1.52,1.52,0,0,1,.42,1.2.59.59,0,0,0,0,.34c.1,0,.33-.28.33-.28a1.28,1.28,0,0,1,1-.21c.34.06.67.13,1,.17a.77.77,0,0,1,.57.35c.25.38.53.75.76,1.14a10.52,10.52,0,0,1,1.13,2.65,1.16,1.16,0,0,1-.07.83.58.58,0,0,0,.12.74,4.32,4.32,0,0,1,.36.46.43.43,0,0,0,.33.22c.33,0,.22.61.17.79-.09.34-.1,1.11-.58,1l-1.47-.25c-.26,0-1,0-1-.37s-.29-.31-.51-.37-.15.05-.2.13c-.16.28-.16.28-.47.23l-.95-.17c-.19,0-.23-.09-.21-.28s0-.43.06-.64.37-.53.45-.79.31-.21.54-.29c.54-.2-.68-1-.77-1.14s-.81-1.19-1.23-1c-.24.1-.51-.07-.78-.05a.93.93,0,0,0-.17,0c-.71.18-1.45.12-2.17.26a.44.44,0,0,1-.31-.07c-.19-.11-.68-.55-.76-.14a5.1,5.1,0,0,1-.47,1.88,7.86,7.86,0,0,0-.77,1.27c-.17.42-.46,1.32,0,1.62a.71.71,0,0,1,.39.57c0,.32.34.39,0,.72s-.33.57-.63.62-.32.58-.45.8c-.3.48-.66,1.63-1.34,1.47l-1.82-.41a.57.57,0,0,1-.16-1c.11-.46.8-2.08.06-2.29a.29.29,0,0,1-.2-.35c0-.39.05-.78.1-1.16s.14-1,.21-1.53c0,0,0-.37-.14-.22s-1.59.15-1.64-.31-.24-.15-.59-.05a5.27,5.27,0,0,1-1.92-.27c-.55-.1-.07-.62.13-.85l.36-.41c.26-.3,0-.24-.12-.52-.21-.81.71-2.33,1.17-2.95a5.55,5.55,0,0,1,.84-.81c.38-.34.85-.93,1.42-.85l.79.1,0,0Z" fill-rule="evenodd"/></svg>