<svg xmlns="http://www.w3.org/2000/svg" class="HeroAbility-icon HeroAbility-icon--hoverState" viewBox="0 0 40 40" preserveAspectRatio="xMidYMid meet"><g id="_Group_" data-name="&lt;Group&gt;"><g id="_Group_2" data-name="&lt;Group&gt;"><path d="M22.4,24.7l-2,0-.08,0h-.65l-.08,0H17.78a.67.67,0,1,0,0,1.34h.83l-.08,6.55h0a1.11,1.11,0,0,0,1.09,1.09h.65a1.11,1.11,0,0,0,1.11-1.07h0v0h0v0L21.46,26h.93a.67.67,0,0,0,0-1.34Zm-1.87,6-.43.32a.25.25,0,0,1-.3,0l-.42-.33a.25.25,0,0,1,0-.39l.43-.32a.25.25,0,0,1,.3,0l.42.33A.25.25,0,0,1,20.54,30.71Zm0-1.77-.43.32a.25.25,0,0,1-.3,0l-.42-.33a.25.25,0,0,1,0-.39l.43-.32a.25.25,0,0,1,.3,0l.42.33A.25.25,0,0,1,20.55,28.95Zm0-1.71-.43.32a.25.25,0,0,1-.3,0l-.42-.33a.25.25,0,0,1,0-.39l.43-.32a.25.25,0,0,1,.3,0l.42.33A.25.25,0,0,1,20.56,27.24Z"/><path id="_Path_" data-name="&lt;Path&gt;" d="M18.52,23.85V10.32a2.33,2.33,0,0,1,.71-1.67l2.45-2.38-.22,17.59L20,22.92Z"/></g><g id="_Group_3" data-name="&lt;Group&gt;"><path id="_Path_2" data-name="&lt;Path&gt;" d="M31.14,18.21c-.09-.41-.19-.82-.31-1.22a.14.14,0,0,1,.05-.16.17.17,0,0,1,.26,0,4.84,4.84,0,0,1,.31,7.38.15.15,0,0,1-.15,0l0,.07a.15.15,0,0,1-.13.11A9.67,9.67,0,0,0,31.14,18.21Z"/><path id="_Compound_Path_2" data-name="&lt;Compound Path&gt;" d="M18.31,9.41a8.92,8.92,0,0,0-1.76.55,14,14,0,0,0-2.25,1.13c-.21.17-.42.35-.61.54L13.3,12a16.82,16.82,0,0,0-2.14,2.65l-.13.2-.17.21a9.24,9.24,0,0,0-.59.84c-.1.15-.18.46-.32.56-.8.18-.87-.8-.94-.63a13.45,13.45,0,0,0-.88,5.34l0,.14c-.06.25-.12.27-.3.1a1.14,1.14,0,0,0-.33-.23c.11.63-.07,1.28.32,1.84a1.41,1.41,0,0,1-.55-.37,3.14,3.14,0,0,0,.89,1.56,1.09,1.09,0,0,1-.5-.13s-.09,0-.13,0a.11.11,0,0,0,0,.12l.06.13c.11.2.53.85.64,1.05a2.94,2.94,0,0,0,.41.58l.48.49a1.16,1.16,0,0,1-.86-.75l-.08-.12c0-.06-.11-.08-.16,0s-.15,0-.2,0a3.2,3.2,0,0,1-.45-1c0-.11-.07-.22-.2-.2s-.15.15-.15.25A2.26,2.26,0,0,0,7,25a2.33,2.33,0,0,0,.49,1,2.53,2.53,0,0,0,.76.51,3.2,3.2,0,0,1,1.4,1.26,3.87,3.87,0,0,0,.46.65,2.2,2.2,0,0,0,.81.71c.11,0,.24.09.34,0s.2,0,.23.07a.47.47,0,0,0,.34.34c.33.08.4.34.45.62s0,.22-.18.14a1.57,1.57,0,0,0-.72-.15,1.33,1.33,0,0,1,.53.68c.16.37.53.47.84.65a.39.39,0,0,0,.19,0,.85.85,0,0,0,.72-.44,1.33,1.33,0,0,1,.35-.38.67.67,0,0,0,.24-.59c-.1.12-.18.22-.31.2s.16-.13.09-.22-.14,0-.21,0a.45.45,0,0,1-.54-.23,6.26,6.26,0,0,0-.71-1.26.66.66,0,0,1,0-.76.6.6,0,0,1,.65-.24A1.45,1.45,0,0,1,14,28a1.62,1.62,0,0,0,.93.39l.67.1a.67.67,0,0,1,.31.13c.11.08,0,.2,0,.32a.48.48,0,0,0,.2-.18s.06-.1.11-.07,0,.08,0,.13-.06.06,0,.11a.38.38,0,0,0,.34-.45.75.75,0,0,1,.08-.4,2.92,2.92,0,0,1,.37-.58c.22-.28.15-.48-.2-.6,0,.06,0,.13,0,.19s0,.14-.06.17-.09-.07-.13-.1L16.54,27c-.21-.18-.21-.18-.34.06l-.07.13s0,.09-.08.08-.08-.06-.09-.1,0-.11-.05-.16a1.75,1.75,0,0,0-.73-.85,1.1,1.1,0,0,1,0,.39q0,.48-.48.27a1.13,1.13,0,0,1-.69-.94,4,4,0,0,0-.85-1.92,3.79,3.79,0,0,1-.49-1,1,1,0,0,1,0-.66,1.87,1.87,0,0,1,.4-.66,2,2,0,0,0-1.31.81s-.06.13-.13.11-.07-.1-.09-.15a3,3,0,0,1-.17-1.21l0,0c0-.19.09-.38.14-.57a5.89,5.89,0,0,1,.54-.91,4.49,4.49,0,0,1,2-2.87l-.46.06a8,8,0,0,1,4.16-2.28c.1-1.29,0-2.54,0-3.83-.27.09-.22.13-.49.23a12.75,12.75,0,0,0-1.57.62l-.56.23a.15.15,0,0,0-.08.08l-.28.14a13.11,13.11,0,0,1,1.93-1.58l.44-.25a.16.16,0,0,0,.07-.08c.32-.2.65-.38,1-.55a.16.16,0,0,0,.09-.15Zm-6.22,17.4a.83.83,0,0,0,0-.4s0-.08,0-.11.08,0,.11,0a2,2,0,0,1,.55.51c0-.14,0-.23,0-.35a.78.78,0,0,1,.25.24l.37.46c0,.06.15.11.09.19s-.14,0-.21,0l-.25-.1a.37.37,0,0,0-.51.32c0,.17-.06.13-.16.05-.35-.28-.49-.71-.8-1.07C11.8,26.54,11.9,26.73,12.09,26.81Zm-.58.63c.08-.09.21,0,.29.08a.8.8,0,0,1,0,1.24c0-.07,0-.12,0-.17a.66.66,0,0,0-.19-.93C11.6,27.6,11.43,27.54,11.51,27.44Zm0,.46a.33.33,0,0,1,.26.52c0,.05-.05.14-.13.14s-.06-.1-.08-.15L11.45,28C11.41,27.92,11.45,27.88,11.55,27.89Z"/><path id="_Path_3" data-name="&lt;Path&gt;" d="M24.78,12.21a7.93,7.93,0,0,1,3.11.25,4.23,4.23,0,0,1,.46.14,5.16,5.16,0,0,1,1.15.43l0,0a4.22,4.22,0,0,0-.7-.5c-1.95-1.36-3.93-2.61-6.37-2.59l0,0c-.06.79-.2,3.87-.19,4.75h0a8.28,8.28,0,0,1,5.64,8.17c0,3-4.25,8.14-4.67,8.57-.11.11-.25.19-.36.3s-.14.1-.08.18a8.2,8.2,0,0,0,3.79-2.82c.34-.5.64-1,.95-1.55l.48-.79s.41,0-.08,1.68c0,.06-.38,1,.44.13C29.65,27,34.82,17.58,24.78,12.21Z"/></g></g></svg>