<svg xmlns="http://www.w3.org/2000/svg" class="HeroAbility-icon HeroAbility-icon--hoverState" viewBox="0 0 40 40" preserveAspectRatio="xMidYMid meet"><g id="_Group_" data-name="&lt;Group&gt;"><g id="_Group_2" data-name="&lt;Group&gt;"><path id="_Compound_Path_" data-name="&lt;Compound Path&gt;" d="M18.74,24.61A2.37,2.37,0,0,0,20,24.8a1.86,1.86,0,0,0,1.21-.55,9.58,9.58,0,0,0,1.38-1.84,5.92,5.92,0,0,1,1.91-1.9,1.86,1.86,0,0,0,.91-1.58c0-.58-.21-.77-.76-.56l-.5.21A2.85,2.85,0,0,1,24.84,17l.2-.18c.06-.06.15-.12.13-.22s-.15-.07-.23-.08h-.07c-.57,0-.59-.1-.36-.65a2.22,2.22,0,0,1,.11-.21c0-.06.1-.11,0-.18s-.12,0-.19,0h0c-.13,0-.31.25-.38,0a.5.5,0,0,1,.29-.59.64.64,0,0,1,.46,0,4.3,4.3,0,0,0,1.1.18,1.27,1.27,0,0,0,.68-.15.61.61,0,0,1,.88.25,1.27,1.27,0,0,0-.24,0s-.12,0-.13.09.06.1.12.12.31,0,.42.19c-.42.16-.51.3-.41.77s.18.73.3,1.08a2.69,2.69,0,0,1,0,1.67,2.33,2.33,0,0,0,.07,1.5.9.9,0,0,0,.79.7,1.08,1.08,0,0,0,1.05-.57,9.07,9.07,0,0,1,1.37-1.85.74.74,0,0,0,0-1c-.06-.08-.23-.15-.15-.27s.22,0,.37,0c0-.23-.24-.27-.42-.32a.89.89,0,0,1,1-.05,1.84,1.84,0,0,0,.79.26,1.4,1.4,0,0,1,1.13.82.5.5,0,0,1,.08.22,2.52,2.52,0,0,1-.39,1.66,2.32,2.32,0,0,0-.67,1.25,3,3,0,0,1-.23-1.21c0-.25-.1-.24-.27-.16a1.13,1.13,0,0,0-.65,1.08.85.85,0,0,1-.27.73c-.15.14-.28.29,0,.42s.22.3.22.5a3.59,3.59,0,0,1-.52,1.67,6.4,6.4,0,0,1-.66,1.11,4.76,4.76,0,0,0-.92,2.93,3.54,3.54,0,0,1-2,3.17c-.17.1-.39.16-.52,0s0-.32.19-.45A5.15,5.15,0,0,0,28,30c.08-.12.22-.27-.07-.35-.12,0-.12-.15-.06-.25a.67.67,0,0,1,.13-.2,1.93,1.93,0,0,0,.52-1.83,7.68,7.68,0,0,1-1.71,3c-.08.09-.14.25-.29.2s-.08-.21-.09-.33a1.37,1.37,0,0,0-.14-.68c-.2,1.05-1.05,1.62-1.71,2.34a3,3,0,0,0,.21-1.12,3.61,3.61,0,0,1-1.18,1.05,4.91,4.91,0,0,0-1.35.75,2,2,0,0,1,.14-.75c.1-.29,0-.37-.27-.33s-.56.09-.84.13A9.94,9.94,0,0,1,15,30.37a10.64,10.64,0,0,1-5.41-8c0-.08,0-.16,0-.24-.27-1.15.39-1.94,1.08-2.71l0,0c.18-.12.36-.36.59-.23s.12.4.08.6a8.9,8.9,0,0,0,.48,4.67,3.79,3.79,0,0,0,1.34,1.84,6.28,6.28,0,0,0,5.2,1.33,5.17,5.17,0,0,0,2.46-1.16c.08-.07.22-.13.17-.26s-.17-.09-.27-.11a3.5,3.5,0,0,1-2-1.23A.18.18,0,0,1,18.74,24.61ZM27,23.7a3.21,3.21,0,0,0,.44-.62,3.55,3.55,0,0,0,.66-1.21c0-.17.09-.26-.17-.2a.61.61,0,0,1-.83-.61c0-.19,0-.38,0-.58s0-.12-.08-.13a.13.13,0,0,0-.11.06c-.23.52-.56,1-.76,1.56.23,0,.33-.19.55-.17a3,3,0,0,0-.39,1.15c0,.06,0,.14,0,.18s.1,0,.14-.07a1.19,1.19,0,0,1,.6-.3C27.12,23.07,26.94,23.35,27,23.7Zm3.14-1.86a1.28,1.28,0,0,0-1.82.88c0,.17-.11.43.1.47s.16-.23.21-.37c.26-.73.46-.88,1.24-.9C30,21.91,30.09,21.94,30.18,21.83Zm-.52.27c-.42,0-.64.24-.59.62,0,.09,0,.2.1.24s.16-.06.22-.12l.4-.41c.07-.07.22-.11.18-.21S29.77,22.11,29.66,22.1Z"/><path id="_Compound_Path_2" data-name="&lt;Compound Path&gt;" d="M21.13,15.11A3,3,0,0,0,19.89,15a1.59,1.59,0,0,0-1,.38,6.13,6.13,0,0,0-1.19,1.39,6.49,6.49,0,0,1-2.28,2.51,1.83,1.83,0,0,0-.93,1.64q0,.8.71.53a1.78,1.78,0,0,0,.56-.28A2.83,2.83,0,0,1,15,22.76l-.2.18c-.05.06-.12.11-.09.2s.11.06.18.07l.24,0c.44,0,.44,0,.31.46,0,.11-.09.21-.12.32s-.18.15-.07.26.19,0,.29,0l.28-.11c0,.6-.21.83-.76.69a4.71,4.71,0,0,0-1.11-.17,1.22,1.22,0,0,0-.65.15.62.62,0,0,1-.88-.2c0-.08.12,0,.18,0s.18,0,.18-.11-.1-.1-.18-.12a.78.78,0,0,1-.4-.18c.17-.08.38-.06.43-.28a1.09,1.09,0,0,0,0-.54c-.09-.35-.18-.7-.29-1a2.62,2.62,0,0,1,0-1.63,2.34,2.34,0,0,0,0-1.41c-.12-.4-.33-.75-.78-.8a1.06,1.06,0,0,0-1.09.55A10.12,10.12,0,0,1,9,20.89a.73.73,0,0,0,0,.94c.07.1.25.17.19.3s-.24-.05-.38,0c.06.22.26.26.5.33a1.08,1.08,0,0,1-1,0,2.15,2.15,0,0,0-.8-.26,1.38,1.38,0,0,1-1.12-.78.63.63,0,0,1-.11-.28,2.52,2.52,0,0,1,.41-1.66,2.15,2.15,0,0,0,.65-1.22,2.54,2.54,0,0,1,.24,1.16c0,.32.13.3.32.17.37-.26.71-.54.61-1.07a.76.76,0,0,1,.28-.73c.15-.13.25-.28,0-.39s-.23-.29-.23-.49A3.55,3.55,0,0,1,9,15.27a6.25,6.25,0,0,1,.66-1.11,5.17,5.17,0,0,0,.94-2.89,4.08,4.08,0,0,1,.25-1.46,3.77,3.77,0,0,1,1.2-1.41A3.66,3.66,0,0,1,12.66,8c.15-.07.35-.12.46.05s0,.31-.16.43a5.16,5.16,0,0,0-1.14,1.3c-.08.12-.18.26.08.32s.13.14.07.25a1.68,1.68,0,0,1-.12.2,1.88,1.88,0,0,0-.54,1.76c.14-.36.27-.69.41-1a4.75,4.75,0,0,1,.58-1L13,9.43l.16-.18c0-.05.1-.1.17-.08s.09.12.1.19a1.77,1.77,0,0,0,.14.82c.22-1,1-1.62,1.71-2.33a2.28,2.28,0,0,0-.18,1.06c.58-.95,1.64-1.11,2.51-1.69a1.84,1.84,0,0,1-.12.64c-.13.39-.08.46.34.38A11.1,11.1,0,0,1,20,8.05a9.57,9.57,0,0,1,4.82,1.32,10.69,10.69,0,0,1,5.45,8.05,3.61,3.61,0,0,1-1.19,3,.79.79,0,0,1-.29.18c-.18.08-.29,0-.31-.18a1.15,1.15,0,0,1,0-.34,8.82,8.82,0,0,0-.28-4.19,4.27,4.27,0,0,0-1.56-2.44,6.22,6.22,0,0,0-5.14-1.31A5.19,5.19,0,0,0,19,13.35c-.07.07-.19.13-.17.24s.16.1.26.12A3.19,3.19,0,0,1,21.13,15.11Zm-8,2.87a3.15,3.15,0,0,0,.39-1.15c0-.07,0-.14,0-.18s-.12,0-.17.08a1.34,1.34,0,0,1-.58.3c0-.33.21-.61.06-1a11.5,11.5,0,0,0-1.06,1.88c0,.19-.08.28.18.2a.59.59,0,0,1,.8.54c0,.14,0,.29,0,.44s-.08.29.07.33.16-.15.22-.25c.15-.28.3-.56.44-.84a1.26,1.26,0,0,0,.19-.53C13.44,17.78,13.35,18,13.12,18Zm-3.43,0a1.3,1.3,0,0,0,1.81-.87c0-.17.11-.44-.08-.49s-.18.23-.23.37c-.27.72-.46.86-1.25.89C9.86,17.85,9.77,17.82,9.69,17.94Zm.5-.28c.47,0,.72-.32.59-.73,0-.15-.12-.18-.24-.07l-.47.48c-.06.07-.22.09-.17.21S10.09,17.65,10.19,17.66Z"/></g></g></svg>