<svg xmlns="http://www.w3.org/2000/svg" class="HeroAbility-icon HeroAbility-icon--hoverState" viewBox="0 0 40 40" preserveAspectRatio="xMidYMid meet"><path d="M20.64,25.21,13.17,29H11.95l.74,2.73a.55.55,0,0,1,0,.17l-.36.4a.2.2,0,0,1-.27,0l-2.2-1.61-.14,1.43,2.13,1.54h0a.76.76,0,0,0,.81,0L21,28.73l.15-.16a1.21,1.21,0,0,0,.12-1.11Zm2.25-4.66a1.38,1.38,0,0,0-.66-.91l-1.5-.81a1,1,0,0,0-.81,0l-1.16.43,1.28,1a1.79,1.79,0,0,1,.44.88l1.83,6.49,1.33-.7a1.16,1.16,0,0,0,.57-.62,1.44,1.44,0,0,0,0-.92Zm-.07,4h0a.5.5,0,0,1-.61-.35l-.38-1.4a.5.5,0,0,1,.35-.61h0a.49.49,0,0,1,.61.34v0L23.17,24a.5.5,0,0,1-.36.57ZM7.6,28.75,7,26.57a.59.59,0,0,1,0-.14l.5-.56-.74-1L6,25.68a1.26,1.26,0,0,0-.13,1.17L6.45,29a2.24,2.24,0,0,0,.81,1.19l1.24.9.17-1.35L8,29.26A1,1,0,0,1,7.6,28.75ZM10.9,25.2l.62,2.26,1.17-.22,7.52-3.58-.65-2.37a2.06,2.06,0,0,0-.73-1.12l-1-.75a.93.93,0,0,0-.88-.11l-7.48,3a2.81,2.81,0,0,0-1,.73L7.58,24l.71,1,.94-1a.21.21,0,0,1,.27,0l1.1.81A1,1,0,0,1,10.9,25.2Zm12.61-5.44.57,2.07,5.44-2.59a.81.81,0,0,0,.43-.87l-.44-1.7A4.2,4.2,0,0,0,27,15.33l-5.13,2L21.5,18l1.29.67A2.11,2.11,0,0,1,23.51,19.76Zm-1.7-7.91a.5.5,0,0,0,.08.7l.08.06a4.54,4.54,0,0,0,2.2.57,8.69,8.69,0,0,0,2.46-.46,6.07,6.07,0,0,1,4.16-.13A3.28,3.28,0,0,1,33,15.71a3.12,3.12,0,0,1-2,3,.52.52,0,0,0-.33.54.51.51,0,0,0,.49.43h.17a4.09,4.09,0,0,0,2.7-3.9,4.22,4.22,0,0,0-2.86-4,7.07,7.07,0,0,0-4.79,0c-1.36.39-2.52.72-3.93,0a.49.49,0,0,0-.61.11Zm8.88,9.39a.81.81,0,0,0-1-.56l-.13,0-5.1,2.57.6,2.18a1.61,1.61,0,0,1,0,.81L30,23.37s1.07-.87.81-1.61Z"/><polygon points="21.1 11.44 19.93 6.21 17.65 7.37 21.1 11.44"/><polygon points="20.57 11.99 17.11 10.79 17.08 13.15 20.57 11.99"/><polygon points="21.89 11.18 22.43 8.09 24.35 9.02 21.89 11.18"/></svg>