<svg xmlns="http://www.w3.org/2000/svg" class="HeroAbility-icon HeroAbility-icon--hoverState" viewBox="0 0 40 40" preserveAspectRatio="xMidYMid meet"><path id="_Compound_Path_" data-name="&lt;Compound Path&gt;" d="M33.53,22.31l-.06,0h0a.32.32,0,0,0-.23.12l-.63.54-.87.74,0,0a.83.83,0,0,1-.35.21L26.53,25a2.1,2.1,0,0,1-.86.07c-.75-.11-1.51-.21-2.25-.31l-.16,0q1.13-2.16,2.25-4.33a.25.25,0,0,1,.19-.15L28,19.74,30,19.27a1.52,1.52,0,0,0,.76-.44c.58-.61,1.14-1.26,1.68-1.89l.75-.87a.46.46,0,0,0,.09-.48c-.13-.38-.27-.76-.46-1.19a.27.27,0,0,0-.25-.21.29.29,0,0,0-.26.21l-.42.77q-.89,1.61-1.77,3.22a.36.36,0,0,1-.29.22c-1.88.44-3.44.83-4.9,1.21a.64.64,0,0,0-.41.3l-1.55,2.55-.08.13-.23-.9L21.1,16s0-.06,0-.11l.64-.91.62-.88a.76.76,0,0,0,.15-.45,14.56,14.56,0,0,1,.12-1.52V12q.21-1.91.42-3.81l.14-1.28c0-.36,0-.45-.39-.53l-.13,0c-.13,0-.29.06-.32.35,0,.48-.11,1-.16,1.44L22,9.76c-.1.84-.19,1.67-.29,2.51a1.08,1.08,0,0,0,0,.14.34.34,0,0,1,0,.14l-.66.84,0,0h0l-.15-.94L20.66,11c-.19-1.17-.38-2.34-.57-3.51l0-.18a2.46,2.46,0,0,1,0-.85.26.26,0,0,0-.27-.33h-.06A14.05,14.05,0,0,0,13.29,8a.36.36,0,0,0-.21.44l.14.49a15.31,15.31,0,0,0,.57,1.8.84.84,0,0,0,.49.48l.82.37L16,12a.53.53,0,0,1,.29.31c.34.81.65,1.65.95,2.46l0,.09c.26.69.45,1.27.62,1.83a.34.34,0,0,1,0,.36c-.16.2-.31.41-.45.62l-.13.19c-.06.08-.07,0-.11,0l-3.47-.69a.24.24,0,0,1-.19-.13l-.09-.15a2.59,2.59,0,0,0-.38-.55c-.4-.41-.81-.8-1.22-1.18l-.31-.29a.34.34,0,0,1-.1-.19l0-.09a1.17,1.17,0,0,0-.16-.46c-.56-.83-1.06-1.57-1.55-2.35-.06-.1-.14-.22-.27-.22s-.2.1-.27.2a14.59,14.59,0,0,0-.83,1.28.34.34,0,0,0,.12.5L9,14l.71.49a5.09,5.09,0,0,1,.41.32c.13.11.27.23.42.33a4.65,4.65,0,0,1,1.41,1.3l.06.08,0,0c.15.21.31.41.47.61a11.1,11.1,0,0,1,.77,1.05.39.39,0,0,0,.35.17l.65,0,1.59,0a3.54,3.54,0,0,1,.76.1.36.36,0,0,1,.26.18A1.53,1.53,0,0,0,17,19l.09.11.62.85,1.58,2.14a.21.21,0,0,1,0,.17c-.08.57-.15,1.14-.22,1.71l-2-1.24a.66.66,0,0,0-.36-.11h0l-.82.06-2.81.19a.19.19,0,0,1-.1,0l-.24-.15-1.42-.86-.27-.17a3.07,3.07,0,0,0-1-.47L8,20.7l-1.24-.28-.16,0a.24.24,0,0,0-.2.09.35.35,0,0,0,0,.32c.15.58.28,1.19.43,2a.43.43,0,0,0,.45.4h0V23h0l.05.19h.73l2.57,0,.18,0,.86.23,1.37.36A2.78,2.78,0,0,0,14,24c.79-.07,1.6-.08,2.39-.09h.57a.34.34,0,0,1,.15,0l.35.17,1.4.68a.16.16,0,0,1,.1.13l.15.55c.19.71.39,1.44.61,2.15a.13.13,0,0,1,0,.14l-.87,1.2-.3.42a.4.4,0,0,0,.1.66l.36.26.61.43,1.5,1.06-.58.6-.15.15-.75.78a.27.27,0,0,0-.11.3.3.3,0,0,0,.31.18l.33,0,.22,0h.07a.27.27,0,0,0,.22-.09,1.14,1.14,0,0,1,.26-.2,1.68,1.68,0,0,0,.3-.22,1.08,1.08,0,0,0,.18-.26.72.72,0,0,1,.13-.18c.29-.26.56-.54.83-.81l.3-.3c.1-.1.18-.18.17-.3s-.1-.19-.22-.27l-2.07-1.43h0l.57-.51c.44-.39.88-.79,1.32-1.17l.32-.3a2.56,2.56,0,0,1,.81-.61,2.13,2.13,0,0,0,.27-.14l.09-.05.24-.13a3.29,3.29,0,0,0,1.22-.9h.07l.71.14.75.15a.72.72,0,0,0,.41,0l3.87-1.39.1,0,.09,0c.25.05.5.08.75.1l.52.06a.4.4,0,0,0,.5-.3,14.42,14.42,0,0,0,.56-2A.25.25,0,0,0,33.53,22.31ZM19.92,17.19l.5-.44.2,2.06-.57.45c0-.06,0-.11,0-.16C20,18.55,20,18,19.92,17.19Zm.24,6,0,0,.52.71a4.62,4.62,0,0,0,.68.75l0,0,0,0-.33.39-1-.65-.23-.15.31-1Zm1-1-.37-.64q-.29-.53-.61-1.05l0,0,0-.05a6.2,6.2,0,0,1,1-.9q.43,1.44.87,2.88l.31,1,0,.1a.09.09,0,0,1,0,.07l-.14.23L22.1,24A11.26,11.26,0,0,0,21.17,22.17Zm-.35,3.52-.36.66-.08,0a.82.82,0,0,1-.32-.13l0,0a8.38,8.38,0,0,1-.26-1A10.12,10.12,0,0,0,20.83,25.69Zm2,1c0-.31.05-.63.09-1l0-.22,1.16.14a.44.44,0,0,0,0,.17c0,.14,0,.23-.23.34s-.54.29-.79.43l-.25.14Zm-2.45,7h0Z"/></svg>