<svg xmlns="http://www.w3.org/2000/svg" class="HeroAbility-icon HeroAbility-icon--hoverState" viewBox="0 0 40 40" preserveAspectRatio="xMidYMid meet"><path d="M5.84,19c0-1.63,0-3.26,0-4.89A1.14,1.14,0,0,1,6.53,13L9.11,11.8,19,7.08a2.17,2.17,0,0,1,2,0Q27.17,10,33.36,13a1.39,1.39,0,0,1,.86,1.37c0,3.19,0,6.38,0,9.57a1.55,1.55,0,0,1-.8,1.38c-1.16.66-2.39,1.2-3.6,1.77-.33.16-.49,0-.51-.33,0-.17,0-.35,0-.52s-.07-.21-.21-.14l-1.22.57a.26.26,0,0,0-.16.25c0,.08,0,.17,0,.25q0,1,0,2.09a.55.55,0,0,1-.31.53c-.65.32-1.29.64-1.95.94-.23.11-.4,0-.41-.27,0-.51,0-1,0-1.53a1.61,1.61,0,0,0-.06-.51.31.31,0,0,0-.34-.25.34.34,0,0,0-.31.32,2.6,2.6,0,0,0,0,.35c0,.7,0,1.41,0,2.11a.55.55,0,0,1-.35.56c-.48.2-.94.45-1.4.68s-.56.05-.58-.34c0-.74,0-1.49,0-2.23a1,1,0,0,0,0-.22c0-.14-.11-.27-.28-.27s-.25.12-.29.27a2.09,2.09,0,0,0-.07.41c0,.54,0,1.07,0,1.61,0,.36,0,.71,0,1.07a.52.52,0,0,1-.28.48,1.54,1.54,0,0,1-1.69,0,.51.51,0,0,1-.28-.47c0-.8,0-1.6,0-2.4a2.43,2.43,0,0,0-.07-.68c0-.15-.12-.29-.31-.28s-.24.15-.28.29a3.28,3.28,0,0,0-.08.77c0,.58,0,1.16,0,1.73,0,.32-.18.43-.49.31l-.21-.1a8.22,8.22,0,0,0-1.2-.58.56.56,0,0,1-.4-.59c0-.66,0-1.32,0-2a1.86,1.86,0,0,0-.06-.54c-.05-.17-.16-.29-.34-.27a.34.34,0,0,0-.31.34c0,.11,0,.22,0,.33,0,.54,0,1.07,0,1.61,0,.27-.19.4-.44.28-.65-.3-1.29-.61-1.93-.93a.6.6,0,0,1-.33-.58c0-.7,0-1.39,0-2.09a.51.51,0,0,0-.36-.56c-.34-.14-.67-.3-1-.46s-.25-.05-.26.16,0,.35,0,.52c0,.33-.18.44-.48.3l-1.71-.82q-.88-.41-1.73-.86a1.66,1.66,0,0,1-1-1.56c0-1.6,0-3.19,0-4.79Zm9.69-.28a6.91,6.91,0,0,0-.16-1.3A4.26,4.26,0,0,0,13.94,15a2.4,2.4,0,0,0-2.74-.29A3.2,3.2,0,0,0,10,15.75a5.84,5.84,0,0,0-.63,5.71,3.43,3.43,0,0,0,1.5,1.79,2.27,2.27,0,0,0,1.7.26,3.25,3.25,0,0,0,1.87-1.31A6,6,0,0,0,15.53,18.76Zm15.59.47A6,6,0,0,0,31,18,4.94,4.94,0,0,0,29.29,15a2.48,2.48,0,0,0-2.21-.52,2.87,2.87,0,0,0-1.82,1.43,5.5,5.5,0,0,0-.66,4,5,5,0,0,0,1.68,3,2.74,2.74,0,0,0,1.34.62,2.54,2.54,0,0,0,2.42-1A5.09,5.09,0,0,0,31.12,19.22ZM21,26.51h.14a.53.53,0,0,0,.46-.84,1.13,1.13,0,0,0-.46-.5c-.29-.15-.6-.29-.89-.44a.42.42,0,0,0-.38,0l-.81.39a1.14,1.14,0,0,0-.55.58.51.51,0,0,0,.34.78,1.06,1.06,0,0,0,.67,0,1.38,1.38,0,0,1,1.09,0A.78.78,0,0,0,21,26.51ZM8.27,19h0c0-.25,0-.5,0-.75A.26.26,0,0,0,8.14,18a.27.27,0,0,0-.29.07L7,18.67c-.25.2-.25.35,0,.55l.88.69C8,20,8,20,8.15,20a.24.24,0,0,0,.12-.22C8.27,19.49,8.27,19.24,8.27,19ZM15,24.44a6.64,6.64,0,0,0,0-.92c0-.25-.13-.3-.34-.19a10,10,0,0,0-1,.59c-.22.15-.23.28,0,.44s.7.55,1.06.81c.17.12.29.06.3-.16A2.88,2.88,0,0,0,15,24.44ZM16,19.08a5.09,5.09,0,0,0,0,.81c0,.28.14.32.36.16l.33-.22c.18-.14.37-.27.54-.42s.22-.37,0-.53-.63-.5-1-.74c-.17-.12-.29,0-.3.16A6.42,6.42,0,0,0,16,19.08Zm9,5.18a2.93,2.93,0,0,0,0,.72c0,.24.13.31.32.17q.54-.39,1.06-.81c.18-.14.16-.29,0-.42a10.89,10.89,0,0,0-1-.61c-.21-.11-.31-.06-.34.17A4.67,4.67,0,0,0,25,24.26ZM24,19a6,6,0,0,0,0-.7c0-.25-.14-.31-.34-.16l-.84.65c-.29.23-.28.4,0,.65s.57.4.85.6.24.1.3-.12A3.77,3.77,0,0,0,24,19Zm8.07-1c-.21,0-.29.11-.29.28a9.94,9.94,0,0,0,0,1.42c0,.2.18.27.34.14l.87-.68c.24-.2.24-.34,0-.54s-.5-.37-.75-.56A.28.28,0,0,0,32,18.05ZM15,14.06h0c0-.17,0-.35,0-.52a1.31,1.31,0,0,0-.1-.53c0-.09-.11-.19-.22-.13a4.74,4.74,0,0,0-1,.63.26.26,0,0,0,0,.4,7.81,7.81,0,0,0,1.09.84c.15.1.25,0,.26-.15S15,14.24,15,14.06Zm10.1,0c0,.16,0,.32,0,.48s0,.19.07.24.19,0,.27-.06c.31-.23.61-.45.91-.69s.24-.36,0-.58a6.85,6.85,0,0,0-.77-.48c-.22-.15-.31-.12-.39.14A4.09,4.09,0,0,0,25.05,14Zm5.57,9.74c0-.16,0-.3,0-.43s-.11-.21-.24-.12l-1,.79a.21.21,0,0,0,0,.35,8.47,8.47,0,0,0,.9.71c.17.12.28.07.33-.13C30.64,24.56,30.55,24.16,30.63,23.79Zm-21.25,0c.07.38,0,.79.08,1.2,0,.19.14.24.3.14a6.61,6.61,0,0,0,.94-.73.2.2,0,0,0,0-.32c-.35-.28-.7-.55-1.05-.82-.11-.08-.22-.06-.23.11ZM30.75,13.64c0-.18,0-.37,0-.56s-.11-.23-.25-.13c-.32.23-.64.46-.94.72s-.17.33,0,.47l.83.59c.16.11.26.06.3-.12A9.36,9.36,0,0,0,30.75,13.64Zm-21.49,0a9,9,0,0,0,.07,1c0,.18.13.22.28.12s.57-.39.85-.6.21-.31,0-.45-.63-.5-1-.73c-.13-.09-.23,0-.24.12S9.27,13.43,9.26,13.61Z"/></svg>