<svg xmlns="http://www.w3.org/2000/svg" class="HeroAbility-icon HeroAbility-icon--hoverState" viewBox="0 0 40 40" preserveAspectRatio="xMidYMid meet"><g id="_Group_2" data-name="&lt;Group&gt;"><path id="_Path_14" data-name="&lt;Path&gt;" d="M13.4,17.81H10.35c-.51,0-.55,0-.55.56q0,1.31,0,2.61c0,.49,0,.53.54.53h5.53a1.07,1.07,0,0,0,.8-.28,1.3,1.3,0,0,1,1-.34c1.31,0,2.61,0,3.92,0,.22,0,.51.08.41-.34,0-.13.11-.18.23-.18a5.47,5.47,0,0,1,.6,0c.24,0,.33-.08.33-.31,0-.06,0-.11,0-.17,0-.66,0-.69-.66-.68-.34,0-.55-.06-.56-.47s-.25-.49-.6-.48-.78,0-1.17,0c-.17,0-.22-.06-.22-.21,0-1,0-2.08,0-3.12a.34.34,0,0,1,.38-.37h2.14a.48.48,0,0,1,.47.36,4.52,4.52,0,0,1,.26,1.61,2.55,2.55,0,0,0,.62,1.83,3.22,3.22,0,0,0,2.36.92,1.54,1.54,0,0,0,1-.24.37.37,0,0,1,.41,0c.21.12.42.25.64.36a4.2,4.2,0,0,0,2.69.2c.19,0,.26,0,.26.18a1.25,1.25,0,0,0,.19.63c1,1.84,2,3.69,3,5.53a1.06,1.06,0,0,1,0,1.08c-.12.23-.24.46-.34.69a1.54,1.54,0,0,1-.66.69c-1.29.76-2.57,1.53-3.86,2.29,0,0-.09,0-.11.07-.31.71-1.11.83-1.6,1.34a3.49,3.49,0,0,1-1.49.82A1.08,1.08,0,0,1,25,32.12c0-.15.09-.19.2-.23.29-.11.59-.21.88-.33a5.45,5.45,0,0,0,2.34-1.84,2.53,2.53,0,0,1,.95-.62,1.11,1.11,0,0,0,.63-.8,3.26,3.26,0,0,1,.18-.54,1,1,0,0,0-.08-.84c-.79-1.44-1.46-2.94-2.24-4.39a3,3,0,0,1-.38-1.6c0-.32,0-.65,0-1a.33.33,0,0,0-.35-.37c-.21,0-.15.22-.15.35A4.83,4.83,0,0,0,27,21.44,1.31,1.31,0,0,1,26.3,23a.25.25,0,0,1-.33-.07.23.23,0,0,1,0-.31,2,2,0,0,0-.08-2,1,1,0,0,0-.71-.53.78.78,0,0,1-.63-.49c-.07-.21-.31-.2-.5-.19s-.2.18-.21.32q0,.5-.06,1A1.44,1.44,0,0,1,23,22c-.83.45-1.67.91-2.48,1.39a1,1,0,0,0-.35,1.06,8.78,8.78,0,0,0,.7,1.37,4.92,4.92,0,0,1,.55,1.07.31.31,0,0,0,.47.21A10.63,10.63,0,0,0,25.29,25c.17-.16.3-.12.34.1a.66.66,0,0,1-.29.64,8.88,8.88,0,0,1-3.05,1.83c-.38.14-.39.17-.17.51s.49.93.79,1.31c.58.73.88,1.6,1.4,2.35.27.39.56.76.8,1.18a.61.61,0,0,0,.41.27c.23.06.44.15.47.41s-.22.31-.38.42-.55.34-.82.51a.69.69,0,0,1-1.1-.33,6.35,6.35,0,0,1-.46-1.74A2.79,2.79,0,0,0,23,31.4a.77.77,0,0,0-.27-.29,1.15,1.15,0,0,1-.61-.8,4.77,4.77,0,0,0-.73-1.57c-.89-1.52-1.79-3-2.68-4.56a1.43,1.43,0,0,0-.65-.6c-.72-.34-1.44-.67-2.12-1.07A4,4,0,0,0,13.5,22c-.66.05-1.32,0-2,.06a2,2,0,0,0-1.27.3,1,1,0,0,1-1.13-.15.43.43,0,0,0-.6,0,1.56,1.56,0,0,1-1.23.18.56.56,0,0,1-.23-.74c.08-.12.09-.2,0-.27a.38.38,0,0,1-.18-.31,6.58,6.58,0,0,1,.1-2.86L7,18.12a.27.27,0,0,1,.31-.21c.17,0,.21.15.21.29,0,.36,0,.71,0,1.07a6.49,6.49,0,0,0,.27,1.51c.06.21.15.33.38.19a1,1,0,0,1,.39-.08c.36,0,.5-.23.36-.55a4.5,4.5,0,0,1-.16-1.88.11.11,0,0,1,0-.07c.35-.42.09-.79-.05-1.2a9.11,9.11,0,0,1-.37-2.34c0-.21.07-.31.29-.3h1.78a.6.6,0,0,1,.32.08,2,2,0,0,0,1.23.24h5.6c.54,0,.56,0,.57.57s0,.8,0,1.21-.13.45-.44.43h-.4c-.31,0-.5.11-.48.44s-.07.31-.33.3c-1,0-2,0-3,0Z"/><path id="_Path_15" data-name="&lt;Path&gt;" d="M11.84,11.34h6.29a10.91,10.91,0,0,0,1.64,0,.63.63,0,0,1,.54.22.47.47,0,0,0,.52.11,5.09,5.09,0,0,1,1.59-.14c.21,0,.3.12.31.32q.05,1,.11,1.94a.27.27,0,0,1-.29.32,6.63,6.63,0,0,1-.8,0,5,5,0,0,0-1.17,0c-.52.07-.65-.05-.65-.57s0-1,0-1.51c0-.31-.11-.46-.43-.45s-.67,0-1,0-.39.11-.38.38c0,.51,0,1,0,1.54,0,.26-.08.35-.35.35-1.73,0-3.46,0-5.19,0a4.39,4.39,0,0,0-1.61.27,3.65,3.65,0,0,1-1.48.21c-.25,0-.49,0-.74,0-.44,0-.55-.12-.53-.56a17.89,17.89,0,0,1,.27-2.09c0-.28.23-.35.48-.35h2.88Z"/><path id="_Path_16" data-name="&lt;Path&gt;" d="M23.57,16.57a4.41,4.41,0,0,1,.91-2.74c.08-.1.16-.22.24-.32a1.55,1.55,0,0,0,.33-1.41.58.58,0,0,1,.18-.61c.1-.09.2-.11.27,0a2.88,2.88,0,0,0,1.55,1.1,12.16,12.16,0,0,0,3.17.92,3,3,0,0,0,1.23,0,.33.33,0,0,1,.4.22,3.25,3.25,0,0,0,.58.77c.15.16.25.15.35-.05a3.79,3.79,0,0,0,.34-.94c0-.08,0-.21.11-.22s.14.1.18.18a4.6,4.6,0,0,1,.48,1.17,2.49,2.49,0,0,0,.28.67.85.85,0,0,1-.07,1.2.53.53,0,0,0-.13.19c-.12.57-.56.73-1,.89-.74.24-.73.26-.8-.5a2.44,2.44,0,0,0-1.33-1.9A6.89,6.89,0,0,0,28,14.29,2.23,2.23,0,0,0,25.54,17a3.19,3.19,0,0,0,1.05,1.44c.11.1.32.18.26.35s-.29.13-.45.13a4.5,4.5,0,0,1-1.92-.38c-.67-.29-.76-.91-.91-1.5A1.74,1.74,0,0,1,23.57,16.57Z"/><path id="_Path_17" data-name="&lt;Path&gt;" d="M27.81,14.54A6.45,6.45,0,0,1,31,15.68a2.28,2.28,0,0,1,0,3.56,1.56,1.56,0,0,1-1.06.22c-.3,0-.6,0-.9,0a1.29,1.29,0,0,1-.49-.09,6.41,6.41,0,0,1-2.43-1.72,1.72,1.72,0,0,1-.23-2,1.77,1.77,0,0,1,1.65-1.11Z"/><path id="_Compound_Path_2" data-name="&lt;Compound Path&gt;" d="M13.32,18c.89,0,1.79,0,2.68,0a.77.77,0,0,1,.84.52.64.64,0,0,0,.75.44c.63,0,1.27,0,1.91,0a.5.5,0,0,0,.51-.23.36.36,0,0,1,.34-.17h.9c.23,0,.39.1.39.36s-.18.31-.38.31H20.06c-.28,0-.41.13-.4.41,0,.09,0,.18,0,.27,0,.39.08.46.48.47h1.21c.13,0,.32,0,.32.15s-.19.15-.32.16h-4a.89.89,0,0,0-.7.24,1.33,1.33,0,0,1-1,.37c-1.6,0-3.19,0-4.79,0h-.3c-.16,0-.34,0-.4-.18s.12-.22.22-.3a.59.59,0,0,0,.23-.53c0-.45,0-.89-.08-1.34a.79.79,0,0,0-.26-.53c-.08-.07-.2-.14-.13-.28s.19-.1.3-.1h2.88Zm3,2.35h2.78c.22,0,.35-.08.34-.34s-.12-.31-.34-.28a.76.76,0,0,1-.77-.3.5.5,0,0,0-.43-.16H13.71c-.34,0-.43.15-.42.61s.08.47.43.47Z"/><path id="_Path_18" data-name="&lt;Path&gt;" d="M24.85,31.73a.38.38,0,0,1-.4-.2l-.89-1.72c0-.06,0-.14-.09-.18-.51-.38-.62-1-1-1.48-.2-.23-.11-.37.15-.47a8.25,8.25,0,0,0,2.14-1.16,8.15,8.15,0,0,0,.74-.62c.19-.18.31-.19.45.07.58,1.06,1.17,2.1,1.76,3.15l0,.09c.34.64.32.64-.24,1.14a6.35,6.35,0,0,1-2.36,1.29Z"/><path id="_Path_19" data-name="&lt;Path&gt;" d="M23.55,22.09a.43.43,0,0,1,.36.25l1.22,2.15a.33.33,0,0,1-.09.45,10.37,10.37,0,0,1-3.08,1.91.21.21,0,0,1-.3-.11c-.35-.78-.88-1.47-1.19-2.28a.55.55,0,0,1,.2-.73,21.54,21.54,0,0,1,2.72-1.57Z"/><path id="_Path_20" data-name="&lt;Path&gt;" d="M19.65,15.32c0,1,0,1.94,0,2.92,0,.46-.05.51-.49.51H17.68a.56.56,0,0,1-.63-.62c0-.08,0-.16,0-.23,0-.47.08-.53.55-.54.71,0,.71,0,.71-.71q0-2.13,0-4.26c0-.49,0-.53.54-.53.79,0,.79,0,.79.79S19.65,14.43,19.65,15.32Z"/><path id="_Path_21" data-name="&lt;Path&gt;" d="M6.57,18.29a4.86,4.86,0,0,0-.21-.54c-.12-.23-.3-.31-.5-.09s-.42.22-.58-.06a.35.35,0,0,0-.3-.17c-.27,0-.4-.23-.23-.42a.9.9,0,0,0,.07-.95,9.27,9.27,0,0,1-.1-4.47,2.84,2.84,0,0,1,.37-.74,1.59,1.59,0,0,1,1-.08c.08.06.06.13,0,.21s-.09.37-.17.54a7.34,7.34,0,0,0-.2,3.7,1.45,1.45,0,0,0,.33.85c.43.37.37.89.59,1.31S6.77,17.9,6.57,18.29Z"/><path id="_Path_22" data-name="&lt;Path&gt;" d="M6.3,13.46a2.72,2.72,0,0,1,.13-2.33,1.13,1.13,0,0,0,.09-.78.4.4,0,0,1,.4-.53c.64,0,1.27,0,1.91,0a.46.46,0,0,1,.3.14,2.39,2.39,0,0,0,1.68.51h2.58a.81.81,0,0,1,.72.27c.12.16.14.29-.12.3H7.39c-.57,0-.61,0-.75.59A15.89,15.89,0,0,0,6.3,13.46Z"/><path id="_Path_23" data-name="&lt;Path&gt;" d="M25.19,10.76c0,.22-.05.34-.26.39a3.37,3.37,0,0,0-.5.17.77.77,0,0,1-.71,0,1.59,1.59,0,0,0-1,0c-.61.07-1.23,0-1.84.08a1.06,1.06,0,0,1-.81-.41c-.17-.18,0-.46.28-.54a17.6,17.6,0,0,1,2-.46c.52-.08,1-.14,1.55-.24C24.89,9.51,25.08,10.06,25.19,10.76Z"/><path id="_Path_24" data-name="&lt;Path&gt;" d="M7.18,14.49c.86,0,.85,0,.95.86a9.79,9.79,0,0,0,.34,1.94c.07.22,0,.34-.23.37l-.37,0c-.78,0-.81,0-1-.75a8.25,8.25,0,0,1-.4-1.65C6.39,14.52,6.41,14.49,7.18,14.49Z"/><path id="_Path_25" data-name="&lt;Path&gt;" d="M28.49,12c0,.07,0,.08,0,.09,0,.64-.12.72-.7.46-.43-.19-.87-.35-1.3-.52l-.21-.09c-.5-.29-.52-.55-.06-.89a5.29,5.29,0,0,1,1.52-.75.33.33,0,0,1,.49.25A6.09,6.09,0,0,1,28.49,12Z"/><path id="_Path_26" data-name="&lt;Path&gt;" d="M7.53,11.32h.36c.28,0,.39.14.35.4A11.12,11.12,0,0,0,8,14c0,.15-.09.19-.22.2h-1c-.2,0-.28-.11-.28-.3a8.72,8.72,0,0,1,.38-2.37C7,11.22,7.34,11.35,7.53,11.32Z"/><path id="_Path_27" data-name="&lt;Path&gt;" d="M28.12,9.76c.68-.27,1-.07,1.11.58,0,.21.06.42.07.63a1.34,1.34,0,0,0,.61,1.25.48.48,0,0,1,.14.15.62.62,0,0,1,.13.62c-.1.21-.32.06-.49.05a1.08,1.08,0,0,1-.29-.06c-.58-.18-.56-.18-.62-.79s-.11-1.07-.19-1.59C28.53,10.29,28.49,9.94,28.12,9.76Z"/><path id="_Path_28" data-name="&lt;Path&gt;" d="M31.08,13.15c-.43,0-.51,0-.62-.46a1.4,1.4,0,0,0-.49-.81c-.42-.33-.37-.81-.38-1.26,0-.2.19-.09.28,0A3.29,3.29,0,0,1,31.36,12a1.41,1.41,0,0,1,.22.59C31.61,13.08,31.59,13.12,31.08,13.15Z"/><path id="_Path_29" data-name="&lt;Path&gt;" d="M5.91,19.43c.52,0,.5,0,.53.5s.06.8.12,1.2-.07.44-.35.48l-.3.06a.38.38,0,0,1-.51-.34,7,7,0,0,1-.17-1.39c0-.44.05-.49.51-.5Z"/><path id="_Path_30" data-name="&lt;Path&gt;" d="M13.59,14.6h-2l-.3,0c-.08,0-.17,0-.18-.12s.08-.13.15-.15a4.34,4.34,0,0,1,.65-.16c1.31-.15,2.63-.06,3.94-.08.2,0,.28.1.29.29s-.14.23-.3.23H13.59Z"/><path id="_Path_31" data-name="&lt;Path&gt;" d="M5.51,21.91c-.31,0-.42-.24-.47-.55a20.48,20.48,0,0,1-.13-3,3.77,3.77,0,0,0,0-.43c0-.07-.09-.15,0-.19s.14,0,.2.09c.31.35.49.37.87.11.13-.09.21,0,.26.08a4.63,4.63,0,0,1,.22.94c0,.18-.1.22-.25.23l-.83.06A.35.35,0,0,0,5,19.6a7.54,7.54,0,0,0,.26,2,.54.54,0,0,0,.27.32Z"/><path id="_Path_32" data-name="&lt;Path&gt;" d="M21.36,20.16H20.29c-.22,0-.36-.08-.36-.33s.15-.33.37-.33h2.2c.22,0,.36.08.36.33s-.15.33-.37.32Z"/><path id="_Path_33" data-name="&lt;Path&gt;" d="M23.35,15.28a1.17,1.17,0,0,1-.24-.63c0-.08,0-.17-.08-.21s-.11-.1,0-.16.08-.15.08-.24q0-1.07,0-2.14a1.33,1.33,0,0,1,0-.26.17.17,0,0,1,.19-.15.17.17,0,0,1,.15.16c0,.25.07.51.08.76,0,.62,0,1.25,0,1.87A2.56,2.56,0,0,1,23.35,15.28Z"/><path id="_Path_34" data-name="&lt;Path&gt;" d="M24,13.83a1.08,1.08,0,0,1-.11-.56A9.42,9.42,0,0,0,23.84,12c0-.16,0-.23.2-.26.68-.11.65-.11.7.59S24.38,13.36,24,13.83Z"/><path id="_Path_35" data-name="&lt;Path&gt;" d="M7.8,18.78c0-.15,0-.34.06-.53s.24-.36.48-.34.19.23.18.39a6,6,0,0,0,0,1.5c0,.15,0,.3-.19.32S8,20.09,8,19.9A5.62,5.62,0,0,1,7.8,18.78Z"/><path id="_Path_36" data-name="&lt;Path&gt;" d="M32.78,13.35c0,.25,0,.55-.21.63s-.25-.26-.38-.39A.78.78,0,0,1,32,12.8c.05-.2.2-.3.37-.18S32.86,13,32.78,13.35Z"/><path id="_Path_37" data-name="&lt;Path&gt;" d="M4.7,20.81a1.13,1.13,0,0,1-.16-1.74Z"/><path id="_Path_38" data-name="&lt;Path&gt;" d="M10.1,18.64a.5.5,0,0,1,.22.45c0,.4,0,.8.05,1.2a.35.35,0,0,1-.11.3c-.07.06-.17.09-.17,0A13.13,13.13,0,0,1,10.1,18.64Z"/><path id="_Path_39" data-name="&lt;Path&gt;" d="M17.52,14.6a1.11,1.11,0,0,1-.22,0,.24.24,0,0,1-.16-.26.21.21,0,0,1,.21-.21h.4c.15,0,.33,0,.34.2s-.12.32-.33.32Z"/><path id="_Path_40" data-name="&lt;Path&gt;" d="M16.42,14.33c0-.12,0-.23.17-.24s.22.09.23.23-.05.24-.2.25S16.42,14.47,16.42,14.33Z"/><path id="_Path_41" data-name="&lt;Path&gt;" d="M5.51,21.91a2.75,2.75,0,0,0,.89-.09c.11,0,.26,0,.26.11s-.15.1-.24.1a1.77,1.77,0,0,1-.91-.11Z"/><path id="_Path_42" data-name="&lt;Path&gt;" d="M19.17,20.06c-.09.12-.2.1-.29.1H14c-.17,0-.34,0-.37-.23s0-.42.32-.42h3.68a.88.88,0,0,1,.7.27c.19.2.37.35.66.22A.19.19,0,0,1,19.17,20.06Z"/></g></svg>