<svg xmlns="http://www.w3.org/2000/svg" class="HeroAbility-icon HeroAbility-icon--hoverState" viewBox="0 0 40 40" preserveAspectRatio="xMidYMid meet"><path id="exoboots-2" d="M29.78,13l-7-7.16a.79.79,0,0,0-.68-.25,1.08,1.08,0,0,0-.6.23L17.3,8.56,10.59,13a1.11,1.11,0,0,0-.51.54.61.61,0,0,0,.26.83.52.52,0,0,0,.25.07h3.1c.29,0,.3,0,.22.3-.2.75-.75,2.24-.94,3V18a1,1,0,0,0,.83,1.09,21.9,21.9,0,0,1,6.5,1.8c-8.2,1.4-8.52,2.18-8.73,2.7a1.14,1.14,0,0,0,.14,1.1c.3.41.66.5,2.71,1a44.66,44.66,0,0,1,5.32,1.49c-1,.18-2.34.36-3.38.49-4.34.55-5.73.79-6,1.87a1.22,1.22,0,0,0,.14,1c.47.83,1.73,1.15,4.93,1.92a29.79,29.79,0,0,1,3.69,1,1,1,0,0,0,1,1,1,1,0,0,0,.65-.26,1.26,1.26,0,0,0,.45-1.32c-.27-1.13-1.8-1.55-5.3-2.38l-1.8-.45,2.53-.34c4.42-.57,5.49-.8,5.81-1.71a1.42,1.42,0,0,0-.06-1.21c-.58-1.13-2.71-1.88-6.83-3,1.93-.46,4.73-1,7.2-1.37a1,1,0,0,0,.77-.6V21.8a.36.36,0,0,0,.15-.23c.2-.78,1.6-6,1.8-6.79a.32.32,0,0,1,.34-.3h3a1.17,1.17,0,0,0,.83-.32A.83.83,0,0,0,29.82,13v0Z"/></svg>