<svg xmlns="http://www.w3.org/2000/svg" class="HeroAbility-icon HeroAbility-icon--hoverState" viewBox="0 0 40 40" preserveAspectRatio="xMidYMid meet"><path d="M13,34A17.78,17.78,0,0,1,10,27l2-3.22-.7-1.23s-1.93,1.72-2,1.47a3.24,3.24,0,0,0-1.42-2.15L8,21c-.4.15-1,.55-1.47.1-.14-.15.75-1.47.62-3.08,0,0,0-.05,0-.08A11.27,11.27,0,0,0,9.36,20l.91-2.88a4.39,4.39,0,0,1-1.82-1.6,2.56,2.56,0,0,0-1.32,1.78.76.76,0,0,0,0,.16,2.35,2.35,0,0,0,.06.43l-.35-.34a11.08,11.08,0,0,1-.22-2c-.69-.72-1.17-1.27-1.57-1.78a4.4,4.4,0,0,1-.1-.83,2.31,2.31,0,0,1,.71-1.59v0h0c0,.14,0,.27,0,.38,0,.67.11,1,.35,1.15A6.55,6.55,0,0,1,7.76,10.1c4.5.2,9.28-1.52,11.08-3.43v0h0a7,7,0,0,1-1.61,3.18,5.19,5.19,0,0,0,1.62-.56v0h0a.34.34,0,0,1,0,.11,15.43,15.43,0,0,1-.43,1.87,20.73,20.73,0,0,0,2.89-.74l1,.76a22.11,22.11,0,0,0-8.1,6.12,2.73,2.73,0,0,1-1.36-.94,2.5,2.5,0,0,1-.41-.74s1.12-1.25,1.12-1.25c-.08-.22-1.85,1-1.79,1.24,0,0,0,.07,0,.1v0a2.6,2.6,0,0,0,.24.52,4,4,0,0,0,2.59,1.73A12.33,12.33,0,0,1,17.78,15c-.28,2-.81,1.67-.81,2.69a1,1,0,0,0,0,.18,1.75,1.75,0,0,1,.6,0l.1-.07a2,2,0,0,1,2.58-1.6c.27.22.3-1.59.12-2.18.56-.52,3.87-.66,7.07,3.38-2.07,0-4.59.17-6.58,1.93,2.59-.82,3.69-1.12,8.23-.91,4.31.21,4.19-2.71,1.78-2.65a2.08,2.08,0,0,1,3,2.32c-1.21,4.5-13.48.55-17.86,6.31,4.93-3.61,16.29-.33,18.34-4.68-.7,7.87-16.19,2.85-21.27,10.37,4.14-4.6,16.3-1.8,19.76-5.6-3.44,4.19-7,4.14-11.87,5.36A25.25,25.25,0,0,0,13,34ZM8.17,18v0a2.05,2.05,0,0,0,1-.52v0h0s-.09.73-.21.82a1,1,0,0,1-.63.09c-.12,0-.19-.39-.19-.39Z" fill-rule="evenodd"/></svg>