<svg xmlns="http://www.w3.org/2000/svg" class="HeroAbility-icon HeroAbility-icon--hoverState" viewBox="0 0 40 40" preserveAspectRatio="xMidYMid meet"><path id="_Path_" d="M14.8,16.4l-0.2-0.2c1.1-0.4,2.3-0.7,3.5-0.9c0.5-0.1,1.1-0.1,1.6,0c1,0.1,2,0.6,2.6,1.4&#10;&#9;&#9;c0.2,0.2,0.4,0.5,0.6,0.8c0-0.5,0-1-0.1-1.5c0-0.1,0-0.1,0-0.1c0.1-0.1,0.1-0.1,0.2,0c0.3,0.2,0.5,0.5,0.7,0.8&#10;&#9;&#9;c1,1.1,1.5,2.7,1.3,4.2c0,0.1-0.1,0.4-0.1,0.7c0,5-6.6,7-7.5,7.4c-0.1,0-0.1,0-0.2,0.1c-0.1,0-0.1,0.2,0.1,0.3&#10;&#9;&#9;c0.5,0.1,1,0.2,1.5,0.2l-0.5,0.2c-0.9,0.4-1.9,0.6-2.9,0.7c-0.2,0-0.4,0-0.5,0s-0.2,0-0.2,0.1s2,0.8,4.9,0.2&#10;&#9;&#9;c0.6-0.2,1.2-0.4,1.8-0.6l0.9-0.3c0.1,0,0.3,0.3-1.1,1.2c-0.1,0-1,0.5,0.3,0.4c2.1-0.3,12.6-4.5,8.1-15.5c0.9,0.6,1.7,1.4,2.3,2.3&#10;&#9;&#9;c0.1,0.1,0.2,0.3,0.3,0.4c0.3,0.4,0.5,0.7,0.6,1.1l0,0c0-0.3-0.1-0.6-0.2-0.9c-0.7-2.4-1.6-4.8-3.5-6.4c-1.4-1.1-3-2-4.7-2.5&#10;&#9;&#9;c-0.5-0.2-1.1-0.4-1.7-0.6l-0.6-0.2c0,0-0.1,0-0.1,0L22,9.3c0.9-0.1,1.7-0.1,2.6,0l0.5,0.1c0,0,0.1,0,0.1,0&#10;&#9;&#9;c0.4,0.1,0.8,0.1,1.2,0.2c0.1,0,0.1,0,0.2-0.1h-0.1C26,9.3,25.4,9,24.8,8.9c-0.9-0.3-1.7-0.4-2.6-0.5c-0.3,0-0.6,0-0.9,0h-0.5&#10;&#9;&#9;c-1.2,0.1-2.4,0.3-3.5,0.7c-1.8,0.5-3.4,1.4-4.8,2.6l0,0c-0.4-1-1-2-1.6-2.9c-0.9,1.4-1.6,5.8-2.4,9.9c1,0.2,2.1,0.3,3.1,0.4&#10;&#9;&#9;c1.9,0.2,3.7,0.6,5.6,0.6C16.3,18.6,15.5,17.5,14.8,16.4z"/></svg>