<svg xmlns="http://www.w3.org/2000/svg" class="HeroAbility-icon HeroAbility-icon--hoverState" viewBox="0 0 40 40" preserveAspectRatio="xMidYMid meet"><g id="_Group_2" data-name="&lt;Group&gt;"><path id="_Path_" data-name="&lt;Path&gt;" d="M33.63,15.09q-4.57.15-9.15-.07a7.57,7.57,0,0,0-.78-.64,1.91,1.91,0,0,1,0-.27c0-.26-.05-.91-.08-1.7A6.34,6.34,0,0,1,25.41,14l0,0c.09.15.33,0,.24-.16a8.61,8.61,0,0,0-2.15-2.63c0-.75-.06-1.51-.08-2.09a.29.29,0,0,0-.5-.2c-1.09,1.09-2.94,3-3.24,3.33a.58.58,0,0,1-1-.07l-.59-.73a2.56,2.56,0,0,1,1.15-.55.12.12,0,0,0,.09-.07l.29-.06.06,0c.14,0,.18-.25,0-.28l-.35,0h0a4.55,4.55,0,0,0-1.84.27c-.78-1-1.77-2.16-2.49-3.05a.18.18,0,0,0-.31.16c.19.65.42,1.49.64,2.28a3.58,3.58,0,0,0-.89.56,2.15,2.15,0,0,0-.85,1.2.16.16,0,0,0,.26.13,2.53,2.53,0,0,1,1.72-1c.2.74.36,1.36.41,1.63.08.42.07.8-.41,1a1.32,1.32,0,0,0-.34.26.29.29,0,0,1-.43,0c-.3-.24-.9-.86-1.35-1.34a.25.25,0,0,0-.43.22,15.61,15.61,0,0,1,.37,3.05,7.47,7.47,0,0,0-1.55,4l-.25.27a5.29,5.29,0,0,0-.63.57l-.5.42a8.61,8.61,0,0,1,.08-1.44,2.85,2.85,0,0,1,.19-1.45l0,0a2.94,2.94,0,0,1,.16-.49.12.12,0,0,0-.15,0,6,6,0,0,0-1.37,4.18l-.86.54C8,22.76,6,23.84,5.74,24c.51-.07,1-.15,1.49-.23h0l2.43-.47c.3,1.41,1.75,2.62,2.85,3.39.1.07.2,0,.21-.12a1,1,0,0,1-.14-.19l-.14-.1a8.43,8.43,0,0,1-1.7-3.19l1.43-.27a7.51,7.51,0,0,0,1.89,3,1.55,1.55,0,0,1,.06.4,18.05,18.05,0,0,1-.48,3.28.31.31,0,0,0,.48.33c1.07-.69,3.12-2,3.54-1.8a1.26,1.26,0,0,0,.34.14,5.93,5.93,0,0,0,3.47-.35.51.51,0,0,1,.52,0l.83.53a7.86,7.86,0,0,1-2,.85.09.09,0,0,0-.07.09c-.13,0-.17.25,0,.27A4.79,4.79,0,0,0,23.82,29l2.43,1.56a.25.25,0,0,0,.35-.32c-.68-1.27-1.3-2.58-1.88-3.9a2.56,2.56,0,0,1-.17-.49,7.54,7.54,0,0,0,1-1.19c.78.22,1.9.62,3,1l-.19.24h.06a4.83,4.83,0,0,1-.9.89.15.15,0,0,0,.11.27l.43-.12a1.87,1.87,0,0,0,1.34-1l1.6.59a.18.18,0,0,0,.17-.3L29.8,25.18a3.51,3.51,0,0,0,.06-2.3.15.15,0,0,0-.29,0,3.4,3.4,0,0,1-.38,1.6h0l0,.11c-1-.79-1.94-1.62-2.57-2.19a7.25,7.25,0,0,0,.2-2.91l.25-.11.06.08,0,.06h0a3.92,3.92,0,0,1,.62,2.5.12.12,0,0,0,.05.11.15.15,0,0,0,.28,0,6.09,6.09,0,0,0,0-3.33,63.52,63.52,0,0,1,5.66-3.35A.22.22,0,0,0,33.63,15.09Z"/></g></svg>