<svg xmlns="http://www.w3.org/2000/svg" class="HeroAbility-icon HeroAbility-icon--hoverState" viewBox="0 0 40 40" preserveAspectRatio="xMidYMid meet"><g id="_Group_3" data-name=" Group 3"><path id="_Compound_Path_4" data-name=" Compound Path 4" d="M22.78,17.39v-2c0-.2.06-.27.27-.26,1.81,0,3.62-.08,5.43-.06H35c.8,0,1.59-.05,2.39-.06a.61.61,0,0,1,.61.34,3.65,3.65,0,0,1,.5,2.16,7.22,7.22,0,0,1-.38,1.77.65.65,0,0,1-.73.52H23.15c-.3,0-.38-.07-.37-.37C22.8,18.72,22.78,18.06,22.78,17.39Zm6.93,1.13a.57.57,0,0,0,.54-.37.44.44,0,0,0-.07-.54c-.46-.45-.91-.91-1.38-1.35a.72.72,0,0,0-.81-.15.49.49,0,0,0-.18.8,18.25,18.25,0,0,0,1.36,1.4A.81.81,0,0,0,29.71,18.52Zm-4.79-2.45a.66.66,0,0,0-.61.38.47.47,0,0,0,.18.6,16.05,16.05,0,0,0,1.41,1.27.61.61,0,0,0,.86,0,.71.71,0,0,0-.1-.93,13.78,13.78,0,0,1-1.42-1.17A.46.46,0,0,0,24.92,16.07Zm8.22,2.37a.48.48,0,0,0,.51-.35.44.44,0,0,0-.08-.52c-.38-.38-.77-.74-1.14-1.13a1.26,1.26,0,0,0-.71-.37.44.44,0,0,0-.54.22.51.51,0,0,0,.07.65l1.34,1.3A.75.75,0,0,0,33.14,18.44Zm3.62-.07a.81.81,0,0,0,.39-.1.39.39,0,0,0,.08-.67,8.17,8.17,0,0,0-.7-.62c-.25-.18-.65-.71-1.15-.81-.22,0-.41,0-.54.17a.43.43,0,0,0,.08.55,14,14,0,0,0,1.52,1.39A.41.41,0,0,0,36.76,18.37Z"/><path id="_Path_2" data-name=" Path 2" d="M12.62,25v1.23a.33.33,0,0,1-.22.35,11.84,11.84,0,0,1-3.26.77,27,27,0,0,1-6,0c-.18,0-.36-.08-.55-.1a.56.56,0,0,1-.44-.52c0-.83,0-1.65.07-2.47,0-.54,0-.53.58-.44A10.88,10.88,0,0,0,4.55,24c.17,0,.23,0,.23.23a1.21,1.21,0,0,0,.64,1.14.55.55,0,0,0,.82-.3,2.63,2.63,0,0,0,.24-.81c0-.2.1-.3.32-.28a13.19,13.19,0,0,0,3.43-.23c.15,0,.19,0,.2.17a2.17,2.17,0,0,0,.29.88.62.62,0,0,0,.58.32c.25,0,.34-.19.42-.38a1.36,1.36,0,0,0,.11-.69c0-.31.07-.46.4-.5s.4-.07.4.33V25Z"/><path id="_Path_3" data-name=" Path 3" d="M4.93,14.35H7a37,37,0,0,1,3.82.28c.41.05.47.17.22.52a4.48,4.48,0,0,0-.82,1.54A3,3,0,0,0,11,19.36a1.21,1.21,0,0,1,.23.84c0,.15-.07.2-.21.21a62.57,62.57,0,0,1-6.9,0c-.37,0-.28-.27-.29-.48s-.06-.24,0-.29.16.08.24.13a1.9,1.9,0,0,0,1,.37H6.62c.33,0,.46-.18.55-.45.37-1.08.7-2.17,1-3.26.06-.2.13-.39.2-.58a.3.3,0,0,0-.11-.39l-1.17-.88a.45.45,0,0,0-.49-.08l-.45.14c-.5.29-.88,0-1.29-.21Z"/><path id="_Path_4" data-name=" Path 4" d="M7.79,23.73h-1c-.1,0-.21,0-.21-.14A.54.54,0,0,0,6.16,23a.89.89,0,0,0-.82.29h0a.88.88,0,0,1-1,.44,12.22,12.22,0,0,1-1.76-.24c-.06,0-.15,0-.17-.1s0-.13.1-.16C3,23,3.29,22.42,3.73,22a.42.42,0,0,1,.38-.14A33.78,33.78,0,0,0,11,22a.51.51,0,0,1,.42.14c.3.28.61.54.91.81s.14.27-.08.32a.77.77,0,0,1-.85-.15,1.83,1.83,0,0,0-.61-.4c-.33-.16-.5,0-.52.31s0,.44-.46.51A10.7,10.7,0,0,1,7.79,23.73Z"/><path id="_Path_5" data-name=" Path 5" d="M1.32,28.17A.15.15,0,0,1,1.4,28l.43-.54c.06-.07.12-.17.24-.09a2.92,2.92,0,0,0,1.32.29,24.91,24.91,0,0,0,7.73-.39,6.11,6.11,0,0,0,1.39-.45.32.32,0,0,1,.45.07h0c.49.5.49.51-.16.75a19.55,19.55,0,0,1-9.53,1c-.57-.07-1.14-.15-1.7-.27C1.45,28.37,1.36,28.33,1.32,28.17Z"/><path id="_Path_6" data-name=" Path 6" d="M15.15,16h1.64c.2,0,.26.06.23.26a7.48,7.48,0,0,0,0,2.44c0,.15,0,.2-.17.22-1,.11-2,0-3,0-.42,0-.56-.1-.61-.51a6.32,6.32,0,0,1,0-2.15.33.33,0,0,1,.35-.31h1.56Z"/><path id="_Compound_Path_5" data-name=" Compound Path 5" d="M5.8,19.87a2.47,2.47,0,0,1-1.93-.65.28.28,0,0,1-.09-.35,38.45,38.45,0,0,1,1.68-3.54.44.44,0,0,1,.26-.22l.8-.28a.63.63,0,0,1,.65.11c.25.2.5.4.76.59s.1.28.07.42a15,15,0,0,1-.67,1.9q-.32.83-.66,1.65c-.1.24-.25.42-.55.35A1.59,1.59,0,0,0,5.8,19.87Zm.61-4.76c-.33-.16-.48.16-.69.36s-.16.59-.17.88.62.71,1.2.67a1,1,0,0,0-.34-1.91Z"/><path id="_Path_7" data-name=" Path 7" d="M13.06,27.91a3.33,3.33,0,0,1-1.64,1.46,14.87,14.87,0,0,1-1.88.45c-.76.12-1.53.21-2.3.26H5.52a9.37,9.37,0,0,1-2.24-.26,1.6,1.6,0,0,1-.87-.49c-.19-.22-.46-.34-.66-.64A20.93,20.93,0,0,0,13.06,27.91Z"/><path id="_Path_8" data-name=" Path 8" d="M1.37,14.84a8.88,8.88,0,0,1,1-4.09.25.25,0,0,1,.29-.14c.16,0,.09.15.08.23a40.05,40.05,0,0,0,0,5.37c0,.83.21,1.66.31,2.49,0,.16.11.41,0,.47a.75.75,0,0,1-.54-.09,1,1,0,0,1-.69-.91c-.09-.77-.17-1.55-.27-2.32A4.84,4.84,0,0,1,1.37,14.84Z"/><path id="_Path_9" data-name=" Path 9" d="M20.06,17.08a17.63,17.63,0,0,0,0,2,.5.5,0,0,1-.41.57H18.61a.67.67,0,0,1-.51-.52A7.06,7.06,0,0,1,18,18a12.49,12.49,0,0,1,.15-2.33.49.49,0,0,1,.51-.47h.8c.44,0,.66.22.63.66S20,16.71,20.06,17.08Z"/><path id="_Path_10" data-name=" Path 10" d="M11.36,17.69a7.18,7.18,0,0,1,.16-1.88c.1-.42.24-.53.67-.58a1,1,0,0,1,1,.3c0,.06.1.11,0,.16-.35.24-.34.62-.38,1a6.46,6.46,0,0,0,0,1.83.64.64,0,0,0,.37.62c.27.12,0,.16,0,.21a1,1,0,0,1-1,.34.75.75,0,0,1-.65-.65A5.6,5.6,0,0,1,11.36,17.69Z"/><path id="_Path_11" data-name=" Path 11" d="M6.13,13.15a23.51,23.51,0,0,1,3.23.18,9.83,9.83,0,0,1,1.57.44c.29.09.32.32.33.55s-.12.08-.19.07c-.78-.11-1.57-.18-2.35-.23-1.27-.09-2.55-.09-3.82-.07a2.17,2.17,0,0,1-1.08-.16c-.15-.08-.18-.15-.08-.28a1.08,1.08,0,0,1,.72-.45A15.45,15.45,0,0,1,6.13,13.15Z"/><path id="_Path_12" data-name=" Path 12" d="M3,10.64a2.51,2.51,0,0,1,.81.33,3.17,3.17,0,0,1,1,.88c.11.16.15.3,0,.46a2.36,2.36,0,0,0-.28.37c-.06.08-.11.18-.21.19-.42,0-.63.39-.9.64-.07.06-.1.22-.24.12s-.33-.09-.34-.31A24,24,0,0,1,3,10.78.53.53,0,0,0,3,10.64Z"/><path id="_Path_13" data-name=" Path 13" d="M21.49,17.39v1.23c0,.21-.06.31-.28.3s-.41,0-.61,0-.24-.08-.25-.24V16.11c0-.19.1-.24.28-.25.84,0,.84-.05.84.78Q21.49,17,21.49,17.39Z"/><path id="_Path_14" data-name=" Path 14" d="M22.51,17.42v2.15s-.14-.07-.21-.12a2.73,2.73,0,0,0-.39-.35c-.1,0-.1-.16-.1-.26V16c0-.27.19-.39.37-.52s.2-.28.31-.22.06.28.06.43C22.51,16.27,22.51,16.85,22.51,17.42Z"/><path id="_Path_15" data-name=" Path 15" d="M38.31,15.29a2.21,2.21,0,0,1,1.19,1.92,2.54,2.54,0,0,1-1,2.07A5.12,5.12,0,0,0,38.31,15.29Z"/><path id="_Path_16" data-name=" Path 16" d="M17.79,17.69v1.16c0,.13,0,.23-.17.24s-.26,0-.31-.17a6,6,0,0,1-.1-2.2,7,7,0,0,1,.11-.78c0-.26.2-.21.36-.2s.18.15.17.29c0,.55-.08,1.1-.11,1.66Z"/><path id="_Path_17" data-name=" Path 17" d="M11.31,15.46a7.21,7.21,0,0,0,.1,3.94,2.63,2.63,0,0,1-.32-3.71Z"/><path id="_Path_18" data-name=" Path 18" d="M10.81,20.68c-.09.21-.23.19-.35.21a25,25,0,0,1-5.51,0H4.4c-.1,0-.22,0-.27-.18A56.76,56.76,0,0,0,10.81,20.68Z"/><path id="_Path_19" data-name=" Path 19" d="M2,19.19c-.58.1-.77,0-.94-.5A4.11,4.11,0,0,1,1,16.1c0-.08,0-.2.14-.19s.08.12.08.19c.07.61.12,1.22.2,1.83S1.55,18.9,2,19.19Z"/><path id="_Path_20" data-name=" Path 20" d="M10.81,21.36a.24.24,0,0,1-.19.06,36.4,36.4,0,0,1-6-.1c-.12,0-.33,0-.32-.11s.22-.1.34-.08a34.94,34.94,0,0,0,3.87.18c.66,0,1.32-.09,2-.14C10.66,21.15,10.77,21.18,10.81,21.36Z"/><path id="_Path_21" data-name=" Path 21" d="M7.25,11.52a4.62,4.62,0,0,1,1.23.11A1.07,1.07,0,0,1,9,12a.12.12,0,0,1,0,.16c0,.07-.1.06-.15,0A12.31,12.31,0,0,0,6.23,12c-.06,0-.15,0-.18-.06s0-.12.09-.17a.74.74,0,0,1,.59-.25Z"/><path id="_Path_22" data-name=" Path 22" d="M7,12.28c.4-.15.58.23.83.48,0,0,.08.08,0,.12a.2.2,0,0,1-.13,0H6.95a.71.71,0,0,1-.56-.5c0-.09,0-.1.1-.1Z"/><path id="_Path_23" data-name=" Path 23" d="M5.56,12.88H5.21c-.11,0-.27.09-.33-.08s.26-.35.38-.36l.46-.07a.5.5,0,0,1,.58.37c0,.13-.05.13-.13.13H5.56Z"/><path id="_Path_24" data-name=" Path 24" d="M9.2,13a1.15,1.15,0,0,1-1.32-.62A1.15,1.15,0,0,1,9.2,13Z"/><path id="_Path_25" data-name=" Path 25" d="M5.27,24.91a1,1,0,0,1,.67-1.59.28.28,0,0,1,.29.07.21.21,0,0,1,0,.25c-.07.11-.18,0-.27,0-.66,0-.87.22-.76.89A.67.67,0,0,1,5.27,24.91Z"/><path id="_Path_26" data-name=" Path 26" d="M.63,16.6a5.15,5.15,0,0,0,.09,1.8A1.73,1.73,0,0,1,.63,16.6Z"/><path id="_Path_27" data-name=" Path 27" d="M9.34,12.63c.47,0,.56.08.71.53C9.64,13.24,9.53,12.9,9.34,12.63Z"/><path id="_Path_28" data-name=" Path 28" d="M11.46,23.74a.73.73,0,0,0-.72-.36c-.14,0-.11-.13-.15-.21s0-.12,0-.16.15,0,.21.06l.5.35A.26.26,0,0,1,11.46,23.74Z"/><path id="_Compound_Path_6" data-name=" Compound Path 6" d="M3,13.87c-.18.12,0,.45,0,.68a24.16,24.16,0,0,0,.38,4.1c0,.08,0,.2.1.21s.13-.11.16-.19c.13-.3.25-.62.39-.91l.54-1.13c0-.06.11-.16,0-.21s-.11-.25-.25-.33h0a.46.46,0,0,0,0,.18h0v.13h0a.46.46,0,0,1-.32,0l-.15-.08.28-.58c0-.07.08-.13.17-.13s.11.07.13.14a1.27,1.27,0,0,0,.26.42c.18-.36.34-.68.51-1s0-.24-.12-.31c-.51-.24-1-.5-1.53-.73C3.38,14,3.12,13.77,3,13.87Zm1.2,2.69h.06c.05,0,.07,0,.12.07a6.65,6.65,0,0,1-.41.83l-.12-.06c-.15,0-.4-.16-.28-.39s.23-.44.33-.66a2.38,2.38,0,0,0,.26.21Z"/><path id="_Path_29" data-name=" Path 29" d="M3.79,17c.08-.09.07-.24.2-.3s.09,0,.07.09,0,.26-.18.31S3.79,17.11,3.79,17Z"/></g></svg>