<svg xmlns="http://www.w3.org/2000/svg" class="HeroAbility-icon HeroAbility-icon--hoverState" viewBox="0 0 40 40" preserveAspectRatio="xMidYMid meet"><polygon points="20 19.78 26.04 28.74 33.62 28.74 20 8.77 6.38 28.74 13.88 28.74 20 19.78"/><polygon points="20 31.69 16.02 28.66 20 22.82 23.98 28.66 20 31.69"/><polygon points="9.45 21.24 6.42 25.65 3.31 21.24 9.45 21.24"/><polygon points="13.5 15.35 10.48 19.75 7.37 15.35 13.5 15.35"/><polygon points="17.64 9.46 14.61 13.86 11.5 9.46 17.64 9.46"/><polygon points="30.55 21.24 33.58 25.65 36.69 21.24 30.55 21.24"/><polygon points="26.37 15.35 29.39 19.75 32.51 15.35 26.37 15.35"/><polygon points="22.32 9.46 25.34 13.86 28.46 9.46 22.32 9.46"/></svg>