<svg xmlns="http://www.w3.org/2000/svg" class="HeroAbility-icon HeroAbility-icon--hoverState" viewBox="0 0 40 40" preserveAspectRatio="xMidYMid meet"><g id="_Group_3" data-name="&lt;Group&gt;"><path id="_Compound_Path_5" data-name="&lt;Compound Path&gt;" d="M13.18,14.27c.35,0,.67.19,1,.27a1.38,1.38,0,0,0,.39.07c.13,0,.19-.06.15-.2s-.1-.23.06-.31a.48.48,0,0,1,.53.08.31.31,0,0,1,.06.35c-.13.35-.14.35.24.35h.57a2.53,2.53,0,0,1,1.23.45c.06,0,.07.1.07.16a1.49,1.49,0,0,1-.12.74,2.24,2.24,0,0,0-.27,1.23,5.31,5.31,0,0,1,0,.59.28.28,0,0,1-.24.3,1.45,1.45,0,0,0-.25.08c-.21.08-.3,0-.29-.21s0-.46,0-.69a1,1,0,0,0-.36-.79.59.59,0,0,0-.43-.16h-2a.63.63,0,0,1-.34-.08.81.81,0,0,0-.49,0c-.08,0-.07.08,0,.13s0,.23,0,.35a1.36,1.36,0,0,0-.18.53c0,.26-.09.51-.13.77s-.08.21-.24.18a.64.64,0,0,0-.73.31c-.14.23-.31.46-.47.68a.56.56,0,0,0-.08.32c0,.15,0,.3,0,.45s0,.22-.23.22h-1c-.23,0-.27,0-.31.23s-.09.18-.23.18H5.34c-.29,0-.4-.23-.47-.44a2.39,2.39,0,0,1-.1-1.22,5.69,5.69,0,0,1,.76-2,5.21,5.21,0,0,1,.53-.67.55.55,0,0,1,.44-.18h3c.27,0,.29,0,.27.28a2.4,2.4,0,0,0,.11.65.17.17,0,0,0,.19.14H11.3c.1,0,.15-.05.17-.15a4.25,4.25,0,0,0,.11-1.53c0-.24-.17-.34-.42-.25a1.1,1.1,0,0,1-.37.07.41.41,0,0,1-.26-.08.44.44,0,0,0-.63.13.87.87,0,0,0-.15.42c0,.12-.07.17-.18.17H6.67A.43.43,0,0,1,6.26,16a.33.33,0,0,0-.31-.13H4.1a.53.53,0,0,1-.55-.5c0-.21.09-.33.3-.3a2.31,2.31,0,0,1,.62.22.61.61,0,0,0,.26.07c.63,0,1.27,0,1.9,0s1.45,0,2.18,0a.35.35,0,0,0,.26-.08,12.13,12.13,0,0,1,1.14-.84.52.52,0,0,0,.26-.36,3.41,3.41,0,0,1,.22-.65.38.38,0,0,0,0-.29c-.09-.23-.23-.43-.3-.66s-.18-.5-.27-.75c-.21-.55-.44-1.09-.66-1.64,0-.07-.08-.15,0-.22s.15,0,.22,0a.53.53,0,0,1,.25.35,3.74,3.74,0,0,0,.33.75c.15.27.24.56.41.82s.16.45.28.67a3.4,3.4,0,0,0,.44.64s.11.08.07.13,0,.25,0,.36a.75.75,0,0,1,.09.34.46.46,0,0,0,.1.31.34.34,0,0,1,.08.12c.1.45.42.52.81.52h1.94c.07,0,.17,0,.18-.07s-.09-.11-.16-.13a10.62,10.62,0,0,1-1.33-.42Zm-1.94.38a.27.27,0,0,0-.25-.29.28.28,0,0,0-.25.31.3.3,0,0,0,.28.26C11.16,14.93,11.25,14.82,11.24,14.65ZM9.35,15.9c.1,0,.21-.12.22-.24a.21.21,0,1,0-.43,0A.27.27,0,0,0,9.35,15.9Zm6.92-.24c0-.1,0-.2-.16-.19s-.16.12-.16.22a.15.15,0,0,0,.15.17C16.22,15.87,16.25,15.77,16.26,15.66Zm-12.4-.08A.14.14,0,0,0,4,15.44a.17.17,0,0,0-.16-.2.15.15,0,0,0-.17.15C3.68,15.51,3.76,15.56,3.87,15.59Z"/><path id="_Compound_Path_6" data-name="&lt;Compound Path&gt;" d="M26.64,20.32a1.68,1.68,0,0,0,.44-1.6,1.79,1.79,0,0,0-.19-.43.3.3,0,0,1,.06-.42c.2-.19.19-.2,0-.43s-.21-.26-.32-.38a.3.3,0,0,0-.46,0l-.14.12c-.09.09-.16.09-.27,0a.92.92,0,0,0-.6-.18c-1,0-2.05,0-3.08,0a.78.78,0,0,1-.58-.33,2.32,2.32,0,0,1-.45-1.11.18.18,0,0,1,.16-.23.28.28,0,0,0,.16-.44c-.42-.49-.11-.95.22-1.25l.06,0a.87.87,0,0,1,.73.27A.78.78,0,0,1,22,15c-.25.11-.25.18-.07.37a1.35,1.35,0,0,0,.78.3,1.73,1.73,0,0,1,.52.21.71.71,0,0,1,.3.41c.05.17.16.19.25.06a1.28,1.28,0,0,1,1.1-.49c.48,0,1,0,1.45,0,.63-.06,1.26,0,1.89,0a2.2,2.2,0,0,1,1.35.41l.22.14a.3.3,0,0,0,.31,0c.16-.09.25,0,.32.13a1.53,1.53,0,0,0,1,.83c.12,0,.24.08.36.12a8.86,8.86,0,0,0,2.2.43,10.15,10.15,0,0,0,1.23.1,1.17,1.17,0,0,0,.79-.27c.1-.09.17-.08.25,0s.24.3.35.45a9.6,9.6,0,0,0,1.18,1.42,1.36,1.36,0,0,1,.41.83,5.77,5.77,0,0,0,.37,1.19,3.13,3.13,0,0,1,.3,1,.91.91,0,0,1-.6.81c-.67.17-1.33.38-2,.6a1.82,1.82,0,0,1-1.09,0,3.58,3.58,0,0,1-.84-.48.16.16,0,0,1-.06-.15,2,2,0,0,1,0-.52c0-.12.09-.16.2-.13a1.46,1.46,0,0,0,1.19-.4.36.36,0,0,0,0-.57l-.12-.08c-.34-.23-.36-.25-.26-.65a.58.58,0,0,0-.1-.53c-.06-.08-.11-.18-.17-.26a1,1,0,0,1-.22-.77c0-.14,0-.19-.18-.21a4,4,0,0,0-.49,0H28.38a.75.75,0,0,0-.68.33,3.57,3.57,0,0,1-.42.51A.77.77,0,0,1,26.64,20.32ZM37.9,23.06a.45.45,0,0,0,.44-.35.6.6,0,0,0-.59-.58c-.11,0-.38.3-.38.43A.49.49,0,0,0,37.9,23.06ZM23,16.19a.31.31,0,0,0-.32.31.26.26,0,0,0,.27.26.29.29,0,0,0,.31-.31A.24.24,0,0,0,23,16.19Z"/><path id="_Compound_Path_7" data-name="&lt;Compound Path&gt;" d="M17.42,20.35a1.93,1.93,0,0,0,1.2.57c.15,0,.19.1.19.24a6.12,6.12,0,0,0,0,.87,1.64,1.64,0,0,0,.64,1.09,2.1,2.1,0,0,0,1.22.45h.07c.14,0,.3.13.4.06a.84.84,0,0,0,.2-.39c.24-.7.57-1.37.84-2.06a.34.34,0,0,1,.37-.26h2.54a1,1,0,0,0,.38-.1c.35-.14.37-.13.58.17s.66.88,1,1.33a4.06,4.06,0,0,1,.61,1.06,6.46,6.46,0,0,0,.48,1c.24.44.39.91.6,1.36a.68.68,0,0,1-.08.71,1.29,1.29,0,0,1-.51.44l-2.35,1.17-.52.23a.23.23,0,0,1-.28-.05,2.74,2.74,0,0,1-.24-.26c-.18-.25-.36-.49-.56-.73a.26.26,0,0,1-.07-.24c.08-.45.15-.9.24-1.35a2.38,2.38,0,0,0,0-.72c0-.22,0-.45-.06-.68a1.7,1.7,0,0,0-.14-.47c-.1-.2-.2-.39-.28-.6a.57.57,0,0,0-.65-.43H23a.22.22,0,0,0-.22.15l-.33.79a.29.29,0,0,0,0,.31.36.36,0,0,1,0,.38,2.05,2.05,0,0,0-.11.31.22.22,0,0,1-.3.18,4.43,4.43,0,0,0-.68-.07.3.3,0,0,1-.31-.26c-.07-.33-.1-.27-.36-.28a3.47,3.47,0,0,1-2.06-.71l-.06,0a.37.37,0,0,0-.56,0c-.17.18-.35,0-.51,0s-.11-.17-.12-.28c0-.84-.16-1.67-.12-2.51,0-.16,0-.31,0-.47Zm4.38,4.29a.46.46,0,0,0,.49-.42c0-.33-.18-.51-.54-.51-.13,0-.41.31-.42.46A.46.46,0,0,0,21.8,24.64ZM18,23.07a.19.19,0,0,0-.18-.22.23.23,0,0,0-.24.24.2.2,0,0,0,.21.21C17.91,23.31,18,23.22,18,23.07Z"/><path id="_Path_22" data-name="&lt;Path&gt;" d="M22.06,20.75c-.43,0-.87,0-1.3,0s-1,0-1.51,0a3.45,3.45,0,0,1-1-.13,1.22,1.22,0,0,1-1-1.26c0-.76,0-1.53,0-2.3a1.59,1.59,0,0,1,.21-.65c.24-.54.24-.53.83-.53H19c.2,0,.23,0,.24.24s0,.34.36.33h.14c.24,0,.26,0,.28-.28s0-.28.29-.28h0c.41-.06.7,0,.83.49a1.41,1.41,0,0,0,.66.72.41.41,0,0,0,.25.06c1,0,2.05,0,3.08,0a.82.82,0,0,1,.48.12c.08,0,.09.11,0,.17l-.24.22a.35.35,0,0,0,0,.55c.12.14.26.28.39.41a.28.28,0,0,0,.46,0l.27-.3c.07-.08.13-.08.21,0a1.43,1.43,0,0,1-.11,1.71,1.68,1.68,0,0,1-.94.5,15.86,15.86,0,0,1-3.31.17h-.28Z"/><path id="_Path_23" data-name="&lt;Path&gt;" d="M15.87,23.46q0,1.88,0,3.77c0,.3,0,.3-.3.3H12.93c-.21,0-.4-.06-.61-.06s-.15-.13-.16-.22c-.07-.45-.13-.91-.19-1.36,0-.26-.06-.52-.11-.77a5.18,5.18,0,0,1-.06-1c0-1.35,0-2.7,0-4.05,0,0,0-.1,0-.14a.54.54,0,0,1,.54-.66h3.29a.23.23,0,0,1,.23.23c0,.09,0,.17,0,.26q0,1.84,0,3.67Z"/><path id="_Path_24" data-name="&lt;Path&gt;" d="M5.09,21.05a.75.75,0,0,1-.37.12c-.31,0-.62,0-.92,0a1,1,0,0,1-.91-.63,3.46,3.46,0,0,1-.35-1.44,4.71,4.71,0,0,1,.21-1.87,3.23,3.23,0,0,1,.53-.95A.75.75,0,0,1,4,16H5.71a.89.89,0,0,1,.24,0c.12,0,.13.12,0,.2a4.29,4.29,0,0,0-1.36,2.25,4.69,4.69,0,0,0-.18,1.59.94.94,0,0,0,.61.92S5.08,21,5.09,21.05Z"/><path id="_Path_25" data-name="&lt;Path&gt;" d="M17.16,20.91c0,.33,0,.66,0,1,0,.6.09,1.2.15,1.79a3.67,3.67,0,0,1,0,1,1.35,1.35,0,0,0,0,.24c0,.55,0,1.11,0,1.66,0,.25-.07.5-.05.75a.18.18,0,0,1-.19.19H16.2c-.1,0-.14-.06-.15-.15s0-.08,0-.12c0-2.62,0-5.25,0-7.87a1.45,1.45,0,0,1,.23-.66c.08-.15.24-.08.37-.08a.24.24,0,0,1,.24.19,1.12,1.12,0,0,1,.06.3.4.4,0,0,0,.15.35.26.26,0,0,1,.08.24c0,.39,0,.79,0,1.18Z"/><path id="_Path_26" data-name="&lt;Path&gt;" d="M30.08,19.5h1.75a.62.62,0,0,1,.38.11L34,20.86c.5.35,1,.72,1.49,1.09.21.16.2.34,0,.49a2.84,2.84,0,0,1-.47.22.53.53,0,0,1-.46,0c-.89-.44-1.74-.95-2.6-1.44-.53-.3-1.06-.61-1.6-.9A2.07,2.07,0,0,0,29.29,20c-.45,0-.9,0-1.35,0-.06,0-.14,0-.17,0s0-.11.07-.16a.6.6,0,0,1,.59-.31C29,19.52,29.53,19.5,30.08,19.5Z"/><path id="_Path_27" data-name="&lt;Path&gt;" d="M31,16.15a1.9,1.9,0,0,0,.52,0,2.17,2.17,0,0,1,.61,0,5.25,5.25,0,0,0,1.82-.24.52.52,0,0,1,.47.06c.16.11.34.2.51.31s.14.1.05.22-.09.3.1.4a.63.63,0,0,0,.43.1.19.19,0,0,1,.22.09l.28.36c.07.09.06.14,0,.21a1.24,1.24,0,0,1-.9.27c-.54-.06-1.08-.16-1.62-.24s-.85-.16-1.27-.25A5.26,5.26,0,0,1,31,17a.43.43,0,0,1-.19-.17c-.05-.09-.12-.17-.16-.26s-.21-.2-.12-.33.23,0,.36,0Z"/><path id="_Path_28" data-name="&lt;Path&gt;" d="M12,18.64h.19c.05,0,.1,0,.09.09s0,.31-.15.38c-.5.24-.5.68-.46,1.13,0,.13,0,.25,0,.38q0,2,0,3.91a11.4,11.4,0,0,0,.22,1.81c.05.32.09.64.14,1,0,.12,0,.16-.15.14-.39-.05-.39-.05-.46-.44-.12-.66-.24-1.31-.36-2a3.89,3.89,0,0,1,0-.68c0-.83,0-1.66,0-2.49s0-1.4,0-2.11a.6.6,0,0,1,.09-.31c.13-.21.27-.41.41-.61A.4.4,0,0,1,12,18.64Z"/><path id="_Path_29" data-name="&lt;Path&gt;" d="M3.28,15.25a.86.86,0,0,0,.19.44c.08.08,0,.15,0,.22a2,2,0,0,0-.39.34,3.55,3.55,0,0,0-.64,1.51,5,5,0,0,0,0,2,3.08,3.08,0,0,0,.62,1.31c0,.07-.08.06-.12.06a1.22,1.22,0,0,1-1.16-.71,5.65,5.65,0,0,1-.36-1.1,3.39,3.39,0,0,1,0-1.53,3.34,3.34,0,0,1,.94-2s0-.05.07-.06C2.71,15.68,2.93,15.39,3.28,15.25Z"/><path id="_Path_30" data-name="&lt;Path&gt;" d="M34.45,15.71a1.35,1.35,0,0,1,1.5,0,2.74,2.74,0,0,1,.75.65c.47.57.87,1.19,1.34,1.75a.55.55,0,0,1,.12.35c0,.39-.07.78-.05,1.2a.67.67,0,0,1-.33-.23,11.58,11.58,0,0,1-1-1.23c-.35-.48-.7-1-1.07-1.42a3.54,3.54,0,0,0-1.12-.93S34.48,15.78,34.45,15.71Z"/><path id="_Path_31" data-name="&lt;Path&gt;" d="M14.23,19.14h-1c-.19,0-.2,0-.17-.21s.06-.29.09-.44a.34.34,0,0,1,.14-.21.59.59,0,0,0,.19-.24.17.17,0,0,0,0-.22.3.3,0,0,1-.07-.12c-.06-.2,0-.24.17-.24h1.75a.22.22,0,0,1,.26.21,1.54,1.54,0,0,1,0,.4c0,.26-.05.52-.09.78s0,.3-.35.3Z"/><path id="_Path_32" data-name="&lt;Path&gt;" d="M14.46,16.75c.34,0,.68,0,1,0a.68.68,0,0,1,.72.74,3.26,3.26,0,0,1-.2,1.44L16,19c-.05.11-.16.1-.25.09s-.1-.11-.09-.19c.05-.38.09-.77.11-1.15a1.37,1.37,0,0,0,0-.24c0-.22-.09-.27-.31-.27h-2c-.31,0-.33,0-.33.32a5.71,5.71,0,0,1-.21,1.09c0,.1-.05.2-.06.3s-.05.15-.16.16c-.3,0-.34,0-.27-.31.13-.54.28-1.07.4-1.61.07-.33.27-.44.61-.47s.68,0,1,0Z"/><path id="_Path_33" data-name="&lt;Path&gt;" d="M38.12,17.84c-.1,0-.13-.13-.19-.2-.22-.31-.44-.62-.66-.92a.27.27,0,0,1,0-.31,5.29,5.29,0,0,0,.25-.81,1.74,1.74,0,0,0,0-.52.4.4,0,0,0-.17-.3l-.12-.12s-.12-.08-.09-.15.13-.05.19,0a5,5,0,0,0,.61.06c.4.09.45.16.48.55,0,.64,0,1.28,0,1.92a.23.23,0,0,1-.09.19.53.53,0,0,0-.2.52.28.28,0,0,1,0,.09Z"/><path id="_Path_34" data-name="&lt;Path&gt;" d="M35.09,15.27c.31-.3.53-.65.95-.76a1.17,1.17,0,0,1,1.23.49.42.42,0,0,1,0,.23,3.17,3.17,0,0,1-.2,1c0,.15-.1.15-.21,0L36.68,16A2.38,2.38,0,0,0,35.09,15.27Z"/><path id="_Path_35" data-name="&lt;Path&gt;" d="M20.75,20.93h1.18c.09,0,.13.05.1.14l0,.11c-.27.6-.48,1.22-.71,1.83-.13.35-.26.41-.62.3l-.27-.1a.24.24,0,0,1-.18-.29c0-.2,0-.26.25-.27.44,0,.4,0,.54-.48.05-.17.09-.35.15-.52a.28.28,0,0,0-.08-.32L20.73,21Z"/><path id="_Path_36" data-name="&lt;Path&gt;" d="M19.3,15.14h1.06c.37,0,.52.16.52.53a.11.11,0,0,1-.12.12h-.59c-.11,0-.13-.09-.14-.18s-.05-.24-.26-.24h-.21c-.25,0-.26,0-.3.26,0,.1-.06.16-.17.16H17.85a.15.15,0,0,1-.16-.14c0-.19,0-.34.13-.4a.91.91,0,0,1,.39-.09H19.3Z"/><path id="_Path_37" data-name="&lt;Path&gt;" d="M10.65,16.62h-.54c-.15,0-.22-.07-.2-.22s0-.36,0-.54.27-.41.54-.25a.86.86,0,0,0,.68,0c.2-.06.2-.07.22.14s0,.39.06.59,0,.26-.25.27Z"/><path id="_Path_38" data-name="&lt;Path&gt;" d="M26.41,17.1a.21.21,0,0,1,.14.06c.42.35.43.49.05.87-.14.15-.27.3-.41.45s-.2.15-.36,0a2.37,2.37,0,0,1-.37-.37.2.2,0,0,1,0-.3,8,8,0,0,1,.78-.69A.33.33,0,0,1,26.41,17.1Z"/><path id="_Path_39" data-name="&lt;Path&gt;" d="M10.65,16.75h.52c.13,0,.19,0,.16.19s-.09.3-.36.3h-.78a.32.32,0,0,1-.26-.41c0-.08.11-.08.18-.08Z"/><path id="_Path_40" data-name="&lt;Path&gt;" d="M10.45,21.13l-.51-.05a.59.59,0,0,1-.38-.29.11.11,0,0,1,.1-.19c.35,0,.71,0,1.06,0a.12.12,0,0,1,.12.12c0,.08,0,.16,0,.24a.15.15,0,0,1-.17.17Z"/><path id="_Path_41" data-name="&lt;Path&gt;" d="M19.89,15.93s0,.09,0,.14c0,.22,0,.26-.18.26s-.3,0-.31-.26,0-.24,0-.36.05-.22.26-.22.22,0,.23.22,0,.14,0,.21Z"/><path id="_Path_42" data-name="&lt;Path&gt;" d="M13.18,14.27s-.11,0-.15-.05.1,0,.15.05Z"/><polygon id="_Path_43" data-name="&lt;Path&gt;" points="12.78 14.1 12.77 14.11 12.77 14.09 12.78 14.1"/></g></svg>