<svg xmlns="http://www.w3.org/2000/svg" class="HeroAbility-icon HeroAbility-icon--hoverState" viewBox="0 0 40 40" preserveAspectRatio="xMidYMid meet"><path d="M34.71,20.9a3.48,3.48,0,0,0,.11-1.63l0-.09q0-.16-.08-.32a1.13,1.13,0,0,0-.46,1A1.29,1.29,0,0,0,34.71,20.9Z"/><path d="M35.27,18.28l-.36.88v.07l.26.18v-.36a.93.93,0,0,1,.15-.63Z"/><path d="M34.61,17.24l-.07,0L34.36,17l0,.85,0,.05.84.28A4.25,4.25,0,0,0,34.61,17.24Z"/><path d="M35.18,20.75v-.41l-.2.19v.06l.29.84.09-.25a3.25,3.25,0,0,1-.18-.41Z"/><path d="M30.15,19.51a1.59,1.59,0,0,0,0,.69l.35-.35Z"/><path d="M35.22,21.55l-.8.24,0,1A4.49,4.49,0,0,0,35.22,21.55Z"/><path d="M33.62,19.79a2.27,2.27,0,0,0,.86,1.66,3.43,3.43,0,0,0,.19-.44,1.38,1.38,0,0,1-.52-1.15,1.23,1.23,0,0,1,.54-1.1,3.43,3.43,0,0,0-.21-.49A1.85,1.85,0,0,0,33.62,19.79Z"/><path d="M31.21,20.89l.1.4.25-.3A1.1,1.1,0,0,1,31.21,20.89Z"/><path d="M33.5,19.79a2,2,0,0,1,.92-1.61A3.45,3.45,0,0,0,33.34,17h0a3.37,3.37,0,0,0-1.15-.48h0a3.39,3.39,0,0,0-.76-.07,1.76,1.76,0,0,1-.61,1.7,2.66,2.66,0,0,1-2.28,0,3.43,3.43,0,0,0-.4,1.1l0,0,0,0a3.49,3.49,0,0,0,0,1.3l0,0,0,0a3.44,3.44,0,0,0,.4,1A4.33,4.33,0,0,1,30,21.31a1,1,0,0,1,.56.14c.59.39.75.6.85.87a3.12,3.12,0,0,1,.1.9v.09a3.37,3.37,0,0,0,.69-.07l0,0-.69-1.53.12,0a.93.93,0,0,0,.77-.15l.11-.09-.29,1.75h0a3.38,3.38,0,0,0,1.18-.52v0h0a3.45,3.45,0,0,0,.9-.94v0h0l.1-.16A2.36,2.36,0,0,1,33.5,19.79ZM34,17.68l-.7,1.38,0-.09a3.09,3.09,0,0,0-.22-.33.68.68,0,0,0-.3-.25l-.14,0Zm-1.9-1.15.33,1.64-.09,0A3.35,3.35,0,0,0,32,18a1.82,1.82,0,0,0-.4,0h-.09Zm-2,2.29,0,.08-.15.35a1.3,1.3,0,0,0-.08.41v.1l-1.5-.93ZM28.36,21l1.41-1v.11a1.29,1.29,0,0,0,.09.41,1.19,1.19,0,0,0,.24.38l.09.09Zm3.79.48v0l0,0a1.66,1.66,0,0,1-.83,0l0,0v0a1.66,1.66,0,0,1-.76-.44h0v0a1.69,1.69,0,0,1-.42-.73h0l0,0a1.7,1.7,0,0,1,0-.87l0,0h0a1.69,1.69,0,0,1,.39-.69l0-.07.07,0a1.67,1.67,0,0,1,.65-.4V18.2l.05,0a1.69,1.69,0,0,1,.8,0h0a1.68,1.68,0,0,1,1.26,1.19l.07,0-.06.05a1.7,1.7,0,0,1,0,.77l.06.05-.07,0a1.69,1.69,0,0,1-.4.71l0,.08-.08,0A1.67,1.67,0,0,1,32.15,21.47Zm.58,0,.06-.06.28-.27h0a2,2,0,0,0,.23-.34l0-.09.71,1.37Z"/><path d="M31.36,21.4a1.58,1.58,0,0,0,.66,0L31.68,21Z"/><path d="M30.75,20.5l-.12.4.41-.11A1.13,1.13,0,0,1,30.75,20.5Z"/><path d="M30.19,20.33a1.58,1.58,0,0,0,.33.58l.15-.5Z"/><path d="M30.62,21a1.55,1.55,0,0,0,.6.34l-.12-.47Z"/><path d="M32.31,20.79l.41.14-.15-.39A1.13,1.13,0,0,1,32.31,20.79Z"/><path d="M32.53,20.4v0h0a1,1,0,0,0,0-1h0v0a1,1,0,0,0-1.72,0v0h0a1,1,0,0,0,0,.94h0v0a1,1,0,0,0,.85.52l0,0,0,0a1,1,0,0,0,.46-.12v0h0A1,1,0,0,0,32.53,20.4Z"/><path d="M32.17,21.35a1.56,1.56,0,0,0,.54-.32l-.46-.16Z"/><path d="M32.07,21.28l.06-.39a1.1,1.1,0,0,1-.34.09Z"/><path d="M35.8,21.58l.31-.06a1.66,1.66,0,0,1-.59-.12.43.43,0,0,1-.09-.1,4.69,4.69,0,0,1-.64,1.25l.59-.21Z"/><path d="M26.32,19.52l-.24-.32-.3-.22h0s.1.7.1,1,0,.71-.06.94l.28-.24.22-.36Z"/><path d="M26,16.59H22l0,2.27.46,0V18a.1.1,0,0,1,0-.08c0-.05.1-.08.22-.08h2.67a.19.19,0,0,1,.15,0,.21.21,0,0,1,.07.18c0,.17,0,.56,0,.68a.28.28,0,0,1,.07.09l.4.3v0h0Z"/><polygon points="26.22 23.3 26.34 23.12 26.41 21.41 26.2 20.98 26.22 23.3"/><polygon points="26.41 18.58 26.26 16.81 26.07 16.66 26.19 18.93 26.41 18.58"/><path d="M26.47,22.6l0,.56-.26.38H23.72v.17l.08.29.39.38h.2l.15-.37h.83l.13.37h.32a5.52,5.52,0,0,0,1-.54,1.2,1.2,0,0,0,0-.49A2.25,2.25,0,0,0,26.47,22.6Z"/><path d="M26.44,17.39a1,1,0,0,0,.23-.26,6.38,6.38,0,0,0,.16-.88L26.7,16l-1.05-.41h-.33V16h-.86l-.16-.38h-.18l-.39.39-.1.49H26l.35.27.05.66Z"/><polygon points="24.6 24.11 24.5 24.37 25.37 24.37 25.28 24.11 24.6 24.11"/><path d="M20.54,16.66l-1.89-.12V17L21,17A.86.86,0,0,0,20.54,16.66Z"/><path d="M16.48,17.09a3.81,3.81,0,0,1-.65-.25H10.61l-1,.53H8.13a1.22,1.22,0,0,1-.06.34H8.6l.19.13.76,0v0l.55,0h1.24a2,2,0,0,1,.29-.1l.59-.28v-.28h.65V17.1h.36v.21l.52,0V17.1h.36v.21l.5,0V17.1H15v.21l.51,0V17.1h.36v.21l.51,0V17.1h.36v.21l.52,0V17.1h.36v.21l.52,0V17.1h.34v.55l-.2.08.11,0c.18,0,.36,0,.44.12l0,.05a.49.49,0,0,1,.14.26l0,.12a.3.3,0,0,0,.25.15H20.8V17.07Z"/><polygon points="25.21 15.88 25.21 15.61 24.41 15.61 24.53 15.88 25.21 15.88"/><path d="M.82,15.61h0Z"/><path d="M16.53,14a4.46,4.46,0,0,0,1,1.82l.09.12c.2.26.31.26.31.26l2-.06,2.4-1L28,15l1.35-.85h0a.58.58,0,0,0-.09-.76.55.55,0,0,0-.47-.22c-.42,0-.84,0-1.25,0-.84,0-1.67,0-2.51,0-.63,0-1.27-.08-1.9,0l-.14,0c-.51-.13-1-.28-1.54-.4a1.58,1.58,0,0,0-.69-.12L17,13.27a.47.47,0,0,0-.43.41,1.75,1.75,0,0,0,0,.22.16.16,0,0,1,0,.09Zm3.66,0,.56-.15,1,.27-.06.5H20.59l-.4-.28Z"/><path d="M27.31,15.47l-.24-.3-4.74.09-1.17.48v.45c0,.09.15.15.22.16H22l.38-.44h.85l.32.23,0-.2.45-.45h1.61l1.1.43.11.2v0l.26-.05Z"/><path d="M21.89,18.89H22l0-2.24-.43.27V19l.13.18,0-.09A.42.42,0,0,1,21.89,18.89Z"/><path d="M35.53,18.29h0l-.37-.78-.35-.16a4.29,4.29,0,0,1,.58,1Z"/><path d="M22.9,21l-.18-.34a.25.25,0,0,0-.08-.11h0a1.42,1.42,0,0,1-.29-.08.27.27,0,0,1-.17-.2,4.15,4.15,0,0,1,0-.69c0-.09.17-.13.2-.14l.31-.1s0-.05,0-.05a2.85,2.85,0,0,1,.15-.38l-.94.09a.31.31,0,0,0-.15.12c0,.06-.06.13-.07.16V20.8a.31.31,0,0,0,.09.11A.81.81,0,0,0,22,21l1,.07A.38.38,0,0,1,22.9,21Z"/><path d="M25.45,17.91H22.76c-.11,0-.13,0-.13,0h0v.86l.32,0a.46.46,0,0,1,.15-.07h0l2.4,0c0-.14,0-.51,0-.66a.11.11,0,0,0,0-.09A.09.09,0,0,0,25.45,17.91Z"/><path d="M25.69,21a8,8,0,0,0,.08-1c0-.32-.09-1-.09-1a.62.62,0,0,0-.11-.23l-2.43,0a.32.32,0,0,0-.14.09,2,2,0,0,0-.17.39.17.17,0,0,1-.13.14l-.3.09a.25.25,0,0,0-.13.08,5.07,5.07,0,0,0,0,.64h0a.17.17,0,0,0,.1.11,1.31,1.31,0,0,0,.26.08h0s.1,0,.18.16l.18.35a.32.32,0,0,0,.3.19h2.26l.1-.06h0Z"/><path d="M26.09,20.9h.07l0-.07-.39.33h0v0s0,.59,0,.76a.24.24,0,0,1-.27.21H22.75a.2.2,0,0,1-.18-.22v-.79l-.47,0L22,23.42h4.07Z"/><path d="M22.46,24l-.39-.33h-.71s-.18.06-.18.18v.38l1.22.47h4.8l.22-.22-.19-.5-.35-.12a5.84,5.84,0,0,1-1,.57H24.14L23.7,24l0-.18-.3.18Z"/><path d="M25.57,21.25H23.3a.47.47,0,0,1-.2,0l-.42,0v.78s0,.1.08.11h2.72s.15,0,.15-.11,0-.6,0-.72l0,0Z"/><path d="M28.54,21.89l-1.22-.27A4.49,4.49,0,0,0,28.25,23Z"/><path d="M28,20.65l-1-.71a4.5,4.5,0,0,0,.35,1.64Z"/><path d="M27,19.84s0,.06,0,.08l1-.68-.68-1,1.19-.35-.28-1A4.24,4.24,0,0,0,27,19.84Z"/><path d="M31.37,24.26h0l-.6-.9-1.09.56-.11-1-1.3.14,0,0A4.15,4.15,0,0,0,31.37,24.26Z"/><path d="M30.77,23a1.37,1.37,0,0,0-.55-.77c-.44-.34-1.1,0-1.24,0a3.44,3.44,0,0,0,.67.55h0v0a3.37,3.37,0,0,0,1.09.43A2.22,2.22,0,0,0,30.77,23Z"/><path d="M31.37,23.3v-.09a3.11,3.11,0,0,0-.1-.86c-.1-.25-.24-.44-.81-.81s-1.63.1-1.86.2l0,.06h0v0a3.46,3.46,0,0,0,.24.31h0s.84-.45,1.38,0a1.44,1.44,0,0,1,.6.85,2.18,2.18,0,0,1,0,.29A3.38,3.38,0,0,0,31.37,23.3Z"/><path d="M28.33,16.77l-.1.09,1.16.1.17-1,1.06.44.13,0,.45-.77.84.74.11,0,.66-.44a4.65,4.65,0,0,0-1.45-.33A4.11,4.11,0,0,0,28.33,16.77Z"/><path d="M33.33,16.86l.12.08.74-.14A4.72,4.72,0,0,0,32.87,16Z"/><path d="M32.68,14.39l.76,1.33.89,1.06h0v0q.17.16.32.33l.59.27.4.84a6.49,6.49,0,0,1,.9-.12l.78-.2.17-.12.1-.12a.18.18,0,0,1,0-.13c0-.51,0-1,0-1.52a1.3,1.3,0,0,0-.24-.71l-1-1.34a.43.43,0,0,0-.28-.18q-1-.2-2.05-.43a.88.88,0,0,0-.63.07,3.81,3.81,0,0,0-.42.25.64.64,0,0,0-.28.72Z"/><path d="M29.49,17.08h0a3.45,3.45,0,0,0-.55.5,1.41,1.41,0,0,0,1.22-.09,1,1,0,0,0,.56-1h-.05a3.38,3.38,0,0,0-1.15.53Z"/><path d="M30.72,18a1.65,1.65,0,0,0,.56-1.61,3.37,3.37,0,0,0-.49.06,1.13,1.13,0,0,1-.61,1.1,1.5,1.5,0,0,1-1.35.08,3.45,3.45,0,0,0-.23.32v0h0l0,0A2.57,2.57,0,0,0,30.72,18Z"/><path d="M33.12,19.49l-.43-.09a1.13,1.13,0,0,1,.1.38Z"/><path d="M32.69,18.68a1.55,1.55,0,0,0-.63-.34l.17.47Z"/><path d="M32.13,18.84,32,18.43l-.25.31A1.1,1.1,0,0,1,32.13,18.84Z"/><path d="M33.16,19.38a1.58,1.58,0,0,0-.37-.62l-.13.52Z"/><path d="M32.57,19.19l.09-.38-.38.11A1.13,1.13,0,0,1,32.57,19.19Z"/><path d="M31.94,18.31a1.58,1.58,0,0,0-.62,0l.35.31Z"/><path d="M31.06,18.92l-.45-.12.15.4A1.13,1.13,0,0,1,31.06,18.92Z"/><path d="M30.27,19.48l.29.28a1.13,1.13,0,0,1,.09-.36Z"/><path d="M30.5,18.83a1.58,1.58,0,0,0-.31.55l.49-.09Z"/><path d="M33.2,20.16a1.59,1.59,0,0,0,0-.6l-.34.3Z"/><path d="M31.24,18.41l-.07.44a1.1,1.1,0,0,1,.44-.12Z"/><path d="M31.14,18.39a1.56,1.56,0,0,0-.5.31l.44.11Z"/><path d="M20.8,23V21.73H19.29a.23.23,0,0,0-.15.05l-.24.54a.33.33,0,0,1-.23.16h-.29l.13.05V23Z"/><path d="M30.27,20.24l.37.06a1.13,1.13,0,0,1-.08-.35Z"/><path d="M33.46,22.8l-.4,1.05A4.26,4.26,0,0,0,34.29,23Z"/><path d="M32.2,23.35l-.81.91A4.3,4.3,0,0,0,33,23.89Z"/><path d="M32.83,20.91a1.57,1.57,0,0,0,.32-.57l-.5.11Z"/><path d="M33.12,20.24l-.33-.3a1.13,1.13,0,0,1-.1.39Z"/><path d="M21.57,23.21l.36.18L22,21.12h0a.92.92,0,0,1-.21-.12.44.44,0,0,1-.09-.1l-.07.07Z"/><path d="M8.6,21.12,8.53,21l-.36,0c0,.37,0,1.08,0,1.14a.21.21,0,0,1-.13.17l0,.08h.5l0,0a6.14,6.14,0,0,1,0-.7,2.37,2.37,0,0,1,.06-.57Z"/><path d="M14.56,19.71l-.91,0v.16c.21,0,.67,0,.87,0C14.54,19.8,14.55,19.75,14.56,19.71Z"/><polygon points="17.6 17.96 16.86 17.96 16.72 18.15 16.78 18.34 17.54 18.34 17.7 18.12 17.7 18.06 17.71 18.06 17.6 17.96"/><path d="M9.27,21.11,9,20.94,9,21.07c0,.06-.11.15-.21.12l-.07,0a2.31,2.31,0,0,0-.05.53,6,6,0,0,0,0,.63h.51a1.1,1.1,0,0,1-.07-.39,3.68,3.68,0,0,1,.1-.7Z"/><path d="M9.84,19.91a1.54,1.54,0,0,0-.05.38,1.38,1.38,0,0,0,.06.39,2,2,0,0,0,0-.4A1.66,1.66,0,0,0,9.84,19.91Z"/><path d="M12.74,20.87V19.76L10,19.83a2,2,0,0,1,.06.45,2.52,2.52,0,0,1-.06.51Z"/><path d="M9.82,19.64l-.23-.17a3.25,3.25,0,0,0,0,1.64l.28-.19H9.81l0-.05v0a1.49,1.49,0,0,1-.1-.54,1.63,1.63,0,0,1,.11-.59Z"/><path d="M16.28,19.38h0Z"/><path d="M14.35,18.08v1.08h0c.12.18.35.19.55.21a9.85,9.85,0,0,0,1.11,0h.07l0,0a.93.93,0,0,0,.1-.15l0-1.11Z"/><path d="M16.22,19.22h0Z"/><path d="M14.52,20.61l-.86,0v.33l.94,0A1.19,1.19,0,0,1,14.52,20.61Z"/><path d="M13.27,18.82a.89.89,0,0,0,.3,0,2.91,2.91,0,0,1,.56,0,.19.19,0,0,1,.11,0v-.74a.11.11,0,0,1-.11,0c-.26,0-.52.06-.79,0a.22.22,0,0,0-.26.22C13.08,18.62,13.09,18.76,13.27,18.82Z"/><path d="M18.81,18l-.05-.06c0-.06-.26-.07-.35-.07h-.09l-.24.23h-.27v.07l-.22.29h-.9l-.1-.31,0-.05h-.36v1l.3.09,1.92,0,.45-.22,0-.51s0-.1,0-.25A.38.38,0,0,0,18.81,18Z"/><polygon points="20.8 19.77 19.08 19.77 19.08 20.71 18.99 20.75 20.8 20.75 20.8 19.77"/><path d="M20.8,19.26l-2.14,0-.15.07-1.29,0a.2.2,0,0,1-.17,0l-.76,0h0a.13.13,0,0,1,.08.09.39.39,0,0,1,0,.11l.23-.14h1.92l.37.22H20.8Z"/><path d="M16.07,19.38h0Z"/><polygon points="18.46 20.89 18.97 20.64 18.97 19.82 18.53 19.56 16.68 19.56 16.46 19.69 16.47 20.76 16.7 20.89 18.46 20.89"/><polygon points="16.45 20.89 16.47 20.89 16.45 20.87 16.45 20.89"/><path d="M7.9,20.61H7.75l-.2,0a.45.45,0,0,1,.08.17c0,.08.06,1.12.07,1.35l.23.12s.09-.05.09-.09,0-1.19,0-1.36Z"/><path d="M11.38,16.15l-1-.62L.82,15.7a.72.72,0,0,0,.05.17,9.07,9.07,0,0,0,.6,1.49,2.11,2.11,0,0,1,.28-.95l.13-.12a.46.46,0,0,1,.29-.11H7.54l.44.26.12.82H9.61l1.77-1h0l3.48,0-.28-.22Z"/><path d="M19,23.5l1.81-.09a.37.37,0,0,0,.27-.23l0-.07-2.54,0a1,1,0,0,0,.05.33Z"/><path d="M15.7,16.47a.82.82,0,0,0-.43-.07l-3.86,0-.59.32h5a4.19,4.19,0,0,0,.62.24h.09a.71.71,0,0,1-.26-.16A6,6,0,0,1,15.7,16.47Z"/><path d="M39.12,19.37c0-.16-.09-.23-.23-.25h-.2a.38.38,0,0,1-.15,0v1.56c.05-.06.16-.07.36-.1s.23-.09.23-.25S39.12,19.68,39.12,19.37Z"/><path d="M29.45,25.78l-1.31-.87a1.55,1.55,0,0,0-.33-.06H22.38l-2.49-.95h-2c-.15.15-1.32,1.36-1.3,2.3h-.11c0-1,1.29-2.34,1.35-2.39l0,0h2.09l1.16.44v-.34c0-.21.25-.28.26-.29h.78l.39.33h.82l.3-.18v-.22H22l-.5-.25V20.92l.14-.13v-1.5l-.2-.26V16.85l.58-.36h1.53l0-.22L23.22,16h-.77l-.38.44h-.71s-.31-.07-.31-.27v-.4l-1.12.45-2,.06s-.17,0-.41-.31l-.09-.12a4.59,4.59,0,0,1-1-1.84h-.08l-1.19,0-2.3.08c-.86,0-1.73,0-2.59.08-.68,0-1.36,0-2,0H8.13a2.93,2.93,0,0,1-1.15,0,10.2,10.2,0,0,0-2.19,0l-2,.16-1.11.09a.4.4,0,0,0-.29.16L1,15.25a.61.61,0,0,0-.15.34l9.55-.18,1,.62L14.63,16l.42.33h.22a.92.92,0,0,1,.5.09,6.34,6.34,0,0,0,.6.35h0a.78.78,0,0,0,.57.19h1.59v-.51l2,.13a1,1,0,0,1,.65.43l.06.09h-.35V23h.23a.07.07,0,0,1,.08,0c.05,0,0,.09,0,.22a.48.48,0,0,1-.36.31l-1.82.1a2.55,2.55,0,0,1-.44,0s-.09,0-.11-.39H16.93a.92.92,0,0,0-.44.08c-.09,0-.68.4-1,.58h-.39l-.42.31H11.34l-1.07.61h0L.7,24.64a.29.29,0,0,0,0,.25l.55.83a.38.38,0,0,0,.28.18l.5,0c.61,0,1.21,0,1.82.09.3,0,.59,0,.89.05A7.57,7.57,0,0,0,6,26.15,15.53,15.53,0,0,1,7.8,26c.51,0,1,0,1.52,0s1.27,0,1.9,0,1.35,0,2,0c1,0,2.05.07,3.08,0,.14,0,.2,0,.22.18A.57.57,0,0,0,17,27l.82.13c.81.13,1.62.27,2.43.39a2,2,0,0,0,.89.07c.56-.17,1.13-.3,1.69-.46A7.27,7.27,0,0,1,24.51,27c.86-.05,1.72-.07,2.59-.09.65,0,1.31-.07,2,0a.36.36,0,0,0,.31-.14.84.84,0,0,0,.11-1Zm-22.08-11-1.11-.33,0-.11,1.16.14,3.12-.07v.11Zm3,11-3,.06-1.3.08,0-.11,1.31-.29h0l3,.14Zm10.49.48-.58-.14v-.39l.43-.27,1-.05.09.46Z"/><path d="M38.43,20.81V18.92a.44.44,0,0,1,0-.06v-.21a1.15,1.15,0,0,0-.72-.9h0l-.11.14-.21.14-.8.2a5.87,5.87,0,0,0-1,.16c-.33.1-.27.64-.27.65v1.18h0v.51a1.76,1.76,0,0,0,.3.57,3.46,3.46,0,0,0,1,.12h0l.81.15.42.44c.23-.11.34-.34.51-.51a.73.73,0,0,0,.18-.48c0-.09,0-.16,0-.22Z"/><path d="M32.94,25.28l.54-1.16h0l.83-1a4.37,4.37,0,0,1-2.94,1.27,4.26,4.26,0,0,1-3.13-1.22,4.63,4.63,0,0,1-1.4-3.31,4.36,4.36,0,0,1,1.41-3.16,4.22,4.22,0,0,1,3.11-1.19,4.82,4.82,0,0,1,2.51.91l-.53-.63-.58-1h0A6.17,6.17,0,0,0,29,14.55l-1,.6-.8,0,.23.28-.21.67-.3.06,0,0v0a6.6,6.6,0,0,1-.17.93,1.1,1.1,0,0,1-.25.29l-.08.08.09,1-.34.55.25.33v.9l-.22.37.32.63,0,1a2.23,2.23,0,0,1,.43.9,1.74,1.74,0,0,1,0,.48l.39.13.23.62-.19.19h.45a1.68,1.68,0,0,1,.37.06h0l1.23.82a1.91,1.91,0,0,0,.48.06,2.94,2.94,0,0,0,.86.08,6,6,0,0,0,2-.46S32.89,25.24,32.94,25.28Z"/><path d="M37.7,22.17a.26.26,0,0,1,0-.08l-.39-.41-.76-.14-.68.13-.42.75-.61.22-1.27,1.52c-.27.58-.68,1.46-.69,1.51h-.05a1.92,1.92,0,0,0,.08.54c0,.05.06.07.1.1l.51.28a.86.86,0,0,0,.63.08l2.1-.42a.43.43,0,0,0,.32-.21c.32-.53.63-1.06,1-1.57a1.46,1.46,0,0,0,.21-.95C37.68,23.06,37.71,22.62,37.7,22.17Z"/><path d="M18.19,22.6h.19L18,22.43l0-.1.22.09s-.07-.15-.16-.15h-.28l-.07.08h-.25l0,.07.22.08v.26l.54.05Z"/><path d="M8.2,19.42v0l-.31.38H2.17a3.92,3.92,0,0,1,.29.28l0,.05H8.41l.68-.43a2,2,0,0,0,.14-.32v0L9,19.59l-.15-.25v0s0,0,0,0a.37.37,0,0,0-.13,0l-.12.14Z"/><path d="M9.25,18.59a1.46,1.46,0,0,0,.06.45,1.23,1.23,0,0,0,.1-.5A1.81,1.81,0,0,0,9.33,18,2.73,2.73,0,0,0,9.25,18.59Z"/><path d="M9.38,21.92a1.87,1.87,0,0,0-.08-.47,2.78,2.78,0,0,0-.06.47,1,1,0,0,0,.06.33A.74.74,0,0,0,9.38,21.92Z"/><path d="M8,17.83v0l.06.07.11.12,0,0v1.25h.36l.08-.1a2.94,2.94,0,0,1-.06-.7,3.43,3.43,0,0,1,.06-.63h0l-.09-.06Z"/><path d="M8.82,21.09s.05,0,.07-.06L9,20.77l.2.14v-.1A.37.37,0,0,0,9,20.6l-.55-.35,0,0h-6a2.74,2.74,0,0,1-.24.23H7.44l0,0h0l.28,0H8l.22.29v.14l.42,0,.08.13Z"/><path d="M16.42,22.92l-.55-.05v.2h-.33l0-.15L15,22.87v.2h-.33V23l-.55-.05v.2h-.33l0-.15-.55-.05v.2h-.33V23l-.66-.06,0-.25-.32-.17h0l-.11-.06h0l-.1,0a1.1,1.1,0,0,0-.41-.08c-.46,0-.92,0-1.37,0l0,0H9.63l-.17,0H9.32l0,0,0,0H8.71l-.13.1h-.5a.46.46,0,0,1,0,.12v.16H9.53l1,.5h5.08a1.19,1.19,0,0,0,.43-.1,1.35,1.35,0,0,1,.39-.16h0Z"/><path d="M8,18l0,0-.27.23v1.29l-.25.18H1.85l.16.09H7.84l.25-.31V18.11Z"/><path d="M16.4,23.18a1.11,1.11,0,0,0-.31.13,1.29,1.29,0,0,1-.49.12H10.73l.61.31h4.12Z"/><path d="M1.2,23.34c-.15.4-.3.8-.46,1.19l9.51.12L11.31,24h3.35l.27-.2H11.31L9.5,22.93H8.09L8,23.82l-.46.28H2l-.35-.23A1.92,1.92,0,0,1,1.42,23a.74.74,0,0,1-.15.22A.42.42,0,0,0,1.2,23.34Z"/><polygon points="14.99 17.43 14.99 17.68 14.76 17.79 14.89 17.97 15.63 17.97 15.46 17.74 15.75 17.61 15.75 17.59 15.51 17.59 15.51 17.39 14.99 17.43"/><polygon points="14.09 17.43 14.09 17.68 13.86 17.79 13.99 17.97 14.76 17.97 14.59 17.74 14.88 17.61 14.88 17.59 14.61 17.59 14.61 17.39 14.09 17.43"/><path d="M13.6,20.45l.91.05c0-.07,0-.15,0-.24s0-.2,0-.28c-.42,0-.87,0-.92,0a.21.21,0,0,0-.08.06s0,.12,0,.24,0,.1.06.12Z"/><path d="M10,21v0l-.44.3,0-.07a3.37,3.37,0,0,1,0-1.86v0H9.4a.55.55,0,0,0-.06.14,2.19,2.19,0,0,1-.15.36h0l-.59.37.51.33a.48.48,0,0,1,.19.29l0,.2.1.07v0s0,.2.09.4c0-.13.1-.17.25-.17H13.4a6.51,6.51,0,0,1,.69,0c.05,0,.13,0,.15,0a.4.4,0,0,1,.08-.26l.05,0L10,20.91Z"/><path d="M11.8,19.39c-.68,0-1.36,0-2,0H9.65l.29.22h0l0,.12,4.61-.13v0a.53.53,0,0,1,.32-.17C13.89,19.41,12.84,19.4,11.8,19.39Z"/><polygon points="15.87 17.43 15.87 17.68 15.63 17.79 15.77 17.97 16.51 17.97 16.34 17.74 16.64 17.61 16.64 17.59 16.38 17.59 16.38 17.39 15.87 17.43"/><path d="M12.34,17.39v.24l-.38.18a.28.28,0,0,1,.23.14v0H13l-.17-.23.29-.14h-.25v-.22Z"/><polygon points="16.75 17.43 16.75 17.68 16.51 17.79 16.65 17.97 16.72 17.97 16.8 17.85 17.3 17.85 17.22 17.74 17.51 17.61 17.51 17.59 17.27 17.59 17.27 17.39 16.75 17.43"/><polygon points="20.8 19.15 20.8 18.87 19.06 18.83 19.04 19.04 18.88 19.12 20.8 19.15"/><path d="M17.62,17.43v.25l-.23.11,0,.07h.21l.14.12H18l.17-.16,0,0-.12,0,0-.1.37-.14h-.24v-.19Z"/><polygon points="16.76 23.06 17.32 23.05 17.3 22.92 16.76 22.87 16.76 23.06"/><polygon points="20.8 20.86 18.76 20.86 18.59 20.95 19.05 21.25 19.05 21.38 20.8 21.38 20.8 20.86"/><polygon points="17.36 22.9 17.36 22.9 17.36 22.9 17.36 22.9"/><polygon points="17.54 22.57 17.13 22.43 17.16 22.35 16.85 22.35 16.77 22.26 16.77 22.27 16.63 22.27 16.54 22.42 16.76 22.5 16.76 22.75 17.3 22.8 17.3 22.6 17.54 22.6 17.54 22.57"/><polygon points="17.65 23.05 18.19 23.04 18.19 22.92 17.65 22.87 17.65 23.05"/><polygon points="16.65 22.57 16.24 22.43 16.28 22.33 16.43 22.38 16.5 22.27 15.74 22.27 15.65 22.42 15.87 22.5 15.87 22.75 16.41 22.8 16.41 22.6 16.65 22.6 16.65 22.57"/><path d="M1.53,22.82a2,2,0,0,0,.22,1L2,24H7.48l.39-.24L8,22.87v-.21a.72.72,0,0,0-.1-.29l-.29-.15v0c0-.52-.06-1.31-.07-1.37a.65.65,0,0,0-.13-.2H1.74a.39.39,0,0,0-.28.35,8.16,8.16,0,0,0,0,1.2,2.47,2.47,0,0,1,0,.66Z"/><path d="M8,17.38l-.12-.86-.37-.22H2.18a.35.35,0,0,0-.22.08l-.13.11a3.08,3.08,0,0,0-.27,1.17h0a8.51,8.51,0,0,0-.07,1.54.42.42,0,0,0,.11.3l0,0H7.4l.18-.12V18.12l.31-.26A.94.94,0,0,0,8,17.38Z"/><path d="M8.75,18a4,4,0,0,0-.05.56,2.93,2.93,0,0,0,0,.65h.15a.13.13,0,0,1,.09.06.14.14,0,0,1,0,.08l.06.1.26-.23a.07.07,0,0,1-.06,0,1.07,1.07,0,0,1-.12-.58,2.79,2.79,0,0,1,.09-.6Z"/><polygon points="16.47 22.9 16.46 22.9 16.46 22.9 16.47 22.9"/><polygon points="13.24 17.43 13.24 17.68 13 17.79 13.14 17.97 13.86 17.97 13.69 17.74 13.98 17.61 13.98 17.59 13.76 17.59 13.76 17.39 13.24 17.43"/><polygon points="13.8 22.94 13.8 22.94 13.8 22.94 13.8 22.94"/><path d="M14,22.62l-.4-.14,0-.1.15.05.11-.18h-.76l-.13.22.22.08v.26l.54.05v-.2H14Z"/><path d="M14.87,22.58l-.4-.14,0-.1.15.05.07-.12h-.54v0H14l-.13.22.22.08v.26l.54.05v-.2h.24Z"/><path d="M13.41,20h0a.31.31,0,0,1,.13-.1v-.18l-.69,0v1.12l.69,0v-.35l0,0a.21.21,0,0,1-.12-.22c0-.16,0-.26,0-.26Z"/><polygon points="15.58 22.9 15.58 22.9 15.58 22.9 15.58 22.9"/><path d="M13.09,22.62l-.4-.14,0-.1.15.05.11-.18h-.49a.44.44,0,0,0-.38.14.26.26,0,0,1-.1.07l.34.17,0,.21.54.05,0-.23h.2Z"/><path d="M16.09,21H14.83a1.42,1.42,0,0,0-.42.19.37.37,0,0,0-.05.25v.77h1.74Z"/><path d="M14.1,21.42c-.26.07-.54,0-.8.07s-.21.17-.2.31a.23.23,0,0,0,.25.25l.75,0c.05,0,.13,0,.15,0v-.76C14.23,21.44,14.15,21.41,14.1,21.42Z"/><polygon points="17.34 22.35 17.23 22.35 17.32 22.38 17.34 22.35"/><polygon points="17.7 22.19 17.7 22.05 17.56 21.8 16.82 21.8 16.76 21.98 16.76 22.07 16.9 22.24 17.67 22.24 17.7 22.19"/><path d="M18.07,22.15c.14,0,.22.14.25.21a2.19,2.19,0,0,0,.33,0,.22.22,0,0,0,.15-.1l.14-.32v-.64L18.46,21h-2a.17.17,0,0,1-.12.09h0l0,0v1h.41l0,0V22l.1-.26h.88l.19.32v.14Z"/><polygon points="15.54 22.38 15.61 22.27 14.85 22.27 14.76 22.42 14.98 22.5 14.98 22.75 15.53 22.8 15.53 22.6 15.76 22.6 15.76 22.57 15.35 22.43 15.39 22.33 15.54 22.38"/><path d="M16.26,21l.09-.06v0l0-.11V19.71h0a.5.5,0,0,0,0-.2v0H15.09a.51.51,0,0,0-.39.13,1.68,1.68,0,0,0-.09.63,2.14,2.14,0,0,0,.06.59H16.2V21Z"/></svg>