<svg xmlns="http://www.w3.org/2000/svg" class="HeroAbility-icon HeroAbility-icon--hoverState" viewBox="0 0 40 40" preserveAspectRatio="xMidYMid meet"><g id="_Group_9" data-name="&lt;Group&gt;"><path id="_Path_34" data-name="&lt;Path&gt;" d="M24.52,11.15a24.59,24.59,0,0,1,3.74.48l.2,0c.54.14.59.22.52.77s-.08.65-.71.59a16.8,16.8,0,0,0-2.42-.12,1.37,1.37,0,0,0-.36.06,8.34,8.34,0,0,0-4.17,2.94,3.37,3.37,0,0,1-1.6,1.23c-.9.33-1.78.7-2.65,1.09a1.13,1.13,0,0,1-1.15-.06A3.21,3.21,0,0,0,14,17.74c-1.58,0-3.17,0-4.75,0a1.16,1.16,0,0,1-1-.35,6.64,6.64,0,0,1-.84-1,2,2,0,0,1,.44-2,.49.49,0,0,1,.3-.14c.45,0,.89-.07,1.34-.08,1.78-.06,3.57-.08,5.35-.16,1.12-.05,2.23-.2,3.35-.26a2.91,2.91,0,0,0,1.91-1,4.28,4.28,0,0,1,1.74-1.05l1.35-.41A3.21,3.21,0,0,1,24.52,11.15Z"/><path id="_Compound_Path_8" data-name="&lt;Compound Path&gt;" d="M27.26,26.11A5.69,5.69,0,0,1,21.6,21a5.56,5.56,0,0,1,.57-3c.09-.2.19-.34.42-.15s.28,0,.38-.08A10.41,10.41,0,0,1,25.09,16c.17-.11.33-.26.23-.47s0-.35.25-.41a5.39,5.39,0,0,1,2.89-.1,5.61,5.61,0,0,1-.64,11Zm-3.93-5.68a4.24,4.24,0,1,0,4.26-4.24A4.24,4.24,0,0,0,23.33,20.43Z"/><path id="_Path_35" data-name="&lt;Path&gt;" d="M37.55,11.55A3.54,3.54,0,0,1,37,14a.91.91,0,0,1-.38.32c-.79.33-1.58.65-2.36,1a.39.39,0,0,1-.52-.13,12.93,12.93,0,0,0-1.45-1.5.35.35,0,0,1-.14-.35.44.44,0,0,0-.26-.49,9.71,9.71,0,0,0-2.47-1.15,25.09,25.09,0,0,0-5.19-.76h-.34c-.08,0-.16,0-.2-.1a.18.18,0,0,1,.07-.21A1.57,1.57,0,0,1,24.91,10c1.92.06,3.84,0,5.76.08a5,5,0,0,0,2.17-.36,2.53,2.53,0,0,1,1-.18c.68,0,1.37,0,2.05-.07a.76.76,0,0,1,.66.25,2.09,2.09,0,0,0,.29.28C37.4,10.44,37.84,10.89,37.55,11.55Z"/><path id="_Path_36" data-name="&lt;Path&gt;" d="M21.08,25.59a.51.51,0,0,1,.55.28,3.88,3.88,0,0,0,1.12.9,6.79,6.79,0,0,0,3.71,1.06,6.9,6.9,0,0,0,2.37-.22,9.08,9.08,0,0,0,2.9-1.74,5.62,5.62,0,0,0,1.62-2.36c.18-.46.19-.46.65-.3l.61.2c.21.07.28.2.17.41-.3.64-.57,1.3-.89,1.92a5,5,0,0,1-.95,1.13A11.13,11.13,0,0,1,31,28.44a10.07,10.07,0,0,1-4.26,1.23,8.43,8.43,0,0,1-1.73-.2,9.24,9.24,0,0,1-3.76-1.55,9.89,9.89,0,0,1-1.92-1.83c-.18-.18,0-.22.16-.24Z"/><path id="_Path_37" data-name="&lt;Path&gt;" d="M33,22.8c.1.15,0,.3,0,.44a4.6,4.6,0,0,1-1,1.59c-.32.34-.68.65-1,1a6,6,0,0,1-4,1.47,6.67,6.67,0,0,1-3.06-.49,5.31,5.31,0,0,1-3-3,1.1,1.1,0,0,0-.26-.5c-.19-.16-.16-.31,0-.44a.53.53,0,0,0,.18-.62,11,11,0,0,1-.17-2.55c0-.12,0-.26-.09-.34s-.24.07-.34.14a1.21,1.21,0,0,1-.22.15c-.22.08-.47.18-.64-.07a.63.63,0,0,1,.22-.79,1.11,1.11,0,0,0,.64-.81A1.32,1.32,0,0,1,21,17c.31-.16.49-.57.72-.87a7.5,7.5,0,0,1,2.83-2.27,2.28,2.28,0,0,1,1.66-.24.5.5,0,0,0,.2,0,5.74,5.74,0,0,1,3.15.67,14.9,14.9,0,0,1,1.73,1,.71.71,0,0,1,.16.13,9,9,0,0,1,1.81,2.78.79.79,0,0,1,0,.33c0,.41-.05.82.45,1a.25.25,0,0,1,.14.22,5.38,5.38,0,0,1,0,1.44c0,.13-.08.21-.22.2s-.27-.07-.27-.24,0-.45,0-.67a6,6,0,0,0-2.77-5.18,6.23,6.23,0,1,0-4.21,11.4,6,6,0,0,0,5.4-2A5.78,5.78,0,0,0,32.86,23C32.89,22.92,32.9,22.82,33,22.8Z"/><path id="_Path_38" data-name="&lt;Path&gt;" d="M38.65,20.69c0,1-.29,1.35-1.24,1.57a2.37,2.37,0,0,0-1.35.92c-.3.38-.31.34-.74.13s-1-.43-1.48-.65l-.36-.17c-.2-.1-.21-.26-.16-.46a.34.34,0,0,1,.36-.28c.51,0,.5-.06.55-.55a7.65,7.65,0,0,0,0-1.68c0-.22-.08-.39-.33-.43a.27.27,0,0,1-.24-.28c0-.16.12-.21.24-.24l.75-.18a3.59,3.59,0,0,0,.84-.23,1.12,1.12,0,0,1,1.39.31,12.23,12.23,0,0,0,1.45,1.19.67.67,0,0,1,.35.78A1.22,1.22,0,0,0,38.65,20.69Z"/><path id="_Path_39" data-name="&lt;Path&gt;" d="M3.55,23.29H2.81a1,1,0,0,1-1.13-1,3.34,3.34,0,0,1,0-1.2,1,1,0,0,1,.39-.68c.12-.08.21-.23,0-.3-1-.3-1-1-1-2a2.41,2.41,0,0,1,.05-.33,1,1,0,0,1,1-.86H3.8a.59.59,0,0,1,.55.32A.83.83,0,0,1,4,18.51a.39.39,0,0,0-.27.42c0,.15,0,.29,0,.43a.41.41,0,0,0,.51.43c.37,0,.39,0,.26.34-.06.16,0,.24.14.28s.22.16.19.33a2.33,2.33,0,0,0,0,.44.5.5,0,0,1-.3.52c-.45.17-.28.52-.28.83a.5.5,0,0,0,.46.53c.07,0,.18,0,.16.12s-.11.1-.19.11H3.55Z"/><path id="_Compound_Path_9" data-name="&lt;Compound Path&gt;" d="M13,18.2c.21,0,.43,0,.64,0a4,4,0,0,1,2.45.51.83.83,0,0,0,.81,0c.42-.19.86-.34,1.28-.53.26-.11.35,0,.34.23s0,.63,0,.94-.12.34-.35.34c-.47,0-.94,0-1.41,0a.34.34,0,0,0-.41.33,1.65,1.65,0,0,0,0,.6c0,.17.14.22.32.21.47,0,.94,0,1.41,0,.28,0,.41.13.41.41q0,.66,0,1.31c0,.23-.05.32-.29.19-.48-.26-1-.51-1.46-.76a.64.64,0,0,0-.45-.09,6.55,6.55,0,0,0-1.32.49c-.2.1-.17.32-.19.51,0,.43-.07.47-.51.48l-3.17,0c-.16,0-.19-.08-.21-.19A13.58,13.58,0,0,1,10.6,20c0-.46,0-.92.09-1.38,0-.29.17-.41.46-.4C11.76,18.21,12.37,18.2,13,18.2Zm-1.43,2h0c0,.39,0,.78,0,1.18,0,.57.1.67.66.68.93,0,1.86,0,2.79,0a.43.43,0,0,0,.22-.07c.22-.11.44-.21.67-.3.45-.18.53-.38.39-.86a1.36,1.36,0,0,1,0-1.11.5.5,0,0,0-.11-.71,2,2,0,0,0-1.37-.54,3.81,3.81,0,0,1-1.3,0,4.12,4.12,0,0,0-1.42-.14.51.51,0,0,0-.57.56C11.54,19.31,11.55,19.75,11.55,20.19Z"/><path id="_Compound_Path_10" data-name="&lt;Compound Path&gt;" d="M17.1,26.2c-.9-.14-1.79-.41-2.07-1.35a5,5,0,0,1,.06-2.13c0-.09.11-.13.2-.16l.89-.31a.53.53,0,0,1,.45,0l3.79,2.07a.7.7,0,0,1,.32.33c.22.46.12.67-.37.75A9.65,9.65,0,0,0,18,26,2.73,2.73,0,0,1,17.1,26.2Zm-.68-2.86c0-.22-.13-.39-.38-.39s-.32.22-.34.42a.32.32,0,0,0,.35.36C16.29,23.74,16.39,23.57,16.42,23.35Z"/><path id="_Path_40" data-name="&lt;Path&gt;" d="M7.22,23.55c-.9,0-.78.07-.86-.78A15.06,15.06,0,0,0,6,19.53,3.82,3.82,0,0,1,6,17.7c.07-.39.15-.77.21-1.16,0-.13,0-.29.2-.29s.45-.09.57.16a5.53,5.53,0,0,0,.88,1.23.51.51,0,0,1,.12.43,17.17,17.17,0,0,0-.15,1.88,16.39,16.39,0,0,0,.34,3.14c.06.27,0,.39-.29.43S7.42,23.54,7.22,23.55Z"/><path id="_Path_41" data-name="&lt;Path&gt;" d="M8.73,20.33a14.13,14.13,0,0,1,.08-1.65c0-.42.1-.48.52-.48h.74c.36,0,.41.07.37.43a13.13,13.13,0,0,0,0,3.63c.06.39.12.78.2,1.16s-.06.38-.31.4a2.74,2.74,0,0,1-.87-.09c-.26-.05-.34-.3-.41-.53A9.87,9.87,0,0,1,8.73,20.33Z"/><path id="_Path_42" data-name="&lt;Path&gt;" d="M29.76,14c.72-.12,1.36-.08,2-.22a.63.63,0,0,1,.54.21,9.39,9.39,0,0,1,2.5,3.74c.08.18,0,.28-.17.32h0c-.77.22-.73.21-1.1-.49a8,8,0,0,0-2-2.59,9.3,9.3,0,0,0-1.28-.74Z"/><path id="_Compound_Path_11" data-name="&lt;Compound Path&gt;" d="M13,23.59c.45,0,.9,0,1.35,0s.43.13.4.42c0,.09,0,.18,0,.27,0,.5-.06.56-.57.55a.64.64,0,0,0-.6.34c-.16.25-.27.55-.58.67a1.24,1.24,0,0,1-1.78-1.14c0-.23,0-.47,0-.71s.14-.4.42-.4H13Zm-.61,1.9a.78.78,0,0,0,.8-.77.75.75,0,0,0-.75-.82.88.88,0,0,0-.84.85A.72.72,0,0,0,12.35,25.49Z"/><path id="_Path_43" data-name="&lt;Path&gt;" d="M20.4,24l-1.49-.88a.35.35,0,0,1-.14-.33c0-.25,0-.49,0-.74a.47.47,0,0,1,.23-.42c.19-.13.38-.29.58-.4a.9.9,0,0,0,.54-1c0-.08,0-.22.07-.23s.12.14.12.23a12.45,12.45,0,0,0,.18,1.87.49.49,0,0,1-.14.46.61.61,0,0,0-.11.82A1.12,1.12,0,0,1,20.4,24Z"/><path id="_Path_44" data-name="&lt;Path&gt;" d="M17.66,19.94c.29,0,.58,0,.87,0s.27-.07.26-.28c0-.48,0-1,0-1.45a.41.41,0,0,1,.29-.44l.65-.27c.07,0,.15-.09.22,0s0,.15,0,.22a.71.71,0,0,1-.6.64c-.29,0-.39.2-.33.5a1.46,1.46,0,0,1,0,.63c-.08.33,0,.42.33.47s.45,0,.51.26a.6.6,0,0,1-.3.69c-.16.1-.32.21-.48.32s-.24.09-.27-.12c-.09-.59-.12-.61-.73-.61H16.91c-.19,0-.34,0-.34-.28s.15-.3.35-.3h.74Z"/><path id="_Path_45" data-name="&lt;Path&gt;" d="M5.75,17.65a4.76,4.76,0,0,0,0,2,.44.44,0,0,1-.5.48c-.11,0-.19,0-.21-.18a.68.68,0,0,0-.54-.57.32.32,0,0,1-.13-.57A.91.91,0,0,0,4.7,18a2.37,2.37,0,0,1,0-.3c.06-.44.06-.44.49-.36a1.44,1.44,0,0,0,.27,0C5.69,17.38,5.78,17.46,5.75,17.65Z"/><path id="_Path_46" data-name="&lt;Path&gt;" d="M30.37,13.52a2.61,2.61,0,0,1-.86-.05.31.31,0,0,1-.25-.4,7.48,7.48,0,0,0,.11-.8c0-.28.16-.35.4-.25a13.32,13.32,0,0,1,1.92,1c.08,0,.16.1.15.2s-.11.16-.21.19A5.47,5.47,0,0,1,30.37,13.52Z"/><path id="_Path_47" data-name="&lt;Path&gt;" d="M6.07,22.3c0,.52,0,.57-.45.58a2,2,0,0,1-.72-.16A.41.41,0,0,1,4.79,22a1,1,0,0,0,.4-.77,1.52,1.52,0,0,1,.12-.39.33.33,0,0,1,.39-.24c.22,0,.29.16.29.34A7.86,7.86,0,0,0,6.07,22.3Z"/><path id="_Path_48" data-name="&lt;Path&gt;" d="M8.83,23.5A.7.7,0,0,1,8.41,23a15.37,15.37,0,0,1-.2-4.58c0-.11,0-.25.17-.24s.19.14.19.28c0,.45,0,.9-.07,1.34a10.14,10.14,0,0,0,.26,3.13c0,.16.08.33.11.49A.35.35,0,0,1,8.83,23.5Z"/><path id="_Path_49" data-name="&lt;Path&gt;" d="M22.75,17.38a.1.1,0,0,1-.12-.05.14.14,0,0,1,0-.16c.13-.17.26-.34.4-.49a5.26,5.26,0,0,1,1.3-1.05,1.06,1.06,0,0,1,.28-.11.14.14,0,0,1,.16.09.12.12,0,0,1-.06.14,12.57,12.57,0,0,0-1.91,1.58A.28.28,0,0,1,22.75,17.38Z"/><path id="_Path_50" data-name="&lt;Path&gt;" d="M25.64,20.33c0-.33,0-.65,0-1s-.11-.44-.48-.42c-.16,0-.38.13-.47,0s.1-.32.2-.46a3.39,3.39,0,1,1-.24,3.7,1.93,1.93,0,0,1-.11-.21c-.07-.17,0-.22.17-.21.93,0,.93,0,.93-.89,0-.17,0-.34,0-.51Z"/><path id="_Path_51" data-name="&lt;Path&gt;" d="M25.23,20.29c0,.17,0,.34,0,.5s0,.43-.33.44c-.46,0-.62-.08-.67-.41a2.61,2.61,0,0,1,0-.77c.07-.54.14-.61.69-.68.21,0,.3.05.3.25s0,.45,0,.67Z"/><path id="_Path_52" data-name="&lt;Path&gt;" d="M13.56,21.8H12.26c-.28,0-.42-.1-.42-.39,0-.81,0-1.61,0-2.42,0-.26.12-.4.39-.4a4.29,4.29,0,0,1,1.16.1,4.82,4.82,0,0,0,1.34,0,2,2,0,0,1,1.05.29c.25.15.4.33.23.69a1.63,1.63,0,0,0,0,1.18c.11.34,0,.45-.28.6A4.21,4.21,0,0,1,13.56,21.8Z"/><path id="_Path_53" data-name="&lt;Path&gt;" d="M12.41,24.27a.4.4,0,0,1,.4.44.41.41,0,0,1-.4.45.47.47,0,0,1-.46-.45A.47.47,0,0,1,12.41,24.27Z"/></g></svg>