<svg xmlns="http://www.w3.org/2000/svg" class="HeroAbility-icon HeroAbility-icon--hoverState" viewBox="0 0 40 40" preserveAspectRatio="xMidYMid meet"><path d="M33.33,7.31l-.81.48-6.66,3.89L20.1,15l-4.2,2.45a1,1,0,0,0-.34.34q-1.17,1.88-2.41,3.72a9.34,9.34,0,0,0-.93,1.5c0,.06-.1.14-.06.19s.15,0,.21,0l2-.69c.27-.09.57-.13.71-.45,0-.05.1-.08.15-.11l1.55-1.05a.31.31,0,0,1,.41,0c.12.09.26.14.39.22a.3.3,0,0,0,.38,0c.91-.64,1.76-1.35,2.64-2,1.83-1.38,3.7-2.72,5.46-4.19q1.37-1.14,2.69-2.33c1-.94,2-1.93,3-2.9a5.39,5.39,0,0,0,1.12-1.36c.15-.29.34-.56.5-.84l.08-.14C33.46,7.22,33.39,7.27,33.33,7.31Z"/><path d="M25.65,19.16,21.79,20.4,17.08,21.9c-1.62.52-3.23,1-4.85,1.55a.91.91,0,0,0-.6.51,7.27,7.27,0,0,1-.92,1.63.39.39,0,0,0-.06.22c-.08.58-.06,1.16-.13,1.74A3.35,3.35,0,0,1,10,29.1a.2.2,0,0,0,0,.18c0,.14.06.28.09.42s0,.15.11.17a.45.45,0,0,1,.24.2.51.51,0,0,0,.47.23c.18,0,.35,0,.53,0,1.29,0,2.58.17,3.94.15a22.62,22.62,0,0,0,2.47-.12,1.65,1.65,0,0,0,.72-.14c.1-.06.3-.06.29-.17s-.21-.1-.33-.12l-3.31-.6-4.23-.78c-.06,0-.16,0-.16-.06s.09-.09.16-.1c.27,0,.54,0,.8-.1a.47.47,0,0,1,.51.15.53.53,0,0,0,.58.15L15,28.2c1.23-.2,2.46-.42,3.68-.74.82-.21,1.62-.49,2.43-.73a3.42,3.42,0,0,0,.91-.55s.06,0,0-.09-.06,0-.11-.05h-.19c-1.06,0-2.12.05-3.17.1l-1.36,0-4.56.16c-.07,0-.18,0-.21,0s.05-.16.12-.21a.47.47,0,0,1,.15-.08,5.39,5.39,0,0,0,.67-.27.74.74,0,0,1,.95.09.24.24,0,0,0,.29,0l3.82-1.79A42.94,42.94,0,0,0,23.87,21a6,6,0,0,0,1.91-1.63c0-.07.17-.13.11-.23S25.73,19.13,25.65,19.16Z"/><path d="M10.58,31.45a4.29,4.29,0,0,1-.88-2c0-.14-.11-.2-.25-.2a1.61,1.61,0,0,1-1-.45s-.11-.08-.08-.17l.42.06c.73.08,1.22-.14,1.28-1a10.86,10.86,0,0,0-.06-2.1c0-.19,0-.24.2-.25a1,1,0,0,0,.8-.51,37.18,37.18,0,0,0,2.33-4.12c.42-.85.82-1.72,1.27-2.56a14.23,14.23,0,0,0,.89-1.72s.05-.08,0-.12-.08,0-.12,0a1.45,1.45,0,0,0-.7.38,4.4,4.4,0,0,1-.59.53,30.25,30.25,0,0,0-2.81,2.38c-.76.72-1.47,1.49-2.17,2.26-.52.57-1,1.19-1.45,1.79a.55.55,0,0,0-.09.57c.15.44.24.9.38,1.41a1.85,1.85,0,0,1-.39-.39c-.11-.13-.19-.13-.27,0s-.21.39-.3.59a3.64,3.64,0,0,0-.43,2.34.38.38,0,0,1,0,.11,1.26,1.26,0,0,0,.21.85,7.38,7.38,0,0,0,.74.93,13.09,13.09,0,0,0,2.64,2,.46.46,0,0,0,.6-.11c.15-.15,0-.25-.07-.38A.69.69,0,0,0,10.58,31.45Z"/></svg>