<svg xmlns="http://www.w3.org/2000/svg" class="HeroAbility-icon HeroAbility-icon--hoverState" viewBox="0 0 40 40" preserveAspectRatio="xMidYMid meet"><path d="M7.94,8.4l-.9,6a.24.24,0,0,0,.06.2l.79.79,4.95-3L15.6,7.74l-.79-.79a.24.24,0,0,0-.2-.06l-6,.9A.75.75,0,0,0,7.94,8.4Z"/><path d="M8.42,16.7l-.15.15s2.48,12.86,2.54,13a3.7,3.7,0,0,0,.77.5l1-8.21L10.71,20l.45-2.47L9.63,16l-1,.59Zm21.57-6c-.13-.06-13-2.54-13-2.54l-.16.16-.12.21-.58,1L17.67,11l2.47-.45,2.15,1.82,8.21-1A3.7,3.7,0,0,0,30,10.66ZM13.84,13.41l-.23.14-3.13,1.9,1.3,1.3.69-.69,1.64.93,1.52,2.28,5.54,2.33.29-.29.29-.29-2.33-5.54L17.14,14l-.93-1.64.69-.69-1.27-1.27L14,13.19Z"/><path d="M31,27.81c-.15.16-.33.32-.5.48L22,19l1,2.45L21.62,22.9l-2.45-1,9.13,8.31-.73.64c.82.68,1.69,1.35,2.4,2,.93-1,2.31-2,3.4-3C32.56,29.13,31.68,28.46,31,27.81Z"/></svg>