<svg xmlns="http://www.w3.org/2000/svg" class="HeroAbility-icon HeroAbility-icon--hoverState" viewBox="0 0 40 40" preserveAspectRatio="xMidYMid meet"><g id="_Group_2" data-name="&lt;Group&gt;"><rect id="_Path_" data-name="&lt;Path&gt;" x="7.6" y="18.85" width="12.58" height="2.96"/><g id="_Group_3" data-name="&lt;Group&gt;"><path id="_Compound_Path_3" data-name="&lt;Compound Path&gt;" class="cls-1" d="M31.55,15.79a2.2,2.2,0,0,0-.25-.84,1.56,1.56,0,0,0-.58-.59L20.76,9a5.89,5.89,0,0,0-1.65-.5A2.63,2.63,0,0,0,17.41,9l-5.78,6,5.31-3.48a3.44,3.44,0,0,1,1.42-.29,4,4,0,0,1,1.55.51l4.85,4.16a2.37,2.37,0,0,0-1.13,1.85v0l-2.48,1.07v1.26h0v.44h0v1.26l2.48,1.07s0,0,0,0a2.37,2.37,0,0,0,1.13,1.85l-4.85,4.16a4,4,0,0,1-1.55.51,3.43,3.43,0,0,1-1.42-.29l-5.31-3.48,5.78,6a2.63,2.63,0,0,0,1.71.47,5.89,5.89,0,0,0,1.65-.5l10-5.35a1.56,1.56,0,0,0,.58-.59,2.2,2.2,0,0,0,.25-.84V23.36s-.63-.81-1.3-1.51l-.53-.29V19.1l.53-.29c.68-.7,1.3-1.51,1.3-1.51Zm-5.69.5a1.57,1.57,0,1,1-1.57,1.57A1.58,1.58,0,0,1,25.87,16.28Zm0,8.1a1.57,1.57,0,1,1,1.57-1.57A1.58,1.58,0,0,1,25.87,24.38Z"/><circle id="_Path_2" data-name="&lt;Path&gt;" cx="25.87" cy="22.81" r="1"/><circle id="_Path_3" data-name="&lt;Path&gt;" cx="25.87" cy="17.87" r="1"/></g></g></svg>