<svg xmlns="http://www.w3.org/2000/svg" class="HeroAbility-icon HeroAbility-icon--hoverState" viewBox="0 0 40 40" preserveAspectRatio="xMidYMid meet"><g id="_Group_19" data-name="&lt;Group&gt;"><path id="_Compound_Path_" data-name="&lt;Compound Path&gt;" d="M31.06,21.06c2.11-2.85,2.74-5.41,1.59-6.56a2.12,2.12,0,0,0-1.56-.56c-1.9,0-4.73,1.6-7.2,4.07l-.55.57c-.1-4.87-1.11-9.67-2.91-9.67-1.59,0-2.47,3.66-2.78,7.18-1.12-.79-2.22-1-2.95-.56a1.52,1.52,0,0,0-.37.33,8.12,8.12,0,0,0-4-1.37,2.59,2.59,0,0,0-1.91.69c-1.12,1.12-.87,3.35.64,5.85-1.22.16-2,.63-2.23,1.32-.46,1.47,1.78,3.45,5.34,4.72v.26l0,.14h0c.46,1.79,3.94,3.12,8.19,3.12s7.72-1.33,8.19-3.12h0v-.41c0-.11,0-.22,0-.32,3.1-1.29,4.89-3,4.47-4.38C32.92,21.7,32.19,21.24,31.06,21.06Zm-4.31-2.74a.34.34,0,0,1,.21.06c.32.25.08,1.43-.84,2.94A8.2,8.2,0,0,0,24.22,20,4.83,4.83,0,0,1,26.75,18.32Zm2.39,5c.39-.39.77-.8,1.12-1.21.23.08.48.21.54.41.15.47-.67,1.39-2.5,2.28-.05-.17-.12-.35-.18-.52C28.48,23.92,28.82,23.6,29.15,23.27Zm.82-8a1,1,0,0,1,.72.24c.75.75-.31,3.23-2.38,5.53l-.78.12c1.07-1.9,1.3-3.4.59-4a1,1,0,0,0-.66-.21c-1,0-2.47,1-3.94,2.65l-.07,0c.31-.37.64-.72,1-1.05C26.41,16.63,28.63,15.3,30,15.3ZM27.39,22l-.33.31-.13-.17,0-.07Zm-12.57-.81c-.16.14-.31.29-.45.44a17.26,17.26,0,0,0-2.44-.55c-1.64-2.08-2.3-4.22-1.53-5,.57-.57,2-.36,3.52.53A6.86,6.86,0,0,0,14.82,21.22ZM12.47,25l0,.17c-2-.86-3.05-1.93-2.85-2.49a.7.7,0,0,1,.36-.35A16.83,16.83,0,0,0,11.42,24C11.76,24.34,12.11,24.67,12.47,25Zm1.35-2.67c-.12.16-.24.32-.35.49l-.4-.38-.29-.29C13.12,22.16,13.47,22.22,13.82,22.3Zm3.63-2.67a8.3,8.3,0,0,0-1.34.64,5.65,5.65,0,0,1-.72-2.62,14.54,14.54,0,0,1,1.29,1.14C16.95,19.07,17.21,19.35,17.45,19.63Zm.06-1.17-.27-.28a16.91,16.91,0,0,0-1.55-1.37l.13-.1c.38-.22,1-.05,1.75.43C17.54,17.58,17.52,18,17.51,18.47Zm2,.68a8.6,8.6,0,0,0-1.2.22l-.06-.07c0-.52,0-1.05,0-1.57A8.8,8.8,0,0,1,19.51,19.15Zm-1.16-2.48c.28-3.75,1-5.31,1.37-5.31.5,0,1.44,2.67,1.47,7.78-.26,0-.52,0-.77,0h-.1L20.27,19A11,11,0,0,0,18.35,16.67Z"/></g></svg>