<svg xmlns="http://www.w3.org/2000/svg" class="HeroAbility-icon HeroAbility-icon--hoverState" viewBox="0 0 40 40" preserveAspectRatio="xMidYMid meet"><polygon points="5.92 21.55 5.92 25.62 9.44 27.65 12.96 25.62 12.96 21.55 9.44 19.52 5.92 21.55"/><polygon points="30.56 6.59 27.04 8.62 27.04 12.69 28.97 13.8 25.57 21.36 23.45 20.13 17.7 23.45 17.7 30.09 23.45 33.41 29.2 30.09 29.2 23.45 26.07 21.65 29.48 14.1 30.56 14.72 34.08 12.69 34.08 8.62 30.56 6.59"/><polygon points="19.65 12.97 22.67 14.72 26.19 12.69 26.19 8.62 22.67 6.59 19.15 8.62 19.15 12.61 16.46 14.36 13.44 12.61 9.92 14.64 9.92 18.71 13.44 20.74 16.96 18.71 16.96 14.73 19.65 12.97"/></svg>