<svg xmlns="http://www.w3.org/2000/svg" class="HeroAbility-icon HeroAbility-icon--hoverState" viewBox="0 0 40 40" preserveAspectRatio="xMidYMid meet"><circle cx="19.87" cy="20" r="5.04"/><path d="M13.57,25.57l0,0a10.44,10.44,0,0,1-2.69-5.76.21.21,0,0,0-.2.08c-.4.55-.77,1.11-1.13,1.68a8,8,0,0,1-1-3.5l0,0a3.57,3.57,0,0,0-.29,1.48c-.88-2.31-.5-5.2.31-7.61a7,7,0,0,0-1,1.39,10.62,10.62,0,0,0-1.05,3.06A8.87,8.87,0,0,0,8.1,23.55c.18.2.14.06.14.27a10.3,10.3,0,0,1-.84,1.25c-.09.13,0,.13.14.19a10.6,10.6,0,0,0,6,.6A.18.18,0,0,0,13.57,25.57Z"/><path d="M8.83,15.42l0-.07a10.78,10.78,0,0,1,2.72-4.62.22.22,0,0,0-.32,0,5.57,5.57,0,0,0-2,2,8.81,8.81,0,0,0-.61,2.45A.21.21,0,0,0,8.83,15.42Z"/><path d="M26.43,14.72l0,0a10.44,10.44,0,0,1,2.69,5.76.21.21,0,0,0,.2-.08c.4-.55.77-1.11,1.13-1.68a8,8,0,0,1,1,3.5l0,0a3.57,3.57,0,0,0,.29-1.48c.88,2.31.5,5.2-.31,7.61a7,7,0,0,0,1-1.39,10.62,10.62,0,0,0,1.05-3.06,8.87,8.87,0,0,0-1.69-7.16c-.18-.2-.14-.06-.14-.27a10.3,10.3,0,0,1,.84-1.25c.09-.13,0-.13-.14-.19a10.6,10.6,0,0,0-6-.6A.18.18,0,0,0,26.43,14.72Z"/><path d="M31.17,24.87l0,.07a10.78,10.78,0,0,1-2.72,4.62.22.22,0,0,0,.32,0,5.57,5.57,0,0,0,2-2,8.81,8.81,0,0,0,.61-2.45A.21.21,0,0,0,31.17,24.87Z"/><path d="M14.44,13.57l0,0a10.44,10.44,0,0,1,5.76-2.69.21.21,0,0,0-.08-.2c-.55-.4-1.11-.77-1.68-1.13a8,8,0,0,1,3.5-1l0,0a3.57,3.57,0,0,0-1.48-.29c2.31-.88,5.2-.5,7.61.31a7,7,0,0,0-1.39-1,10.62,10.62,0,0,0-3.06-1.05A8.87,8.87,0,0,0,16.46,8.1c-.2.18-.06.14-.27.14a10.3,10.3,0,0,1-1.25-.84c-.13-.09-.13,0-.19.14a10.6,10.6,0,0,0-.6,6A.18.18,0,0,0,14.44,13.57Z"/><path d="M24.59,8.83l.07,0a10.78,10.78,0,0,1,4.62,2.72.22.22,0,0,0,0-.32,5.57,5.57,0,0,0-2-2,8.81,8.81,0,0,0-2.45-.61A.21.21,0,0,0,24.59,8.83Z"/><path d="M25.29,26.43l0,0a10.44,10.44,0,0,1-5.76,2.69.21.21,0,0,0,.08.2c.55.4,1.11.77,1.68,1.13a8,8,0,0,1-3.5,1l0,0a3.57,3.57,0,0,0,1.48.29c-2.31.88-5.2.5-7.61-.31a7,7,0,0,0,1.39,1,10.62,10.62,0,0,0,3.06,1.05,8.87,8.87,0,0,0,7.16-1.69c.2-.18.06-.14.27-.14a10.3,10.3,0,0,1,1.25.84c.13.09.13,0,.19-.14a10.6,10.6,0,0,0,.6-6A.18.18,0,0,0,25.29,26.43Z"/><path d="M14.92,31.09a11,11,0,0,1-4.47-2.69.22.22,0,0,0,0,.32,5.57,5.57,0,0,0,2,2,8.8,8.8,0,0,0,2.45.61H15A.67.67,0,0,1,14.92,31.09Z"/></svg>