<svg xmlns="http://www.w3.org/2000/svg" class="HeroAbility-icon HeroAbility-icon--hoverState" viewBox="0 0 40 40" preserveAspectRatio="xMidYMid meet"><path d="M11.33,24.67a.27.27,0,0,0,.13-.19.26.26,0,0,0-.07-.21l-.18-.13-.44.88Z"/><path d="M3.54,24.22a1.5,1.5,0,0,1-.45-.57L3,23.49a1.6,1.6,0,0,0,.63,1.24l2.84,2.18a1.06,1.06,0,0,1,.17-.28Z"/><path d="M11.79,29.26c.18-.65.2-1.94-1.59-3.33L9.79,26l0,.06a1.09,1.09,0,0,1-.55.45,1.64,1.64,0,0,1-.63.07l-.42,0h0l-.2.08-.6.24L7.2,27H7.12l-.06,0-.17-.13a.83.83,0,0,0-.16.28l0,.14,0,.15,0,.22c-.08.39.77,1.13,1.33,1.5l0,0a6.74,6.74,0,0,0,.88,1,2.14,2.14,0,0,0,2.17.4c.21-.14.72-.53,1-.74A.55.55,0,0,1,11.79,29.26Z"/><path d="M3.71,24l3.18,2.46.12.1.14.11h0l.06,0,.34-.14h0l-.08,0h0l-.1-.06-.06,0A35.27,35.27,0,0,1,4.14,23.8,1.65,1.65,0,0,1,3.71,23l-.31-1.17a1.63,1.63,0,0,1,.09-1.1l.31-.69L3,21.55a1.17,1.17,0,0,0,0,1.05l.41.93A1.22,1.22,0,0,0,3.71,24Z"/><path d="M6.15,19.47l0,0a.14.14,0,0,1-.08,0l-.1,0-.1.12,0,0-.13.14,0,0L5.53,20l0,0-.11.13,0,0-.09.1,0,0-.08.09,0,0-.06.07h0l0,.06-.18.88a.88.88,0,0,0,0,.33l.2,1.1a.5.5,0,0,0,.1.22,6.12,6.12,0,0,0,.76.71,23.72,23.72,0,0,0,2.53,1.82.36.36,0,0,0,.23,0h0l.17,0,1.08-.22a.75.75,0,0,0,.52-.4L11,23.87h0l.49-1,.39-.78c0-.13-.12-.68-1-.89a1.54,1.54,0,0,0-1.56.63,3,3,0,0,1-.13,1.93.14.14,0,0,1-.14.09H9A.14.14,0,0,1,9,23.68a3,3,0,0,0,.17-.63,2.88,2.88,0,0,0,0-.6A2.41,2.41,0,0,0,9.1,22l-2.35-.38s-.84-.34-.9-.64a3.58,3.58,0,0,1,.21-1.33Z"/><path d="M5.94,17.07l-.05.09,0,.07h0Z"/><path d="M10.25,17.52l.09,0,.09,0L11.85,17a1,1,0,0,1,.34-.63,1.65,1.65,0,0,1,.23-.19l-1.57.43h-.11l0,0h0l0,0-.13-.45L10.4,16l-.1,0-.1,0a5.87,5.87,0,0,1-1.73-1.1.14.14,0,0,1,0-.09l0-.57a.14.14,0,0,1,.11-.15h0L8.79,14l-.65-.34-.89.54a.43.43,0,0,1,.06.39l0,.15v0L7,15.38a.14.14,0,0,1-.07.08l-.29.14a6.49,6.49,0,0,1-.4.87h.3l.13,0h0l.12,0h.05l.19-.05.66-.9a.14.14,0,0,1,.09-.06l.63-.11a.14.14,0,0,1,.1,0l.58.33a.31.31,0,0,1,.14.38l0,0h0a.14.14,0,0,1,0,0h0a.14.14,0,0,1,0,0l-.21.44a.14.14,0,0,1-.06.06l-.33.18L8.57,17l0,0-.13.15,0,0-.17.18h0c-.29.31-.62.64-.9.92l.2,0Z"/><path d="M5.76,18.62l0-.45v0l-.09.22,0,0-.1.22,0,0L5.36,19l0,.07-.14.27v0l-.07.14,0,0,0,.09,0,0,0,.08v0l0,.07V20s0,.05,0,.08v0s0,.06,0,.09v.08H5l0,0,.07-.09,0-.05.09-.1.05-.06.09-.11.06-.07.16-.18,0,0-.1-.19a.14.14,0,0,1,0-.13Z"/><path d="M3.67,21.8,4,23a1.37,1.37,0,0,0,.36.62A35.06,35.06,0,0,0,7.5,26.17a.46.46,0,0,0,.21.08h.2l.2,0h.1l.46,0a1.25,1.25,0,0,0,.43-.05A.83.83,0,0,0,9.49,26l0,0,.1-.16,0,0h0L8.73,26H8.41l-.11,0L8,25.71a17.31,17.31,0,0,1-3-2.38l-.07-.1A.78.78,0,0,1,4.77,23l-.2-1.1a1.17,1.17,0,0,1,0-.44l.17-.87h0v-.36s0,0,0-.06,0,0,0,0,0,0,0-.07v0s0-.07,0-.11h0l0-.11v0l0-.09v0l0-.09,0,0,0-.1,0,0,.07-.15a7.77,7.77,0,0,0,.66-1.54l-.43.67-.3.71a.14.14,0,0,1-.14.09h0L4.14,20h0l-.4.87A1.35,1.35,0,0,0,3.67,21.8Z"/><path d="M4.67,17.85l.06,0,0,0,.12.08L5,18H5c.27-.4.48-.75.66-1.05l.09-.16.07-.12.09-.17,0-.07L6,16.31l.08-.15.16-.34h0l0-.1h0l.06-.15h0v0h0v0a.14.14,0,0,1,.07-.09l.29-.14.14-.41-.4-.1a12,12,0,0,1-2,1.25.15.15,0,0,0-.1.14l0,1.19Z"/><polygon points="6.16 18.64 6.06 18.66 6.06 18.66 6.03 18.71 6.03 18.72 6.03 18.72 6.03 18.72 6.03 18.72 5.72 19.28 5.73 19.31 5.73 19.31 5.84 19.29 5.94 19.28 6.32 18.86 6.16 18.64"/><path d="M6.52,18.66h0l.52-.5,0,0,.39-.39,0,0,.12-.13,0,0,.2-.21.09-.09L8,17.15,8.18,17l0,0,.12-.13,0,0,.13-.16,0,0,.31-.18L9,16.12H9l-.33-.2a5.84,5.84,0,0,1-2.25.83.15.15,0,0,0-.14.12h0L6,18.13l0,.25H6l.18,0h.1l0,0Z"/><polygon points="4.68 18.19 4.64 18.17 4.63 18.21 4.6 18.36 4.53 18.64 4.53 18.64 4.51 18.73 4.51 18.73 4.56 18.81 4.62 18.81 4.62 18.81 4.64 18.82 4.85 18.3 4.85 18.3 4.85 18.29 4.73 18.22 4.68 18.19"/><path d="M6,14.83l0-.09,0-.08,0-.07.05-.13,0-.06,0-.12,0,0,0-.13h0l-.49.23-.46.87-.07.13.7-.47Z"/><path d="M6.25,14.58h0l-.05.12.26-.19h.06l.47.12.07,0,0-.07,0,0A.22.22,0,0,0,7,14.24l-.1,0-.41-.15h0v0l0,0v0l0,.08,0,0,0,.11v0l0,.12Z"/><path d="M7.46,16.19l-.08.1.12,0L8,16l.07-.12.08-.12.14-.22.05-.08-.44.08Z"/><path d="M8.64,15.69a.07.07,0,0,1,.07,0l0,0,.29.18.06,0h0a.1.1,0,0,0,0-.06A.1.1,0,0,0,9,15.78H9l-.52-.3,0,.06-.15.24-.08.12Z"/><path d="M8.2,13.37c.32.18.67.35.87.45h0l0,0h.05l0,0h0l0,0h0a4.57,4.57,0,0,1,.8,0h0a8,8,0,0,1,1.21.18l.11,0h0l.09,0c.47-.11.91-.24,1.32-.38l-.06-.25,0-.09h0l-.24-.11a18.28,18.28,0,0,0-4.1-1.12l-1,.19c-.1,0-.16.05-.17.08s0,.16.38.59A3.39,3.39,0,0,0,8.2,13.37Z"/><path d="M13.15,13.67l4.59,0a.26.26,0,0,0,.19-.08.25.25,0,0,0,.05-.08h0l-.23,0H16.48c-1.23,0-2.52,0-3.39-.09h0l.06.23Z"/><path d="M21,21.63c-.23-.58-.36-.73-.57-.77-2.53-.3-5.07-.82-5.79-1a.93.93,0,0,1-.52-.31l-1.53-1.81-.12-.14,0,0-.07-.07,0,0-.05,0,0,0,0,0,0,0,0,0h0l0,0h0l-1.58.47-.09,0-.09,0-2.72.82H7.46L7,18.55H7l0,0-.12.12h0l-.07.07h0l.51.16,3-.89.09,0,.09,0,1.35-.41c.07,0,.26,0,.73.56L14,19.87a.72.72,0,0,0,.4.24l.43.09c1,.21,3.1.66,5.21.91h0l.11,0c.3,0,.37.07.68.93.15.41.26.74.34,1v0l.18,0,.11,0c0-.14-.14-.4-.32-.9Z"/><path d="M21,23c-.08-.23-.18-.54-.32-.92-.29-.81-.35-.82-.57-.84l-.12,0c-2.12-.25-4.22-.7-5.22-.91l-.43-.09a.86.86,0,0,1-.48-.28l-1.46-1.71c-.44-.51-.59-.52-.59-.52l-1.37.41-.09,0-.09,0-2.94.89h0l-.56-.18H6.65l0,.06a5.21,5.21,0,0,1-.39.79,3.72,3.72,0,0,0-.18,1.16c0,.14.65.45.76.48l2.28.37h.07l0-.06A1.74,1.74,0,0,1,11,21c1.14.28,1.15,1.12,1.15,1.13a.07.07,0,0,1,0,0l-.08.17.07,0h0l.47.16.07,0,.09,0,.1,0,.1,0,.11,0,.11,0,.12,0,.11,0,.14,0,.11,0,.14,0,.12,0L14,23l.12,0,.15,0,.12,0,.16,0,.12,0,.17,0,.11,0,.19,0,.09,0,.28.05a8.8,8.8,0,0,0,4,.1l.32-.08.11,0,.18,0,.13,0,.09,0h0l.14,0,.08,0,.15,0h0l.17,0h0Zm-9.47-4.83a.24.24,0,0,1,.34,0,.23.23,0,0,1,0,.33.24.24,0,0,1-.34,0A.23.23,0,0,1,11.54,18.19Z"/><path d="M13.68,15.61h0l.15-.07-.25-.3-.07-.09h0l0,0a8.59,8.59,0,0,0-2.22-.79l-.11,0-.11,0a7.34,7.34,0,0,0-1-.14h0a4.56,4.56,0,0,0-.82.05l-.1,0H9.08l-.12,0h0l-.24,0h0l0,.39a5.54,5.54,0,0,0,1.48.95l.1,0,.1,0,.32.12a.14.14,0,0,1,.09.09l.12.38,2.25-.62Z"/><path d="M17.32,15.1a.16.16,0,0,0,.11-.06.14.14,0,0,0,0-.11.16.16,0,0,0-.18-.13l-3.38.38h0l.08.1.15.18Z"/><path d="M19.4,23.77l-.11,0-.14,0-.12,0-.12,0-.14,0H17.46l-.22,0h0l-.24,0h0l-.26,0h0l-.27,0h0l-.56-.09h0l-.31-.05-.25,0h0L15,23.51h-.05l-.24-.05h0l-.23-.06h0l-.24-.06H14.1l-.22-.06-.06,0-.22-.06h0l-.21-.06h0L13.13,23h0l-.19-.06h0l-.18-.06h0l-.35-.12L12,22.62h0l-.64,1.27h0l.23.16,0,0a.54.54,0,0,1-.1.85l-1,.59,0,0,0,0v0l-.05.12,0,0,.15.13c1.7,1.43,1.66,2.76,1.47,3.45a.27.27,0,0,0,.16.31h0l.29-.21.36-.26c.85-.61,2.19-1.56,2.47-1.7a2.68,2.68,0,0,1,.61-.18,3.92,3.92,0,0,0,1.51-.58,6,6,0,0,0,1.68-2.23l.14-.27a1.85,1.85,0,0,1,.52-.58h0l-.18,0Z"/><path d="M28.4,12c-2,.26-3.86.52-5.48.75l-.06.38,3,.21A22.17,22.17,0,0,1,28.4,12Zm.67-.09A21.81,21.81,0,0,0,26,13.52l0,0h0l-3.28-.23.08-.52-.9.13c-1.61.26-2.88.46-3.53.53h-.1a.43.43,0,0,1-.12.23.45.45,0,0,1-.32.14l-4.6,0a.14.14,0,0,1-.06,0c-.33.12-.69.23-1.07.33a8,8,0,0,1,1.65.67h0l3.57-.4a.44.44,0,0,1,.46.28l.68-.08,0,.19-.68.08a.43.43,0,0,1-.09.23.44.44,0,0,1-.3.16l-3.27.37-.29.13h0a4.75,4.75,0,0,0-1.38.72.78.78,0,0,0-.26.42.82.82,0,0,1,.18.11l0,0,0,0,.09.09,0,0,.09.1,0,0,.12.14L14.3,19.4a.64.64,0,0,0,.36.21c.72.15,3.26.67,5.77,1h0c.44.07.62.45,1,1.43.22.62.31.88.35,1a12.34,12.34,0,0,1,2.32-.12,37.62,37.62,0,0,1,8.79,1c2.22.46,5.51-12.8,3.82-12.68C34.37,11.33,31.32,11.63,29.06,11.92Z"/></svg>