<svg xmlns="http://www.w3.org/2000/svg" class="HeroAbility-icon HeroAbility-icon--hoverState" viewBox="0 0 40 40" preserveAspectRatio="xMidYMid meet"><g id="_Group_6" data-name="&lt;Group&gt;"><path id="_Compound_Path_5" data-name="&lt;Compound Path&gt;" d="M27.86,20.1a.44.44,0,0,1,.44-.22H29.5a.37.37,0,0,0,.35-.16c.14-.21.3-.4.45-.6a.66.66,0,0,1,.6-.11s.07.06.06.1c-.07.25.12.23.26.24h.27c.14,0,.21-.06.21-.2s.08-.24.26-.24h3.1c.16,0,.25,0,.23.22s.08.23.23.24h.39c.14,0,.22-.06.2-.2s.09-.28.29-.27h.73c.18,0,.26.06.26.25,0,1,0,2,0,3,0,.2.1.31.31.29h.45l-.71.83-1.91,2.2a1,1,0,0,1-.82.4c-1.44,0-2.89,0-4.33,0a.34.34,0,0,1-.34-.23,12.8,12.8,0,0,0,1.33,0c.38,0,.76,0,1.14,0a1.65,1.65,0,0,0,1.14-.37c.19-.13.06-.32,0-.45a6.16,6.16,0,0,0-.48-.72c-.43-.61-.93-1.16-1.4-1.74a1,1,0,0,0-1.13-.24l-.7.32a.39.39,0,0,0-.26.41c0,.68,0,1.35,0,2,0,.22-.06.31-.29.3-.43,0-.85,0-1.28,0a.44.44,0,0,1-.39-.2L26,22.9a.35.35,0,0,0-.23-.12,9.77,9.77,0,0,0-2.16-.14c-2.44,0-4.89,0-7.33,0a1.3,1.3,0,0,0-1.15.72,2.78,2.78,0,0,0-.31.75.54.54,0,0,1-.69.2c-.08-.06-.06-.14-.06-.22,0-.54,0-1.08,0-1.62a.33.33,0,0,0-.16-.32c-.23-.16-.49-.27-.74-.41a1.11,1.11,0,0,0-.54-.07s-.11,0-.12-.05.05-.1.1-.11a5.55,5.55,0,0,1,1.12-.26h3.31c.14,0,.27,0,.34.17s.21.16.33.17c.29,0,.58,0,.87,0,.09,0,.11-.08.11-.16s.1-.21.25-.21h1.5a.36.36,0,0,0,.37-.17s.05-.15.15,0a.92.92,0,0,0,.79.29,3.55,3.55,0,0,1,1,.07,6.62,6.62,0,0,0,1.37,0h2.35c.12,0,.24,0,.31-.08s.24-.14.4-.12a2.76,2.76,0,0,1,1.58.81.94.94,0,0,0,1.13.15l1-.41a.25.25,0,0,0,.17-.3,1.22,1.22,0,0,0-.94-1c-.15,0-.28,0-.43,0-.49,0-1,0-1.48,0-.28,0-.42.12-.43.4s-.07.22-.23.16l-.12,0c-.09,0-.24,0-.27-.1s.1-.16.15-.23a.82.82,0,0,1,.77-.35c1.51,0,3,0,4.52,0,.33,0,.34,0,.33.33a1.29,1.29,0,0,0,.37.91c.54.61,1.15,1.15,1.7,1.75a.34.34,0,0,0,.56,0,11,11,0,0,1,1.32-1A.37.37,0,0,0,37,22c0-.61,0-1.23,0-1.84,0-.18-.06-.26-.25-.25H33.67c-.1,0-.21,0-.27.07s-.32.19-.53.19H28.1A.36.36,0,0,1,27.86,20.1Zm1.47,3.83h0c0-.31,0-.63,0-.94s-.08-.24-.23-.13c-.42.29-.89.48-1.31.77-.22.15-.25.22-.09.44a5,5,0,0,1,.52.73.49.49,0,0,0,.47.28h.39c.2,0,.27-.08.27-.27S29.33,24.22,29.33,23.93ZM15.28,21.54c0-.15-.14-.15-.25-.07l-.52.34c-.07.05-.2.1-.12.22s.19.08.29,0l.5-.33A.18.18,0,0,0,15.28,21.54Zm20.21,3.27c.12,0,.2-.07.2-.19s0-.2-.12-.2a.22.22,0,0,0-.22.21A.15.15,0,0,0,35.49,24.81Zm-8.13-3.2c0-.09,0-.18-.15-.19s-.17.11-.19.21.07.14.16.14A.16.16,0,0,0,27.35,21.61Z"/><path id="_Compound_Path_6" data-name="&lt;Compound Path&gt;" d="M11.35,20.24h-9A.23.23,0,0,1,2.1,20c0-.44,0-.87,0-1.31a1.1,1.1,0,0,1,.52-.6c.12,0,.12.07.13.15,0,.34,0,.34.39.32h.24c.12,0,.25-.08.25-.19,0-.3.19-.28.39-.28h.34c.14,0,.25,0,.27.2a.24.24,0,0,0,.27.23c.21,0,.51.11.6-.24,0-.07.08,0,.12,0l.44.29a.35.35,0,0,0,.24.09.33.33,0,0,1,.28.11.69.69,0,0,0,.57.18c3.38,0,6.75,0,10.13,0a1,1,0,0,1,.84.38.46.46,0,0,0,.4.16H20.6c.1,0,.23,0,.27.09a.37.37,0,0,1-.06.34.81.81,0,0,1-.67.35ZM3,19.82c0-.09-.07-.17-.18-.16a.16.16,0,0,0-.16.17.17.17,0,0,0,.19.17C3,20,3,19.93,3,19.82Zm-.22-.61A.17.17,0,0,0,3,19c0-.09,0-.18-.16-.18s-.17.09-.17.19S2.7,19.21,2.8,19.22Zm.85.18c0-.08-.05-.16-.16-.17s-.15.08-.16.18,0,.16.13.16S3.64,19.52,3.65,19.4Z"/><path id="_Compound_Path_7" data-name="&lt;Compound Path&gt;" d="M21,15.81H18.56a.76.76,0,0,0-.65.56c0,.14-.07.19-.19.19H7.15a1.41,1.41,0,0,0-.51.16,5.26,5.26,0,0,0-1,.62c-.11.07-.11,0-.13-.09A.58.58,0,0,0,4.69,17a.31.31,0,0,0-.08.27c0,.16-.07.21-.22.21H4c-.21,0-.4,0-.4-.29a.28.28,0,0,0-.32-.26H3.09c-.24,0-.33.11-.34.33,0,.07,0,.16,0,.2s-.15,0-.21-.08a.68.68,0,0,1-.32-.63c0-.39,0-.77,0-1.16,0-.2.08-.27.27-.27H20.58c.19,0,.33,0,.29.26S20.91,15.73,21,15.81Zm-17.33.27a.16.16,0,0,0-.16-.18.15.15,0,0,0-.18.14c0,.1,0,.2.15.21S3.65,16.19,3.67,16.08Zm-.89.17a.17.17,0,0,0-.14.2c0,.09.06.17.17.17A.18.18,0,0,0,3,16.43C3,16.31,2.91,16.26,2.78,16.25ZM3,15.67c0-.11,0-.17-.15-.18a.17.17,0,0,0-.19.17.15.15,0,0,0,.15.18C2.95,15.85,3,15.78,3,15.67Z"/><path id="_Compound_Path_8" data-name="&lt;Compound Path&gt;" d="M37.55,20.32c0-.55,0-1.1,0-1.64a.31.31,0,0,0-.08-.24c-.5-.53-.83-1.18-1.28-1.75-.09-.11-.15-.18-.29-.16a.39.39,0,0,1-.46-.3v0c-.25-.52-.25-.52.21-.87a.4.4,0,0,1,.27-.06h2.39a.5.5,0,0,1,.56.49,5.3,5.3,0,0,1,0,.87,1.49,1.49,0,0,0,.17,1c0,.05,0,.16,0,.24,0,.75,0,1.5,0,2.25a2.18,2.18,0,0,0,.12.73.84.84,0,0,1,.07.23c0,.22.07.48,0,.64a1.34,1.34,0,0,1-.63.49,2,2,0,0,1-.91,0c-.14,0-.11-.16-.11-.26,0-.28,0-.56,0-.85s0-.55,0-.82Zm1-4.71a.14.14,0,0,0-.07-.14.22.22,0,0,0-.23,0,2.24,2.24,0,0,0-.54.58c-.06.08-.14.18,0,.27a.21.21,0,0,0,.3-.06l.43-.45A.44.44,0,0,0,38.53,15.61Z"/><path id="_Path_8" data-name="&lt;Path&gt;" d="M33.39,16.69h2.32a.47.47,0,0,1,.41.19c.31.39.57.82.86,1.22.1.14.21.26.31.4s.08.22-.09.23a2.81,2.81,0,0,1-1,0,2.22,2.22,0,0,0-.73-.13c-.12,0-.24,0-.3.13s-.11,0-.18,0H32c-.06,0-.16,0-.18,0-.17-.26-.42-.13-.64-.15a.13.13,0,0,0-.16.08c-.09.28-.32.15-.49.15s-.1-.11-.1-.19c0-.48,0-1,0-1.43a.55.55,0,0,1,.61-.5Z"/><path id="_Path_9" data-name="&lt;Path&gt;" d="M8,24.72c-.54,0-1.08,0-1.62,0a.27.27,0,0,1-.32-.24,5.3,5.3,0,0,1,0-2.49.94.94,0,0,0,0-.73A.79.79,0,0,1,6,21c-.07-.6-.06-.61.55-.58.16,0,.23.06.23.23a2.51,2.51,0,0,0,.05.5c.13.6.29.74.91.75H9.68c.3,0,.3,0,.24.31a8.09,8.09,0,0,0-.07,2.26c0,.21,0,.27-.24.26Z"/><path id="_Compound_Path_9" data-name="&lt;Compound Path&gt;" d="M24.66,19h1.76c.17,0,.27,0,.25-.22s.06-.23.22-.23h.7c.16,0,.24.06.23.23s0,.6,0,.89a.42.42,0,0,1-.15.34,6.21,6.21,0,0,0-.82.91.69.69,0,0,1-.59.27H24.22c-.19,0-.28,0-.28-.26s-.08-.31-.34-.31c-.75,0-1.5,0-2.25,0-.25,0-.33-.09-.31-.32a3.91,3.91,0,0,0,0-.53c0-.23.07-.35.32-.32s.28,0,.41,0a.86.86,0,0,0,.8-.35.32.32,0,0,1,.29-.13ZM24.6,20a1.13,1.13,0,0,0-.49.36.16.16,0,0,0,0,.11.11.11,0,0,0,.15,0,1.58,1.58,0,0,0,.39-.29.11.11,0,0,0,0-.15A.23.23,0,0,0,24.6,20Z"/><path id="_Compound_Path_10" data-name="&lt;Compound Path&gt;" d="M26.67,16.86a2.06,2.06,0,0,1,.38,0,.82.82,0,0,0,.71-.28c.09-.07,0-.16,0-.24,0-.67-.2-.6.55-.6s1.34,0,2,0c.21,0,.28.07.3.27a.81.81,0,0,1-.29.84.34.34,0,0,0-.13.32c0,.52,0,1,0,1.57s-.35.66-.59,1c0,0-.09,0-.14,0H28.2c-.16,0-.22-.07-.21-.22s0-.56,0-.85-.07-.26-.26-.28-.37.07-.4-.08.23-.08.34-.14a.56.56,0,0,0,.26-.64.33.33,0,0,0-.41-.24.2.2,0,0,1-.19-.08A.75.75,0,0,0,26.67,16.86Zm2.56-.45a.23.23,0,0,0-.24.23.14.14,0,0,0,.16.17.23.23,0,0,0,.24-.23C29.41,16.47,29.34,16.42,29.23,16.42Z"/><path id="_Path_10" data-name="&lt;Path&gt;" d="M25.12,18.81H24c-.11,0-.23,0-.3-.07-.21-.27-.5-.2-.77-.21s-.27,0-.38-.21a.73.73,0,0,0-.74-.5c-1.07.05-2.14,0-3.21,0a.81.81,0,0,0-.78.52c0,.06,0,.13-.12.13h-.68c-.11,0-.12-.09-.12-.18,0-.27,0-.53,0-.8s.06-.18.18-.18a6.26,6.26,0,0,1,1.18,0,2.42,2.42,0,0,0,.5,0,11.14,11.14,0,0,1,1.45,0,22.72,22.72,0,0,0,2.68.11.39.39,0,0,0,.37-.16c.05-.07.13-.12.18-.2a1.3,1.3,0,0,1,1.41-.59,5.91,5.91,0,0,0,.85,0c.11,0,.24,0,.3-.1A.34.34,0,0,0,26,16c-.19-.16-.13-.36-.13-.56s0-.14.12-.1.36.18.37.41,0,.6,0,.89-.08.23-.24.22H25a.37.37,0,0,0-.42.41c0,.27,0,.55,0,.82a.31.31,0,0,0,.34.32h1.3c.14,0,.26,0,.26.2s-.12.18-.25.18Z"/><path id="_Path_11" data-name="&lt;Path&gt;" d="M31.83,26.79c-1,0-2,0-3,0a.7.7,0,0,1-.6-.27l-.63-.73c-.07-.09-.15-.18-.1-.3s.17-.13.29-.13H29.3a.4.4,0,0,1,.4.2.93.93,0,0,0,1,.49c1.33-.05,2.66,0,4,0a.9.9,0,0,0,.69-.21.33.33,0,0,1,.46,0c.14.14,0,.29-.08.42s-.32.3-.47.45a.33.33,0,0,1-.26.09H31.83Z"/><path id="_Compound_Path_11" data-name="&lt;Compound Path&gt;" d="M20.25,18c.52,0,1,0,1.55,0a.59.59,0,0,1,.6.34.78.78,0,0,1,0,.68.48.48,0,0,1-.48.26l-3.26,0a.7.7,0,0,1-.61-.35.84.84,0,0,1,.23-.87.48.48,0,0,1,.3-.07Zm1.29.84c0-.1,0-.26-.1-.27s-.08.15-.11.24a.07.07,0,0,0,0,0c0,.12-.11.31.07.33S21.46,18.95,21.54,18.85Z"/><path id="_Path_12" data-name="&lt;Path&gt;" d="M24.64,16a3.53,3.53,0,0,0-.43,0,1,1,0,0,1-.94-.31.34.34,0,0,0-.29-.08c-.54,0-1.08,0-1.62,0-.24,0-.31-.08-.3-.31s0-.64,0-1,.13-.22.29-.22.25,0,.26.22c0,.51,0,.51.54.51.25,0,.51,0,.69.19,0,0,.09,0,.14,0h.65a.84.84,0,0,0,.46-.12,1.22,1.22,0,0,1,.66-.07c.36,0,.36,0,.37-.36,0,0,0-.08,0-.12a.31.31,0,0,1,.48-.29.17.17,0,0,1,.09.18c0,.5,0,1,0,1.5,0,.18-.11.22-.25.22h-.8Z"/><path id="_Compound_Path_12" data-name="&lt;Compound Path&gt;" d="M20.29,17.19H18.63a.51.51,0,0,1-.58-.48c0-.46.21-.73.58-.73h3.24a.66.66,0,0,1,.54,1,.43.43,0,0,1-.4.23H20.29Zm1-.81h0s0,.1,0,.14,0,.16.1.16.1-.09.1-.16a2.22,2.22,0,0,0,0-.24c0-.07,0-.17-.09-.17s-.09.1-.1.18A.62.62,0,0,0,21.33,16.38Z"/><path id="_Path_13" data-name="&lt;Path&gt;" d="M18.7,13.41a.42.42,0,0,1,.4-.25h1a.27.27,0,0,1,.16,0,1.12,1.12,0,0,0,.8.17h2.1a1.58,1.58,0,0,0,1.13-.21.55.55,0,0,1,.37-.08c.66,0,1.32,0,2,0a1,1,0,0,1,.82.35l.73.84s.09.08.06.14-.09,0-.13,0a.64.64,0,0,1-.59-.22L27,13.63a.42.42,0,0,0-.34-.14l-4.73,0c-.17,0-.28.05-.31.23s-.08.14-.18.16a11.15,11.15,0,0,1-2.12.13,1.32,1.32,0,0,1-.47-.1c-.06,0-.14,0-.13-.12s.1-.07.16-.07h1.4c.1,0,.24,0,.25-.11s-.11-.22-.26-.22Z"/><path id="_Path_14" data-name="&lt;Path&gt;" d="M12.39,23c0-.32,0-.64.06-1,0-.13.06-.18.19-.2a1.69,1.69,0,0,1,1,.35.2.2,0,0,1,.08.19q0,.88,0,1.76s0,.12,0,.14a2.64,2.64,0,0,1-.94.55c-.16,0-.23-.05-.26-.2A6.59,6.59,0,0,1,12.39,23Z"/><path id="_Path_15" data-name="&lt;Path&gt;" d="M12.31,21.62c0,.58-.07,1.13-.07,1.69a6.12,6.12,0,0,0,.13,1.37c.08.34,0,.46-.38.47h-.56a.35.35,0,0,1-.38-.3A7.5,7.5,0,0,1,10.93,23c0-.17.08-.21.24-.21h.68a.24.24,0,0,0,.28-.25c0-.24,0-.48.07-.72C12.21,21.77,12.2,21.68,12.31,21.62Z"/><path id="_Path_16" data-name="&lt;Path&gt;" d="M3.26,20.81H1c-.1,0-.23,0-.28-.08a.37.37,0,0,1,.06-.34l.68-1.08a1.12,1.12,0,0,0,.18-.54c0-.1,0-.21.16-.2s.09.13.09.21c0,.39,0,.79,0,1.18s.13.46.47.46H5.55c.14,0,.28,0,.26.21s-.12.18-.25.18Z"/><path id="_Path_17" data-name="&lt;Path&gt;" d="M12.25,14.48h5c.07,0,.15,0,.15.11a.14.14,0,0,1-.12.15l-.24,0H7.45c-.25,0-.31-.08-.23-.25a.09.09,0,0,1,.1-.06h4.93Z"/><path id="_Path_18" data-name="&lt;Path&gt;" d="M23.37,13.7h1.33c.18,0,.25.07.24.24s0,.15,0,.22.07.32-.11.39a.58.58,0,0,1-.59-.06c-.14-.12-.26-.2-.4,0a.17.17,0,0,1-.13,0c-.31,0-.64.1-.93-.12-.09-.07-.21,0-.28.09a.58.58,0,0,1-.63.15,1.24,1.24,0,0,1,0-.91.51.51,0,0,1,.21,0h1.3Z"/><path id="_Path_19" data-name="&lt;Path&gt;" d="M3.91,15.16H2.27c-.2,0-.27.08-.27.28,0,.45,0,.9,0,1.35,0,.09,0,.21-.1.24a.19.19,0,0,1-.23-.17A6.43,6.43,0,0,0,.83,15.3c0-.09-.13-.18-.08-.29s.18-.08.28-.08H5.55c.08,0,.2,0,.2.11s-.12.11-.2.11H3.91Z"/><path id="_Path_20" data-name="&lt;Path&gt;" d="M28.16,14.62c.36,0,.72,0,1.08,0a2.75,2.75,0,0,1,1.54.48,5.89,5.89,0,0,0,1.42.81,4.07,4.07,0,0,0,.51.13c.16,0,.19.12.19.26s-.12.15-.22.14A2.91,2.91,0,0,1,31,15.73a4.23,4.23,0,0,0-1-.65,1.54,1.54,0,0,0-.66-.09c-.72,0-1.43,0-2.15,0-.13,0-.13-.09-.14-.18s0-.21.17-.21Z"/><path id="_Path_21" data-name="&lt;Path&gt;" d="M27.07,18.23a3.77,3.77,0,0,1-.75,0H25c-.18,0-.27-.07-.26-.26s0-.42,0-.63.08-.29.27-.29h1.79a.28.28,0,0,1,.18.05c.07.05.11.11,0,.15s-.15.16-.13.29a1.28,1.28,0,0,1,0,.26C26.9,18,26.89,18.12,27.07,18.23Z"/><path id="_Path_22" data-name="&lt;Path&gt;" d="M5,23.65a10.72,10.72,0,0,1,.14-1.56c0-.18.1-.26.29-.26.5,0,.5,0,.44.49a6.08,6.08,0,0,0,.07,2.19c0,.16,0,.21-.17.22C5,24.75,5,24.75,5,24,5,23.9,5,23.77,5,23.65Z"/><path id="_Path_23" data-name="&lt;Path&gt;" d="M10.46,17.33a.58.58,0,0,1-.29.24c-.14.06-.15.16-.15.29s.1.17.2.21l.2.09a.19.19,0,0,1,.08.21c0,.09-.08.11-.16.11H8.71a.17.17,0,0,1-.19-.17,3.59,3.59,0,0,1,0-.8c0-.11.06-.18.18-.18Z"/><path id="_Path_24" data-name="&lt;Path&gt;" d="M6.81,18.48a1.37,1.37,0,0,1-1.2-.43.3.3,0,0,1,0-.52.77.77,0,0,1,.67-.23,6.9,6.9,0,0,0,1,0c.1,0,.25,0,.28.07s-.13.14-.21.19-.15,0-.16.12-.09.33.16.37a.82.82,0,0,1,.24.11.16.16,0,0,1,.08.19c0,.09-.08.11-.16.11Z"/><path id="_Path_25" data-name="&lt;Path&gt;" d="M12.28,15.15H7.73a1.79,1.79,0,0,1-.24,0c-.1,0-.28.06-.28-.1s.18-.1.27-.1h9.6c.08,0,.23,0,.22.11s-.14.09-.21.09Z"/><path id="_Path_26" data-name="&lt;Path&gt;" d="M16,17.38a.32.32,0,0,1-.21.22c-.16,0-.18.16-.18.3s.09.18.22.2a.59.59,0,0,1,.2.08c.07,0,.07.12.06.19s-.08.1-.14.1H14.35a.17.17,0,0,1-.18-.16,3.31,3.31,0,0,1,0-.82c0-.09.06-.13.15-.13Z"/><path id="_Path_27" data-name="&lt;Path&gt;" d="M13.22,17.38a.82.82,0,0,1-.31.26.24.24,0,0,0-.14.25c0,.12.07.16.17.2s.37.07.33.28-.26.1-.39.1c-.41,0-.82,0-1.23,0a.23.23,0,0,1-.26-.21,3,3,0,0,1-.09-.69c0-.12,0-.2.19-.2Z"/><path id="_Path_28" data-name="&lt;Path&gt;" d="M1.08,21H5.67c.17,0,.19.13.19.25s-.12.1-.2.1H1.8A1.38,1.38,0,0,1,1.06,21Z"/><path id="_Path_29" data-name="&lt;Path&gt;" d="M10.14,23.47a3.71,3.71,0,0,1,.2-1.37.28.28,0,0,1,.33-.21c.14,0,.22.06.2.23s-.07.58-.1.86a7,7,0,0,0,.06,1.47c0,.12.16.32-.1.37a.41.41,0,0,1-.52-.33A7,7,0,0,1,10.14,23.47Z"/><path id="_Path_30" data-name="&lt;Path&gt;" d="M36,15.09a.46.46,0,0,1,.47-.21H39a.41.41,0,0,1,.39.39c0,.46,0,.92,0,1.38,0,.26-.19.45-.29.68,0,0,0,0-.05,0s-.07-.1-.07-.16a7.93,7.93,0,0,1,0-1,1.13,1.13,0,0,0-.28-1,.41.41,0,0,0-.36-.13C37.6,15.1,36.8,15.09,36,15.09Z"/><path id="_Path_31" data-name="&lt;Path&gt;" d="M6.82,18.68a.38.38,0,0,1,.27,0H17.5c.1,0,.27-.05.27.05s-.18.07-.28.07H7.17C7.05,18.77,6.91,18.81,6.82,18.68Z"/><path id="_Path_32" data-name="&lt;Path&gt;" d="M11.61,20.42h.72c.15,0,.22.06.22.21s0,.35,0,.53a.19.19,0,0,1-.11.22c-.11,0-.15,0-.21-.09a.4.4,0,0,0-.43-.19,1.83,1.83,0,0,1-.41,0c-.15,0-.31-.07-.34.17,0,.07-.1.1-.18.09a.27.27,0,0,1-.23-.22,1.7,1.7,0,0,1,0-.6c0-.12.11-.12.2-.12Z"/><path id="_Path_33" data-name="&lt;Path&gt;" d="M20.79,14.19c-.07.13-.16.1-.25.1-.5,0-1,0-1.5,0a.34.34,0,0,0-.4.34c-.07.53-.08.52-.61.52s-.59.05-.51-.58c0-.14.06-.28.1-.42s.13-.12.21-.11c.35,0,.72-.09,1.06.13.07,0,.19,0,.28,0Z"/><path id="_Path_34" data-name="&lt;Path&gt;" d="M1,14.72a.91.91,0,0,1,.57-.26H5.64c.09,0,.18,0,.17.14s-.07.15-.17.15H1.08Z"/><path id="_Path_35" data-name="&lt;Path&gt;" d="M1.28,17.83c-.12-.32.17-.47.38-.62a.45.45,0,0,1,.47.06,1.68,1.68,0,0,0,.56.4c.1,0,.09.19,0,.2-.25,0-.37.22-.51.37s-.43.17-.64.23-.23-.16-.26-.31A2,2,0,0,1,1.28,17.83Z"/><path id="_Path_36" data-name="&lt;Path&gt;" d="M19.68,21c-.23,0-.47,0-.7,0s-.28-.11-.28-.31.07-.3.29-.3c.41,0,.82,0,1.23,0a.49.49,0,0,0,.48-.16.11.11,0,0,1,.12-.06c.06,0,0,.08.05.12,0,.41-.12.75-.61.7C20.07,21,19.87,21,19.68,21Z"/><path id="_Path_37" data-name="&lt;Path&gt;" d="M9.44,21.73H8.18a.6.6,0,0,1-.21,0,.32.32,0,0,1-.18-.32c0-.14.13-.13.21-.15a.81.81,0,0,1,.65.06.41.41,0,0,0,.23,0H10a1.18,1.18,0,0,1,.78.16c.06,0,.21,0,.17.15s-.14.08-.23.08H9.44Z"/><path id="_Path_38" data-name="&lt;Path&gt;" d="M11.54,22.65c-.45,0-.45,0-.39-.44,0-.23.07-.46.09-.69s.08-.26.27-.26c.54,0,.65-.08.53.59a3,3,0,0,0,0,.5c0,.23-.1.32-.33.29Z"/><path id="_Path_39" data-name="&lt;Path&gt;" d="M26.74,15.2h.17c.45,0,.46,0,.48.47V16c0,.27-.07.37-.34.38H27c-.49,0-.51,0-.47-.48a.6.6,0,0,0-.26-.56s-.09-.06-.08-.11.09-.05.14-.06h.41Z"/><path id="_Path_40" data-name="&lt;Path&gt;" d="M15.08,20.68H12.86a.11.11,0,0,1-.11-.13.11.11,0,0,1,.11-.11h4.37c.08,0,.15,0,.15.12s-.06.12-.14.13H15.08Z"/><path id="_Path_41" data-name="&lt;Path&gt;" d="M6.88,16.77h10.9v0H6.89Z"/><path id="_Path_42" data-name="&lt;Path&gt;" d="M8.82,20.85h1.42c.12,0,.26,0,.25.18s-.13.15-.24.15H9a.57.57,0,0,1-.26,0,1.32,1.32,0,0,0-.92,0,.23.23,0,0,0-.19.13.19.19,0,0,1-.29.08c-.12-.07-.12-.22-.12-.35s.13-.11.22-.11H8.82Z"/><path id="_Path_43" data-name="&lt;Path&gt;" d="M8.09,17c.29,0,.31,0,.27.3a5.34,5.34,0,0,0,0,1c0,.12,0,.22-.16.2s-.35.1-.37-.14A.36.36,0,0,0,7.54,18c-.08,0-.21-.05-.21-.17s.11-.14.19-.16.22-.15.21-.34S7.77,17,8.09,17Z"/><path id="_Path_44" data-name="&lt;Path&gt;" d="M15.06,20.85h2.2c.05,0,.1,0,.1.08s0,.1-.1.11H13.61a1.87,1.87,0,0,0-.5.16c-.11,0-.22.08-.32,0a.25.25,0,0,1,0-.25c0-.1.13-.09.2-.09h2.1Z"/><path id="_Path_45" data-name="&lt;Path&gt;" d="M18.54,20.92c0,.43,0,.44-.43.5h-.26c-.16,0-.26-.06-.28-.26s0-.37,0-.55.06-.21.2-.2H18C18.59,20.42,18.53,20.37,18.54,20.92Z"/><path id="_Path_46" data-name="&lt;Path&gt;" d="M10.91,18.48c-.18,0-.28,0-.26-.26s-.13-.2-.24-.25-.19,0-.2-.14.1-.15.17-.18a.53.53,0,0,0,.33-.49c0-.23.21-.15.34-.15s.14.11.12.22a2.63,2.63,0,0,0,0,1C11.26,18.49,11.26,18.49,10.91,18.48Z"/><path id="_Path_47" data-name="&lt;Path&gt;" d="M6.38,15.15H6.12C6,15.15,6,15.09,6,15a2.14,2.14,0,0,1,.19-.78A.31.31,0,0,1,6.49,14h.15c.31,0,.31,0,.22.3a1.47,1.47,0,0,0,0,.58c0,.24-.07.32-.3.29H6.38Z"/><path id="_Path_48" data-name="&lt;Path&gt;" d="M16.79,17.71c0,.19,0,.38,0,.58s-.18.2-.32.2-.18-.11-.15-.23-.1-.19-.2-.24c-.32-.14-.32-.14-.06-.36s.31-.25.26-.5.07-.17.18-.16.28,0,.29.15,0,.37,0,.55Z"/><path id="_Path_49" data-name="&lt;Path&gt;" d="M14,17.68l0,.6c0,.11,0,.21-.15.19s-.34.09-.36-.11S13.3,18,13.11,18s-.19-.15,0-.25.18-.14.27-.2a.28.28,0,0,0,.15-.32c0-.12,0-.21.15-.21s.27,0,.28.18,0,.34,0,.51Z"/><path id="_Path_50" data-name="&lt;Path&gt;" d="M26.57,16.64a1,1,0,0,1,.43,0c.44,0,.61-.17.57-.62,0-.13,0-.26,0-.39s.06-.25.24-.25H30a.54.54,0,0,1,.44.18.37.37,0,0,1-.26,0H27.85c-.2,0-.26,0-.23.26.07.66,0,.91-.77.87C26.76,16.69,26.67,16.73,26.57,16.64Z"/><path id="_Path_51" data-name="&lt;Path&gt;" d="M8.82,20.68H7.39c-.09,0-.21,0-.21-.12s.12-.13.21-.13h2.89c.09,0,.21,0,.2.14s-.12.11-.2.11H8.82Z"/><path id="_Path_52" data-name="&lt;Path&gt;" d="M24.25,16.37H22.82a.15.15,0,0,1-.18-.17c0-.14.12-.08.18-.08h2.46l.36,0c.11,0,.22,0,.23.13s-.11.13-.21.13H24.25Z"/><path id="_Path_53" data-name="&lt;Path&gt;" d="M2.92,17.76c0-.14,0-.27,0-.41s.06-.27.25-.27.32,0,.32.26,0,.55,0,.82-.15.22-.31.23-.28,0-.26-.24S2.92,17.89,2.92,17.76Z"/><path id="_Path_54" data-name="&lt;Path&gt;" d="M31.5,15.27c1.15.06,2.29,0,3.48,0a.53.53,0,0,1-.48.19H32.28a.84.84,0,0,0-.24,0A.45.45,0,0,1,31.5,15.27Z"/><path id="_Path_55" data-name="&lt;Path&gt;" d="M22.39,17.3c.12-.22.33-.36.27-.64,0-.09.07-.12.15-.12h.82c.1,0,.14,0,.06.13a4.9,4.9,0,0,1-.55.57C22.92,17.42,22.65,17.29,22.39,17.3Z"/><path id="_Path_56" data-name="&lt;Path&gt;" d="M32.33,15.68h1.08c.24,0,.48,0,.72,0a1.14,1.14,0,0,0,1.16-.39.13.13,0,0,1,.17-.05.88.88,0,0,1-.29.3.26.26,0,0,0-.07.39,4,4,0,0,1,.21.41c.06.13,0,.18-.12.18H35c-.21,0-.3,0-.26-.28a.43.43,0,0,0-.47-.51H33.1a.34.34,0,0,0-.16,0C32.69,15.86,32.61,15.86,32.33,15.68Z"/><path id="_Path_57" data-name="&lt;Path&gt;" d="M22.91,20.78h.46c.14,0,.25,0,.26.19s-.1.23-.25.25a4.34,4.34,0,0,1-1.12-.13c-.08,0-.09-.08-.08-.15s.05-.17.17-.16h.55Z"/><path id="_Path_58" data-name="&lt;Path&gt;" d="M19.79,14.76H19c-.08,0-.17,0-.17-.11a.16.16,0,0,1,.18-.18h1.69c.09,0,.16,0,.17.13s-.08.16-.17.16h-.89Z"/><path id="_Path_59" data-name="&lt;Path&gt;" d="M5.29,17.76c0,.1,0,.21,0,.31s0,.27-.22.27-.29-.06-.28-.26,0-.5,0-.75.09-.2.23-.2.26,0,.26.2S5.29,17.61,5.29,17.76Z"/><path id="_Path_60" data-name="&lt;Path&gt;" d="M26.77,13.7c-.37,0-.5.18-.5.58,0,0,0,.06,0,.08s-.39-.11-.39-.19c0-.25-.13-.3-.33-.29h-.29a.1.1,0,0,1-.11-.11c0-.06,0-.1.08-.1a8.74,8.74,0,0,1,1.56,0Z"/><path id="_Path_61" data-name="&lt;Path&gt;" d="M35.2,23.26a11.08,11.08,0,0,1,1-.79,1,1,0,0,0,.47-1,5.15,5.15,0,0,1,.1-1.38c.08.05.05.13.05.19,0,.53,0,1.06,0,1.59a.37.37,0,0,1-.18.34,12,12,0,0,0-1.22.95C35.42,23.24,35.36,23.33,35.2,23.26Z"/><path id="_Path_62" data-name="&lt;Path&gt;" d="M4.78,24.27A2.24,2.24,0,0,1,4.93,22,13.15,13.15,0,0,0,4.78,24.27Z"/><path id="_Path_63" data-name="&lt;Path&gt;" d="M12.33,17.22h-.8c-.08,0-.17,0-.17-.12s.08-.11.16-.11h1.62c.07,0,.16,0,.16.11s-.09.12-.17.12Z"/><path id="_Path_64" data-name="&lt;Path&gt;" d="M19.82,15.15H19c-.08,0-.18,0-.18-.11s.1-.12.18-.11c.58,0,1.16,0,1.74,0,.07,0,.14,0,.13.1s-.07.1-.14.1h-.89Z"/><path id="_Path_65" data-name="&lt;Path&gt;" d="M30.5,14.67h1.35a.31.31,0,0,1,.21.09c.09.08.05.17,0,.16C31.53,14.9,31,15.1,30.5,14.67Z"/><path id="_Path_66" data-name="&lt;Path&gt;" d="M15.08,17.2h-.8c-.07,0-.16,0-.16-.1s.09-.1.16-.1h1.66c.06,0,.14,0,.15.08s-.08.11-.15.11h-.87Z"/><path id="_Path_67" data-name="&lt;Path&gt;" d="M32,16.51H31c-.14,0-.21-.06-.2-.21s-.06-.32,0-.39.2.11.32.16l.79.4Z"/><path id="_Path_68" data-name="&lt;Path&gt;" d="M9.53,17.17h-.8c-.06,0-.14,0-.14-.08s.08-.09.14-.09h1.64c.06,0,.13,0,.13.07s-.06.1-.13.1H9.53Z"/><path id="_Path_69" data-name="&lt;Path&gt;" d="M30.34,20.72a.92.92,0,0,1,.46.58.12.12,0,0,1-.07.18c-.11,0-.23.14-.36.08s0-.12,0-.19A2.68,2.68,0,0,0,30.34,20.72Z"/><path id="_Path_70" data-name="&lt;Path&gt;" d="M34,16.47c.05-.12.13-.21.1-.35s-.17-.17,0-.21a.37.37,0,0,1,.44.08.31.31,0,0,1,0,.34.31.31,0,0,1-.33.18A.3.3,0,0,1,34,16.47Z"/><path id="_Path_71" data-name="&lt;Path&gt;" d="M23.23,15.93a3.17,3.17,0,0,1-1.1-.09,1.47,1.47,0,0,0-.5,0c-.1,0-.2,0-.29-.05a9.94,9.94,0,0,1,1.9,0Z"/><path id="_Path_72" data-name="&lt;Path&gt;" d="M4.13,17.91H3.79a.12.12,0,0,1-.13-.11.12.12,0,0,1,.12-.15H4.5a.13.13,0,0,1,0,.25H4.13Z"/><path id="_Path_73" data-name="&lt;Path&gt;" d="M33.34,16.17c0-.07-.07-.25.13-.22s.39,0,.44.26-.21.26-.41.25S33.36,16.29,33.34,16.17Z"/><path id="_Path_74" data-name="&lt;Path&gt;" d="M21.73,21.1a1.58,1.58,0,0,1-.47-.1c-.06,0-.1-.06-.09-.12a.11.11,0,0,1,.12-.09h.58c.11,0,.12.08.11.17S21.84,21.11,21.73,21.1Z"/><path id="_Path_75" data-name="&lt;Path&gt;" d="M22.75,14.67a4.42,4.42,0,0,0,1.34-.09.37.37,0,0,1-.36.27c-.24,0-.48,0-.72,0a.3.3,0,0,1-.26-.19Z"/><path id="_Path_76" data-name="&lt;Path&gt;" d="M26.14,14.81c0-.16,0-.27.21-.27s.21.14.22.29-.07.22-.23.22S26.12,15,26.14,14.81Z"/><path id="_Path_77" data-name="&lt;Path&gt;" d="M27.59,18c-.17.08-.33.14-.46,0s-.06-.3-.06-.46a.09.09,0,0,1,.1-.09h.38s.07,0,.07.05,0,.06-.08.07h0c-.13,0-.31,0-.3.19s.19.14.31.17Z"/><path id="_Path_78" data-name="&lt;Path&gt;" d="M35.47,19c0-.17.07-.22.23-.22s.21.12.22.27-.1.21-.25.21S35.46,19.12,35.47,19Z"/><path id="_Path_79" data-name="&lt;Path&gt;" d="M31.14,19c0-.17.07-.22.23-.22s.19.11.18.24,0,.23-.21.23S31.12,19.11,31.14,19Z"/><path id="_Path_80" data-name="&lt;Path&gt;" d="M27.91,13.59l.85.69s.09.06.06.12-.08,0-.13,0a.27.27,0,0,1-.19-.09l-.64-.7Z"/><path id="_Path_81" data-name="&lt;Path&gt;" d="M6.26,17.14A.22.22,0,0,1,6.49,17h.92c.05,0,.13,0,.13.06s-.07.08-.12.08Z"/><path id="_Path_82" data-name="&lt;Path&gt;" d="M26.76,13.7a2.11,2.11,0,0,1,.66.68c-.27.1-.45,0-.43-.27s-.14-.28-.22-.41Z"/><path id="_Path_83" data-name="&lt;Path&gt;" d="M17.48,17h.36s.1,0,.1.08,0,.06-.09.06h-.77s-.09,0-.09-.06.05-.07.1-.07Z"/><path id="_Path_84" data-name="&lt;Path&gt;" d="M26.81,14.09a.2.2,0,0,1-.22.18c-.1,0-.18,0-.17-.15a.22.22,0,0,1,.23-.2C26.75,13.91,26.8,14,26.81,14.09Z"/><path id="_Path_85" data-name="&lt;Path&gt;" d="M22.69,18.74a1.41,1.41,0,0,1,.75,0A1.32,1.32,0,0,1,22.69,18.74Z"/><path id="_Path_86" data-name="&lt;Path&gt;" d="M7.24,21.59A1.4,1.4,0,0,1,7,20.53C7.06,20.89,7,21.28,7.24,21.59Z"/><path id="_Path_87" data-name="&lt;Path&gt;" d="M26.92,14.77c0,.08,0,.23-.09.22s-.08-.18-.1-.28,0-.19.09-.17S26.9,14.68,26.92,14.77Z"/><path id="_Path_88" data-name="&lt;Path&gt;" d="M25.91,15s-.05-.05-.05-.07a.67.67,0,0,1,0-.39h.06A.57.57,0,0,1,25.91,15Z"/><path id="_Path_89" data-name="&lt;Path&gt;" d="M33.1,16.43a.92.92,0,0,1,0-.37s0-.11.06-.1.07,0,.06.09A.55.55,0,0,1,33.1,16.43Z"/><path id="_Path_90" data-name="&lt;Path&gt;" d="M7.12,14.17a2.61,2.61,0,0,0-.12.78A1.07,1.07,0,0,1,7.12,14.17Z"/><path id="_Path_91" data-name="&lt;Path&gt;" d="M22.75,14.67s-.1,0-.1-.07v0c.07,0,.07.05.08.09Z"/><path id="_Path_92" data-name="&lt;Path&gt;" d="M10.2,22l0,.06s0,0,0-.05a.08.08,0,0,1,0-.05S10.2,22,10.2,22Z"/><path id="_Path_93" data-name="&lt;Path&gt;" d="M10,24.19h0a.05.05,0,0,1,0,0v0Z"/><path id="_Path_94" data-name="&lt;Path&gt;" d="M29.14,24c0,.23,0,.47,0,.7s-.07.21-.22.22a.62.62,0,0,1-.67-.35,3.33,3.33,0,0,0-.4-.54c-.07-.1-.09-.18,0-.26A11.24,11.24,0,0,1,29,23.12c.14-.08.15,0,.15.12,0,.25,0,.5,0,.75Z"/></g></svg>