<svg xmlns="http://www.w3.org/2000/svg" class="HeroAbility-icon HeroAbility-icon--hoverState" viewBox="0 0 40 40" preserveAspectRatio="xMidYMid meet"><g id="_Group_5" data-name="&lt;Group&gt;"><path id="_Compound_Path_2" data-name="&lt;Compound Path&gt;" d="M16.26,27.5a4,4,0,0,0-1.41-5.24l-.94-2.56L11.6,19l1,2.64a4,4,0,0,0-3.82,3.83L7,27.68,7.57,30l1.8-2.22a4,4,0,0,0,5.15,1.42l2.88.42,1.7-1.71Zm-3.54-.81a1.06,1.06,0,1,1,1.06-1.06A1.06,1.06,0,0,1,12.72,26.69Z"/><path id="_Compound_Path_3" data-name="&lt;Compound Path&gt;" d="M30.28,27.5a4,4,0,0,0-1.41-5.24l-.94-2.56L25.63,19l1,2.64a4,4,0,0,0-3.82,3.83L21,27.68,21.6,30l1.8-2.22a4,4,0,0,0,5.15,1.42l2.88.42,1.7-1.71Zm-3.54-.81a1.06,1.06,0,1,1,1.06-1.06A1.06,1.06,0,0,1,26.74,26.69Z"/><path id="_Compound_Path_4" data-name="&lt;Compound Path&gt;" d="M23,15.88a4,4,0,0,0-1.41-5.24l-.94-2.56L18.34,7.4l1,2.64a4,4,0,0,0-3.82,3.83l-1.78,2.19.6,2.34,1.8-2.22a4,4,0,0,0,5.15,1.42l2.88.42,1.7-1.71Zm-3.54-.81A1.06,1.06,0,1,1,20.51,14,1.06,1.06,0,0,1,19.45,15.07Z"/></g></svg>