<svg xmlns="http://www.w3.org/2000/svg" class="HeroAbility-icon HeroAbility-icon--hoverState" viewBox="0 0 40 40" preserveAspectRatio="xMidYMid meet"><g id="_Group_2" data-name="&lt;Group&gt;"><path id="_Compound_Path_6" data-name="&lt;Compound Path&gt;" d="M24.55,17.91c0,.13-.07.24-.1.36a.3.3,0,0,0,.26.4c.4.1.78.25,1.19.33a.58.58,0,0,1,.41.55c0,.13,0,.26,0,.39q0,.75,0,1.5a.59.59,0,0,1,0,.28.23.23,0,0,1-.05-.19q0-.87,0-1.75c0-.18,0-.19-.19-.19h-2a.26.26,0,0,0-.2.06,15.44,15.44,0,0,1-1.38,1.11.5.5,0,0,1-.32.12h-.57a.27.27,0,0,0-.27.17.71.71,0,0,0-.1.4.45.45,0,0,0,.37.4l.44.07c.05,0,.13,0,.13.08s-.07.06-.12.06c-.26,0-.52.06-.78.06H1.74c-.33,0-.32,0-.33-.33s0-.59,0-.88.05-.27.29-.27H3.27a.49.49,0,0,0,.39-.16.35.35,0,0,0,0-.49c-.28-.31-.57-.61-.88-.89a.4.4,0,0,0-.3-.09c-.26,0-.53,0-.79,0s-.37-.07-.56-.07S1,18.86,1,18.79a7.62,7.62,0,0,1,0-.81.11.11,0,0,1,.12-.1H24.26A.67.67,0,0,1,24.55,17.91Zm-7.73,2.41a.15.15,0,0,0-.16.17.43.43,0,0,0,.05.16l.61,1.06c.05.1.13.15.24.1s.13-.14.08-.27l0,0-.59-1A.24.24,0,0,0,16.83,20.32Zm3.24,1.31a.31.31,0,0,0,0-.07,8.92,8.92,0,0,0-.58-1.16.14.14,0,0,0-.2-.05.16.16,0,0,0-.11.17.61.61,0,0,0,.06.18c.14.29.32.57.45.87a.38.38,0,0,0,.15.19A.15.15,0,0,0,20.07,21.62Zm-1.95-1.34a.18.18,0,0,0-.17.17.32.32,0,0,0,0,.21l.37.72c.06.12.11.24.18.35s.12.15.22.1.11-.14.06-.23c-.18-.4-.41-.79-.56-1.2A.17.17,0,0,0,18.12,20.29Z"/><path id="_Path_10" data-name="&lt;Path&gt;" d="M21.86,22.3l-.36.21c-.37.19-.73.41-1.08.63s-.55.25-.8.43a.91.91,0,0,0-.3.25A.27.27,0,0,1,19,24c-1.16,0-2.31,0-3.47,0-1.61,0-3.21,0-4.82,0H7.24a1.08,1.08,0,0,1-.63-.17,1.47,1.47,0,0,0-.86-.24c-1.06,0-2.12,0-3.18,0a.37.37,0,0,1-.38-.21c-.16-.28-.34-.54-.51-.81l-.11-.18a.68.68,0,0,1,.32,0h19a3.47,3.47,0,0,0,.71,0,1,1,0,0,1,.19,0Z"/><path id="_Compound_Path_7" data-name="&lt;Compound Path&gt;" d="M37.76,24c.16,0,.24.16.35.22s.06.12.06.2a8.24,8.24,0,0,0,0,2,1.44,1.44,0,0,1,0,.61c-.05.2-.09.4-.14.6a1,1,0,0,1-.34.58,1.51,1.51,0,0,1-.55.35.25.25,0,0,1-.19,0l-.47-.26c-.15-.09-.13-.2,0-.31a.79.79,0,0,0,.38-.7,3.38,3.38,0,0,0-.48-1.41,5,5,0,0,0-1.69-1.76,7.22,7.22,0,0,0-2.2-1,5.41,5.41,0,0,0-1-.15.5.5,0,0,1-.44-.61c0-.07.06-.14.08-.21a1.36,1.36,0,0,0,.05-.84c-.08-.23-.1-.48-.2-.71a.28.28,0,0,1,0-.28A12.44,12.44,0,0,1,32,19.06a.31.31,0,0,0,.07-.29c0-.2-.08-.4-.12-.6s0-.13.12-.11a.38.38,0,0,1,.34.3c.05.2.12.39.18.58a.37.37,0,0,1,0,.33c-.19.31-.37.62-.56.93a.51.51,0,0,0-.07.53,5,5,0,0,1,.19.64.18.18,0,0,0,.19.16,1.73,1.73,0,0,1,.94.34,6.05,6.05,0,0,1,1,.84c.39.39.81.77,1.24,1.12L36.86,25a1.06,1.06,0,0,1,.27.38c.1.22.18.46.28.68,0,.07,0,.12,0,.18a.31.31,0,0,0,.12.44.27.27,0,0,0,.38-.12c.12-.17.11-.32-.07-.42a.74.74,0,0,1-.34-.48,2.19,2.19,0,0,0-.75-1,28.94,28.94,0,0,1-2.21-1.88,9.42,9.42,0,0,0-.78-.71,3.2,3.2,0,0,0-1.26-.65.29.29,0,0,1-.25-.23c0-.06,0-.11-.05-.16-.15-.57-.19-.39.14-.93.1-.17.12-.17.23,0s.13.24.21.36a10.74,10.74,0,0,0,.79,1.07c.18.22.33.45.52.66a14.5,14.5,0,0,0,1.59,1.47,3.49,3.49,0,0,0,.92.56c.28.11.56.24.84.36s.21,0,.28-.12S37.72,24.15,37.76,24ZM31.66,22.2a.32.32,0,0,0-.31.31.37.37,0,0,0,.34.32.36.36,0,0,0,.35-.37C32,22.32,31.88,22.21,31.66,22.2Z"/><path id="_Path_11" data-name="&lt;Path&gt;" d="M24.44,17.69H1.16a.46.46,0,0,1,.32-.07H3.82c1.53,0,3.05,0,4.58,0a9.75,9.75,0,0,0,2.76-.44l.76-.2a16.57,16.57,0,0,1,2.17-.52,10.21,10.21,0,0,1,1.42,0,7.67,7.67,0,0,1,1.59.31c.84.2,1.67.41,2.5.66a.84.84,0,0,1,.27.11.62.62,0,0,0,.4.08c1.29,0,2.58,0,3.87,0A.33.33,0,0,1,24.44,17.69Z"/><path id="_Path_12" data-name="&lt;Path&gt;" d="M6.42,15.73a26,26,0,0,1,2.76-.07c.66,0,1.33,0,2,0s1.13-.06,1.69-.05c1,0,2.1.06,3.15,0s2.38,0,3.56,0h.59c.56,0,1.13,0,1.69-.1l1.24-.1,1.19-.14.08,0a.34.34,0,0,1-.31.24,15.19,15.19,0,0,0-2.3.63,1.34,1.34,0,0,1-.44.07H7.93a4.6,4.6,0,0,1-.69,0A1.51,1.51,0,0,1,6.42,15.73Z"/><path id="_Path_13" data-name="&lt;Path&gt;" d="M30.36,24a1.11,1.11,0,0,1-.21.41.3.3,0,0,1-.27.1h-.94c-1.08,0-2.17,0-3.25,0a6.81,6.81,0,0,1-1.14-.13l-1.42-.22a9.06,9.06,0,0,0-1.27,0,.54.54,0,0,1-.26,0c0-.08,0-.11.09-.12a9.28,9.28,0,0,1,2.17-.79c.37,0,.74-.06,1.1-.13a.23.23,0,0,1,.14,0l.74.34a2.55,2.55,0,0,0,.66.2,11.82,11.82,0,0,0,2.09.08.84.84,0,0,1,.71.27.23.23,0,0,0,.24.07A4.46,4.46,0,0,1,30.36,24Z"/><path id="_Path_14" data-name="&lt;Path&gt;" d="M12.83,16.47c-.48.12-1,.22-1.43.37a17.75,17.75,0,0,1-2,.49,5,5,0,0,1-.9.09H1.6c-.08,0-.2,0-.24-.05s0-.15.09-.22l.7-1s.07-.08.08-.12.18-.22.35-.21.62,0,.93,0a.38.38,0,0,1,.29.11,5.2,5.2,0,0,0,1.36.88A5.33,5.33,0,0,0,7,17.31a5.7,5.7,0,0,0,.91,0c.57,0,1.14-.14,1.71-.21a11.07,11.07,0,0,0,1.5-.36A4.72,4.72,0,0,1,12.83,16.47Z"/><path id="_Compound_Path_8" data-name="&lt;Compound Path&gt;" d="M19.65,23.79a6.48,6.48,0,0,1,.79-.46,16.72,16.72,0,0,1,1.87-1c.12-.06.17-.13.08-.25a.23.23,0,0,1,0-.12c0-.23-.08-.28-.3-.24a1.11,1.11,0,0,1-.44,0,.26.26,0,0,1-.21-.31c0-.17.09-.24.27-.25h0c.22,0,.46.06.66,0a2.77,2.77,0,0,0,.51-.38l1-.8a.44.44,0,0,1,.29-.11h1.06c.19,0,.21,0,.22.21,0,.47,0,.94,0,1.4a.44.44,0,0,1-.19.38l-.22.16a1.68,1.68,0,0,1-1.36.44,4.1,4.1,0,0,0-.47,0,.4.4,0,0,0-.21.05L20.3,23.73A1.17,1.17,0,0,1,19.65,23.79Zm5.15-3.13a.77.77,0,0,0-.23-.47c-.19-.25-.33-.28-.58-.1s-.65.52-1,.78a.13.13,0,0,0,0,.19,1.52,1.52,0,0,0,.43.49.35.35,0,0,0,.45,0,9.93,9.93,0,0,0,.84-.71A.24.24,0,0,0,24.8,20.66ZM22,21.33a.21.21,0,0,0-.19-.21.25.25,0,0,0-.24.23.22.22,0,0,0,.22.24A.26.26,0,0,0,22,21.33Z"/><path id="_Path_15" data-name="&lt;Path&gt;" d="M29.11,20.14h1.23a.34.34,0,0,1,.36.24A5.25,5.25,0,0,1,31,21.5a1.57,1.57,0,0,1-.15.93,1.75,1.75,0,0,1-.35.69.37.37,0,0,1-.23.11.68.68,0,0,1-.74-.35.35.35,0,0,1,0-.33,5.12,5.12,0,0,1,.38-.71,2.12,2.12,0,0,0,.16-.3A.53.53,0,0,0,30,21a.24.24,0,0,0-.22-.08,4.39,4.39,0,0,1-.51,0,.47.47,0,0,0-.36.14.52.52,0,0,1-.41.14H28a.45.45,0,0,0-.45.27c-.14.28-.3.54-.45.82s-.1.14-.21,0a.38.38,0,0,1-.12-.48,8.53,8.53,0,0,1,.66-1.29.69.69,0,0,0,.09-.14c.08-.25.27-.29.5-.28s.74,0,1.11,0Z"/><path id="_Path_16" data-name="&lt;Path&gt;" d="M36.55,27.7a7.17,7.17,0,0,0-.5-.9,3.62,3.62,0,0,0-.64-.7l-.06,0A6,6,0,0,0,33.62,25a5.34,5.34,0,0,0-1.15-.41,1.58,1.58,0,0,1-.9-.67c-.08-.12-.18-.24-.25-.36a.71.71,0,0,0-.29-.26c-.25-.13-.25-.16-.08-.42.07,0,.08.1.13.15a.6.6,0,0,0,.53.25,2,2,0,0,1,.63.07,6.45,6.45,0,0,1,3.69,2.19,2.5,2.5,0,0,1,.3.48,4.42,4.42,0,0,1,.46,1.24A.42.42,0,0,1,36.55,27.7Z"/><path id="_Path_17" data-name="&lt;Path&gt;" d="M37.54,24c0,.22-.12.33-.29.27a5.74,5.74,0,0,1-1.17-.56A11.4,11.4,0,0,1,34,21.79a7.85,7.85,0,0,1-.51-.66A7.73,7.73,0,0,1,32.72,20a1,1,0,0,0-.09-.17c-.13-.17,0-.32,0-.47s.09-.07.14,0l.32.37a4.89,4.89,0,0,0,.81.81l.07.07c.74.76,1.52,1.46,2.29,2.18.33.31.66.64,1,.93C37.42,23.77,37.53,23.85,37.54,24Z"/><path id="_Path_18" data-name="&lt;Path&gt;" d="M10.91,16.44l-.72.23A7.83,7.83,0,0,1,8.63,17c-.46.06-.93.08-1.39.1a2.67,2.67,0,0,1-.51,0,5.12,5.12,0,0,1-1.56-.5,9.4,9.4,0,0,1-.91-.54,2.1,2.1,0,0,1-.25-.2c-.09-.08-.06-.14,0-.18l.88-.44a.24.24,0,0,1,.25,0c.49.29,1,.53,1.48.86a1.73,1.73,0,0,0,1,.26c1,0,2.07,0,3.1,0h.15Z"/><path id="_Path_19" data-name="&lt;Path&gt;" d="M21.75,17a8.72,8.72,0,0,0-1.06-.23,4.17,4.17,0,0,1-.93-.36,1.26,1.26,0,0,1,.76.1,1.72,1.72,0,0,0,.66.2,11.17,11.17,0,0,0,1.59.13A11.54,11.54,0,0,1,24,17l.09,0a3.43,3.43,0,0,0,1,.45,3.19,3.19,0,0,0,1.48.12,3.1,3.1,0,0,0,.72-.17,1.55,1.55,0,0,0,.77-.58.13.13,0,0,1,.18-.06l.27.11c.15,0,.21,0,.17-.16a1.2,1.2,0,0,0-.44-.76.69.69,0,0,1,.52,0,.24.24,0,0,1,.1.38c-.07.11,0,.18.05.26l.4.41-.57.06a.81.81,0,0,0-.77.47.21.21,0,0,1-.21.13,12.45,12.45,0,0,1-1.57,0,5.45,5.45,0,0,0-.86,0,2.49,2.49,0,0,1-.61,0,.36.36,0,0,1-.18-.07.52.52,0,0,0-.43-.12H20.34a2.39,2.39,0,0,1-.72-.16c-.93-.29-1.87-.49-2.81-.74a.6.6,0,0,1-.16-.06,1.34,1.34,0,0,1,.66.06,9.51,9.51,0,0,0,1.15.34l1.19.31a3,3,0,0,0,1,0,13.49,13.49,0,0,1-2.4-.76,2.7,2.7,0,0,1,1,.09,7.5,7.5,0,0,0,2.1.58A.69.69,0,0,0,21.75,17Z"/><path id="_Path_20" data-name="&lt;Path&gt;" d="M26.66,20.2l.19-.33a1.26,1.26,0,0,1,.53-.5c.24-.12.33-.06.35.19s0,.33-.18.42-.06.07-.09.11a14.15,14.15,0,0,0-.89,1.67s0,0,0,.05,0,0,0-.06c0-.74,0-1.48,0-2.21a.78.78,0,0,0-.56-.72,11.52,11.52,0,0,1-1.11-.3c-.19-.06-.22-.11-.19-.3a.37.37,0,0,1,.18-.28.92.92,0,0,1,.51-.16c.22,0,.44,0,.66,0a.5.5,0,0,1,.44.22l.28.4a.63.63,0,0,0,.6.31,5.38,5.38,0,0,1,.54,0c.09,0,.17,0,.16.13s0,.18-.15.19h-.12a1,1,0,0,0-.77.37,1.3,1.3,0,0,0-.35.64A.15.15,0,0,0,26.66,20.2Z"/><path id="_Path_21" data-name="&lt;Path&gt;" d="M20.43,24a.34.34,0,0,1,.23-.2c.76-.33,1.48-.75,2.23-1.1a1.49,1.49,0,0,1,.91-.13,1.25,1.25,0,0,0,1-.23l.66-.47a.55.55,0,0,0,.21-.47q0-.64,0-1.28c0-.07,0-.13,0-.2s.1-.13.2-.13.18,0,.18.15,0,.21,0,.32c0,.41,0,.82,0,1.23a1.13,1.13,0,0,1-.64,1.08A2.52,2.52,0,0,1,24,23a4.67,4.67,0,0,0-.77.13,3.73,3.73,0,0,0-.61.26c-.4.19-.83.32-1.22.53a.3.3,0,0,1-.12,0A6,6,0,0,1,20.43,24Z"/><path id="_Path_22" data-name="&lt;Path&gt;" d="M28.4,16.55a.46.46,0,0,1-.34-.21,1.57,1.57,0,0,0-.39-.37.5.5,0,0,0-.31-.11l.27.28a.57.57,0,0,1-.11.91,1.5,1.5,0,0,1-.54.21,4.51,4.51,0,0,1-1.7-.07,5.93,5.93,0,0,1-1.44-.6,5.81,5.81,0,0,1-1-.61,1.44,1.44,0,0,1,.54-.17c.07,0,.12.05.17.09a8.35,8.35,0,0,0,1,.75,2.39,2.39,0,0,0,.83.27,2.53,2.53,0,0,0,1,0,.64.64,0,0,0,.39-1c-.08-.1-.06-.15.06-.19a.56.56,0,0,1,.19,0,1.78,1.78,0,0,1,1.27.57A.6.6,0,0,1,28.4,16.55Z"/><path id="_Path_23" data-name="&lt;Path&gt;" d="M10.24,24.6H7.8c-.21,0-.23,0-.27-.17s0-.3.23-.3h4.8c.08,0,.19,0,.22.06a1.6,1.6,0,0,1,.08.36s0,.06-.07.06H10.24Z"/><path id="_Path_24" data-name="&lt;Path&gt;" d="M6.18,24.8a.36.36,0,0,1-.23,0c-.87,0-1.74,0-2.61,0a.42.42,0,0,1-.46-.31c0-.14-.11-.27-.16-.4s.1-.06.16-.06H5.33c.22,0,.23,0,.26.2a.4.4,0,0,0,.24.32Z"/><path id="_Path_25" data-name="&lt;Path&gt;" d="M29.07,17.26a3.21,3.21,0,0,1,.9-.12.4.4,0,0,0,.24,0,1.83,1.83,0,0,1,1-.2,1.65,1.65,0,0,1,.38,0,.87.87,0,0,1-.67.51,1.56,1.56,0,0,0-.51.16.78.78,0,0,0-.31.34,1.12,1.12,0,0,1-.51.48,1.26,1.26,0,0,1-.7.15c-.22,0-.44,0-.66,0a.62.62,0,0,1-.49-.58.07.07,0,0,1,.05-.07.08.08,0,0,1,.09,0,1.28,1.28,0,0,1,.07.15.65.65,0,0,0,1,.34.71.71,0,0,0,.24-1Z"/><path id="_Path_26" data-name="&lt;Path&gt;" d="M31.59,19.25l-.69,1,0,0c-.1-.27-.32-.29-.58-.29-.69,0-1.38,0-2.06,0h-.12c-.17,0-.2-.05-.14-.22s.07-.15.09-.23c.09-.29.09-.31.4-.32s.64,0,1,0a.53.53,0,0,1,.17,0,.19.19,0,0,1,.14.16c0,.09-.05.13-.12.17a.46.46,0,0,1-.55,0s-.09-.07-.13,0,0,.09,0,.13a.45.45,0,0,0,.6.11,1.69,1.69,0,0,1,1.08-.23,1.17,1.17,0,0,0,.62-.14l.36-.16Z"/><path id="_Path_27" data-name="&lt;Path&gt;" d="M26.37,14.66a4.36,4.36,0,0,1-1,0,.31.31,0,0,1-.22-.11.47.47,0,0,0-.38-.12H19.82a.14.14,0,0,1-.15-.12c0-.08,0-.13.07-.14h3c.48,0,1,0,1.44-.06a1.94,1.94,0,0,1,1.08.32l.21.13a.5.5,0,0,0,.33.06.88.88,0,0,1,.53,0Z"/><path id="_Path_28" data-name="&lt;Path&gt;" d="M25.19,22.89l.65-.42c.09-.06.16,0,.24,0a2.39,2.39,0,0,0,.7.45,2.31,2.31,0,0,0,1,.15,1.6,1.6,0,0,1,.44,0,1,1,0,0,0,.29,0s.09,0,.12,0,.2.11.17.22-.14.05-.22.05a17.25,17.25,0,0,1-2-.06l-.17,0A6.37,6.37,0,0,1,25.19,22.89Z"/><path id="_Path_29" data-name="&lt;Path&gt;" d="M3.37,25a.64.64,0,0,1,.27,0H5.9c.29,0,.29,0,.36.28l0,.14c0,.1,0,.14-.11.14H5.61c-.41,0-.81.08-1.23.05a.58.58,0,0,1-.32-.1C3.84,25.38,3.6,25.24,3.37,25Z"/><path id="_Path_30" data-name="&lt;Path&gt;" d="M25.17,14.9h-1.9c-.83,0-1.66,0-2.48,0a1.09,1.09,0,0,1-.73-.28h.3c1.38,0,2.75,0,4.13,0A.84.84,0,0,1,25.17,14.9Z"/><path id="_Path_31" data-name="&lt;Path&gt;" d="M32.58,16.34a.2.2,0,0,0-.2.11.41.41,0,0,1-.4.23H30.77a4.76,4.76,0,0,0,.43-.49h0a.2.2,0,0,0,.1-.15h0a.18.18,0,0,0,.1-.15h0l.05-.05h0v0h0a.18.18,0,0,1,.21-.13l.93.15c.16,0,.19.08.16.23s0,.16-.06.23h0s-.08,0-.1,0Z"/><path id="_Path_32" data-name="&lt;Path&gt;" d="M31.74,18.45a1.23,1.23,0,0,0-1-.29.68.68,0,0,0-.42.18.42.42,0,0,0,.07.72s.09,0,.12.07a2,2,0,0,0-.37,0,.23.23,0,0,1-.19,0A2.13,2.13,0,0,0,28.93,19h-.57c-.06,0-.13,0-.14-.07s0-.17.11-.2h.56a1.31,1.31,0,0,0,1.05-.3.91.91,0,0,0,.28-.31.27.27,0,0,1,.28-.14h.86c.32,0,.32,0,.38.31C31.76,18.33,31.8,18.39,31.74,18.45Z"/><path id="_Path_33" data-name="&lt;Path&gt;" d="M38.34,27.33a4.28,4.28,0,0,0,0-1.52,2.34,2.34,0,0,1,0-.44q0-.37,0-.74c0-.09,0-.21.1-.23a.29.29,0,0,1,.27.09A.84.84,0,0,1,39,25a3,3,0,0,1-.21,1.19c-.15.36-.26.74-.41,1.1Z"/><path id="_Path_34" data-name="&lt;Path&gt;" d="M27.7,15.6a2.44,2.44,0,0,1-.47-.13,1.38,1.38,0,0,0-1.38.26.59.59,0,0,0-.22.66c0,.05,0,.11,0,.2a.43.43,0,0,1-.23-.27,1.2,1.2,0,0,1,.09-.89c.06-.12.11-.21,0-.34s0-.14,0-.23h.62a.47.47,0,0,1,.22,0c.45.23.92.43,1.36.69Z"/><path id="_Path_35" data-name="&lt;Path&gt;" d="M25.18,14.14h1.18a.45.45,0,0,1,.17,0,9.08,9.08,0,0,1,1.87,1l.18.12s.15,0,.1.13a.21.21,0,0,1-.2.12.34.34,0,0,1-.11,0c-.36-.2-.72-.39-1.07-.59a5.14,5.14,0,0,0-.87-.4,1.32,1.32,0,0,0-.56,0,.66.66,0,0,1-.48-.13,2.18,2.18,0,0,0-.21-.13Z"/><path id="_Path_36" data-name="&lt;Path&gt;" d="M1.17,21.2A1.69,1.69,0,0,1,1,20.26a1.25,1.25,0,0,1,.22-.59.32.32,0,0,1,.47-.12,3.45,3.45,0,0,1,.55.49.26.26,0,0,1,.07.18c0,.15,0,.19-.18.2H1.65c-.22,0-.3.05-.34.26s-.05.34-.08.51Z"/><path id="_Path_37" data-name="&lt;Path&gt;" d="M4.5,23.7H5.93c.26,0,.26,0,.29.26,0,.07,0,.14,0,.22a.24.24,0,0,1,0,.14.3.3,0,0,1-.18.21c-.07,0-.27-.13-.29-.2a.44.44,0,0,1,0-.07c-.06-.34-.06-.34-.4-.34H2.92a.09.09,0,0,1-.08-.1.09.09,0,0,1,.09-.1H4.5Z"/><path id="_Path_38" data-name="&lt;Path&gt;" d="M30.35,23.42a.6.6,0,0,1-.09.24.22.22,0,0,1-.23.15c-.17,0-.34,0-.51,0a.57.57,0,0,1-.42-.3,1.72,1.72,0,0,0-.36-.43.45.45,0,0,1-.1-.14.08.08,0,0,1,.06-.13,2.33,2.33,0,0,1,.56,0,.13.13,0,0,1,.1.07l0,0C29.55,23.37,29.92,23.43,30.35,23.42Z"/><path id="_Path_39" data-name="&lt;Path&gt;" d="M28.14,17.83a.43.43,0,0,1,.44-.45c.33,0,.53.15.53.41a.53.53,0,0,1-.52.52A.45.45,0,0,1,28.14,17.83Z"/><path id="_Path_40" data-name="&lt;Path&gt;" d="M20.81,16.44l.05,0a2.79,2.79,0,0,0,1.31-.24.42.42,0,0,1,.36,0,6.62,6.62,0,0,0,.87.4s.07,0,.12.11A18.9,18.9,0,0,1,20.81,16.44Z"/><path id="_Path_41" data-name="&lt;Path&gt;" d="M.84,18.41a2.55,2.55,0,0,1-.12-.75,2.1,2.1,0,0,1,.11-.87.64.64,0,0,1,.76-.35c.07,0,.07.06,0,.11l-.08.12c-.22.31-.4.64-.59,1a.44.44,0,0,0-.06.21C.88,18,.86,18.19.84,18.41Z"/><path id="_Path_42" data-name="&lt;Path&gt;" d="M25.22,15.15a.18.18,0,0,1,.08.25,1.86,1.86,0,0,0-.11,1.07,1.27,1.27,0,0,1-.72-.9.2.2,0,0,1,0-.14c0-.05,0-.14.12-.14s.08.07.11.12.06.19.17.18.15-.11.2-.19Z"/><path id="_Path_43" data-name="&lt;Path&gt;" d="M29.08,22.49a1.13,1.13,0,0,0,.06-1.34,1.57,1.57,0,0,1,.66,0c.17,0,.18.37,0,.47a.59.59,0,0,0-.21.28A1.4,1.4,0,0,1,29.08,22.49Z"/><path id="_Path_44" data-name="&lt;Path&gt;" d="M1.58,19.19a.74.74,0,0,1,.81.23c.12.14.24.27.35.41a.59.59,0,0,1,0,.52c0,.09-.11.08-.19.07a.1.1,0,0,1-.1-.13c.06-.2,0-.32-.19-.44Z"/><path id="_Path_45" data-name="&lt;Path&gt;" d="M2.41,19.19a.29.29,0,0,1,.32.07c.28.24.51.53.77.78a.21.21,0,0,1,.06.24.23.23,0,0,1-.22.13h0c-.27,0-.29,0-.27-.26a.61.61,0,0,0-.2-.53C2.68,19.51,2.58,19.34,2.41,19.19Z"/><path id="_Path_46" data-name="&lt;Path&gt;" d="M30.68,19.31l.29-.1a.65.65,0,0,0,.33-.24.21.21,0,0,0-.05-.34.52.52,0,0,0-.52,0,.13.13,0,0,0-.07.2c.06.12,0,.11-.1.1a.19.19,0,0,1-.14-.31.39.39,0,0,1,.25-.19,1,1,0,0,1,.63,0,.39.39,0,0,1,.11.68A.85.85,0,0,1,30.68,19.31Z"/><path id="_Path_47" data-name="&lt;Path&gt;" d="M27.41,22.92a1.49,1.49,0,0,1-.68-.17,1.87,1.87,0,0,1-.54-.37c-.06-.06-.13-.13-.08-.23s.14-.07.22-.06a.28.28,0,0,1,.24.14,3.21,3.21,0,0,0,.23.29.2.2,0,0,0,.17.09C27.19,22.57,27.3,22.71,27.41,22.92Z"/><path id="_Path_48" data-name="&lt;Path&gt;" d="M13.59,24.13h.29a.1.1,0,0,1,.1.06.11.11,0,0,1,0,.13,1.6,1.6,0,0,1-.49.27.19.19,0,0,1-.22,0,.42.42,0,0,1-.08-.35c0-.06.07-.06.12-.07h.32Z"/><path id="_Path_49" data-name="&lt;Path&gt;" d="M6.41,23.89c.1,0,.15,0,.21.09a.52.52,0,0,0,.35.15c.11,0,.17,0,.16.16a1.28,1.28,0,0,0,0,.15c0,.15,0,.19-.17.16A.77.77,0,0,1,6.41,23.89Z"/><path id="_Path_50" data-name="&lt;Path&gt;" d="M26.31,16a.24.24,0,0,1,.22.37l0,.06a.32.32,0,0,1-.39.12.2.2,0,0,1-.13-.25A.36.36,0,0,1,26.31,16Z"/><path id="_Path_51" data-name="&lt;Path&gt;" d="M24.6,16.44a2.55,2.55,0,0,1-.81-.69.78.78,0,0,1,.38,0c.07,0,.1,0,.12.11a2,2,0,0,0,.31.63Z"/><path id="_Path_52" data-name="&lt;Path&gt;" d="M27.26,18.26h.24a.22.22,0,0,1,.16.05c.05.05.11.11.08.19s-.1,0-.15,0a.9.9,0,0,1-.56-.09c-.05,0-.13-.06-.11-.14s.09,0,.15,0h.19Z"/><path id="_Path_53" data-name="&lt;Path&gt;" d="M26.61,17.88a6.67,6.67,0,0,1,.85,0c.06,0,.12,0,.11.1s-.05.08-.11.08h-.66C26.72,18.05,26.66,18,26.61,17.88Z"/><path id="_Path_54" data-name="&lt;Path&gt;" d="M27.5,15.21a9.16,9.16,0,0,1-1.13-.54h0a.78.78,0,0,1,.35.09,3.69,3.69,0,0,1,.78.45Z"/><path id="_Path_55" data-name="&lt;Path&gt;" d="M30.9,19c.05-.09.13-.14.13-.23s0-.06.09,0a.07.07,0,0,1,0,.1A.32.32,0,0,1,30.9,19Z"/><path id="_Path_56" data-name="&lt;Path&gt;" d="M37.6,26.46a.09.09,0,0,1-.08-.1.09.09,0,0,1,.09-.1c.06,0,.08,0,.08.1S37.67,26.46,37.6,26.46Z"/><path id="_Path_57" data-name="&lt;Path&gt;" d="M6.44,25.2a.28.28,0,0,1,0-.27A.41.41,0,0,1,6.44,25.2Z"/><path id="_Path_58" data-name="&lt;Path&gt;" d="M30.58,17.75a.41.41,0,0,1,.24,0C30.75,17.76,30.75,17.76,30.58,17.75Z"/><path id="_Path_59" data-name="&lt;Path&gt;" d="M24.91,15.25l0,0a0,0,0,0,1,0,0s0,0,0,0S24.92,15.24,24.91,15.25Z"/><path id="_Path_60" data-name="&lt;Path&gt;" d="M24.64,16.49l.05,0h0l0,0Z"/><path id="_Path_61" data-name="&lt;Path&gt;" d="M27.6,15.26l.1,0h0l-.1,0Z"/><path id="_Path_62" data-name="&lt;Path&gt;" d="M27.6,15.25l-.1,0h0l.1,0Z"/><path id="_Path_63" data-name="&lt;Path&gt;" d="M38.34,27.33h0s0,0,0,0Z"/><path id="_Path_64" data-name="&lt;Path&gt;" d="M28,15.75l-.1,0h0l.1,0Z"/><path id="_Path_65" data-name="&lt;Path&gt;" d="M27.8,15.65l.1,0h0l-.1,0Z"/><path id="_Path_66" data-name="&lt;Path&gt;" d="M27.8,15.65l-.1,0h0l.1,0Z"/><polygon id="_Path_67" data-name="&lt;Path&gt;" points="28 15.45 28.02 15.46 28 15.45 28 15.45"/><path id="_Path_68" data-name="&lt;Path&gt;" d="M28,15.45l-.1,0h0l.1,0Z"/><path id="_Path_69" data-name="&lt;Path&gt;" d="M27.8,15.36l.1,0h0l-.1,0Z"/><path id="_Path_70" data-name="&lt;Path&gt;" d="M27.8,15.35l-.1,0h0l.1,0Z"/><path id="_Path_71" data-name="&lt;Path&gt;" d="M24.65,16.49l-.05,0h0l0,.05Z"/><polygon id="_Path_72" data-name="&lt;Path&gt;" points="31.59 19.25 31.6 19.24 31.59 19.25 31.59 19.25"/><path id="_Path_73" data-name="&lt;Path&gt;" d="M28,15.8h0Z"/><path id="_Path_74" data-name="&lt;Path&gt;" d="M31.39,15.85l0,0h0a.27.27,0,0,0,0,0h0Z"/><path id="_Path_75" data-name="&lt;Path&gt;" d="M31.39,15.9v0h0v0Z"/><path id="_Path_76" data-name="&lt;Path&gt;" d="M31.3,16h0Z"/><path id="_Path_77" data-name="&lt;Path&gt;" d="M31.2,16.19h0Z"/><path id="_Path_78" data-name="&lt;Path&gt;" d="M28,15.75l.05.05h0L28,15.75Z"/><path id="_Path_79" data-name="&lt;Path&gt;" d="M31.82,22.51a.11.11,0,0,1-.12.12.12.12,0,0,1-.14-.11c0-.08,0-.11.13-.11S31.81,22.43,31.82,22.51Z"/><path id="_Path_80" data-name="&lt;Path&gt;" d="M23.64,21.47a.21.21,0,0,1-.13-.06,2.29,2.29,0,0,1-.23-.22c-.11-.14-.11-.19,0-.31s.53-.44.8-.65.19-.09.31,0v0c.25.32.25.35,0,.62l-.52.44A.43.43,0,0,1,23.64,21.47Z"/></g></svg>