<svg xmlns="http://www.w3.org/2000/svg" class="HeroAbility-icon HeroAbility-icon--hoverState" viewBox="0 0 40 40" preserveAspectRatio="xMidYMid meet"><path d="M33.84,11.36a1,1,0,0,0-.82-.48h-3.7a12.38,12.38,0,0,0-17.46-1.1h0c-.39.35-.77.72-1.12,1.1H7.05a.94.94,0,0,0-.89,1,.93.93,0,0,0,.12.46l1.89,3.26A12.4,12.4,0,0,0,16.45,31c.3.09.59.17.89.23l2,3.31a.91.91,0,0,0,.78.46.94.94,0,0,0,.81-.46l2-3.36A12.39,12.39,0,0,0,32.1,16.28c-.06-.24-.12-.47-.19-.71l1.92-3.26A1,1,0,0,0,33.84,11.36ZM11.84,25A10.12,10.12,0,0,1,26,10.88l.32.29L12.09,25.38ZM20,29.21a10.07,10.07,0,0,1-6.09-2.05l-.32-.27L27.81,12.68l.29.34A10.18,10.18,0,0,1,20,29.21Z"/><path d="M14.68,21.28c-.67-1.09-1.35-2.15-2-3.2.41-1.35.84-2.67,1.35-4,1.14-2.82,6.31-3,7.11-3A7.41,7.41,0,0,1,24,12L17.28,18.7a6.57,6.57,0,0,1-.5-.44c-.46-.43-.89-1.06-1.39-1.27s-1.34-.11-1,0a21,21,0,0,0,.78,2A8,8,0,0,0,16,20Zm12-5.87a16.55,16.55,0,0,0,.78,1.78c-.89,1.34-1.78,2.74-2.66,4.1.1.56.22,1.11.31,1.68l-2.89.53v2c-.34.19-2.49,1.51-2.49,1.51s-2.17-1.38-2.53-1.51v-.61l1.71-1.73a4.71,4.71,0,0,1,.72.62c.47-.18.72-.59,1.13-.89a7.75,7.75,0,0,0-.48-1.11l1.66-1.67c.46,0,1-.08,1.45-.07.36-.51.89-.83,1.29-1.38s.38-1.4.77-2c.06,0,0-.06,0-.08Z"/></svg>