<svg xmlns="http://www.w3.org/2000/svg" class="HeroAbility-icon HeroAbility-icon--hoverState" viewBox="0 0 40 40" preserveAspectRatio="xMidYMid meet"><g id="_Group_" data-name="&lt;Group&gt;"><path id="_Compound_Path_" data-name="&lt;Compound Path&gt;" class="cls-1" d="M29.7,17.65c0-.24-.05-.48-.07-.72a1.14,1.14,0,0,0-.18-.57c-.22-.32-.42-.65-.64-1a29.14,29.14,0,0,0-3-3.47,26.66,26.66,0,0,0-4-3.22,3.76,3.76,0,0,0-2-.62,3.86,3.86,0,0,0-1.19.17,5.94,5.94,0,0,0-1.77.91,15.37,15.37,0,0,0-2.39,2q-1.25,1.22-2.4,2.52a20.7,20.7,0,0,0-1.36,1.65c-.29.41-.55.83-.83,1.24a.58.58,0,0,0-.11.31c0,.32,0,.64-.06,1a1.07,1.07,0,0,0,.08.48c.31.8.63,1.59.92,2.4a1.7,1.7,0,0,0,.68.8,1.07,1.07,0,0,0,.43.23l1.52.27a.66.66,0,0,1,.35.15L16.91,25a4.13,4.13,0,0,0,1.87,1.05,3.29,3.29,0,0,0,.87.14,8.34,8.34,0,0,0,1.25-.16,2.2,2.2,0,0,0,1-.52l3.94-3.49a.32.32,0,0,1,.18-.09l.64-.08a3.67,3.67,0,0,0,1.21-.26,1.53,1.53,0,0,0,.75-.7,20.76,20.76,0,0,0,1-2.81A1.27,1.27,0,0,0,29.7,17.65Zm-15.4,1.51a1.08,1.08,0,1,1,1.09-1.08A1.08,1.08,0,0,1,14.29,19.16Zm5.52,5.11a2.63,2.63,0,1,1,2.66-2.61A2.63,2.63,0,0,1,19.81,24.28Zm5.39-5.11a1.08,1.08,0,1,1,1.09-1.07A1.08,1.08,0,0,1,25.2,19.16Z"/><path id="_Compound_Path_2" data-name="&lt;Compound Path&gt;" class="cls-1" d="M32.7,23.06c-.11-.41-.17-.83-.31-1.22a8.4,8.4,0,0,0-.83-1.69c-.15-.24-.29-.37-.58-.27a.8.8,0,0,1-.21,0,.45.45,0,0,0-.31.16,24.62,24.62,0,0,1-1.87,1.71,1.65,1.65,0,0,1-.67.44c-.45.1-.89.21-1.35.29a1.46,1.46,0,0,0-.53.12,18,18,0,0,0-2,1.46c-.85.72-1.67,1.49-2.46,2.28a1,1,0,0,0-.31.48.54.54,0,0,1-.53.46,5.41,5.41,0,0,1-2,0,.37.37,0,0,1-.25-.17,4.63,4.63,0,0,0-.72-.94c-.51-.46-1-.94-1.5-1.42-.2-.19-.39-.39-.61-.56-.67-.52-1.34-1-2-1.54a.58.58,0,0,0-.23-.12c-.58-.13-1.15-.26-1.74-.35a.42.42,0,0,1-.22-.1L9.56,20.51c-.12-.11-.29-.18-.35-.34a.47.47,0,0,0-.46-.29l-.17,0a.23.23,0,0,0-.26.1c-.23.29-.47.58-.71.86a2.9,2.9,0,0,0-.44.68c-.27.57-.44,1.18-.67,1.76a.27.27,0,0,0,0,.18,11.09,11.09,0,0,0,.57,1.64c.27.61.48,1.25.79,1.84.43.83.9,1.65,1.38,2.46a.78.78,0,0,0,.18.21l1,.81a7.46,7.46,0,0,0,1.9,1.22,2,2,0,0,0,1.56,0A5.1,5.1,0,0,0,15,30.89c.77-.59,1.55-1.18,2.31-1.78a3.88,3.88,0,0,1,2.54-.83,7.43,7.43,0,0,1,1.92.47,1.1,1.1,0,0,1,.32.19c.48.41.95.83,1.46,1.2a12.26,12.26,0,0,0,1.92,1.27,4.63,4.63,0,0,0,1.39.34,3,3,0,0,0,1.17-.47A20.38,20.38,0,0,0,30.65,29a.89.89,0,0,0,.17-.25c.17-.4.35-.8.51-1.2s.47-1,.64-1.55c.25-.75.46-1.51.7-2.25A1.21,1.21,0,0,0,32.7,23.06Zm-23,1.2a3.2,3.2,0,0,1-.45.23.61.61,0,0,1-.74-.23,1.23,1.23,0,0,1,0-1.57.61.61,0,0,1,.75-.16,1.55,1.55,0,0,1,.71.54.89.89,0,0,1,.14.48A.78.78,0,0,1,9.65,24.26Zm4.74,4.9a2.08,2.08,0,1,1,2.09-2.08A2.08,2.08,0,0,1,14.39,29.16Zm10.71,0a2.08,2.08,0,1,1,2.1-2.08A2.08,2.08,0,0,1,25.1,29.16Zm6.09-5a.65.65,0,0,1-.88.26,2.1,2.1,0,0,1-.59-.37.71.71,0,0,1-.22-.52,1.1,1.1,0,0,1,.73-1l.07,0a.7.7,0,0,1,1,.48A1.3,1.3,0,0,1,31.19,24.19Z"/></g></svg>