<svg xmlns="http://www.w3.org/2000/svg" class="HeroAbility-icon" viewBox="0 0 40 40" preserveAspectRatio="xMidYMid meet"><path id="_Compound_Path_" data-name="&lt;Compound Path&gt;" d="M32.81,10.49a.34.34,0,0,0,0-.16l0-.12v0h0v0h0v0h0c-.53-1.56-1.88-2.39-3.9-2.39a18.14,18.14,0,0,0-7.27,2.12.34.34,0,0,0-.38-.12c-4,1.38-7.28,5.94-9.93,9.6-.53.73-1,1.43-1.5,2a.34.34,0,0,0,.39.53L15.2,20c-.84,2.82-4,6.58-6.43,9.38-.69.81-1.29,1.51-1.76,2.11a.34.34,0,0,0,.27.55h.06c2.89-.56,12.83-3.43,15.35-6a6.25,6.25,0,0,1-.21.8.34.34,0,0,0,.1.37c.11.09.07.07.19,0a11.06,11.06,0,0,0,1.58-.93l.14-.1C29.66,22.89,34.21,15.61,32.81,10.49Zm-9.56,12.2c-.06,0-.09-1.81-.2-1.81-.62,0-3.6,2.18-5.19,3.08a2.86,2.86,0,0,1,.16-.45,50.75,50.75,0,0,0,2.87-5.79c.33-.74-1.12-.88-1.33-.83,1-2.65,4.41-4.13,5.49-4.27C29.9,12,28.94,17.29,29,17.32,27.64,19.52,23.72,22.49,23.26,22.69Z"/></svg>