<svg xmlns="http://www.w3.org/2000/svg" class="HeroAbility-icon HeroAbility-icon--hoverState" viewBox="0 0 40 40" preserveAspectRatio="xMidYMid meet"><g id="_Group_17" data-name="&lt;Group&gt;"><g id="_Group_18" data-name="&lt;Group&gt;"><path id="_Path_12" data-name="&lt;Path&gt;" d="M35.43,10.61c-.19,0-6.93-.28-10.77,1.21a.69.69,0,0,0-.44.75l0,.08c.51.14,3.48.66,3.17,1.07S24.91,16,23.89,17a30.15,30.15,0,0,0-5.18,7.18,1.31,1.31,0,0,0-.11.27,21.09,21.09,0,0,0-8.69-9c-.08,0-.16.05-.11.14a5.52,5.52,0,0,1,.76,2.7c-.2-.07-4-1.93-5.72-2a.18.18,0,0,0-.08.33c1.78,1,7.1,4.74,7.86,6.9a12.78,12.78,0,0,0-1.93,0c-.14,0-.22.2-.09.27a18.48,18.48,0,0,1,6,5.8,5.39,5.39,0,0,0,3.81.09q.21-.45.44-.9c2-6.22,8.21-10.6,9.86-11,0,0,.5,0,1.06,3.11h0a.48.48,0,0,0,.72-.21,64.34,64.34,0,0,0,3-9.38C35.58,11.2,35.71,10.77,35.43,10.61Z"/><path id="_Path_13" data-name="&lt;Path&gt;" d="M4,20.11a.17.17,0,0,0,0,.33A27,27,0,0,1,9.8,23.27,5.14,5.14,0,0,0,4,20.11Z"/></g></g></svg>