<svg xmlns="http://www.w3.org/2000/svg" class="HeroAbility-icon HeroAbility-icon--hoverState" viewBox="0 0 40 40" preserveAspectRatio="xMidYMid meet"><g id="_Group_8" data-name="&lt;Group&gt;"><path id="_Compound_Path_4" data-name="&lt;Compound Path&gt;" d="M12.46,11.68h4.1a1.09,1.09,0,0,1,.78.33c.29.26.62.5.92.76a.29.29,0,0,0,.2,0l5.42,0a.35.35,0,0,1,.34.15A12.5,12.5,0,0,1,25,14.34c.17.37.11.45-.29.45-1.13,0-2.26,0-3.39,0a.54.54,0,0,1-.59-.36c-.13-.37-.39-.45-.76-.45-1.46,0-2.93,0-4.39,0a2.46,2.46,0,0,0-1.4.4c-1.55,1-3.12,1.89-4.66,2.85A4.15,4.15,0,0,1,7.25,18c-.9,0-1.81,0-2.71,0a.84.84,0,0,1-.67-.6.76.76,0,0,1,.33-1,.74.74,0,0,0,.27-.43c.2-.7.39-1.4.61-2.1a2.82,2.82,0,0,1,1.6-1.61,5,5,0,0,1,2.6-.52C10.34,11.71,11.4,11.68,12.46,11.68Zm-7,4.5a.57.57,0,0,0-.57.57.49.49,0,0,0,.5.41.48.48,0,0,0,.55-.47A.46.46,0,0,0,5.44,16.19Z"/><path id="_Compound_Path_5" data-name="&lt;Compound Path&gt;" d="M13.75,21.61c0,.8,0,1.69,0,2.59a.61.61,0,0,1-.13.44c-.21.27-.4.55-.62.81a1,1,0,0,1-1,.31,6.57,6.57,0,0,0-1,0,22.07,22.07,0,0,1-2.34-.24,6.77,6.77,0,0,1-2.33-.73A5.21,5.21,0,0,1,3.69,22,1.63,1.63,0,0,1,4,20.58a1,1,0,0,1,.83-.33c.6,0,1.21,0,1.81,0A.75.75,0,0,0,7.28,20a24.8,24.8,0,0,1,2.64-2.53c.12-.1.24-.28.4-.22a2,2,0,0,1,.81.42c.09.09.05.22,0,.33-.07.49-.15,1-.23,1.45a.41.41,0,0,0,.26.52c.36.15.54.14.74-.08s.48-.54.73-.8.26-.36.51-.28a.88.88,0,0,1,.59.7C13.76,20.17,13.75,20.84,13.75,21.61Zm-8.13.45a.42.42,0,0,0-.37-.41.47.47,0,0,0-.35.46.3.3,0,0,0,.33.32A.35.35,0,0,0,5.62,22.07Z"/><path id="_Compound_Path_6" data-name="&lt;Compound Path&gt;" d="M21.55,22.87a1.15,1.15,0,0,1,.44-.92,6.5,6.5,0,0,1,1.06-.69.7.7,0,0,0,.35-.41c.11-.35.23-.7.33-1.05a1.37,1.37,0,0,1,.6-.77c.36-.25.63,0,.86.19a17.23,17.23,0,0,1,1.71,1.59,13,13,0,0,0,1.58,1.59,2.26,2.26,0,0,1,.42.69,4.57,4.57,0,0,1,.73,1.52.9.9,0,0,1-.36,1,.58.58,0,0,0-.2.3,12.38,12.38,0,0,0-.58,1.91,1,1,0,0,1-.54.69c-.73.41-1.46.79-2.21,1.16A.92.92,0,0,1,24.28,29a10.9,10.9,0,0,1-.3-1.49,6.29,6.29,0,0,0-1.16-2.76,10.14,10.14,0,0,0-.94-1A1.14,1.14,0,0,1,21.55,22.87ZM28.91,25a.4.4,0,0,0-.35-.42c-.19,0-.38.25-.38.5a.38.38,0,0,0,.38.39A.42.42,0,0,0,28.91,25Zm-5.7-2.62a.38.38,0,0,0-.37-.4.43.43,0,0,0-.36.44.36.36,0,0,0,.73,0Z"/><path id="_Path_3" data-name="&lt;Path&gt;" d="M25,17.87c0,.25-.19.43-.2.67,0,.07-.1.08-.17.1a1.52,1.52,0,0,0-1.29,1.3,4.09,4.09,0,0,1-.19.57c-.05.14-.15.17-.21,0a1.33,1.33,0,0,0-1.37-.86.73.73,0,0,1-.58-.26l-.06,0a2.31,2.31,0,0,0-1.89-.64,16.48,16.48,0,0,1-2.05,0,2.34,2.34,0,0,0-1.73.74,1.33,1.33,0,0,0-.35.88,3.54,3.54,0,0,0,.07.73,1,1,0,0,0,.85.86,6.48,6.48,0,0,0,3.73-.07,6.71,6.71,0,0,0,.88-.41.22.22,0,0,0,.11-.19,3.91,3.91,0,0,0-.19-1.71c0-.07-.09-.17,0-.22s.16,0,.22.09a1.16,1.16,0,0,1,.33.3.36.36,0,0,0,.27.15l.78.13a1.34,1.34,0,0,1,.89.92c0,.14-.09.18-.18.23a8.13,8.13,0,0,0-.89.6,1.53,1.53,0,0,0-.1,2.16,8,8,0,0,1,.86.92,5.19,5.19,0,0,1,.82,1.49,14.72,14.72,0,0,1,.57,2.4A1.78,1.78,0,0,0,24.68,30s.08,0,.06.1-.07,0-.11.05a1,1,0,0,1-1.11-.83c-.08-.7-.13-1.41-.23-2.11a4.9,4.9,0,0,0-1.12-2.5l-.66-.78a2.13,2.13,0,0,1-.5-1.4c0-.21-.16-.18-.28-.12A9.17,9.17,0,0,1,18.8,23l-.13,0-1.39,0a8.09,8.09,0,0,1-2.38-.29,1.79,1.79,0,0,0-.6-.07c-.18,0-.28-.06-.28-.25,0-1-.06-2.07,0-3.1A.25.25,0,0,0,14,19.1l-.19-.18c-.11-.12-.33-.2-.2-.42s.2-.44.54-.44c1.8,0,3.59,0,5.39,0a.91.91,0,0,1,.47.14,10.1,10.1,0,0,0,1.21.63,1.29,1.29,0,0,0,.92,0,2.56,2.56,0,0,0,.63-.26,2.51,2.51,0,0,1,1.12-.34A2.49,2.49,0,0,0,25,17.87Z"/><path id="_Path_4" data-name="&lt;Path&gt;" d="M17,17.78H14.35c-.3,0-.32-.05-.2-.32a.56.56,0,0,1,.44-.36l4.3-.72,1.3-.2a.38.38,0,0,0,.29-.22,1.09,1.09,0,0,1,1-.66c1.23,0,2.45,0,3.68,0,.29,0,.64.48.54.75A4.93,4.93,0,0,1,25,17.48,1.42,1.42,0,0,1,24,18c-.25,0-.51,0-.76.06a.63.63,0,0,0-.36.15,3.32,3.32,0,0,1-.47.28,1.55,1.55,0,0,1-1.57-.1l-.11-.06a2.6,2.6,0,0,0-1.94-.52C18.2,17.82,17.6,17.79,17,17.78Z"/><path id="_Path_5" data-name="&lt;Path&gt;" d="M32.16,27.1c.36-.21.57-.64,1-.71.07,0,.11-.07.14-.14l1.18-2.72a1,1,0,0,1,.12-.23.25.25,0,0,1,.43,0,1.12,1.12,0,0,1,.14.52,6.33,6.33,0,0,1-.45,2.51,1.36,1.36,0,0,0,0,.18c0,.16,0,.22.19.17l.82-.28c.17-.06.35-.11.52-.18a4.19,4.19,0,0,1,1.7-.25c.19,0,.28.13.34.28s-.09.2-.19.26l-2.54,1.53a.56.56,0,0,0-.29.38c0,.2-.14.4-.17.6a.57.57,0,0,1-.41.46,7.43,7.43,0,0,0-.69.32.52.52,0,0,1-.5,0,2,2,0,0,0-.39-.16c-.54-.13-.77-.55-1.05-1a1.24,1.24,0,0,1,0-1.45l.05-.09Z"/><path id="_Path_6" data-name="&lt;Path&gt;" d="M17.62,14.94h2.31c.12,0,.17.11.21.21s0,.16-.09.22a1.62,1.62,0,0,1-1,.45c-1.31.14-2.61.3-3.9.53-.28,0-.55.11-.82.19a.82.82,0,0,1-.76-.3c-.06-.1,0-.17.06-.23A10.93,10.93,0,0,1,15.21,15a.61.61,0,0,1,.28,0h2.13Z"/><path id="_Compound_Path_7" data-name="&lt;Compound Path&gt;" d="M25.35,15c.16-.17.1-.32,0-.49a12.58,12.58,0,0,0-1-1.79A.37.37,0,0,0,24,12.5H18.75a.74.74,0,0,1-.69-.34c.08-.09.18-.05.27-.05h6.81a.69.69,0,0,1,.55.23c.31.33.64.65,1,1A1,1,0,0,1,27,14a.57.57,0,0,1-.4.61l-1,.33A.27.27,0,0,1,25.35,15Zm1-.71a.35.35,0,0,0,.34-.36.37.37,0,0,0-.34-.36.38.38,0,0,0-.35.38A.37.37,0,0,0,26.31,14.24Z"/><path id="_Path_7" data-name="&lt;Path&gt;" d="M7.89,18.92,7,19.86a.35.35,0,0,1-.27.09H3.93a.29.29,0,0,1-.32-.24,2.34,2.34,0,0,1,0-1.46c.09-.24.24-.29.44-.13a.71.71,0,0,0,.49.15H6.34a.36.36,0,0,1,.36.16.85.85,0,0,0,.89.42h.28Z"/><path id="_Path_8" data-name="&lt;Path&gt;" d="M19.84,15.92l.59-.46c.13-.1.11-.18.05-.33-.18-.48-.54-.5-1-.49-1.36,0-2.72,0-4.07,0a1.12,1.12,0,0,0-.62.24A12.87,12.87,0,0,0,13.26,16c-.25.21-.24.32,0,.48a4.24,4.24,0,0,1,.4.26c.38.27.37.27.17.7a9,9,0,0,1-.5.92c0,.06-.08.17-.17.1s0-.13,0-.19c.14-.26.28-.53.43-.78s.09-.37-.12-.6c-.4-.42-.71-.28-1.09,0a8.49,8.49,0,0,1-.91.53.19.19,0,0,1-.24,0,2.21,2.21,0,0,0-.51-.28c-.16-.07-.15-.14,0-.23.49-.33,1-.64,1.52-.94l2.46-1.47a1.27,1.27,0,0,1,.69-.21h4.47c.29,0,.52.06.62.36a.44.44,0,0,0,.05.09c.26.41.26.41-.1.78l-.27.29A.38.38,0,0,1,19.84,15.92Z"/><path id="_Path_9" data-name="&lt;Path&gt;" d="M18.39,19h1.18a.35.35,0,0,1,.34.2,3.34,3.34,0,0,1,.34,1.13c0,.14-.07.18-.19.18a7.09,7.09,0,0,1-.87,0,.79.79,0,0,0-.79.38c-.19.26-.4.5-.61.75-.06.08-.13.15-.24.09s-.11-.15-.09-.25a3.12,3.12,0,0,1,.11-.4,1.58,1.58,0,0,0-.25-1.48,2.36,2.36,0,0,1-.15-.24c-.05-.1-.22-.19-.15-.3s.23,0,.35,0h1Z"/><path id="_Path_10" data-name="&lt;Path&gt;" d="M5.72,12.44a5.6,5.6,0,0,0-.65.68,4,4,0,0,0-.43,1.18c-.15.5-.29,1-.45,1.51,0,.11-.07.27-.22.26a.32.32,0,0,1-.27-.26,5.15,5.15,0,0,1-.16-1.09,10.73,10.73,0,0,1,.1-2c0-.12,0-.26.2-.26Z"/><path id="_Path_11" data-name="&lt;Path&gt;" d="M26.07,30.3a.45.45,0,0,1-.19,0c-.08-.05-.21-.09-.22-.2s.13-.13.21-.17c.85-.39,1.66-.87,2.49-1.3a.37.37,0,0,0,.19-.2,1.32,1.32,0,0,0,.13-.34c0-.58.46-.84.86-1.13.11-.08.15,0,.2.06l.36.67a.51.51,0,0,1-.17.65,18.89,18.89,0,0,1-3.54,2A1,1,0,0,1,26.07,30.3Z"/><path id="_Path_12" data-name="&lt;Path&gt;" d="M11.23,19.34c.09-.44.17-.93.22-1.43a.33.33,0,0,1,.19-.24l1.24-.73c.2-.11.3.06.43.15s.07.2,0,.32a7.23,7.23,0,0,1-1.56,2.21.35.35,0,0,1-.4.09C11.22,19.66,11.23,19.52,11.23,19.34Z"/><path id="_Path_13" data-name="&lt;Path&gt;" d="M20.16,11.84H17.87c-.09,0-.22,0-.25-.08s.11-.14.18-.2a.93.93,0,0,1,.61-.19h2.21a.6.6,0,0,0,.46-.19.79.79,0,0,1,1.22.08l.3.36s.11.08.08.15-.12.06-.19.06Z"/><path id="_Path_14" data-name="&lt;Path&gt;" d="M6.94,10a.63.63,0,0,1-.25.54c-.4.36-.7.82-1.12,1.16a1.78,1.78,0,0,1-.21.16.53.53,0,0,1-.63,0,.62.62,0,0,1,.09-.66,5.51,5.51,0,0,1,.7-.58l1-.8c.09-.07.16-.2.29-.14S6.93,9.81,6.94,10Z"/><path id="_Path_15" data-name="&lt;Path&gt;" d="M24,30.54c.15-.11.09-.2-.06-.22-.43-.06-.76-.22-.69-.78l-.09,0c-.05.11-.1.22-.17.32s-.12.33.09.46a.63.63,0,0,1,.31.66v0h.13a.26.26,0,0,0-.07.47c.28.19.53-.16.39-.41l-.05-.06A.55.55,0,0,1,24,30.54Z"/><path id="_Path_16" data-name="&lt;Path&gt;" d="M2.8,13.17c.14,0,.22.05.18.22a4.09,4.09,0,0,0,0,2.05c0,.06,0,.13,0,.16s-.11,0-.16-.06a1.66,1.66,0,0,1-.67-1.61C2.17,13.66,2.58,13.18,2.8,13.17Z"/><path id="_Path_17" data-name="&lt;Path&gt;" d="M8.85,11.33a.1.1,0,0,1-.11,0,4.85,4.85,0,0,0-2.42.68,1.41,1.41,0,0,1-.61.1c-.14,0-.15-.08-.07-.16q.37-.37.75-.74c.07-.06.17,0,.25,0l2,0C8.71,11.23,8.81,11.21,8.85,11.33Z"/><path id="_Path_18" data-name="&lt;Path&gt;" d="M4.64,12.14H3.79A1.24,1.24,0,0,0,4,11.36a.8.8,0,0,1,0-.25c0-.14.15-.16.27-.13s.1.13.08.23A.88.88,0,0,0,4.64,12.14Z"/><path id="_Path_19" data-name="&lt;Path&gt;" d="M8.87,17.93a1.42,1.42,0,0,1-1.55.61.6.6,0,0,1-.18,0,.11.11,0,0,1-.08-.12c0-.05.06-.05.1-.06h.05A5.11,5.11,0,0,0,8.87,17.93Z"/><path id="_Path_20" data-name="&lt;Path&gt;" d="M29,26.94a2.27,2.27,0,0,1,.22-.73c0-.09.1-.09.15,0s.18.35,0,.5A1.22,1.22,0,0,1,29,26.94Z"/><path id="_Path_21" data-name="&lt;Path&gt;" d="M24,31.59l-.17.09c-.23.12,0,.46.19.35h0a.34.34,0,0,0,.24-.17C24.39,31.69,24.16,31.51,24,31.59Z"/><path id="_Path_22" data-name="&lt;Path&gt;" d="M24.86,32.15a.21.21,0,0,0-.19-.26.22.22,0,0,0-.22,0,.3.3,0,0,0-.12.11.17.17,0,0,0,0,.14.2.2,0,0,0,.18.29.42.42,0,0,0,.2,0A.25.25,0,0,0,24.86,32.15Z"/><path id="_Path_23" data-name="&lt;Path&gt;" d="M25.57,32.41a.32.32,0,0,0,0-.08c0-.1-.09-.22-.2-.2a.48.48,0,0,0-.34.17.36.36,0,0,0,.19.41A.27.27,0,0,0,25.57,32.41Z"/><path id="_Path_24" data-name="&lt;Path&gt;" d="M26.29,32.45h0a.16.16,0,0,0-.09,0H26l-.13.05a.18.18,0,0,0-.09.13.2.2,0,0,0,.12.29h.07a.2.2,0,0,0,.12,0h0a.16.16,0,0,0,.21-.09A.23.23,0,0,0,26.29,32.45Z"/><path id="_Path_25" data-name="&lt;Path&gt;" d="M27,32.52a.23.23,0,0,0-.18-.12.33.33,0,0,0-.17,0,.26.26,0,0,0-.22.41.18.18,0,0,0,.22.09.21.21,0,0,0,.15,0h0a.34.34,0,0,0,.17-.06A.22.22,0,0,0,27,32.52Z"/><path id="_Path_26" data-name="&lt;Path&gt;" d="M27.74,32.45a.26.26,0,0,0-.45-.09.29.29,0,0,0-.06.37.18.18,0,0,0,.26.1.22.22,0,0,0,.09-.05A.27.27,0,0,0,27.74,32.45Z"/><path id="_Path_27" data-name="&lt;Path&gt;" d="M28.23,31.94a.38.38,0,0,0-.31.34.21.21,0,0,0,.15.2h0a.19.19,0,0,0,.15,0h0a.32.32,0,0,0,.24-.32A.21.21,0,0,0,28.23,31.94Z"/><path id="_Path_28" data-name="&lt;Path&gt;" d="M28.89,31.53a.21.21,0,0,0-.25,0,.38.38,0,0,0-.22.26.2.2,0,0,0,.17.25h0a.27.27,0,0,0,.18,0,.19.19,0,0,0,.16-.2A.31.31,0,0,0,28.89,31.53Z"/><path id="_Path_29" data-name="&lt;Path&gt;" d="M29.35,30.87a.24.24,0,0,0-.19-.05.32.32,0,0,0-.23.16.2.2,0,0,0,0,.21.42.42,0,0,0,.23.17.19.19,0,0,0,.25-.19l0,0A.17.17,0,0,0,29.35,30.87Z"/><path id="_Path_30" data-name="&lt;Path&gt;" d="M29.87,30.34a.2.2,0,0,0-.17-.2.16.16,0,0,0-.11,0,.56.56,0,0,0-.2.05.2.2,0,0,0-.05.3.27.27,0,0,0,.25.26.22.22,0,0,0,.25-.26A.29.29,0,0,0,29.87,30.34Z"/><path id="_Path_31" data-name="&lt;Path&gt;" d="M30.18,29.6a.22.22,0,0,0-.31-.12c-.2,0-.35.22-.19.34l0,0a.32.32,0,0,0,.08.14.2.2,0,0,0,.34-.12h0A.2.2,0,0,0,30.18,29.6Z"/><path id="_Path_32" data-name="&lt;Path&gt;" d="M30.55,29.1l0,0a.16.16,0,0,0-.23-.1l-.05,0a.24.24,0,0,0-.2.19c-.07.24.18.37.38.28l0,0A.2.2,0,0,0,30.55,29.1Z"/><path id="_Path_33" data-name="&lt;Path&gt;" d="M31.57,28.66a.18.18,0,0,0-.32-.07h0l0,.07c-.14-.12-.42,0-.56.07a.21.21,0,0,0,0,.37l.07,0a.16.16,0,0,0,.18,0,.26.26,0,0,0,.19,0,.27.27,0,0,0,.15-.18.22.22,0,0,0,.17,0h0A.18.18,0,0,0,31.57,28.66Z"/></g></svg>