<svg xmlns="http://www.w3.org/2000/svg" class="HeroAbility-icon HeroAbility-icon--hoverState" viewBox="0 0 40 40" preserveAspectRatio="xMidYMid meet"><path d="M4.76,18.65l0,.21c.9-.05.95,0,1,.08a1.13,1.13,0,0,0,.3.19l1.52,0,.2-.09v-.63l-.06-.09L6,18.39l-.12,0-.19.2,0,0Z"/><path d="M5.91,17.87l.52-.24H7.63l.17-.34,1.1-2.51H9l.23-.34-.13-.1-2,0-.67.14,0,0L4.67,18.21H5.93Z"/><path d="M4.68,16.59a.3.3,0,0,0,.12.23h.33l.22-.48H4.76A.23.23,0,0,0,4.68,16.59Z"/><path d="M3.51,21.57l0,.09.31-1.17A.88.88,0,0,0,3.51,21.57Z"/><path d="M6.77,20a.54.54,0,0,0,.14-.08H6.39l-.4-.3,0-.35-1.7,0h0L4,19.94a.14.14,0,0,0,0,.13C5,20.08,6.63,20.08,6.77,20Z"/><path d="M19.17,23.18a.13.13,0,0,0,0,.2.16.16,0,0,0,.21,0,2.48,2.48,0,0,0,.69-.9,1.87,1.87,0,0,0,.12-.57l-.37-.49h-.81l0,0c.06.23.18.43.26.65a1.21,1.21,0,0,1-.07.9A1.14,1.14,0,0,1,19.17,23.18Z"/><path d="M8.1,19.74a1.6,1.6,0,0,1,.37.22H9.75l-.29-.3,0-1.76.23-.27H8.45a1.35,1.35,0,0,1-.37.16c-.15,0-1.39,0-1.62,0L6.09,18l0,.23,1.67,0,.15.21,0,.81-.34.15-1.48,0,0,.25.29.21,1.5,0Z"/><path d="M12.23,19.19a.61.61,0,0,0,.06.12l.19.08V18.11c-.09,0-.19.08-.22.14A5.35,5.35,0,0,0,12.23,19.19Z"/><path d="M3.2,19.16l2.51,0A.46.46,0,0,1,5.6,19a4.6,4.6,0,0,0-.9,0H4.61l0-.57,1.06,0,.08-.09H3.17l-.23.07a.31.31,0,0,0-.25.32.35.35,0,0,0,.24.36l.26.07Z"/><polygon points="13.69 20.16 13.93 20.14 13.93 17.45 13.7 17.45 13.69 20.16"/><polygon points="10.74 18.69 11.18 18.7 11.18 18.98 11.26 18.98 11.26 18.36 11.18 18.36 11.18 18.61 10.74 18.61 10.74 18.69"/><path d="M4.09,17.58a.66.66,0,0,0,.39-.06.54.54,0,0,1,.28-.05h.07L5,17H4.74a.44.44,0,0,1-.23-.38.39.39,0,0,1,.19-.42h.74l.17-.37H5.5a9.36,9.36,0,0,1-1.28-.07A4.48,4.48,0,0,0,3,15.8a.52.52,0,0,0-.41.17,1,1,0,0,0-.13,1,.72.72,0,0,0,.6.51Z"/><path d="M19.47,15.92a.43.43,0,0,0,.33.36h2.49l0-.72H19.79S19.46,15.66,19.47,15.92Z"/><path d="M12.76,18v-.17l-.24-.21-2.62,0L9.62,18v1.62L10,20l2.59,0,.17-.13v-.21l-.11-.15v.21l-.12-.05-.31-.13s-.09,0-.16-.23v0a5.65,5.65,0,0,1,0-1c.08-.23.42-.28.46-.28h.1v.19Zm-1.33,1.15-.43,0v-.28h-.44l0-.42H11v-.25h.44Z"/><path d="M13.65,21.35H13.6l.66.82.05.06,2.32,0,.65,0a6.15,6.15,0,0,0,.32-.6.52.52,0,0,1,.11-.16v-.15h2.71l.37-.48h1.43v-.26H13.68Zm.91.25a6.79,6.79,0,0,1,.45-.73.26.26,0,0,1,.37,0,.3.3,0,0,1,.11.28v0l-.44.8A.13.13,0,0,1,15,22l-.11,0a.4.4,0,0,1-.21-.06A.28.28,0,0,1,14.56,21.59Z"/><path d="M7.34,20.42l6.16,0v-.14h0v-2.8l-5.58,0-.11.21H8a1.26,1.26,0,0,0,.33-.15h0l4.17,0,.36.3,0,.34-.13.1v1.16l.12.17v.36l-.28.23h0l-4.21,0,0,0a2.15,2.15,0,0,0-.33-.21H7.15a.42.42,0,0,1-.07.1.7.7,0,0,0,.05.24A1,1,0,0,0,7.34,20.42Z"/><path d="M22.31,17l0-.53H19.76a.6.6,0,0,1-.47-.53.54.54,0,0,1,.48-.53h2.48V15L9,14.95,8,17.23l14.13.12Z"/><path d="M31.79,14.52l-.31.11h.33Z"/><path d="M29.94,14a.69.69,0,0,0-.64-.2,2.28,2.28,0,0,1-.34,0,.32.32,0,0,0-.29.12.21.21,0,0,1-.09.07Z"/><circle cx="24.5" cy="14.4" r="0.24"/><path d="M25.49,14.46c0,.22-.2.16-.33.2h0l-.21.21h1.39l.54-.67a2.88,2.88,0,0,0-.54.38.2.2,0,0,1-.19.06c-.09,0-.06-.09-.06-.15s0-.11-.09-.11h-.4S25.49,14.43,25.49,14.46Z"/><path d="M28.06,15.71c-.21,0-3.73-.06-5.63-.08l0,.64,5.83,0,.19-.25-.24-.26v0A.41.41,0,0,0,28.06,15.71Z"/><path d="M30.09,14.41h0c0,.14,0,.93,0,.93a.07.07,0,0,0,0,0h.06l.93-.3,0,0c-.15-.08-.78-.55-.91-.64Z"/><path d="M30.49,14.23l0,0H27.13l-.71.87-4,0,0,.42c.64,0,5.39,0,5.66.08a.44.44,0,0,1,.3.14.19.19,0,0,1,0,.07l.21.23h2.48l.27-1-.16-.13h0l-.33-.26,0,0Zm.64.66a.17.17,0,0,1,.1.13.25.25,0,0,1-.09.2h0l-1,.32-.1,0a.2.2,0,0,1-.12,0,.24.24,0,0,1-.09-.18s0-.8.05-.94a.18.18,0,0,1,.08-.14.28.28,0,0,1,.23,0h0C30.54,14.5,31,14.86,31.12,14.9Z"/><path d="M31.53,15.71l.13-.07.41-.54a.9.9,0,0,1-.17-.19l0-.07h-.35l.07.05-.24.92A.83.83,0,0,0,31.53,15.71Z"/><path d="M23.48,14.49l.61,0a.42.42,0,0,1,0-.06h-.65a0,0,0,0,0,0,0S23.46,14.48,23.48,14.49Z"/><polygon points="14.31 18.18 14.3 19.48 14.62 19.4 14.62 18.28 14.31 18.18"/><polygon points="23.01 19.52 23 18.03 22.52 18.19 22.52 19.4 23.01 19.52"/><path d="M24.28,22.16l.94-.45.08-.29H23.1l-.81-.48h-1.4l-.31.39.77,1,0,2.06.09.06,2.83-1.5Zm-2.06,1.28a.39.39,0,1,1,.39-.39A.39.39,0,0,1,22.22,23.44Z"/><path d="M9.18,14.15l.32.23-.26.38,13.36.09-.23-.21-1.07,0-.21-.17,0-.4-.17.61,0,0c0-.22,0-.22-.27-.22h-.12c-.1,0-.17,0-.17.14s-.06.13-.15.13h-.19c-.11,0-.17,0-.16-.15s-.09-.14-.17-.12-.31-.12-.34.11-.07.17-.19.16h-.16c-.12,0-.2,0-.18-.16s0-.12-.12-.11-.29-.08-.39.07a0,0,0,0,0,0,0c0,.15-.06.18-.19.17h-.19c-.07,0-.12,0-.12-.1s-.1-.19-.23-.17h-.16c-.11,0-.16,0-.15.14s0,.12-.09.13h-.3c-.06,0-.11,0-.1-.1s-.08-.17-.2-.16h-.22a.11.11,0,0,0-.13.13s0,.1,0,.13a.35.35,0,0,1-.45-.17.11.11,0,0,0-.13-.09c-.14,0-.29-.06-.41.06s0,0,0,0c-.05.18-.11.22-.31.17s-.16,0-.16-.1-.09-.16-.2-.16h-.22c-.11,0-.16,0-.16.15s0,.09,0,.12a.38.38,0,0,1-.41-.15c0-.07-.06-.12-.14-.11s-.3-.06-.43.06a.1.1,0,0,0,0,.06c0,.07,0,.17-.11.15s-.27,0-.33-.13a.52.52,0,0,0-.57-.1.18.18,0,0,0,0,.08c0,.06,0,.17-.09.14s-.28.06-.33-.13a.17.17,0,0,0-.2-.14c-.17,0-.34,0-.48-.1a.76.76,0,0,0-.58-.2H9.18c-.27,0-.27,0-.37-.24a.38.38,0,0,1,0-.07c0-.12-.06-.22-.2-.22s-.36-.06-.48.12a.91.91,0,0,1-.59.43Z"/><path d="M20.17,12.46c.29.31.56.65.83,1a.38.38,0,0,1,.12.22h.05l.07.71.11.09,1.07,0,.42.38h1.84l.64-.64a2.44,2.44,0,0,0,0-.37c0-.12-.13-.09-.21-.13L25,13.66a.3.3,0,0,0-.19-.07c-.28,0-.57,0-.85,0a2.16,2.16,0,0,1-.86-.15c-.29-.12-.58-.32-.94-.17-.05,0-.12,0-.17,0s-.12,0-.17,0c-.27-.19-.43-.49-.78-.6a1.84,1.84,0,0,1-.57-.38l-.55-.43s-.13-.08-.15,0a.32.32,0,0,0,.08.35A3.65,3.65,0,0,1,20.17,12.46Zm3.22,1.78h.73a.42.42,0,1,1,0,.41l-.71,0h0a.27.27,0,0,1-.18-.2A.2.2,0,0,1,23.39,14.24Z"/><path d="M14.74,21.79a.22.22,0,0,0,.16,0l.42-.76a.12.12,0,0,0,0-.1c-.06,0-.08,0-.14,0a7,7,0,0,0-.42.68S14.69,21.76,14.74,21.79Z"/><polygon points="14.3 19.73 22.87 19.73 22.87 19.73 23.01 19.73 23.01 19.7 22.35 19.54 22.35 18.06 22.99 17.84 22.99 17.83 22.96 17.83 14.31 17.94 14.31 17.99 14.79 18.15 14.79 19.54 14.3 19.66 14.3 19.73"/><path d="M33.14,19.67l-.74-1.2v0l-.18-.88h0l-.86-1.35a.3.3,0,0,0-.06-.09v0H28.64l-.26.34-5.91,0,0,.57-.22.5h0a.09.09,0,0,1,0,.06v0a.09.09,0,0,1,0,.06h.63v-.3l2.18,0,.33.29,0,2.28-.33.33H22.87v-.36h-.45v.88l.74.44,5.9,0,.85,1.31h0c.91-.62,1.82-1.24,2.74-1.85a.75.75,0,0,0,.36-.48,4,4,0,0,1,.13-.41A.31.31,0,0,0,33.14,19.67Zm-3,2.28-.64-1.06-.2-.77.75-.5.21.8L31,21.49Zm1.52-1L31,20l-.23-.83.76-.48.17.82.63,1Z"/><polygon points="24.74 18.97 25.1 19.11 25.09 18.39 24.74 18.51 24.74 18.97"/><polygon points="31.45 18.95 31.02 19.23 31.2 19.92 31.74 20.66 32.13 20.4 31.58 19.54 31.45 18.95"/><path d="M7.63,21.65H7.49c-.28.69-.41.7-.46.7H7a.13.13,0,0,1-.12-.09c-.17-.39.19-1.42.3-1.72A.89.89,0,0,1,7,20.38a.55.55,0,0,1-.08-.23l-.07,0a14,14,0,0,1-1.93.07H4.11l-.48,1.83s0,0,0,0a1.74,1.74,0,0,0,0,.27c.05.39.15.64.63.62.69,0,1.39,0,2.08,0a.57.57,0,0,0,.39-.13,3,3,0,0,0,.56-.57c.12-.17.22-.35.33-.53Z"/><polygon points="29.99 19.9 29.55 20.2 29.71 20.84 30.24 21.71 30.73 21.43 30.14 20.47 29.99 19.9"/><path d="M22.91,25.35l0,1.85L23.77,29v1.4l1,.15H26.4l.07-.11,0-4.5-.6-1.33a.78.78,0,0,0-.34-.46v0h-.62Zm3.39,5.21-1.41,0,0-.49,1.42-.94ZM26,25.92H25a9.92,9.92,0,0,1-1,0,.17.17,0,0,1-.13-.11.36.36,0,0,1,.08-.29l0,0,1.36-.89Z"/><polygon points="22.73 24.54 22.8 24.67 24.53 23.72 24.46 23.59 22.73 24.54"/><path d="M29,21.43l-3.47,0-.11.41-.92.44,0,.76-2.87,1.52,0,0c.13.31.26.61.41.91a1.36,1.36,0,0,1,.11.35h.06l.12,4.28.17.28,1.17,0V29.05l-.88-1.81,0-2L24.83,24h.62l.2-1.18a.22.22,0,0,1,.13-.17l2.28-1.2c.08,0,.12,0,.17,0l.42.64a.68.68,0,0,0,.35.27,5.52,5.52,0,0,0,.61.16h.13Zm-6.22,3.48-.23-.44,2-1.12.25.44Z"/><path d="M36.91,19.32c-.2-.48-1.16-2.79-1.23-3a.53.53,0,0,1,.13-.49l1.83-1.7,0-.08a3.22,3.22,0,0,0-1.07-1,.78.78,0,0,0-.38-.11c-.58,0-1.17,0-1.75,0a1.75,1.75,0,0,0-.91.14h-.09c-.61,0-1.22.09-1.83.06a1.24,1.24,0,0,0-.33,0c-.27.06-.42.21-.42.41s.1.19.18.25.08,0,.09.1,0,.35,0,.53l.18.14a.19.19,0,0,1,.16-.17l.5-.18,0,.11s0,.18.06.32a.52.52,0,0,0,0,.11,1.51,1.51,0,0,0,.29.28l.79.42v0l2.33,3.84h-.14l-.8.06h0l.71.88a.24.24,0,0,0,.17.1,7.57,7.57,0,0,0,.89.06.52.52,0,0,0,.57-.57c0-.17,0-.35,0-.52A.3.3,0,0,1,36.91,19.32Zm0-5.53a.36.36,0,1,1-.36.36A.36.36,0,0,1,36.89,13.79Zm-2,2.29-1.41-2.15.29-.16,1.36,2.13Z"/><circle cx="36.89" cy="14.15" r="0.18"/><path d="M35.94,16h0a.36.36,0,0,0-.09.31c0,.14.61,1.5,1,2.36-.07-.59-.14-1.18-.16-1.78a1.13,1.13,0,0,1,0-.43,7.15,7.15,0,0,1,.4-.93c.19-.34.38-.68.56-1a.36.36,0,0,0,0-.1Z"/><path d="M32.43,17.72l.13.67.17.27.12,0a.54.54,0,0,0,.25-.08l.22-.49L33,17.71Zm.8.38a.33.33,0,1,1-.33-.33A.33.33,0,0,1,33.23,18.1Z"/><circle cx="32.9" cy="18.1" r="0.15"/><path d="M35.18,19.21,33,15.64l-.77-.41,0,0-.38.5s-.06.07-.21.16l-.1.05.35.38.62.7a1.08,1.08,0,0,1,.17.2c0,.06.15.08.09.19l-.09.15h.48l.39.51-.12.28.12-.06s.06,0,.06,0,.15.29.1.44a.26.26,0,0,0,.06.27,1.38,1.38,0,0,1,.15.2.45.45,0,0,0,.08.11Z"/><polygon points="23.05 20.09 25.02 20.09 25.25 19.86 25.24 19.36 24.57 19.09 24.56 18.38 25.22 18.16 25.21 17.75 24.99 17.55 23.05 17.53 23.05 17.66 23.17 17.66 23.19 19.91 23.05 19.91 23.05 20.09"/><path d="M21.18,22.36l-.75-1h-.35l.76,1-.08.06a.8.8,0,0,1,0,.25,6.17,6.17,0,0,0,0,.75.31.31,0,0,1-.35.35h-1.3a3.37,3.37,0,0,0-.45,0,1,1,0,0,1-1-.52c-.13-.32-.29-.62-.45-.93l0,0-.45,0,.85,1.85a1,1,0,0,0,.6.18h2.59c.11,0,.23,0,.32,0Z"/><polygon points="26.13 30.38 26.11 29.41 25.05 30.12 25.06 30.34 26.13 30.38"/><path d="M13.5,20.56l-6.12,0a7.48,7.48,0,0,0-.27.9l.56,0A2.26,2.26,0,0,1,7.83,21a1.21,1.21,0,0,1,.57-.42h1l.48.77,0-.05s.1-.27.15-.42h0v0c0-.1.06-.14.16-.06s.19.13.28.2a.61.61,0,0,0,.44.15c.77,0,1.54,0,2.31,0a.24.24,0,0,1,.17,0Z"/><path d="M16.58,22.38l-2,0,.05.07c.28.45.57.9.84,1.36a.3.3,0,0,0,.3.17q.5,0,1,0a.27.27,0,0,0,.28-.17s0-.12.1-.13Z"/><path d="M26.64,30.07v.44l-.14.25-1.68,0-1.13-.16-1.35,0-.25-.41v-.41H22a.31.31,0,0,0-.33.18c-.1.2-.22.39-.33.58a.25.25,0,0,0,0,.2c0,.17.09.35.13.52s.15.31.43.32h1.66a1.76,1.76,0,0,0,.53-.1,1.38,1.38,0,0,1,.44-.14c.67,0,1.35,0,2,0h.07a.45.45,0,0,0,.42-.43.77.77,0,0,0-.22-.65C26.74,30.2,26.7,30.13,26.64,30.07Z"/><path d="M10.26,21.51l-.08-.14,0-.07-.05.13a.62.62,0,0,1-.18.17l-.08,0-.53-.84H8.44a1,1,0,0,0-.46.33,2.27,2.27,0,0,0-.17.48l0,.39H7.7a.54.54,0,0,0,0,.12c.3.93.58,1.87.9,2.79a6.62,6.62,0,0,1,.33,2c0,.34,0,.69.06,1,0,.13.06.16.18.15h.49a.38.38,0,0,0,.43-.32.1.1,0,0,1,.08-.07.33.33,0,0,0,.28-.36c0-1.67,0-3.35,0-5A1.45,1.45,0,0,0,10.26,21.51ZM8.58,22a.59.59,0,1,1,.59-.59A.59.59,0,0,1,8.58,22Z"/><circle cx="8.58" cy="21.46" r="0.41"/><path d="M7.29,21.66H7.07a1.28,1.28,0,0,0,0,.46A2.81,2.81,0,0,0,7.29,21.66Z"/><path d="M25.69,25.75l-.47-.9L24,25.62a.24.24,0,0,0,0,.11C24.1,25.75,25,25.75,25.69,25.75Z"/></svg>