<svg xmlns="http://www.w3.org/2000/svg" class="HeroAbility-icon HeroAbility-icon--hoverState" viewBox="0 0 40 40" preserveAspectRatio="xMidYMid meet"><path d="M19.94,34C13,34,6.1,27.84,6.1,21.42c0,0,0-.36.3.36A13.47,13.47,0,0,0,7.76,24c.33.49.65.63.45.22s-.58-2.22,0-1.33S9,24.06,9.84,25.55c.42.7.61.71.27.09S8.79,21.23,9.69,23s3.74,5,6.3,6,4.11.67,5.17-.49,2.13-2.38,1.62-1.18S21.06,30,22.1,29.47a16.65,16.65,0,0,0,5.18-4.62c1.65-2.23,2.45-4.16,2.06-2.63A14.9,14.9,0,0,1,27.93,26c-.43.65-.83,1.22,0,.39a13.34,13.34,0,0,0,2-2.57c.37-.63,1-1.48.49,0-.37,1-.71,2.14-.07,1.4a9.07,9.07,0,0,0,2.72-5.75c.24-2.23.65-.7.65,1.39C33.78,23.91,31.93,34,19.94,34Z"/><path d="M31.76,22c.11.11.65-1,.8-1.84s-.38-.12-.54.35S31.55,21.77,31.76,22Z"/><path d="M20.22,8.86H14.59c-.37,0-.56-.16-.56-.75s0-.69.5-.93S16.49,6,20.22,6,25.8,7.13,26,7.24s.35.16.35.8,0,.82-.63.82Z"/><path d="M20.17,9.28H25c.37,0,.44,0,.44.71s0,.81-.24,1-.12.49-.21.69-.56.4-.69.53a1.41,1.41,0,0,0-.31.5c-.13.32-.85.62-1,.74s-.69.22-.71.35c-.06.34-.1.46-.56.46H19.35c-.32,0-.31,0-.62-.38s-.69-1.22-1-1.56-.44-.56-.8-.56H16c-.34,0-.5-.16-.5-.32a.24.24,0,0,0-.27-.25c-.15,0-.27-.06-.27-.47V9.6c0-.27,0-.32.5-.32Z"/><path d="M22.59,14.21c.11-.07.53-.27.72-.38s.91-.41,1-.74a1.41,1.41,0,0,1,.31-.5c.13-.13.66-.25.75-.46a1.16,1.16,0,0,1,1.15.09c.46.38.43.71.62,1s.15.55.43,1.06.41,1.19.56,1.44a2.24,2.24,0,0,1,.34,1.18,3,3,0,0,1-.22,1.28A2.71,2.71,0,0,0,28,19.3c0,.32-.06.94-.06,1.22s-.09.34-.34.34-.5,0-.53-.25a4.55,4.55,0,0,0-.1-.7c-.22-.76-.19-1.16-.35-1.49a4,4,0,0,0-.93-1.15,4.42,4.42,0,0,0-1.87-.18c-.25,0-.47,0-.85-.74a7.7,7.7,0,0,1-.56-1.56A.45.45,0,0,1,22.59,14.21Z"/><path d="M15.83,12.2h1c.35,0,.46.22.75.56a9.31,9.31,0,0,1,.91,1.62,1.39,1.39,0,0,1-.46,1.8s-1.21.52-1.56.62-.52.22-.44.34a6.81,6.81,0,0,0,.54.49c.16.16.57.46.44.81s-.34.72-.5.74-.62.06-.63.34.18.52.18.71.12.5-.35.65-.81,0-1.06.37a1.52,1.52,0,0,0-.44.88c0,.31-.07.35-.29.31a8.54,8.54,0,0,1-1.87-1.8,5.25,5.25,0,0,1-1-1.74,4.55,4.55,0,0,1,.82-1.83c.41-.66.68-1.19,1.34-1.21a2,2,0,0,1,1.18.52c.27.13.27.3.53.25s-.12-.16-.4-.4-.78-.56-.94-.71a.56.56,0,0,0-.47-.18.5.5,0,0,0-.46.24c-.15.18-.32,0-.38-.18s-.27-.19-.37,0a2.21,2.21,0,0,1-.54.52,1.18,1.18,0,0,0-.31.63,3.17,3.17,0,0,1-.28.75c-.06.09,0,.31,0,.68,0,0-.18.24-.43-.1a1.67,1.67,0,0,1-.46-1,5.68,5.68,0,0,1,.72-1.9c.19-.34.32-.65.69-.65a1.66,1.66,0,0,0,1.06-.4c.78-.49,1.39-1.24,2.18-1.4S15.26,12.2,15.83,12.2Z"/><path d="M15.24,23.92a1.11,1.11,0,0,1-1-.9c0-.22.26-.15.33-.59s0-.62.28-.87a3.08,3.08,0,0,1,1.33-.5c.44-.09.28-.32.35-.85s.4-1.19.84-1.12a16.07,16.07,0,0,1,1.62.53,2,2,0,0,1,1.44,2.09c-.15,1.28-.66,1.42-1,1.47l-2.73.37C15.92,23.66,15.93,23.91,15.24,23.92Z"/><path d="M12.78,22.44c.43,0,1.13.78,1.34,1.09a3.34,3.34,0,0,1,.29,1.31c0,.35.09,1-.25.6a9.67,9.67,0,0,1-1.24-1.88A3.27,3.27,0,0,1,12.78,22.44Z"/><path d="M14.57,24.18c.07-.22.27-.16.43-.06s.35.12,1,.12a3.12,3.12,0,0,0,1.25-.13c.19-.11.31,0,.31.63,0,.4.15.93,0,1.15a2.13,2.13,0,0,1-1.78.85c-.82,0-1.07-.89-1.1-1.19a5.85,5.85,0,0,0-.07-.73A1.67,1.67,0,0,1,14.57,24.18Z"/><path d="M17.8,23.79A7.18,7.18,0,0,0,17.89,25c0,.15.25.8.59,1a.79.79,0,0,0,.6.13c.31,0,.85-.29,1.16-.22s.65-.15.88-.66a1.48,1.48,0,0,0,.15-1,9.4,9.4,0,0,0-.1-1.17c-.09-.38-.24-.72-.38-.72s-.38,1-1.24,1.18S17.8,23.62,17.8,23.79Z"/><path d="M24.44,22.78c-.14,1.13-.4,2.68-2.05,2.68-1.49,0-1-2.14-.85-2.47.06-.17.37-.87.59-1.29a1,1,0,0,1,1.44-.26C24.12,22,24.52,22.16,24.44,22.78Z"/><path d="M17.8,18.68a2.14,2.14,0,0,1,1.53-.77c.47,0,.69,0,1,.66s.54,1,.63,1.15a3.19,3.19,0,0,1,.31,1.53c-.06.67-.34.85-.51.79s-.19-.34-.27-1.06a1.44,1.44,0,0,0-.84-1.19,4.34,4.34,0,0,0-1-.46C18.19,19.21,17.48,19,17.8,18.68Z"/><path d="M20.81,19.09A1.24,1.24,0,0,1,20.65,18c.13-.37.75-.68,1.74-.68s1.29,1.29,1.41,2,.21,1.28.29,1.56.27,1-.06.71-.38-.6-1-.6-1,.14-1.15.51-.16.6-.29.72-.49.15-.38-.2a2.11,2.11,0,0,0,.22-1.13A4.33,4.33,0,0,0,20.81,19.09Z"/><path d="M23.67,18.05c-.11-.37.49-1,1.36-.73a1.88,1.88,0,0,1,1.46,1.32c.12.46.14.94.23,1.28s.34.66.28.95-.29.26-.52.07-.31-.47-.69-.47-1,.21-1.06.52-.13.64-.28.49-.17-.37-.24-.76-.1-.34-.13-.53S23.84,18.58,23.67,18.05Z"/><path d="M27.61,21.51c0,1.43-.5,3.19-2.27,3.11-1.36-.06-.81-1.37-.72-1.69s0-1.3.06-1.42.21-.49,1.21-.65c.54-.09.42.59,1,.4C27.25,21.13,27.61,21,27.61,21.51Z"/></svg>