<svg xmlns="http://www.w3.org/2000/svg" class="HeroAbility-icon HeroAbility-icon--hoverState" viewBox="0 0 40 40" preserveAspectRatio="xMidYMid meet"><path d="M28.93,7.67l-4.76,4.76a6.32,6.32,0,0,0,.79,1,2.89,2.89,0,0,1-2,.27,12.42,12.42,0,0,0,3.39,3.39,3.32,3.32,0,0,1,.27-2,10.85,10.85,0,0,0,1,.79l4.72-4.72,1-1-3.5-3.5Z"/><path d="M32.23,6l-1.88.32,3.41,3.41.36-1.84A4.92,4.92,0,0,0,32.23,6Z"/><path d="M18.75,22.62l-.85,4,3.61-6.14h0l0,0-.06,3.68,2.85-6.67c-.05-1.16-.62-1.77-2-1.91L15.61,18.7l3.8-.35,0,0L13.3,22.06l4.11-.86-.39.48C14.92,23.89,7,33,7.17,33.2S17.08,24.31,18.75,22.62Z"/><path d="M24.73,6.74A3.3,3.3,0,0,0,23.6,5.43l-1.23.12,2,2.36Z"/><path d="M19.19,12.43a2.17,2.17,0,0,1,.27-1.27,7.16,7.16,0,0,0,.63.56l3.28-2.83L24,8.28l-2.1-2.43-.65.59L18,9.29a4.11,4.11,0,0,0,.47.71,1.9,1.9,0,0,1-1.3.08A8,8,0,0,0,19.19,12.43Z"/><path d="M13.27,18.17l2.62-3.8h0l-.21,2.38,2.17-4a1.23,1.23,0,0,0-1.17-1.31l-4.55,1.54,2.47,0,0,0L10.51,15l2.7-.36-.24.27c-1.44,1.23-7.2,6.48-7.08,6.62s7-4.92,8.12-5.9Z"/><path d="M28.39,19.19,25.8,22.06a3.73,3.73,0,0,0,.49.58,1.67,1.67,0,0,1-1.14.21,7.14,7.14,0,0,0,2,1.84,1.87,1.87,0,0,1,.1-1.15,6.29,6.29,0,0,0,.62.42l2.57-2.86.53-.61L28.91,18.6Z"/><path d="M30.27,18.14l-1.07.24,2.06,1.86.15-1.07A2.87,2.87,0,0,0,30.27,18.14Z"/><path d="M24.91,24.07l-3.84,1.86,2.17-.32v0l-3.39,2.29,2.34-.61-.17.25c-1.11,1.22-5.64,6.51-5.52,6.62s5.58-5.09,6.51-6.09l-.37,2.33,1.89-3.64h0l.08,2.12,1.47-3.78A1.09,1.09,0,0,0,24.91,24.07Z"/></svg>