<svg xmlns="http://www.w3.org/2000/svg" class="HeroAbility-icon HeroAbility-icon--hoverState" viewBox="0 0 40 40" preserveAspectRatio="xMidYMid meet"><path d="M15.34,14.8c1-.52,1.63-1.23,1.44-1.57s-1.13-.2-2.11.32S13,14.77,13.23,15.11,14.36,15.32,15.34,14.8Zm10.24,3.49c.48-.4.32-1.39-.36-2.2s-1.62-1.14-2.1-.74-.32,1.39.36,2.2S25.1,18.69,25.58,18.28ZM23.12,28.45c.48.4,1.42.07,2.1-.74s.84-1.79.36-2.2-1.42-.07-2.1.74S22.64,28,23.12,28.45Zm6.39-6.55A10.64,10.64,0,1,0,18.87,32.54,10.64,10.64,0,0,0,29.51,21.9Zm-8.34,3.68L20,25.06a.42.42,0,0,1-.17-.63h0a.42.42,0,0,1,.52-.14l1.14.52a.42.42,0,0,1,.17.63h0A.42.42,0,0,1,21.17,25.59Zm1.09-11.8c.92-.77,2.72-.14,4,1.41s1.61,3.43.69,4.21-2.72.14-4-1.41S21.35,14.55,22.27,13.78Zm5.14,7.5v1.24a.35.35,0,0,1-.35.35h0a.35.35,0,0,1-.35-.35V21.28a.35.35,0,0,1,.35-.35h0A.35.35,0,0,1,27.41,21.28ZM23,25.81c1.3-1.55,3.1-2.18,4-1.41s.61,2.66-.69,4.21-3.1,2.18-4,1.41S21.66,27.36,23,25.81Zm-1.47-7.6h0a.39.39,0,0,1-.17.57l-1.2.55a.39.39,0,0,1-.49-.15h0a.39.39,0,0,1,.17-.57l1.2-.55A.39.39,0,0,1,21.49,18.21Zm-1.91-5.36,1,.28a.42.42,0,0,1,.26.6h0a.42.42,0,0,1-.48.2l-1-.28a.42.42,0,0,1-.26-.6h0A.42.42,0,0,1,19.58,12.85ZM21,30.22h0a.32.32,0,0,1-.22.4L19.56,31a.32.32,0,0,1-.39-.22h0a.32.32,0,0,1,.22-.4L20.64,30A.32.32,0,0,1,21,30.22ZM10.47,22.3H9.53A.34.34,0,0,1,9.19,22h0a.34.34,0,0,1,.34-.34h.93a.34.34,0,0,1,.34.34h0A.34.34,0,0,1,10.47,22.3Zm3.74-9.48c1.77-.94,3.47-1.2,3.81-.57s-.83,1.89-2.6,2.84-3.47,1.2-3.81.57S12.44,13.77,14.21,12.82Zm.17,4.81h0a.36.36,0,0,1-.46-.31l-.06-.6a.36.36,0,0,1,.26-.39h0a.36.36,0,0,1,.46.31l.06.6A.36.36,0,0,1,14.37,17.64Zm3.57,13.93c-.34.62-2,.33-3.79-.65S11.26,28.65,11.61,28s2-.33,3.79.65S18.29,31,17.95,31.57ZM13.79,27l.06-.6a.36.36,0,0,1,.46-.31h0a.36.36,0,0,1,.26.39l-.06.6a.36.36,0,0,1-.46.31h0A.36.36,0,0,1,13.79,27Zm1.61-1.47a3.67,3.67,0,0,1,0-7.32,3.67,3.67,0,0,1,0,7.32ZM16,19.68a2.1,2.1,0,0,0-2,2.22,2.1,2.1,0,0,0,2,2.22,2.1,2.1,0,0,0,2-2.22A2.1,2.1,0,0,0,16,19.68Zm17.14-6.25-3.1.22a.65.65,0,0,1-.68-.23A12.28,12.28,0,0,0,22.13,9a.8.8,0,0,1-.64-.7l-.66-1.85-.76,1.39L19,4.88s-1.54,4.05-2.12,4.19A12.81,12.81,0,0,0,7.08,19.72a.94.94,0,0,0,.35.86h0a11.52,11.52,0,1,1,9.4,12.63l.21.18a1.48,1.48,0,0,0,.76.33A12.67,12.67,0,0,0,26,31.88a1.62,1.62,0,0,1,1.72,0l.6.37-.14-.57a.17.17,0,0,1,.26-.18l1.89,1-1.28-2.17a1,1,0,0,1,0-1.17A12.71,12.71,0,0,0,31.5,17.43C31,15.89,33.19,13.44,33.19,13.44Zm-18,15.47c-1-.55-1.93-.71-2.12-.36s.44,1.07,1.42,1.62,1.93.71,2.12.36S16.17,29.46,15.19,28.91Z"/></svg>