<svg xmlns="http://www.w3.org/2000/svg" class="HeroAbility-icon HeroAbility-icon--hoverState" viewBox="0 0 40 40" preserveAspectRatio="xMidYMid meet"><path d="M18.16,9.54C13.71,13,16,16.19,16.87,17.41c-.29-5.36,5.2-6.06,5.2-6.06s-3.83,2.57.16,5.33A4.32,4.32,0,0,1,24.1,19a4.63,4.63,0,0,1,1.17-4.82c1.12-1.24,2.48-4.07,1.2-6.54a2.35,2.35,0,0,1-1.32,2.2c-.81-4.52-5.45-5.48-7.27-5.29C17.88,4.59,22.22,6.36,18.16,9.54Z" fill-rule="evenodd"/><path d="M32.33,15.41a13.17,13.17,0,0,0-3-4.22.19.19,0,0,0-.18,0,.19.19,0,0,0-.13.13l-.45,1.6a.19.19,0,0,0,0,.17,12.05,12.05,0,0,1,3,9.57,12,12,0,0,1-7.18,9.16,12,12,0,0,1-12.63-2.47A12,12,0,0,1,8.44,18.61,11.86,11.86,0,0,1,14,10.91c.17-.1,1.49-1.7,2.27-2.65a.19.19,0,0,0-.2-.3,13.64,13.64,0,0,0-5.84,3.55A13.86,13.86,0,0,0,6.76,24a13.75,13.75,0,0,0,8.08,9.48,12.83,12.83,0,0,0,4.87.94A14,14,0,0,0,31.78,27.5,13.76,13.76,0,0,0,32.33,15.41Z" fill-rule="evenodd"/><path d="M14.25,18.73c.18-.13-.85.27-1.09.42a4.39,4.39,0,0,0-2.28,4.36,9.37,9.37,0,1,0,16.79-7.63,3.61,3.61,0,0,1-2.85,4.22c-2.9.84-5-2.07-8.75-1.82a5.48,5.48,0,0,0-.82.13c.8.07,1.66.64,1.44,1.28s-1,.77-1.93,1.25C14,21.35,13,21,13,20.18,13,19.57,14,18.93,14.25,18.73Zm7.39,3A1.68,1.68,0,1,1,20,23.38,1.68,1.68,0,0,1,21.63,21.7Zm-3,4.58a1.08,1.08,0,1,1-1.08,1.08A1.08,1.08,0,0,1,18.67,26.29Z" fill-rule="evenodd"/></svg>