<svg xmlns="http://www.w3.org/2000/svg" class="HeroAbility-icon" viewBox="0 0 40 40" preserveAspectRatio="xMidYMid meet"><g id="_Group_" data-name=" Group "><path id="_Path_" data-name=" Path " d="M25.42,18.74a14.42,14.42,0,0,1,1.59,0,.63.63,0,0,1,.48.32,2.66,2.66,0,0,1,.39,1.12,5.1,5.1,0,0,1-.22,2.65.84.84,0,0,1-1,.66H25.42s0-.08.07-.11a1.63,1.63,0,0,0,.44-.84,5.51,5.51,0,0,0,0-2.72A1.91,1.91,0,0,0,25.42,18.74Z"/><path id="_Path_2" data-name=" Path 2" d="M34,20.6a9.22,9.22,0,0,0-.78.62,1.28,1.28,0,0,1-1,.34H28.45c-.29,0-.29,0-.29-.28v-.59c0-.19,0-.13.14-.13H34Z"/><path id="_Compound_Path_" data-name=" Compound Path " d="M29.67,14q-2.8-2.85-5.58-5.71a.65.65,0,0,0-.55-.21,1,1,0,0,0-.47.19L19.7,10.5,14.36,14a1,1,0,0,0-.4.43.5.5,0,0,0,.4.73h2.48c.23,0,.24,0,.18.23l-.48,1.8c-.06.24,0,.26.2.26h8.78c.31,0,.24-.06.28-.22.16-.62.33-1.23.49-1.84a.25.25,0,0,1,.27-.23h2.38a1,1,0,0,0,.67-.26.63.63,0,0,0,.1-.89Z"/><path id="_Compound_Path_2" data-name=" Compound Path 2" d="M23.61,24.74H14.75a.22.22,0,0,0-.26.18v0l-1.23,4.6a.94.94,0,0,0,1,1.27h6.61a1.73,1.73,0,0,0,1.65-1.19c.43-1.56.84-3.13,1.26-4.69C23.82,24.77,23.76,24.74,23.61,24.74Z"/><path id="_Compound_Path_3" data-name=" Compound Path 3" d="M18.3,23.5H12.39a.53.53,0,0,0-.52.25.77.77,0,0,1-.67.35l-2.87.31-2,.21c-.09,0-.22.07-.28,0a.38.38,0,0,1,0-.41l.53-.68c.06-.07.09-.13,0-.22A2.67,2.67,0,0,1,6.09,22a5.39,5.39,0,0,1,.11-2.14A1.9,1.9,0,0,1,6.64,19a.18.18,0,0,0,0-.25l0,0-.48-.61L6.05,18a.39.39,0,0,1,0-.36c.05-.1.16,0,.25,0L9.5,18l1.92.21a.43.43,0,0,1,.36.2.86.86,0,0,0,.85.4H24.31a.74.74,0,0,1,.75.45A4,4,0,0,1,25.44,21a5.37,5.37,0,0,1-.18,1.4A2.13,2.13,0,0,1,25,23a.89.89,0,0,1-.8.46C22.23,23.49,20.27,23.5,18.3,23.5ZM16,22.88h5.85a.6.6,0,0,0,.65-.43,3.8,3.8,0,0,0,0-2.71.56.56,0,0,0-.6-.39H10.16c-.44,0-.56.08-.71.5a3.72,3.72,0,0,0-.19,1.64,2.8,2.8,0,0,0,.27,1.07.52.52,0,0,0,.52.32Z"/></g></svg>