<svg xmlns="http://www.w3.org/2000/svg" class="HeroAbility-icon HeroAbility-icon--hoverState" viewBox="0 0 40 40" preserveAspectRatio="xMidYMid meet"><g id="_Group_6" data-name="&lt;Group&gt;"><g id="_Group_7" data-name="&lt;Group&gt;"><path id="_Compound_Path_12" data-name="&lt;Compound Path&gt;" d="M22.31,21a5.63,5.63,0,1,0,5.63,5.63A5.63,5.63,0,0,0,22.31,21Zm2.82,10.09-.1.06-.16.07a1.37,1.37,0,0,1-.25.06l-.46.1h0a.32.32,0,0,0-.18,0c-.15,0-.3,0-.45,0a.43.43,0,0,1-.14,0l-.44-.17s0,0,0,0a1.46,1.46,0,0,0-.18-.16l-.24-.2a.63.63,0,0,1-.14-.2L22,30.17a.38.38,0,0,1,0-.12c0-.2-.08-.4-.13-.6a.26.26,0,0,1,0-.14.39.39,0,0,0,0-.15c0-.17,0-.34,0-.52a.71.71,0,0,1,.06-.22c.07-.2.13-.41.19-.61a1.26,1.26,0,0,1,.14-.26l.15-.27a4,4,0,0,1,.24-.39l0,0c.1-.09.18-.2.28-.3s.14-.17.21-.25l.06-.05.47-.34.23-.16.1,0,.57-.24a.73.73,0,0,1,.29-.06.77.77,0,0,0,.19,0,1.47,1.47,0,0,0,.25,0,.26.26,0,0,1,.1,0,1.83,1.83,0,0,1,.35,0l.32.06.06,0,.51.29a.87.87,0,0,1,.2.2c.07.08.13.17.21.25a.52.52,0,0,1,.11.18c.06.13.1.26.15.39a1.46,1.46,0,0,1,.08.35,2.16,2.16,0,0,0,0,.29c0,.07,0,.15,0,.22s0,.14,0,.2a1.08,1.08,0,0,0,0,.18,1.31,1.31,0,0,0,0,.22.94.94,0,0,1-.07.3l-.08.24c0,.11-.07.23-.12.34a2.15,2.15,0,0,1-.14.25l-.27.45,0,.06c-.14.13-.24.29-.38.43l-.08.1a1.37,1.37,0,0,1-.21.18l-.39.3-.15.1-.29.14Zm-5.18-6.47a.9.9,0,0,1-.31.42s-.11,0-.16.06a.3.3,0,0,1-.3,0,.31.31,0,0,1-.15-.24.83.83,0,0,1,0-.09.61.61,0,0,1,.18-.45l0,0a.54.54,0,0,1,.35-.18.41.41,0,0,1,.15,0,.23.23,0,0,1,.16.1A.45.45,0,0,1,19.95,24.68ZM25.7,30.9l.41-.35s0,0,.08,0h0a2.48,2.48,0,0,1-.63.45Zm.93-.82a3.61,3.61,0,0,1-.26.31Z"/><path id="_Path_3" data-name="&lt;Path&gt;" d="M26.1,30.15l.15-.16c.07-.07.13-.16.2-.22a.59.59,0,0,0,.09-.13l.2-.34a1.29,1.29,0,0,0,.13-.25c0-.12.08-.24.12-.36a.57.57,0,0,0,.06-.23,1.34,1.34,0,0,1,0-.22,2.32,2.32,0,0,0,0-.34c0-.07,0-.14,0-.21s0-.16,0-.25a.83.83,0,0,0,0-.22c0-.13-.1-.26-.16-.38a.85.85,0,0,0-.1-.16c-.05-.07-.12-.13-.17-.2a.6.6,0,0,0-.18-.17l-.4-.23a.48.48,0,0,0-.16,0L25.56,26a.44.44,0,0,0-.17,0c-.09,0-.18,0-.26,0s-.24,0-.36,0l0,0-.51.22-.13.07-.36.26a1.64,1.64,0,0,0-.32.3l-.26.29a.85.85,0,0,0-.1.14l-.12.21c0,.07-.07.14-.12.21a1.11,1.11,0,0,0-.13.27l-.13.42a.63.63,0,0,0,0,.18c0,.13,0,.26,0,.39a.33.33,0,0,1,0,.16.18.18,0,0,0,0,.1c0,.18.08.37.12.55a.62.62,0,0,0,.07.18c.06.11.13.22.19.33a.53.53,0,0,0,.15.17c.08.07.17.14.25.21a.34.34,0,0,0,.11.08c.12,0,.24.09.36.14A.63.63,0,0,0,24,31h.13a1,1,0,0,0,.29,0l.46-.1a.53.53,0,0,0,.16-.05,3.7,3.7,0,0,0,.66-.37C25.83,30.36,26,30.27,26.1,30.15Z"/></g><path id="_Path_4" data-name="&lt;Path&gt;" d="M9.58,18.93a3.17,3.17,0,0,0-.55-3C9.16,16.91,9.37,17.92,9.58,18.93Z"/><path id="_Path_5" data-name="&lt;Path&gt;" d="M8.72,15.59a.13.13,0,0,1,0,0,3.18,3.18,0,1,0,.67,3.81A38.23,38.23,0,0,1,8.72,15.59Z"/><circle id="_Path_6" data-name="&lt;Path&gt;" cx="16.2" cy="8.95" r="1.66"/><circle id="_Path_7" data-name="&lt;Path&gt;" cx="10.69" cy="12.36" r="1.91"/><circle id="_Path_8" data-name="&lt;Path&gt;" cx="22.96" cy="8.54" r="1.91"/><path id="_Path_9" data-name="&lt;Path&gt;" d="M26.93,11a3.14,3.14,0,0,0,2.64,2.53A5.07,5.07,0,0,0,26.93,11Z"/><path id="_Path_10" data-name="&lt;Path&gt;" d="M30,7.3a3.15,3.15,0,0,0-3.15,3.15c0,.09,0,.17,0,.25a5.21,5.21,0,0,1,3,2.89H30A3.15,3.15,0,0,0,30,7.3Z"/><g id="_Group_8" data-name="&lt;Group&gt;"><path id="_Path_11" data-name="&lt;Path&gt;" d="M7.59,22.62a.09.09,0,0,0,.05-.06.73.73,0,0,0,.19-.08,2.23,2.23,0,0,1,.76-.25c.18,0,.35,0,.53-.07a2.61,2.61,0,0,1,.48,0c.14,0,.27,0,.41,0h.06c.25.1.5.16.76.23a.67.67,0,0,1,.34.21.28.28,0,0,1,0,.27.43.43,0,0,1-.29.31,3.42,3.42,0,0,1-1.24.25,5.31,5.31,0,0,1-1.41-.12,2.16,2.16,0,0,1-.7-.28.24.24,0,0,1,0-.41Z"/><path id="_Path_12" data-name="&lt;Path&gt;" d="M5.46,27.87a.92.92,0,0,1,.35.16,7.51,7.51,0,0,1,1.48,1.41c.12.14.24.29.34.44a1.44,1.44,0,0,1,.2.46c0,.05,0,.11,0,.15a.16.16,0,0,1-.18,0,6,6,0,0,1-.83-.45l-.24-.16A2.33,2.33,0,0,1,6,29.4a3.69,3.69,0,0,1-.55-.86,2,2,0,0,1-.17-.48C5.29,27.93,5.33,27.87,5.46,27.87Z"/><path id="_Compound_Path_13" data-name="&lt;Compound Path&gt;" d="M13.68,26.6a1.12,1.12,0,0,0,0-.3c0-.07,0-.13,0-.2a2.47,2.47,0,0,0-.1-.64c-.09-.22-.16-.45-.24-.68a1.36,1.36,0,0,0-.14-.33l-.5-.71a1.11,1.11,0,0,0-.2-.25L12,23.06a1,1,0,0,0-.36-.23l0,.06a.33.33,0,0,1-.05.49,1,1,0,0,1-.39.2,5.57,5.57,0,0,1-2.68.26,3.31,3.31,0,0,1-1.32-.39.37.37,0,0,1-.13-.53.65.65,0,0,1,.33-.24.1.1,0,0,0,.06-.06.25.25,0,0,0-.16.06,5.77,5.77,0,0,0-.94.69,3.11,3.11,0,0,0-.61.7,6.93,6.93,0,0,0-.38.67A4.64,4.64,0,0,0,5,26.14a6.94,6.94,0,0,0,0,1.1.72.72,0,0,0,.07.3.48.48,0,0,1,0-.09c0-.06.08-.12.17-.11a.91.91,0,0,1,.35.12,7,7,0,0,1,.78.57,8.33,8.33,0,0,1,1.31,1.41,2.47,2.47,0,0,1,.52,1c0,.18,0,.23-.15.3a4.36,4.36,0,0,0,.78.16,5.53,5.53,0,0,0,1.33-.09,3.2,3.2,0,0,0,1-.35c.16-.09.33-.16.49-.26a1.6,1.6,0,0,0,.38-.29.08.08,0,0,0,.09,0l.17-.2,0,0A4.26,4.26,0,0,0,13.68,27v0h0A1.36,1.36,0,0,0,13.68,26.6Zm-3,1.52a.68.68,0,1,1,.7-.69A.7.7,0,0,1,10.67,28.12Z"/></g><g id="_Group_9" data-name="&lt;Group&gt;"><path id="_Path_13" data-name="&lt;Path&gt;" d="M31,14.88a.09.09,0,0,0,.05-.06.73.73,0,0,0,.19-.08A2.23,2.23,0,0,1,32,14.5c.18,0,.35,0,.53-.07a2.61,2.61,0,0,1,.48,0c.14,0,.27,0,.41,0h.06c.25.1.5.16.76.23a.67.67,0,0,1,.34.21.28.28,0,0,1,0,.27.43.43,0,0,1-.29.31,3.42,3.42,0,0,1-1.24.25,5.31,5.31,0,0,1-1.41-.12,2.16,2.16,0,0,1-.7-.28.24.24,0,0,1,0-.41Z"/><path id="_Path_14" data-name="&lt;Path&gt;" d="M28.9,20.13a.92.92,0,0,1,.35.16,7.51,7.51,0,0,1,1.48,1.41c.12.14.24.29.34.44a1.44,1.44,0,0,1,.2.46c0,.05,0,.11,0,.15a.16.16,0,0,1-.18,0,6,6,0,0,1-.83-.45L30,22.18a2.33,2.33,0,0,1-.51-.51,3.69,3.69,0,0,1-.55-.86,2,2,0,0,1-.17-.48C28.73,20.19,28.77,20.13,28.9,20.13Z"/><path id="_Compound_Path_14" data-name="&lt;Compound Path&gt;" d="M37.13,18.86a1.12,1.12,0,0,0,0-.3c0-.07,0-.13,0-.2a2.47,2.47,0,0,0-.1-.64c-.09-.22-.16-.45-.24-.68a1.36,1.36,0,0,0-.14-.33l-.5-.71a1.11,1.11,0,0,0-.2-.25l-.54-.45a1,1,0,0,0-.36-.23l0,.06a.33.33,0,0,1-.05.49,1,1,0,0,1-.39.2A5.57,5.57,0,0,1,32,16.1a3.31,3.31,0,0,1-1.32-.39.37.37,0,0,1-.13-.53.65.65,0,0,1,.33-.24.1.1,0,0,0,.06-.06.25.25,0,0,0-.16.06,5.77,5.77,0,0,0-.94.69,3.11,3.11,0,0,0-.61.7,6.93,6.93,0,0,0-.38.67,4.64,4.64,0,0,0-.37,1.4,6.94,6.94,0,0,0,0,1.1.72.72,0,0,0,.07.3.48.48,0,0,1,0-.09c0-.06.08-.12.17-.11a.91.91,0,0,1,.35.12,7,7,0,0,1,.78.57,8.33,8.33,0,0,1,1.31,1.41,2.47,2.47,0,0,1,.52,1c0,.18,0,.23-.15.3a4.36,4.36,0,0,0,.78.16,5.53,5.53,0,0,0,1.33-.09,3.2,3.2,0,0,0,1-.35c.16-.09.33-.16.49-.26a1.6,1.6,0,0,0,.38-.29.08.08,0,0,0,.09,0l.17-.2,0,0a4.26,4.26,0,0,0,1.33-2.74v0h0A1.36,1.36,0,0,0,37.13,18.86Zm-3,1.52a.68.68,0,1,1,.7-.69A.7.7,0,0,1,34.11,20.38Z"/></g></g></svg>