<svg xmlns="http://www.w3.org/2000/svg" class="HeroAbility-icon HeroAbility-icon--hoverState" viewBox="0 0 40 40" preserveAspectRatio="xMidYMid meet"><g id="_Group_3" data-name="&lt;Group&gt;"><path id="_Compound_Path_9" data-name="&lt;Compound Path&gt;" d="M33.16,20.22a12.49,12.49,0,0,1-.56,3.87,11.32,11.32,0,0,1-.66,1.7,12.77,12.77,0,0,1-1.83,2.81,10.65,10.65,0,0,1-.85.91c-.41.38-.84.74-1.29,1.08a12.94,12.94,0,0,1-2,1.2,12,12,0,0,1-2,.76,12.82,12.82,0,0,1-2.15.44,13.1,13.1,0,0,1-2.37.05A13,13,0,0,1,17,32.64a13.12,13.12,0,0,1-3-1.21,15.8,15.8,0,0,1-1.38-.87c-.27-.19-.52-.4-.77-.61a11,11,0,0,1-.92-.84,15.58,15.58,0,0,1-1.17-1.4,12.74,12.74,0,0,1-2.29-5.43,14.11,14.11,0,0,1-.18-2.93A13.23,13.23,0,0,1,8,15.75,12.93,12.93,0,0,1,9.75,12.3a11.26,11.26,0,0,1,.94-1.16c.19-.21.38-.43.59-.62a13.26,13.26,0,0,1,2.57-1.92,12.86,12.86,0,0,1,2.9-1.2A12.24,12.24,0,0,1,18.51,7a12.79,12.79,0,0,1,1.91-.11,13.08,13.08,0,0,1,3.18.47,12.68,12.68,0,0,1,2.58,1,12.34,12.34,0,0,1,2.1,1.4,11.19,11.19,0,0,1,1.11,1,14.9,14.9,0,0,1,1.08,1.29,14,14,0,0,1,1.07,1.72,15.39,15.39,0,0,1,.79,1.85,13.18,13.18,0,0,1,.71,2.7A10.66,10.66,0,0,1,33.16,20.22ZM29.3,24a.32.32,0,0,1,0-.07,7.87,7.87,0,0,0-.17-1.27A6.42,6.42,0,0,0,28.58,21a4.35,4.35,0,0,0-1.89-2.09c-.38-.21-.77-.4-1.17-.57a5.66,5.66,0,0,0-2-.56,18.88,18.88,0,0,1-2.41-.33,6.15,6.15,0,0,1-2.48-1.07,7.1,7.1,0,0,1-.74-.65,1.79,1.79,0,0,1-.46-.74,7.72,7.72,0,0,1-.24-.83,1.61,1.61,0,0,1,0-.58,1.7,1.7,0,0,0,0-.2,1.71,1.71,0,0,1,.15-.64,4.35,4.35,0,0,1,1.2-1.52,8.3,8.3,0,0,1,.79-.57A5.86,5.86,0,0,0,17,12.16a2.13,2.13,0,0,1,.27-.61,8.83,8.83,0,0,1,.69-.92,2.67,2.67,0,0,1,.89-.71,5.72,5.72,0,0,1,2.5-.61,9,9,0,0,1,1.28.06,5.7,5.7,0,0,1,1.2.25.33.33,0,0,0,.19,0c-.25-.13-.47-.24-.7-.34A9.87,9.87,0,0,0,22.09,9a.31.31,0,0,1-.18-.09h.35a8.81,8.81,0,0,0-1.76-.2,9.43,9.43,0,0,0-1.79.11,11.46,11.46,0,0,0-3.33,1,11.33,11.33,0,0,0-6,7.07A10.66,10.66,0,0,0,9,19.09a8.9,8.9,0,0,0,0,1.35c0,.45.06.9.13,1.34A11.35,11.35,0,0,0,13.44,29a11,11,0,0,0,3.62,1.84,11.81,11.81,0,0,0,3.35.49c.16,0,.32,0,.47,0a9.63,9.63,0,0,0,1.68-.21,16.81,16.81,0,0,0,2.13-.64A8.87,8.87,0,0,0,27.22,29a4.18,4.18,0,0,0,.72-.73c.32-.4.66-.77.93-1.2a5.41,5.41,0,0,0,.55-.91,6.55,6.55,0,0,0,.52-2.34A12.12,12.12,0,0,0,29.87,22,3.18,3.18,0,0,1,29.3,24Z"/><path id="_Path_" data-name="&lt;Path&gt;" d="M23.54,26.15H22.29c-.17,0-.17,0-.18.17-.05.55-.11,1.09-.17,1.64l-.08.82c0,.15,0,.17-.18.17H18.09c-.15,0-.15,0-.14-.16l.22-2.13,0-.35c0-.13,0-.15-.13-.16H15.57c-.1,0-.15,0-.14-.15s0-.27,0-.4c.06-.53.12-1.07.17-1.6s.11-1,.16-1.56c0-.2,0-.21.23-.21h2.36c.24,0,.24,0,.26-.24.07-.67.14-1.35.21-2,0-.14,0-.28,0-.42s.06-.15.18-.15h3.64c.07,0,.1,0,.09.11s0,0,0,.07l-.17,1.64c0,.27-.06.54-.09.82s0,.2.19.2h2.38c.26,0,.27,0,.24.27-.05.43-.09.86-.14,1.29L25,25.39c0,.17,0,.34,0,.51s0,.25-.28.25Z"/></g></svg>