<svg xmlns="http://www.w3.org/2000/svg" class="HeroAbility-icon HeroAbility-icon--hoverState" viewBox="0 0 40 40" preserveAspectRatio="xMidYMid meet"><path d="M10.63,18.47,7.74,19.57A12,12,0,0,1,8,16.64L5.73,15.55a1.08,1.08,0,0,1-.57-1.29l.49-1.58a1.08,1.08,0,0,1,1.2-.74l2.58.41a1.07,1.07,0,0,1,.39.14,12.16,12.16,0,0,1,2.51-2.7l-.83-2.47A1.08,1.08,0,0,1,12,6l1.48-.75a1.08,1.08,0,0,1,1.37.34L16.35,7.7a12.08,12.08,0,0,1,2.26-.44c.4,0,.8-.06,1.2-.06h.08l.87-2.37A1.08,1.08,0,0,1,22,4.15l1.62.34a1.08,1.08,0,0,1,.85,1.12L24.3,8.22c0,.12-.32,1.94-.47,2.82a9.21,9.21,0,0,0-13.21,7.43Zm14.2-6.86.46-3.1A12,12,0,0,1,27.54,10l.19-.12,2.35-1.14a1.08,1.08,0,0,1,1.36.37l.93,1.37a1.08,1.08,0,0,1-.17,1.4L30.41,13.5a12.06,12.06,0,0,1,1.3,3.82l2.52.49a1.08,1.08,0,0,1,.87,1.11L35,20.57a1.08,1.08,0,0,1-1,1l-2.46.24a12,12,0,0,1-1.15,3.11l1.65,1.93a1.08,1.08,0,0,1,0,1.41L31,29.52a1.08,1.08,0,0,1-1.4.19l-2.19-1.42-2.15-1.56a9.21,9.21,0,0,0-.44-15.13Zm-14.24,8a9.21,9.21,0,0,0,13.7,7.73l2.46,1.76a12,12,0,0,1-2.81,1.48l0,2.35a1.08,1.08,0,0,1-.9,1.08l-1.63.27a1.08,1.08,0,0,1-1.2-.74l-.7-2.23a12.07,12.07,0,0,1-3.94-.74l-1.54,1.78a1.08,1.08,0,0,1-1.39.2l-1.4-.89a1.08,1.08,0,0,1-.4-1.35l.92-2a12,12,0,0,1-2.65-3.38l-2.26.39a1.08,1.08,0,0,1-1.21-.73L5.16,23a1.08,1.08,0,0,1,.55-1.3l2.34-1.15C8.15,20.52,9.8,19.92,10.59,19.63Z"/><path d="M24.43,16.78l1.47-1.17A7.32,7.32,0,0,0,19.82,12h-.23a7.25,7.25,0,0,0-6.89,6.63c-.05.82.36,1.43,1,1.39s.87-1,.87-1a5.32,5.32,0,0,1,3.3-4.78A5.45,5.45,0,0,1,24.43,16.78Z" fill-rule="evenodd"/><path d="M27.43,15.82a.65.65,0,0,0-.33.17C25,17.59,23,19.34,20.78,20.75l-.2.12a2.5,2.5,0,1,0,1.54,1.75A41.09,41.09,0,0,1,25,19.31a.88.88,0,0,0,.22.42c.59.58,1.61,0,1.59-.8a6.56,6.56,0,0,0-.16-1.31l1.07-1.09C27.93,16.34,28.14,15.79,27.43,15.82ZM19.7,24.36a1.15,1.15,0,1,1,1.16-1.15A1.16,1.16,0,0,1,19.7,24.36Z" fill-rule="evenodd"/></svg>