<svg xmlns="http://www.w3.org/2000/svg" class="HeroAbility-icon HeroAbility-icon--hoverState" viewBox="0 0 40 40" preserveAspectRatio="xMidYMid meet"><g id="_Group_34" data-name="&lt;Group&gt;"><g id="_Group_35" data-name="&lt;Group&gt;"><path id="_Compound_Path_2" data-name="&lt;Compound Path&gt;" d="M33,16.66c0-.12-.07-.24-.1-.36h0v0h0A14.69,14.69,0,0,0,32,13.9a14,14,0,0,0-1.89-2.77A10.8,10.8,0,0,0,27.77,9,16.08,16.08,0,0,0,26.1,8a16,16,0,0,0-2.6-1A7.44,7.44,0,0,0,22,6.61a19.49,19.49,0,0,0-3.88,0,12.13,12.13,0,0,0-3,.73,14.8,14.8,0,0,0-3,1.59c-.67.45-1.22,1-1.86,1.51-.32.24-.47.65-.76.95a10.63,10.63,0,0,0-2.1,3.28A11.44,11.44,0,0,0,6.66,17a11.92,11.92,0,0,0-.31,2.1A14.76,14.76,0,0,0,6.49,22a15.18,15.18,0,0,0,1,3.55,13.16,13.16,0,0,0,1.23,2.16c.37.53.79,1,1.17,1.52A12.52,12.52,0,0,0,12,31.06a4.28,4.28,0,0,0,.92.61A18.87,18.87,0,0,0,16.08,33c.53.14,1.07.28,1.61.37a22,22,0,0,0,3,.09,5.72,5.72,0,0,0,1.68-.15,17.27,17.27,0,0,0,2.43-.73,21.67,21.67,0,0,0,2.14-1,12.28,12.28,0,0,0,2.25-1.74,12.45,12.45,0,0,0,1.43-1.6,12.55,12.55,0,0,0,1.5-2.46,8.78,8.78,0,0,0,1-3c0-.23.16-.37.2-.56.11-1,.06-2,.09-3A9.92,9.92,0,0,0,33,16.66Zm-1.19,6a4.36,4.36,0,0,0-.69,1.5c-.09.23-.1.5-.32.69a2.17,2.17,0,0,1-1,2.15c-.55.48-1,1-1.54,1.56-.25.25-.18.6-.32.9a3.44,3.44,0,0,1-1.44,1.44,15,15,0,0,1-1.75.82.61.61,0,0,1-.5-.06,1.49,1.49,0,0,0-1.37,0,.64.64,0,0,1-.3.06,6.34,6.34,0,0,0-1.71.42,2.45,2.45,0,0,1-1.78,0,3.89,3.89,0,0,0-1.51-.35c-.49,0-.9-.31-1.39-.27-.29,0-.59,0-.77.25a8.67,8.67,0,0,1-2.72-1.27c-.57-.35-.7-1-1-1.54a10.28,10.28,0,0,0-2.14-2.4c-.61-.5-.41-1.29-.71-1.92s-.32-1-.51-1.55a4,4,0,0,0-.91-1.1,3.87,3.87,0,0,1-.06-1.16c0-.72,0-1.44,0-2.15a1,1,0,0,1,.37-.9,2.09,2.09,0,0,0,.74-1.17,19.94,19.94,0,0,0,.66-2.48,1.43,1.43,0,0,1,.62-.91c.68-.55,1.26-1.2,1.86-1.78.31-1,.63-1.91,1.7-2.3a9,9,0,0,0,1-.59c.86-.44,1.69-.13,2.68-.1.21-.16.63-.08,1-.14a8,8,0,0,1,1.65-.66,1.85,1.85,0,0,1,1.1.13A14.36,14.36,0,0,1,23,8.49a3.29,3.29,0,0,1,2.87.17,7.52,7.52,0,0,1,1.34.83A2.74,2.74,0,0,1,28,10.81a3.64,3.64,0,0,0,1.64,2,2.83,2.83,0,0,1,1.22,2,14.3,14.3,0,0,0,.37,1.59,3.93,3.93,0,0,0,.24.63h0a3.62,3.62,0,0,0,.86,1.16.83.83,0,0,1,.2.67c0,.82,0,1.64,0,2.46A2,2,0,0,1,31.82,22.62Z"/><path id="_Path_27" data-name="&lt;Path&gt;" d="M23.18,21.71a1.17,1.17,0,0,1-.42.42c-.76.44-1.51.9-2.28,1.33a1,1,0,0,1-1,0c-.75-.42-1.49-.87-2.24-1.3a1,1,0,0,1-.53-1c0-.77,0-1.54,0-2.3a1.06,1.06,0,0,1,.55-1.05c.76-.48,1.56-.88,2.32-1.35a.77.77,0,0,1,.79,0c.59.33,1.16.69,1.74,1l.74.43a.71.71,0,0,1,.38.73C23.1,19.65,23.18,20.67,23.18,21.71Z"/><path id="_Path_28" data-name="&lt;Path&gt;" d="M13.75,24.11a8.07,8.07,0,0,1,2.6-1.47c1.1.65,2.14,1.17,3.12,1.87,0,.82,0,1.63,0,2.45a.68.68,0,0,1-.48.6c-.7.33-1.43.62-2.19.94A14.82,14.82,0,0,1,14.32,27a1,1,0,0,1-.44-.83A15.93,15.93,0,0,1,13.75,24.11Z"/><path id="_Path_29" data-name="&lt;Path&gt;" d="M13.74,15.74a9.65,9.65,0,0,1,.35-2.8l2.63-1.56c.79.14,1.51.74,2.39.9l.36.42c0,.8,0,1.61,0,2.43a.44.44,0,0,1-.2.39,21,21,0,0,1-3.18,1.74C15.36,16.69,14.46,16.38,13.74,15.74Z"/><path id="_Path_30" data-name="&lt;Path&gt;" d="M20.39,15.29V12.6A14.43,14.43,0,0,1,23,11.37c1,.41,1.74,1.1,2.69,1.54A7.42,7.42,0,0,1,26,15.76a9.47,9.47,0,0,1-2.53,1.47A19.94,19.94,0,0,1,20.39,15.29Z"/><path id="_Path_31" data-name="&lt;Path&gt;" d="M13.3,23.32c-.77-.62-1.45-1.12-2.15-1.59a10.34,10.34,0,0,1,0-3.45,10.89,10.89,0,0,0,1-.76c.31-.3.76-.39,1-.73A1,1,0,0,1,14,17c.5.35,1,.65,1.56,1a.57.57,0,0,1,.33.48c0,1.07,0,2.15,0,3.27A13.81,13.81,0,0,1,13.3,23.32Z"/><path id="_Path_32" data-name="&lt;Path&gt;" d="M23.73,22.63c.75.46,1.36.83,2,1.19a.54.54,0,0,1,.32.43,11.35,11.35,0,0,1-.15,2.12,1.12,1.12,0,0,1-.74.9c-.72.33-1.32.89-2.06,1.2a8.24,8.24,0,0,1-1.31-.5,11.65,11.65,0,0,1-1.37-.61c0-.94,0-1.92,0-3A26.14,26.14,0,0,1,23.73,22.63Z"/><path id="_Path_33" data-name="&lt;Path&gt;" d="M28.85,20.07a.17.17,0,0,0,0-.08c0-.41,0-.81,0-1.22a.61.61,0,0,0-.24-.53L26.81,16.9a.62.62,0,0,0-.76,0c-.64.38-1.29.74-1.9,1.17a17.84,17.84,0,0,0-.06,3.74c.63.55,1.47.86,2.08,1.46a.7.7,0,0,0,.63-.14q.67-.51,1.36-1h0l0,0h0l.33-.24a.71.71,0,0,0,.33-.65c0-.34,0-.67,0-1Z"/><path id="_Path_34" data-name="&lt;Path&gt;" d="M17.86,30.84a1.24,1.24,0,0,1-.54-1.54c.82-.5,1.77-.67,2.67-1.11.77.61,1.9.53,2.57,1.33l-.27,1.27a5.35,5.35,0,0,1-2.48.73c-.5,0-.9-.36-1.38-.48C18.24,31,18,30.87,17.86,30.84Z"/><path id="_Path_35" data-name="&lt;Path&gt;" d="M17.28,10.41c0-1,.15-1.26,1.11-1.57a5.53,5.53,0,0,0,1.08-.43,1.06,1.06,0,0,1,1-.05,11,11,0,0,0,1.45.49.56.56,0,0,1,.46.49l.2,1a1.31,1.31,0,0,1-.34.42,12.76,12.76,0,0,0-1.8.69,1.3,1.3,0,0,1-.89,0c-.64-.16-1.21-.52-1.86-.67C17.49,10.74,17.38,10.59,17.28,10.41Z"/><path id="_Path_36" data-name="&lt;Path&gt;" d="M12.75,15.8l-1.9,1.4a.66.66,0,0,1-.81,0,2.3,2.3,0,0,1-.68-.66c.13-.7.26-1.43.42-2.15.09-.38.44-.59.7-.85a5.9,5.9,0,0,1,.94-.85.66.66,0,0,1,.72-.08,4.34,4.34,0,0,0,.85.3A7.58,7.58,0,0,1,12.75,15.8Z"/><path id="_Path_37" data-name="&lt;Path&gt;" d="M13.05,26.85a3.33,3.33,0,0,1-1.1.49c-.32,0-.5-.23-.73-.37A2.9,2.9,0,0,1,9.6,24.57a3.25,3.25,0,0,0-.27-1.15c.38-.35.62-.84,1.2-.89a10.52,10.52,0,0,1,2.24,1.65A9.54,9.54,0,0,1,13.05,26.85Z"/><path id="_Path_38" data-name="&lt;Path&gt;" d="M29.91,14c.23.73.29,1.42.44,2.1a.66.66,0,0,1-.17.66,7.39,7.39,0,0,1-.53.56.94.94,0,0,1-.75-.18c-.51-.36-1-.71-1.52-1.11a1.28,1.28,0,0,1-.5-1.07,5.26,5.26,0,0,1,0-1.08c0-.23-.25-.34-.23-.6.29-.61.93-.63,1.52-.74.2,0,.34.13.47.26A10.75,10.75,0,0,0,29.91,14Z"/><path id="_Path_39" data-name="&lt;Path&gt;" d="M29.4,22.52a3.68,3.68,0,0,0-1.19.7h0l0,0a5,5,0,0,1-.94.63A1.85,1.85,0,0,0,26.88,25a2.54,2.54,0,0,1-.28,1.5,1.36,1.36,0,0,0,2.11.43,4.62,4.62,0,0,1,1.17-1c.28-.8.29-1.63.54-2.43A1.54,1.54,0,0,0,29.4,22.52Z"/><path id="_Path_40" data-name="&lt;Path&gt;" d="M9,22.38a4,4,0,0,1-1.05-1V18.59a4.12,4.12,0,0,1,1-1c.9.21,1.23.61,1.23,1.48,0,.53,0,1.06,0,1.59A1.25,1.25,0,0,1,9.62,22,6.21,6.21,0,0,1,9,22.38Z"/><path id="_Path_41" data-name="&lt;Path&gt;" d="M30.79,17.59l-.13.08a10.58,10.58,0,0,0-1,1.11c0,.88,0,1.76,0,2.65a.78.78,0,0,0,.09.26l.94.7a1.77,1.77,0,0,0,1.12-1.24c0-.85,0-1.7,0-2.54A4.69,4.69,0,0,0,30.79,17.59Z"/><path id="_Path_42" data-name="&lt;Path&gt;" d="M12.28,11.5a2.51,2.51,0,0,1,1.19-1.73c1-.53,1.91-1.18,3.12-.49A1.18,1.18,0,0,1,16,10.81c-.66.34-1.31.69-2,1.05A1.44,1.44,0,0,1,12.28,11.5Z"/><path id="_Path_43" data-name="&lt;Path&gt;" d="M23.11,9.52A1.66,1.66,0,0,1,24.78,9a7.11,7.11,0,0,1,2,1,1.77,1.77,0,0,1,.69,1.48,1.43,1.43,0,0,1-1.74.3c-.83-.41-1.61-.92-2.42-1.39C23.13,10.15,23.29,9.8,23.11,9.52Z"/><path id="_Path_44" data-name="&lt;Path&gt;" d="M27.37,28.11A1.76,1.76,0,0,1,26.43,30c-.41.21-.78.47-1.19.67a2.05,2.05,0,0,1-2-.11,7.32,7.32,0,0,1,0-.95c.33-.52.91-.69,1.39-1s.89-.4,1.3-.66a.86.86,0,0,1,1,0A2,2,0,0,0,27.37,28.11Z"/><path id="_Path_45" data-name="&lt;Path&gt;" d="M15,30.86c-1.13-.64-2.41-1-2.63-2.5a1.16,1.16,0,0,1,1.18-.56,4,4,0,0,1,1,.42c.57.36,1.16.69,1.78,1a1.59,1.59,0,0,1,.31,1.27A2.83,2.83,0,0,1,15,30.86Z"/></g></g></svg>