<svg xmlns="http://www.w3.org/2000/svg" class="HeroAbility-icon HeroAbility-icon--hoverState" viewBox="0 0 40 40" preserveAspectRatio="xMidYMid meet"><g id="_Group_36" data-name="&lt;Group&gt;"><path id="_Path_46" data-name="&lt;Path&gt;" d="M16.61,23.19A16.34,16.34,0,0,1,15,23.12a28.73,28.73,0,0,0-3.5-.25l-2.36-.06-1.06,0c-.23,0-.47.07-.72.06-.67,0-1.33-.12-2-.2-1-.13-2-.18-3.08-.25L.52,22.25c-.15,0-.18-.07-.17-.2a5,5,0,0,1,.9-2.11c.08-.12.45-.1.5,0s.13.16.16.25c.17.51.59.41,1,.4.09,0,.14-.07.18-.14s.08-.15.13-.22A.5.5,0,0,1,3.65,20c1.17,0,2.33,0,3.5,0l.79,0a.27.27,0,0,1,.28.15c.06.11.15.21.21.32a.51.51,0,0,0,.56.29c.21,0,.37,0,.46-.26a.64.64,0,0,1,.76-.41c.31,0,.63,0,.94,0a1.93,1.93,0,0,1,1.1.53A7,7,0,0,0,14.67,22a4.65,4.65,0,0,1,1.41.65c.22.15.34.4.56.55Z"/><path id="_Path_47" data-name="&lt;Path&gt;" d="M10.81,17.83H9.89c-.22,0-.32-.18-.4-.32-.2-.37-.54-.26-.83-.25s-.27.23-.34.39a.59.59,0,0,1-.64.4c-.46,0-.93.05-1.39,0s-1,0-1.56,0S4,18,3.57,18a.33.33,0,0,1-.36-.21.54.54,0,0,0-.63-.36.75.75,0,0,0-.78.68.15.15,0,0,1,0,0,.79.79,0,0,1-.55,0,9.38,9.38,0,0,1-.81-1.63C.3,16.07.29,16.06.82,16c.92-.06,1.84-.1,2.76-.22.58-.08,1.16-.14,1.74-.18.32,0,.64,0,1,0,.6,0,1.21,0,1.82-.07s1.16,0,1.74-.11c.19,0,.39.05.57,0,.85-.08,1.7-.05,2.55-.12.47,0,.94,0,1.4-.11a9,9,0,0,1,1.9,0c.07,0,.18,0,.2.06a.22.22,0,0,1-.11.22,2.3,2.3,0,0,1-.59.31c-.74.26-1.48.48-2.21.76a3,3,0,0,0-1,.62,2.37,2.37,0,0,1-1.21.73A1.43,1.43,0,0,1,10.81,17.83Z"/><path id="_Path_48" data-name="&lt;Path&gt;" d="M20.14,19.91c0,.49.06,1,.07,1.48s0,.45-.4.4a32.34,32.34,0,0,0-3.6,0,1.34,1.34,0,0,1-1-.37c-.27-.26-.56-.5-.86-.74a.22.22,0,0,1-.06-.34,17.57,17.57,0,0,1,1.42-2,.23.23,0,0,0,0-.32,10,10,0,0,1-.41-1c-.06-.13.05-.16.13-.2l.95-.4.59-.26a.19.19,0,0,1,.23,0l2,1.71a.48.48,0,0,1,.16.36,1.17,1.17,0,0,0,.31.77,6.68,6.68,0,0,1,.4.61C20.17,19.73,20.13,19.82,20.14,19.91Z"/><path id="_Compound_Path_3" data-name="&lt;Compound Path&gt;" d="M26.94,19.58l0,.15a.09.09,0,0,0,.1.09c.07,0,.1,0,.1-.11,0-.37.07-.74.09-1.11,0-.13,0-.26,0-.38a.89.89,0,0,1,.4-.72,1.26,1.26,0,0,0,.22-.23s.06-.07,0-.11-.09,0-.13,0-.34.26-.52.38a5.19,5.19,0,0,1,1.19-1,8.16,8.16,0,0,0,1.35-.91,1.25,1.25,0,0,1,.67-.25,16,16,0,0,1,1.71-.05.5.5,0,0,1,.42.24c.42.59.72,1.26,1.11,1.86a.52.52,0,0,1,0,.59c-.43.73-.85,1.46-1.28,2.18a1,1,0,0,1-.92.52c-.63,0-1.27.07-1.9.11-.16,0-.33,0-.43-.15s-.07-.05-.13,0l-1.1.14a.26.26,0,0,1-.28-.1A.89.89,0,0,0,27,20.3c-.1,0-.25,0-.23-.16S26.71,19.74,26.94,19.58Zm1-1.79a.42.42,0,0,0,.44.43c.68,0,1.36.06,2,.13a.21.21,0,0,0,.18-.05c.23-.2.46-.38.67-.6a.35.35,0,0,0,.11-.31c-.05-.5-.1-1-.15-1.49a.4.4,0,0,0-.42-.42,1,1,0,0,0-.77.2,22.22,22.22,0,0,0-1.83,1.68C28.06,17.47,27.9,17.6,27.92,17.79Z"/><path id="_Compound_Path_4" data-name="&lt;Compound Path&gt;" d="M25.89,23.1l.17.09a.26.26,0,0,0,.32,0,1.61,1.61,0,0,0,.38-.59c0-.13,0-.22-.11-.28s-.17-.17-.12-.31c.1-.31.26-.59.39-.88A.21.21,0,0,1,27.1,21c.63-.07,1.26-.19,1.9-.2a.29.29,0,0,1,.24.1l.68.74a.13.13,0,0,1,0,.17,1,1,0,0,0-.12.25c-.18.75-.84.68-1.38.78-.1,0-.16,0-.19.13a5.88,5.88,0,0,1-.77,1.38,2.5,2.5,0,0,0-.44,1.33.5.5,0,0,1-.31.5c-.35.15-.67.34-1,.52a.2.2,0,0,1-.27,0c-.32-.28-.65-.55-1-.82a.57.57,0,0,1-.21-.64,3,3,0,0,1,.11-.41.62.62,0,0,0-.15-.71c-.08-.09-.15-.18,0-.3s.17-.33.39-.24a.14.14,0,0,0,.18,0c.11-.09.26,0,.39-.06a3,3,0,0,1,.43,0c.22,0,.31-.1.31-.31Zm-.24,3.19s0,0,.06,0a1.73,1.73,0,0,1,.6-.31c.11,0,.15-.08.14-.22s-.12-.55.21-.72c.08,0,0-.12,0-.16a2,2,0,0,1-.29-.42c-.09-.17-.19-.17-.34-.08a3.1,3.1,0,0,1-.84.46.3.3,0,0,0-.25.38,3.38,3.38,0,0,1,0,.34c0,.13-.05.3.07.38A1.79,1.79,0,0,0,25.65,26.29Z"/><path id="_Path_49" data-name="&lt;Path&gt;" d="M37.3,17.13c0-.38-.06-.77-.08-1.15a.2.2,0,0,0-.09-.16l-.44-.37a.14.14,0,0,1-.06-.19v0c.09-.22.14-.53.33-.6s.48.11.73.18c.08,0,.1.1.13.16L39.1,17.7c.1.21,0,.4-.07.59s-.19.67-.27,1a.35.35,0,0,1-.29.3c-.78.23-1.55.48-2.33.73l-1.38.43a1.68,1.68,0,0,1-.49,0c-.07,0-.09-.06-.11-.12a4.18,4.18,0,0,0-.47-.92.22.22,0,0,1,0-.12A1.41,1.41,0,0,1,34.2,19a1,1,0,0,1,1,.13.33.33,0,0,0,.3,0,6.84,6.84,0,0,0,1.42-.54.78.78,0,0,0,.39-.67c0-.26,0-.53,0-.79Z"/><path id="_Path_50" data-name="&lt;Path&gt;" d="M20.87,25.45a1.64,1.64,0,0,0,.47.8c.26.31.27.3-.06.55-.12.09-.23.2-.35.28a.35.35,0,0,1-.48,0q-.76-.65-1.54-1.28a.18.18,0,0,1-.06-.25,1.11,1.11,0,0,1,.22-.32,27.29,27.29,0,0,0,2.58-3,.22.22,0,0,1,.27-.11,7.87,7.87,0,0,0,1.11.22.24.24,0,0,1,.23.21c.08.36.18.72.28,1.08a.32.32,0,0,1-.07.34l-.81.83a.22.22,0,0,1-.25.06,2.12,2.12,0,0,0-1-.07A.59.59,0,0,0,20.87,25.45Z"/><path id="_Path_51" data-name="&lt;Path&gt;" d="M20.23,23.75c-.06-.33-.12-.65-.17-1a3.15,3.15,0,0,0-.18-.68c-.05-.13,0-.16.12-.16s.33.12.35-.16c0,0,.06,0,.09,0s.17,0,.23-.06a1.31,1.31,0,0,0,.22-.44c0-.06-.06-.09-.09-.14s-.16-.16-.12-.3c.09-.33.18-.38.46-.19.86.57,1.76,1.06,2.65,1.57a3.91,3.91,0,0,0,.46.22.35.35,0,0,1,.24.32c0,.14,0,.27,0,.4s.05.23-.16.21-.4.48-.34.61,0,.18-.08.23a.23.23,0,0,0-.15.22,1.93,1.93,0,0,0,0,.51c0,.06,0,.13.09.16s.17.21.2.36a.36.36,0,0,1-.2.43c-.22.14-.4.37-.71.32a1.42,1.42,0,0,1-.5-.27c-.06,0,0-.09,0-.13.21-.38.21-.38-.1-.66-.11-.1,0-.16,0-.21a9.11,9.11,0,0,1,.65-.65.69.69,0,0,0,.26-.91,3.51,3.51,0,0,1-.25-1c0-.08,0-.14-.15-.14A5.32,5.32,0,0,1,21.86,22a.2.2,0,0,0-.27.11A18.63,18.63,0,0,1,20.3,23.7Z"/><path id="_Path_52" data-name="&lt;Path&gt;" d="M37.16,17.15c0,.19,0,.39,0,.58a.79.79,0,0,1-.53.86c-.33.15-.67.27-1,.39a.46.46,0,0,1-.45,0A1.2,1.2,0,0,0,34,18.87c-.16,0-.21.26-.31.4a.26.26,0,0,1-.48,0c0-.08,0-.12,0-.17.14-.31.41-.56.54-.87a1.15,1.15,0,0,1,.77-.64l1.08-.39a.37.37,0,0,0,.28-.26,2.33,2.33,0,0,1,.14-.33c0-.07.06-.14.15-.17a3.76,3.76,0,0,0,.67-.28c.14-.07.2,0,.21.12,0,.31,0,.61.06.92Z"/><path id="_Path_53" data-name="&lt;Path&gt;" d="M29.68,21.12a1.72,1.72,0,0,0,1.47.27.78.78,0,0,0,.58-.44.28.28,0,0,1,.24-.16.82.82,0,0,0,.51-.38c.18-.28.34-.56.49-.86s.2-.19.34-.06a2.69,2.69,0,0,1,.55.78,8.44,8.44,0,0,1,.42,1.15c0,.09.07.24,0,.29a.34.34,0,0,1-.4,0,.46.46,0,0,0-.48-.13,2.11,2.11,0,0,1-.4,0,.5.5,0,0,0-.39.18,1.24,1.24,0,0,1-1.3.25,2,2,0,0,0-.54-.15A1.48,1.48,0,0,1,29.68,21.12Z"/><path id="_Path_54" data-name="&lt;Path&gt;" d="M15.8,21.93a5.52,5.52,0,0,1,.65,0,2,2,0,0,1,1.21.2,5.42,5.42,0,0,1,.81.43c.07.06.13,0,.2,0s.22,0,.31.12a.85.85,0,0,1,0,1c-.15.26-.3.53-.44.8-.06.11-.13.1-.21.07l-.9-.39a.28.28,0,0,1-.13-.16c-.15-.35-.35-.67-.47-1a1.46,1.46,0,0,0-.67-.75A1.23,1.23,0,0,1,15.8,21.93Z"/><path id="_Path_55" data-name="&lt;Path&gt;" d="M20.21,17c.13,0,.12.1.13.16a2.79,2.79,0,0,0,.55,1.15,7.24,7.24,0,0,0,.63.63,2.56,2.56,0,0,1,.4.68s0,.09,0,.13-.18.29-.25.45-.11.15-.22.08a3.17,3.17,0,0,0-.71-.3.7.7,0,0,1-.46-.38,4.49,4.49,0,0,0-.57-.86.37.37,0,0,1-.08-.17,9.65,9.65,0,0,1-.1-1.06.18.18,0,0,1,0-.12C19.69,17.16,20,17.12,20.21,17Z"/><path id="_Path_56" data-name="&lt;Path&gt;" d="M22,19.3l.79.48a2.12,2.12,0,0,1,.8.92c.09.19.31.2.46.29.63.37,1.25.78,1.87,1.17a3.7,3.7,0,0,0,.37.21.22.22,0,0,1,.1.36c-.16.26-.17.28-.38.16l-2-1.11c-.2-.11-.4-.22-.61-.31a.55.55,0,0,1-.35-.34,1.22,1.22,0,0,0-.67-.68l-.41-.19c-.1,0-.13-.09-.06-.19s.29-.46,0-.74Z"/><path id="_Path_57" data-name="&lt;Path&gt;" d="M16.17,14.9l.68-.32a1.84,1.84,0,0,0,.29-.13.48.48,0,0,1,.65.07l.52.44a.33.33,0,0,1,.14.31.21.21,0,0,0,0,.16c0,.06.1.14,0,.16s-.19.05-.22-.09,0-.14,0-.21-.08-.2-.2-.19-.25.1-.23.21c.06.44-.33.43-.56.57a18.49,18.49,0,0,1-1.94.89.22.22,0,0,0-.12.31l.29.74c0,.12,0,.18-.11.18a.85.85,0,0,1-.57-.22.88.88,0,0,1-.32-1,.36.36,0,0,1,.3-.3A7.2,7.2,0,0,0,16,16a1.52,1.52,0,0,0,.81-.81c.08-.18,0-.22-.15-.23l-.51,0Z"/><path id="_Path_58" data-name="&lt;Path&gt;" d="M21.4,18a4,4,0,0,1,1,.33A12.1,12.1,0,0,1,25,20a1.59,1.59,0,0,1,.35.28c0,.05.1.13,0,.17s-.12.2-.05.34a.22.22,0,0,1,0,.2c-.06.06-.12,0-.18-.07-.6-.38-1.17-.79-1.79-1.14L21.89,19a3,3,0,0,1-.82-.71c-.05-.06,0-.09,0-.14A.39.39,0,0,1,21.4,18Z"/><path id="_Path_59" data-name="&lt;Path&gt;" d="M31.72,23.44a1.09,1.09,0,0,0,0-1c-.06-.15,0-.19.12-.2L34.11,22c.19,0,.22.09.17.21a2.72,2.72,0,0,1-.51.93,1,1,0,0,1-.63.21c-.42,0-.85.08-1.27.14Z"/><path id="_Path_60" data-name="&lt;Path&gt;" d="M19.1,24.89c0-.07,0-.17,0-.26a.25.25,0,0,0-.06-.22c-.22-.16-.11-.32,0-.48s.14-.33.23-.48a.61.61,0,0,0,0-.68.51.51,0,0,1-.07-.11c-.08-.28-.23-.41-.53-.27a1.53,1.53,0,0,1-.61-.32c0-.09,0-.17.1-.18a5.62,5.62,0,0,1,1.45,0c.09,0,.11.08.14.14A6,6,0,0,1,20,23.32a.91.91,0,0,1-.34,1.06C19.48,24.54,19.3,24.72,19.1,24.89Z"/><path id="_Path_61" data-name="&lt;Path&gt;" d="M31.85,14.55a17.59,17.59,0,0,1,1.29-1.2,1.32,1.32,0,0,1,1.11-.14c.55.13.55.12.27.61a1.4,1.4,0,0,0-.08.15.31.31,0,0,1-.42.2.44.44,0,0,0-.43.12,7.35,7.35,0,0,0-.75.7c-.08.09-.12.13-.18,0s-.4-.29-.62-.38Z"/><path id="_Path_62" data-name="&lt;Path&gt;" d="M12.82,17.7h.47c.16,0,.29,0,.4.21a1.13,1.13,0,0,1,.13.55.39.39,0,0,1-.16.34c-.16.11-.13.5,0,.63a.7.7,0,0,1,.06.84c-.09.09-.06.17,0,.26s0,.16-.12.16l-.51,0a.35.35,0,0,1-.34-.15l.62-.29c.13-.06.11-.13.1-.25,0-.33-.24-.4-.53-.42a6.69,6.69,0,0,1-.82-.13c-.18,0-.36-.44-.24-.56a.77.77,0,0,1,.38-.16c.32-.06.65-.11,1-.16h.11s.07-.07,0-.1.28-.38-.07-.52A1.47,1.47,0,0,1,12.82,17.7Z"/><path id="_Path_63" data-name="&lt;Path&gt;" d="M19.29,17.77s-.08-.06-.13-.1c-.61-.49-1.18-1-1.77-1.52-.1-.08-.12-.12,0-.21a1.24,1.24,0,0,1,.89-.21.7.7,0,0,0,.51-.14c.05,0,.08-.19.17-.11s.26.13.27.31,0,.3,0,.45C19.29,16.75,19.29,17.26,19.29,17.77Z"/><path id="_Path_64" data-name="&lt;Path&gt;" d="M36.75,14.67c-.09.22-.18.43-.28.64a1.1,1.1,0,0,1-.64.17,7.89,7.89,0,0,0-.85-.31c-.06,0-.08,0-.07-.1a.45.45,0,0,0-.53-.57.65.65,0,0,0-.32.1c-.14.1-.26.22-.46.19s-.09,0-.12.08a5,5,0,0,1-.56.59s-.07.12-.13.08-.06-.1-.07-.15,0-.15.09-.21a6.32,6.32,0,0,1,.85-.81c.16-.13.34-.07.51,0s.22,0,.24-.13.09-.16.22-.1c.6.28,1.28.3,1.89.54A.87.87,0,0,0,36.75,14.67Z"/><path id="_Path_65" data-name="&lt;Path&gt;" d="M15.46,18.47l-.07.11a14.52,14.52,0,0,0-1.24,1.77.18.18,0,0,1-.19.1c-.08,0-.13-.06,0-.12s.12-.26.1-.41,0-.25,0-.38a.23.23,0,0,0-.09-.18q-.33-.26,0-.52c.09-.07.08-.17.08-.26,0-.69.19-.58.67-.59s.55.26.81.42C15.44,18.43,15.44,18.45,15.46,18.47Z"/><path id="_Path_66" data-name="&lt;Path&gt;" d="M13,23.79h-.85a.77.77,0,0,1-.7-.65c0-.14.1-.1.16-.09l1.32.1,1.52.13c.22,0,.18.18.2.3s-.1.17-.21.17C13.9,23.74,13.39,23.84,13,23.79Z"/><path id="_Path_67" data-name="&lt;Path&gt;" d="M12.83,15.15l-1.21.09c-.06,0-.15,0-.18,0s.05-.11.09-.15a1.81,1.81,0,0,0,.27-.38c.06-.14.21-.14.31-.13.75,0,1.5,0,2.24,0a.44.44,0,0,1,.3.32c0,.1-.09.12-.17.13l-.47,0A10.84,10.84,0,0,1,12.83,15.15Z"/><path id="_Path_68" data-name="&lt;Path&gt;" d="M22,16.26c.14,0,.27,0,.36.17s.28.15.44.17a4,4,0,0,1,1,.34.11.11,0,0,1,.08.11.08.08,0,0,1-.09.07.18.18,0,0,0-.18.16c0,.19-.18.23-.29.32s-.15.12-.14.24,0,.1-.12.05a3.57,3.57,0,0,1-.68-.54,2.07,2.07,0,0,0-.35-.31.6.6,0,0,1-.27-.6C21.85,16.34,21.9,16.26,22,16.26Z"/><path id="_Path_69" data-name="&lt;Path&gt;" d="M24.65,18.19c.25,0,.38-.1.41-.32s.09-.21.23-.1a2.5,2.5,0,0,1,.6.6.55.55,0,0,0,.34.27.43.43,0,0,1,.29.34.22.22,0,0,1-.28.25,7.45,7.45,0,0,1-1.84-.6c-.11-.06-.19-.11,0-.18a.16.16,0,0,0,.1-.13C24.5,18.21,24.52,18.12,24.65,18.19Z"/><path id="_Path_70" data-name="&lt;Path&gt;" d="M32.56,15.24a1.54,1.54,0,0,0-.74-.09q-.82,0-1.65.06a.83.83,0,0,0-.5.22,6.07,6.07,0,0,1-1.24.91,1.91,1.91,0,0,1,.45-.75c.3-.22.63-.41.94-.61a1.28,1.28,0,0,1,.5-.16c.53-.09,1.07,0,1.6-.09A.56.56,0,0,1,32.56,15.24Z"/><path id="_Path_71" data-name="&lt;Path&gt;" d="M10.24,19.45a2.26,2.26,0,0,1-.74.13H9.44c-.3-.25-.66-.13-1-.16S8,19.28,8,19.06a.17.17,0,0,1,.09-.14A2.72,2.72,0,0,1,10,18.65l.07,0c-.3.07-.18.28-.18.44S10,19.44,10.24,19.45Z"/><path id="_Path_72" data-name="&lt;Path&gt;" d="M27.58,20.72c0,.07-.06.07-.1.07a1.17,1.17,0,0,1-.32,0c-.21,0-.3.07-.37.25s-.28.56-.37.86c0,.12-.08.15-.19.07l-.57-.38c-.12-.08-.13-.17,0-.25a2.17,2.17,0,0,0,.51-.59c.11-.17.25-.39.56-.31.11,0,.27-.06.42,0a.75.75,0,0,1,.39.2Z"/><path id="_Path_73" data-name="&lt;Path&gt;" d="M20.34,15.21a2.59,2.59,0,0,1,.81.22c.26.13.4.41.61.61,0,0,0,.11,0,.16a.68.68,0,0,0-.09.49c0,.14,0,.34-.13.38s-.21-.15-.27-.28a1.21,1.21,0,0,0-.37-.59s-.08-.1-.14-.08-.17-.07-.18-.17A1.85,1.85,0,0,0,20.34,15.21Z"/><path id="_Path_74" data-name="&lt;Path&gt;" d="M4.15,22.64a.25.25,0,0,1-.23.12l-.77.09a.66.66,0,0,0-.43.23.44.44,0,0,1-.46.17,9.11,9.11,0,0,0-.93-.08.54.54,0,0,1-.46-.28c-.08-.12-.19-.23-.29-.34s-.08-.08,0-.13a.1.1,0,0,1,.14,0,1.07,1.07,0,0,1,.14.16.46.46,0,0,0,.44.21,4.23,4.23,0,0,1,.75,0,.27.27,0,0,0,.26-.12c.06-.07.11-.15.22-.15C3,22.54,3.59,22.59,4.15,22.64Z"/><path id="_Path_75" data-name="&lt;Path&gt;" d="M20.31,20.48c0-.11,0-.21,0-.32s0-.19.19-.13a5.05,5.05,0,0,1,.92.4c.08.05.18.08.24,0s.22,0,.31,0l.65.45a.52.52,0,0,1,.24.37c0,.1,0,.17-.15.1a13.54,13.54,0,0,1-1.65-1c-.12-.08-.18-.07-.27,0a.56.56,0,0,0-.09.78c.08.11,0,.4-.15.42s-.18,0-.18-.17c0-.31,0-.63,0-.94Z"/><path id="_Path_76" data-name="&lt;Path&gt;" d="M31,22.25c0,.31-.07.38-.31.4l-.8.11c-.12,0-.17.06-.17.18s-.07.22-.23.23-.49.07-.74.1-.24.06-.27-.07,0-.24.2-.27a3.57,3.57,0,0,1,.87-.12c.07,0,.12,0,.14-.09s.09-.16.12-.25c.18-.5.34-.57.95-.48C30.9,22,31,22.14,31,22.25Z"/><path id="_Path_77" data-name="&lt;Path&gt;" d="M3.61,15.65l-.39.05c-.2,0-.4,0-.6.07s-.37,0-.47-.18a.25.25,0,0,0-.28-.11l-.73.06a.43.43,0,0,0-.28.18c-.08.08-.15.2-.32.16a4,4,0,0,1,.51-.63.37.37,0,0,1,.21-.09l1.17-.09a.29.29,0,0,1,.24.06,1.46,1.46,0,0,0,.94.46Z"/><path id="_Path_78" data-name="&lt;Path&gt;" d="M19.41,16c0-.09,0-.13,0-.16s0-.15.08-.16.12,0,.14.12a2.11,2.11,0,0,1,.11.67c0,.06,0,.14.07.16a.15.15,0,0,0,.17-.11.43.43,0,0,0,0-.29c0-.1,0-.2-.06-.29a.67.67,0,0,1,.19-.63c.07-.09.11,0,.14,0a.65.65,0,0,1,.11.49,5.82,5.82,0,0,0-.16.93.11.11,0,0,1,0,.09c-.2.1-.4.19-.61.27s-.11-.08-.11-.14C19.43,16.66,19.45,16.32,19.41,16Z"/><path id="_Path_79" data-name="&lt;Path&gt;" d="M7.44,18.22a1.13,1.13,0,0,1-.76.27c-1,0-2,0-3.06,0H3.4a.17.17,0,0,1-.15-.18c0-.08.1-.05.16-.06.69,0,1.38,0,2.07,0l1.64-.06A.49.49,0,0,1,7.44,18.22Z"/><path id="_Path_80" data-name="&lt;Path&gt;" d="M2.5,19.46a.35.35,0,0,1,.48.27c0,.13.26.2.14.38s-.27.41-.58.38S2.1,20.4,2,20.1a.7.7,0,0,1,.17-.59C2.23,19.4,2.39,19.48,2.5,19.46Z"/><path id="_Path_81" data-name="&lt;Path&gt;" d="M11.33,18.13c.26-.09.53,0,.76-.18a2,2,0,0,0,.18-.12.29.29,0,0,1,.32-.07c.2.08.4.18.6.27s.06.1,0,.16,0,.22-.15.25l-.53.09a1.91,1.91,0,0,0-.52.12s-.08,0-.12,0a.11.11,0,0,1,0-.1c.11-.18,0-.24-.15-.28Z"/><path id="_Path_82" data-name="&lt;Path&gt;" d="M11.44,20l.32-.13c.06,0,.14-.07.15-.11,0-.25.18-.17.32-.15.29,0,.58.11.87.14s.18.18.22.3-.08.13-.15.17a4.37,4.37,0,0,1-.41.17.41.41,0,0,1-.4-.05A1.91,1.91,0,0,0,11.44,20Z"/><path id="_Path_83" data-name="&lt;Path&gt;" d="M2.47,18.64c-.29,0-.48-.24-.47-.58,0-.18.31-.44.52-.45s.61.18.6.45a.92.92,0,0,1-.26.5C2.76,18.67,2.57,18.55,2.47,18.64Z"/><path id="_Path_84" data-name="&lt;Path&gt;" d="M8.94,20.56c-.2,0-.63-.36-.63-.52s.3-.51.38-.49.42-.06.57.1a.84.84,0,0,1,.24.45C9.54,20.28,9.18,20.56,8.94,20.56Z"/><path id="_Path_85" data-name="&lt;Path&gt;" d="M22,26.45l-.3-.21c-.23-.16-.24-.18-.08-.42a4.46,4.46,0,0,1,.51-.6.38.38,0,0,1,.49.08.23.23,0,0,1,0,.35,4.21,4.21,0,0,0-.53.72A.14.14,0,0,1,22,26.45Z"/><path id="_Path_86" data-name="&lt;Path&gt;" d="M23.13,18.58s.09,0,.11-.08,0-.23.19-.15.35.11.22.35c0,0,0,.1,0,.12s.13,0,.14,0c0-.24.14-.13.24-.07a.34.34,0,0,1,.19.33s0,.12.06.13.07-.06.07-.11.08-.11.15-.06a5.68,5.68,0,0,1,.68.55.45.45,0,0,1,.1.18c0,.09,0,.21,0,.26s-.13-.06-.19-.1A16.54,16.54,0,0,0,23.13,18.58Z"/><path id="_Path_87" data-name="&lt;Path&gt;" d="M12.68,17.54a2.64,2.64,0,0,1,.83-.58c.22-.1.45-.17.68-.26s.14,0,.12.1a1.42,1.42,0,0,0,0,.51c0,.19-.18.22-.27.23A6.15,6.15,0,0,1,12.68,17.54Z"/><path id="_Path_88" data-name="&lt;Path&gt;" d="M9,18.47c-.13-.07-.3.05-.41-.08s-.23-.26-.21-.38a.94.94,0,0,1,.27-.47c.11-.11.3,0,.45-.06s.46.29.42.39a3.9,3.9,0,0,1-.31.55C9.16,18.49,9.07,18.45,9,18.47Z"/><path id="_Path_89" data-name="&lt;Path&gt;" d="M11.63,18.38c-.31,0-.63,0-.94.09-.11,0-.23,0-.3.11s-.1,0-.16,0l-.58-.14c-.07,0-.21.06-.2-.08s.05-.26.2-.27a3.1,3.1,0,0,1,1.33.07Z"/><path id="_Path_90" data-name="&lt;Path&gt;" d="M18.72,14.48c-.24,0-.5-.18-.51-.34a.83.83,0,0,1,.55-.64c.2,0,.42.28.42.55A.45.45,0,0,1,18.72,14.48Z"/><path id="_Path_91" data-name="&lt;Path&gt;" d="M18.95,15.06a.88.88,0,0,0,.61-.44c.06-.11.14-.09.2,0a1.94,1.94,0,0,1,.18.29c.15.3.08.51-.2.63a.51.51,0,0,1-.72-.29Z"/><path id="_Path_92" data-name="&lt;Path&gt;" d="M27.12,18.52a1.48,1.48,0,0,1-.13.76c-.08.2-.25.2-.4.21s-.14-.11-.05-.2a.38.38,0,0,0,.08-.47.2.2,0,0,1,.07-.27.45.45,0,0,0,.2-.36.17.17,0,0,1,.2-.17c.15,0,.06.13.06.2A2.58,2.58,0,0,1,27.12,18.52Z"/><path id="_Path_93" data-name="&lt;Path&gt;" d="M11.81,19.61a.33.33,0,0,1-.23.19,3.84,3.84,0,0,1-1.87.14c-.1,0-.17-.07-.16-.16s.11-.05.17-.07l.23,0C10.55,19.56,11.16,19.75,11.81,19.61Z"/><path id="_Path_94" data-name="&lt;Path&gt;" d="M13.23,20.85a1,1,0,0,1,.8.08,2.47,2.47,0,0,0,.31.19s.11.06.14,0c.22-.14.32,0,.45.15a3.45,3.45,0,0,1,.45.44c-.2-.08-.4-.15-.59-.25a3,3,0,0,0-.65-.21A4.11,4.11,0,0,1,13.23,20.85Z"/><path id="_Path_95" data-name="&lt;Path&gt;" d="M21.68,25c.1,0,.28,0,.34.08s-.12.19-.2.28a4,4,0,0,0-.38.49s0,.11-.13.05a.56.56,0,0,1-.11-.77C21.31,25,21.37,25,21.68,25Z"/><path id="_Path_96" data-name="&lt;Path&gt;" d="M2.8,23.23A.47.47,0,0,1,3.2,23L4,22.89c.12,0,.23,0,.29-.15a.12.12,0,0,1,.12-.07,3.82,3.82,0,0,1,1,.16Z"/><path id="_Path_97" data-name="&lt;Path&gt;" d="M7.82,18.73a1.16,1.16,0,0,1-.42,0c-.08,0-.12-.08-.05-.13.22-.19.4-.46.76-.39.12,0,.37.28.33.39s-.17.15-.28.16A2.42,2.42,0,0,1,7.82,18.73Z"/><path id="_Path_98" data-name="&lt;Path&gt;" d="M23.57,20.09l.55.34,1,.64a.38.38,0,0,1,.14.12.13.13,0,0,1,0,.14c0,.06-.09,0-.13,0L24,20.68A1,1,0,0,1,23.57,20.09Z"/><path id="_Path_99" data-name="&lt;Path&gt;" d="M25.89,23.1c-.3.3-.69.15-1,.21s-.12-.17-.14-.27,0-.22.12-.22a1.63,1.63,0,0,1,1.06.28Z"/><path id="_Path_100" data-name="&lt;Path&gt;" d="M11.29,18.55h.15c.31,0,.31,0,.28.32,0,.13-.06.18-.18.17h-.41c-.16,0-.26,0-.25-.21s-.11-.12-.2-.12-.1,0-.1,0,.05-.06.09-.07A3,3,0,0,1,11.29,18.55Z"/><path id="_Path_101" data-name="&lt;Path&gt;" d="M21.7,17.95a.23.23,0,0,1,.18-.13.86.86,0,0,1,.74.27c0,.06.08,0,.1,0s.21,0,.3.06.14.11.06.21-.09.17-.23.09A10.25,10.25,0,0,0,21.7,17.95Z"/><path id="_Path_102" data-name="&lt;Path&gt;" d="M10.8,23c.44,0,.5.09.62.47,0,.13,0,.15-.11.12a1.1,1.1,0,0,1-.74-.44s-.07-.07-.06-.1.08,0,.13,0Z"/><path id="_Path_103" data-name="&lt;Path&gt;" d="M20.17,15.06l-.25-.47c0-.09,0-.09.08-.12a.92.92,0,0,1,1,.39.66.66,0,0,1,.13.35c-.23,0-.26-.2-.34-.32a.58.58,0,0,0-.47-.23c-.2,0-.24,0-.18.23S20.22,15,20.17,15.06Z"/><path id="_Path_104" data-name="&lt;Path&gt;" d="M36,15.63a.6.6,0,0,1,.88.17c.07.08.06.12,0,.17-.35.19-.35.2-.64-.1C36.16,15.8,36.1,15.71,36,15.63Z"/><path id="_Path_105" data-name="&lt;Path&gt;" d="M11.27,19.18h.33c.13,0,.16.08.17.2s-.09.13-.17.14l-.87,0s-.1,0-.11,0,.06-.06.1-.07.09,0,.09,0C10.85,19.09,11.1,19.21,11.27,19.18Z"/><path id="_Path_106" data-name="&lt;Path&gt;" d="M7.8,19.53a2,2,0,0,1,.37,0c.05,0,.15,0,.15.06a.19.19,0,0,1-.13.2,2.38,2.38,0,0,1-.74,0,.18.18,0,0,1-.14-.19c0-.1.1-.06.15-.09S7.65,19.55,7.8,19.53Z"/><path id="_Path_107" data-name="&lt;Path&gt;" d="M4.84,15.48A2.53,2.53,0,0,1,3,15.21Z"/><path id="_Path_108" data-name="&lt;Path&gt;" d="M10.58,15.25c.16-.39.5-.39.78-.49.1,0,.1.07.05.14s-.23.34-.49.32A2,2,0,0,0,10.58,15.25Z"/><path id="_Path_109" data-name="&lt;Path&gt;" d="M4.83,18.62H5c.08,0,.22,0,.22.09S5.22,19,5,19s-.44.07-.56-.21c0-.12,0-.15.09-.15Z"/><path id="_Path_110" data-name="&lt;Path&gt;" d="M31.58,22.4a1,1,0,0,1,.12.79c0,.09-.1.18-.18.09s-.32-.07-.19-.27A1.61,1.61,0,0,0,31.58,22.4Z"/><path id="_Path_111" data-name="&lt;Path&gt;" d="M32.56,22a.49.49,0,0,1,.41-.28l.49,0a.24.24,0,0,1,.2,0s.07.07.07.1-.06.05-.1.06Z"/><path id="_Path_112" data-name="&lt;Path&gt;" d="M1.29,22.68H1.17c-.11,0-.24-.09-.22-.19s.15,0,.24,0l.85.06c.06,0,.16,0,.15.07s-.08.13-.17.12A2.75,2.75,0,0,0,1.29,22.68Z"/><path id="_Path_113" data-name="&lt;Path&gt;" d="M34.07,14.79a.47.47,0,0,1,.71,0,.21.21,0,0,1,0,.22c0,.09-.15.1-.23.14s-.05,0-.07-.06A.5.5,0,0,0,34.07,14.79Z"/><path id="_Path_114" data-name="&lt;Path&gt;" d="M31.09,22.26s0-.11,0-.14.11,0,.16.05a.43.43,0,0,1,.09.47c0,.15-.15.17-.28.19s-.16,0-.1-.15A.87.87,0,0,0,31.09,22.26Z"/><path id="_Path_115" data-name="&lt;Path&gt;" d="M10.35,18.85c.31,0,.37.06.35.28,0,0,0,.09,0,.1a.63.63,0,0,1-.46,0c-.11,0-.11-.21-.1-.3S10.28,18.88,10.35,18.85Z"/><path id="_Path_116" data-name="&lt;Path&gt;" d="M23.94,24.62s0-.07,0-.09,0-.2.12-.25.11-.05.16,0a.32.32,0,0,1,.08.3l-.1.33s0,.11-.08.11a.14.14,0,0,1-.13-.09A.78.78,0,0,1,23.94,24.62Z"/><path id="_Path_117" data-name="&lt;Path&gt;" d="M19.42,14a.56.56,0,0,1-.1.65.51.51,0,0,1-.76,0C19.12,14.76,19.17,14.73,19.42,14Z"/><path id="_Path_118" data-name="&lt;Path&gt;" d="M.95,15.87c.05-.12.12-.18.22-.19l.7-.06.12,0a.12.12,0,0,1,.09.11c0,.07-.07.06-.11.06Z"/><path id="_Path_119" data-name="&lt;Path&gt;" d="M20.68,16.89c0-.21.06-.32.21-.3s.19.23.2.36-.19.16-.29.16S20.71,16.95,20.68,16.89Z"/><path id="_Path_120" data-name="&lt;Path&gt;" d="M30.27,20.83h.86a.09.09,0,0,1,.07,0s0,.06,0,.08A.7.7,0,0,1,30.27,20.83Z"/><path id="_Path_121" data-name="&lt;Path&gt;" d="M25.49,21c0-.09-.06-.27.08-.26a.42.42,0,0,1,.34.21c0,.05-.25.34-.32.32S25.54,21,25.49,21Z"/><path id="_Path_122" data-name="&lt;Path&gt;" d="M20.71,17.7a.93.93,0,0,1-.21-.47c0-.33-.26-.65,0-1A7.72,7.72,0,0,0,20.71,17.7Z"/><path id="_Path_123" data-name="&lt;Path&gt;" d="M5.19,19.83a1.73,1.73,0,0,1-.56,0,.08.08,0,0,1-.06,0,.06.06,0,0,1,.05-.08C4.81,19.73,5,19.67,5.19,19.83Z"/><path id="_Path_124" data-name="&lt;Path&gt;" d="M25.89,19.32a.5.5,0,0,1,.3.05s.13,0,.1.1-.09.07-.14.06A.26.26,0,0,1,25.89,19.32Z"/><path id="_Path_125" data-name="&lt;Path&gt;" d="M26.42,18.56a.37.37,0,0,1,.29-.29A.42.42,0,0,1,26.42,18.56Z"/><path id="_Path_126" data-name="&lt;Path&gt;" d="M14.08,17.73c0,.14-.07.18-.15.18a.12.12,0,0,1-.13-.11c0-.09,0-.11.12-.11S14.07,17.66,14.08,17.73Z"/><path id="_Path_127" data-name="&lt;Path&gt;" d="M18.1,15.55s0,0-.06,0-.06,0,0,0,0,0,.07,0S18.1,15.52,18.1,15.55Z"/><path id="_Path_128" data-name="&lt;Path&gt;" d="M30.09,18.17l-1.56-.09c-.09,0-.2,0-.23-.11a.28.28,0,0,1,.09-.29A12.67,12.67,0,0,1,30,16.18a2.37,2.37,0,0,1,.62-.45c.27-.1.46,0,.49.28,0,.44.08.88.13,1.32a.33.33,0,0,1-.09.29,4.11,4.11,0,0,1-.55.48C30.42,18.22,30.23,18.15,30.09,18.17Z"/><path id="_Path_129" data-name="&lt;Path&gt;" d="M25.06,25.32c-.11-.29.13-.37.35-.48a4.76,4.76,0,0,0,.6-.36c.13-.09.2-.06.27.07s.11.18.17.27.06.08,0,.11c-.22.16-.15.4-.16.61a.35.35,0,0,1-.23.36,1.17,1.17,0,0,0-.42.2s-.1,0-.16,0C25.13,25.95,25,25.77,25.06,25.32Z"/></g></svg>