<svg xmlns="http://www.w3.org/2000/svg" class="HeroAbility-icon HeroAbility-icon--hoverState" viewBox="0 0 40 40" preserveAspectRatio="xMidYMid meet"><g id="_Group_5" data-name="&lt;Group&gt;"><path id="_Compound_Path_2" data-name="&lt;Compound Path&gt;" d="M25.05,13.69c.16,0,.31,0,.45,0a1,1,0,0,1,.64.29,1.86,1.86,0,0,1,1,1.26,4.56,4.56,0,0,0,.27.62c.35.68.7,1.36,1.12,2a2.31,2.31,0,0,0,.82.82.34.34,0,0,1,.11.1.2.2,0,0,0,.22.1.45.45,0,0,1,.45.19c.11.14.31.21.29.43a1.54,1.54,0,0,1,.25,0,.23.23,0,0,1,.2.33c-.15.37-.21.41-.61.41h-3a.47.47,0,0,0-.53.36.6.6,0,0,1-.09.19.73.73,0,0,0,.1,1,2.93,2.93,0,0,0,.53.56,5.3,5.3,0,0,1,1.52,1.92c.18.37.41.72.57,1.11a1.22,1.22,0,0,1,.12.5.25.25,0,0,0,0,.13,2.75,2.75,0,0,1,.19,1,4.11,4.11,0,0,1-.19,1.74,1.54,1.54,0,0,0,0,.34.33.33,0,0,1-.31.31c-.07,0-.09,0-.08-.1s0-.33,0-.49a15,15,0,0,1,.06-1.56.27.27,0,0,0-.09-.28c-.09-.07-.09-.2-.09-.28s-.05-.43-.07-.64a1.58,1.58,0,0,0-.28-1,1.45,1.45,0,0,1-.2-.36,4,4,0,0,0-1-1.22.59.59,0,0,0-.89.11l-.3.48a1.63,1.63,0,0,0-.21.68c0,.25,0,.5,0,.75s-.23.42-.51.27a10.74,10.74,0,0,0-2-.84,1,1,0,0,0-.28,0,9.56,9.56,0,0,1-1.09,0,4.47,4.47,0,0,0-1.38.16.42.42,0,0,1-.52-.22,8.67,8.67,0,0,1-.64-1,1.07,1.07,0,0,1-.09-.87c0-.06,0-.12,0-.17a.36.36,0,0,0-.26-.49.72.72,0,0,0-.28,0c-.38,0-.76-.07-1.14,0a6.21,6.21,0,0,0-1.24.23c-.16,0-.33.08-.49.14a.21.21,0,0,1-.26-.09c-.09-.11,0-.19.06-.25a6.47,6.47,0,0,1,.89-.87,1.09,1.09,0,0,0,.51-.66,4.21,4.21,0,0,0,0-.67c0-.24,0-.24.25-.24.53,0,.45,0,.45.44,0,.29,0,.57,0,.86s.05.27.26.27h1.17c.15,0,.23-.06.22-.22s0-.17,0-.26c0-.25,0-.25.25-.26H24.6c.2,0,.38,0,.48-.21s.14-.13.2-.2a.66.66,0,0,0,.18-.52c0-.22,0-.45,0-.68a.21.21,0,0,1,.19-.25c.34-.09.68-.2,1-.3a.46.46,0,0,0,.35-.45,1.25,1.25,0,0,0,0-.34c-.09-.37-.17-.44-.55-.45a3.52,3.52,0,0,1-.59-.07c-.3-.05-.4-.19-.4-.5a10.41,10.41,0,0,0,0-1.43.2.2,0,0,1,0-.14.74.74,0,0,0-.11-1A3.48,3.48,0,0,1,25.05,13.69Zm.84,9.2a.74.74,0,0,0-.39-.72,1.68,1.68,0,0,0-1.15-.28c-.64.11-1.3.11-2,.16a.57.57,0,0,0-.22.06c-.18.09-.37.2-.55.28a1.11,1.11,0,0,0-.58.74c-.14.41.06.72.48.71a9.7,9.7,0,0,1,1.49.1,2.09,2.09,0,0,1,.55.12c.47.21.95.41,1.43.59s.41.12.5-.25c0,0,0-.05,0-.08a8.14,8.14,0,0,1,.33-1.16C25.87,23.08,25.85,23,25.89,22.89Z"/><path id="_Path_4" data-name="&lt;Path&gt;" d="M29.17,20.53h1.25c.11,0,.13,0,.16.15a2,2,0,0,0,.46.85c.45.47.9.93,1.32,1.42a5.76,5.76,0,0,1,1.15,1.85,8.79,8.79,0,0,1,.38,1c.08.36.12.73.22,1.08a.18.18,0,0,1-.13.24,1.37,1.37,0,0,1-.35.09.35.35,0,0,1-.43-.25,6.33,6.33,0,0,1-.42-1.12l0-.08c0-.07-.06-.13-.14-.14s-.14.05-.16.14c-.11.42-.27.82-.4,1.24a3.86,3.86,0,0,1-.42,1,2.25,2.25,0,0,1-.93.8c-.26.12-.53.21-.8.31s-.17,0-.18-.12a4.1,4.1,0,0,1,.13-.63c0-.23.08-.46.11-.69a5.18,5.18,0,0,0-.06-.93c0-.25-.06-.5-.09-.74a3.68,3.68,0,0,0-.21-.69,6.35,6.35,0,0,0-.48-.95,12,12,0,0,0-.67-1.14A6.55,6.55,0,0,0,27.33,22l-.12-.09c-.21-.2-.23-.3-.08-.54s.34-.48.5-.73a.33.33,0,0,1,.32-.14h1.22Z"/><path id="_Path_5" data-name="&lt;Path&gt;" d="M14.75,19.42h-3a.65.65,0,0,1-.41-.12A3.86,3.86,0,0,0,10.6,19a2,2,0,0,0-.86-.15c-2.5,0-5,0-7.5,0-.23,0-.21,0-.23-.23a4.76,4.76,0,0,1,.17-1.12c0-.1.1-.08.16-.08h1c.47,0,.94,0,1.41,0s1.06,0,1.6,0,1.08,0,1.61,0h9.64c.42,0,.43,0,.44.43s0,.89,0,1.33c0,.24,0,.24-.25.24h-3Z"/><path id="_Compound_Path_3" data-name="&lt;Compound Path&gt;" d="M10,15.07H2.05c-.14,0-.21,0-.2-.2a3,3,0,0,0-.1-.63A.25.25,0,0,1,2,13.92H3.85A.17.17,0,0,1,4,14a1,1,0,0,0,.3.32.51.51,0,0,0,.31.11c1.32,0,2.65.07,4,0s2.86,0,4.28-.08c.37,0,.75,0,1.11-.05s.73,0,1.09-.05.73,0,1.09,0a9.44,9.44,0,0,0,2.42-.42c.23-.09.51-.09.67-.33,0-.05.11,0,.17,0,.88,0,1.76-.08,2.65-.05.61,0,1.21-.05,1.81-.06s1.06-.07,1.6-.1.84-.08,1.26-.1a3.38,3.38,0,0,0,.53-.1.43.43,0,0,1,.39.17c0,.07,0,.11-.06.13-.36.14-.73.26-1.1.37a.45.45,0,0,1-.28,0,3.78,3.78,0,0,0-1.07-.23,2.24,2.24,0,0,0-.72.08.16.16,0,0,0-.14.17.16.16,0,0,0,.18.15,1.13,1.13,0,0,1,.74.39.5.5,0,0,1,.11.57.43.43,0,0,1-.48.31c-.27,0-.54,0-.81,0a.31.31,0,0,1-.32-.25.33.33,0,0,1,.19-.36l.12,0c.08,0,.17-.07.16-.18s-.11-.09-.19-.11a5.4,5.4,0,0,0-1.32-.06,5.72,5.72,0,0,0-1.49.31l-1.05.37a5.62,5.62,0,0,1-1.5.3c-.31,0-.62,0-.93,0Zm14.51-.7a.27.27,0,0,0-.28.28.31.31,0,0,0,.6,0A.32.32,0,0,0,24.48,14.37Z"/><path id="_Path_6" data-name="&lt;Path&gt;" d="M11.37,15.33H17.2c.11,0,.17,0,.17.16,0,.47,0,.94,0,1.41,0,.24,0,.25-.25.25H5.62c-.28,0-.28,0-.28-.27q0-.66,0-1.33c0-.21,0-.21.21-.21h5.81Z"/><path id="_Compound_Path_4" data-name="&lt;Compound Path&gt;" d="M23.41,17.77q0,1,0,2.08c0,.09,0,.17,0,.26s0,.15-.14.14H20c-.28,0-.28,0-.28-.29q0-.72,0-1.43a1.31,1.31,0,0,1,0-.41.63.63,0,0,0,0-.28,17.91,17.91,0,0,1-.05-2.16c0-.12,0-.28-.14-.28s-.14.16-.14.28c0,.43,0,.87,0,1.3,0,.26,0,.24-.26.26a6.53,6.53,0,0,1-.92-.09h-.36c-.14,0-.21-.05-.2-.2s0-.5,0-.75,0-.47,0-.7,0-.17.16-.16h5.49c.1,0,.12,0,.12.14,0,.76,0,1.53,0,2.29Zm-2.52-.28c-.11,0-.53,0-.59.24a.34.34,0,0,0,.08.35.9.9,0,0,0,.47.13h1.4s.38,0,.49-.16.15-.2.06-.35a.56.56,0,0,0-.49-.21Zm1.87,2.31a.45.45,0,0,0-.27,0c-.46,0-1.8,0-2,0a.11.11,0,0,0-.12.09c0,.07,0,.09.09.1s.2.14.33.14c.47,0,.93,0,1.4,0A1,1,0,0,0,22.77,19.8Zm0-3.94a.57.57,0,0,0-.28-.1,8.68,8.68,0,0,0-1.86-.08l-.13,0c-.08,0-.16,0-.15.14s.09.09.18.09,1.49,0,2,0C22.66,16,22.76,16,22.81,15.86Z"/><path id="_Path_7" data-name="&lt;Path&gt;" d="M2.4,19.13H4.49c1.7,0,3.4,0,5.1,0a3.88,3.88,0,0,1,1.53.36l0,0c.19.26.47.2.74.2H17c.13,0,.18,0,.2.18s-.06.43,0,.65-.11.09-.2.05c-.24-.11-.49-.2-.73-.31a1.87,1.87,0,0,0-.84-.18h-4c-.13,0-.24,0-.33.13a.77.77,0,0,1-.34.23L9.63,21a.59.59,0,0,1-.34.11s-.07,0-.07,0c-.12.26-.34.11-.52.14s-.15,0-.18-.1-.15-.06-.23-.06H6.21A.3.3,0,0,1,5.92,21c-.09-.13-.27,0-.35,0a1.45,1.45,0,0,1-.71.09c-.05,0-.11,0-.14-.05s-.18-.11-.28-.06A4,4,0,0,1,3,21.08.17.17,0,0,1,2.84,21c-.06-.15-.13-.3-.19-.45a.22.22,0,0,1,0-.15.63.63,0,0,0,0-.46C2.53,19.65,2.47,19.4,2.4,19.13Z"/><path id="_Path_8" data-name="&lt;Path&gt;" d="M32.6,26.25a3.47,3.47,0,0,1,.28.68c.21.53.49.61,1,.48s.37-.08.54.28.16.55.29.8,0,.14-.09.17c-.25.1-.49.22-.75.3-.42.13-.83.29-1.24.46a9.92,9.92,0,0,1-1.85.51A16.34,16.34,0,0,1,29,30.2c-.19,0-.27,0-.3-.17s0-.25.19-.31c.63-.21,1.25-.43,1.86-.67a2.49,2.49,0,0,0,1.16-.93A3.93,3.93,0,0,0,32.35,27C32.41,26.75,32.5,26.53,32.6,26.25Z"/><path id="_Path_9" data-name="&lt;Path&gt;" d="M23.69,15.33H25c.12,0,.16,0,.18.17a4.17,4.17,0,0,1,0,.65c0,1.12,0,2.24,0,3.36a.7.7,0,0,1-.76.75h-.55c-.13,0-.19,0-.18-.18s0-.19,0-.29C23.69,18.31,23.69,16.84,23.69,15.33Z"/><path id="_Path_10" data-name="&lt;Path&gt;" d="M28.83,27.93a9.67,9.67,0,0,1,0,1.07c0,.08,0,.15,0,.23a.29.29,0,0,1-.14.23.65.65,0,0,0-.14.94c.07.11.18.09.28.08.45,0,.9-.06,1.34-.16l1.3-.26a10.25,10.25,0,0,0,1.73-.57c.51-.19,1-.34,1.54-.57l.33-.14a.58.58,0,0,0,.32-.31.72.72,0,0,1,.59-.37.2.2,0,0,1,.19.06,1,1,0,0,1,.32.69.35.35,0,0,1-.21.33.9.9,0,0,1-.78,0,.39.39,0,0,0-.55.11,1,1,0,0,1-.33.24,3.44,3.44,0,0,1-.91.36,2.39,2.39,0,0,0-.68.24,3.28,3.28,0,0,1-.79.2c-.52.09-1,.2-1.57.27a12.87,12.87,0,0,1-1.74.17c-.58,0-1.16-.07-1.74-.05-.13,0-.19-.06-.19-.19a.15.15,0,0,0,0,0,.43.43,0,0,1,.26-.53,2.4,2.4,0,0,0,.76-.53,1.87,1.87,0,0,0,.44-.72c.08-.25.18-.48.28-.72A.17.17,0,0,1,28.83,27.93Z"/><path id="_Path_11" data-name="&lt;Path&gt;" d="M3.33,17.15H1.84c-.26,0-.35-.07-.35-.33s-.09-.23,0-.32.21,0,.32,0,.2-.06.31,0,.17,0,.17-.16c0-.27,0-.29-.27-.29H1.56c-.08,0-.15,0-.12-.12a4.2,4.2,0,0,1,.1-.48.66.66,0,0,1,.14-.22c.07-.06.12-.1.18,0s.25.17.41.17H4.84c.23,0,.23,0,.23.22,0,.45,0,.9,0,1.35,0,.23,0,.24-.23.24Z"/><path id="_Path_12" data-name="&lt;Path&gt;" d="M34.29,30l.51-.26a.19.19,0,0,1,.2,0l.27.16a1.12,1.12,0,0,0,1.18,0,2.08,2.08,0,0,0,.45-.31,1,1,0,0,0,.29-.56,2.92,2.92,0,0,0,0-.68,1.13,1.13,0,0,0-.48-.77,1.77,1.77,0,0,0-.34-.24,1.25,1.25,0,0,0-1.28.13,2.79,2.79,0,0,0-.34.26,3,3,0,0,1-.28-.61.44.44,0,0,0-.13-.22c-.1-.07-.07-.17-.06-.26s.06-.14.16-.09l.51.23c.11.06.17,0,.2-.09s.14-.27.18-.43,0-.16.14-.17.16.07.2.14.18.25.26.38.1.12.2,0,.26-.2.39-.29.26-.08.3.12a2.23,2.23,0,0,1,0,.49c0,.11,0,.18.17.13s.32,0,.48-.06.26.11.19.28-.12.29-.18.42-.06.2.1.24a2.86,2.86,0,0,1,.4.17c.18.08.2.16.05.29a3.71,3.71,0,0,1-.33.25c-.23.16-.23.19-.05.39s.16.21.25.29,0,.13,0,.19-.07.07-.12.07c-.23,0-.44.08-.67.06a5.64,5.64,0,0,0,.06.66c0,.19-.07.25-.23.15s-.29-.11-.42-.19-.2-.06-.27.11a2.93,2.93,0,0,1-.19.42c-.09.16-.16.17-.26,0s-.17-.26-.26-.39-.13-.15-.25,0-.24.17-.35.26-.26.12-.33-.11a1,1,0,0,1,0-.28C34.65,30,34.65,30,34.29,30Z"/><path id="_Path_13" data-name="&lt;Path&gt;" d="M29.16,18.27a3.11,3.11,0,0,1-.73-1c-.31-.46-.51-1-.79-1.46a3.44,3.44,0,0,1-.2-.45c0-.09,0-.15.08-.2a.29.29,0,0,0,.18-.43c-.1-.26-.09-.26.17-.33a1.75,1.75,0,0,0,.33-.06c.07,0,.13,0,.18.05a1.68,1.68,0,0,0,.5.41c.07,0,.07.11.09.18s.06.2.2.09.22-.06.31.11.16.17.25,0a.25.25,0,0,1,.26-.13h.1c.38,0,.41,0,.39.4,0,.13,0,.18-.18.2-.34.07-.69.16-1,.24a.76.76,0,0,0-.41.26.22.22,0,0,0-.07.16,1.54,1.54,0,0,0,.09.71,1,1,0,0,1,.09.56.38.38,0,0,0,.12.35A.24.24,0,0,1,29.16,18.27Z"/><path id="_Path_14" data-name="&lt;Path&gt;" d="M18.32,19.17c0-.46,0-1,0-1.57,0-.1,0-.12.12-.11a3.84,3.84,0,0,0,.75,0,.24.24,0,0,1,.28.23.71.71,0,0,1,0,.26,5.62,5.62,0,0,0-.06,1.27c0,.5,0,1,0,1.51,0,.16-.06.21-.21.21s-.43,0-.65,0-.21-.06-.21-.21C18.33,20.27,18.32,19.77,18.32,19.17Z"/><path id="_Path_15" data-name="&lt;Path&gt;" d="M6.12,14.13a12,12,0,0,1-1.56,0,.34.34,0,0,1-.29-.29c-.06-.25-.06-.23-.32-.21s-.64,0-1,0H2.33c-.12,0-.18,0-.11-.17a.34.34,0,0,1,.54-.16c.28.18.37.18.67,0a.27.27,0,0,1,.17,0c.17,0,.35,0,.52,0a6.54,6.54,0,0,0,.8-.06.62.62,0,0,1,.55.28A2,2,0,0,0,6.12,14.13Z"/><path id="_Path_16" data-name="&lt;Path&gt;" d="M37,28.62c0,.77-.44,1.08-1.05,1.24a.91.91,0,0,1-.78-.22s-.08,0-.08-.1.06-.08.11-.1.17,0,.25,0a1.13,1.13,0,0,0,1-.15.76.76,0,0,0,.17-.92,2,2,0,0,0-.34-.49.33.33,0,0,0-.28-.12,1.11,1.11,0,0,0-.87.4c0,.06-.06.19-.19.13a.27.27,0,0,1-.11-.34,1.11,1.11,0,0,1,1.58-.35A1.09,1.09,0,0,1,37,28.62Z"/><path id="_Path_17" data-name="&lt;Path&gt;" d="M25.46,17.2a3.46,3.46,0,0,0,1,.21c.21,0,.26.08.28.3,0,.07,0,.14,0,.21a.16.16,0,0,1-.13.19l-1,.29c-.09,0-.16,0-.16-.09C25.46,18,25.46,17.6,25.46,17.2Z"/><path id="_Path_18" data-name="&lt;Path&gt;" d="M21.82,15.07a12.48,12.48,0,0,1-1.64,0c.35-.15.68-.33,1-.44a.18.18,0,0,1,.19,0l.43.37Z"/><path id="_Path_19" data-name="&lt;Path&gt;" d="M22.86,15a.69.69,0,0,1-.53-.05,1.5,1.5,0,0,1-.61-.43c-.07-.07-.06-.12,0-.15a1.43,1.43,0,0,1,.43-.07.18.18,0,0,1,.16.07A2.61,2.61,0,0,0,22.86,15Z"/><path id="_Path_20" data-name="&lt;Path&gt;" d="M23.46,15a1.21,1.21,0,0,1-.8-.69,7.71,7.71,0,0,1,.88,0A.86.86,0,0,0,23.46,15Z"/><path id="_Path_21" data-name="&lt;Path&gt;" d="M27.47,20.53c-.19.34-.43.58-.59.91a.33.33,0,0,1-.08-.36,2.49,2.49,0,0,1,.19-.42C27.1,20.48,27.26,20.54,27.47,20.53Z"/><path id="_Path_22" data-name="&lt;Path&gt;" d="M24.73,24.17a4,4,0,0,1-.42,0c-.14,0-.16-.1-.2-.2s.07-.15.12-.16c.35-.11.41-.45.55-.71a.34.34,0,0,0,0-.25c0-.2-.09-.4-.14-.6s0-.17.1-.14a1.88,1.88,0,0,1,.81.4c.09.07.08.18.07.29a4.23,4.23,0,0,1-.32,1C25.18,24.17,25.17,24.17,24.73,24.17Z"/></g></svg>