<svg xmlns="http://www.w3.org/2000/svg" class="HeroAbility-icon HeroAbility-icon--hoverState" viewBox="0 0 40 40" preserveAspectRatio="xMidYMid meet"><g id="_Group_4" data-name="&lt;Group&gt;"><path id="_Compound_Path_3" data-name="&lt;Compound Path&gt;" d="M25.05,22.94l.43.65c.86,1.31,1.73,2.62,2.59,3.93a4.41,4.41,0,0,0,.82.95,3,3,0,0,0,.79.46c.64.27,1.31.41,2,.65a7.13,7.13,0,0,0,1,.24c.48.1,1,.2,1.46.26a7.87,7.87,0,0,0,1.05.06H36c.1,0,.12,0,.07.13a5.3,5.3,0,0,1-.38.61,1.78,1.78,0,0,1-.95.6h-.09c-.63,0-1.26.06-1.88.07s-1.08,0-1.61,0c-.18,0-.37,0-.55,0a4,4,0,0,1-.66-.08l-.75-.1-.88-.12-.7-.1a3.42,3.42,0,0,1-.63-.14l-4-1.29a3.13,3.13,0,0,1-.46-.19c-.33-.17-.68-.31-1-.49a6.59,6.59,0,0,0-.79-.37,3.27,3.27,0,0,1-.64-.41c-.16-.1-.29-.24-.44-.34a.38.38,0,0,1-.19-.33c0-.3,0-.6,0-.9,0-.48,0-1,0-1.44,0,0,0-.06,0-.09,0-.48,0-.48.34-.79l.84-.78a.14.14,0,0,1,.21,0,3.2,3.2,0,0,0,1.8.47,3.24,3.24,0,0,0,2.31-1.05C24.93,23,25,23,25.05,22.94Zm-3.64,2.23a.82.82,0,0,0-.09-.29c-.1-.24-.28-.44-.39-.68a.14.14,0,0,0-.12-.09.39.39,0,0,0-.36.13.3.3,0,0,0,0,.34,5,5,0,0,0,.36.64.48.48,0,0,0,.34.19A.24.24,0,0,0,21.41,25.17Zm3.49-.47a.62.62,0,0,0,.61-.74.58.58,0,0,0-.67-.44.67.67,0,0,0-.44.78A.54.54,0,0,0,24.9,24.7Z"/><path id="_Compound_Path_4" data-name="&lt;Compound Path&gt;" d="M24.38,15.71a13.07,13.07,0,0,1,2,.14c.29,0,.57.13.86.19a.28.28,0,0,1,.12.05,2.36,2.36,0,0,0,1,.43c.82.19,1.64.37,2.47.51.42.07.84.17,1.27.21s.79.13,1.19.17a16.85,16.85,0,0,1,1.73.27l.2,0a.87.87,0,0,1,.59.3,4.46,4.46,0,0,1,.41.41,1.1,1.1,0,0,1,.18.29c.08.18.14.37.21.56a.27.27,0,0,1,0,.13c0,.14-.07.18-.2.15a8.66,8.66,0,0,0-2-.17c-.57,0-1.14,0-1.71,0a1.35,1.35,0,0,0-.49,0,2.78,2.78,0,0,1-.62.08c-.52,0-1,.15-1.53.24a4.29,4.29,0,0,0-.43.12c-.36.1-.73.17-1.1.25l-.43.12c-.41.14-.85.19-1.27.3l-.93.27c-.16,0-.16,0-.18-.12A3.21,3.21,0,0,0,24,18a3.27,3.27,0,0,0-4.17.94c0,.06-.07.18-.17.16s-.1-.14-.12-.23a7.9,7.9,0,0,1-.17-1.7.34.34,0,0,1,.18-.33,3.16,3.16,0,0,1,.52-.27.59.59,0,0,0,.16-.08,2.9,2.9,0,0,1,.88-.39A8.92,8.92,0,0,1,24.38,15.71Zm1.88,3.45a.31.31,0,0,0-.34.14.77.77,0,0,0-.06.81.57.57,0,0,0,.42.3.75.75,0,0,0,.73-.49.34.34,0,0,0,0-.24.69.69,0,0,0-.56-.49Z"/><path id="_Path_12" data-name="&lt;Path&gt;" d="M35.55,20.07a2.46,2.46,0,0,1-.46.06.85.85,0,0,0-.71.4c-.11.13-.18.29-.28.42a.44.44,0,0,0-.09.29c0,.29,0,.57,0,.86a1.77,1.77,0,0,0,.19.84l.32.76a.43.43,0,0,0,.06.12,6.35,6.35,0,0,1,.41.56,5.89,5.89,0,0,0,.53.58,2.85,2.85,0,0,1,.54.83,4.25,4.25,0,0,0,.36.69,2.55,2.55,0,0,1,.44,1.08c0,.12.06.24.08.37a.19.19,0,0,1,0,.17,3.67,3.67,0,0,1-.27.35c-.17.16-.29.36-.46.52s-.22.28-.35.4a.32.32,0,0,1-.26.1l-.88-.06s-.05,0-.07,0c-.17-.16-.39-.25-.49-.48a.94.94,0,0,1,0-.53,2.62,2.62,0,0,1,.33-.88,6.34,6.34,0,0,1,.38-.64c.09-.13.09-.16,0-.28l-.6-.73a1.57,1.57,0,0,1-.12-.16c-.33-.54-.75-1-1.1-1.56a3.3,3.3,0,0,0-1.16-1c-.23-.13-.42-.31-.66-.43a.26.26,0,0,1-.14-.22c-.05-.44-.13-.87-.14-1.32,0-.29-.07-.58-.09-.87,0-.13,0-.14.13-.15A12.8,12.8,0,0,1,32.7,20a6.22,6.22,0,0,0,.63,0,9.17,9.17,0,0,1,1.82,0l.4,0Z"/><path id="_Path_13" data-name="&lt;Path&gt;" d="M14.29,10.82c.07.09.09.21.24.18s.1,0,.12.11a.46.46,0,0,1,0,.09,2,2,0,0,0,.25.81.91.91,0,0,0,.42.46c.16.08.15.09.08.24l-.41.77c0,.07-.07.14-.17.07s-.17,0-.25,0l-.47.24-.25-.34c-.1-.13-.2-.12-.28,0s-.17.35-.25.53-.12.29-.44.38-.72.15-1.08.23c-.09,0-.21,0-.24.14a.26.26,0,0,0,.14.3.14.14,0,0,1,.08.13,1.55,1.55,0,0,1-.51-.31,1.88,1.88,0,0,0-.16-.16c-.14-.1-.25-.23-.47-.15a.5.5,0,0,1-.51-.1.13.13,0,0,0-.22.08c-.06.21-.1.43-.15.65a.1.1,0,0,0,0,.07c.1.16,0,.23-.12.3s-.37.3-.57.43a.79.79,0,0,1-.77.06c-.21-.1-.41-.21-.62-.32a1.66,1.66,0,0,0-.4-.15.49.49,0,0,0-.35,0,.26.26,0,0,1-.29,0,1.88,1.88,0,0,1-.37-.29c-.13-.15-.13-.22,0-.4s.34-.56.5-.85a.44.44,0,0,1,.43-.26,8.16,8.16,0,0,0,.87-.08.38.38,0,0,0,.25-.12l.53-.51.06.18a1.07,1.07,0,0,0,.65.7.66.66,0,0,0,.6-.08.62.62,0,0,0,.38-.55,1,1,0,0,1,0-.2.62.62,0,0,0-.22-.62,1,1,0,0,0-.71-.3H9.54A.2.2,0,0,1,9.33,12a6.25,6.25,0,0,1-.15-.61c.33-.17.47-.53.76-.73.36.14.51.48.72.75a.45.45,0,0,1,.06.24c0,.18,0,.36.06.54a6.88,6.88,0,0,0,.3,1.06l0,.06c.09.2.16.24.37.19s.52-.08.77-.14h0c.17,0,.27-.05.31-.26A1.3,1.3,0,0,1,13,12.6l.09-.1a1.07,1.07,0,0,1,.67-.42A1.2,1.2,0,0,1,14,12c.25,0,.36-.14.27-.37a.51.51,0,0,1,0-.2C14.27,11.25,14.28,11,14.29,10.82Z"/><path id="_Path_14" data-name="&lt;Path&gt;" d="M11.82,28.09a1.71,1.71,0,0,1-.48.12c-.28.07-.57.11-.85.15a.87.87,0,0,1-.29,0c-.32-.06-.64-.09-1-.13s-.47-.05-.7-.1A1.06,1.06,0,0,1,8.25,28c-.14-.07-.28-.15-.4-.24a1.11,1.11,0,0,1-.42-.57.71.71,0,0,0-.09-.2,1,1,0,0,1-.13-.82,2,2,0,0,1,.17-.53c.13-.28.27-.55.42-.82a.61.61,0,0,1,.07-.11,7.27,7.27,0,0,1,1-.94A.17.17,0,0,1,9,23.72a4.71,4.71,0,0,0,1.07-.1.31.31,0,0,1,.33.12,2.13,2.13,0,0,0,.71.58c.27.15.52.32.79.48.07,0,.09.08,0,.16a3.12,3.12,0,0,0-.45,1.47c0,.13,0,.25,0,.38a1.8,1.8,0,0,0,.22.93Z"/><path id="_Path_15" data-name="&lt;Path&gt;" d="M27,21.83c0,.21,0,.42,0,.63s-.07.15-.12.2-.13.16-.08.28a.54.54,0,0,1,0,.22.88.88,0,0,0,0,.24.25.25,0,0,1-.07.31c-.06,0,0,.09,0,.15a2.33,2.33,0,0,0,.32.4,6.22,6.22,0,0,1,.53.68c.29.38.58.77.86,1.16.07.09.2.18.1.33s0,.08.05.12l.8,1.24s0,.06.06.06a1.78,1.78,0,0,1,.84.37.2.2,0,0,0,.13,0l.7-.11a.18.18,0,0,0,.14-.09l.31-.41c.15-.22.29-.45.45-.66a.2.2,0,0,0,0-.26l-.69-1.1c-.11-.18-.24-.35-.33-.53a1.4,1.4,0,0,0-.51-.51l-1-.68a.3.3,0,0,1-.13-.31c.05-.49,0-1,.05-1.46a1.18,1.18,0,0,0-.24-.78,1.13,1.13,0,0,1-.14-.28,3,3,0,0,0-.17-.42c0-.05,0-.1,0-.13a3.16,3.16,0,0,1,.79-.26c.08,0,.11,0,.13.1A14.36,14.36,0,0,1,30.23,23s0,.08,0,.11,0,.16.15.16a.67.67,0,0,1,.29.11c.28.16.57.29.85.46a4.75,4.75,0,0,1,1.09.93,2.24,2.24,0,0,1,.28.46,12.3,12.3,0,0,0,.74,1.18c.35.52.29.41,0,.84a6,6,0,0,1-.6.79,1.62,1.62,0,0,1-1.31.52h-.22s-.11,0-.13,0c-.13.19-.3.09-.44.05l-.52-.13a2.4,2.4,0,0,1-1.54-1c-.24-.34-.51-.67-.76-1a3.65,3.65,0,0,1-.2-.33c-.36-.61-.76-1.2-1.14-1.8a3.45,3.45,0,0,1-.51-1,1,1,0,0,1,0-.44,2.77,2.77,0,0,1,.13-.41,2.28,2.28,0,0,1,.54-.67Z"/><path id="_Path_16" data-name="&lt;Path&gt;" d="M16.56,28.31a3.36,3.36,0,0,0,.06-.36.18.18,0,0,1,.06-.11,3.93,3.93,0,0,1,.34-.32.53.53,0,0,0,.21-.42,4.47,4.47,0,0,1,0-.65c0-.1-.17-.18-.28-.11a.72.72,0,0,1-.36.1.15.15,0,0,1-.16-.09l-.09-.15a2,2,0,0,0-1.13-.9,5.47,5.47,0,0,1-.64-.26.12.12,0,0,1-.07-.18l.22-.64.07-.19a.56.56,0,0,0-.12-.64c-.13-.12-.2-.3-.37-.39s-.07-.09,0-.15a3,3,0,0,1,.25-.25l.46-.35a1,1,0,0,1,.59-.18,1.46,1.46,0,0,0,1-.28.56.56,0,0,1,.67,0,2.65,2.65,0,0,1,.37.25.78.78,0,0,1,.26.6,2.39,2.39,0,0,0,.16.81,3.13,3.13,0,0,1,.18,1.39,4,4,0,0,1,0,.49,9.72,9.72,0,0,1-.4,1.66,2.37,2.37,0,0,1-.39.64c-.08.1-.16.21-.26.31S16.75,28.16,16.56,28.31Z"/><path id="_Compound_Path_5" data-name="&lt;Compound Path&gt;" d="M18.82,13.33a3.18,3.18,0,0,0,0,.63.35.35,0,0,1-.09.35,1.07,1.07,0,0,0-.25.52,9.05,9.05,0,0,0-.17.93c0,.2-.08.4-.12.6a.18.18,0,0,1-.15.17,1.58,1.58,0,0,0-.59.27l0,0c-.2.11-.26.1-.33-.11a5.68,5.68,0,0,0-.33-.81.33.33,0,0,1,0-.11.25.25,0,0,0-.17-.19,1.63,1.63,0,0,0-.36-.12.21.21,0,0,1-.17-.15c-.14-.39-.3-.78-.45-1.18l0-.13a.36.36,0,0,1,.1-.45,2.19,2.19,0,0,0,.61-1.16,1.83,1.83,0,0,0,0-.61,3.54,3.54,0,0,1-.07-.6c0-.07,0-.11.07-.14a5.19,5.19,0,0,1,1.06-.42.49.49,0,0,1,.56.2,5.53,5.53,0,0,1,.67,1,3.06,3.06,0,0,1,.18.64A2.15,2.15,0,0,1,18.82,13.33Zm-1,2.78a.41.41,0,0,0-.13-.34l-.44-.34a.4.4,0,0,0-.38.05.29.29,0,0,0,0,.34.37.37,0,0,0,.07.09l.45.41a.28.28,0,0,0,.31.06A.26.26,0,0,0,17.87,16.11Z"/><path id="_Path_17" data-name="&lt;Path&gt;" d="M5.14,28l-.47-.19a1.11,1.11,0,0,1-.25-.18c-.26-.19-.51-.39-.75-.59a2.33,2.33,0,0,1-.31-.4,5.83,5.83,0,0,1-.64-1.21,2.78,2.78,0,0,1-.11-.57,1.77,1.77,0,0,1,.17-1,.49.49,0,0,1,.49-.33A2.25,2.25,0,0,0,4,23.39a6.26,6.26,0,0,1,.73-.12.62.62,0,0,1,.5.15,5.23,5.23,0,0,1,.55.49c.14.15.12.27,0,.4a1,1,0,0,0-.39.42s-.07.07-.12.1a1.71,1.71,0,0,0-.46.55,2.81,2.81,0,0,0-.33.85,1.35,1.35,0,0,0,.23,1.07,1.78,1.78,0,0,0,.36.43c.09.06.07.18.13.25Z"/><path id="_Path_18" data-name="&lt;Path&gt;" d="M36.45,19.82a.34.34,0,0,0-.31,0,.85.85,0,0,1-.42,0,15.65,15.65,0,0,0-2.07-.12c-.85,0-1.71,0-2.56.14a13,13,0,0,0-1.53.25c-.31.08-.59.21-.89.31l-.38.15a1.24,1.24,0,0,0-.26.13,7.8,7.8,0,0,0-1.49,1.23l0,0a1.28,1.28,0,0,0-.43.79c0,.07,0,.15-.06.22a.43.43,0,0,0,0,.26,2.87,2.87,0,0,0,.31.79c.18.29.35.58.54.86A10.89,10.89,0,0,1,27.57,26a7.13,7.13,0,0,0,.8,1.16c.18.23.34.47.53.7a2.69,2.69,0,0,0,.91.72,3.73,3.73,0,0,0,.73.21c.31.08.63.14.93.25a6.08,6.08,0,0,0,.78.2c.42.09.84.21,1.28.26a10.79,10.79,0,0,0,1.25.13c.31,0,.61,0,.92.06l.13,0c.08,0,.08.1.07.17s-.07.07-.12.07h-.88a10,10,0,0,1-2-.29c-.36-.08-.72-.14-1.07-.25-.58-.17-1.17-.34-1.74-.54a3.72,3.72,0,0,1-.7-.3,3.09,3.09,0,0,1-.91-.86c-.9-1.26-1.72-2.59-2.59-3.87-.21-.3-.4-.62-.61-.92a.25.25,0,0,1,0-.32,3.07,3.07,0,0,0,.46-1.4.23.23,0,0,1,.19-.23,14.06,14.06,0,0,1,1.68-.44,3.43,3.43,0,0,0,.44-.1,12,12,0,0,1,1.22-.3l.52-.14a11.29,11.29,0,0,1,1.7-.31,6.45,6.45,0,0,0,1-.14h.11c.83,0,1.67,0,2.5.06a6.61,6.61,0,0,1,1.16.13A.2.2,0,0,1,36.45,19.82Z"/><path id="_Path_19" data-name="&lt;Path&gt;" d="M14,11.25c0,.14,0,.28,0,.43a.11.11,0,0,1-.11.14l-.22,0a2,2,0,0,0-1.24,1,1.07,1.07,0,0,0-.09.16.27.27,0,0,1-.21.15c-.24.06-.49.06-.73.13a.13.13,0,0,1-.17-.1,4.6,4.6,0,0,1-.36-1.82.2.2,0,0,1,.11-.2c.14-.08.27-.18.41-.27a.86.86,0,0,1,.32-.08c.42-.09.85-.14,1.27-.24a3.07,3.07,0,0,1,1,.07c.07,0,.07.07.07.12s0,.28,0,.43Z"/><path id="_Path_20" data-name="&lt;Path&gt;" d="M16,18.48a3.44,3.44,0,0,0-.33,1.42c0,.61,0,1.21,0,1.82,0,.09,0,.13-.12.14a1.17,1.17,0,0,0-.68.26,4.5,4.5,0,0,0-.59.48.13.13,0,0,1-.11.05A.67.67,0,0,1,14,22.3a5.87,5.87,0,0,1-.1-1,6.52,6.52,0,0,1,0-1,2.92,2.92,0,0,1,.4-1.14,1,1,0,0,1,.6-.47c.22-.06.44-.13.66-.2A.88.88,0,0,1,16,18.48Z"/><path id="_Path_21" data-name="&lt;Path&gt;" d="M8.25,24a.47.47,0,0,1-.17.21,2.79,2.79,0,0,0-.59.78c-.12.26-.26.51-.37.77A2.1,2.1,0,0,0,7,26.6a.7.7,0,0,0,.12.4c.12.16.14.36.26.54-.1,0-.17,0-.22,0A2.48,2.48,0,0,1,7,27.25a.65.65,0,0,0-.52-.42c-.2,0-.39-.1-.59-.15s-.17,0-.26.08a7.06,7.06,0,0,0-.5.81,1.57,1.57,0,0,1-.46-.64,1.52,1.52,0,0,1,.06-1.12c.07-.15.15-.29.23-.44a1.7,1.7,0,0,1,.6-.56.32.32,0,0,1,.2,0,5.79,5.79,0,0,0,.67,0,2.25,2.25,0,0,0,1.22-.41s.1-.07.11-.11.18-.21.3-.28Z"/><path id="_Path_22" data-name="&lt;Path&gt;" d="M34.21,29.37a19,19,0,0,1-2.68-.52.08.08,0,0,1,.1-.05,2.29,2.29,0,0,0,.84-.1,1.38,1.38,0,0,0,.61-.37,3.48,3.48,0,0,0,.4-.45c.17-.23.33-.47.48-.71a1.55,1.55,0,0,0,.1-.2.23.23,0,0,0,0-.24l-.12-.19A16.12,16.12,0,0,1,33,25a3.29,3.29,0,0,0-.74-.84,4.49,4.49,0,0,0-.85-.58,6.11,6.11,0,0,0-.74-.37.27.27,0,0,1-.19-.29A18.5,18.5,0,0,0,30.25,21c0-.16-.07-.31-.1-.46s0-.13,0-.2,0-.13.12-.15c.32-.06.32-.06.35.26s.08.94.13,1.41c0,.24.09.47.1.71s.11.19.2.25c.26.17.52.36.79.52A3.54,3.54,0,0,1,33,24.56c.15.23.32.46.48.68s.27.4.41.59.33.42.5.63.22.26,0,.55a7,7,0,0,0-.42.79,2.32,2.32,0,0,0-.19.74A1,1,0,0,0,34.21,29.37Z"/><path id="_Path_23" data-name="&lt;Path&gt;" d="M17.78,17.58a5.25,5.25,0,0,0-.17.85c0,.09,0,.12-.14.13a5.06,5.06,0,0,1-.67-.06.61.61,0,0,1-.46-.39c-.11-.22-.2-.46-.29-.69s-.29-.73-.42-1.1-.23-.7-.34-1.05-.21-.69-.33-1A.28.28,0,0,1,15,14c.1-.27.26-.51.38-.76a7.64,7.64,0,0,1,.58-1,.37.37,0,0,1,.05-.07s.08,0,.09,0a.37.37,0,0,1,0,.16,2,2,0,0,1-.67,1.17.25.25,0,0,0-.1.29,6.13,6.13,0,0,0,.23.7c.08.23.18.46.27.69a.68.68,0,0,1,.05.17.31.31,0,0,0,.24.27h0c.37,0,.48.31.6.59a6,6,0,0,0,.24.63,1.33,1.33,0,0,0,.7.64l.08,0Z"/><path id="_Path_24" data-name="&lt;Path&gt;" d="M6.29,14.4l-.2-.16a4.93,4.93,0,0,1,.46-1c.26-.36.55-.69.8-1.06A1.06,1.06,0,0,1,7.6,12l1.14-.92c.08-.06.12,0,.14,0s.09.33.12.5a3.25,3.25,0,0,0,.19.62.14.14,0,0,1,0,.18l-.79.83a.82.82,0,0,1-.59.28c-.25,0-.49,0-.74.05a.37.37,0,0,0-.32.17l-.32.49S6.35,14.37,6.29,14.4Z"/><path id="_Path_25" data-name="&lt;Path&gt;" d="M13.35,23.9C13,24,13,24,13,24.34c0,.06,0,.12,0,.18s0,.24.2.3l.22.06a.15.15,0,0,1,.12.14c0,.09-.05.11-.11.14a2.75,2.75,0,0,0-.87.63A1.41,1.41,0,0,0,12.2,27a.06.06,0,0,0,0,0,1.19,1.19,0,0,1,.1.7c0,.16,0,.2-.15.26a.12.12,0,0,1-.17,0,2.34,2.34,0,0,1-.35-1.12,3.74,3.74,0,0,1,.3-1.49,1.18,1.18,0,0,1,.25-.37c.14-.14.13-.16,0-.24a3.37,3.37,0,0,1-.47-.26c-.31-.21-.65-.38-.94-.61a2,2,0,0,1-.31-.37l.19,0,.57.19a.4.4,0,0,1,.22.15.39.39,0,0,0,.41.11,1.23,1.23,0,0,1,.79.08c.08,0,.11,0,.16,0A.58.58,0,0,1,13.35,23.9Z"/><path id="_Path_26" data-name="&lt;Path&gt;" d="M19,17.29l-.32.88a.8.8,0,0,0-.06.26c0,.59,0,1.18,0,1.77s0,1,0,1.44c0,.13,0,.18-.17.13a1.53,1.53,0,0,0-.58-.07c-.09,0-.14,0-.14-.12,0-.43,0-.85,0-1.28s0-.67,0-1a11.79,11.79,0,0,1,.18-1.4.33.33,0,0,1,.32-.31A2,2,0,0,0,19,17.29Z"/><path id="_Path_27" data-name="&lt;Path&gt;" d="M17.5,21.65c-.08,0-.12-.05-.17-.08a.79.79,0,0,0-.9.05c-.07,0-.13.15-.2.12s-.06-.16-.06-.24a9.33,9.33,0,0,1,.07-1.64,6.06,6.06,0,0,1,.18-.72.24.24,0,0,1,.23-.18,6.16,6.16,0,0,1,.81,0c.07,0,.09,0,.09.1l0,.49c0,.58,0,1.15,0,1.73A1.07,1.07,0,0,1,17.5,21.65Z"/><path id="_Path_28" data-name="&lt;Path&gt;" d="M19.54,24.35a.6.6,0,0,1-.06-.31c0-.48,0-1,0-1.44a.58.58,0,0,0-.26-.45l0,0c-.38-.23-.38-.23-.38-.67s0-.84,0-1.26,0-1.06,0-1.6a5,5,0,0,1,.35-1.2.45.45,0,0,1,.05.26,10.29,10.29,0,0,0,.15,1.27.43.43,0,0,0,.12.26c.11.1.09.19,0,.31a3.23,3.23,0,0,0,.34,3.31,3,3,0,0,0,.52.56c.12.1.12.11,0,.21Z"/><path id="_Compound_Path_6" data-name="&lt;Compound Path&gt;" d="M23.74,20.94a1.35,1.35,0,0,1-.13.53.57.57,0,0,1-.22.25c-.15.09-.29.18-.43.29a.76.76,0,0,1-.6.13,1.23,1.23,0,0,1-.15-2.4,1.22,1.22,0,0,1,1.46.79A1.31,1.31,0,0,1,23.74,20.94Zm-1.22.69a.7.7,0,1,0-.71-.71A.69.69,0,0,0,22.52,21.63Z"/><path id="_Path_29" data-name="&lt;Path&gt;" d="M15.71,25.79a1,1,0,0,1,.41.44.41.41,0,0,1,0,.39,1.17,1.17,0,0,1-.63.55,3.7,3.7,0,0,1-1.3.24,2.61,2.61,0,0,1-1.41-.3.45.45,0,0,0-.19-.08c-.12,0-.15-.09-.16-.18a1.08,1.08,0,0,1,.2-.81,2.17,2.17,0,0,1,1-.73,1.79,1.79,0,0,1,.55-.18c.05,0,.11,0,.14.06l-.52.12a1.88,1.88,0,0,0-.74.41.64.64,0,0,0-.23.45.39.39,0,0,0,.21.37,2.19,2.19,0,0,0,.86.32,2.31,2.31,0,0,0,1-.1,1.21,1.21,0,0,0,.53-.27A.85.85,0,0,0,15.71,25.79Z"/><path id="_Path_30" data-name="&lt;Path&gt;" d="M15.79,27.27a.55.55,0,0,1,0,.28.46.46,0,0,0,.15.4.07.07,0,0,1,0,.1,1.17,1.17,0,0,1-.45.49l-.47.21a1.6,1.6,0,0,1-.75.09H14l.24-.26a.32.32,0,0,0,0-.48,3.07,3.07,0,0,1-.32-.46A4.94,4.94,0,0,0,15.79,27.27Z"/><path id="_Path_31" data-name="&lt;Path&gt;" d="M14.49,25.47a.8.8,0,0,1,.7.28.31.31,0,0,1,0,.39.65.65,0,0,1-.35.3,1.61,1.61,0,0,1-1.4-.18.37.37,0,0,1-.15-.26.15.15,0,0,1,.05-.16,1.09,1.09,0,0,1,.57-.29A4.63,4.63,0,0,1,14.49,25.47Z"/><path id="_Path_32" data-name="&lt;Path&gt;" d="M20,21.28a.63.63,0,0,1,.26,0c.1,0,.07.19.1.28a2.33,2.33,0,0,0,.83,1.18c.15.12.15.12.06.29l-.12.22c-.11.19-.11.19-.3.06a3,3,0,0,1-1.2-1.86.74.74,0,0,1,0-.11.06.06,0,0,1,.07-.07Z"/><path id="_Path_33" data-name="&lt;Path&gt;" d="M21.07,18.3a2.94,2.94,0,0,1,2.52-.15,4.61,4.61,0,0,1-.27.53c0,.08-.11.06-.18,0a2.35,2.35,0,0,0-.67-.08,2.27,2.27,0,0,0-.85.18c-.16.06-.18.06-.28-.08S21.17,18.46,21.07,18.3Z"/><path id="_Path_34" data-name="&lt;Path&gt;" d="M19.57,20.4a3,3,0,0,1,1.21-1.92c.16-.11.17-.11.28.05l.22.34a.09.09,0,0,1,0,.13,2.31,2.31,0,0,0-.95,1.3c0,.05,0,.1-.11.1A4.27,4.27,0,0,1,19.57,20.4Z"/><path id="_Path_35" data-name="&lt;Path&gt;" d="M21.42,22.94a2.38,2.38,0,0,0,1.9.13l.29.55a1.55,1.55,0,0,1-.57.19,2.9,2.9,0,0,1-1.76-.21l-.1,0c-.06,0-.07-.07,0-.13Z"/><path id="_Path_36" data-name="&lt;Path&gt;" d="M24.3,18.56a2.93,2.93,0,0,1,1.12,1.9c0,.31,0,.32-.27.31-.11,0-.25.05-.32,0s-.05-.2-.07-.3a2.25,2.25,0,0,0-.65-1.16c-.16-.15-.12-.14,0-.28Z"/><path id="_Path_37" data-name="&lt;Path&gt;" d="M25.12,20.9c.33,0,.36-.08.3.36A2.92,2.92,0,0,1,24.55,23l-.12.11a.06.06,0,0,1-.09,0l-.25-.43a.09.09,0,0,1,0-.12l.12-.13a2.24,2.24,0,0,0,.56-1.35c0-.17,0-.17.18-.18Z"/><path id="_Path_38" data-name="&lt;Path&gt;" d="M14.63,23.8c0,.06,0,.15-.07.24s-.16.44-.23.66a.3.3,0,0,1-.3.25c-.1,0-.2.08-.28,0s0-.18,0-.27a5.38,5.38,0,0,1-.06-.71.65.65,0,0,0-.09-.32c-.07-.11,0-.2.07-.28a2.36,2.36,0,0,1,.39-.21.25.25,0,0,1,.3.09c.1.12.19.25.29.37A.19.19,0,0,1,14.63,23.8Z"/><path id="_Path_39" data-name="&lt;Path&gt;" d="M23.18,22.84a1.24,1.24,0,0,1-.52.12,2,2,0,0,1-2.08-1.51c0-.16,0-.16.13-.17h.07c.19,0,.19,0,.25.18a1.58,1.58,0,0,0,1.8,1c.21,0,.2,0,.26.12A.57.57,0,0,1,23.18,22.84Z"/><path id="_Path_40" data-name="&lt;Path&gt;" d="M17.35,10.39c-.05.06-.12.06-.17.08A.16.16,0,0,1,17,10.4a1,1,0,0,0-.87-.38.87.87,0,0,0-.67.32,1,1,0,0,0,0,1.48,1.33,1.33,0,0,0,.33.28s0,0,0,.06c-.12.22-.15.23-.36.1a.51.51,0,0,1-.15-.13,2,2,0,0,1-.33-.73,1.91,1.91,0,0,1,0-.84.32.32,0,0,1,.11-.19,4.57,4.57,0,0,1,.64-.49,1.24,1.24,0,0,1,.78-.13A1,1,0,0,1,17,10,1.82,1.82,0,0,1,17.35,10.39Z"/><path id="_Path_41" data-name="&lt;Path&gt;" d="M23.83,19.42a2,2,0,0,1,.12,3,1.08,1.08,0,0,1-.2-.31c0-.07,0-.11.06-.15a1.57,1.57,0,0,0,.32-1,1.51,1.51,0,0,0-.39-1c-.08-.09-.1-.15,0-.25A2.18,2.18,0,0,0,23.83,19.42Z"/><path id="_Path_42" data-name="&lt;Path&gt;" d="M28.43,20.74c.26-.11.3-.11.4.15a2.61,2.61,0,0,0,.35.72.62.62,0,0,1,.1.32,8.52,8.52,0,0,1,0,1.08.09.09,0,0,1-.12.1.4.4,0,0,1-.28-.12c-.09-.1-.16-.21-.24-.31a.39.39,0,0,1-.05-.38.56.56,0,0,0,0-.47.08.08,0,0,1,0,0c0-.26-.08-.52,0-.78A.27.27,0,0,0,28.43,20.74Z"/><path id="_Path_43" data-name="&lt;Path&gt;" d="M10.33,13a.77.77,0,0,1-.28.62.42.42,0,0,1-.31.1.7.7,0,0,1-.62-.49A.61.61,0,0,1,10,12.5l.17.11A.35.35,0,0,1,10.33,13Z"/><path id="_Path_44" data-name="&lt;Path&gt;" d="M26,15.56l-.56-.08a3.56,3.56,0,0,0-.85-.05c-.25,0-.51,0-.77,0a9.65,9.65,0,0,0-3.2.58,2.88,2.88,0,0,0-.44.22.62.62,0,0,1-.31.11l.4-.23.76-.42a1.12,1.12,0,0,1,.29-.1c.38-.08.75-.21,1.14-.3l.09,0c.27,0,.53-.06.8,0s.54-.07.8,0a10.82,10.82,0,0,1,1.13.08h.07A.66.66,0,0,1,26,15.56Z"/><path id="_Path_45" data-name="&lt;Path&gt;" d="M19.15,24.7a.22.22,0,0,1,0,.16,14.42,14.42,0,0,0,0,1.53c0,.43,0,.85,0,1.28,0,.13,0,.13-.14.1s-.19-.11-.32-.09-.05,0-.05-.09a4.2,4.2,0,0,1,0-.58,3.51,3.51,0,0,0,0-.83c0-.37,0-.73,0-1.1a.26.26,0,0,1,.16-.26Z"/><path id="_Path_46" data-name="&lt;Path&gt;" d="M20.61,20.41A2,2,0,0,1,23.1,19s0,.08,0,.12-.16.23-.37.21a1.52,1.52,0,0,0-1.58.88.23.23,0,0,1-.26.16Z"/><path id="_Path_47" data-name="&lt;Path&gt;" d="M6.79,23.56c-.25.08-.47.14-.69.23a.17.17,0,0,1-.21-.05,6.44,6.44,0,0,0-.53-.48.91.91,0,0,0-.76-.19c-.36,0-.7.14-1.06.2.08-.16.08-.16.23-.21A3.45,3.45,0,0,1,5,22.89a3.88,3.88,0,0,1,.91.06,1.09,1.09,0,0,1,.59.29Z"/><path id="_Path_48" data-name="&lt;Path&gt;" d="M8.64,16.36c-.07,0-.12,0-.17,0a.57.57,0,0,0-.57.41c0,.12,0,.11-.17.11a1,1,0,0,1-.88-.65.32.32,0,0,1,0-.36.37.37,0,0,1,.35-.11l.21.06a4.2,4.2,0,0,1,.42.21A1.82,1.82,0,0,0,8.64,16.36Z"/><path id="_Path_49" data-name="&lt;Path&gt;" d="M11.8,14.85a2.06,2.06,0,0,1,.46-.11,9.24,9.24,0,0,0,.94-.23.32.32,0,0,0,.25-.25,1.93,1.93,0,0,1,.27-.56h0c.22.22.2.15.07.4l-.31.62a.19.19,0,0,1-.14.12l-1.17.26a.2.2,0,0,1-.19,0Z"/><path id="_Path_50" data-name="&lt;Path&gt;" d="M18.46,24.84c0-.24,0-.44,0-.64,0,0,0-.09,0-.13,0-.2,0-.21.16-.27a1.11,1.11,0,0,0,.62-.44c.08,0,.07.07.07.11,0,.24,0,.48,0,.72a.26.26,0,0,1-.11.23A3.84,3.84,0,0,1,18.46,24.84Z"/><path id="_Path_51" data-name="&lt;Path&gt;" d="M19,22.26a.42.42,0,0,1,.31.39.57.57,0,0,1-.1.42,1.22,1.22,0,0,1-.71.54c-.13,0-.13,0-.17-.09s-.13-.24-.1-.36.2-.12.3-.17A.76.76,0,0,0,19,22.26Z"/><path id="_Path_52" data-name="&lt;Path&gt;" d="M6.94,23.79c.14,0,.23.1.36.16a.12.12,0,0,1,0,.12.22.22,0,0,1-.13.22,1.86,1.86,0,0,1-.82.2l-.11,0c-.09,0-.22,0-.23-.17s0-.3.18-.34A2.2,2.2,0,0,1,6.94,23.79Z"/><path id="_Path_53" data-name="&lt;Path&gt;" d="M18.79,14.73a.74.74,0,0,1,0,.18.41.41,0,0,0,.23.43,1,1,0,0,1,.43.58c0,.16.11.31.15.47s.06.06.1.09a2.75,2.75,0,0,1-.4.23c-.05-.06,0-.12,0-.18a1.79,1.79,0,0,0-.06-.38,1,1,0,0,0-.45-.57c-.17-.1-.18-.12-.13-.31a1.43,1.43,0,0,1,.15-.53Z"/><path id="_Path_54" data-name="&lt;Path&gt;" d="M13.1,29.08a2.54,2.54,0,0,0,0-.27.29.29,0,0,0-.21-.33c-.27-.11-.27-.11,0-.29l.07-.06c.17-.15.17-.15.33,0s.27.26.4.4.11.22-.07.28a1.94,1.94,0,0,0-.33.23C13.23,29.08,13.18,29.12,13.1,29.08Z"/><path id="_Path_55" data-name="&lt;Path&gt;" d="M8.48,16.6h0c.2,0,.29.11.25.3a.21.21,0,0,0,.08.23l.19.19a.13.13,0,0,1,0,.1.11.11,0,0,1,0,.08s-.05,0-.08,0l-.14-.11a.47.47,0,0,0-.46-.13.24.24,0,0,1-.11,0,.22.22,0,0,1-.2-.27A.37.37,0,0,1,8.48,16.6Z"/><path id="_Path_56" data-name="&lt;Path&gt;" d="M15.91,21.86a.52.52,0,0,1-.07-.31c0-.53,0-1.06,0-1.6a8.43,8.43,0,0,1,.1-.85,1.34,1.34,0,0,1,.19-.48c.12.1.16.19.11.31A4.35,4.35,0,0,0,16,20.16a12.07,12.07,0,0,0,0,1.46A.29.29,0,0,1,15.91,21.86Z"/><path id="_Path_57" data-name="&lt;Path&gt;" d="M18.58,25.79c0,.22,0,.45,0,.67s0,.18-.09.24a.69.69,0,0,1-.35.14c-.06,0-.05-.06,0-.1s.08-.3.13-.45a1.71,1.71,0,0,0,.06-.26c0-.29.1-.58.15-.86a.21.21,0,0,1,0-.08.09.09,0,0,1,.1,0s0,0,0,.08c0,.22,0,.45,0,.67Z"/><path id="_Path_58" data-name="&lt;Path&gt;" d="M16.2,10.54h.14c.08,0,.11.07.13.13s-.05.08-.09.11l-.18.08a.32.32,0,0,0-.21.35,3.32,3.32,0,0,0,0,.4c0,.07,0,.1-.09.07a.43.43,0,0,1-.29-.34.92.92,0,0,1,.07-.55C15.82,10.59,15.91,10.54,16.2,10.54Z"/><path id="_Path_59" data-name="&lt;Path&gt;" d="M6.77,27.3a1.68,1.68,0,0,1-.23-.09.76.76,0,0,0-.88.37.81.81,0,0,0-.05.1c0,.09-.11,0-.17,0s-.06-.08,0-.13A4.4,4.4,0,0,1,5.75,27a.15.15,0,0,1,.18-.06c.2,0,.41.09.61.14A.3.3,0,0,1,6.77,27.3Z"/><path id="_Path_60" data-name="&lt;Path&gt;" d="M13.26,27.54a4.84,4.84,0,0,1-.66.59,1.57,1.57,0,0,1,0-.88A3.22,3.22,0,0,0,13.26,27.54Z"/><path id="_Path_61" data-name="&lt;Path&gt;" d="M7.2,28c0,.07-.1.08-.16.09a1.25,1.25,0,0,0-.38.18c-.11.08-.19,0-.28,0s0-.07-.09-.1-.16-.17,0-.23l.46-.11a.3.3,0,0,1,.27.08A.57.57,0,0,0,7.2,28Z"/><path id="_Path_62" data-name="&lt;Path&gt;" d="M14.11,28.33a.19.19,0,0,1-.1.17c-.06,0-.09,0-.13-.06L13.42,28a.16.16,0,0,1-.05-.2c0-.09.13-.11.21-.15s.06,0,.07,0l.12.16a2.33,2.33,0,0,0,.27.38A.15.15,0,0,1,14.11,28.33Z"/><path id="_Path_63" data-name="&lt;Path&gt;" d="M9.81,29.52A4.25,4.25,0,0,1,10.4,29c.12-.09.26,0,.42,0a1.89,1.89,0,0,1-.46.54C10.22,29.62,10,29.58,9.81,29.52Z"/><path id="_Path_64" data-name="&lt;Path&gt;" d="M16.94,26.65a1.26,1.26,0,0,1-.58.62c-.08,0-.12,0-.12-.06s-.07-.33,0-.48.06-.09.14-.07a1.09,1.09,0,0,0,.27,0A.55.55,0,0,1,16.94,26.65Z"/><path id="_Path_65" data-name="&lt;Path&gt;" d="M11.31,29.47l.51-.67a.16.16,0,0,1,.11-.06l.23,0c.05.05,0,.09,0,.12l-.24.4C11.8,29.46,11.57,29.45,11.31,29.47Z"/><path id="_Path_66" data-name="&lt;Path&gt;" d="M6.66,27.67a3.14,3.14,0,0,0-.67.2.11.11,0,0,1-.14,0,.14.14,0,0,1,0-.17.58.58,0,0,1,.48-.29A.3.3,0,0,1,6.66,27.67Z"/><path id="_Path_67" data-name="&lt;Path&gt;" d="M16.35,9.5a2,2,0,0,0-.91.27.7.7,0,0,1,.26-.52.29.29,0,0,1,.33,0A1.1,1.1,0,0,1,16.35,9.5Z"/><path id="_Path_68" data-name="&lt;Path&gt;" d="M6.57,23a.25.25,0,0,1,.29,0,.3.3,0,0,0,.29,0L7.52,23s.08,0,.1,0a.08.08,0,0,1-.05.1l-.37.15a.27.27,0,0,0-.1,0c-.08.08-.15.07-.22,0S6.68,23.12,6.57,23Z"/><path id="_Path_69" data-name="&lt;Path&gt;" d="M10.66,29.53l.47-.58c.1-.12.25-.06.41-.14a6.68,6.68,0,0,1-.53.7C10.94,29.58,10.86,29.58,10.66,29.53Z"/><path id="_Path_70" data-name="&lt;Path&gt;" d="M10.12,10.54l.17-.09a.12.12,0,0,1,.16,0c.11.09.22.18.32.28s.11.13,0,.27,0,.1-.1.13A2.7,2.7,0,0,0,10.12,10.54Z"/><path id="_Path_71" data-name="&lt;Path&gt;" d="M8.08,29.12a3.54,3.54,0,0,1,.5-.33c.12-.07.12-.06.38,0a2.66,2.66,0,0,1-.58.39C8.27,29.26,8.19,29.17,8.08,29.12Z"/><path id="_Path_72" data-name="&lt;Path&gt;" d="M17.77,16.88a.92.92,0,0,1,.41-.16.27.27,0,0,0,.25-.25,1.08,1.08,0,0,1,.08-.3.51.51,0,0,1-.09.63A1.07,1.07,0,0,1,18,17,.15.15,0,0,1,17.77,16.88Z"/><path id="_Path_73" data-name="&lt;Path&gt;" d="M12.52,9.49a3,3,0,0,1,.22-.58c.06-.13.19-.14.3-.19s0,.08,0,.11a1.81,1.81,0,0,0-.12.29C12.87,9.32,12.73,9.41,12.52,9.49Z"/><path id="_Path_74" data-name="&lt;Path&gt;" d="M10.15,28.92c-.2.18-.37.31-.51.47s-.23.07-.36,0c.17-.15.35-.27.5-.42S10,28.93,10.15,28.92Z"/><path id="_Path_75" data-name="&lt;Path&gt;" d="M9,23.42a1.41,1.41,0,0,1,.38-.16.16.16,0,0,1,.13,0,.5.5,0,0,0,.37,0,.34.34,0,0,1,.22,0c-.1.1-.28.15-.73.19C9.11,23.52,9.11,23.52,9,23.42Z"/><path id="_Path_76" data-name="&lt;Path&gt;" d="M8.67,29.29l.53-.39.08,0c.07,0,.15,0,.18,0s-.06.1-.1.14l-.17.14A.41.41,0,0,1,8.67,29.29Z"/><path id="_Path_77" data-name="&lt;Path&gt;" d="M12.13,29.32a6,6,0,0,1,.39-.67s.05-.1.12-.06.07.09,0,.15a3.42,3.42,0,0,1-.18.38A.46.46,0,0,1,12.13,29.32Z"/><path id="_Path_78" data-name="&lt;Path&gt;" d="M7.57,28.27,7,28.61a.12.12,0,0,1-.15,0l-.15-.1a2.83,2.83,0,0,1,.66-.28C7.46,28.2,7.51,28.23,7.57,28.27Z"/><path id="_Path_79" data-name="&lt;Path&gt;" d="M8.38,28.66,7.87,29c-.1.06-.16,0-.26-.06l.54-.34c.09-.06.15,0,.23,0Z"/><path id="_Path_80" data-name="&lt;Path&gt;" d="M13.51,24.68c-.34-.06-.39-.17-.28-.46a.14.14,0,0,1,.12-.09c.07,0,.12,0,.12.08A2.5,2.5,0,0,0,13.51,24.68Z"/><path id="_Path_81" data-name="&lt;Path&gt;" d="M15.63,9l-.18.16c-.16.15-.16.15-.35.06s-.09-.07,0-.12L15.26,9C15.4,8.9,15.39,8.84,15.63,9Z"/><path id="_Path_82" data-name="&lt;Path&gt;" d="M16.48,27.68a.61.61,0,0,1,.28-.44A1.52,1.52,0,0,0,17,27a.38.38,0,0,1-.16.42,1.27,1.27,0,0,0-.26.24S16.54,27.7,16.48,27.68Z"/><path id="_Path_83" data-name="&lt;Path&gt;" d="M18.11,22.59l-.14-.5a.43.43,0,0,1,.29.08c.15.08.16.21,0,.32A.41.41,0,0,1,18.11,22.59Z"/><path id="_Path_84" data-name="&lt;Path&gt;" d="M14,9a3.24,3.24,0,0,1,.39-.42.21.21,0,0,1,.19-.06s.08,0,.09.05,0,.05,0,.07l-.3.27C14.24,9,14.13,9,14,9Z"/><path id="_Path_85" data-name="&lt;Path&gt;" d="M15.87,28.56a6.33,6.33,0,0,0,.49-.73A.61.61,0,0,1,15.87,28.56Z"/><path id="_Path_86" data-name="&lt;Path&gt;" d="M7.92,28.46c0,.06-.06.08-.11.1l-.39.26a.11.11,0,0,1-.16,0s-.05-.06,0-.09a1.77,1.77,0,0,1,.57-.29A.08.08,0,0,1,7.92,28.46Z"/><path id="_Path_87" data-name="&lt;Path&gt;" d="M13.57,8.61c-.08.18-.18.34-.24.52a.12.12,0,0,1-.12.08c-.05,0-.1,0-.07-.08a1.5,1.5,0,0,1,.25-.47S13.48,8.56,13.57,8.61Z"/><path id="_Path_88" data-name="&lt;Path&gt;" d="M14.56,9l.32-.27c.1-.08.17,0,.28,0a1.53,1.53,0,0,1-.39.31S14.72,9.11,14.56,9Z"/><path id="_Path_89" data-name="&lt;Path&gt;" d="M13.59,9.07a1.23,1.23,0,0,1,.27-.46c.06-.08.08-.08.25,0L13.76,9A.17.17,0,0,1,13.59,9.07Z"/><path id="_Path_90" data-name="&lt;Path&gt;" d="M10.87,10.48c-.07,0-.1,0-.13-.06s-.14-.12,0-.24a.37.37,0,0,0,.06-.09.52.52,0,0,1,.08-.08A1,1,0,0,1,10.87,10.48Z"/><path id="_Path_91" data-name="&lt;Path&gt;" d="M12.17,9.69a1.44,1.44,0,0,1,.13-.58A.12.12,0,0,1,12.37,9s.07,0,.07,0A2,2,0,0,1,12.17,9.69Z"/><path id="_Path_92" data-name="&lt;Path&gt;" d="M11.61,9.5a2.7,2.7,0,0,1-.11.67s0,0-.09,0A1.5,1.5,0,0,1,11.61,9.5Z"/><path id="_Path_93" data-name="&lt;Path&gt;" d="M11.82,9.92a1.5,1.5,0,0,1,.08-.61s.05-.07.12-.09A2.52,2.52,0,0,1,11.82,9.92Z"/><path id="_Path_94" data-name="&lt;Path&gt;" d="M16,27.5l.2.06a.11.11,0,0,1,0,.11s-.05.12-.13.1-.07-.09-.07-.15A.15.15,0,0,1,16,27.5Z"/><path id="_Path_95" data-name="&lt;Path&gt;" d="M11.12,10.41a1.21,1.21,0,0,1,.07-.58A1.24,1.24,0,0,1,11.12,10.41Z"/><path id="_Path_96" data-name="&lt;Path&gt;" d="M5.14,28c.07,0,.14-.09.22-.07a.1.1,0,0,1,.06.05s0,0,0,.05-.16,0-.23,0Z"/><path id="_Path_97" data-name="&lt;Path&gt;" d="M12.79,29l.12-.25C12.93,28.94,12.93,28.94,12.79,29Z"/><path id="_Path_98" data-name="&lt;Path&gt;" d="M18.8,14.73a.09.09,0,0,1,0,0s0-.07,0-.07,0,0,0,0,0,.07-.07,0Z"/><path id="_Path_99" data-name="&lt;Path&gt;" d="M20.74,24.72l.1-.07s.08,0,.11,0a1.81,1.81,0,0,1,.23.44.07.07,0,0,1,0,.08s-.06,0-.08,0a.29.29,0,0,1-.14-.11A2,2,0,0,1,20.74,24.72Z"/><path id="_Compound_Path_7" data-name="&lt;Compound Path&gt;" d="M25,23.74c.24,0,.35.11.34.32a.37.37,0,0,1-.36.38.35.35,0,0,1-.34-.37A.34.34,0,0,1,25,23.74Zm-.2.36c0,.11.06.17.16.17a.24.24,0,0,0,.23-.23.18.18,0,0,0-.17-.17A.22.22,0,0,0,24.76,24.1Z"/><path id="_Compound_Path_8" data-name="&lt;Compound Path&gt;" d="M26.35,20.17a.39.39,0,0,1-.34-.4.34.34,0,0,1,.32-.38.47.47,0,0,1,.48.41A.45.45,0,0,1,26.35,20.17Zm.24-.45a.17.17,0,0,0-.2-.18.23.23,0,0,0-.23.22.26.26,0,0,0,.23.24A.25.25,0,0,0,26.59,19.72Z"/><path id="_Path_100" data-name="&lt;Path&gt;" d="M17.38,16a1.5,1.5,0,0,1-.26-.23s0-.08,0-.12.07,0,.1,0a2.06,2.06,0,0,1,.22.18C17.51,15.88,17.42,15.91,17.38,16Z"/></g></svg>