<svg xmlns="http://www.w3.org/2000/svg" class="HeroAbility-icon HeroAbility-icon--hoverState" viewBox="0 0 40 40" preserveAspectRatio="xMidYMid meet"><path d="M19.91,33.54l-.73-.7L17.33,31l-.11-.11a.25.25,0,0,1-.05-.29.26.26,0,0,1,.25-.16h1.31c0-.05,0-.1,0-.15,0-.34,0-.68,0-1s.1-.33.32-.33h1.89c.24,0,.33.1.33.34s0,.66,0,1c0,0,0,.1,0,.16h1.27a.28.28,0,0,1,.3.17.28.28,0,0,1-.1.33l-2.52,2.48-.13.11Z"/><path d="M20.07,6.46l.73.7L22.68,9l.09.09a.27.27,0,0,1-.2.45H21.26c0,.05,0,.1,0,.15,0,.33,0,.67,0,1s-.1.34-.33.34H19c-.24,0-.33-.1-.33-.34s0-.76,0-1.15H17.44a.28.28,0,0,1-.3-.17.28.28,0,0,1,.1-.33l2.52-2.48.13-.11Z"/><path d="M20,12.15h3a2.49,2.49,0,0,1,2.3,1.33l3,5.22a2.45,2.45,0,0,1,0,2.62l-3,5.24A2.46,2.46,0,0,1,23,27.85H16.91a2.42,2.42,0,0,1-2.2-1.26q-1.55-2.65-3.09-5.32a2.4,2.4,0,0,1,0-2.54q1.53-2.66,3.08-5.31a2.43,2.43,0,0,1,2.2-1.27ZM20,27h2.76a2.15,2.15,0,0,0,1.94-1.11q1.39-2.37,2.76-4.75a2.12,2.12,0,0,0,0-2.23q-1.37-2.38-2.76-4.75A2.14,2.14,0,0,0,22.74,13H17.26a2.16,2.16,0,0,0-2,1.14l-2.73,4.71a2.14,2.14,0,0,0,0,2.27l2.73,4.71a2.17,2.17,0,0,0,2,1.14Z"/><path d="M28.43,26.32l-1-.57c-.22-.13-.26-.25-.13-.48l.93-1.6a.29.29,0,0,1,.46-.12l1,.58.57-1,.09-.15a.27.27,0,0,1,.5.07l.28,1,.63,2.39c.06.24,0,.36-.24.42l-3.39.92a.3.3,0,0,1-.35-.08.28.28,0,0,1,0-.34Z"/><path d="M10.25,24.14l1-.56c.24-.14.36-.11.5.13l.91,1.57c.13.22.1.35-.13.48l-1,.55,0,0,.07.12.57,1a.27.27,0,0,1-.32.41l-3.47-.94a.27.27,0,0,1-.21-.36l.91-3.46a.27.27,0,0,1,.23-.22A.27.27,0,0,1,9.6,23l.57,1Z"/><path d="M10.28,15.87,9.63,17a.27.27,0,0,1-.27.15.26.26,0,0,1-.24-.21l0-.05-.53-2-.35-1.34c-.07-.25,0-.36.24-.43l3.35-.91.08,0a.27.27,0,0,1,.31.41l-.58,1-.07.12,1,.55c.26.15.29.26.14.52l-.91,1.56a.29.29,0,0,1-.46.13Z"/><path d="M28.47,13.66l-.63-1.09a.42.42,0,0,1-.06-.22.26.26,0,0,1,.36-.22l1.83.5,1.6.44a.28.28,0,0,1,.23.4l-.9,3.4a.28.28,0,0,1-.24.24.28.28,0,0,1-.3-.17l-.56-1-.08-.13-.33.19-.7.4a.27.27,0,0,1-.4-.09l-1-1.71a.26.26,0,0,1,.12-.39l.9-.52Z"/><path d="M20,21.76h-.82a.3.3,0,0,1-.3-.17q-.41-.72-.83-1.44a.28.28,0,0,1,0-.32l.84-1.45a.28.28,0,0,1,.27-.16h1.69a.28.28,0,0,1,.27.16l.84,1.45a.28.28,0,0,1,0,.32l-.84,1.45a.28.28,0,0,1-.27.16Z"/><path d="M16,20.53h.85a.27.27,0,0,1,.27.15L18,22.14a.27.27,0,0,1,0,.3l-.85,1.46a.28.28,0,0,1-.27.15H15.45a.16.16,0,0,1-.17-.09l-1.09-1.87a.15.15,0,0,1,0-.18l.7-1.21a.29.29,0,0,1,.29-.17Z"/><path d="M16,19.47h-.83a.26.26,0,0,1-.26-.14l-.72-1.25a.18.18,0,0,1,0-.15q.54-1,1.1-1.9a.2.2,0,0,1,.14-.08h1.44a.26.26,0,0,1,.25.14L18,17.58a.25.25,0,0,1,0,.27l-.87,1.5a.24.24,0,0,1-.23.13Z"/><path d="M24,20.53h.83a.26.26,0,0,1,.26.14l.72,1.25a.18.18,0,0,1,0,.15q-.54,1-1.1,1.9a.2.2,0,0,1-.14.08H23.11a.26.26,0,0,1-.25-.14L22,22.42a.25.25,0,0,1,0-.27l.87-1.5a.24.24,0,0,1,.23-.13Z"/><path d="M24,19.47H23.1a.25.25,0,0,1-.24-.13L22,17.86a.26.26,0,0,1,0-.29l.85-1.47a.27.27,0,0,1,.26-.15h1.43a.15.15,0,0,1,.16.09l1.09,1.89a.19.19,0,0,1,0,.16l-.71,1.24a.26.26,0,0,1-.26.15Z"/><path d="M20,14h1.08a.16.16,0,0,1,.17.1l.7,1.21a.28.28,0,0,1,0,.32L21.11,17a.28.28,0,0,1-.27.16H19.15a.28.28,0,0,1-.27-.16L18,15.59a.28.28,0,0,1,0-.32l.7-1.21a.16.16,0,0,1,.17-.09Z"/><path d="M20,26H18.91a.16.16,0,0,1-.17-.09L18,24.73a.28.28,0,0,1,0-.32L18.88,23a.29.29,0,0,1,.28-.16h1.67a.3.3,0,0,1,.29.17l.84,1.44a.28.28,0,0,1,0,.32l-.7,1.21a.16.16,0,0,1-.17.1Z"/><path d="M15.72,15.13a1.78,1.78,0,0,1,2.15-1.26s0,0,0,0c-.19.32-.37.65-.56,1a.51.51,0,0,1-.44.25Z"/><path d="M24.27,24.87a1.8,1.8,0,0,1-2.17,1.25.61.61,0,0,1,0-.08l.51-.88a.52.52,0,0,1,.43-.29C23.47,24.86,23.86,24.87,24.27,24.87Z"/><path d="M26.45,21.12c-.19-.32-.38-.63-.54-1a.55.55,0,0,1,0-.42c.15-.33.34-.63.52-1A1.69,1.69,0,0,1,26.45,21.12Z"/><path d="M13.57,21.2a1.69,1.69,0,0,1,0-2.31l.06.09.46.79a.57.57,0,0,1,0,.6Z"/><path d="M24.24,15.05c-.36,0-.71,0-1.05,0a.46.46,0,0,1-.38-.23c-.19-.31-.37-.62-.55-.93C23,13.65,23.79,14.1,24.24,15.05Z"/><path d="M15.75,24.94h1a.46.46,0,0,1,.39.22c.2.31.38.63.57,1A1.67,1.67,0,0,1,15.75,24.94Z"/></svg>