<svg xmlns="http://www.w3.org/2000/svg" class="HeroAbility-icon HeroAbility-icon--hoverState" viewBox="0 0 40 40" preserveAspectRatio="xMidYMid meet"><path id="_Path_" data-name="&lt;Path&gt;" d="M16.26,32.15c-2.88-.6-7.88-1.82-10-2.35a2,2,0,0,1-1.43-1.24c-.16-.4-.32-.88-.45-1.33a.64.64,0,0,1,.87-.75c2.2.85,7.34,3.19,11.23,5.06A.32.32,0,0,1,16.26,32.15Z"/><path d="M13.66,27.57a17.69,17.69,0,0,1-4.6-5.36.54.54,0,0,0-.8-.14l-1,1a.89.89,0,0,0,.29,1.36,34.86,34.86,0,0,0,5.87,3.41C13.63,27.92,13.83,27.72,13.66,27.57Z"/><path id="_Path_2" data-name="&lt;Path&gt;" d="M24.95,32c2.75-.7,7.5-2.11,9.53-2.71A1.88,1.88,0,0,0,35.75,28c.11-.42.24-.91.32-1.37a.67.67,0,0,0-.91-.74c-2.06.94-6.84,3.49-10.46,5.52A.33.33,0,0,0,24.95,32Z"/><path d="M28.07,27.41a15.54,15.54,0,0,0,3.52-5.49.35.35,0,0,1,.63-.07L33.05,23a1.16,1.16,0,0,1-.19,1.49,22,22,0,0,1-4.59,3.18A.19.19,0,0,1,28.07,27.41Z"/><g id="_Group_" data-name="&lt;Group&gt;"><g id="_Group_2" data-name="&lt;Group&gt;"><path d="M20.22,30l7.32-4.38c.47-.28.18-1.12-.44-1.29l-2.54-.66V11.32a1.8,1.8,0,0,0-1.29-1.63l-6.7-1.79a1,1,0,0,0-1.29.94V21.21l-2.82-.78c-.62-.17-.9.53-.44,1.05l7.32,8.3A.72.72,0,0,0,20.22,30Z"/></g></g></svg>