<svg xmlns="http://www.w3.org/2000/svg" class="HeroAbility-icon HeroAbility-icon--hoverState" viewBox="0 0 40 40" preserveAspectRatio="xMidYMid meet"><g id="_Group_" data-name="&lt;Group&gt;"><path id="_Compound_Path_" data-name="&lt;Compound Path&gt;" class="cls-1" d="M33.22,21.21c.08.62.16,1.24.23,1.86.05.44.09.89.16,1.32a.68.68,0,0,1-.29.77,1.15,1.15,0,0,0-.46.72c-.12.37-.26.74-.4,1.11-.08.21-.29.29-.48.38a.9.9,0,0,0-.38.39c-.46.76-.37,1.58-1.2,2a5.15,5.15,0,0,1-1.43,0c-1,0-1.91-.14-2.85-.26a18.56,18.56,0,0,1-4.06-.91,4.21,4.21,0,0,1-2.78-2.18c-.27-.66-.58-1.3-.89-1.94a1.75,1.75,0,0,0-1.63-.93c-.28,0-.35.23-.44.43-.15.35-.28.71-.41,1.06a1.64,1.64,0,0,1-2.09,1.08,16.73,16.73,0,0,1-4.45-1.85,11.31,11.31,0,0,1-2.23-1.43c-.39-.77-.46-2.89-.75-3.71a.36.36,0,0,1,.15-.46c.29-.21.57-.43.86-.65A.6.6,0,0,1,8,17.88c-.06.42.26.55.55.73A1.51,1.51,0,0,1,9,19l-.14.3,1,.35,3.36,1.07c1.12.36,2.27.65,3.34,1.11a21,21,0,0,0,3.69.88c1.45.34,2.91.58,4.38.81s2.71.45,4.06.66a12.73,12.73,0,0,0,2.08.26.71.71,0,0,0,.75-.59,3.62,3.62,0,0,0,.14-1.33.8.8,0,0,1,.47-.83,1.32,1.32,0,0,0,.43-.37C32.79,21.13,33,21.11,33.22,21.21ZM9.94,20.65h0a1,1,0,0,0-.82-.27c-.34,0-.46.05-.37.4a18.31,18.31,0,0,1,1.45,1.14c.27-.34.28-.45.09-.67.06,0,.13,0,.1-.09.18-.13.11-.3.07-.46a.55.55,0,0,0-.35-.07l.23.48C10.15,21,10.09,20.8,9.94,20.65Zm12.34,3.53a.32.32,0,0,1,.27.14,1.1,1.1,0,0,0,.85.58s0,0,.06.06-.15.08-.14.2a1.76,1.76,0,0,1,.69,0,1,1,0,0,0,1.13-.22c.2-.18.48-.16.78-.29-1-.22-2-.39-3-.53a2.13,2.13,0,0,0-.81-.07,13.23,13.23,0,0,0-2.28-.25c.37.39.51.91,1.08,1.07s.89.49,1.44.41c0-.18-.28-.16-.3-.36.21.06.36.23.57.27,0,0,0-.08,0-.11C22.73,24.68,22.48,24.45,22.28,24.18Zm.06,2.47h0s.09-.08.07-.14a13.62,13.62,0,0,1-1.14-.89c.51.18.88.66,1.5.68-.08-.31.21,0,.25-.15a8.05,8.05,0,0,0-2.58-1.37,3.68,3.68,0,0,1,.19.94,1.8,1.8,0,0,0,.8,1.41,1.49,1.49,0,0,0,.67.36.91.91,0,0,1,.43-.23c0-.19.17-.35.09-.55S22.44,26.66,22.34,26.65Zm3.19.34a.85.85,0,0,1,.31,0c1.2.4,2.4.79,3.58,1.24a.56.56,0,0,0,.54-.09c.13-.14.14-.27.22-.45.25-.55.45-1.12.73-1.63a.46.46,0,0,0-.47-.18l-.6.05A30.36,30.36,0,0,1,26,26a.78.78,0,0,0-.74.84A.22.22,0,0,0,25,27a.31.31,0,0,1-.34.2c-.08,0-.17,0-.26,0,.09.26.2.52.29.79a.4.4,0,0,0,.35.28,14.77,14.77,0,0,0,3.37.38,3.91,3.91,0,0,0,1.21-.21c-.37-.16-1-.41-1.35-.55Zm-14.79-3.2c-.08-.15-.15-.33-.43-.22.15.14.23.29.43.22,0,.3.25.34.45.47,0-.13,0-.24,0-.34.22.11.23.33.27.53a9.41,9.41,0,0,0,2.84.8,1,1,0,0,0,1-.48,2.73,2.73,0,0,0,.32-1.25.91.91,0,0,0-.49-.92c-.47-.28-.91-.69-1.59-.48.12-.15.27-.07.32-.17a1,1,0,0,0-1.33,0,.51.51,0,0,1,.25-.43,2.24,2.24,0,0,0-.73-.31c0,.13-.19.1-.27.19-.1.36.36.36.4.65l-.12.2.16.12-.07,0a5.21,5.21,0,0,0,.48,1.06c-.18,0-.32,0-.41.09s.1.25.05.42c-.32-.13-.25-.45-.41-.65.13-.06.19.14.32,0-.15-.17-.19-.43-.4-.59-.12.08,0,.19-.1.25s-.17-.19-.31-.24-.31-.08-.34.18c.32.2.17.55.27.83-.22.09-.23-.2-.39-.18s0,.2-.1.29Zm19.6,2-.07,0a22.5,22.5,0,0,0-2.9-.8,3.37,3.37,0,0,0-1.79,0c-.36.11-.45.44-.77.63A12.37,12.37,0,0,0,30.35,25.75Zm-8,1.88a13.33,13.33,0,0,0,2.31.62,1.15,1.15,0,0,0-.18-.4c-.17-.07-.38-.08-.46-.29a2.69,2.69,0,0,0-.32-.46.37.37,0,0,0-.37-.16C22.89,27,22.73,27.36,22.36,27.62ZM8.9,21.38c0-.12,0-.27-.17-.36-.11.57,0,1.38.38,1.46l.44-.42c-.05-.12-.2-.15-.18-.29s.2-.06.3-.16C9.36,21.62,9.22,21.25,8.9,21.38Zm2.49-.4a2.5,2.5,0,0,0-.73-.23c0,.28-.11.54,0,.77s.22,0,.29.11a.22.22,0,0,0,.27.06.3.3,0,0,0,.07-.34c-.19-.07-.4.06-.59-.09C10.88,21,11.24,21.31,11.39,21Z"/><path id="_Path_" data-name="&lt;Path&gt;" class="cls-1" d="M30.52,22.09a12.22,12.22,0,0,1-1.4-.37c.11-.27.19-.52.31-.75.48-1,.88-2,1.31-3s.82-1.83,1.17-2.77a10.09,10.09,0,0,0,.68-2.41,1.77,1.77,0,0,0-.46-1.42c-.44-.51-.88-1-1.32-1.54-.23-.27-.21-.47.06-.71a.44.44,0,0,1,.7,0c.48.59.95,1.19,1.43,1.78a2.83,2.83,0,0,1,.42,2.57c-.44,1.95-1.17,3.81-1.78,5.7-.27.84-.58,1.66-.91,2.47C30.67,21.81,30.6,21.93,30.52,22.09Z"/><path id="_Path_2" data-name="&lt;Path&gt;" class="cls-1" d="M12.6,17.68c.13-.5-.2-.6-.46-.75a.51.51,0,0,1-.26-.72c.07-.19.24-.23.4-.28.61-.2,1.24-.38,1.84-.6.92-.34,1.84-.64,2.78-.92,1.11-.34,2.21-.7,3.34-.95a2.41,2.41,0,0,1,2.17.47c.4.33.85.6,1.28.9a1.16,1.16,0,0,1,.29.28,1.39,1.39,0,0,1-.17.62c-.22.12-.35,0-.52-.13a8.85,8.85,0,0,0-1.75-1.35,1,1,0,0,0-.72-.07A9.91,9.91,0,0,0,18.6,15q-1.11.48-2.2,1c-.65.3-1.29.64-1.95.94S13.27,17.4,12.6,17.68Z"/><path id="_Path_3" data-name="&lt;Path&gt;" class="cls-1" d="M13.13,23l2.18.84,0,.09-2.18-.84Z"/><path id="_Path_4" data-name="&lt;Path&gt;" class="cls-1" d="M12.81,23.5a.72.72,0,0,1,.56.34A.93.93,0,0,1,12.81,23.5Z"/><path id="_Path_5" data-name="&lt;Path&gt;" class="cls-1" d="M14.1,24.78a1.39,1.39,0,0,1-.52-.56l.57.49Z"/><path id="_Path_6" data-name="&lt;Path&gt;" class="cls-1" d="M11.73,23.86c.14,0,.17.09.22.2C11.8,24.05,11.76,24,11.73,23.86Z"/><path id="_Path_7" data-name="&lt;Path&gt;" class="cls-1" d="M13.71,23.43c0,.08-.08.09-.16.08S13.62,23.42,13.71,23.43Z"/><path id="_Path_8" data-name="&lt;Path&gt;" class="cls-1" d="M14.92,22.69c0-.06.07-.06.11,0S15,22.69,14.92,22.69Z"/><path id="_Path_9" data-name="&lt;Path&gt;" class="cls-1" d="M22.34,26.65a1.38,1.38,0,0,1-.76.06,2.09,2.09,0,0,1,.77-.05Z"/><path id="_Path_10" data-name="&lt;Path&gt;" class="cls-1" d="M9.6,20.9c.11,0,.16,0,.14.15S9.59,21,9.6,20.9Z"/><path id="_Path_11" data-name="&lt;Path&gt;" class="cls-1" d="M9.94,20.65l0,.27a.18.18,0,0,1,0-.27Z"/></g></svg>