<svg xmlns="http://www.w3.org/2000/svg" class="HeroAbility-icon HeroAbility-icon--hoverState" viewBox="0 0 40 40" preserveAspectRatio="xMidYMid meet"><g id="_Group_20" data-name="&lt;Group&gt;"><g id="_Group_21" data-name="&lt;Group&gt;"><g id="_Group_22" data-name="&lt;Group&gt;"><path d="M21.77,15.81V14.2a8.67,8.67,0,0,1,1.57-.74c.59.25,1,.66,1.62.92a4.45,4.45,0,0,1,.19,1.71,5.69,5.69,0,0,1-1.52.88A12,12,0,0,1,21.77,15.81Z"/></g><g id="_Group_23" data-name="&lt;Group&gt;"><path d="M23.8,23l1.25.75a.34.34,0,0,1,.2.27,7.18,7.18,0,0,1-.1,1.34.71.71,0,0,1-.47.57c-.46.21-.83.56-1.3.76a5.22,5.22,0,0,1-.83-.32,7.37,7.37,0,0,1-.87-.39c0-.59,0-1.21,0-1.87A16.54,16.54,0,0,1,23.8,23Z"/></g><g id="_Group_24" data-name="&lt;Group&gt;"><path d="M28.27,20.13a.14.14,0,0,0,0-.07c0-.35,0-.69,0-1a.52.52,0,0,0-.21-.45l-1.52-1.14a.53.53,0,0,0-.64,0c-.55.32-1.1.63-1.62,1a15.19,15.19,0,0,0-.05,3.19c.54.47,1.25.73,1.77,1.24a.6.6,0,0,0,.54-.12l1.15-.86h0l.28-.21a.6.6,0,0,0,.28-.55c0-.29,0-.57,0-.86Z"/></g><g id="_Group_25" data-name="&lt;Group&gt;"><path d="M19.55,29a.67.67,0,0,1-.29-.83c.44-.27,1-.36,1.44-.6.42.33,1,.28,1.39.72l-.15.69a2.89,2.89,0,0,1-1.34.39c-.27,0-.49-.2-.75-.26C19.76,29.08,19.65,29,19.55,29Z"/></g><g id="_Group_26" data-name="&lt;Group&gt;"><path d="M19,11.8c0-.66.09-.81.71-1a3.56,3.56,0,0,0,.7-.28.68.68,0,0,1,.63,0,7.09,7.09,0,0,0,.93.31.36.36,0,0,1,.3.31l.13.63a.84.84,0,0,1-.22.27,8.22,8.22,0,0,0-1.16.44.84.84,0,0,1-.57,0c-.42-.1-.78-.34-1.2-.43C19.1,12,19,11.92,19,11.8Z"/></g><g id="_Group_27" data-name="&lt;Group&gt;"><path d="M29.18,15c.19.62.24,1.21.37,1.79a.56.56,0,0,1-.14.56,6.29,6.29,0,0,1-.45.48.8.8,0,0,1-.64-.15c-.44-.31-.88-.61-1.29-.95a1.09,1.09,0,0,1-.42-.91,4.48,4.48,0,0,1,0-.92c0-.2-.21-.29-.2-.51.25-.52.79-.54,1.29-.63.17,0,.29.11.4.22A9.16,9.16,0,0,0,29.18,15Z"/></g><g id="_Group_28" data-name="&lt;Group&gt;"><path d="M28.74,22.22a3.14,3.14,0,0,0-1,.6h0l0,0a4.27,4.27,0,0,1-.8.54,1.57,1.57,0,0,0-.3,1,2.16,2.16,0,0,1-.24,1.27,1.15,1.15,0,0,0,1.79.36,3.94,3.94,0,0,1,1-.86c.24-.68.25-1.38.46-2.07A1.31,1.31,0,0,0,28.74,22.22Z"/></g><g id="_Group_29" data-name="&lt;Group&gt;"><path d="M29.92,18l-.11.07A9,9,0,0,0,29,19c0,.75,0,1.5,0,2.26a.67.67,0,0,0,.08.22l.8.6a1.51,1.51,0,0,0,.95-1.05c0-.72,0-1.45,0-2.16A4,4,0,0,0,29.92,18Z"/></g><g id="_Group_30" data-name="&lt;Group&gt;"><path d="M23.65,11.27a1.21,1.21,0,0,1,1.22-.37,5.19,5.19,0,0,1,1.44.76,1.29,1.29,0,0,1,.5,1.08,1,1,0,0,1-1.27.22c-.61-.3-1.17-.67-1.77-1C23.66,11.72,23.77,11.47,23.65,11.27Z"/></g><g id="_Group_31" data-name="&lt;Group&gt;"><path d="M26.74,27.14a1.27,1.27,0,0,1-.68,1.35c-.29.15-.56.33-.86.48a1.47,1.47,0,0,1-1.45-.08,5.25,5.25,0,0,1,0-.68c.24-.37.65-.49,1-.71s.64-.29.94-.47a.62.62,0,0,1,.74,0A1.42,1.42,0,0,0,26.74,27.14Z"/></g></g><g id="_Group_32" data-name="&lt;Group&gt;"><path d="M22.66,19.59l-3.1-5.18c-.2-.33-.8-.13-.91.31l-.51,1.9H9.37a1.27,1.27,0,0,0-1.15.91L6.95,22.27a.68.68,0,0,0,.67.91h8.76l-.51,1.9c-.12.44.37.64.75.31l5.88-5.18A.51.51,0,0,0,22.66,19.59Z"/></g><g id="_Group_33" data-name="&lt;Group&gt;"><path id="_Path_17" data-name="&lt;Path&gt;" d="M26.06,28.5c-.29.15-.56.33-.86.48l-.18.08L25.2,29C25.5,28.83,25.77,28.65,26.06,28.5Z"/><path id="_Path_18" data-name="&lt;Path&gt;" d="M24.68,29.13h0Z"/><path id="_Path_19" data-name="&lt;Path&gt;" d="M25.5,11.17a5.09,5.09,0,0,1,.5.28h0a5.08,5.08,0,0,0-.5-.28Z"/><path id="_Path_20" data-name="&lt;Path&gt;" d="M24.85,29.1l.12,0Z"/><path id="_Path_21" data-name="&lt;Path&gt;" d="M24.61,29.13h0Z"/><path id="_Path_22" data-name="&lt;Path&gt;" d="M21.86,8.71a11.12,11.12,0,0,0-3.25.49c-.28.4,0,.64.53.78a4.88,4.88,0,0,0,.62.13,1.89,1.89,0,0,0,.31-.13,1.27,1.27,0,0,1,.64-.18,1.49,1.49,0,0,1,.51.1l.23.08a4.79,4.79,0,0,0,.58.19h.08a.42.42,0,0,1,.31.12,9.66,9.66,0,0,1,1.27.16,1.93,1.93,0,0,1,.9-.23h0a1.51,1.51,0,0,1,.49.08,5.79,5.79,0,0,1,1.61.85,1.89,1.89,0,0,1,.74,1.32,9.85,9.85,0,0,1,.74.72,1.45,1.45,0,0,1,.34.29l0,0a8.46,8.46,0,0,0,1,1l.16.12.06.19A9.2,9.2,0,0,1,30,16l.06.31a9.85,9.85,0,0,1,.42,1.37,5.18,5.18,0,0,1,.79.8l.14.17v.22q0,.31,0,.63c0,.51,0,1,0,1.55a2,2,0,0,1-1,1.48c0,.17-.09.33-.15.5l-.06.19a7,7,0,0,0-.19.89,7.1,7.1,0,0,1-.28,1.2l-.09.25-.24.11a2.08,2.08,0,0,0-.56.48l-.26.26a1.65,1.65,0,0,1-.58.35c-.2.21-.41.4-.62.59a1.9,1.9,0,0,1-1,1.68l-.37.21c-.16.09-.32.19-.5.28a2,2,0,0,1-.9.22,2.34,2.34,0,0,1-1.11-.31l-.1-.05q-.45.07-.9.1l-.33.08A3.39,3.39,0,0,1,20.6,30a1.57,1.57,0,0,1-.71-.2l-.18-.08a1.6,1.6,0,0,1-.25-.09l-.05,0-.09,0-.09-.06h0a1.29,1.29,0,0,0-.39.07.64.64,0,0,0-.37.95,11,11,0,0,0,1.43.36,11.18,11.18,0,1,0,2-22.19Z"/><path id="_Path_23" data-name="&lt;Path&gt;" d="M15.39,27.38a1.16,1.16,0,0,1-.57-.14l-.39.62a1.42,1.42,0,0,1,.29.63,11.24,11.24,0,0,0,2,1.35,2.45,2.45,0,0,1,.46,0v0a4.19,4.19,0,0,0,.38-.67,2.12,2.12,0,0,1-.4-.55A10.69,10.69,0,0,1,15.39,27.38Z"/><path id="_Path_24" data-name="&lt;Path&gt;" d="M13.8,25.89l-.4-.45a.75.75,0,0,0-.38-.08c-.63,0-.57.42-.39.85.17.25.35.5.54.74l.13.16.11.05.49-.4A1.7,1.7,0,0,1,13.8,25.89Z"/><path id="_Path_25" data-name="&lt;Path&gt;" d="M15.18,11.72v0c.22.27.58.1.89-.05l.08,0a.45.45,0,0,1,.34,0l.55-.27a2.9,2.9,0,0,0,.12-.87c0-.48-.52-.4-.9-.25s-.58.35-.85.55-.44.53-.32.82A.63.63,0,0,0,15.18,11.72Z"/><path id="_Path_26" data-name="&lt;Path&gt;" d="M13.07,14h.13l.12-.12c.27-.26.56-.5.86-.75.11-.37.18-.73,0-.81a.86.86,0,0,0-.54,0,11.25,11.25,0,0,0-.92,1.13l0,.05a.91.91,0,0,0,0,.31Z"/></g></g></svg>