<svg xmlns="http://www.w3.org/2000/svg" class="HeroAbility-icon HeroAbility-icon--hoverState" viewBox="0 0 40 40" preserveAspectRatio="xMidYMid meet"><path d="M22.29,15.71l.46,0L20,10.8l-2.75,4.93.46,0Z"/><path d="M28.63,20.52l2.6-6.45-6.76,2A6.61,6.61,0,0,1,28.63,20.52Z"/><path d="M29,21.46l5.7,1.42V21.27A11.4,11.4,0,0,0,32,13.91Z"/><path d="M15.53,16.08l-6.76-2,2.6,6.45A6.61,6.61,0,0,1,15.53,16.08Z"/><path d="M5.69,23.51l5.44,4.92V22.29s0-.09,0-.14Z"/><path d="M34.31,23.51l-5.44-1.36s0,.09,0,.14v6.13Z"/><path d="M29.61,28.71C34.44,27.66,34.7,26,34.7,26h0V24.11Z"/><path d="M5.3,24.11V26h0s.26,1.71,5.09,2.76Z"/><path d="M23.5,15.64l8-2.38a10.5,10.5,0,0,0-7.5-3.18H20.4Z"/><path d="M16.5,15.64l3.1-5.56H16.05a10.5,10.5,0,0,0-7.5,3.18Z"/><path d="M11,21.46,8,13.91A11.4,11.4,0,0,0,5.3,21.27v1.61Z"/><path d="M19.89,26.9a4.87,4.87,0,0,0-1.77,3c1.16,0,2.36,0,3.55,0A4.89,4.89,0,0,0,19.89,26.9Z"/><path d="M22.29,16.41H17.71a5.89,5.89,0,0,0-5.89,5.89v6.77a21,21,0,0,0,5.19.78,8.33,8.33,0,0,1,2.44-3.5l.43-.34.43.34a7.24,7.24,0,0,1,2.33,3.47,34.1,34.1,0,0,0,5.53-.74V22.29A5.89,5.89,0,0,0,22.29,16.41Z"/></svg>