<svg xmlns="http://www.w3.org/2000/svg" class="HeroAbility-icon HeroAbility-icon--hoverState" viewBox="0 0 40 40" preserveAspectRatio="xMidYMid meet"><g id="_Group_2" data-name="&lt;Group&gt;"><path id="_Path_" data-name="&lt;Path&gt;" d="M6.68,16.81c.67-.21,1.2.21,1.69.73a1,1,0,0,1,.29.35c0,.09.12.1.2.12.71.22,1.43.4,2.13.63a2.92,2.92,0,0,1,1.14.63,2.25,2.25,0,0,1,.36.53,7.67,7.67,0,0,0,1.21,1.39,4.57,4.57,0,0,0,.87.66,2.16,2.16,0,0,0,.7.22.15.15,0,0,0,.2-.14c0-.09,0-.18,0-.28s.06-.14.17-.11a5.24,5.24,0,0,0,.88.12c.14,0,.19.08.2.22,0,.37.08.4.43.37a2.27,2.27,0,0,0,.94-.25,7.32,7.32,0,0,1,.87-.35,2.36,2.36,0,0,0,.85-.74c.22-.28.26-.25.58-.13a1.13,1.13,0,0,1,.67.88c.22.77.33,1.57.47,2.36v.06c.11.65.14.45-.41.83A.56.56,0,0,1,21,25c-.65.23-.65.29-1.09-.32a1.62,1.62,0,0,0-.75-.45l-.12,0c-.48-.12-.62-.08-.9.34a7.8,7.8,0,0,0-.43.78.52.52,0,0,1-.57.31A13.51,13.51,0,0,1,11.78,24,13.34,13.34,0,0,1,10,23c-.4-.3-.76-.62-1.13-1a.3.3,0,0,1-.09-.31,2,2,0,0,0-.51-1.5A.79.79,0,0,0,7.71,20,2.51,2.51,0,0,0,7,19.9a.32.32,0,0,1-.33-.17A8.13,8.13,0,0,1,5.74,18,4.17,4.17,0,0,1,5.58,17c0-.16,0-.23.2-.23Z"/><path id="_Path_2" data-name="&lt;Path&gt;" d="M31.44,13.25l-.84.34a8.85,8.85,0,0,0-1.52.67.56.56,0,0,1-.33.07h-5a.52.52,0,0,1-.42-.19,4.42,4.42,0,0,0-.86-.7.3.3,0,0,0-.17-.06c-.07,0-.16,0-.2.05s.05.11.11.16a2.56,2.56,0,0,1,.64.66.85.85,0,0,1-1-.16,5.42,5.42,0,0,0-.82-.65.31.31,0,0,0-.17-.06c-.07,0-.16,0-.2,0s.05.12.1.16a2.67,2.67,0,0,1,.66.69,2.22,2.22,0,0,1-.59,0c-.23,0-.34-.12-.49-.26a5,5,0,0,0-.77-.61c-.16-.09-.16-.09-.43,0,.25.29.6.47.78.83a.57.57,0,0,1-.39.06H9.37c-.2,0-.39,0-.59,0s-.26-.08-.23-.26c0,0,0,0,0-.06,0-.4,0-.41.43-.41,1.25,0,2.49,0,3.74,0a.59.59,0,0,0,.61-.36,4.71,4.71,0,0,1,.32-.63c.08-.11,0-.2-.1-.22a1.42,1.42,0,0,0-.25,0H8.11A1.2,1.2,0,0,0,7,13.12a2.94,2.94,0,0,0-.27,1c0,.17-.06.23-.24.23-.6,0-.54.08-.6-.53,0-.33-.08-.66-.08-1a2.51,2.51,0,0,1,.29-1.14c.07-.14.19-.14.32-.14H24.5c.38,0,.45.07.45.45s0,.76,0,1.14c0,.23,0,.27.27.28.58,0,.58,0,.57-.52,0-.35,0-.7,0-1,0-.17,0-.24.22-.24.91,0,1.81,0,2.72,0,.32,0,.65-.07,1-.07s.47-.08.63,0,.11.37.18.56a.79.79,0,0,0,.34.47A1.65,1.65,0,0,1,31.44,13.25Z"/><path id="_Compound_Path_" data-name="&lt;Compound Path&gt;" d="M23,18.16l.89-1.07c.35-.42.71-.83,1.06-1.25a.53.53,0,0,1,.48-.21c.83,0,1.67,0,2.5,0a.92.92,0,0,1,.63.33c.32.28.32.29,0,.52-.21.13-.44.22-.64.37a2.87,2.87,0,0,0-.26.22c-.07.07-.14.16-.07.27a.26.26,0,0,0,.27.12,1,1,0,0,0,.4-.16,8,8,0,0,0,.82-.5c.16-.12.22-.07.3.07a2.58,2.58,0,0,0,.51.62.69.69,0,0,0,.41.18c.32,0,.64,0,1,.08a.3.3,0,0,0,.18,0,13.28,13.28,0,0,1,1.48-.52c.22-.08.44-.17.7-.29-.08.24-.14.44-.22.63s-.14.4-.22.6a.48.48,0,0,0,0,.44.2.2,0,0,1,0,.14,8.07,8.07,0,0,0,0,1.41.42.42,0,0,0,.08.23L34.89,23a23.27,23.27,0,0,1,1.47,2.88.9.9,0,0,1-.06.74,4.21,4.21,0,0,1-.81,1.27.35.35,0,0,1-.35.13,8,8,0,0,0-1-.19.14.14,0,0,1-.14-.16,8,8,0,0,1,0-.92c0-.19,0-.29-.23-.25a.55.55,0,0,1-.53-.24A10.06,10.06,0,0,1,32,24.67,9.26,9.26,0,0,0,30.66,23a.33.33,0,0,1-.11-.35,2.36,2.36,0,0,0,.05-.24.89.89,0,0,0-.28-.85c-.56-.54-1.18-1-1.72-1.6a.65.65,0,0,0-.51-.21,6.82,6.82,0,0,0-1.5.1c-.14,0-.21,0-.28-.13a9.65,9.65,0,0,0-.93-1,1.15,1.15,0,0,0-.65-.3c-.36,0-.7-.16-1.06-.2C23.47,18.18,23.29,18.2,23,18.16Zm6.23-.63a.18.18,0,0,0-.09-.15.31.31,0,0,0-.35,0l-1.13.68a.37.37,0,0,0-.13.13.26.26,0,0,0,0,.34c.1.09.21.05.31,0a4.5,4.5,0,0,1,.75-.42,2,2,0,0,0,.48-.33A.44.44,0,0,0,29.27,17.53Zm5.83,9.7c0-.13-.07-.18-.19-.19a.29.29,0,0,0-.32.26.19.19,0,0,0,.17.22A.36.36,0,0,0,35.1,27.24Z"/><path id="_Path_3" data-name="&lt;Path&gt;" d="M28.79,14.63a4.8,4.8,0,0,1-.55.67.29.29,0,0,1-.25.09c-.9,0-1.81,0-2.71,0a.38.38,0,0,0-.34.16l-1,1.15-1.86,2.22A.27.27,0,0,0,22,19c-.16.47-.59.43-1,.49a.23.23,0,0,1-.24-.09,2.38,2.38,0,0,0-.45-.46.37.37,0,0,1-.12-.33c0-.44,0-.89,0-1.33a.6.6,0,0,0-.22-.53c-.37-.34-.7-.72-1-1.1a.56.56,0,0,0-.48-.2c-.8,0-1.61.05-2.41,0s-1.32.07-2,0a.77.77,0,0,0-.48.18,2.46,2.46,0,0,0-.76.8A4.9,4.9,0,0,0,12.2,18a3.19,3.19,0,0,0,0,.43c0,.26,0,.28-.27.21L9.66,18l-.18-.05a1.39,1.39,0,0,1-.81-.46,4.48,4.48,0,0,0-.61-.56,1.32,1.32,0,0,1-.44-.54A1.11,1.11,0,0,1,8,14.95a1.44,1.44,0,0,1,1-.37c3.55,0,7.1,0,10.65,0,.46,0,.5,0,.48.51a5.09,5.09,0,0,0,0,.55c0,.24.1.32.29.31s.21-.14.22-.3.06-.57.08-.86.08-.22.23-.22h.19c.46,0,.49,0,.48.49,0,.2,0,.39,0,.59s.08.3.26.3.23-.06.25-.3.06-.57.08-.86.08-.22.23-.21h.09c.48,0,.53,0,.5.52a5.43,5.43,0,0,0,0,.55c0,.17.05.31.26.31s.23-.06.25-.3,0-.53.08-.8,0-.28.32-.28h4.17A2.28,2.28,0,0,1,28.79,14.63Z"/><path id="_Path_4" data-name="&lt;Path&gt;" d="M35.09,28.29a8.54,8.54,0,0,1-.94,1c-.31.31-.64.61-.93.94a2.33,2.33,0,0,1-.87.62,10.6,10.6,0,0,0-1.51.83,1.5,1.5,0,0,1-.32.19c-.27.09-.43.22-.38.53,0,.08,0,.11-.12.14a2,2,0,0,1-1.88,0q-2.27-.72-4.56-1.41a7.06,7.06,0,0,0-.93-.27c-.08,0-.11-.07-.15-.13l-2-2.78a.28.28,0,0,1,0-.36l.28-.41c.13,0,.16.15.23.21a.68.68,0,0,0,.33.22c.62.1,1.19.36,1.79.51s1.19.32,1.79.49l1.81.5,1.78.49c.6.17,1.22.31,1.81.51a1.15,1.15,0,0,0,.8,0,3,3,0,0,0,1.19-.62c.41-.41.88-.74,1.3-1.13a.72.72,0,0,1,.73-.21A4.6,4.6,0,0,1,35.09,28.29Z"/><path id="_Compound_Path_2" data-name="&lt;Compound Path&gt;" d="M21.47,25.1a.7.7,0,0,1-.14.4c-.33.66-.69,1.3-1.09,1.92a.54.54,0,0,1-.54.29,12.75,12.75,0,0,1-3-.39c-.72-.16-1.45-.3-2.16-.49a9.65,9.65,0,0,1-1.08-.4c-.8-.31-1.6-.64-2.41-.94a6.06,6.06,0,0,1-1-.55A5.46,5.46,0,0,1,8.72,24a17.13,17.13,0,0,1-3.25-5A5.87,5.87,0,0,1,5,16.5c0-.08,0-.18.1-.2s.14.1.15.19c0,.3,0,.59.05.89a5.37,5.37,0,0,0,.72,2c.12.23.28.43.4.66a.33.33,0,0,0,.35.19,3.34,3.34,0,0,1,.49,0c.8.06,1,.65,1.17,1.27a.71.71,0,0,1-.07.42c-.09.22,0,.33.2.42a.72.72,0,0,1,.22.16A8.94,8.94,0,0,0,11.13,24c.82.39,1.62.81,2.47,1.13a12.76,12.76,0,0,0,3.76.78c.36,0,.37,0,.53-.33s.29-.57.45-.84.31-.36.69-.27a1.4,1.4,0,0,1,.74.47c.52.61.53.61,1.29.32ZM7.77,21.78c.32,0,.42-.14.33-.45a2.71,2.71,0,0,0-.29-.61.37.37,0,0,0-.39-.19.38.38,0,0,0-.31.26A.79.79,0,0,0,7.77,21.78Zm11.74,3.83a.46.46,0,0,0-.67-.47.82.82,0,0,0-.31.24.5.5,0,0,0,.09.67.4.4,0,0,0,.55.1A.78.78,0,0,0,19.51,25.61Z"/><path id="_Compound_Path_3" data-name="&lt;Compound Path&gt;" d="M21.35,26.09l.08-.17c.24-.47.24-.46.74-.25a2.16,2.16,0,0,1,.78.53c.47.52,1,1,1.44,1.53a.52.52,0,0,0,.28.17c1.13.23,2.23.56,3.35.85a10.31,10.31,0,0,0,1.41.14c.11,0,.19-.06.28-.12a5.5,5.5,0,0,0,1.65-1.64.33.33,0,0,0,0-.37.84.84,0,0,1-.06-.49.66.66,0,0,0-.16-.51A18.65,18.65,0,0,1,29.46,23a1,1,0,0,0-.53-.47,6.88,6.88,0,0,1-1.46-.73.56.56,0,0,1-.26-.43,7.76,7.76,0,0,0-.17-1c-.05-.22,0-.23.2-.27a10.16,10.16,0,0,1,1,0c.07,0,.11.06.15.1.52.54,1.13,1,1.65,1.53a.61.61,0,0,1,.21.66.77.77,0,0,0,.26.93,8.52,8.52,0,0,1,1.5,1.95c.31.5.74.91,1.09,1.37a.33.33,0,0,0,.31.12c.19,0,.23.09.22.25a1,1,0,0,0,0,.25.92.92,0,0,1-.44,1A16.12,16.12,0,0,0,32,29.3a2.72,2.72,0,0,1-1.26.56.67.67,0,0,1-.33,0l-8-2.2c-.28-.08-.28-.09-.17-.29a.82.82,0,0,0-.68-1.22Zm6.83-4.79a.26.26,0,0,0-.24-.27.32.32,0,0,0-.32.26.28.28,0,1,0,.56,0Z"/><path id="_Path_5" data-name="&lt;Path&gt;" d="M17.38,20a2.19,2.19,0,0,1-2.46,0,1.55,1.55,0,0,1-.46-.61c-.08-.15,0-.23.13-.27L15,19c.09,0,.16-.07.14-.17s-.13-.12-.22-.09l-.29.1c-.21.07-.28,0-.32-.19a.9.9,0,0,1,0-.37c0-.13.06-.26.1-.39a2.07,2.07,0,0,1,2-1.38h.09c.5.07.52.1.33.55a.76.76,0,0,0,0,.11c0,.08,0,.17.07.21s.15,0,.19-.11l0-.06c.18-.46.21-.36.52-.12a1.92,1.92,0,0,1,.51,2.14c-.11.24-.13.25-.36.1l-.1-.07c-.23-.18-.31-.18-.5.05s-.15.26,0,.4A.89.89,0,0,1,17.38,20Z"/><path id="_Path_6" data-name="&lt;Path&gt;" d="M21.7,20.31a1,1,0,0,1-.12.52.51.51,0,0,0,.17.67.67.67,0,0,1,.19.76.69.69,0,0,0,.2,1,.64.64,0,0,1,.09.67.63.63,0,0,0,.08.81c.13.14.11.22,0,.31s-.1.14,0,.18a1.19,1.19,0,0,0,.14.06,1.92,1.92,0,0,1,1.23,1c.15.23.34.43.51.65.05.07.12.07.19.09l2,.6.61.19a3.61,3.61,0,0,0,1.42.19A5,5,0,0,1,29,28a.73.73,0,0,0,.55-.22,6.37,6.37,0,0,1,.62-.5s.11-.07.11-.11c0-.34.16-.67,0-1a10.17,10.17,0,0,0-1.07-1.87,6.67,6.67,0,0,1-.41-.64,2,2,0,0,0-.88-.72c-.34-.21-.65-.46-1-.64a.36.36,0,0,1-.19-.3c0-.49-.14-1-.14-1.46,0-.14.06-.19.19-.23a6.28,6.28,0,0,1,.22,1.3.39.39,0,0,0,.23.34c.57.36,1.19.6,1.79.9a.58.58,0,0,1,.24.27,22.54,22.54,0,0,0,1.41,2.35,1.46,1.46,0,0,0,.13.18,1.62,1.62,0,0,1,.32,1.3.3.3,0,0,1-.07.17,5.86,5.86,0,0,1-1.09,1.17,1.47,1.47,0,0,1-1,.29,3.79,3.79,0,0,1-1-.16c-1-.28-2-.54-3-.78a.85.85,0,0,1-.39-.23c-.59-.56-1.12-1.17-1.68-1.77a.31.31,0,0,0-.18-.11c-.26,0-.47-.2-.72-.27s-.15-.12-.1-.24a1.42,1.42,0,0,0,0-.82c-.13-.72-.26-1.44-.4-2.15A3.6,3.6,0,0,0,21,20.9c-.08-.13-.09-.23.11-.25A1,1,0,0,0,21.7,20.31Z"/><path id="_Path_7" data-name="&lt;Path&gt;" d="M30.84,14.59H32.1c.07,0,.16,0,.21,0,.31-.17.41.07.52.26a5.56,5.56,0,0,1,.53,1.57c.06.28,0,.36-.27.47-.57.23-1.18.36-1.75.6a.58.58,0,0,1-.28,0,4.65,4.65,0,0,0-.49,0,.85.85,0,0,1-.76-.39,6.22,6.22,0,0,0-1.23-1.45.15.15,0,0,1,0-.24l.57-.69c.08-.1.21-.08.32-.08Z"/><path id="_Path_8" data-name="&lt;Path&gt;" d="M36.69,26.53l.32,1a.23.23,0,0,1-.06.23,11.46,11.46,0,0,1-1.37,1.73c-.29.26-.54.57-.84.82a1.51,1.51,0,0,0-.56,1.11.69.69,0,0,1-.38.6c-.42.24-.82.5-1.22.76a.8.8,0,0,1-.62.12,4.08,4.08,0,0,0-.77-.05l-.46,0a.3.3,0,0,1-.32-.29.34.34,0,0,1,.2-.4,16.92,16.92,0,0,1,2.28-1.22.61.61,0,0,0,.24-.18c.51-.61,1.11-1.13,1.67-1.69s.95-1,1.39-1.57a4.21,4.21,0,0,0,.37-.77S36.59,26.57,36.69,26.53Z"/><path id="_Path_9" data-name="&lt;Path&gt;" d="M16.53,15.69a1.76,1.76,0,0,1,1.4.46,2.74,2.74,0,0,1,1.2,1.93,2.56,2.56,0,0,1-.3,1.81c-.09.14-.15.18-.27.05l-.09-.09c-.23-.22-.21-.22-.11-.53a2.12,2.12,0,0,0-.4-2.27,2.37,2.37,0,0,0-1.12-.78,2.32,2.32,0,0,0-1.61.23A2,2,0,0,0,14,18.22a2,2,0,0,0,.65,1.93,2.39,2.39,0,0,0,2.06.5,5,5,0,0,0,.8-.23c.13-.05.42.16.41.29a.12.12,0,0,1-.08.09,2.21,2.21,0,0,1-.69.33,5.78,5.78,0,0,0-.6.13,1.36,1.36,0,0,1-1-.14c-.26-.15-.54-.28-.8-.44,0,0-.07-.06-.1-.07-.62-.12-.84-.63-1-1.12a2.77,2.77,0,0,1,.28-2.57c.08-.13.15-.27.23-.4a2,2,0,0,1,1.63-.84C16,15.68,16.22,15.69,16.53,15.69Z"/><path id="_Path_10" data-name="&lt;Path&gt;" d="M23.67,18.48c.36.07.79.13,1.2.24a1.64,1.64,0,0,1,.64.51c.24.24.44.51.67.76s.08.2,0,.27a2.07,2.07,0,0,0-.95,1.29,1.64,1.64,0,0,1-.72.89c-.13.1-.23.05-.33,0s-.08-.16,0-.28a1.19,1.19,0,0,0,0-1.39.41.41,0,0,1-.05-.11.87.87,0,0,0-.65-.57c-.4-.1-.49-.36-.33-.74a5.92,5.92,0,0,0,.26-.67C23.4,18.48,23.49,18.47,23.67,18.48Z"/><path id="_Compound_Path_4" data-name="&lt;Compound Path&gt;" d="M8.22,14.37a3.69,3.69,0,0,1-.51.49c-.06.06-.13,0-.2,0a.31.31,0,0,0-.39.09.36.36,0,0,0,0,.46,1,1,0,0,1,.19.65c0,.48,0,.48-.45.48h-1a.23.23,0,0,1-.27-.22A2,2,0,0,0,5.45,16a1,1,0,0,0-.93-.69c-.33,0-.35-.06-.34-.4a3.27,3.27,0,0,1,.12-.76.47.47,0,0,1,.5-.41h.58c.15,0,.23,0,.23.2s0,.35.06.52a.21.21,0,0,0,.24.22,4.94,4.94,0,0,1,.83,0c.12,0,.24,0,.25-.16s.07-.16.18-.15Zm-2.51.5c-.13,0-.23.06-.23.22a.3.3,0,0,0,.29.29A.25.25,0,0,0,6,15.12.29.29,0,0,0,5.71,14.88Zm-.32-1c0-.08,0-.15-.13-.13s-.27,0-.32.18,0,.14.11.15S5.38,14,5.39,13.89Z"/><path id="_Path_11" data-name="&lt;Path&gt;" d="M5,18.69H4.27a.25.25,0,0,1-.16-.07,1.83,1.83,0,0,1-.69-1.15,4.33,4.33,0,0,1,.07-1.07c0-.11.1-.11.19-.11.29,0,.57,0,.86,0s.25.07.24.25a6.07,6.07,0,0,0,.13,1.53C4.93,18.26,5,18.46,5,18.69Z"/><path id="_Path_12" data-name="&lt;Path&gt;" d="M17.84,15.72a1,1,0,0,1,1,.29,2.68,2.68,0,0,1,1,2.09,3.75,3.75,0,0,0,0,.46,2.81,2.81,0,0,1-.68,2,2.17,2.17,0,0,1-1,.8c-.05,0-.12.07-.16,0s0-.1.08-.14a3.14,3.14,0,0,0,1.36-2.52,3.2,3.2,0,0,0-.49-1.93,2.67,2.67,0,0,0-.77-.78A1.16,1.16,0,0,1,17.84,15.72Z"/><path id="_Path_13" data-name="&lt;Path&gt;" d="M12.44,13.29a.15.15,0,0,1,0-.14c.07-.16,0-.23-.15-.27a.75.75,0,0,0-.21,0H8.15c-.38,0-.51.14-.54.52,0,.15,0,.21.18.22H8.1c.12,0,.25,0,.22.17s0,.33-.23.33H7.19c-.1,0-.2,0-.17-.15a2,2,0,0,1,.45-1,.82.82,0,0,1,.61-.26h5c.25,0,.26,0,.16.24C13,13.33,12.92,13.37,12.44,13.29Z"/><path id="_Path_14" data-name="&lt;Path&gt;" d="M3.11,17.32a2.24,2.24,0,0,1-.31-.81,6.41,6.41,0,0,1,0-2.45A2.72,2.72,0,0,1,3,13.12c.21-.36.19-.37.63-.33,0,0,0,0,0,0a7.72,7.72,0,0,0-.39,2.85A12.24,12.24,0,0,1,3.11,17.32Z"/><path id="_Path_15" data-name="&lt;Path&gt;" d="M33.67,16.72a5.67,5.67,0,0,0-1.51-3.27,2.35,2.35,0,0,0,.65,0,.25.25,0,0,1,.26.16c.11.24.24.47.35.71s.11.24.25.29.1.08.12.16c.09.36.2.72.29,1.08,0,.14.07.28-.12.37S33.77,16.52,33.67,16.72Z"/><path id="_Path_16" data-name="&lt;Path&gt;" d="M8.07,11.3a2.18,2.18,0,0,1-.55,0c-.37,0-.74,0-1.11,0-.21,0-.26-.07-.27-.27,0-.63,0-.61.59-.63a.79.79,0,0,1,.67.28C7.6,10.91,7.83,11.08,8.07,11.3Z"/><path id="_Path_17" data-name="&lt;Path&gt;" d="M13.71,16a4,4,0,0,0-.45,4.37,1.24,1.24,0,0,1-.47-.58,2.39,2.39,0,0,0-.41-.61s-.11-.08-.06-.15.09-.45.12-.68A4.1,4.1,0,0,1,13.56,16,.12.12,0,0,1,13.71,16Z"/><path id="_Path_18" data-name="&lt;Path&gt;" d="M29.7,14.25l1.83-.73c.11,0,.17,0,.25.05a2.09,2.09,0,0,1,.69.75H29.7Z"/><path id="_Path_19" data-name="&lt;Path&gt;" d="M2.54,16.77s-.07,0-.09,0a1.8,1.8,0,0,1-.72-1.53,1.27,1.27,0,0,1,.48-.86.17.17,0,0,1,.17,0c.08,0,.07.09.06.15a6.7,6.7,0,0,0,.12,2.23S2.55,16.75,2.54,16.77Z"/><path id="_Path_20" data-name="&lt;Path&gt;" d="M14.55,15.74a3.72,3.72,0,0,0-1.12,1.63,3.09,3.09,0,0,0,.65,3.28s.15.09.07.17-.14,0-.2-.07a3.17,3.17,0,0,1-.77-1.58,3.56,3.56,0,0,1,1-3.23A.44.44,0,0,1,14.55,15.74Z"/><path id="_Path_21" data-name="&lt;Path&gt;" d="M10,13.32H8.05s-.11,0-.11-.08A.11.11,0,0,1,8,13.14l.24,0h3.54c.09,0,.27-.06.27.1s-.17.11-.28.11Z"/><path id="_Path_22" data-name="&lt;Path&gt;" d="M22,27a.4.4,0,0,1-.42.34c-.37,0-.62-.22-.61-.48a.51.51,0,0,1,.56-.46C21.87,26.39,22,26.7,22,27Z"/><path id="_Path_23" data-name="&lt;Path&gt;" d="M20.19,20.33a.74.74,0,0,0-.57.41,5,5,0,0,1-.58.59.4.4,0,0,1-.35.11,4.25,4.25,0,0,0,1.46-2.3c.12,0,.17.08.23.16C20,19.57,20,19.93,20.19,20.33Z"/><path id="_Path_24" data-name="&lt;Path&gt;" d="M20.51,19.46c.14.09.21.17.16.32a.25.25,0,0,0,.17.34c.17.05.27-.05.34-.19s0-.1,0-.15a.24.24,0,0,1,.32-.1c.12,0,0,.16,0,.24a.63.63,0,0,1-.69.45.5.5,0,0,1-.47-.67A2.53,2.53,0,0,1,20.51,19.46Z"/><path id="_Path_25" data-name="&lt;Path&gt;" d="M26.74,11.33A3.78,3.78,0,0,1,27.89,11c.05,0,.11,0,.15,0s.23.14.22.26-.16.06-.24.06H27A.31.31,0,0,1,26.74,11.33Z"/><path id="_Path_26" data-name="&lt;Path&gt;" d="M3.92,14.35a1.91,1.91,0,0,1,0,.54,4.4,4.4,0,0,0,.15.94c0,.06.06.12,0,.16a.17.17,0,0,1-.22,0,.55.55,0,0,1-.14-.3A3.25,3.25,0,0,1,3.92,14.35Z"/><path id="_Path_27" data-name="&lt;Path&gt;" d="M25.5,12.59c0,.15,0,.31,0,.46a.13.13,0,0,1-.15.15c-.1,0-.11-.08-.11-.15,0-.29,0-.57,0-.86,0-.13.09-.16.18-.17s.09.1.1.17,0,.27,0,.4Z"/><path id="_Path_28" data-name="&lt;Path&gt;" d="M3.94,12.9,4,13c.14.38.19.73-.23,1-.08,0-.1.19-.18.28A3.78,3.78,0,0,1,3.94,12.9Z"/><path id="_Path_29" data-name="&lt;Path&gt;" d="M4.75,16c-.33,0-.38,0-.45-.28s0-.18.13-.17a.85.85,0,0,1,.59.22s.12.1.08.18S5,16,4.94,16Z"/><path id="_Path_30" data-name="&lt;Path&gt;" d="M22,19.66c.12-.62.59-.92.89-1.37,0,.21.06.22-.33.72A2.47,2.47,0,0,1,22,19.66Z"/><path id="_Path_31" data-name="&lt;Path&gt;" d="M31.56,12.86c.28.06.4.28.54.51C31.79,13.31,31.72,13,31.56,12.86Z"/></g></svg>