<svg xmlns="http://www.w3.org/2000/svg" class="HeroAbility-icon HeroAbility-icon--hoverState" viewBox="0 0 40 40" preserveAspectRatio="xMidYMid meet"><rect x="8.8" y="22.28" width="0.62" height="1.47"/><path d="M7.84,21.85H7.66a.16.16,0,0,0-.11,0h0a.16.16,0,0,1-.11,0H3.8v2.19H7.45a.16.16,0,0,1,.11,0h0a.16.16,0,0,0,.11,0h.18l.08,0,.69-.39V22.26l-.69-.39ZM6.5,22.9v.85a.07.07,0,0,1-.07.07H4.53a.07.07,0,0,1-.07-.07V22.3a.07.07,0,0,1,.07-.07H6.44a.07.07,0,0,1,.07.07Z"/><rect x="9.61" y="22.28" width="0.43" height="1.47"/><polygon points="15.73 22.18 15.14 22.18 15.14 23.88 15.73 23.88 15.73 23.88 15.75 23.88 15.75 22.18 15.73 22.18 15.73 22.18"/><polygon points="15.28 19.06 15.14 19.13 15.14 20.35 15.75 20.35 15.75 19.05 15.28 19.06"/><path d="M13.34,17.41l.09-.1,0,0,0,0Zm0,0a.06.06,0,0,0,0,0A.06.06,0,0,1,13.31,17.45Zm1.75-.6a.13.13,0,0,0,0-.07l0-.05a.13.13,0,0,0-.1,0l-.71,0-.26.25-.06-.06.25-.25-.42-.48-.63-.06a.13.13,0,0,0-.14.13l0,1.07.16.2a.26.26,0,0,1,.06-.15l.11-.13a.26.26,0,0,1,.19-.09h1.6Zm-1.79-.29a.14.14,0,1,1,.14-.14A.14.14,0,0,1,13.27,16.55Zm1.54.37a.08.08,0,1,1,.08-.08A.08.08,0,0,1,14.81,16.93Z"/><path d="M13.42,17.31l-.11.13a.07.07,0,0,0,0,.05l.29,2.35a.2.2,0,0,0,.19.17h.71a.2.2,0,0,0,.18-.13L15,19l.27-.15h2.46s.08.46.11.68a.85.85,0,0,0,.14.37h0l0,0,0,0,0,0,0,0,0,0h0l0,0H19.4V17.29H13.47Zm5.41.56a.11.11,0,1,1-.11.11A.11.11,0,0,1,18.83,17.87Zm-.46,1.72.13-.15a0,0,0,0,1,0,0h0a0,0,0,0,1,0,0l-.13.15a0,0,0,0,1,0,0h0A0,0,0,0,1,18.37,19.58Zm-3.2-2a.08.08,0,0,1,.11,0l.32.38a.08.08,0,1,1-.12.1l-.32-.38A.08.08,0,0,1,15.17,17.62Zm-.62,0a.08.08,0,0,1,.11,0L15,18a.08.08,0,1,1-.12.1l-.32-.38A.08.08,0,0,1,14.55,17.62Zm-.59,0a.08.08,0,0,1,.11,0l.32.38a.08.08,0,1,1-.12.1l-.32-.38A.08.08,0,0,1,14,17.62Zm0,1.71h0a0,0,0,0,1,.05,0l.14.17a0,0,0,0,1,0,.05h0a0,0,0,0,1-.05,0l-.14-.17A0,0,0,0,1,13.94,19.33Zm-8.55-1H5.21a.16.16,0,0,0-.11,0h0a.16.16,0,0,1-.11,0H1.35v2.19H5a.16.16,0,0,1,.11,0h0a.16.16,0,0,0,.11,0h.18l.08,0,.69-.39V18.73l-.69-.39ZM4.05,19.37v.85a.07.07,0,0,1-.07.07H2.08A.07.07,0,0,1,2,20.22V18.78a.07.07,0,0,1,.07-.07H4a.07.07,0,0,1,.07.07Zm13.56.2c0-.13-.06-.37-.09-.52H15.94v1.42l.2.07h.1a1.73,1.73,0,0,1,.68,0,2.4,2.4,0,0,0,.66.07c.15,0,.55-.12.74,0l.22.16a.19.19,0,0,0,.15,0c.15,0,.45-.1.57-.15a.45.45,0,0,0,.14-.1v-.32H18.33C18,20.29,17.68,20,17.62,19.57Zm-10.46.66h.43V18.76H7.16Zm.62-1.47v1.47H12l-.21-1.47Zm6.85,1.41v.07H15v-.6l-.1.3A.39.39,0,0,1,14.63,20.17Zm-8.28.07H7V18.76H6.35Zm12.34,1.44a.19.19,0,0,0-.15,0l-.22.16c-.19.14-.59,0-.74,0a2.4,2.4,0,0,0-.66.07,1.73,1.73,0,0,1-.68,0h-.1l-.2.07V24l.2.07h.1a1.73,1.73,0,0,1,.68,0,2.4,2.4,0,0,0,.66.07c.15,0,.55-.12.74,0l.22.16a.19.19,0,0,0,.15,0c.15,0,.45-.1.57-.15a.45.45,0,0,0,.14-.1V21.91a.45.45,0,0,0-.14-.1C19.14,21.77,18.83,21.7,18.68,21.67Zm.71-4.57v-.22l-.19-.19-1.44.26a.1.1,0,0,0-.07.05l-.05.1Z"/><polygon points="12.25 22.29 10.23 22.29 10.23 23.76 12.47 23.76 12.25 22.29"/><polygon points="13.94 22.29 14.16 23.76 14.95 23.76 14.95 22.29 13.94 22.29"/><polygon points="13.65 22.29 13.65 22.29 13.65 22.29 13.59 22.16 13.36 22.13 13.28 22.26 12.77 22.26 12.71 22.13 12.58 22.13 12.54 22.25 12.78 23.93 13.7 23.93 13.88 23.84 13.71 22.68 13.65 22.29"/><path d="M13.24,18.62l-.06-.53h-.87l-.33.33,0,.2Zm-.84-.38.12.24h-.35Z"/><path d="M12.28,20.46h.19V20.4l0-.13H13l.1.17v0h1.29l.06-.07,0-.2h-.66a.39.39,0,0,1-.38-.34l-.14-1.19H12Z"/><polygon points="13.13 20.56 13.34 22.03 13.37 22.04 13.62 22.07 13.46 20.97 13.74 20.56 13.13 20.56"/><polygon points="12.29 20.56 12.51 22.03 12.52 22.03 12.7 22.03 12.48 20.56 12.29 20.56"/><polygon points="12.83 22.17 13.22 22.17 13.26 22.11 13.02 20.47 12.96 20.36 12.57 20.36 12.55 20.4 12.8 22.11 12.83 22.17"/><polygon points="24.35 17.46 23.86 17.46 23.86 17.98 23.86 18.94 24.35 18.94 24.35 17.46"/><polygon points="19.87 17.37 20.37 17.37 20.37 16.25 19.82 16.25 19.87 16.25 19.87 17.37"/><polygon points="24.55 17.98 24.55 16.4 24.55 16.4 24.45 16.3 24.45 18.9 24.55 18.8 24.55 17.98"/><polygon points="24.35 16.25 24.4 16.25 23.86 16.25 23.86 16.25 23.86 17.37 24.35 17.37 24.35 16.25"/><polygon points="19.78 16.3 19.73 16.35 19.68 16.4 19.68 17.98 19.68 18.8 19.78 18.9 19.78 16.3"/><path d="M21.58,19.93l.71,0,.08-.36-.79,0h0l-.12,0-.15.07,0,.14.17.09A.29.29,0,0,0,21.58,19.93Zm-.38-.8H21.1l.1.06Zm.45.3.75,0,.07-.31v0h-1l-.07,0,0,.15.16.09A.29.29,0,0,0,21.66,19.43Zm.64,1.29c0,.18-.1.39-.15.62h.39c.06-.22.12-.44.18-.66Zm-.19.8.39-.07v0h-.38Zm.91.8a3,3,0,0,1,.06-.47l-.23-.18-.28-.07a5.56,5.56,0,0,0-.12.72Zm.1-3.2H23l-.32,0-.13.58.44,0C23,19.51,23.07,19.32,23.11,19.13Zm-2.41,0v0l.28,0Zm.49,1.2.17.09a.29.29,0,0,0,.13,0h.68l.07-.26,0-.1h-.77l-.12,0-.15.07,0,.11Zm-.26-.45.13.11h0c0-.19.07-.41.11-.62L21,19.27l-.36,0h0l-.06.47,0,.14Zm2.28,2.7a1.52,1.52,0,0,0,.07.37l0,.05,0,.06a1.18,1.18,0,0,0,.25.36l0,0,0,0,.09.07.32.2,0,0,.07,0a1.84,1.84,0,0,0,.31.12V22.53H23.2Zm-1.08-2H21.4a.29.29,0,0,0-.13,0l-.16.08,0,.12.18.1a.29.29,0,0,0,.13,0H22Zm.29-.36-.09.34.42,0,.07-.23.12-.46-.43,0,0,.15Zm-.59,1.93-.73.09a.29.29,0,0,0-.12,0l-.05,0h.89C21.82,22.28,21.82,22.22,21.83,22.17ZM21,20.26l0-.11L20.88,20l-.32,0c0,.13-.06.27-.1.43l-.07.28.38,0,.12.11Zm.19,1.41a.29.29,0,0,0-.12,0l-.12.07,0,.17.16.07.12,0h0l.63,0c0-.13,0-.26.05-.38Zm1.32,1.78-.27.13a3,3,0,0,0,.39.59h.29l.08-.08a2.88,2.88,0,0,1-.48-.6Zm-2-3.69,0-.35-.15.14c0,.17,0,.34-.06.51l.14-.13C20.5,19.86,20.51,19.81,20.52,19.76Zm0,2.09-.3,0L20.2,22c0,.12,0,.25,0,.37h.51c0-.11,0-.22,0-.33Zm-.36.68a4.15,4.15,0,0,0,.06.46l.35-.07.1.07a4.48,4.48,0,0,1,0-.46ZM22,21.1l-.74,0a.29.29,0,0,0-.13,0l-.11.06,0,.11h.95Zm.57,2.16.24-.14L23.1,23A1.71,1.71,0,0,1,23,22.6l-.2-.07h-.38a1.89,1.89,0,0,0,.11.74Zm-.12.06a2,2,0,0,1-.12-.76l-.32.09a2.37,2.37,0,0,0,.17.8Zm1,.25a1.37,1.37,0,0,1-.29-.42l-.29.11-.23.13,0,0,0,0a2.79,2.79,0,0,0,.45.57l.14-.2Zm.63.61h.43a2,2,0,0,1-.4-.15Zm-.52-.51-.23.25-.15.21.06.06h.69l0-.23h0l-.33-.21Zm-1.09-2.05-.39.07a5.11,5.11,0,0,0-.07.65h.34A5.58,5.58,0,0,1,22.47,21.61Zm-2.4.49q0,.12,0,.23h0c0-.08,0-.17,0-.25l0,0Zm.1.92a4.29,4.29,0,0,1-.06-.49h0a4,4,0,0,0,.06.54Zm0,.18,0,.05a4.77,4.77,0,0,0,.29.88c-.07-.26-.15-.55-.23-.87ZM20.86,21l-.14-.13-.33,0,0,0c0,.12-.05.25-.08.38h.54Zm-.65.08,0,0h0l0,.21h0Zm-.06.34h0c0,.15,0,.29-.05.44l0,0C20.12,21.7,20.14,21.57,20.16,21.44Zm-.28.54v-.26h0c0-.09,0-.17,0-.26h0v0h-.25v.9h.16Zm0,1.12a4.25,4.25,0,0,1-.06-.58h-.19V24l.18.16h.39A7.3,7.3,0,0,1,19.93,23.1Zm.1-2.25.05-.32,0-.28v-.07h0l0-.15c0-.16,0-.33.06-.5v0h-.06a.14.14,0,1,1,.08-.25v-.14h-.53l0-.05v2.26H20Zm7.76-2.42h-.66l-1-.45H24.74v.9h1.41l1.07.42.31-.29h0v-.07a.19.19,0,0,1,0-.14ZM24.63,19l-.09.09-.06.06h-.71l0,.28,0,.44h0l0,.28h0l0,.2-.1.61v0l-.06.25,0,.19H26a.38.38,0,0,1,0-.06.19.19,0,0,1,0-.07v0a.19.19,0,0,1,0-.1l.45-1,0-.06.47-.45h0l0,0,0,0,.08-.08-1-.4Zm1.55.42a.12.12,0,1,1-.12-.12A.12.12,0,0,1,26.18,19.41Zm-5.44,3.76-.16-.11-.3.06,0,.1c.08.35.17.67.25.95h.55c-.1-.17-.17-.33-.22-.45A2.18,2.18,0,0,1,20.74,23.17Zm2.62-3.29v0l.1.26c0-.19.06-.39.08-.59l-.34-.41c0,.19-.09.38-.13.56Zm-1.3,3.76a2.11,2.11,0,0,1-.15-.4l-.69.15a.24.24,0,0,0-.11.06l-.09.08,0,.12.06.14.06,0,.08,0h0l.75-.16Zm4-2.09,0-.09H23.4l0,.12,0,0-.06.23,0,.07v.07a2.81,2.81,0,0,0-.06.44h3.23a4,4,0,0,1-.38-.79Zm-5,1.64.11,0h0l.72-.09a2.9,2.9,0,0,1-.06-.43l-.72.09a.26.26,0,0,0-.12,0l-.09.06c0,.09,0,.17,0,.25Zm1.07.54-.62.3a.21.21,0,0,0-.09.08l0,.08h.82l.17-.08h0A3.27,3.27,0,0,1,22.1,23.72Zm-1-1.09h0l.67-.08s0,0,0,0h-.93v0l.12,0Zm-.32-1.2h-.54c0,.1,0,.2,0,.31l.4-.05.13.13C20.76,21.69,20.78,21.56,20.8,21.44Zm2.63-1h0L23.24,20l-.21-.1-.12.45-.06.22.29.12.16.32C23.34,20.83,23.38,20.62,23.42,20.4Zm-1.49,1h-.87l.08,0,.13,0h0l.64,0Zm1.66-2.31h-.24l.22.25Zm-3,0h-.15l0,.2.16-.15Zm2.58,2.31h-.58v0l.31.07.21.16C23.13,21.61,23.16,21.52,23.18,21.44Zm-2.91-.62.09-.36.07-.3-.12.11,0,.29-.05.32Zm3,.38h0L23,20.79l-.23-.1c-.06.21-.12.43-.18.65h.58Z"/><path d="M23.54,19.58l-.34-.41c0,.19-.09.38-.13.56l.29.14v0l.1.26C23.49,20,23.52,19.78,23.54,19.58Zm-1.08,2-.39.07a4.83,4.83,0,0,0-.07.82l.33-.1A5.38,5.38,0,0,1,22.47,21.61Zm0-3.89-.11,0-.42,0h-.11l-.19.06,0,.13.17.1.12,0,.81.08c0-.1,0-.19,0-.29h-.06A.57.57,0,0,1,22.42,17.72ZM22.7,19l.45,0c0-.16.07-.33.1-.48H22.8C22.77,18.67,22.73,18.85,22.7,19Zm-1.19-.68.15.09.12,0,.82.07.06-.34-.86-.07h-.12l-.16.05Zm.79,2.39c-.06.24-.13.51-.19.8l.39-.07c.06-.26.14-.52.21-.77Zm.46,1.63.26.09a2.86,2.86,0,0,1,.06-.58l-.23-.18-.28-.07a5.41,5.41,0,0,0-.12.77Zm-.21.93h0l.24-.14L23.1,23A1.71,1.71,0,0,1,23,22.6l-.28-.1-.3,0A1.89,1.89,0,0,0,22.54,23.28Zm.91.29a1.37,1.37,0,0,1-.29-.42l-.29.11-.23.13,0,0,0,0a2.79,2.79,0,0,0,.45.57l.14-.2ZM20.7,19.15l.39,0,.11.07.08-.52-.14-.08h-.36ZM20.54,18l.22-.16v-.14l-.23.15Zm.9.86.13.07.12,0,.82.05.06-.29v-.06l-.86-.05-.12,0-.13,0Zm-.94-.23.19-.15c0-.15,0-.3.05-.44l-.21.15C20.52,18.29,20.51,18.44,20.5,18.61Zm1.63,2H21.4a.29.29,0,0,0-.13,0l-.16.08,0,.12.18.1a.29.29,0,0,0,.14,0H22Zm-1.54-.69.34,0,.13.11h0c0-.19.07-.41.11-.62L21,19.27l-.36,0h0l-.06.47Zm.29-2.3v.17h.41l.1.06,0-.25h-.53Zm.49,1.7.16.09a.29.29,0,0,0,.13,0l.75,0,.07-.31v0l-.81,0-.12,0-.15.06Zm-.52-1.37c0,.16,0,.33-.06.51h.38l.12.07.07-.51-.12-.07h-.39Zm.34,2.36v0l.17.09a.29.29,0,0,0,.13,0h.68l.07-.26,0-.1h-.77a.29.29,0,0,0-.13,0l-.15.07Zm1.63-1.95h.44c0-.15,0-.29.07-.42h0l0-.14h-.44C22.88,18,22.86,18.16,22.82,18.35Zm-2.26,3.49-.3,0L20.2,22a4.31,4.31,0,0,0,.06,1l.35-.07.1.07a5.55,5.55,0,0,1,0-1Zm5.15,3a2.3,2.3,0,0,1-.82.17h0l-.05.18a1.94,1.94,0,0,0,.91-.16ZM25,25.91v0a2.81,2.81,0,0,0,.48-.12l0-.49a2,2,0,0,1-.49.07Zm-3-4.8-.74,0a.29.29,0,0,0-.13,0l-.11.06,0,.18.15.07a.29.29,0,0,0,.14,0l.64,0C21.95,21.35,22,21.22,22,21.1Zm4.9,3.06-.21.14,0,.08.54-.47.09-.08v0l-.09.08ZM28.17,23c.19-.14.39-.28.58-.39a5.8,5.8,0,0,0-.5-.66l-.58.46.42.46Zm-.94.41.17.2.66-.52L28,23l-.41-.45-.72.56.38.34Zm-6.16-1.73-.12.07,0,.17.16.07a.29.29,0,0,0,.14,0l.63,0c0-.13,0-.26.05-.38l-.7,0A.29.29,0,0,0,21.07,21.71ZM26.49,24l.15.21.21-.14.34-.27.1-.08-.16-.19-.39-.35-.6.46.35.37Zm-3.82-4.85-.13.58.44,0c0-.19.09-.39.14-.58Zm-1.21.43-.15.07,0,.14.17.09a.29.29,0,0,0,.13,0l.71,0,.08-.36-.79,0Zm1.74,1.78.05-.18h0L23,20.79l-.23-.1c-.07.26-.15.52-.21.79l.31.07.21.16C23.14,21.58,23.17,21.47,23.2,21.38ZM22.47,20l0,.2-.09.34.42,0,.07-.23.12-.46-.43,0Zm1,.36h0L23.24,20l-.21-.1-.12.45-.06.22.29.12.16.32C23.34,20.83,23.38,20.62,23.42,20.4Zm-2.75-1.74-.18.15c0,.16,0,.34-.05.52l.16-.15Zm3-.5L23.42,18c0,.12,0,.25-.06.38l.27.18C23.64,18.42,23.64,18.29,23.65,18.16Zm-3.28,2.3.07-.3-.12.11,0,.29-.05.32.06-.06Zm.15-.7,0-.35-.15.14c0,.17,0,.34-.06.51l.14-.13C20.5,19.86,20.51,19.81,20.52,19.76ZM23.24,19l.33.39c0-.22,0-.44.06-.66l-.29-.2C23.3,18.68,23.27,18.84,23.24,19ZM22,25a.2.2,0,0,0,.12,0l.59-.39a2.91,2.91,0,0,1-.33-.36l-.53.35a.2.2,0,0,0-.07.09l-.05.13.18.2Zm-.85-.69a5.15,5.15,0,0,1-.28-.55,2.18,2.18,0,0,1-.15-.55l-.16-.11-.3.06,0,.1c.11.44.22.84.31,1.17l.36-.18Zm-1.07-2.19,0,0h0a4.26,4.26,0,0,0,.05,1l0-.05A4.36,4.36,0,0,1,20.09,22.09Zm.11,1.1,0,.05a4.77,4.77,0,0,0,.29.88c-.07-.26-.15-.55-.23-.87ZM22,25.31a4.29,4.29,0,0,1-.72-.85L21,24.37l-.33.16,0,.11.1.19a2.9,2.9,0,0,0,.7.82l.36-.34Zm2.88-.4h0a2.21,2.21,0,0,0,.79-.17l-.06-.16-.31-.46a1.37,1.37,0,0,1-.53.08l.08.43Zm-4-8.24h2.57a.38.38,0,0,1,.19.05v-.08a.48.48,0,0,0-.48-.48H21a.48.48,0,0,0-.48.48v.19l.13-.1A.38.38,0,0,1,20.84,16.67Zm5.46,8.67.1-.09L26.7,25l-.12-.26a4.53,4.53,0,0,1-.43.29l.14.29Zm-.5-.65a5.11,5.11,0,0,0,.71-.38l-.14-.2L26,23.73a3.24,3.24,0,0,1-.58.34l.31.46Zm-3.63.78h-.26l-.3.29a3.84,3.84,0,0,0,1.31.6l.13-.35.06,0A3.08,3.08,0,0,1,22.18,25.46Zm5.21-1.4-.3.27.15.21.33-.29L27.41,24Zm.25-.23-.15.13.14.2h0L27.8,24l.12-.14,0-.05-.13-.18Zm.28-.24.11.16a3.27,3.27,0,0,1,.31-.32l-.08-.11Zm-1.36.8a5.18,5.18,0,0,1-.72.39V25a4.2,4.2,0,0,0,.73-.48Zm-4.11-1.07a2,2,0,0,1-.12-.76l-.32.09a2.37,2.37,0,0,0,.17.8ZM27,24.39l-.34.28.16.22.33-.29Zm-.1.7v.12c.21-.21.4-.43.59-.66l-.59.51Zm-.14.11-.23.2a3.15,3.15,0,0,1-.52.37l-.07.12L26,26a5.74,5.74,0,0,0,.79-.66h0Zm-2,1-.19.17,0,.17a3.24,3.24,0,0,0,.8-.15,2.52,2.52,0,0,0,.49-.24l0-.22A3,3,0,0,1,24.79,26.15Zm-1.24-.07-.17,0-.22.06-.1.26a5.21,5.21,0,0,0,1.34.12l.07-.26.08-.07h-.11A5.4,5.4,0,0,1,23.55,26.08Zm4.91-2.75.24-.18s0-.09,0-.15l-.33.23ZM22.17,17.4l.33.14a.38.38,0,0,0,.15,0h.8l.2.14v-.85l-.06,0a.29.29,0,0,0-.18-.07H20.84a.29.29,0,0,0-.17.05l-.2.14v.68l.37-.24Zm-2,3.69,0,0h0c0,.25-.08.5-.1.74l0,0A6.24,6.24,0,0,1,20.22,21.1Zm.65-.08-.14-.13-.33,0,0,0a6.76,6.76,0,0,0-.13.79l.4-.05.13.13C20.78,21.55,20.82,21.28,20.86,21Zm.29,1.62.67-.08c0-.13,0-.25,0-.38l-.73.09a.29.29,0,0,0-.12,0l-.08.05q0,.11,0,.21l.12,0A.29.29,0,0,0,21.15,22.63ZM21,20.26l0-.11L20.88,20l-.32,0c0,.13-.06.27-.1.43l-.07.28.38,0,.12.11Zm3.73,4.64v-.25l-.09-.46a1.83,1.83,0,0,1-.52-.18l-.08.37-.09.26A2.38,2.38,0,0,0,24.73,24.9Zm-1-.23a3.66,3.66,0,0,1-.66-.47l-.23.23a2.78,2.78,0,0,0,.76.48ZM23,24.09a2.88,2.88,0,0,1-.48-.6l0,0-.27.13a2.9,2.9,0,0,0,.53.74Zm.31-.18-.15.21a3.54,3.54,0,0,0,.63.46l.08-.23.09-.4h0l-.33-.21-.1-.07ZM24.72,25a2.48,2.48,0,0,1-.82-.26l-.12.23a3.78,3.78,0,0,0,.89.21Zm1,.73a2.7,2.7,0,0,0,.45-.26l-.1-.38a2.72,2.72,0,0,1-.48.2l.11.41Zm-2.43.09a.18.18,0,0,0,.09-.07l.36-.6a3.17,3.17,0,0,1-.44-.21l-.34.57a.18.18,0,0,0,0,.11v.07Zm.4.09.35,0h0a.16.16,0,0,0,.07-.09l.18-.56a3.78,3.78,0,0,1-.47-.13l-.17.54a.15.15,0,0,0,0,.1Zm.61,0a.13.13,0,0,0,0,.08h.47l.07-.57h-.07l-.42-.06Zm-3.15-2.11.06,0a.24.24,0,0,0,.13,0l.75-.16h0a2.11,2.11,0,0,1-.15-.4l-.69.15a.24.24,0,0,0-.11.06l-.09.08,0,.12Zm1.47,1.66a.19.19,0,0,0,.11-.05l.49-.5a2.89,2.89,0,0,1-.4-.29l-.44.45a.18.18,0,0,0,0,.1l0,.15.21.15ZM21,23.18a.26.26,0,0,0,.14,0l.72-.09a2.9,2.9,0,0,1-.06-.43l-.72.09a.26.26,0,0,0-.12,0l-.09.06c0,.09,0,.17,0,.25Zm.51,1.24a.21.21,0,0,0,.13,0l.66-.32h0a3.27,3.27,0,0,1-.22-.36l-.62.3a.21.21,0,0,0-.09.08l-.05.08.15.24Z"/><path d="M20.37,17.89v-.43h-.5v1.47h.41C20.31,18.66,20.36,18.2,20.37,17.89Z"/><polygon points="28.43 18.47 28.34 18.58 28.33 18.59 28.26 18.68 28.24 18.71 28.11 18.87 28.11 18.9 28.11 19.12 28.11 19.15 28.48 18.81 28.52 18.78 28.55 18.75 28.55 18.74 28.55 18.69 28.56 18.64 28.58 18.28 28.55 18.31 28.43 18.47"/><path d="M29.45,18.89l-.37-.34-.06,0-.17.24,0,0,0,0,0,0,0,0-.14.19,0,.25.33.25h0l0-.17h0l.2-.22,0,0,0,0,0,0,0,0,.17-.19Zm-.45.66.33-.26,0-.18-.36.41Zm2,4.92v-.06l0-.06,0-.07,0-.07,0-.07,0-.07,0-.08,0-.08,0-.08,0-.08,0-.09,0-.08,0-.09,0-.09-.05-.09,0-.09-.06-.1L30.36,23l-.06-.1-.05-.09-.07-.11-.06-.09L30,22.53,30,22.45l-.08-.12-.05-.08-.1-.13,0-.07-.15-.2-.16-.21-.05-.07-.11-.13-.07-.08-.09-.11L29,21.17l-.09-.11L28.85,21l-.09-.1-.07-.08-.09-.09-.07-.07-.08-.09-.07-.07-.08-.08-.07-.06-.08-.07-.07-.06L28,20.15l-.07-.05L27.87,20l-.06,0-.07-.05-.06,0-.06,0-.06,0-.06,0-.05,0-.06,0,0,0,0,0h0l-.47.45-.45,1v0h.2l0,0h0l.05,0h0l.07.05,0,0,.05,0,0,0,0,0,0,0,0,0,0,0,0,0,0,0,0,0,0,0,0,0,0,0,0,0,0,0,0,0,0,0h0l.06-.16,0,0,.71-.54a0,0,0,0,1,.07,0c.45.51,1,1.34,1,1.35a0,0,0,0,1,0,.06l-.61.63-.07.18h0l0,.06v0l0,.07h0l0,.07h0l.05.08v0l.05.09v0L29,24h0l.05.09v0l.05.1v0l.05.1v0l0,.1h0l0,.1v0l0,.09v0l0,.08h0l0,.08h0a.6.6,0,0,1,0,.07h0a.33.33,0,0,1,0,.06h0l1.17-.16.5-.27h0v-.1Zm-.92-2.63h0v0h0v0h0l0,0v0l0-.05h0l0-.05,0,0,0,0,0,0,0,0,0,0,0,0,.05,0,0,0,.07,0h0l.09,0h0l.07,0h0l.07,0h0l-.2-.28a9.71,9.71,0,0,0-1.42-1.52l-.41.33h0a0,0,0,0,1-.06,0l-.38-.29a0,0,0,0,1,0,0l0-.29v0l.14-.2-.11-.07-.42.38h0l-.2,0a0,0,0,0,1,0,0v0l-.47.45h0l0,0,.06,0,.05,0,.06,0,.06,0,.07,0,.06,0,.07.05.07.05L28,20l.07.06.07.06.07.06.08.07.07.07.08.08.07.07.08.08.07.08.08.09.07.08.09.1L29,21l.09.1.07.08.09.11.07.08.11.13.05.07.16.21.15.21.05.07.1.13.06.08.08.12.06.09.07.11.06.09.07.11.05.09.06.1.05.09.06.1,0,.09.05.1,0,.08,0,.09,0,.08,0,.09,0,.08,0,.09,0,.07L31,24l0,.07,0,.08,0,.07,0,.07,0,.06,0,.07v.08l.33-.18a7.77,7.77,0,0,0-1.35-2.49Zm1.51,2-.07-.31a.07.07,0,0,1,0-.08l.45-.29-.13-.32-.38.19h-.05L31.24,23a.07.07,0,0,1,0,0l-.27-.51a.07.07,0,0,1,0-.09l.49-.37c-.14-.24-.29-.48-.46-.72a1.35,1.35,0,0,0-.51.24,1.27,1.27,0,0,0-.29.3,8,8,0,0,1,1.33,2.44l.39-.21-.25-.13A.07.07,0,0,1,31.61,23.88Zm.07-1.7,0,0h0l0,0-.34.19h0l-.19,0,.24.45.18,0,.39-.19,0,0h0l0,0h0l0,0,0,0,.25-.12A2.58,2.58,0,0,0,32,22h0l-.2.11,0,0,0,0Zm5.24-6.79-.42.27h0l-.08.05-.08.05h0L36,16l.54.71.27-.24h0l.07-.06.07-.06h0l.36-.32h0l-.44-.58Zm-4,.11h0l-.1,0h0l-.1,0h0l-.08.1.26.2.1-.08h0l0,0h0l.05,0h0l.1,0h0l.48-.18h.08l-.31-.23Zm-3.63,9.43v-.21l0,0,0,0,0-.05,0,0,0-.06,0,0,0-.06,0-.05,0-.07,0-.06,0-.07,0-.06,0-.08,0-.07-.05-.08,0-.07-.05-.08-.05-.08,0,0h0l-.21.53.05.29c.52.54.79.68.85.64v0h0v0s0,0,0,0A.22.22,0,0,0,29.27,24.94Zm4-9,.43-.32h-.08l-.61.23L33,15.9l.32,0Zm-.15,0h0Zm-.55-.55,0,0h0l.09-.05.34-.19L33,15.12l-.07-.05h0l-.9.25h0l0,.1h0l.59,0Zm-1.37,6.93h0l.52-.29h-.15ZM27.92,19v.11l.12,0v-.28h0l.14-.17,0,0,.1-.12.1-.13.13-.16v0h-.18l0,.05-.1.14-.35.49V19Zm.92,3.56-.16.57.52-.54c-.11-.15-.58-.83-1-1.28l-.66.5-.19.56.81-.62a0,0,0,0,1,.07,0l.57.75A0,0,0,0,1,28.84,22.57Zm-1.44-.52L27.34,22l0,0-.07-.07,0,0-.06-.06,0,0L27,21.69l0,0-.05,0,0,0,0,0,0,0,0,0,0,0,0,0,0,0,0,0,0,0,0,0,0,0h-.18a.08.08,0,0,0,0,.06h0v.07l0,.07h0A5.18,5.18,0,0,0,27,22.65l.2-.15.15-.44Zm4.48,1.52.64-.23-.35-.06-.41.27Zm.84-.22h0l-.36.13-.09,0h0l0,0h0l0,0-.27.1h0l-.21,0,.05.23.22.12.29-.1,0,0h.09l0,0,.38-.12A.78.78,0,0,0,32.71,23.36ZM36.89,20h0l-.22.29h0l0,0,0,0h0l-.06.09h0l-.09.11h0l-.08,0,0,.1s0,.12,0,.22h.09l.17-.24h0l.06-.09h0l.06-.09h0l.19-.28L36.89,20ZM36,20l.13,0,.06-.07h0l.06-.08h0l0,0,0,0h0l.25-.33-.24-.49-.3.35h0l0,0,0,0h0l-.06.07h0l-.12.11v0C35.88,19.73,36,19.91,36,20Zm1.44-4.37a1,1,0,0,0-.14-.18l-.21-.22-.1.14.45.6.16-.06Zm.45,2.61-.07-.15-.06-.12-.08-.15-.06-.12-.09-.16-.07-.12-.1-.16-.07-.12-.11-.17-.07-.11v0h0l-.49,0,0,0,0-.06-.6-.79,0-.06a0,0,0,0,1,0,0l.16-.42h0l0,0-.09-.09-.09-.1-.09-.09-.09-.09L35.56,15l-.09-.09-.09-.08-.08-.07h0l-1.21.17.05,0,0,0,.1.07,0,0,.13.1,0,0,.1.08,0,0,.09.08.05,0,.09.08.05,0,.1.09,0,0,.12.13,0,0,.15.16,0,0,.11.12.05.06.09.11.06.07.09.11.06.07.1.12,0,.06.15.19.15.2,0,.06.1.13.05.07.09.13,0,.07.08.13,0,.06.1.16,0,0,.11.19,0,0,.08.14,0,.06.06.12,0,.06.06.11,0,.06.06.12,0,0,.07.16v0l0,.13,0,0,0,.09,0,.05v0l.45-1h0l-.05-.13ZM36.81,20l-.36.3-.06.29.41-.55Zm-.17-3.23.4,0h.1l.05-.09h0l.36-.62-.11,0-.4.35h0l-.07.06-.07.06h0l-.27.24Zm.75,2.93v-.12l0-.07,0-.06,0-.08,0-.07,0-.08,0-.07,0-.09,0-.08,0-.09,0-.08,0-.09,0-.08-.05-.1,0-.09-.06-.1-.05-.09-.06-.1-.05-.09-.07-.11-.06-.09-.07-.11-.06-.09-.08-.12-.06-.09-.1-.13,0-.07-.15-.2-.15-.19-.05-.06-.1-.13-.06-.07-.09-.11-.07-.08-.08-.1-.07-.08-.08-.09-.07-.08L35.06,16,35,15.91l-.08-.08-.07-.07-.08-.07-.07-.06-.07-.07-.07-.06-.07-.06-.07-.05-.07-.06-.06,0-.07-.05-.06,0-.06,0-.06,0-.06,0-.05,0-.06,0-.05,0,0,0h0l-.43.06-.17.12,0,0a0,0,0,0,1,0,.08h0l-.37.21h0l.57-.21h0l.44.33a0,0,0,0,1,0,.08h0l-.45.34h0l.09.09h0l.13.13,0,0,.13.14.1.1,0,0c.3.32.6.68.9,1.05l.3.38.09.12h0v0l0,0,0-.07,0,0,.06-.07v0l.07-.07,0,0,.05,0,0,0,.05,0,0,0,0,0,.06,0,0,0,.05,0h0l.05,0h0l.06,0h0l0,0h.08a6.73,6.73,0,0,1,1.3,2.55l0-.1h0v-.1Zm-5.08-.46a0,0,0,0,0,0,0l.7-.53a0,0,0,0,0,0-.08l-.81-.34a0,0,0,0,0-.07.05l.11.87A0,0,0,0,0,32.3,19.23Zm.09-.67a.2.2,0,1,1,0,.28A.2.2,0,0,1,32.4,18.55ZM37.3,20A6.38,6.38,0,0,0,36,17.42a1.36,1.36,0,0,0-.39.21,1.65,1.65,0,0,0-.4.44c.24.32.46.64.67,1l.31-.26,0,0h.07a.07.07,0,0,1,.08,0l.28.57a.07.07,0,0,1,0,.08l-.29.37h0l0,.08.09.16.29-.25,0,0h0a.07.07,0,0,1,.05,0l0,.1h0l.09.35h0l.23-.24V20Zm-.65-5.43-1.09.15,0,0,.06.06.12.11.07.07.11.11.07.07.11.11.06.06h0l.9-.23h0l.25.27a1.1,1.1,0,0,1,.15.2l.19.32v0h0a0,0,0,0,1,0,0h0l-.45.77h0l.07.11.11.17.07.11.1.17.07.11.09.16.06.11.08.16.05.11.08.17,0,.1v0l.49-1.11A4.44,4.44,0,0,0,36.65,14.55Zm-3.46,9.2,0-.09,0-.07,0-.09,0-.08,0-.09,0-.08,0-.1,0-.09,0-.1,0-.09-.05-.1-.05-.1-.06-.1-.06-.1-.06-.11-.06-.1-.07-.11-.06-.1-.07-.11-.06-.1-.08-.12-.07-.1L32,21.49l-.07-.1-.09-.13-.06-.09L31.62,21l-.06-.08-.17-.22-.12-.16,0-.05-.08-.1,0-.06L31,20.25,31,20.19l-.07-.09L30.86,20,30.79,20l-.05-.06-.06-.08-.05-.06-.06-.07-.05-.06-.06-.07-.05-.06-.06-.07,0-.05-.06-.07,0-.05-.06-.06,0,0L30,19.08l0,0L29.89,19l0,0-.07-.06,0,0-.07-.07,0,0-.1-.09h0l-.08-.07,0,0-.06-.05,0,0-.06,0,0,0-.05,0,0,0,0,0,0,0,0,0,0,0,0,0,0,0,0,0,0,0,0,0,0,0,0,0,0,0,0,0h0l0,0h-.14v.2h.2a0,0,0,0,1,0,0l0,.54.14.09.19-.25,0,0,.1,0a0,0,0,0,1,.05,0l.41.38a0,0,0,0,1,0,0l-.1.38a9.88,9.88,0,0,1,1.46,1.57A10.61,10.61,0,0,1,31.66,22l.34,0,0,0a2.55,2.55,0,0,1,.35.62,0,0,0,0,1,0,.05h0l-.29.14q.09.21.16.41l.52.1,0,0a.86.86,0,0,1,.1.41,0,0,0,0,1,0,0h0l-.19.06h.54Zm3.05-8.36h0l-.08,0v0l0,.1-.13.35h0l.28-.18h0l.08-.05.08-.05h0l.46-.3,0-.06,0,0h0ZM36.3,21c0-.11-.05-.26-.05-.26a0,0,0,0,1,0,0l.1-.53,0,0h0L36.23,20h0l0,.05h0l-.19.06a0,0,0,0,1-.06,0s-.09-.22-.25-.51a0,0,0,0,1,0,0l.11-.3,0,0c-.25-.38-.52-.77-.81-1.16s-.79-1-1.19-1.42l-.11-.11h0l0,0-.28-.28h0L33.2,16h0l-.36,0h0l-.31-.24a0,0,0,0,1,0-.07l.12-.15h0l-.76,0h0l.11.07h0l.12.08,0,0,.12.09h0l.14.11a15.26,15.26,0,0,1,2.19,2.39A15.62,15.62,0,0,1,36.23,21l.06.15,0,0,0,.08.13-.2h-.14A0,0,0,0,1,36.3,21Zm-.07.44,0-.08,0-.05,0-.09,0,0-.06-.14a15.42,15.42,0,0,0-1.66-2.65,15.07,15.07,0,0,0-2.16-2.36,3.56,3.56,0,0,0-.57-.4l-.07,0h0l0,0h-.1l-2.85,2.16h.06l.06,0h0l.08,0h0l.07,0h0l.06,0,0,0L29,18l0,0,.05,0,0,0,.05,0,0,0,.06,0,0,0,.06.05,0,0,.08.06,0,0,.1.08,0,0,.07.07,0,0,.06.06,0,0,.06.06,0,0,.06.06,0,0,.06.06,0,0,.06.07,0,0,.07.07,0,0,.09.1,0,0,.11.12,0,0,.08.09,0,0,.07.08,0,.05.07.08,0,.06.07.08,0,.06.07.08,0,.06.07.09,0,.06.08.1,0,0,.11.15.17.23.06.08.11.15.06.09.09.13.07.1.09.13.07.1.08.12.06.1.08.12.06.1.07.12.06.1.07.11.06.1.06.11.05.09.06.11,0,.09.05.11,0,.09,0,.1,0,.08,0,.1,0,.08,0,.1,0,.07,0,.1,0,.06h0l2.86-2.17,0-.05ZM32,19.22l-.11-.87a.34.34,0,0,1,.46-.35l.81.34a.34.34,0,0,1,.07.58l-.7.53a.34.34,0,0,1-.54-.23Zm2.25-.15a.1.1,0,0,0-.1,0l-1.68,1.28a.1.1,0,0,0,0,.09l0,.41-.27-.54a.1.1,0,0,1,0-.12l1.84-1.4a.1.1,0,0,1,.13,0l.46.48Z"/></svg>