<svg xmlns="http://www.w3.org/2000/svg" class="HeroAbility-icon HeroAbility-icon--hoverState" viewBox="0 0 40 40" preserveAspectRatio="xMidYMid meet"><path d="M7.32,15a4,4,0,0,1-1.22-.47,7.56,7.56,0,0,1,0-2.09A14.5,14.5,0,0,1,8.27,9.78a7.16,7.16,0,0,1,2.12,0,3.75,3.75,0,0,1,.07,1.35A19.16,19.16,0,0,0,7.32,15Z" fill-rule="evenodd"/><path d="M20.37,18.07a7.62,7.62,0,0,1,.89-.7c.44-.25.84-.37.85-.07,0,.53-.37.84-.77,1.56a4,4,0,0,0-.53,1.22C20.6,19.23,20.55,18.87,20.37,18.07ZM18,19.57c-2,2.27-4,5.07-5.72,4.68a68,68,0,0,1-4.39-8.54C9.45,12.22,18,4.7,20.7,7.27A2.16,2.16,0,0,1,21,8c0,.09.16.62.27,1.09.51,2.15.78,4.43,1.08,6.55a28.07,28.07,0,0,0-.2-5.34A14.51,14.51,0,0,1,32.79,8.2,19,19,0,0,0,26,12.3a15.1,15.1,0,0,1,8.13-.9c-8,2.32-12.7,9.74-12.72,9.42a4.33,4.33,0,0,1,.84-2.29c.24-.41.82-1.06.53-1.7a.81.81,0,0,0-.94-.34c-1.4.28-2.69,1.62-3.72,2.93Z" fill-rule="evenodd"/><path d="M13.17,26.7a3.32,3.32,0,0,1-1.37-1.16l.31-.82a.92.92,0,0,0,1,.24,8.53,8.53,0,0,0,4-3.14l.52,1.75a1.68,1.68,0,0,1-.31.62,8.38,8.38,0,0,1-2,1.63A5.74,5.74,0,0,1,13.17,26.7ZM17,25l.21,1a4.85,4.85,0,0,1-2.06,1.37l-.83-.63A7.82,7.82,0,0,0,17,25Zm.38,1.42,4.5,7.64a7.73,7.73,0,0,1-3.48-1.19l-2.92-5.15A4.14,4.14,0,0,0,17.39,26.42Z" fill-rule="evenodd"/></svg>