<svg xmlns="http://www.w3.org/2000/svg" class="HeroAbility-icon HeroAbility-icon--hoverState" viewBox="0 0 40 40" preserveAspectRatio="xMidYMid meet"><path d="M22,23.25c-.71-1.1-1.43-2.2-2.15-3.29-.29-.44-.59-.89-.88-1.31L32.62,11.5l-2-3-15,7.71a.93.93,0,0,0-.39.44.88.88,0,0,0,0,.66l2.18,3.57-.06,0-3.94,2.84L12,21.79H12a1.38,1.38,0,0,0-1.58,1.13L7.32,30.69v0a1.39,1.39,0,0,0,1.18,1.58l8.58-.2A1.38,1.38,0,0,0,18.66,31v-.07L17,28.54l.92-.79,1.85-1.58.77-.64c.41-.34.77-.63,1.29-1.12A.91.91,0,0,0,22,23.25Z"/></svg>