<svg xmlns="http://www.w3.org/2000/svg" class="HeroAbility-icon HeroAbility-icon--hoverState" viewBox="0 0 40 40" preserveAspectRatio="xMidYMid meet"><g id="_Group_8" data-name="&lt;Group&gt;"><path id="_Compound_Path_10" data-name="&lt;Compound Path&gt;" d="M29,22.3H26c-.3,0-.3,0-.3-.3s0-.39,0-.59a.34.34,0,0,1,.16-.3c.7-.56,1.39-1.15,2.07-1.73l1.2-1a.42.42,0,0,1,.29-.07c.61,0,1.22,0,1.83,0a.47.47,0,0,0,.45-.23c.61-.92,1.23-1.84,1.84-2.76a.63.63,0,0,1,.59-.32h4.79c.32,0,.37,0,.37.35s.08.8,0,1.21c-.07.83,0,1.66,0,2.49a.43.43,0,0,1,0,.08c-.08.42-.06.52-.56.51a6.58,6.58,0,0,1-.95-.07A2.14,2.14,0,0,0,36.2,20c-.38.28-.8.49-1.2.73s-.85.48-1.27.72c-.06,0-.13.07-.12.15s.09.07.14.08l1,.25a.53.53,0,0,1,.28.12c.49.48.92,1,1.43,1.48a.11.11,0,0,1,0,.19l-.24.24-3.43,3.45a.55.55,0,0,1-.45.18c-.3,0-.6,0-.9,0a1.19,1.19,0,0,1-.91-.38c-.82-.85-1.67-1.68-2.51-2.52l-.11-.11a.3.3,0,0,1,0-.31c0-.1.14-.08.22-.08H30.4a.54.54,0,0,0,.38-.14,7.1,7.1,0,0,1,1.12-.77.4.4,0,0,0,.22-.29,2.37,2.37,0,0,1,.09-.53c0-.07,0-.11-.09-.12H29Zm.9-1h.85a8,8,0,0,1,.87,0,2.13,2.13,0,0,0,1.65-.48l.07,0c.18-.12.19-.14.06-.32a9.76,9.76,0,0,0-.88-1,.68.68,0,0,1-.17-.19C32.24,19,32,19,31.85,19a10.6,10.6,0,0,1-1.56,0,.49.49,0,0,0-.4.12c-.7.62-1.49,1.13-2.19,1.74a2.08,2.08,0,0,1-.39.25.1.1,0,0,0-.06.13.1.1,0,0,0,.1.07h2.55Zm4.34.84c-.29-.12-.49.06-.69.24s-.23.23-.36.33-.3.26-.16.48a.11.11,0,0,1,0,.05c0,.65,0,1.3,0,2a.21.21,0,0,0,.09.21l.35.26c.11.08.14.27.29.27s.23-.17.34-.25c.71-.57,1.3-1.27,2-1.86a.14.14,0,0,0,0-.22c-.35-.43-.76-.81-1.14-1.22A.69.69,0,0,0,34.23,22.17Zm4.38-5.59a1.16,1.16,0,0,0-1.5-1.11,1.21,1.21,0,0,0-.86,1,1.24,1.24,0,0,0,.41,1.19,1.6,1.6,0,0,0,.68.28.68.68,0,0,0,.35,0A1.46,1.46,0,0,0,38.6,16.59Zm-2.22,2.23a.09.09,0,0,0-.08-.11h-.15c-1,0-2,0-3.06,0-.07,0-.12,0-.15.07s0,.1.08.14A11.5,11.5,0,0,1,34.35,20c.1.1.19.08.3,0l1.59-1A.29.29,0,0,0,36.39,18.82ZM32,27.21c.39,0,.62-.21.63-.56A.64.64,0,0,0,32,26a.73.73,0,0,0-.62.66A.58.58,0,0,0,32,27.21Z"/><path id="_Compound_Path_11" data-name="&lt;Compound Path&gt;" d="M23.3,16.79h-7c-.15,0-.22-.06-.22-.21q0-.73,0-1.47c0-.15.06-.22.22-.22h12a3.07,3.07,0,0,0,1.1-.47,1.15,1.15,0,0,0,.15-.1,1.91,1.91,0,0,1,1.2-.35c.88,0,1.77,0,2.65,0,.28,0,.33,0,.36.31,0,.11,0,.22,0,.33a.22.22,0,0,1-.12.28c-.09,0-.12.14-.18.22l-1.74,2.61c-.16.24-.17.24-.37,0s-.55-.54-.81-.83a.46.46,0,0,0-.39-.14Zm-.59-1H20.83c-.36,0-.43-.09-.39.43,0,.27,0,.27.29.27h4.19c.05,0,.11,0,.13-.07a.78.78,0,0,0,0-.5c0-.14-.18-.11-.28-.11Z"/><path id="_Path_148" data-name="&lt;Path&gt;" d="M25.61,21.06a.41.41,0,0,0-.06.32c0,.3,0,.6,0,.9s0,.21.21.2h4.58c.28,0,.29,0,.26.27-.08.72,0,.59-.62.59H17.58c-.44,0-.4,0-.4-.41s0-1.1,0-1.65c0-.23,0-.24.25-.25h.15c.16,0,.21.07.21.22,0,.43,0,.86,0,1.29a.62.62,0,0,0,.32.56.74.74,0,0,0,.75-.22.42.42,0,0,0,0-.3c-.05-.44,0-.89,0-1.34,0-.15.06-.22.21-.21h1.67c.18,0,.22.08.21.24,0,.39,0,.77,0,1.16a.66.66,0,0,0,.11.39.45.45,0,0,0,.57.22.48.48,0,0,0,.39-.55c0-.41,0-.82,0-1.23,0-.15,0-.22.2-.22h3.29Z"/><path id="_Path_149" data-name="&lt;Path&gt;" d="M11.46,19.17c0-.43.05-.84.07-1.25,0-.17.07-.24.25-.24.38,0,.75,0,1.13,0a.28.28,0,0,1,.27.16.3.3,0,0,0,.3.15c.72,0,1.44,0,2.16,0s1.57,0,2.35,0h.18c.15,0,.22.06.22.21s0,.48,0,.72,0,.63,0,1,0,.28-.27.28h-.77c-.26,0-.34.06-.37.32s-.07.18-.19.17h-.15c-.24,0-.45,0-.55-.28a.38.38,0,0,0-.41-.23q-1.07,0-2.13,0a.78.78,0,0,0-.68.37.29.29,0,0,1-.27.14h-.85c-.22,0-.25,0-.27-.24C11.44,20,11.46,19.55,11.46,19.17Z"/><path id="_Path_150" data-name="&lt;Path&gt;" d="M16.08,23.55q0,1,0,2s0,.09,0,.13c0,.35-.06.37-.4.37h-2c-.27,0-.34-.05-.34-.33q0-2.1,0-4.19c0-.23,0-.26.25-.26h2.24c.21,0,.24,0,.24.24,0,.69,0,1.39,0,2.08Z"/><path id="_Path_151" data-name="&lt;Path&gt;" d="M31.38,18.12H30.25c-.06,0-.09,0-.12-.09a.89.89,0,0,0-.77-.3H16.43c-.29,0-.34,0-.35-.35s0-.43.41-.43H30a.73.73,0,0,1,.58.25l.81.85Z"/><path id="_Compound_Path_12" data-name="&lt;Compound Path&gt;" d="M12.29,13.41a6.66,6.66,0,0,1,0,.77.57.57,0,0,0,.38.62.4.4,0,0,1,.25.44c0,.61,0,1.22,0,1.82,0,.34-.19.47-.5.33a3.34,3.34,0,0,1-1.12-.8.45.45,0,0,1-.14-.34c0-.76,0-1.52,0-2.29,0-.33,0-.67,0-1a3.47,3.47,0,0,1,.07-.53.26.26,0,0,1,.31-.24l.54,0c.2,0,.23,0,.23.25s0,.63,0,1Zm.21,2.85c0-.19-.11-.27-.38-.26s-.26.07-.25.24a.37.37,0,0,0,.36.36A.32.32,0,0,0,12.5,16.25Z"/><path id="_Path_152" data-name="&lt;Path&gt;" d="M23.86,23.5h6.41c.1,0,.24,0,.26.13a.31.31,0,0,1-.26.33H17.44c-.24,0-.31-.11-.25-.35a.12.12,0,0,1,.12-.11h6.56Z"/><path id="_Path_153" data-name="&lt;Path&gt;" d="M7.55,18.41h1.7c.24,0,.25,0,.25.25s0,.67,0,1c0,.16-.06.23-.23.23H5.94c-.14,0-.22,0-.25-.19a5.46,5.46,0,0,1-.1-1c0-.22,0-.23.24-.24Z"/><path id="_Path_154" data-name="&lt;Path&gt;" d="M27.72,14.69a.83.83,0,0,1-.32,0h-11c-.26,0-.27,0-.27-.28s0-.36,0-.54,0-.19.18-.19h.8a.48.48,0,0,1,.35.19c.15.16.33.27.49.42s.21.07.32.07h8.92A.66.66,0,0,1,27.72,14.69Z"/><path id="_Path_155" data-name="&lt;Path&gt;" d="M19.81,24.23l-.58.57c-.06.06-.15,0-.22,0H16.52c-.25,0-.26,0-.26-.26q0-1.66,0-3.32c0-.25,0-.26.26-.27.57,0,.49,0,.49.5,0,.82,0,1.64,0,2.47,0,.17.06.21.21.2h2.34A.3.3,0,0,1,19.81,24.23Z"/><path id="_Path_156" data-name="&lt;Path&gt;" d="M20.34,18.26h1.11c.22,0,.24,0,.24.24q0,.6,0,1.21c0,.21,0,.23-.24.23H19.24c-.15,0-.22-.06-.22-.21q0-.63,0-1.26c0-.15.07-.21.22-.21Z"/><path id="_Path_157" data-name="&lt;Path&gt;" d="M26.51,20.36a4.8,4.8,0,0,1-.52.45.37.37,0,0,1-.25.05H22.27a.21.21,0,0,1-.24-.14c-.13-.34-.93-.39-1.06,0a.21.21,0,0,1-.23.15H19.09a.27.27,0,0,1-.24-.14.64.64,0,0,0-.63-.28.49.49,0,0,0-.41.27c-.07.14-.49.22-.59.11s-.06-.26,0-.39.11-.14.21-.14c.43,0,.86,0,1.29,0,1,0,2,0,3,0l4,0h.85Z"/><path id="_Path_158" data-name="&lt;Path&gt;" d="M22.48,25.87H21a.33.33,0,0,1-.31-.14l-.19-.24c-.1-.13-.06-.23.11-.23h.9a5.42,5.42,0,0,1,1,0c.28.06.38-.05.37-.35s0-.34,0-.51.17-.35.4-.27.09.13.09.21c0,.24,0,.23.23.21a3.05,3.05,0,0,1,.51,0c.25,0,.27,0,.29-.22s0-.19.11-.21a.63.63,0,0,1,.4,0s0,.06,0,.09a.76.76,0,0,1,0,.13,1.23,1.23,0,0,1-.67,1.39.45.45,0,0,1-.29.07H22.48Z"/><path id="_Path_159" data-name="&lt;Path&gt;" d="M13.41,15.62c0-.33,0-.67,0-1,0-.16.06-.23.23-.23h.69c.17,0,.23.06.23.23,0,.34,0,.69,0,1a.6.6,0,0,0,.65.65h.49c.13,0,.19.05.19.18s0,.1,0,.15-.07.23-.23.23h-2c-.25,0-.27,0-.27-.26s0-.65,0-1Z"/><path id="_Path_160" data-name="&lt;Path&gt;" d="M3.19,20.34H1.85a.13.13,0,0,1-.14-.15c0-.1.09-.09.15-.09H3.15c.33,0,.42-.15.36-.49a1.86,1.86,0,0,1,0-.91,2.51,2.51,0,0,0,0-.36c0-.16,0-.22-.2-.22H1.82c-.05,0-.1,0-.1-.09a.11.11,0,0,1,.08-.12l.2,0H4.28c.26,0,.26,0,.23.26a6,6,0,0,0,.08,1.92c.05.27,0,.27-.22.27Z"/><path id="_Path_161" data-name="&lt;Path&gt;" d="M23.73,20.1c0-.13.09-.15.15-.19l.78-.54a.24.24,0,0,0,.13-.23c0-.19,0-.38,0-.57a.71.71,0,0,0-.11-.36c-.11-.18-.06-.27.16-.27h1c.15,0,.21.06.21.21,0,.57,0,1.15,0,1.72,0,.12,0,.23-.17.23Z"/><path id="_Path_162" data-name="&lt;Path&gt;" d="M27.56,18.26h1.15c.06,0,.13,0,.15.07s0,.11-.09.14c-.56.41-1.05.9-1.59,1.33a.59.59,0,0,1-.42.14c-.58,0-.58,0-.58-.6,0-.27,0-.55,0-.82s0-.26.26-.27Z"/><path id="_Path_163" data-name="&lt;Path&gt;" d="M11.35,18.15a19.1,19.1,0,0,0,0,2.22c0,.22,0,.24-.23.24-.67,0-.58.07-.59-.54s0-1.47.06-2.21c0-.15.06-.23.21-.21h.15C11.37,17.64,11.37,17.64,11.35,18.15Z"/><path id="_Path_164" data-name="&lt;Path&gt;" d="M34.15,14.62c0,.07,0,.15-.09.16s-.09-.07-.1-.13a4.22,4.22,0,0,0-.05-.49.69.69,0,0,0-.14-.3.17.17,0,0,0-.15-.07c-1.11,0-2.23,0-3.34,0a.76.76,0,0,0-.41.12c-.37.23-.74.46-1.13.65-.07,0-.14.1-.2,0s0-.13.08-.17c.24-.19.5-.36.72-.57a1.73,1.73,0,0,1,1.38-.44c.86,0,1.71,0,2.57,0a2.64,2.64,0,0,1,.51.06.39.39,0,0,1,.3.34s0,.05,0,.08A7,7,0,0,0,34.15,14.62Z"/><path id="_Path_165" data-name="&lt;Path&gt;" d="M14.71,21H13.6c-.22,0-.24,0-.24-.24,0-.66,0-.53.51-.53h1.65a.49.49,0,0,1,.56.39c.09.25,0,.38-.26.38H14.71Z"/><path id="_Path_166" data-name="&lt;Path&gt;" d="M14.67,17.05h1c.21,0,.23,0,.24.24,0,0,0,.05,0,.08,0,.39,0,.42-.42.42H13.74c-.31,0-.33,0-.34-.34,0,0,0-.07,0-.1,0-.28,0-.3.29-.3h1Z"/><path id="_Path_167" data-name="&lt;Path&gt;" d="M21.57,25.08h-.69c-.14,0-.21-.05-.2-.19s0-.38,0-.57a.14.14,0,0,1,.16-.16H21c.47,0,.5-.06.46.47a.31.31,0,0,0,0,.17.19.19,0,0,0,.16.11c.09,0,.12-.06.14-.12a1,1,0,0,0,.06-.4c0-.17.07-.22.23-.23.61,0,.61,0,.64.56,0,.05,0,.1,0,.15,0,.25,0,.26-.27.23a4.12,4.12,0,0,0-.44,0h-.41Z"/><path id="_Path_168" data-name="&lt;Path&gt;" d="M9.71,19.08c0-.32,0-.63,0-.95a.26.26,0,0,1,.2-.29c.14,0,.31-.18.42-.11s0,.27,0,.41a16.37,16.37,0,0,0,0,2.15c0,.18,0,.19-.18.15-.37-.1-.4-.12-.41-.5s0-.58,0-.87Z"/><path id="_Path_169" data-name="&lt;Path&gt;" d="M24,18.26h.31c.23,0,.29.06.31.28.05.61.05.62-.45,1l-.51.35c-.1.07-.18.07-.18-.08,0-.45,0-.91,0-1.36,0-.11.06-.15.17-.15H24Z"/><path id="_Path_170" data-name="&lt;Path&gt;" d="M38.35,14.8h-.64c-.1,0-.19,0-.2-.15a1.54,1.54,0,0,0-.19-.61c-.05-.11,0-.16.1-.16h1.13c.17,0,.26.14.34.24a1.56,1.56,0,0,1,.24.51c0,.12,0,.18-.14.17h-.64Z"/><path id="_Path_171" data-name="&lt;Path&gt;" d="M21.5,17.93h2.65c.09,0,.24,0,.24.07s-.15.08-.23.08h-5c-.33,0-.33,0-.33.32,0,.49,0,1,0,1.47a.33.33,0,0,1,0,.18c0,.05-.09,0-.14,0s-.1-.07-.1-.13,0-.39,0-.59c0-.39,0-.77,0-1.16s0-.28.28-.28Z"/><path id="_Path_172" data-name="&lt;Path&gt;" d="M18.71,21.93c0,.21,0,.43,0,.64s-.06.3-.23.34a.4.4,0,0,1-.42-.22.8.8,0,0,1-.07-.3c0-.38,0-.75,0-1.13,0-.16.05-.23.22-.23.58,0,.49,0,.5.47,0,.15,0,.29,0,.44Z"/><path id="_Path_173" data-name="&lt;Path&gt;" d="M14.74,14.8A.27.27,0,0,0,15,15h.64c.15,0,.22,0,.22.21s0,.51,0,.77c0,.09,0,.18-.13.19a2.27,2.27,0,0,1-.74,0,.35.35,0,0,1-.28-.35c0-.09,0-.17,0-.26S14.74,15,14.74,14.8Z"/><path id="_Path_174" data-name="&lt;Path&gt;" d="M21.86,21.91c0,.2,0,.39,0,.59a.33.33,0,0,1-.29.37.32.32,0,0,1-.39-.25.46.46,0,0,1,0-.15c0-.42,0-.84,0-1.26,0-.18,0-.18.36-.18s.33,0,.34.19,0,.46,0,.69Z"/><path id="_Path_175" data-name="&lt;Path&gt;" d="M.9,19.24A3.88,3.88,0,0,1,1,18.13c0-.11.07-.21.2-.23s.3,0,.24.25a3.72,3.72,0,0,0,0,2c.06.22,0,.24-.19.22S1,20.28,1,20.06A3.44,3.44,0,0,1,.9,19.24Z"/><path id="_Path_176" data-name="&lt;Path&gt;" d="M5.15,17.89a.47.47,0,0,1,.29.54,3.23,3.23,0,0,0,.08,1.27.45.45,0,0,1-.2.5c-.08.06-.12,0-.15,0a2.59,2.59,0,0,1-.12-.5A4.87,4.87,0,0,1,5.15,17.89Z"/><path id="_Compound_Path_13" data-name="&lt;Compound Path&gt;" d="M22.62,19.17c0,.16,0,.38,0,.59s0,.17-.17.17H22c-.12,0-.18,0-.18-.16,0-.43,0-.86,0-1.29,0-.14.07-.18.19-.18h.39c.17,0,.22.08.2.22S22.63,18.92,22.62,19.17Zm-.55,0h0c0,.12,0,.24,0,.36s0,.12.07.12.11-.05.11-.11a5.15,5.15,0,0,0,0-.77c0-.05,0-.11-.08-.11s-.09.07-.09.13S22.07,19.08,22.07,19.21Zm.46,0h0c0-.15,0-.31,0-.46a.09.09,0,0,0-.1-.1c-.07,0-.07.06-.07.11,0,.28,0,.56,0,.85,0,.06,0,.13.09.13s.07-.07.07-.12S22.53,19.32,22.53,19.18Z"/><path id="_Path_177" data-name="&lt;Path&gt;" d="M35.37,13.87h.18a.24.24,0,0,1,.28.19c.05.16.13.32.17.48s0,.23-.18.25h-.1c-.19,0-.4.07-.55,0s-.1-.33-.15-.5c-.1-.39-.1-.39.3-.39Z"/><path id="_Path_178" data-name="&lt;Path&gt;" d="M25.11,24.64c0-.52-.08-.49.5-.49h.1c.14,0,.21.05.21.19s0,.39,0,.59a.17.17,0,0,1-.19.19h-.44c-.13,0-.19-.05-.19-.18S25.11,24.75,25.11,24.64Z"/><path id="_Path_179" data-name="&lt;Path&gt;" d="M3.25,19.88a.32.32,0,0,1-.24,0H1.83c-.14,0-.23,0-.25-.19a3.24,3.24,0,0,1,0-1.25c0-.11.07-.19.2-.19H3.2s.05,0,.05.06a1.06,1.06,0,0,1-.37,0H2.07c-.23,0-.25,0-.24.26a3.8,3.8,0,0,1,.05.53,2.35,2.35,0,0,1,0,.43c0,.18,0,.23.19.23H3.11A.19.19,0,0,1,3.25,19.88Z"/><path id="_Path_180" data-name="&lt;Path&gt;" d="M23.25,19.11c0,.21,0,.43,0,.64s-.1.19-.24.19-.23,0-.23-.2c0-.44,0-.89,0-1.33,0-.14.11-.13.2-.14s.22,0,.22.14,0,.46,0,.69Z"/><path id="_Path_181" data-name="&lt;Path&gt;" d="M13.11,25.51A1.14,1.14,0,0,1,13,25c0-.65,0-1.3,0-2s-.07-1-.06-1.56c0-.09-.05-.25.09-.25s.11.16.11.26q0,1.88,0,3.75A.33.33,0,0,1,13.11,25.51Z"/><path id="_Path_182" data-name="&lt;Path&gt;" d="M31.41,22.47h.41c.07,0,.14,0,.16.09a.14.14,0,0,1-.08.17c-.3.16-.6.33-.9.49s-.24.05-.24-.17C30.75,22.49,30.77,22.47,31.41,22.47Z"/><path id="_Path_183" data-name="&lt;Path&gt;" d="M4.93,18c0,.21,0,.43-.08.64A3.65,3.65,0,0,0,5,20.08l0,.1c0,.06,0,.13,0,.15s-.12,0-.14-.11a4.17,4.17,0,0,1-.13-.73,6.11,6.11,0,0,1,0-1.31c0-.06,0-.12,0-.18a.11.11,0,0,1,.15-.1C5,17.91,4.94,18,4.93,18Z"/><path id="_Path_184" data-name="&lt;Path&gt;" d="M36.88,14.8c-.26,0-.26,0-.31-.25a2,2,0,0,0-.12-.39c-.05-.12,0-.17.12-.17s.3,0,.42.24a2.06,2.06,0,0,1,.11.28C37.19,14.77,37.16,14.8,36.88,14.8Z"/><path id="_Path_185" data-name="&lt;Path&gt;" d="M27.55,18.08H26.37s-.09,0-.1-.06.06-.07.11-.08h2.21c.08,0,.23,0,.23.08s-.15.07-.24.07h-1Z"/><path id="_Path_186" data-name="&lt;Path&gt;" d="M34.52,14.49a1.68,1.68,0,0,0,0-.41.15.15,0,0,1,.13-.19c.09,0,.12,0,.14.11s.11.39.16.59,0,.2-.15.2-.23,0-.23-.16S34.52,14.52,34.52,14.49Z"/><path id="_Path_187" data-name="&lt;Path&gt;" d="M13.16,14.67a16.78,16.78,0,0,1,0,2.83A15,15,0,0,1,13.16,14.67Z"/><path id="_Path_188" data-name="&lt;Path&gt;" d="M.86,18.06a4.89,4.89,0,0,0-.06,2A2.05,2.05,0,0,1,.86,18.06Z"/><path id="_Path_189" data-name="&lt;Path&gt;" d="M36.57,20a1.62,1.62,0,0,1,1-.25c.08,0,.16,0,.16.12s-.07.13-.16.13Z"/><path id="_Path_190" data-name="&lt;Path&gt;" d="M31.93,23l-1.23.84c0-.22.05-.34.24-.4a6.46,6.46,0,0,0,.78-.4C31.77,23,31.82,22.94,31.93,23Z"/><path id="_Path_191" data-name="&lt;Path&gt;" d="M36,13.94c.15,0,.2.07.24.14a1.54,1.54,0,0,1,.19.55c0,.06,0,.13-.06.14s-.11,0-.13-.09A7.14,7.14,0,0,0,36,13.94Z"/><path id="_Path_192" data-name="&lt;Path&gt;" d="M23.83,24.41h-.2a.1.1,0,0,1-.1-.12.11.11,0,0,1,.1-.12h.46c.05,0,.1,0,.1.09s0,.14-.1.15h-.25Z"/><path id="_Path_193" data-name="&lt;Path&gt;" d="M21.51,20.86h-.25a.09.09,0,0,1-.09-.07.1.1,0,0,1,0-.09.54.54,0,0,1,.59,0c.07.08,0,.13-.05.14h-.23Z"/><path id="_Path_194" data-name="&lt;Path&gt;" d="M29.9,18.1a3,3,0,0,1-.71,0c-.05,0-.1,0-.11-.08s.06-.1.12-.1A.91.91,0,0,1,29.9,18.1Z"/><path id="_Path_195" data-name="&lt;Path&gt;" d="M18.68,20.86h-.55c-.05,0-.11,0-.11-.08s0-.08.07-.1S18.5,20.61,18.68,20.86Z"/><path id="_Path_196" data-name="&lt;Path&gt;" d="M13.12,20.43a1.06,1.06,0,0,1,0,.49A.09.09,0,0,1,13,21S13,21,13,20.94,12.95,20.6,13.12,20.43Z"/><path id="_Path_197" data-name="&lt;Path&gt;" d="M27.69,21.12c.27-.22.53-.45.8-.66.44-.34.9-.66,1.32-1a.8.8,0,0,1,.59-.21c.41,0,.82,0,1.24,0a.82.82,0,0,1,.64.26,9.23,9.23,0,0,1,.85,1c.08.11.08.17,0,.24a4.12,4.12,0,0,0-.72.44.25.25,0,0,1-.17,0H27.8A.12.12,0,0,1,27.69,21.12Z"/><path id="_Path_198" data-name="&lt;Path&gt;" d="M34.24,22.36a.57.57,0,0,1,.56.18c.33.35.7.68,1,1.07.1.12.07.21,0,.3-.57.5-1.06,1.07-1.64,1.56l0,0c-.29.26-.28.24-.6,0a.66.66,0,0,1-.3-.65c0-.56,0-1.12,0-1.67a.43.43,0,0,1,.16-.38,2.24,2.24,0,0,0,.24-.23A.65.65,0,0,1,34.24,22.36Z"/><path id="_Compound_Path_14" data-name="&lt;Compound Path&gt;" d="M37.51,15.62a.92.92,0,0,1,.9.93,1,1,0,0,1-.95,1.08,1,1,0,0,1-1-1A1.07,1.07,0,0,1,37.51,15.62Zm.74.94a.7.7,0,0,0-.75-.74.83.83,0,0,0-.76.81.76.76,0,0,0,.69.75A.79.79,0,0,0,38.25,16.55Z"/><path id="_Path_199" data-name="&lt;Path&gt;" d="M33.37,18.88H36c-.28.2-.55.4-.84.58l-.57.35a.18.18,0,0,1-.25,0,9.14,9.14,0,0,0-1-.87Z"/><path id="_Path_200" data-name="&lt;Path&gt;" d="M32.47,26.64a.36.36,0,0,1-.39.4.47.47,0,0,1-.45-.37.56.56,0,0,1,.43-.53A.46.46,0,0,1,32.47,26.64Z"/><path id="_Path_201" data-name="&lt;Path&gt;" d="M22.79,15.93h2a.12.12,0,0,1,.13.13c0,.08,0,.16-.1.18l-.18,0H20.76c-.11,0-.14-.08-.14-.18s0-.15.13-.15h2Z"/><path id="_Path_202" data-name="&lt;Path&gt;" d="M38.08,16.55a.59.59,0,0,1-.59.61.51.51,0,0,1-.49-.55.62.62,0,0,1,.68-.61A.52.52,0,0,1,38.08,16.55Z"/></g></svg>