<svg xmlns="http://www.w3.org/2000/svg" class="HeroAbility-icon HeroAbility-icon--hoverState" viewBox="0 0 40 40" preserveAspectRatio="xMidYMid meet"><g id="_Group_4" data-name="&lt;Group&gt;"><path id="_Compound_Path_3" data-name="&lt;Compound Path&gt;" d="M26.72,18.84a.34.34,0,0,0-.32-.31l-.93-.07a5.77,5.77,0,0,0-.27-.7l.72-.74a.34.34,0,0,0,0-.44l-.78-1.08a.34.34,0,0,0-.43-.11l-1,.47-.34-.28.28-1a.34.34,0,0,0-.19-.4l-1.21-.56a.34.34,0,0,0-.43.12l-.59.86a5.84,5.84,0,0,0-.74-.12l-.25-.9a.35.35,0,0,0-.37-.25l-1.33.13a.34.34,0,0,0-.31.32l-.07.94a5.74,5.74,0,0,0-.7.27l-.75-.73a.34.34,0,0,0-.44,0L15.29,15a.34.34,0,0,0-.11.43l.48,1-.27.33-1-.28a.34.34,0,0,0-.4.19l-.56,1.21a.34.34,0,0,0,.12.43l.86.59a5.77,5.77,0,0,0-.13.74l-.9.25a.34.34,0,0,0-.25.37l.13,1.33a.34.34,0,0,0,.32.31l.93.07a5.73,5.73,0,0,0,.27.71l-.72.74a.34.34,0,0,0,0,.44l.78,1.08a.34.34,0,0,0,.43.11l1-.47.34.28-.28,1a.34.34,0,0,0,.19.4l1.21.56a.35.35,0,0,0,.43-.12l.59-.86a5.83,5.83,0,0,0,.74.12l.25.9a.34.34,0,0,0,.33.25h0l1.33-.13a.34.34,0,0,0,.31-.32l.07-.93a5.77,5.77,0,0,0,.7-.27l.75.73a.34.34,0,0,0,.44,0l1.08-.78a.34.34,0,0,0,.11-.43l-.47-1,.14-.17.13-.17,1,.28a.34.34,0,0,0,.4-.19l.56-1.21a.34.34,0,0,0-.12-.43l-.86-.59a5.74,5.74,0,0,0,.12-.74l.9-.25a.34.34,0,0,0,.25-.37Zm-4.12,3.5a3.4,3.4,0,1,1-3-5.55l.34,0a3.4,3.4,0,0,1,2.63,5.56Z"/><g id="_Group_5" data-name="&lt;Group&gt;"><path id="_Path_7" data-name="&lt;Path&gt;" d="M31.89,20.18A11.87,11.87,0,0,0,29,12.4a.55.55,0,0,0-.79,0l-1,.91a.54.54,0,0,0,0,.74,9.51,9.51,0,0,1-1.83,14,.54.54,0,0,1-.83-.33h0a.54.54,0,0,0-.9-.27l-3,2.84a.54.54,0,0,0,.22.92l4,1.17a.54.54,0,0,0,.68-.65l-.11-.44a.55.55,0,0,1,.28-.61A11.91,11.91,0,0,0,31.89,20.18Z"/><path id="_Path_8" data-name="&lt;Path&gt;" d="M15.39,12.68h0a.54.54,0,0,0,.9.27l3-2.84a.54.54,0,0,0-.22-.92L15.11,8a.54.54,0,0,0-.68.65l.11.44a.55.55,0,0,1-.28.61,11.92,11.92,0,0,0-2,19.57.54.54,0,0,0,.77-.09l.81-1.05a.54.54,0,0,0-.07-.74,9.51,9.51,0,0,1,.78-15A.54.54,0,0,1,15.39,12.68Z"/></g></g></svg>