<svg xmlns="http://www.w3.org/2000/svg" class="HeroAbility-icon HeroAbility-icon--hoverState" viewBox="0 0 40 40" preserveAspectRatio="xMidYMid meet"><path class="cls-1" d="M16.23,14.26H13.77l-.58,2.23a.49.49,0,0,1-.47.36H11a.6.6,0,0,1-.6-.6h0v-.12l.48-1.82H8.78a.6.6,0,0,1-.61-.59h0v-.16l.48-1.83a.48.48,0,0,1,.48-.36h2.46l.56-2.2a.48.48,0,0,1,.49-.36h1.74a.62.62,0,0,1,.61.62h0v.1l-.48,1.82h2.08a.61.61,0,0,1,.59.63h0v.1l-.47,1.82a.46.46,0,0,1-.47.36"/><path class="cls-1" d="M31.6,9.89H29.78l-.42,1.63a.37.37,0,0,1-.36.27H27.74a.45.45,0,0,1-.44-.46h0v-.08l.35-1.36h-1.5a.45.45,0,0,1-.44-.43V9.35L26.07,8a.37.37,0,0,1,.33-.31h1.83l.42-1.61A.34.34,0,0,1,29,5.85h1.3a.47.47,0,0,1,.44.45v.09l-.35,1.33H31.9a.44.44,0,0,1,.44.44h0v.09L32,9.58a.37.37,0,0,1-.34.28"/><g><path class="cls-1" d="M11.08,25.91h5l-.22.83s-.15.66,2.13.68h2.56c2.2,0,2.29-.61,2.29-.61l.24-.92H29A1.17,1.17,0,0,0,30.18,25l1.14-4.4a1.46,1.46,0,0,0-1.12-1.72H24.9L26,14.46a1.45,1.45,0,0,0-1.11-1.73H20.42a1.16,1.16,0,0,0-1.15.91L17.9,18.91H12a1.2,1.2,0,0,0-1.15.91L9.68,24.16a1.44,1.44,0,0,0,1.09,1.72h0A1.53,1.53,0,0,0,11.08,25.91Z"/><path class="cls-1" d="M36.69,26.1c0-1.06-2-1.82-5.63-2.42l-.19.75c2,.38,3.22.91,3.22,1.43,0,1.23-6.27,2.24-14,2.24s-14-1-14-2.24c0-.47.91-.91,2.4-1.26l.6-.14.25-.91-.6.09C5.26,24.29,3.4,25,3.4,26.07c0,1.58,5,2.78,11.92,3.16L15,30.36a1.47,1.47,0,0,0,1.06,1.75H20.6a1.14,1.14,0,0,0,1.14-.91l.5-1.91C30.57,29.17,36.69,27.88,36.69,26.1Z"/></g></svg>