<svg xmlns="http://www.w3.org/2000/svg" class="HeroAbility-icon HeroAbility-icon--hoverState" viewBox="0 0 40 40" preserveAspectRatio="xMidYMid meet"><path d="M26.67,9.35A43.41,43.41,0,0,1,30,12.24l-2.52,1.68L27.08,13A7.41,7.41,0,0,0,26.67,9.35Z" fill-rule="evenodd"/><ellipse cx="20.06" cy="9.12" rx="2.41" ry="0.86"/><path d="M21.48,32v-.4l1.37-3.19a11.3,11.3,0,0,0,2.76-1L25.74,32l-3.39,2.12-.91-.27v-.1A8.25,8.25,0,0,1,16,32.09Z" fill-rule="evenodd"/><path d="M25.8,13.21a1.44,1.44,0,0,0,.25-.78,29.08,29.08,0,0,0-.88-4.08C24.88,7,22.89,6,20.07,6S15.23,7.07,15,8.34a30.74,30.74,0,0,0-.88,4.08c0,1.52,2.68,2.75,6,2.75a12.69,12.69,0,0,0,1.38-.08v.79L23,19.51l3-1.07.58-3.72ZM16.12,8.43c0-1.07,1.77-1.94,4-1.94s4,.87,4,1.94-1.77,1.94-4,1.94S16.12,9.5,16.12,8.43Z" fill-rule="evenodd"/><path d="M24.85,22.8V21.4l-1,.32v1.4l-1.3.44v1.06l1.3-.44v1.4l1-.32v-1.4l1.25-.42V22.39Zm-.54,4.95A6.19,6.19,0,0,1,21,22.28a5.36,5.36,0,0,0,3.36-3c.86,1.1,1.61,1.38,3.38.76C27.7,23.86,24.3,27.75,24.3,27.75Z" fill-rule="evenodd"/><path d="M27.74,14.48l2.63-1.73,1.75,2v6.65L27.64,28.9l-.93.57-.06-2.59a17.31,17.31,0,0,0,4.4-5.1V17.86a18.27,18.27,0,0,0-3.87.29Z" fill-rule="evenodd"/><path d="M14.19,17.27l5.91-1h-.15c-3.44,0-7.34-1-6.92-4.36,0-.22.07-.44.11-.67l-2.75,2.58h0l-3,5.8.41,6.28,3.79,3.46-.39-6.93Z"/><path d="M15.83,23.09c1.34-1.27,3.63-2.23,6.28-3.19L20.6,16.73l-6,1.05L11.87,22.5l.41,7.44,1.24,1.13L20.63,31l1.19-2.76a16.65,16.65,0,0,1-5.88-1.67Z"/></svg>