<svg xmlns="http://www.w3.org/2000/svg" class="HeroAbility-icon HeroAbility-icon--hoverState" viewBox="0 0 40 40" preserveAspectRatio="xMidYMid meet"><path d="M14.32,15.49h2.92c.18,0,.24,0,.24.23,0,1,0,.93,0,2,.81-.06,1.66-.09,2.52-.09s1.73,0,2.55.09c0-1,0-.94,0-2,0-.19.06-.22.23-.22H25.7a.32.32,0,0,0,.22,0l-.07-.11L20.18,7.72a.2.2,0,0,0-.36,0L15.13,14l-1.06,1.42A.46.46,0,0,0,14.32,15.49Z"/><path d="M20,18.84c-7.08,0-12.82,1.56-12.82,3.49,0,1.53,3.59,2.82,8.6,3.3a.34.34,0,0,0,.37-.33h0a.33.33,0,0,0-.3-.33c-3.38-.34-5.73-1.08-5.73-1.94s3.12-1.82,7.36-2.06c0,1.88,0,4.43,0,5.53a7.75,7.75,0,0,0,.32,2,14.89,14.89,0,0,0,1.09,2.65,3.1,3.1,0,0,0,.76,1,.52.52,0,0,0,.72,0,3,3,0,0,0,.75-1c.23-.51.45-1,.69-1.52a6.63,6.63,0,0,0,.71-3.1c0-1.13,0-3.71,0-5.62,4.23.24,7.36,1.07,7.36,2.06s-2.35,1.6-5.73,1.94a.33.33,0,0,0-.3.33h0a.34.34,0,0,0,.37.33c5-.48,8.6-1.77,8.6-3.3C32.82,20.41,27.08,18.84,20,18.84Z"/></svg>