<svg xmlns="http://www.w3.org/2000/svg" class="HeroAbility-icon HeroAbility-icon--hoverState" viewBox="0 0 40 40" preserveAspectRatio="xMidYMid meet"><path id="_Compound_Path_2" data-name="&lt;Compound Path&gt;" d="M19.5,25.43a4.26,4.26,0,0,1-1.73.5,4.84,4.84,0,0,1-4.61-2.51,6.31,6.31,0,0,1-1-3.45,6.35,6.35,0,0,1,2.28-5.15,4.55,4.55,0,0,1,5-.54A6.81,6.81,0,0,0,17,19.85,6.81,6.81,0,0,0,19.5,25.43Zm13.82-5.8a.67.67,0,0,1-.31.13l-3.41,1.06-.3.09h0l-.16,0h0c-.64.21-1.37.47-2,.71-.69-.65-.79-2.08-.88-1.87A3.46,3.46,0,0,0,26.67,22c.13.24.51.14.56.13.64-.21,1.21-.35,1.8-.53A10.87,10.87,0,0,1,26.57,27l.75,1.49,1.11,2.28.06.15c-.08.07-.14,0-.19,0L25.9,29.39l0,0c-.6-.38-1.34-.81-2-1.15,0-.95,1.08-1.95.86-1.88a3.46,3.46,0,0,0-1.43,1.74c-.1.25.22.49.27.51l.61.39a9.67,9.67,0,0,1-4.68,1.47l-1,3.27c-.12-.05-.12-.16-.14-.24l-.59-1.78s0,0,0,0c-.21-.68-.49-1.49-.75-2.15.65-.69,2.09-.78,1.87-.87a3.46,3.46,0,0,0-2.22.39c-.24.13-.15.51-.13.56s.12.38.17.56a9.83,9.83,0,0,1-3.68-1.8l0,0a6.27,6.27,0,0,1-.62-.48c-.14-.05-.26,0-.55.16l-1,.53s-.1.07-.15,0,0-.1,0-.15l.5-1.4.13-.35A10.94,10.94,0,0,1,9,20.45c-.43-.14-.91-.27-1.24-.41L7.62,20c.35-.16.94-.32,1.35-.46A11,11,0,0,1,11.29,13l0-.07c-.17-.43-.33-.87-.49-1.3,0-.07-.1-.15,0-.21s.14,0,.21.06l1.18.57a9.89,9.89,0,0,1,5.15-2.73c.31-1,.64-2,1-3l0-.08c.11,0,.1.15.13.23L19,8.21l.1.29.21.65h0l.27.74c-.66.69-2.09.76-1.88.86a3.46,3.46,0,0,0,2.23-.38c.24-.12.15-.51.13-.56-.07-.21-.13-.42-.18-.62a9.7,9.7,0,0,1,4.74,1.69l.95-.6c.77-.5,1.56-1,2.33-1.48l.06,0c.05,0,.11-.09.17,0s0,.11,0,.17L27,11.2l-.6,1.28v0c-.18.41-.36.83-.51,1.21-.95.07-2.06-.84-2-.63a3.46,3.46,0,0,0,1.9,1.22c.26.07.46-.28.48-.33.17-.35.33-.68.49-1a10.9,10.9,0,0,1,2.27,5.44l4.06,1.12A.21.21,0,0,1,33.31,19.63Zm-10.08.21c0-.13,0-.3,0-.47s0-.49-.08-.73a7.68,7.68,0,0,0-.6-2,7,7,0,0,0-1.69-2.29,5.82,5.82,0,0,0-1.76-1.11,5.53,5.53,0,0,0-2-.38,5.36,5.36,0,0,0-2.68.7l-.4.25-.38.29A7.24,7.24,0,0,0,10.84,20a7.39,7.39,0,0,0,.29,2.08q.07.25.16.5A7.06,7.06,0,0,0,12,24a5.81,5.81,0,0,0,5,2.92l.45,0a5.17,5.17,0,0,0,1.81-.46l.41-.21a6.16,6.16,0,0,0,1.14-.83,7,7,0,0,0,1.25-1.5l.19-.33A8.39,8.39,0,0,0,23.23,19.83Z"/></svg>