<svg xmlns="http://www.w3.org/2000/svg" class="HeroAbility-icon HeroAbility-icon--hoverState" viewBox="0 0 40 40" preserveAspectRatio="xMidYMid meet"><path d="M15,32.79l-.49.45Zm9.58-13.05h0v0s0,0,0,0,0,0,0,0v-.07h0c-.05.12-.12.23-.18.35h0v0s0,.06,0,.11,0,0,0,0,0,0,0,.1,0,0,0,0l0,.11s0,0,0,0,.06.05.08.08l0,0s0,0,0,.05l0,0h0l0-.07h0v0h0s0,0,0,0a0,0,0,0,1,0,0v0s-.05.09-.05,0v0s0-.07,0-.09,0-.08.05-.07.08-.24.16-.34S24.65,19.79,24.63,19.74ZM15,32.79l.16-.15h0Zm5.14-5.19h0Zm0,0h0Zm0,0h0s0,0,0,0h0l0,0h0Zm0,0h0Zm0,0h0ZM30,14.82s-.84-1-2.31-2.49h0l-.56-.52A55.61,55.61,0,0,0,19.1,5.19s-3,6.82-5.34,12.26a28.47,28.47,0,0,1,4.92-1.61h0c0,.2,0,.41,0,.63a.12.12,0,0,0,0,.06,15.3,15.3,0,0,1-.34,2.52l0,.08a2.75,2.75,0,0,1-.12.26l-.06.11.08-.12c0,.1,0,.19,0,.27-.11.44-.24.9-.4,1.38,0,0-.09.09-.09,0,0,.14-.11.24-.11.38s-.23.39-.36.59l-.18.31-.19.31h0c-.08.15-.09.33-.27.45s-.17.33-.13.45a4.26,4.26,0,0,0-.23.36c.07,0-.08.16,0,.14s.1-.07.22-.09h0a4.55,4.55,0,0,0,.58-.41l.27-.23.25-.25c.09-.13.19-.26.29-.39s.17-.21.24-.31c0,.17-.09.34-.14.51s-.13.41-.19.62l-.09.32-.11.31-.2.62-.23.6c-.08.17,0,.4.15.27l-.12.26-.14.25c-.19.34.08.25-.11.59a13.24,13.24,0,0,1-2.77,3.85,40.56,40.56,0,0,1-3.74,3.19c.35-.22.68-.4,1-.59a4.48,4.48,0,0,0,.46-.31c.15-.12.29-.24.44-.39,0,0,.13.14.29,0a16.64,16.64,0,0,0,1.43-1.24,4.86,4.86,0,0,1,1.11-.91A2.15,2.15,0,0,0,16,29.7l-.4.48.15.12a20.31,20.31,0,0,0,1.8-2.07l.17.1L18,28c.31-.07.14.38-.19,1-.18.28-.4.6-.61.9s-.45.57-.6.79l.2.15.28-.34.1.07-.62.74-.63.67c-.22.24-.46.48-.71.71,0,0,.09.09.26-.07l-1.08,1a10.79,10.79,0,0,0-1.08,1c-.13.19.16.19.73-.2l.7-.58.67-.62.09.09-.6.53a7.7,7.7,0,0,0-.6.53c-.13.19.48-.15.35,0a2.57,2.57,0,0,0-.49.49l.88-.75a11.18,11.18,0,0,1,.86-.77c.22-.11.43-.23.52-.15A7.86,7.86,0,0,1,17.58,32a5.55,5.55,0,0,1,1.09-.73,2.36,2.36,0,0,0,.6-.67l.37-.52c.14-.17.27-.35.4-.52l.45-.62c.28-.43.55-.87.82-1.32a21,21,0,0,0,1.29-2.82c.09-.24.18-.48.26-.72l.23-.73.11-.36.1-.37.19-.73c.23-1,.44-1.94.6-2.88l.16-.47c.06-.18.1-.36.14-.48a13.25,13.25,0,0,0,0-3.11v-.09l.39,0c0,.09,0,.18,0,.26,0,.25.29.63.11.8,0,.16,0,.31,0,.47h0c0,.45.08.95.06,1.37,0,.18.07.25,0,.32-.11.35-.07.8-.15,1.15,0,0,.05.06.09,0s.13-.38.22-.37l0,.07.1-.11v-.08l.06,0c.06-.13.16-.24.23-.38a.78.78,0,0,1,.07-.38h0c0-.57.06-1.23,0-1.93a11.62,11.62,0,0,0-.09-1.2A38.06,38.06,0,0,1,30,14.82ZM20.22,27.75s0,0,0,0h0s0,0,0,0h0s0,0,0,0h0s0,.05-.06.08,0,0,0,0a.77.77,0,0,1-.06.16s-.06,0-.07,0h0s0,.06,0,.06,0,0,0,0h0v0a.17.17,0,0,0,0,.05s0,0,0,0,0,0,0,0l0,0s-.1.06-.14.09h0s0,.16,0,.15h0s0,0-.06,0h0s-.07.08-.09.11,0,0,0,0a.55.55,0,0,1-.1.13s-.09.05-.13.1a.53.53,0,0,1-.23,0h0s0,0,0,0,0,0,0,0,0,0,0-.06,0-.07,0-.11,0,0,0-.07h0a.64.64,0,0,1,.12-.16s0,0,0-.06,0,0,0,0v0h0s0,0,.06-.06h0a0,0,0,0,1,0,0s0,0,0-.06h0a.43.43,0,0,0,0-.08h0a.69.69,0,0,0,.14-.11c.06,0,.11-.09.08-.17l0,0s0,0,.11,0c-.13-.08-.06-.11,0-.13a.17.17,0,0,0,0,.06h0a0,0,0,0,1,0,0s0,0,0,0h0s0,0,0,0,0,0,.07,0h0l0,0h0s0,0,0,0h0s0,0,0,0h0l0,0s0,0,0,0h0s0-.06,0-.06,0,0,0,0,0,0,0,0,0,0,0,0,0,0,0,0h0s0,0,0,0h0s0,0,0,0,0,0,0,0,0,0,0,0H20v0h0s0,0,0,0h0s0,0,0,0,.12,0,.12,0h0l0,0h0s0,0,0,0,0,0,0,0,0,0,0,0,0,0,0,0,0,0,0,0l0,0s0,0,0,0l.06,0s0,0,0,0h0l.07.06h0Z"/></svg>