<svg xmlns="http://www.w3.org/2000/svg" class="HeroAbility-icon HeroAbility-icon--hoverState" viewBox="0 0 40 40" preserveAspectRatio="xMidYMid meet"><g id="_Group_4" data-name=" Group 4"><path id="_Path_30" data-name=" Path 30" d="M22,18.17v1c0,.16-.06.21-.21.21a12.26,12.26,0,0,1-1.31,0,1.94,1.94,0,0,0-1.54.59,9.54,9.54,0,0,0-1,1.07,14.37,14.37,0,0,1-1.49,1.41,1.14,1.14,0,0,1-.45.16l-1.08.31a4.76,4.76,0,0,1-1.08.1,6.14,6.14,0,0,1-2.7-.45,6.88,6.88,0,0,1-1.22-.79,2.7,2.7,0,0,1-1-1.39,1.72,1.72,0,0,1-.08-1.23,2.78,2.78,0,0,0,.06-.79,1.39,1.39,0,0,1,2-1l.39.25a1.4,1.4,0,0,1,.54,1.65A.63.63,0,0,0,12,20a1.7,1.7,0,0,0,1.26.53,4.28,4.28,0,0,0,1.74-.3s.09,0,.12-.06c.26-.33.54-.64.81-1a5.39,5.39,0,0,1,1.92-1.74,7.11,7.11,0,0,1,2-.5,17,17,0,0,1,1.89,0c.21,0,.31,0,.29.28S22,17.85,22,18.17Z"/><path id="_Compound_Path_7" data-name=" Compound Path 7" d="M36.43,14.13a10.82,10.82,0,0,1,.39,1.23.76.76,0,0,1-.2.59,4.54,4.54,0,0,1-.82.75,1.38,1.38,0,0,1-.87.22c-.26,0-.29,0-.18.3a4.66,4.66,0,0,0,.46.89,2.4,2.4,0,0,1,.27,1.13,2.31,2.31,0,0,0,.22.68,29.3,29.3,0,0,1,1.5,3.42,11.47,11.47,0,0,0,.8,1.58.33.33,0,0,1,0,.42c-.21.27-.44.54-.66.81a.61.61,0,0,1-.17.13c-1.21.67-2.46,1.28-3.7,1.88-.14.07-.2,0-.26-.08a2.56,2.56,0,0,0-1-1.13c-.11-.06-.06-.13,0-.2s.24-.4.38-.58a1,1,0,0,0,.12-1L31,20c-.06-.18-.15-.34.12-.42.1,0,.1-.14.06-.23a17.2,17.2,0,0,1-.52-1.64.27.27,0,0,0-.28-.21h-.8a.29.29,0,0,0-.27.21c-.12.26-.36.11-.54.14s-.15-.13-.18-.23c-.09-.33-.09-.34.25-.34H33a.42.42,0,0,0,.44-.21,3,3,0,0,1,.35-.43,1.51,1.51,0,0,1,1.29-.56,4.43,4.43,0,0,1,.77,0c.09,0,.14,0,.2-.1a6.17,6.17,0,0,1,.5-.53.24.24,0,0,0,.08-.29,6.43,6.43,0,0,1-.24-1.13Zm.12,9.8a3,3,0,0,0-.13-.68,12.81,12.81,0,0,0-1-2.43A14.45,14.45,0,0,0,33.55,18a.76.76,0,0,0-.65-.3,1.44,1.44,0,0,0-.69.28.27.27,0,0,0-.12.35q.34,1.11.67,2.23c.41,1.38.79,2.77,1.28,4.13a8.5,8.5,0,0,1,.31.89.61.61,0,0,0,.78.36,2.63,2.63,0,0,0,1.43-2Z"/><path id="_Path_31" data-name=" Path 31" d="M30,30.19H27.28a1.46,1.46,0,0,1-1.39-.71c-.74-1.13-1.52-2.25-2.28-3.37l-.64-1a.27.27,0,0,0-.26-.13,16.68,16.68,0,0,0-2,0,.24.24,0,0,1-.24-.12c-.35-.48-.71-1-1.07-1.42a.27.27,0,0,1,0-.18v-.39a.38.38,0,0,1,.28-.43.35.35,0,0,1,.46.18l0,.05c.17.38.34.75.49,1.14A.31.31,0,0,0,21,24h2.87a.64.64,0,0,1,.59.31c.77,1.14,1.57,2.26,2.38,3.38.19.26.4.51.59.77a.29.29,0,0,0,.23.11c1.6.16,3.2.18,4.8.27a.66.66,0,0,0,.32-.09c1-.48,2-1,3-1.45.42-.19.78-.51,1.21-.67a1.74,1.74,0,0,0,.86-.67.15.15,0,0,1,.19-.11c.09,0,0,.12.06.19a2.42,2.42,0,0,1,.12.68.86.86,0,0,1-.42.64l-1.89,1.17-2.61,1.61a.43.43,0,0,1-.25,0H30Z"/><path id="_Path_32" data-name=" Path 32" d="M35.45,12.4a2,2,0,0,0,.64.69c.08,0,.06.16.06.25a6,6,0,0,0,.22,1.87.36.36,0,0,1-.08.28,1.05,1.05,0,0,1-1.15.46,1.71,1.71,0,0,0-1.68.81.81.81,0,0,1-.76.39H29c-.51,0-.5,0-.55-.51a24.38,24.38,0,0,1,0-3.13,1,1,0,0,0,0-.29c-.07-.24,0-.26.25-.26H34.9c.4,0,.4,0,.5-.39Z"/><path id="_Path_33" data-name=" Path 33" d="M24.41,13.49a1.09,1.09,0,0,0,.17,1c0,.11.17.11.28.11a2.59,2.59,0,0,1,.87.06c.13,0,.18,0,.18-.15a2.26,2.26,0,0,0,0-.43.41.41,0,0,1,.21-.53.74.74,0,0,1,1,.28,3.63,3.63,0,0,1,.15.71,24.68,24.68,0,0,1,.35,3v.16c.23.22.17.51.21.77a.69.69,0,0,1-.17.61.63.63,0,0,0-.15.38c0,.49-.47.76-.68,1.15,0,.07-.13,0-.2,0h-3a.37.37,0,0,1-.38-.36s0,0,0,0V13.86c0-.3.09-.4.4-.4Z"/><path id="_Compound_Path_8" data-name=" Compound Path 8" d="M33.13,28.28a2,2,0,0,1-1.58.33c-.83,0-1.67-.1-2.5-.12-.47,0-.93-.09-1.4-.12-.13,0-.19-.11-.26-.19-.76-1-1.48-2-2.19-3l-.73-1.08a.57.57,0,0,1,.3,0h2.09a.58.58,0,0,0,.57-.29c.19-.32.41-.62.63-.92a.32.32,0,0,0,0-.18c0-1.19.09-2.38.09-3.57s-.14-2.47-.26-3.7l-.35-3.58a.84.84,0,0,1,0-.15,4.35,4.35,0,0,1,.57,1.81v2.75a5.25,5.25,0,0,0,.2,1.51,2.26,2.26,0,0,1,.1.77v2a.61.61,0,0,0,.17.43l.7.79a.44.44,0,0,1,.11.31v1.41a.36.36,0,0,1-.16.3l-.17.13A1.09,1.09,0,0,0,28.6,25v1.65c0,.37.06.43.42.43h2.46a1.18,1.18,0,0,1,.85.34,2.31,2.31,0,0,1,.6.79Zm-5.67-1.43a.72.72,0,0,0,.68-.74.89.89,0,0,0-.91-.8.65.65,0,0,0-.58.68A.91.91,0,0,0,27.46,26.85Z"/><path id="_Path_34" data-name=" Path 34" d="M28,19a3.62,3.62,0,0,1,0,.86c-.07.82,0,1.64-.08,2.45a1.32,1.32,0,0,1-.22.68c-.15.24-.32.47-.49.7a.29.29,0,0,1-.27.13H24.82c-1.28-.06-2.56,0-3.84,0a.21.21,0,0,1-.22-.14.67.67,0,0,1,0-.28V19.92c0-.19,0-.26.24-.25s.6,0,.9,0a.33.33,0,0,1,.33.15.47.47,0,0,0,.55.24c.19,0,.25,0,.24.23a2.34,2.34,0,0,0,.14,1.19.32.32,0,0,0,.26.21,15.2,15.2,0,0,0,3,0c.65,0,.66,0,.84-.66a11.92,11.92,0,0,0,.46-1.6A.89.89,0,0,1,28,19Z"/><path id="_Path_35" data-name=" Path 35" d="M27.93,17.77a.3.3,0,0,1-.19-.29A21.18,21.18,0,0,0,27.29,14a1.41,1.41,0,0,1,0-.41.69.69,0,0,0-.56-.8H23.49c-.41,0-.55.23-.54.59v2.77c0,.12,0,.16-.16.15a.66.66,0,0,0-.7.26.25.25,0,0,1-.22.08h-1c-.16,0-.16-.09-.16-.21V11.53c0-.21.06-.26.26-.26h2c1.12.1,2.23,0,3.35,0h.85c.29,0,.2,0,.21.19.12,1.33.25,2.66.37,4C27.8,16.24,27.86,17,27.93,17.77Z"/><path id="_Path_36" data-name=" Path 36" d="M7.37,18.34a6.4,6.4,0,0,1-1.82-.11.89.89,0,0,1-.5-.36,3.9,3.9,0,0,1-.57-1.23c0-.08-.07-.18.07-.21s.07-.08.07-.14v-1.7c0-.14,0-.31-.22-.28s-.09-.08-.07-.14a2.17,2.17,0,0,1,.45-.91,1.26,1.26,0,0,1,.8-.32H7s0,.09,0,.13a3.92,3.92,0,0,0-.67,3.16,4,4,0,0,0,.55,1.52A2.35,2.35,0,0,0,7.37,18.34Z"/><path id="_Path_37" data-name=" Path 37" d="M13.81,13.32H16c.15,0,.23,0,.25.21v1.33c0,.23-.2.3-.34.37a.51.51,0,0,0-.31.59c0,.08.07.22-.09.23s-.16-.14-.15-.22a.77.77,0,0,0-.4-.72.36.36,0,0,0-.48,0c-.33.23-.33.22-.4-.16v-.17a.33.33,0,0,0-.32-.34h-.09a1.51,1.51,0,0,1-.8-.11.73.73,0,0,0-.68.05.78.78,0,0,1-.4.06H11.3c-.39,0-.47-.08-.44-.47a.71.71,0,0,1,.75-.67h2.2Z"/><path id="_Path_38" data-name=" Path 38" d="M18.92,14.35v1.48c0,.06,0,.15-.06.16s-.1-.08-.11-.14c0-.31-.23-.45-.45-.56s-.17-.29-.35-.26-.24.19-.38.25a.42.42,0,0,0-.3.51c0,.07,0,.17-.11.18a.13.13,0,0,1-.15-.15c0-.29-.17-.41-.37-.54a.37.37,0,0,1-.18-.36v-1.5a2.29,2.29,0,0,1,0-.26c.07-.3.14-.35.45-.36.57,0,1.14-.09,1.71-.08.2,0,.26.07.25.27v1.38Z"/><path id="_Path_39" data-name=" Path 39" d="M4.46,13.37a3.43,3.43,0,0,0-.34.91c0,.12-.11.13-.19.15l-1.39.33c-.18,0-.22.12-.21.29a3.1,3.1,0,0,1,0,.68c0,.21,0,.28.23.31L4,16.36c.15,0,.22.08.25.23A4.34,4.34,0,0,0,4.88,18l-1-.33-1.13-.4a1.23,1.23,0,0,1-.68-.7,2.54,2.54,0,0,1-.23-1.51,1.12,1.12,0,0,1,.64-1c.62-.26,1.26-.48,1.89-.72Z"/><path id="_Path_40" data-name=" Path 40" d="M10.3,12.82a1.19,1.19,0,0,0-.71,1.09,1.21,1.21,0,0,1-.27.66,4.29,4.29,0,0,0-.85,2.09,2.19,2.19,0,0,0,.17,1.14.74.74,0,0,1,.05.61c0-.13-.14-.07-.22-.1a1.15,1.15,0,0,1-.8-1,2.93,2.93,0,0,1,.2-1.8,4.84,4.84,0,0,1,.3-.58,10.25,10.25,0,0,0,.66-1.59.79.79,0,0,1,.85-.56A2.2,2.2,0,0,0,10.3,12.82Z"/><path id="_Path_41" data-name=" Path 41" d="M8,18.31a1.41,1.41,0,0,1-1.16-1,4.46,4.46,0,0,1-.23-3.09A2,2,0,0,1,7.35,13a.33.33,0,0,1,.2-.08H8.76c0,.18-.08.24-.23.23a5.1,5.1,0,0,1-.85,0,.26.26,0,0,0-.28.11.25.25,0,0,0,0,.3.47.47,0,0,0,.45.26,1.11,1.11,0,0,1,.32,0c.08,0,.25-.08.24.1s0,.32-.26.3H7.71c-.32,0-.57.2-.56.43a.5.5,0,0,0,.59.39H7.9c-.15.24-.14.51-.47.6a.41.41,0,0,0-.11.73.29.29,0,0,1,.12.29A2,2,0,0,0,8,18.31Z"/><path id="_Path_42" data-name=" Path 42" d="M20,14.47v1.85c0,.37,0,.37-.35.43h-.24c-.46.06-.38.13-.51-.33,0-.12,0-.2.12-.22s.14-.1.14-.2V13a2.84,2.84,0,0,1,.1-.56.11.11,0,0,1,.1-.09h0c.59-.07.61-.06.61.53S20,13.93,20,14.47Z"/><path id="_Path_43" data-name=" Path 43" d="M14.15,16.22a.8.8,0,0,0,0-.48.24.24,0,0,1,0-.1,3.54,3.54,0,0,1,.6-.42.59.59,0,0,1,.41.41,9.69,9.69,0,0,0,.34,1.54,1.27,1.27,0,0,0,.15.38.29.29,0,0,0,.14.13c.08,0,.2-.06.25,0a4.5,4.5,0,0,1,.17.48.13.13,0,0,1,0,.13.82.82,0,0,1-1.13.11,2.49,2.49,0,0,1-.71-1.25A3.7,3.7,0,0,1,14.15,16.22Z"/><path id="_Path_44" data-name=" Path 44" d="M31.35,11.63c.18.05.31.15.47.19s.33,0,.35-.2.07-.15.18-.15h2.06c.14,0,.2.07.23.2a2,2,0,0,1,0,1,.14.14,0,0,1-.15.12H32.33c-.07,0-.15,0-.12-.12a.37.37,0,0,0-.2-.38c-.18-.12-.35-.26-.52-.39A.28.28,0,0,1,31.35,11.63Z"/><path id="_Path_45" data-name=" Path 45" d="M20,20.94V22c0,.14,0,.18-.18.18H18a1.32,1.32,0,0,1-.47-.4.19.19,0,0,1,.21-.17h0l.16,0a.78.78,0,0,0,1-.94c0-.13-.15-.27-.08-.39a1.19,1.19,0,0,1,.41-.37,1.84,1.84,0,0,1,.55-.3c.14,0,.23,0,.22.17C20,20.22,20,20.58,20,20.94Z"/><path id="_Path_46" data-name=" Path 46" d="M14.85,18.74l-1.27-.26a4.91,4.91,0,0,1-.58-.17.33.33,0,0,1-.25-.45.38.38,0,0,0-.06-.34,8.23,8.23,0,0,1-.49-.86.85.85,0,0,1,0-.6,5.43,5.43,0,0,1,.61-1.29.2.2,0,0,1,.2-.11h.61c.14,0,.17,0,.11.17l-.28.62a3.17,3.17,0,0,0-.18,2.32.86.86,0,0,0,.61.6,6.72,6.72,0,0,0,.86.26l.12,0Z"/><path id="_Path_47" data-name=" Path 47" d="M30.11,11.29l1.19-.9c.16-.12.32,0,.49,0a1.66,1.66,0,0,1,.8.11,5.78,5.78,0,0,0,1.78.38,2.68,2.68,0,0,0,.45.05c.28,0,.31.24.35.47a2.24,2.24,0,0,0-1.38-.15H30.73C30.54,11.25,30.37,11.46,30.11,11.29Z"/><path id="_Path_48" data-name=" Path 48" d="M23,18.19v1.38c0,.09.07.24-.08.27s-.35.1-.48,0a.82.82,0,0,1-.26-.6V17.08c0-.42.29-.62.71-.55.14,0,.1.13.1.21C23,17.22,23,17.71,23,18.19Z"/><path id="_Path_49" data-name=" Path 49" d="M23.2,20.8a.53.53,0,0,0,.41.1h3.11a.2.2,0,0,0,.21-.11.74.74,0,0,1,.22-.28,6,6,0,0,1-.27.92.16.16,0,0,1-.16.09,19.25,19.25,0,0,1-3,0C23.27,21.48,23.13,21.27,23.2,20.8Z"/><path id="_Path_50" data-name=" Path 50" d="M4.42,15.37V16c0,.23,0,.16-.16.14a14,14,0,0,1-1.59-.34.15.15,0,0,1-.13-.17h0c0-.69,0-.69.64-.85l1-.24c.17,0,.22,0,.21.17s0,.42,0,.63Z"/><path id="_Path_51" data-name=" Path 51" d="M16.27,15.27a1.42,1.42,0,0,1,.51.45c.11.55.2,1.1.36,1.63a.13.13,0,0,1,0,.17,2.66,2.66,0,0,0-.59.54c-.07.08-.12.1-.16,0a8.87,8.87,0,0,1-.53-2.24C15.8,15.62,16.11,15.27,16.27,15.27Z"/><path id="_Path_52" data-name=" Path 52" d="M8.88,17A1.9,1.9,0,0,1,9,15.79a4,4,0,0,1,.54-.95,1.91,1.91,0,0,0,.39-.93,1.28,1.28,0,0,1,.44-.87c.07-.06.15-.12.23,0s0,.12-.06.18a3.39,3.39,0,0,0-.4,1.61,1.25,1.25,0,0,1-.19.65,2,2,0,0,0-.29.74.28.28,0,0,1-.15.2A1.69,1.69,0,0,0,8.88,17Z"/><path id="_Path_53" data-name=" Path 53" d="M30,17.78h.24a.22.22,0,0,1,.24.18,14.1,14.1,0,0,0,.45,1.43c0,.08,0,.16-.06.17a2.71,2.71,0,0,0-.65.2c-.33.1-.5,0-.48-.35a3.33,3.33,0,0,0-.2-1.15c-.13-.42-.09-.47.34-.48Z"/><path id="_Path_54" data-name=" Path 54" d="M17.48,15.93a.69.69,0,0,1,.41-.63H18c.22.18.53.29.6.62s.12.54.2.8,0,.17-.12.2l-.63.19c-.21.07-.17,0-.21-.08A3.85,3.85,0,0,1,17.48,15.93Z"/><path id="_Path_55" data-name=" Path 55" d="M20.53,11.8v4.69c0,.16-.09.18-.21.19s-.13-.07-.13-.17V12.64A1.42,1.42,0,0,1,20.53,11.8Z"/><path id="_Path_56" data-name=" Path 56" d="M9.25,16.83a5.69,5.69,0,0,1,1.21-.67.35.35,0,0,1,.28,0,3,3,0,0,0,.63.26c.7.14.93.72,1.16,1.26.1.23-.06.5-.13.75a.43.43,0,0,0-.07-.29,1.86,1.86,0,0,0-1.2-1.34,1.76,1.76,0,0,0-1.54,0,1.72,1.72,0,0,1-.31.1Z"/><path id="_Path_57" data-name=" Path 57" d="M30,12.75h-.36c-.22,0-.31,0-.26-.28a2.25,2.25,0,0,0,0-.77c0-.12,0-.16.14-.16h.82c.13,0,.18.09.23.19a2.59,2.59,0,0,1,.13.88c0,.11-.08.13-.16.13Z"/><path id="_Path_58" data-name=" Path 58" d="M13.35,19.38h-.87c-.12,0-.15,0-.09-.14a2.47,2.47,0,0,0,.23-.71c0-.09,0-.15.16-.09a6.3,6.3,0,0,0,1.45.39c.13,0,.28,0,.23.23s0,.35-.27.33S13.63,19.38,13.35,19.38Z"/><path id="_Path_59" data-name=" Path 59" d="M9.88,16.18a2.49,2.49,0,0,1,.45-.92.28.28,0,0,1,.25-.08h1.58c.17,0,.18.06.11.19a2.24,2.24,0,0,0-.31,1c0,.08,0,.14-.12.09s-.25,0-.21-.21a3.89,3.89,0,0,1,.12-.39c.06-.17,0-.26-.17-.28a4.41,4.41,0,0,0-.75,0,.22.22,0,0,0-.23.18c0,.19-.17.25-.33.3Z"/><path id="_Path_60" data-name=" Path 60" d="M14.57,18.35a3.43,3.43,0,0,1-.84-.28.62.62,0,0,1-.27-.41,2.51,2.51,0,0,1-.06-1.36.93.93,0,0,1,.12-.29.31.31,0,0,1,.35-.09c.11,0,0,.15,0,.24a6.69,6.69,0,0,0-.05.82,1.18,1.18,0,0,0,.39.91A2.15,2.15,0,0,1,14.57,18.35Z"/><path id="_Path_61" data-name=" Path 61" d="M28.18,11.26a3.67,3.67,0,0,0,.65.05c.19,0,.22.18.25.31a2.27,2.27,0,0,1,0,1,.17.17,0,0,1-.21.18H28.6a.28.28,0,0,1-.32-.29A4.47,4.47,0,0,0,28.18,11.26Z"/><path id="_Path_62" data-name=" Path 62" d="M23.19,13.35c-.09-.2,0-.29.18-.31h3.18c.34,0,.43.08.49.35a1.38,1.38,0,0,0-1.09,0,.12.12,0,0,1-.09,0,3,3,0,0,0-1.1-.08,8.13,8.13,0,0,1-1.35-.05C23.31,13.22,23.29,13.33,23.19,13.35Z"/><path id="_Path_63" data-name=" Path 63" d="M12.1,19a1.84,1.84,0,0,0-1-1.65,1.67,1.67,0,0,0-1.92.17.31.31,0,0,1,.21-.39h0l.85-.29a.23.23,0,0,1,.17,0,4.85,4.85,0,0,1,1.16.48,1.61,1.61,0,0,1,.61,1.2v.47Z"/><path id="_Path_64" data-name=" Path 64" d="M20.49,22.94a1.3,1.3,0,0,1-.29-.86V19.69a.25.25,0,0,1,.16,0c.08,0,.06.1.06.16Q20.49,21.4,20.49,22.94Z"/><path id="_Path_65" data-name=" Path 65" d="M25.08,13.49c.16,0,.36-.07.47.15a1.77,1.77,0,0,1,.13.71c0,.07-.06.07-.11.05a1.56,1.56,0,0,0-.58,0,.27.27,0,0,1-.32-.21h0c0-.15-.14-.29-.1-.44S24.87,13.48,25.08,13.49Z"/><path id="_Path_66" data-name=" Path 66" d="M23.46,11.11c0-.24.09-.29.31-.29h2.12c.09,0,.16,0,.17.13s-.08.12-.16.12H24.44Z"/><path id="_Path_67" data-name=" Path 67" d="M31.24,12.38c0,.12.1.37-.22.37-.11,0-.16,0-.18-.14a3.42,3.42,0,0,0-.16-1c0-.08,0-.13.1-.13s.28-.08.33.1A2.43,2.43,0,0,1,31.24,12.38Z"/><path id="_Path_68" data-name=" Path 68" d="M18.62,20.58a.66.66,0,0,1,0,.76.49.49,0,0,1-.52.17c-.14,0-.23,0-.09-.2A8.9,8.9,0,0,1,18.62,20.58Z"/><path id="_Path_69" data-name=" Path 69" d="M34.81,11.48a.32.32,0,0,1,.28.21,1.07,1.07,0,0,1,.09.9.23.23,0,0,1-.28.17h0c-.15,0-.07-.16,0-.24A2.55,2.55,0,0,0,34.81,11.48Z"/><path id="_Path_70" data-name=" Path 70" d="M11.58,14.64a1.36,1.36,0,0,0,.35,0c.1,0,.19,0,.19.14s0,.2-.17.2h-.87c-.12,0-.17-.05-.17-.17s.06-.17.18-.16Z"/><path id="_Path_71" data-name=" Path 71" d="M17.15,16.17a.17.17,0,0,1,.19.14,3.69,3.69,0,0,0,.25.78c.07.14,0,.16-.12.2s-.14,0-.16-.1c-.07-.3-.13-.6-.2-.9C17.1,16.23,17.11,16.17,17.15,16.17Z"/><path id="_Path_72" data-name=" Path 72" d="M11.53,15.83c0,.11,0,.27-.11.33s-.32-.08-.49-.11-.2-.06-.15-.2a.13.13,0,0,1,.12-.11h.56S11.54,15.76,11.53,15.83Z"/><path id="_Path_73" data-name=" Path 73" d="M7.65,14.85c-.16,0-.28-.07-.28-.22s.12-.18.24-.19a1.36,1.36,0,0,1,.31,0c.08,0,.23-.07.23.07a.3.3,0,0,1-.2.3Z"/><path id="_Path_74" data-name=" Path 74" d="M11.18,13.16a1,1,0,0,0-.53,1c0,.13,0,.2-.16.18s0-.13,0-.19a2,2,0,0,1,.37-1C10.93,13.05,11,13,11.18,13.16Z"/><path id="_Path_75" data-name=" Path 75" d="M8.14,13.62a.85.85,0,0,1-.49-.08s-.07,0-.06-.09.06,0,.1,0h.75s.13,0,.13.07,0,.15-.13.15Z"/><path id="_Path_76" data-name=" Path 76" d="M15.93,17.49a.25.25,0,0,1-.21-.22c-.08-.29-.15-.58-.22-.87v-.13a.09.09,0,0,1,.11.07h0Z"/><path id="_Path_77" data-name=" Path 77" d="M10.71,14.72c0,.1.06.27-.15.26s-.22-.07-.21-.21a.3.3,0,0,1,.31-.24C10.8,14.53,10.67,14.66,10.71,14.72Z"/><path id="_Path_78" data-name=" Path 78" d="M13.57,15.69l.31-.61C14,15.62,13.94,15.71,13.57,15.69Z"/><path id="_Path_79" data-name=" Path 79" d="M12.68,14.55a.38.38,0,0,1-.1.21c0,.06-.07.24-.21.19s0-.17,0-.26a.18.18,0,0,1,.21-.17C12.71,14.53,12.64,14.51,12.68,14.55Z"/><path id="_Path_80" data-name=" Path 80" d="M28,11.44a1.83,1.83,0,0,1,.08.64A.42.42,0,0,1,28,11.44Z"/><path id="_Path_81" data-name=" Path 81" d="M31.44,12.14a3,3,0,0,1,.49.34s.08.07,0,.12-.09,0-.13,0A.7.7,0,0,1,31.44,12.14Z"/><path id="_Path_82" data-name=" Path 82" d="M7.55,15.8l-.08.37C7.32,16,7.32,16,7.55,15.8Z"/><path id="_Path_83" data-name=" Path 83" d="M31.65,11.51c.1,0,.2-.08.28,0a.08.08,0,0,1,0,.06A.29.29,0,0,1,31.65,11.51Z"/><path id="_Path_84" data-name=" Path 84" d="M31.65,12.73c-.09,0-.16.06-.22,0a.09.09,0,0,1,0-.09C31.54,12.58,31.58,12.66,31.65,12.73Z"/><path id="_Path_85" data-name=" Path 85" d="M36.33,24a2.19,2.19,0,0,1-1.25,1.77c-.22.12-.4,0-.51-.26A29.06,29.06,0,0,1,33.37,22c-.33-1.13-.66-2.25-1-3.37-.13-.41.09-.65.53-.6a1,1,0,0,1,.65.34,8.23,8.23,0,0,1,1,1.45,15.85,15.85,0,0,1,1.64,3.38A4.94,4.94,0,0,1,36.33,24Z"/><path id="_Path_86" data-name=" Path 86" d="M26.88,26c0-.32.14-.5.37-.5a.67.67,0,0,1,.69.59.51.51,0,0,1-.48.54h0A.67.67,0,0,1,26.88,26Z"/></g></svg>