<svg xmlns="http://www.w3.org/2000/svg" class="HeroAbility-icon HeroAbility-icon--hoverState" viewBox="0 0 40 40" preserveAspectRatio="xMidYMid meet"><g id="_Group_2" data-name="&lt;Group&gt;"><path id="_Path_2" data-name="&lt;Path&gt;" d="M15,18.76h3.83c.33,0,.65-.06,1,0s.26,0,.26.28,0,.65,0,1c0,.14-.06.19-.18.2a2.37,2.37,0,0,1-.5,0,4,4,0,0,0-.71,0h-7.8c-.24,0-.25,0-.3-.23a2.31,2.31,0,0,1,0-1c0-.09,0-.17.16-.16.79,0,1.59,0,2.38,0Z"/><path id="_Path_3" data-name="&lt;Path&gt;" d="M24.45,18.76h3.86c.3,0,.41.09.41.4a3.4,3.4,0,0,1-.12.81c0,.16-.16.16-.29.16H20.43c-.07,0-.12,0-.12-.1q0-.58,0-1.16c0-.09.06-.12.14-.12h4Z"/><path id="_Path_4" data-name="&lt;Path&gt;" d="M2,14a.3.3,0,0,1,0,.19c0,.91,0,1.81,0,2.72A4.59,4.59,0,0,0,2.19,18a.33.33,0,0,0,.18.27.35.35,0,0,1,.12.1,5.12,5.12,0,0,0,1,.89.78.78,0,0,1,.36.72c0,.4,0,.79,0,1.19,0,.11,0,.2-.16.2a13.34,13.34,0,0,1-1.45,0,.34.34,0,0,1-.33-.27c-.07-.26-.22-.49-.3-.76A.73.73,0,0,0,1.29,20a.49.49,0,0,1-.18-.36c0-.23-.09-.44-.11-.67a5.86,5.86,0,0,1,0-1.2,13,13,0,0,1,.3-1.63c.06-.27.09-.55.12-.82s.12-.61.18-.91c0,0,0-.11.09-.12S1.91,14.11,2,14Z"/><path id="_Path_5" data-name="&lt;Path&gt;" d="M5.14,24.41c0,.36,0,.72,0,1.08,0,.2,0,.21-.21.21H3a.42.42,0,0,1-.45-.45q0-1,0-2c0-.25,0-.28.28-.25A11.94,11.94,0,0,0,5,23.15c.15,0,.19.05.19.18,0,.36,0,.72,0,1.08Z"/><path id="_Path_6" data-name="&lt;Path&gt;" d="M2.75,22.91a.61.61,0,0,1,.16-.28c.05-.08.15-.14.09-.25s-.15-.06-.23-.06h-1a.14.14,0,0,1-.13-.05,2.63,2.63,0,0,1,.53-.69.22.22,0,0,1,.17,0c.48,0,1,0,1.43,0a.39.39,0,0,1,.25.11.87.87,0,0,0,1.17.07.43.43,0,0,1,.49,0,2.3,2.3,0,0,0,.55.24.31.31,0,0,0,.34-.08c.05-.06.14-.09.18-.15a.54.54,0,0,1,.56-.24c.33,0,.67,0,1,0h.21c.1,0,.11.11.12.18s-.06.08-.1.09c-.37.13-.37.14-.18.47,0,.08.1.16.15.25l.15.24a1.72,1.72,0,0,1-.41.1,3.45,3.45,0,0,1-.95,0,.2.2,0,0,1-.21-.17,1.39,1.39,0,0,0-.06-.2c-.09-.22-.19-.27-.43-.27s-.65,0-1,0a.47.47,0,0,0-.54.6c0,.14,0,.18-.14.18H4C3.59,23,3.19,23,2.75,22.91Z"/><path id="_Path_7" data-name="&lt;Path&gt;" d="M5.66,24.63c0-.53,0-1.05,0-1.58a1,1,0,0,0-.12-.45c-.1-.2-.08-.22.13-.22h.79c.4,0,.49.09.49.5s0,.63,0,.95a13.49,13.49,0,0,1-.21,2c0,.1,0,.21,0,.31a.32.32,0,0,1-.25.3,2.85,2.85,0,0,1-.52.07c-.28,0-.28,0-.28-.27,0-.53,0-1.06,0-1.58Z"/><path id="_Path_8" data-name="&lt;Path&gt;" d="M32.84,20.23a2.25,2.25,0,0,0,0-1.72,3.56,3.56,0,0,1,.65,0c.22,0,.44,0,.66,0a9.57,9.57,0,0,1,1.62.21.73.73,0,0,1,.55.44.27.27,0,0,1-.07.35,1.55,1.55,0,0,1-.5.28,5,5,0,0,1-1.29.25L33,20.25A.23.23,0,0,1,32.84,20.23Z"/><path id="_Path_9" data-name="&lt;Path&gt;" d="M8.74,24.06c0,.32,0,.63,0,.95a.29.29,0,0,1-.22.31,5.06,5.06,0,0,1-1.45.27c-.12,0-.16,0-.15-.16s0-.3,0-.45a9.77,9.77,0,0,0,.1-1.47c0-.11,0-.23,0-.34s.07-.17.19-.16a4.24,4.24,0,0,0,1.23-.08c.2,0,.23,0,.23.2s0,.62,0,.92Z"/><path id="_Path_10" data-name="&lt;Path&gt;" d="M5.38,18.78s.07-.16.11-.25a.57.57,0,0,0,0-.53c-.08-.16-.32-.32-.45-.27s-.43.12-.47.4a.59.59,0,0,1-.06.17c0,.05-.05.12-.12.13s-.12-.07-.16-.12a.45.45,0,0,1-.05-.23,2.86,2.86,0,0,1,0-.61A.28.28,0,0,0,4,17.13a.73.73,0,0,0-.82,0l-.37.25c-.12-.47-.11-.49.33-.49a6.5,6.5,0,0,1,.9,0,.17.17,0,0,0,.1,0,1.27,1.27,0,0,1,.7-.08H6.44a.71.71,0,0,1,.43.09c.06,0,.08.09,0,.15a1.13,1.13,0,0,0-.18.7c0,.11,0,.21,0,.32a1.08,1.08,0,0,1-.5.74l0,0C5.91,18.75,5.61,18.95,5.38,18.78Z"/><path id="_Path_11" data-name="&lt;Path&gt;" d="M29.52,18.41H30a.3.3,0,0,1,.28.17,1.73,1.73,0,0,1-.05,1.76.33.33,0,0,1-.29.15H29a.54.54,0,0,1-.33-.23s0-.07,0-.1a1.75,1.75,0,0,0,0-1.48c-.06-.13.09-.28.28-.29h.53Z"/><path id="_Path_12" data-name="&lt;Path&gt;" d="M4.26,15.55c0-.19.05-.43.08-.67,0-.06,0-.13.1-.14s.31-.12.5-.08.29-.06.44,0a5.34,5.34,0,0,1,1,.14.63.63,0,0,0,.18,0,.32.32,0,0,1,.33.27c.06.28.1.57.14.86,0,.12,0,.15-.16.13a15.7,15.7,0,0,0-2.45-.17C4.26,15.88,4.26,15.88,4.26,15.55Z"/><path id="_Path_13" data-name="&lt;Path&gt;" d="M2.22,22.47l-.37.29a.66.66,0,0,0-.28.75c.17.71.29,1.43.43,2.15a.91.91,0,0,0,.41.76.22.22,0,0,1-.2,0,1.76,1.76,0,0,0-.41-.05,2.07,2.07,0,0,1-.44-.18s0-.05,0-.09c-.1-.62-.3-1.23-.43-1.85a4.39,4.39,0,0,0-.12-.53.93.93,0,0,1,0-.31,1.38,1.38,0,0,1,.78-1A5,5,0,0,1,2.22,22.47Z"/><path id="_Path_14" data-name="&lt;Path&gt;" d="M35,18.2a.51.51,0,0,1,.3,0,1.93,1.93,0,0,0,.68,0,3,3,0,0,1,.65.07.66.66,0,0,1,.51.49A2.07,2.07,0,0,1,37.22,20a.91.91,0,0,1-.71.61c-.4,0-.8.07-1.2.09a.79.79,0,0,1-.37,0l.16-.39c0-.1.14-.09.23-.11a2.85,2.85,0,0,0,.88-.33c.31-.17.36-.42.13-.75a.87.87,0,0,0-.63-.39h-.08C35.34,18.62,35.09,18.55,35,18.2Z"/><path id="_Path_15" data-name="&lt;Path&gt;" d="M37.52,18.51c.19-.06.34.1.52,0,0-.12-.15-.11-.21-.17.32,0,.64,0,1,0a.32.32,0,0,1,.3.25,2.42,2.42,0,0,1,0,1.6.36.36,0,0,1-.27.23,1.72,1.72,0,0,1-.46.06c-.31,0-.62,0-.92,0-.05,0-.14,0-.15-.06s0-.11.09-.15a.22.22,0,0,1,.27,0,.27.27,0,0,0,.12,0,.19.19,0,0,0,.19-.08.13.13,0,0,0-.06-.18c-.21-.12-.14-.32-.14-.5s.06-.16.19-.12l.12.05c.07,0,.14,0,.18,0a.14.14,0,0,0,0-.19,1.56,1.56,0,0,0-.29-.22A.76.76,0,0,1,37.52,18.51Z"/><path id="_Path_16" data-name="&lt;Path&gt;" d="M8.7,20.29a1.47,1.47,0,0,0,.61-.06s.09,0,.08-.09,0-.07-.09-.08a3.31,3.31,0,0,0-.58,0c-.14,0-.21,0-.23-.19a2.44,2.44,0,0,1,0-.79c.06-.3.07-.32.37-.32h.42a.22.22,0,0,0,.2-.07c-.1-.11-.22-.09-.34-.11a2.41,2.41,0,0,1-.37,0,.15.15,0,0,1,.19-.13c.3,0,.61.07.91.07s.2,0,.15.22a2.66,2.66,0,0,0,0,1.46c.07.23,0,.28-.18.29a5.07,5.07,0,0,1-.62.06.78.78,0,0,0-.23,0C8.82,20.53,8.73,20.48,8.7,20.29Z"/><path id="_Path_17" data-name="&lt;Path&gt;" d="M35.1,20.84a.22.22,0,0,1-.14.11,4.82,4.82,0,0,1-1.16.29c-.4,0-.8.12-1.2.2-.14,0-.28,0-.41.06s-.11,0-.09-.09a3.77,3.77,0,0,0,.09-.78.21.21,0,0,1,.23-.2,15.58,15.58,0,0,0,1.66-.13c.12,0,.23,0,.29.12a.62.62,0,0,0,.65.39s0,0,.07,0Z"/><path id="_Path_18" data-name="&lt;Path&gt;" d="M4,21.1A6.6,6.6,0,0,1,4,20a.8.8,0,0,0-.36-.74,7.61,7.61,0,0,1-1.2-1.11.51.51,0,0,1-.11-.24A3.57,3.57,0,0,1,2.21,17c0-.91,0-1.82,0-2.72,0,0,0-.09,0-.13s0-.14.11-.14a.14.14,0,0,1,.15.12,3.38,3.38,0,0,1,0,.68q0,1,0,2.09a.77.77,0,0,0,.06.26c.08.24,0,.49.11.73a.78.78,0,0,0,.1.24A4.52,4.52,0,0,0,3.9,19.28a.72.72,0,0,1,.31.94,1.25,1.25,0,0,0-.05.36A.83.83,0,0,1,4,21.1Z"/><path id="_Path_19" data-name="&lt;Path&gt;" d="M3.26,25.85c-.09.13-.14.21-.2.28s-.27.27-.45.2a.56.56,0,0,1-.42-.42c-.1-.63-.23-1.25-.34-1.87,0-.23-.11-.46-.14-.7A.32.32,0,0,1,1.82,23l.67-.52a.18.18,0,0,1,.13,0c.06,0,.13,0,.16.05s0,.1-.06.14a1.71,1.71,0,0,0-.3.43,1.86,1.86,0,0,0,0,.52c0,.57,0,1.15,0,1.72a.56.56,0,0,0,.52.53Z"/><path id="_Path_20" data-name="&lt;Path&gt;" d="M7.41,17.05a.41.41,0,0,1,.37.24.31.31,0,0,1-.08.36.94.94,0,0,0-.22.55c0,.1,0,.21-.05.31a.82.82,0,0,1-.45.61l-.13.09a.4.4,0,0,0-.27.43,1,1,0,0,1,0,.16c0,.11-.08.15-.18.16A.83.83,0,0,1,6,19.89c-.1,0-.09-.12-.09-.2a1,1,0,0,1,.29-.63c.1-.11.22-.21.33-.31a.92.92,0,0,0,.3-.63c0-.2,0-.4,0-.61A.49.49,0,0,1,7.41,17.05Z"/><path id="_Path_21" data-name="&lt;Path&gt;" d="M32.05,17.4c.5.07,1,.13,1.44.21a5.57,5.57,0,0,1,1.44.33A.19.19,0,0,1,35,18s-.07,0-.1,0a.59.59,0,0,0-.55.25.4.4,0,0,1-.41.16,10.69,10.69,0,0,0-1.58-.08c-.25,0-.31-.06-.26-.29A1.62,1.62,0,0,0,32.05,17.4Z"/><path id="_Path_22" data-name="&lt;Path&gt;" d="M.58,23.21c-.07-.28-.19-.53-.26-.8a1.18,1.18,0,0,0-.05-.15.39.39,0,0,1,.13-.53L1.32,21A.76.76,0,0,1,1.46,21c.12-.06.19,0,.23.11s.07.31.24.39,0,.08,0,.11c-.35.34-.53.81-.93,1.11A2,2,0,0,0,.58,23.21Z"/><path id="_Path_23" data-name="&lt;Path&gt;" d="M2.65,15.51a3.7,3.7,0,0,1,0-.5.16.16,0,0,1,.14-.16,1.24,1.24,0,0,1,.67,0A1.35,1.35,0,0,0,4,14.9c.12,0,.15,0,.14.16,0,.3-.05.6-.08.89s0,.19-.22.17a5.86,5.86,0,0,0-1,0c-.22,0-.22,0-.23-.21S2.65,15.67,2.65,15.51Z"/><path id="_Path_24" data-name="&lt;Path&gt;" d="M4.18,19.32a5.25,5.25,0,0,1-1-.86,3.65,3.65,0,0,1-.28-.38.42.42,0,0,1,.1-.62l.28-.2a.62.62,0,0,1,.63,0c.11,0,.12.14.11.24a5.18,5.18,0,0,0,0,.71c0,.08,0,.16.08.21s.2.35.15.57S4.23,19.17,4.18,19.32Z"/><path id="_Path_25" data-name="&lt;Path&gt;" d="M5.68,21c.23.2.49.11.74.11s.24-.08.32.09a.37.37,0,0,1-.07.48.45.45,0,0,1-.61.12,1.51,1.51,0,0,1-.32-.18.4.4,0,0,0-.46,0,.88.88,0,0,0-.2.12.76.76,0,0,1-1-.13.15.15,0,0,1,0-.21.54.54,0,0,0,.06-.12c.05-.13.11-.21.29-.17a1.85,1.85,0,0,0,.68,0c.11,0,.16,0,.19.11a.34.34,0,0,0,0,.1.17.17,0,0,0,.19.1.14.14,0,0,0,.11-.15A.25.25,0,0,1,5.68,21Z"/><path id="_Path_26" data-name="&lt;Path&gt;" d="M8.28,25.56l.32-.12A.37.37,0,0,0,8.88,25c0-.06,0-.12,0-.18,0-.61,0-1.21,0-1.82a.74.74,0,0,0-.14-.44c-.09-.14-.17-.28-.26-.43s-.06-.14,0-.2.26-.09.31,0a2,2,0,0,1,.46,1.2c-.08.72-.07,1.44-.17,2.16a.48.48,0,0,1-.19.39C8.65,25.88,8.52,25.85,8.28,25.56Z"/><path id="_Path_27" data-name="&lt;Path&gt;" d="M8.08,20.8a.41.41,0,0,1-.46-.14,3.49,3.49,0,0,1-.75-1.14.15.15,0,0,1,.07-.22H7a1.06,1.06,0,0,0,.61-.89c0-.14.09-.17.22-.16s.11,0,.09.12a6.74,6.74,0,0,0-.1,1.26,1.78,1.78,0,0,0,.24,1C8.05,20.68,8.1,20.72,8.08,20.8Z"/><path id="_Path_28" data-name="&lt;Path&gt;" d="M5.34,26.54a10.39,10.39,0,0,1-2.4-.13,1.37,1.37,0,0,0,.5-.51c0-.06.09,0,.14,0H4.88A.14.14,0,0,1,5,26,2,2,0,0,0,5.34,26.54Z"/><path id="_Path_29" data-name="&lt;Path&gt;" d="M8.92,25.89a.73.73,0,0,0,.34-.59c.09-.71.11-1.42.16-2.13a1.19,1.19,0,0,0-.24-.89A1.1,1.1,0,0,1,9,21.9c.3-.11.38-.08.55.18a2.28,2.28,0,0,0,.19.28.59.59,0,0,1,.13.49c0,.27-.08.53-.12.8l-.14,1-.15,1a.1.1,0,0,1,0,.09c-.14.08-.26.21-.45.18Z"/><path id="_Path_30" data-name="&lt;Path&gt;" d="M31.94,18.64a1.1,1.1,0,0,1,.47-.12.32.32,0,0,1,.36.24,1.84,1.84,0,0,1,0,1.31.28.28,0,0,1-.33.2c-.14,0-.28.05-.41,0s-.09,0-.11-.06A1.17,1.17,0,0,0,31.94,18.64Z"/><path id="_Path_31" data-name="&lt;Path&gt;" d="M30.37,20.45a1.93,1.93,0,0,0,0-2c.29-.1.35-.08.53.13A1.47,1.47,0,0,1,31.23,20,.67.67,0,0,1,30.37,20.45Z"/><path id="_Path_32" data-name="&lt;Path&gt;" d="M5.43,21.05c0-.28-.25-.47-.21-.74a.44.44,0,0,0,0-.15,2.13,2.13,0,0,1,0-1.1c0-.09.06-.12.15-.1s.35,0,.46.07,0,.29,0,.44a6.53,6.53,0,0,1-.18,1.17A.85.85,0,0,1,5.43,21.05Z"/><path id="_Path_33" data-name="&lt;Path&gt;" d="M4.38,19.42a2.33,2.33,0,0,1,.15-.9.34.34,0,0,1,.59-.13.3.3,0,0,1,0,.37.21.21,0,0,0-.06.11c0,.31-.13.6-.11.91,0,.12-.05.16-.15.17H4.76c-.31,0-.37-.05-.37-.35C4.38,19.55,4.38,19.49,4.38,19.42Z"/><path id="_Path_34" data-name="&lt;Path&gt;" d="M7.93,19.26a5,5,0,0,1,.09-.8c0-.14.05-.15.17-.09s.25.19.18.44a2,2,0,0,0,.16,1.61c.09.17.09.23,0,.3s-.22,0-.32-.11a2.08,2.08,0,0,1-.25-1A3.07,3.07,0,0,1,7.93,19.26Z"/><path id="_Path_35" data-name="&lt;Path&gt;" d="M5.66,16.35A12.58,12.58,0,0,0,4.4,16.3c-.08,0-.17,0-.18-.1s0-.18.17-.18h.55a17.34,17.34,0,0,1,1.73.13l.34.07a.12.12,0,0,1,.1.14c0,.09-.07.09-.13.08l-1.05-.06Z"/><path id="_Path_36" data-name="&lt;Path&gt;" d="M8.19,17.43a.43.43,0,0,1-.12.36,1.54,1.54,0,0,0-.21.27c0,.07-.12.06-.19,0s0-.09,0-.14a.73.73,0,0,1,.19-.25c.22-.2.22-.32,0-.53a.59.59,0,0,0-.48-.24c-.12,0-.17,0-.17-.17,0-.47,0-.46.44-.39l.1,0c.25.06.25.06.3.32A4.48,4.48,0,0,1,8.19,17.43Z"/><path id="_Path_37" data-name="&lt;Path&gt;" d="M6.73,19.61a1.24,1.24,0,0,1,.19.32,3.88,3.88,0,0,0,.54.78.57.57,0,0,0,.62.25s.07,0,.08,0,0,.07-.05.08a1,1,0,0,1-.29,0c-.29,0-.58-.05-.87,0A.13.13,0,0,1,6.81,21s-.06-.08-.06-.12a5.42,5.42,0,0,1-.06-1.16Z"/><path id="_Path_38" data-name="&lt;Path&gt;" d="M31.22,20.33a.09.09,0,0,1,.07.08c.06.23.06.23.3.21h.08c.37,0,.37,0,.36.33a1.36,1.36,0,0,1-.1.49c0,.08-.08.13-.2.09a3.51,3.51,0,0,0-.57-.17.3.3,0,0,1-.26-.28c0-.12-.1-.24,0-.41,0,.14.08.24.11.34s.05.1.12.09.08-.06.1-.11a1.45,1.45,0,0,0,0-.39C31.23,20.5,31.18,20.42,31.22,20.33Z"/><path id="_Path_39" data-name="&lt;Path&gt;" d="M5.46,26.31c-.15-.18-.29-.31-.19-.57a1.39,1.39,0,0,0,0-.47c0-.72,0-1.44,0-2.16a.56.56,0,0,0-.06-.38.13.13,0,0,1,0-.15c0-.05.09-.08.13,0a.7.7,0,0,1,.16.41q0,1.57,0,3.14A.27.27,0,0,1,5.46,26.31Z"/><path id="_Path_40" data-name="&lt;Path&gt;" d="M4.86,16.44l2.06.13c.07,0,.15,0,.18.08a.2.2,0,0,1,0,.22c-.06.05-.12,0-.17,0a.76.76,0,0,0-.45-.1H4.39c-.19,0-.25-.1-.17-.24s.1-.06.16-.06Z"/><path id="_Path_41" data-name="&lt;Path&gt;" d="M7.94,16c0,.3,0,.3-.3.25-.14,0-.32,0-.4-.08s0-.25-.06-.38,0-.33-.08-.5,0-.15.13-.14a1.23,1.23,0,0,1,.45.12.28.28,0,0,1,.14.15A2.37,2.37,0,0,1,7.94,16Z"/><path id="_Path_42" data-name="&lt;Path&gt;" d="M8.31,25.8c-.08.12-.2.12-.29.16a.81.81,0,0,0-.33.2.16.16,0,0,1-.09.06l-.84.16a1,1,0,0,0,.09-.49c0-.1.05-.16.16-.17.32,0,.65,0,1-.1C8.12,25.6,8.2,25.73,8.31,25.8Z"/><path id="_Path_43" data-name="&lt;Path&gt;" d="M10.53,18.62a2.34,2.34,0,0,0,0,1.42c0,.08.07.17,0,.22a.28.28,0,0,1-.32-.11,1.34,1.34,0,0,1-.1-.43,2.73,2.73,0,0,1,0-.79C10.16,18.61,10.17,18.59,10.53,18.62Z"/><path id="_Path_44" data-name="&lt;Path&gt;" d="M31.25,18.2c0-.18,0-.37-.27-.38,0,0-.06-.08,0-.11s.13-.15.25-.18.28-.09.42-.13.28,0,.33.18a1.11,1.11,0,0,1,0,.21c0,.32,0,.38-.35.34A1,1,0,0,0,31.25,18.2Z"/><path id="_Path_45" data-name="&lt;Path&gt;" d="M39.26,18.62a1.6,1.6,0,0,1,.51.65.77.77,0,0,1-.54.9A2.57,2.57,0,0,0,39.26,18.62Z"/><path id="_Path_46" data-name="&lt;Path&gt;" d="M6.19,20.95a1.34,1.34,0,0,1-.21,0,.29.29,0,0,1-.18-.46.1.1,0,0,1,.11,0,1.52,1.52,0,0,0,.55,0c.1,0,.15,0,.14.13s0,.09,0,.13,0,.21-.22.22H6.19Z"/><path id="_Path_47" data-name="&lt;Path&gt;" d="M37.25,18.68c.13,0,.22,0,.23.12s.22.31.38.41a.19.19,0,0,1,.1.1c-.08,0-.17,0-.25,0s-.21.13-.17.28a.15.15,0,0,1,0,.08.4.4,0,0,0,.16.46.39.39,0,0,0-.41.06A2.64,2.64,0,0,0,37.25,18.68Z"/><path id="_Path_48" data-name="&lt;Path&gt;" d="M3.46,14.61c-.24.06-.47,0-.69.11-.06,0-.1,0-.11-.08v-.05c-.07-.46,0-.46.41-.38C3.33,14.25,3.35,14.43,3.46,14.61Z"/><path id="_Path_49" data-name="&lt;Path&gt;" d="M4.62,20.9c-.31,0-.42-.18-.31-.41a.1.1,0,0,1,.1-.06c.18,0,.37,0,.55,0s.15.13.16.24-.07.15-.17.16Z"/><path id="_Path_50" data-name="&lt;Path&gt;" d="M3.38,16.56h.45c.08,0,.2,0,.2.09s-.11.15-.22.15h-1c-.09,0-.16,0-.16-.13s.08-.11.15-.11h.58Z"/><path id="_Path_51" data-name="&lt;Path&gt;" d="M31.43,19.38a.47.47,0,0,1,.15-.55c.14-.12.26-.1.34.06a1.12,1.12,0,0,1,0,1,.21.21,0,0,1-.24.12.25.25,0,0,1-.16-.25l0,0c.23.13.32.09.34-.16a1.11,1.11,0,0,0,0-.44c0-.09-.08-.16-.18-.16s-.13.07-.16.15Z"/><path id="_Path_52" data-name="&lt;Path&gt;" d="M3.35,16.42H2.77c-.06,0-.1,0-.11-.09s0-.09.1-.09a4.64,4.64,0,0,1,1.18,0c.05,0,.11,0,.11.09s-.07.07-.12.07H3.35Z"/><path id="_Path_53" data-name="&lt;Path&gt;" d="M8.48,16.6c.17,0,.2.2.24.32.1.36.17.73.25,1.09,0,.07,0,.12-.06.14s-.11,0-.13-.11c-.11-.45-.25-.9-.32-1.36A.32.32,0,0,1,8.48,16.6Z"/><path id="_Path_54" data-name="&lt;Path&gt;" d="M8.58,18.36a10.91,10.91,0,0,1-.35-1.86c.14.12.1.29.14.44s.07.31.11.46.09.32.12.48S8.73,18.16,8.58,18.36Z"/><path id="_Path_55" data-name="&lt;Path&gt;" d="M32,18.42a2.48,2.48,0,0,0-.58.34.08.08,0,0,1-.14,0,.18.18,0,0,1-.07-.19.32.32,0,0,1,.32-.25A.63.63,0,0,1,32,18.42Z"/><path id="_Path_56" data-name="&lt;Path&gt;" d="M6.9,21.28a.48.48,0,0,1,.36-.06,3.24,3.24,0,0,0,.84,0,.14.14,0,0,1,.12,0s0,0,0,.06,0,0-.05,0H7.13A.33.33,0,0,1,6.9,21.28Z"/><path id="_Path_57" data-name="&lt;Path&gt;" d="M31.41,20a1.46,1.46,0,0,0,.52.43,1,1,0,0,1-.4.07.09.09,0,0,1-.07,0,2.06,2.06,0,0,1-.11-.27A.16.16,0,0,1,31.41,20Z"/><path id="_Path_58" data-name="&lt;Path&gt;" d="M1.08,21c-.06-.16,0-.27.13-.35a.78.78,0,0,0,.17-.16c.13.16.13.17,0,.25S1.19,20.89,1.08,21Z"/><path id="_Path_59" data-name="&lt;Path&gt;" d="M34.94,20.23c-.06.16-.08.3-.22.32s-.18-.14-.25-.24C34.61,20.2,34.76,20.26,34.94,20.23Z"/><path id="_Path_60" data-name="&lt;Path&gt;" d="M6.19,20.33,6,20.3a.1.1,0,0,1-.09-.11c0-.07.07-.07.12-.05a.86.86,0,0,0,.41,0s.07,0,.09,0a.08.08,0,0,1,0,.11A.62.62,0,0,1,6.19,20.33Z"/><path id="_Path_61" data-name="&lt;Path&gt;" d="M34.46,18.44c.21-.28.34-.25.55.09A3.3,3.3,0,0,1,34.46,18.44Z"/><path id="_Path_62" data-name="&lt;Path&gt;" d="M8,18.1a1,1,0,0,1,.25-.27,1.29,1.29,0,0,1,.1.47A1.11,1.11,0,0,1,8,18.1Z"/><path id="_Path_63" data-name="&lt;Path&gt;" d="M4.75,18.12a.27.27,0,0,1,.38,0c.11.08.28.13.24.35C5.18,18.28,5,18.1,4.75,18.12Z"/><path id="_Path_64" data-name="&lt;Path&gt;" d="M5,20.22c-.19.16-.39.08-.59.06a.06.06,0,0,1,0-.08.07.07,0,0,1,.09,0A1.92,1.92,0,0,0,5,20.22Z"/><path id="_Path_65" data-name="&lt;Path&gt;" d="M8.93,25.9c0,.07,0,.08-.09.09s0,0,0,0,.06-.08.11-.07Z"/><path id="_Path_66" data-name="&lt;Path&gt;" d="M37.28,18.38s0,0,.06,0,.06,0,0,0l0,0A.05.05,0,0,1,37.28,18.38Z"/><path id="_Path_67" data-name="&lt;Path&gt;" d="M30.86,18.11v0a.06.06,0,0,1,0,0v0Z"/></g></svg>