<svg xmlns="http://www.w3.org/2000/svg" class="HeroAbility-icon" viewBox="0 0 40 40" preserveAspectRatio="xMidYMid meet"><g id="_Group_5" data-name="&lt;Group&gt;"><path id="_Path_16" data-name="&lt;Path&gt;" d="M26.73,17c-.34.13-.67.27-1,.4s-.81.29-1.23.41a1.1,1.1,0,0,0-.76.62.43.43,0,0,1-.35.27,8.25,8.25,0,0,1-1.38.17c-.43,0-.85.08-1.27.11s-.58,0-.87,0a21.94,21.94,0,0,1-2.72-.26c-.77-.11-1.54-.25-2.31-.33a2.89,2.89,0,0,0-1.14.1,8,8,0,0,0-1.78.75c-.17.1-.19.09-.19-.12,0-1,0-2,0-3a.59.59,0,0,1,.07-.27.31.31,0,0,1,.32-.19c.58,0,1.17,0,1.75,0,.8,0,1.6,0,2.4,0,.12,0,.22-.08.36,0a.39.39,0,0,1-.21.24,2.31,2.31,0,0,1-1.37.43c-.67,0-1.34,0-2,0-.08,0-.22,0-.23.09s.13.11.22.11c.79,0,1.59,0,2.38,0a1.94,1.94,0,0,0,1.49-.71.46.46,0,0,1,.41-.17c1,0,1.9,0,2.86,0,.35,0,.7.05,1.06.05a13.88,13.88,0,0,0,2.19-.22A10.8,10.8,0,0,1,26,15.22c.49,0,1,0,1.46,0l.45,0c.15,0,.2.06.16.21a2.54,2.54,0,0,1-.5,1,.3.3,0,0,1-.27.1c-.84-.07-1.68-.15-2.52-.2s-1.62-.08-2.43-.07c-.65,0-1.3-.07-2-.11L18.3,16a.25.25,0,0,0-.2.06,3,3,0,0,1-1.68.67,8.44,8.44,0,0,1-1,0H13.1l-.23,0a.1.1,0,0,0-.09.12.1.1,0,0,0,.09.09l.26,0c.9,0,1.81,0,2.71,0A5.09,5.09,0,0,0,17,16.91a2.14,2.14,0,0,0,.87-.35.73.73,0,0,1,.54-.12c1.11.12,2.22.2,3.34.24l2.87.1a11.26,11.26,0,0,1,2,.17S26.68,16.95,26.73,17Z"/><path id="_Path_17" data-name="&lt;Path&gt;" d="M34.39,20.46h.85a.33.33,0,0,0,.36-.2.66.66,0,0,1,.8-.43.61.61,0,0,1,.42.17c.13.14.29.27.43.4s.1.09.08.16-.1.06-.16.06c-.33,0-.66.05-1,0-1.15-.06-2.3,0-3.44,0l-.28,0a.55.55,0,0,0-.4.09.89.89,0,0,1-.38.13c-.55.11-1.12.17-1.67.31a1.65,1.65,0,0,1-.38,0,.75.75,0,0,0-.41.07.33.33,0,0,1-.25,0,4.36,4.36,0,0,0-1.06-.07.53.53,0,0,0-.25,0,1.24,1.24,0,0,1-.64.1H24.8a.43.43,0,0,1-.45-.23.37.37,0,0,0-.39-.19H16.48a.52.52,0,0,0-.48.23.43.43,0,0,1-.42.19c-.63,0-1.26,0-1.89,0A2.87,2.87,0,0,1,12.64,21a4.23,4.23,0,0,1-.43-.2.86.86,0,0,1-.49-1,.49.49,0,0,1,.26-.29,4.87,4.87,0,0,1,1.89-.69,8.31,8.31,0,0,1,2.44.12c.71.14,1.43.22,2.15.3a11.6,11.6,0,0,0,2.44,0c.5,0,1-.07,1.5-.11a6.14,6.14,0,0,0,1-.15.34.34,0,0,1,.39.13,6.8,6.8,0,0,0,.87.93,2.9,2.9,0,0,0,.93.63,1,1,0,0,0,.34.07h3.16c.15,0,.28,0,.36.18a.22.22,0,0,0,.4,0,.38.38,0,0,1,.39-.19h.57a.33.33,0,0,0,.35-.23.31.31,0,0,1,.19-.19c.33-.15.68-.23,1-.36a2.22,2.22,0,0,1,.75-.06c.1,0,.11.05.08.14q-.19.52.37.52Z"/><path id="_Path_18" data-name="&lt;Path&gt;" d="M27.94,20.44H26a1.3,1.3,0,0,1-.87-.3A5.78,5.78,0,0,1,24,19c-.18-.27-.17-.38.09-.57a4,4,0,0,1,1.18-.52,12.83,12.83,0,0,0,2-.8,1.82,1.82,0,0,0,.68-.73,4.19,4.19,0,0,0,.39-.91c.11-.34.19-.4.54-.41l1.25,0c.23,0,.25,0,.17.24a.71.71,0,0,0-.06.3A7.06,7.06,0,0,1,30.14,17a12.45,12.45,0,0,0,0,2.42c0,.27.06.55.11.82s0,.24-.21.24H27.94Z"/><path id="_Path_19" data-name="&lt;Path&gt;" d="M20.18,21.06c1.18,0,2.36,0,3.54,0a.59.59,0,0,1,.56.3A11.93,11.93,0,0,1,25.22,23a.28.28,0,0,1,0,.34c-.29.34-.56.69-.86,1a.7.7,0,0,1-.82.25,1.59,1.59,0,0,0-.25-.05.35.35,0,0,1-.3-.29,1,1,0,0,0-.44-.59l-.84-.65a2.56,2.56,0,0,0-.51-.29.49.49,0,0,0-.3,0,3.52,3.52,0,0,1-1.35,0,.83.83,0,0,0-.42,0,2.13,2.13,0,0,1-1.34.07.46.46,0,0,0-.39.05,4,4,0,0,1-.9.33,2.54,2.54,0,0,1-.59,0,.12.12,0,0,1-.11-.07l-.29-.4a.24.24,0,0,1,0-.3,6.34,6.34,0,0,0,.64-1.12.43.43,0,0,1,.45-.26Z"/><path id="_Compound_Path_2" data-name="&lt;Compound Path&gt;" d="M35.09,26.05a1.83,1.83,0,0,0-.92.17c-.2.08-.21.07-.29-.13l-.23-.62a.68.68,0,0,1,0-.44.42.42,0,0,0-.2-.52,2.15,2.15,0,0,1-.34-.29C33,24.16,33,24.05,33,24a2.43,2.43,0,0,1-.06-.44.35.35,0,0,0-.2-.32,1.27,1.27,0,0,1-.65-1,5.67,5.67,0,0,0-.18-1c0-.14,0-.19.14-.23a1.89,1.89,0,0,1,.67-.09c.47,0,.94,0,1.41.06a.34.34,0,0,1,.32.19c.09.17.2.32.29.49a.18.18,0,0,0,.27.08.35.35,0,0,0,.1-.06.85.85,0,0,1,.71-.24c.55,0,1.1,0,1.65,0a.66.66,0,0,1,.28,0c.06,0,.11.07.1.14s-.07.07-.13.08l-.66,0H35.92a.47.47,0,0,0-.32.11,2.53,2.53,0,0,1-.38.28c-.11.06-.12.14-.05.25.23.37.45.76.67,1.13a10.65,10.65,0,0,1,.57,1.11c.12.26.24.51.37.76s0,.18-.08.23a4,4,0,0,0-.8.4A1.33,1.33,0,0,1,35.09,26.05Zm-1.4-3.77a.21.21,0,0,0,.2-.22.17.17,0,0,0-.17-.18.21.21,0,0,0-.19.22A.16.16,0,0,0,33.7,22.29Zm1.4,2.12a.14.14,0,0,0-.17-.14.21.21,0,0,0-.18.21.16.16,0,0,0,.17.15A.21.21,0,0,0,35.09,24.41Z"/><path id="_Path_20" data-name="&lt;Path&gt;" d="M38.86,16.78A5.27,5.27,0,0,1,39,19a.7.7,0,0,0,0,.09c0,.51,0,1-.06,1.53a5.74,5.74,0,0,1-.27,1.59.47.47,0,0,1-.25.32c-.1,0-.19.12-.28.17s-.27.05-.33-.12a4.66,4.66,0,0,1-.18-.68c.09,0,.16,0,.24,0s.21,0,.2-.18a1.45,1.45,0,0,0-.19-.63c-.08-.15-.17-.29-.23-.44a1.66,1.66,0,0,0-.54-.65,3.33,3.33,0,0,1-.49-.57.44.44,0,0,0-.39-.2c-.22,0-.26-.05-.24-.26s.09-.19.22-.19h.73a.29.29,0,0,0,.25-.44c0-.08-.13-.08-.21-.08h-.66c-.21,0-.24,0-.25-.25a15.72,15.72,0,0,0-.15-1.62c0-.28.06-.41.34-.43s.44,0,.66,0h.61s.1,0,.12,0,0,.09,0,.12a.6.6,0,0,0-.19.53.54.54,0,0,0,.27.47.76.76,0,0,0,1.1-.28S38.81,16.79,38.86,16.78Z"/><path id="_Path_21" data-name="&lt;Path&gt;" d="M11.52,18.38q0,1.14,0,2.29a.43.43,0,0,1-.08.33c-.09.09-.17.07-.19-.06-.08-.35-.16-.71-.22-1.06a.44.44,0,0,0-.44-.41,1.65,1.65,0,0,0-.4,0,.39.39,0,0,0-.39.46,3.49,3.49,0,0,0,.08.61c0,.15,0,.29.07.44a.11.11,0,0,1,0,.11.11.11,0,0,1-.13,0l-.06,0c-.11-.16-.2-.34-.45-.31,0,0-.08-.07-.11-.12A.91.91,0,0,1,9,20.13c0-.25-.06-.48-.08-.72a20.73,20.73,0,0,1,0-2.85,9.31,9.31,0,0,1,.11-1c0-.21.11-.27.29-.26a.19.19,0,0,1,.19.12c.06.14.14.1.22,0l.07-.06c.1-.07.14-.06.14.06a2.75,2.75,0,0,1,0,.52,2.44,2.44,0,0,0,0,.26.38.38,0,0,0,.28.39,1.22,1.22,0,0,0,.58,0,.32.32,0,0,0,.25-.22,1.6,1.6,0,0,0,.12-.57c0-.11,0-.22,0-.33a.25.25,0,0,1,.21-.27,1.09,1.09,0,0,1,.28,0c.47,0,.94,0,1.41,0a.62.62,0,0,1,.57.2c.06.08.06.14,0,.17a.82.82,0,0,1-.21,0H12c-.33,0-.49.15-.49.49s0,1,0,1.46q0,.45,0,.9Z"/><path id="_Path_22" data-name="&lt;Path&gt;" d="M34.4,20.29H33.7a.52.52,0,0,1-.25,0s-.08-.05-.06-.11a3.9,3.9,0,0,0,.18-1.22,14,14,0,0,0,0-1.88,7.6,7.6,0,0,0-.12-.86c0-.08,0-.16,0-.23a.22.22,0,0,1,.22-.26l.14,0a.5.5,0,0,0,.46-.28.37.37,0,0,0-.08-.45.46.46,0,0,0-.54-.13,1.51,1.51,0,0,1-.54.15c-.11,0-.12,0-.08-.13a.23.23,0,0,1,.23-.14h.87a.32.32,0,0,1,.22.12L35.56,16a.61.61,0,0,1,.17.35,8.59,8.59,0,0,1,0,3,2,2,0,0,1-.24.68.38.38,0,0,1-.36.21Z"/><path id="_Path_23" data-name="&lt;Path&gt;" d="M1.77,18.31a10.39,10.39,0,0,1,.2-2.2c.06-.54,0-.44.5-.44h.87l.28,0c.26,0,.33.13.29.38-.07.45-.1.91-.14,1.36,0,.17,0,.2-.22.2H2.37c-.25,0-.29,0-.3.28s0,.22,0,.33.06.25.26.25H3.58c.11,0,.18.06.18.17A7.33,7.33,0,0,0,3.89,20a.5.5,0,0,1-.44.49l-1.22,0a.34.34,0,0,1-.34-.36A9.69,9.69,0,0,1,1.77,18.31Z"/><path id="_Path_24" data-name="&lt;Path&gt;" d="M32.72,19.63a1.34,1.34,0,0,0-.63.12c-.24.11-.49.17-.73.26s-.18,0-.2-.11v0A18.11,18.11,0,0,1,31,17.93c0-.54.16-1.07.2-1.61,0-.12.06-.13.16-.08a6.39,6.39,0,0,1,1,.52.52.52,0,0,0,.33.11h.52c.18,0,.2,0,.22.2a10,10,0,0,1-.06,2.23c0,.31-.06.32-.37.32Z"/><path id="_Path_25" data-name="&lt;Path&gt;" d="M6.33,19.05c0-.11,0-.22,0-.33s0-.2.22-.21h.38c.17,0,.2,0,.2-.21s0-.28,0-.42-.06-.22-.23-.23H6.56c-.2,0-.23,0-.23-.24a9,9,0,0,1,.12-1.79c0-.13,0-.27.06-.4s.09-.21.28-.18a.55.55,0,0,1,.33.17l.22.22a.8.8,0,0,1,.25.75,11.8,11.8,0,0,0-.17,1.9,9,9,0,0,0,.23,1.87A1.11,1.11,0,0,1,7,21c-.26.08-.36,0-.43-.24A8.64,8.64,0,0,1,6.33,19.05Z"/><path id="_Path_26" data-name="&lt;Path&gt;" d="M5,17.65H4.15c-.14,0-.19,0-.19-.2A9.52,9.52,0,0,1,4.11,16a.35.35,0,0,0-.1-.36c-.15-.14-.13-.17,0-.31A1.4,1.4,0,0,1,5.16,15c.32,0,.64,0,1,0s.21,0,.18.2a13.2,13.2,0,0,0-.19,2.21c0,.18,0,.21-.23.21Z"/><path id="_Path_27" data-name="&lt;Path&gt;" d="M5,18.52H5.9c.19,0,.22,0,.22.22a9.73,9.73,0,0,0,.25,2.08c0,.19,0,.2-.18.23a9.17,9.17,0,0,1-1.15,0A.85.85,0,0,1,4.6,21a4.66,4.66,0,0,0-.71-.37c-.08,0-.07-.09,0-.12.31-.18.22-.44.17-.7a5.67,5.67,0,0,1-.11-1c0-.24,0-.26.25-.26H5Z"/><path id="_Path_28" data-name="&lt;Path&gt;" d="M30,24.12c-.11.09-.2,0-.29,0l-.64-.29A16.27,16.27,0,0,0,27,23.1a.49.49,0,0,0-.16,0c-.35,0-.69-.07-1-.05a.34.34,0,0,1-.28-.14,4.72,4.72,0,0,1-.51-.82l-.21-.37c-.05-.1,0-.15.09-.16h2.48a.32.32,0,0,1,.37.33,1.5,1.5,0,0,1,0,.31.43.43,0,0,0,.21.42l1.34,1,.43.33A.78.78,0,0,0,30,24.12Z"/><path id="_Path_29" data-name="&lt;Path&gt;" d="M7.06,21.23A1.45,1.45,0,0,0,7.35,21,.59.59,0,0,1,8,20.86c.43.12.88.16,1.32.24.23,0,.4.21.61.29.06,0,.07.1.08.16s.13.21.28.23a3.69,3.69,0,0,0,.63,0c.23,0,.29,0,.31-.26a.45.45,0,0,1,.26-.38c.18-.1.18-.14.21-.45A8.59,8.59,0,0,0,13,21.3c.21.08.2.09.2.31s-.09.21-.23.25c-.38.09-.76.1-1.14.17a7.49,7.49,0,0,1-.74.13,2.17,2.17,0,0,1-.84,0l-3.06-.87Z"/><path id="_Path_30" data-name="&lt;Path&gt;" d="M31.12,15.43c-.08.71-.15,1.44-.26,2.16a5.18,5.18,0,0,0,0,1.43c0,.37.08.73.12,1.1,0,.18,0,.29-.17.31s-.36,0-.41-.2a4.67,4.67,0,0,1-.13-.67,11.84,11.84,0,0,1,.1-3.08,4.25,4.25,0,0,0,.07-.89.82.82,0,0,1,.08-.41.29.29,0,0,1,.29-.2.27.27,0,0,1,.26.22A.4.4,0,0,1,31.12,15.43Z"/><path id="_Path_31" data-name="&lt;Path&gt;" d="M8.34,20.76a.26.26,0,0,1-.24-.13,1.37,1.37,0,0,1-.24-.56,8.49,8.49,0,0,1-.25-2.43,13.18,13.18,0,0,1,.19-1.71A1.24,1.24,0,0,1,8,15.38a.25.25,0,0,1,.19-.11c.16,0,.2,0,.16.19a6.18,6.18,0,0,0-.18,1.37,15.48,15.48,0,0,0,.19,3.26c0,.16.07.32.1.48S8.53,20.76,8.34,20.76Z"/><path id="_Path_32" data-name="&lt;Path&gt;" d="M.86,17.83a9.57,9.57,0,0,1,0-1.15.58.58,0,0,1,.34-.54,3.65,3.65,0,0,0,.35-.2c.05,0,.1-.09.17,0s0,.12,0,.18q0,.39-.1.77a11.21,11.21,0,0,0,0,2.89c0,.1,0,.2,0,.31s0,.16-.14.09l0,0a.81.81,0,0,1-.56-.8A10.4,10.4,0,0,1,.86,17.83Z"/><path id="_Path_33" data-name="&lt;Path&gt;" d="M10.43,15a7.15,7.15,0,0,0-.72,0c-.05,0-.12,0-.17-.08A.65.65,0,0,0,9,14.87a5.62,5.62,0,0,1-1,0,.56.56,0,0,0-.43.15c-.16.16-.2.15-.35,0a.87.87,0,0,0-.64-.24H5.3c-.09,0-.1-.08,0-.13l.38-.35a.29.29,0,0,1,.22-.06c.53,0,1.05,0,1.58,0s1.16,0,1.74,0a.87.87,0,0,1,.49.2c.24.14.47.31.7.47A.08.08,0,0,1,10.43,15Z"/><path id="_Path_34" data-name="&lt;Path&gt;" d="M4.6,17.81H6.65a.26.26,0,0,1,.26.4.16.16,0,0,1-.15.1H2.52a.28.28,0,0,1-.23-.43c.05-.09.15-.08.23-.08H4.6Z"/><path id="_Compound_Path_3" data-name="&lt;Compound Path&gt;" d="M35,26.22a2.06,2.06,0,0,0,.55,0A1.29,1.29,0,0,0,36,26a4.42,4.42,0,0,1,.67-.34c.07,0,.17-.1.23,0s0,.17-.1.22l-.7.52a11.61,11.61,0,0,1-1.68,1l-.45.26a.19.19,0,0,1-.28-.07.46.46,0,0,1-.08-.42c.07-.18.12-.37.17-.56a.29.29,0,0,1,.11-.18A3.21,3.21,0,0,1,35,26.22Zm-.19.57a.14.14,0,0,0-.16-.14.36.36,0,0,0-.34.35.19.19,0,0,0,.19.19C34.61,27.19,34.78,27,34.77,26.78Z"/><path id="_Path_35" data-name="&lt;Path&gt;" d="M27.65,21.39a1.69,1.69,0,0,1,.91,0c.11,0,.14.09.14.19a1.68,1.68,0,0,1-.08.44.4.4,0,0,0,.11.41c.25.28.55.51.83.77a.37.37,0,0,0,.24.09.18.18,0,0,1,.19.18c0,.11,0,.22.06.32s0,.15-.13.1l-.08-.05-1.64-1.22a.63.63,0,0,1-.28-.51A.75.75,0,0,0,27.65,21.39Z"/><path id="_Path_36" data-name="&lt;Path&gt;" d="M10.57,21.57h-.14a.2.2,0,0,1-.23-.19c-.07-.44-.16-.88-.22-1.33s.06-.41.36-.41h.21a.3.3,0,0,1,.29.26A8.57,8.57,0,0,1,11,21s0,.09,0,.14c0,.28,0,.36-.32.39Z"/><path id="_Path_37" data-name="&lt;Path&gt;" d="M27.89,14.37h1c.19,0,.25.08.25.26s0,.18-.15.2a1.89,1.89,0,0,1-.26,0,.58.58,0,0,0-.5.14A.23.23,0,0,1,28,15H26.92c-.2,0-.23,0-.24-.23,0-.46,0-.46.44-.46h.78Z"/><path id="_Path_38" data-name="&lt;Path&gt;" d="M31.48,15.08a1,1,0,0,0,.69,0,.14.14,0,0,1,.13,0,.89.89,0,0,0,.81.09.86.86,0,0,1,.25-.06.59.59,0,0,0,.33-.1.26.26,0,0,1,.2,0,.26.26,0,0,1,.23.28.28.28,0,0,1-.36.2.2.2,0,0,0-.26,0,.46.46,0,0,1-.3.11,6.55,6.55,0,0,1-1.24,0,1,1,0,0,1-.59-.31s-.08-.09,0-.15S31.42,15.08,31.48,15.08Z"/><path id="_Path_39" data-name="&lt;Path&gt;" d="M27.21,16.73c-.05.09-.14.07-.22.06a20.48,20.48,0,0,0-2.25-.18c-.63,0-1.26,0-1.89,0-1-.06-1.95-.06-2.92-.14-.5,0-1-.12-1.5-.14a.15.15,0,0,1-.15-.1l.93,0,1.79.13.73.06a8.58,8.58,0,0,0,1.06,0,13.82,13.82,0,0,1,1.48.06l1.06.07,1.83.15A.06.06,0,0,1,27.21,16.73Z"/><path id="_Path_40" data-name="&lt;Path&gt;" d="M29.48,13.1h1.39a.36.36,0,0,1,.38.22c.06.14,0,.21-.13.23a.65.65,0,0,1-.57-.17.39.39,0,0,0-.32-.11H29.15a.34.34,0,0,0-.26.08.78.78,0,0,1-.65.21h-.33c-.11,0-.15,0-.14-.15s.1-.29.32-.29Z"/><path id="_Path_41" data-name="&lt;Path&gt;" d="M27.77,14.2h-.92a.29.29,0,0,1-.28-.33.12.12,0,0,1,.09-.1l.14,0h1.84c.2,0,.25.06.27.24s0,.2-.18.2h-1Z"/><path id="_Path_42" data-name="&lt;Path&gt;" d="M29,21.43c.07.11,0,.21,0,.32a1.14,1.14,0,0,1,0,.31.27.27,0,0,0,.13.3.4.4,0,0,1,.1.07.86.86,0,0,0,.82.3c.59,0,1.18,0,1.77,0a.35.35,0,0,1,.34.17c.07.1,0,.14-.08.15h-.14c-.65,0-1.3,0-2,0a.4.4,0,0,1-.27-.08,5.6,5.6,0,0,1-.73-.63.42.42,0,0,1-.12-.36A1.93,1.93,0,0,1,29,21.43Z"/><path id="_Path_43" data-name="&lt;Path&gt;" d="M10.11,16.3a7.16,7.16,0,0,1,0-.92c0-.09.09-.13.17-.13h.49a.17.17,0,0,1,.18.18,2.88,2.88,0,0,1-.05.65c0,.08-.06.15-.14.1S10.35,16.15,10.11,16.3Z"/><path id="_Path_44" data-name="&lt;Path&gt;" d="M31.89,22.26c0,.1-.05.16-.15.18s-.16,0-.19-.13a.93.93,0,0,1,0-.09,1,1,0,0,0-.54-.81.2.2,0,0,1-.1-.12c0-.09,0-.15.09-.17l.46-.08a.17.17,0,0,1,.22.13,1.87,1.87,0,0,1,.15.49C31.84,21.86,31.87,22.05,31.89,22.26Z"/><path id="_Path_45" data-name="&lt;Path&gt;" d="M30.87,14.37h.42a.23.23,0,0,1,.22.27c0,.16-.08.24-.24.21a5.23,5.23,0,0,0-.89,0c-.09,0-.12,0-.12-.13,0-.25,0-.31.28-.31h.33Z"/><path id="_Path_46" data-name="&lt;Path&gt;" d="M30.68,13.75h.4c.15,0,.2.09.2.26s-.08.19-.21.19h-.66a.26.26,0,0,1-.24-.38c0-.07.08-.07.13-.07h.38Z"/><path id="_Path_47" data-name="&lt;Path&gt;" d="M38.63,16.42a.31.31,0,0,1,0,.18.5.5,0,0,1-.81.39c-.24-.16-.29-.28-.21-.51,0-.07.06-.12.13-.05a.56.56,0,0,0,.81,0Z"/><path id="_Path_48" data-name="&lt;Path&gt;" d="M32.18,16.12c0,.32,0,.32-.29.16s-.28-.2-.25-.44c0-.07,0-.12.11-.11l.3,0a.14.14,0,0,1,.12.15C32.18,16,32.18,16.06,32.18,16.12Z"/><path id="_Path_49" data-name="&lt;Path&gt;" d="M31.93,14.31c.2,0,.24,0,.26.22s0,.32-.18.38l-.14,0c-.15,0-.18,0-.17-.16s0-.17,0-.26S31.74,14.31,31.93,14.31Z"/><path id="_Path_50" data-name="&lt;Path&gt;" d="M29.38,13.75c.08,0,.18,0,.25.07a.32.32,0,0,1,0,.29c0,.1-.14.09-.22.09s-.26,0-.33-.1S29.12,13.74,29.38,13.75Z"/><path id="_Path_51" data-name="&lt;Path&gt;" d="M29.52,14.82c-.2,0-.24,0-.24-.22s0-.22.24-.23.26,0,.26.21S29.72,14.82,29.52,14.82Z"/><path id="_Path_52" data-name="&lt;Path&gt;" d="M32.81,16.25c0-.08,0-.13,0-.19s.06-.24.21-.24.22,0,.25.23,0,.23-.2.22Z"/><path id="_Path_53" data-name="&lt;Path&gt;" d="M31.73,14.12h-.14c-.12,0-.13-.12-.13-.22s.08-.14.18-.14l.19,0A.18.18,0,0,1,32,14C32,14.15,31.83,14.1,31.73,14.12Z"/><path id="_Path_54" data-name="&lt;Path&gt;" d="M32.52,16.63c.15,0,.29-.13.44-.17a.48.48,0,0,1,.21,0c.08,0,.19,0,.17.15s-.11.1-.18.1A1.33,1.33,0,0,1,32.52,16.63Z"/><path id="_Path_55" data-name="&lt;Path&gt;" d="M37.08,20.85c.18,0,.36-.08.49.11s.06.18-.09.19S37.23,21.12,37.08,20.85Z"/><path id="_Path_56" data-name="&lt;Path&gt;" d="M37,18.53a.06.06,0,0,1-.06.06h-.77s-.07,0-.08,0,0-.05,0-.07A2.48,2.48,0,0,1,37,18.53Z"/><path id="_Path_57" data-name="&lt;Path&gt;" d="M29.07,13.48a10.2,10.2,0,0,1,1.28,0v0H29.07Z"/><path id="_Path_58" data-name="&lt;Path&gt;" d="M38.4,15.89c.11.35.08.43-.12.5s-.31,0-.41-.21c.14,0,.27.16.41,0S38.38,16,38.4,15.89Z"/><path id="_Path_59" data-name="&lt;Path&gt;" d="M31.33,15.47a.79.79,0,0,1,.13.51c0,.06-.05.07-.1,0a.21.21,0,0,1-.1-.2A1.24,1.24,0,0,1,31.33,15.47Z"/><path id="_Path_60" data-name="&lt;Path&gt;" d="M30,14.36c.09.17,0,.28,0,.39A.39.39,0,0,1,30,14.36Z"/><path id="_Path_61" data-name="&lt;Path&gt;" d="M29.89,13.8a.28.28,0,0,1,0,.34A.38.38,0,0,1,29.89,13.8Z"/><path id="_Path_62" data-name="&lt;Path&gt;" d="M26.45,14.85l0-.37A.28.28,0,0,1,26.45,14.85Z"/><path id="_Path_63" data-name="&lt;Path&gt;" d="M26.41,14.06s0,.08,0,.09-.06,0-.06-.07,0-.08.06-.09S26.41,14,26.41,14.06Z"/><path id="_Path_64" data-name="&lt;Path&gt;" d="M26.23,14.71l0,.29C26.2,14.88,26.2,14.88,26.23,14.71Z"/></g></svg>