<svg xmlns="http://www.w3.org/2000/svg" class="HeroAbility-icon HeroAbility-icon--hoverState" viewBox="0 0 40 40" preserveAspectRatio="xMidYMid meet"><path d="M7.34,22.19l-1.26.37-.1.29-.59.25-1.58,0,1.35-1Zm1.56-.35H8.85l-3.59-.06,0-3.5L8.79,18l3.68.07.08,3.57ZM7,17.78l-1.74.11,0,0-1.07-.66,1.71.12.23.28ZM3.4,17.2l1.5.94,0,3.75L3.16,23.12H1.61a24,24,0,0,1,0-5.83Z" fill-rule="evenodd"/><path d="M6.46,24.63l.6,1.3,2.65.39.45-.48,1.65.33,1.07.72.12.5-1.14-.82-.07,0-1.45-.26a.17.17,0,0,0-.17.05l-.47.47-3.08-.25L5.56,24.84a.18.18,0,0,0-.09-.08L2.4,23.44H3.66ZM2.18,23.7l.07-.08L5.34,25l1.05,1.74a.17.17,0,0,0,.15.09l3.16.24A.18.18,0,0,0,9.85,27l.44-.43,1.42.24,1.25.83-.26,1-.44.21-6.09.34-1.27-.81L3.17,28l-.42-.56Z" fill-rule="evenodd"/><path d="M3.25,16.82l2.06-.88a.18.18,0,0,0,.09-.08l1.08-1.71,3.06-.25.45.46a.18.18,0,0,0,.17.05l1.5-.26.07,0,1.17-.79-.16.51-1.07.72L10,14.9l-.45-.48-2.65.38-.6,1.3-1.66.71Zm-1.19,0,.55-3.54L3,12.73l1.73-.39L6,11.53l6.09.35.44.21.25,1-1.25.82-1.42.24-.43-.43a.18.18,0,0,0-.15-.06l-3.17.23a.17.17,0,0,0-.15.09L5.19,15.74,2.7,16.83Z" fill-rule="evenodd"/><path d="M7.7,17.51l-.13,0H7.22l-.16,0H7l-.09,0H6.86l-.17,0h0l-.11,0H6.43l-.14,0-.14-.17,0,0v0A.23.23,0,0,0,6,17H6l-.12,0-.51,0L7.76,16S7.72,17,7.7,17.51Zm9.95,3c0,.1,0,.19,0,.29l-1.55-.33v-.85l1.57-.33Zm-9.9,2c0,.82.1,1.22.18,2l0,0-3.33-1h1l.59-.25a.35.35,0,0,0,.15-.1l0,0,0-.09,0-.1Zm9.85-1.38A18.41,18.41,0,0,1,17.29,23l-.77.53c-2.69.66-5.37,1.15-8.06,1.56-.09-1.06-.16-1.69-.22-2.73l.27-.08,4-.17h.17l.06,0,0,0h0l.07-.09h0v-.06s0,0,0,0v0l-.08-3.57a.32.32,0,0,0-.06-.17h0l0-.05-.06-.05h0l-.08,0h0l-.06,0H8.57l-.16,0H8.34l-.19,0q0-1.09.06-2.17a63.48,63.48,0,0,1,8.33,1.43l.77.37a9.74,9.74,0,0,1,.32,1.73,7.37,7.37,0,0,0-1.63.34.33.33,0,0,0-.24.31c0,.48-.09,1.08.25,1.16.53.11,1.05.24,1.58.34Z" fill-rule="evenodd"/><path d="M22.86,18.48a6,6,0,0,1,.09,2.93l2.42,0a7.58,7.58,0,0,0,0-2.94Z" fill-rule="evenodd"/><path d="M18.62,17.31l.41-1a7.41,7.41,0,0,1,3,.85l.21.89Zm-.07.2,4,.87a5.72,5.72,0,0,1,.05,3.09l-.11,0-3.91,1A9,9,0,0,0,18.55,17.52Zm3.69,4.27-.14.88A11.49,11.49,0,0,1,19,23.81l-.44-1Z" fill-rule="evenodd"/><path d="M17.65,22.32a14,14,0,0,0,.06-4.49l.44,0a.42.42,0,0,1,.39.35A11.64,11.64,0,0,1,18.49,22a.42.42,0,0,1-.41.35Z" fill-rule="evenodd"/><path d="M26.8,17.57c0,.18.07.36.09.54a12.88,12.88,0,0,1-.13,4.33l-1.14-.95a9,9,0,0,0,0-3.08Zm11.45.08,1,.78a7.23,7.23,0,0,1,0,3l-1.07,1a13.56,13.56,0,0,0,.21-1.54A12.17,12.17,0,0,0,38.24,17.64ZM27,17.46a99,99,0,0,1,11,0c0,.23.09.46.12.69a12.91,12.91,0,0,1-.18,4.41,81.83,81.83,0,0,1-11,0A11.91,11.91,0,0,0,27,17.46Z" fill-rule="evenodd"/></svg>