<svg xmlns="http://www.w3.org/2000/svg" class="HeroAbility-icon HeroAbility-icon--hoverState" viewBox="0 0 40 40" preserveAspectRatio="xMidYMid meet"><path d="M7.02,20.13c-0.09,0.11-0.08,0.26,0.03,0.35l10.69,5l-0.57,0.39c-0.05,0.03-0.08,0.08-0.07,0.14c0,0.06,0.04,0.11,0.1,0.12&#10;&#9;&#9;l1.76,0.42c-1.02,1.28-5.14,2.72-6.7,3.18c-0.06,0.02-0.09,0.09-0.08,0.15c0,0.06,0.05,0.11,0.11,0.12c3.08,0.42,6.2,0.48,9.3,0.19&#10;&#9;&#9;c-0.62,0.58-2.49,1.95-7.05,3.09c-0.07,0.02-0.11,0.08-0.1,0.15c0,0.07,0.05,0.12,0.12,0.13c0.02,0,0.46,0,1.18,0&#10;&#9;&#9;c2.49,0,8.34-0.36,12.18-3.36c-0.19,0.43-0.43,0.83-0.74,1.18c-0.04,0.05-0.04,0.13,0,0.18c0.04,0.04,0.11,0.04,0.15,0&#10;&#9;&#9;c0.07-0.04,7.18-3.85,7.18-11.48s-3.06-9.69-3.19-9.77c-0.04-0.04-0.11-0.04-0.15,0c-0.03,0.05-0.03,0.11,0,0.16&#10;&#9;&#9;c0.29,0.65,0.54,1.32,0.75,2c-1.12-2-4.85-6.41-14.85-6c-0.07,0.01-0.12,0.06-0.12,0.13c-0.01,0.06,0.03,0.13,0.09,0.15&#10;&#9;&#9;c0.05,0.01,4.33,1.18,6.33,2.73c-0.59,0.06-1.86,0.18-2.7,0.18c-0.05,0-0.09,0.03-0.11,0.07c-0.02,0.04-0.02,0.1,0,0.14&#10;&#9;&#9;c0,0.01,0.2,0.44,0.46,1.07c-2.2-0.03-4.4,0.31-6.49,1c-0.06,0.02-0.1,0.08-0.1,0.14c0,0.06,0.04,0.12,0.1,0.14&#10;&#9;&#9;c1.74,0.18,3.44,0.69,5,1.49L7.1,20.07C7.07,20.08,7.04,20.1,7.02,20.13z M29.51,17.38h-2.35l0.15-2.05l2.19,0.31L29.51,17.38z&#10;&#9;&#9; M29.5,20.3h-2.55l0.16-2.16l2.39,0.05V20.3z M28.75,23l-3.92-0.73l-0.18-1.4l4.69,0.2L28.75,23z M24.37,24.12l0.52-1.15l3.53,0.7&#10;&#9;&#9;l-1.08,1.69L24.37,24.12z M20.26,22.24c0-0.03-5.98-0.95-8.62-1.69c1.85,0.22,3.71,0.15,5.54-0.19c0,0-1.55-0.57-2.55-1&#10;&#9;&#9;c1.86-0.23,3.69-0.64,5.47-1.2l0.37-3l4.62-1.36l1.11,1.42l-0.34,5.08h-1.49l-0.92-2.7l1.05-2.32l-2.31,2l1.07,2.15l-1.62,0.87&#10;&#9;&#9;l2,0.51l0.42,1.77l-0.53,1.6l1.14,0.64l-2.45-0.3l-2-2.29L20.26,22.24z"/></svg>