<svg xmlns="http://www.w3.org/2000/svg" class="HeroAbility-icon HeroAbility-icon--hoverState" viewBox="0 0 40 40" preserveAspectRatio="xMidYMid meet"><path d="M30.23,11.46a.62.62,0,0,0-.9-.05l-1.09,1a.61.61,0,0,0-.05.84,10.77,10.77,0,0,1-2.07,15.85.61.61,0,0,1-.94-.37.62.62,0,0,0-1-.3l-3.39,3.22a.62.62,0,0,0,.25,1L25.5,34a.62.62,0,0,0,.77-.73l-.12-.5a.62.62,0,0,1,.31-.69,13.5,13.5,0,0,0,3.76-20.66Z"/><path d="M19,7.83,14.5,6.5a.62.62,0,0,0-.77.73l.12.5a.62.62,0,0,1-.31.69,13.5,13.5,0,0,0-2.25,22.16.61.61,0,0,0,.87-.1l.92-1.19a.61.61,0,0,0-.08-.84,10.77,10.77,0,0,1,.88-17,.61.61,0,0,1,.94.37.62.62,0,0,0,1,.3l3.39-3.22A.62.62,0,0,0,19,7.83Z"/><path d="M19.92,19.87a5.74,5.74,0,0,0,5.31-4.4,1,1,0,0,0-.23-1,6.89,6.89,0,0,0-10.15,0,1,1,0,0,0-.23,1A5.74,5.74,0,0,0,19.92,19.87Z"/><path d="M23,24.3a.61.61,0,0,1,.37-.73A8.06,8.06,0,0,0,27,20.63a2.44,2.44,0,0,0,.4-1.88,7.57,7.57,0,0,0-1.09-2.67.4.4,0,0,0-.71.09,6.13,6.13,0,0,1-5.67,4.41,6.13,6.13,0,0,1-5.67-4.41.4.4,0,0,0-.71-.09,7.57,7.57,0,0,0-1.09,2.67,2.44,2.44,0,0,0,.4,1.88,8.06,8.06,0,0,0,3.59,2.94.61.61,0,0,1,.37.73l-.55,2.49a.61.61,0,0,0,.33.71,7.63,7.63,0,0,0,6.66,0,.61.61,0,0,0,.33-.71Z"/><path d="M27.41,21.43A7.87,7.87,0,0,1,24.3,24a.61.61,0,0,0-.34.74l.41,1.36a.82.82,0,0,0,.07.16.48.48,0,0,0,.73.12,7.81,7.81,0,0,0,2.57-4.8A.18.18,0,0,0,27.41,21.43Z"/><path d="M15.54,24a7.79,7.79,0,0,1-3-2.34.18.18,0,0,0-.32.14,7.8,7.8,0,0,0,2.46,4.53.46.46,0,0,0,.74-.21h0l.41-1.37A.61.61,0,0,0,15.54,24Z"/></svg>