<svg xmlns="http://www.w3.org/2000/svg" class="HeroAbility-icon HeroAbility-icon--hoverState" viewBox="0 0 40 40" preserveAspectRatio="xMidYMid meet"><g id="_Group_3" data-name="&lt;Group&gt;"><g id="_Group_4" data-name="&lt;Group&gt;"><path id="_Path_6" data-name="&lt;Path&gt;" d="M13.37,17.36H10.89c-.41,0-.55-.09-.65-.49A5.26,5.26,0,0,1,10,15.36c0-.32,0-.35.34-.42.46-.1.92-.22,1.37-.35a.43.43,0,0,0,.38-.5q0-.63,0-1.25a.23.23,0,0,0-.21-.26c-.59-.12-1.15-.35-1.76-.43-.17,0-.2-.07-.18-.23a7.38,7.38,0,0,1,.19-1.14.33.33,0,0,1,.32-.29,6.53,6.53,0,0,1,1.5,0h.26c.83,0,1.66,0,2.48,0,.35,0,.69.06,1,0,.7,0,1.39,0,2.09,0l1.32,0a.82.82,0,0,1,.67.48c.07.12,0,.19-.11.23a3.22,3.22,0,0,0-.53.29,1.77,1.77,0,0,0-.23.2.46.46,0,0,0-.15.35c0,.16,0,.33,0,.49s0,.22-.23.25-.24.07-.24.27,0,.62,0,.93a.26.26,0,0,0,.19.28.33.33,0,0,1,.23.38,1.09,1.09,0,0,0,0,.21.43.43,0,0,1-.21.41c-.51.37-1.05.71-1.56,1.1a.31.31,0,0,0-.16.32c0,.26,0,.29-.23.42a2.05,2.05,0,0,1-1.09.25C14.83,17.34,14.1,17.36,13.37,17.36Z"/><path id="_Path_7" data-name="&lt;Path&gt;" d="M23.35,14.06a.42.42,0,0,1,0-.27c0-.56,0-1.11,0-1.67a.44.44,0,0,0-.14-.35c-.07-.07-.13-.15-.21-.22a1.1,1.1,0,0,0-.83-.33c-.59,0-1.19,0-1.79,0-.21,0-.21,0-.25-.21a.7.7,0,0,0-.09-.19c0-.06-.1-.12,0-.19a.22.22,0,0,1,.21-.07,1.05,1.05,0,0,0,.32,0,9.75,9.75,0,0,1,1.13-.08c.52,0,1,0,1.55,0a2.4,2.4,0,0,0,.43-.1,8,8,0,0,1,1.57-.09c.23,0,.45,0,.69,0a1.85,1.85,0,0,1,.81.35,3.23,3.23,0,0,0,.87.47.51.51,0,0,1,.25.16,6,6,0,0,1,.68.87,5.11,5.11,0,0,0,.5.7.75.75,0,0,1,.11.84,12.48,12.48,0,0,1-1,1.77l0,0a1.38,1.38,0,0,1-.87.78.91.91,0,0,1-.47.1,1.75,1.75,0,0,0-.44,0c-.11,0-.16,0-.16-.14a2.17,2.17,0,0,1,0-.62.94.94,0,0,0,0-.5,1.89,1.89,0,0,1,0-.53.62.62,0,0,0-.76-.69,2.63,2.63,0,0,1-.62,0,1.61,1.61,0,0,0-.5,0,.63.63,0,0,1-.28,0A.73.73,0,0,0,23.35,14.06Z"/><path id="_Path_8" data-name="&lt;Path&gt;" d="M10.45,17.51a2.46,2.46,0,0,1-1-.06,1.73,1.73,0,0,0-.62-.05H8.3A.47.47,0,0,1,8,17.28a.33.33,0,0,0-.26-.07H6.26a.71.71,0,0,1-.69-.62c0-.24-.11-.48-.15-.72s-.08-.58-.12-.87,0-.21.21-.23L7,14.54a1,1,0,0,0,.27-.07.46.46,0,0,0,.32-.5,5.42,5.42,0,0,1,0-1,.43.43,0,0,0-.13-.35,1,1,0,0,0-.63-.34,13.28,13.28,0,0,0-1.33-.17c-.25,0-.27-.05-.24-.3a8.45,8.45,0,0,1,.17-.88,1.93,1.93,0,0,1,.24-.52.37.37,0,0,1,.36-.2H9.53a.82.82,0,0,1,.3,0,.31.31,0,0,1,.22.43,4.82,4.82,0,0,0-.22,1.25.43.43,0,0,1-.33.47l0,0c-.36.07-.44.31-.41.65s0,.8,0,1.21a.56.56,0,0,0,.23.41c.14.1.26.24.42.33a.29.29,0,0,1,.15.29,5.42,5.42,0,0,0,.15,1.5,2.92,2.92,0,0,0,.16.48C10.23,17.36,10.35,17.42,10.45,17.51Z"/><path id="_Compound_Path_3" data-name="&lt;Compound Path&gt;" d="M18.19,21.72c-.3-.32-.48-.3-.67.08,0,.07-.06.14-.09.21s-.12.21-.3.14a7,7,0,0,1-.92-.45c-.21-.12-.41-.25-.61-.38a1.24,1.24,0,0,1-.53-.5.72.72,0,0,0-.15-.17,11.32,11.32,0,0,0-.91-.82.38.38,0,0,1-.15-.43,3.73,3.73,0,0,1,.42-1,.84.84,0,0,1,.53-.38,4.48,4.48,0,0,0,.82-.27l1.46-.69c.81-.37.6-.34,1.36,0a4.86,4.86,0,0,1,.7.45.33.33,0,0,1,.13.21,1.29,1.29,0,0,0,1,.95.76.76,0,0,0,.52-.06,3.34,3.34,0,0,1,1.74-.29.76.76,0,0,1,.62.43,2.12,2.12,0,0,1,.22,1.07c0,.54,0,1.08,0,1.62a.94.94,0,0,1,0,.32.47.47,0,0,1-.4.36c-.43.06-.86.13-1.28.2a.48.48,0,0,1-.45-.13.78.78,0,0,0-.25-.17c-.12-.05-.12-.13,0-.22a1.43,1.43,0,0,0,.23-.35,1.53,1.53,0,0,0,0-1.22,1.72,1.72,0,0,0-.83-1,1.45,1.45,0,0,0-1.21-.07,3.08,3.08,0,0,0-.77.42,1.13,1.13,0,0,1-.51.14c-.23,0-.23,0-.29.26a4.43,4.43,0,0,0-.15.63.31.31,0,0,0,.13.34,2.33,2.33,0,0,0,.38.26A.39.39,0,0,1,18.19,21.72Zm.3-3.84c0-.57-.3-.69-.75-.71a.72.72,0,0,0-.7.75.69.69,0,0,0,.73.66A.73.73,0,0,0,18.49,17.87Zm4.17,1.52a.7.7,0,0,0-.75-.73.66.66,0,0,0-.57.62A.67.67,0,0,0,22,20,.62.62,0,0,0,22.66,19.4Z"/><path id="_Compound_Path_4" data-name="&lt;Compound Path&gt;" d="M24.34,24.71a1.32,1.32,0,0,1,1.18.6,1,1,0,0,1,.12.2.79.79,0,0,0,.5.4c.36.14.74.23,1.09.37a.68.68,0,0,0,.3,0c.48,0,1,0,1.44-.09s1-.19,1.44-.26c.26,0,.44-.12.45-.41,0,0,0-.09,0-.13,0-.31.23-.45.47-.57l1.41-.75a.65.65,0,0,0,.35-.38c.06-.16.14-.31.21-.46a2.47,2.47,0,0,1,.84-.88.24.24,0,0,1,.24,0l.55.18a.36.36,0,0,1,.17.11c.23.28.5.53.76.78a.3.3,0,0,1,.09.35c-.07.2-.13.4-.19.6a1.2,1.2,0,0,0-.06.59c.06.32,0,.37-.26.51a11.43,11.43,0,0,1-1.29.62c-.45.15-.91.25-1.35.42a8.31,8.31,0,0,1-1.56.43,22.08,22.08,0,0,1-2.53.31c-.52,0-1,.07-1.55.12s-1,.07-1.57.11-1.24,0-1.85,0a.43.43,0,0,0-.14,0c-.23.09-.36,0-.47-.21S23,27.12,23,27s-.06-.08,0-.12.07,0,.11,0l.56.14a2.42,2.42,0,0,0,1,.06.63.63,0,0,0,.24-.09,1,1,0,0,0,.54-1,1,1,0,0,0-.92-.91,3.55,3.55,0,0,0-.64.07,1.45,1.45,0,0,1-.44,0c-.08,0-.11-.06,0-.13a.31.31,0,0,1,.09-.08A1.38,1.38,0,0,1,24.34,24.71Zm10.3-.56c.29.11.42-.09.55-.32a.23.23,0,0,0,0-.18c-.14-.51-.21-.56-.74-.53h0a.88.88,0,0,0-.47.43.08.08,0,0,0,0,0,4,4,0,0,0,.24.48.19.19,0,0,0,.16.08Z"/><path id="_Path_9" data-name="&lt;Path&gt;" d="M27.28,26.08a5.31,5.31,0,0,1,.88-.07,7.76,7.76,0,0,0,1.19-.15l.73-.13a.32.32,0,0,0,.29-.25c0-.19.1-.37.16-.56a.31.31,0,0,0-.08-.3.24.24,0,0,1,0-.33,2.79,2.79,0,0,1,.2-.26.72.72,0,0,0,.18-.64c0-.31-.07-.61-.11-.92a.19.19,0,0,1,.09-.22A1.34,1.34,0,0,0,31.44,21a8.68,8.68,0,0,0-.27-2.48,1.34,1.34,0,0,0-.63-.82c-.16-.11-.17-.11,0-.24a6.62,6.62,0,0,0,1-.93c.07-.1.14-.09.22,0a5.79,5.79,0,0,1,.6,1.15c.45,1,.77,2.12,1.14,3.19a.76.76,0,0,0,.31.44c.08,0,.14.12.23.16.24.12.25.33.22.55a.25.25,0,0,1-.11.17l-.29.23a2.1,2.1,0,0,0-.72.92c0,.1-.09.2-.14.3a.51.51,0,0,1-.24.27c-.44.23-.87.48-1.31.7-.18.09-.34.21-.52.31a.19.19,0,0,0-.11.18,1.14,1.14,0,0,1,0,.16.58.58,0,0,1-.54.56,17.23,17.23,0,0,1-2.63.3A.43.43,0,0,1,27.28,26.08Z"/><path id="_Compound_Path_5" data-name="&lt;Compound Path&gt;" d="M22.17,13.84q0,1.06,0,2.11c0,.06,0,.12,0,.19s-.07.19-.2.18c-.39,0-.77,0-1.16,0a.23.23,0,0,1-.11,0,.6.6,0,0,0-.61,0,.41.41,0,0,1-.16,0H18.21c-.07,0-.15,0-.17-.09a.37.37,0,0,1,.06-.37,1.11,1.11,0,0,1,.22-.16,3.66,3.66,0,0,1,.58-.38c.08,0,.08-.11.09-.18a5.3,5.3,0,0,1,0-.69.18.18,0,0,0-.15-.21.4.4,0,0,1-.3-.48c0-.17,0-.34,0-.51s0-.24.23-.28.24,0,.24-.3,0-.39,0-.58a.33.33,0,0,1,.16-.31,3.82,3.82,0,0,1,.69-.33.35.35,0,0,1,.37,0,.21.21,0,0,0,.28,0,.38.38,0,0,1,.26-.08h1.14c.21,0,.22,0,.22.23q0,1.1,0,2.2Zm-.54.7c0-.09,0-.17-.16-.18a.22.22,0,0,0-.23.18.18.18,0,0,0,.18.2A.21.21,0,0,0,21.64,14.55Zm-1.09-.85c0-.1,0-.19-.16-.2a.2.2,0,0,0-.19.21.2.2,0,0,0,.19.21C20.51,13.9,20.54,13.81,20.54,13.69Zm.9-.92a.23.23,0,0,0-.22.17.2.2,0,0,0,.19.19.2.2,0,0,0,.22-.17A.2.2,0,0,0,21.44,12.77Zm-1.06,2.37a.2.2,0,0,0-.19.19.15.15,0,0,0,.15.17.19.19,0,0,0,.2-.17A.17.17,0,0,0,20.38,15.14Zm0-3a.2.2,0,0,0-.21.18.14.14,0,0,0,.15.16.22.22,0,0,0,.2-.21A.13.13,0,0,0,20.4,12.18Zm1.2-.48c0-.08-.06-.1-.14-.11s-.23.07-.22.16a.14.14,0,0,0,.15.14A.21.21,0,0,0,21.61,11.71Zm0,4.27a.15.15,0,0,0-.15-.15c-.09,0-.2.08-.2.16s.08.13.16.13S21.56,16.09,21.57,16Z"/><path id="_Path_10" data-name="&lt;Path&gt;" d="M30.58,15.56a8.45,8.45,0,0,1-1,1.2c-.38.37-.71.78-1.09,1.14-.19.18-.41.33-.62.49s-.19.05-.27-.05l-.58-.79a1,1,0,0,0-.89-.48c-.51,0-1,0-1.53,0a.84.84,0,0,0-.82.53,1,1,0,0,1-.69.63.29.29,0,0,1-.2,0,2.49,2.49,0,0,0-1.31,0,2.53,2.53,0,0,0-.8.23,1,1,0,0,1-1.39-.79.32.32,0,0,0-.23-.3.72.72,0,0,1-.21-.14,5.76,5.76,0,0,0-1.11-.58.25.25,0,0,0-.22,0l-.39.15c-.08,0-.17.09-.2,0a.19.19,0,0,1,.11-.25.52.52,0,0,1,.21,0h4.67a.93.93,0,0,1,.23,0,.54.54,0,0,0,.55-.2c.15-.14.28-.3.41-.46.07.08,0,.14,0,.21a.65.65,0,0,0,.81.74c.05,0,.11,0,.16,0a5.28,5.28,0,0,0,1.2,0,.73.73,0,0,0,.61-.18.48.48,0,0,1,.43-.12,1.67,1.67,0,0,0,1.17-.27c.16-.09.36-.11.44-.31a.12.12,0,0,1,.14-.06c.08,0,.06.08.06.13a1.14,1.14,0,0,0,.15.53.5.5,0,0,0,.62.32.7.7,0,0,0,.6-.9c-.06-.32-.06-.32.26-.34A4,4,0,0,1,30.58,15.56Z"/><path id="_Compound_Path_6" data-name="&lt;Compound Path&gt;" d="M24.23,26.93a5.32,5.32,0,0,1-1.08-.21,1.56,1.56,0,0,1-.88-.56,7.64,7.64,0,0,0-.52-.56,13.37,13.37,0,0,0-1.31-1.06,3.68,3.68,0,0,0-.73-.34l-1-.47a5,5,0,0,0-1.08-.25l-.32-.06c-.18,0-.22-.12-.15-.29a2.21,2.21,0,0,1,.23-.48,1.55,1.55,0,0,0,.17-.38c0-.12.08-.25.14-.37.13-.27.2-.28.4-.05a3.9,3.9,0,0,0,.69.62,1.32,1.32,0,0,0,1.43.09,1.59,1.59,0,0,0,.49-.3.15.15,0,0,1,.17,0,.43.43,0,0,1,.23.16,3.12,3.12,0,0,1,.35.62A12,12,0,0,0,22,24.16a.35.35,0,0,0,.09.11l.8.71A.2.2,0,0,0,23,25c.1,0,.13.05.13.15s.07.15.16.17a1,1,0,0,0,.53,0,2.64,2.64,0,0,1,.76-.07.82.82,0,0,1,.68.66.81.81,0,0,1-.78.95Zm-.47-.83a.6.6,0,0,0,.54.59c.07,0,.15,0,.17-.08s-.07-.09-.12-.1a.38.38,0,0,1-.25-.11.31.31,0,0,1,0-.36.42.42,0,0,1,.46-.15.32.32,0,0,1,.18.32.55.55,0,0,1-.06.2s0,.08,0,.11.09,0,.12,0a.49.49,0,0,0,.11-.41.61.61,0,0,0-.58-.53A.59.59,0,0,0,23.76,26.1Z"/><path id="_Path_11" data-name="&lt;Path&gt;" d="M3.93,13.43c0-.21,0-.42,0-.63a.24.24,0,0,1,.22-.28c.38-.09.75-.21,1.13-.28a2.44,2.44,0,0,1,.67,0A9,9,0,0,1,7,12.45a.56.56,0,0,1,.46.58c0,.32,0,.65,0,1s-.17.3-.35.35a6.78,6.78,0,0,1-.76.12c-.25,0-.51.06-.76.11a2.79,2.79,0,0,1-1.36-.18c-.22-.06-.27-.18-.26-.41s0-.37,0-.56Z"/><path id="_Path_12" data-name="&lt;Path&gt;" d="M31.25,20.59a2.41,2.41,0,0,1-.11,1,1.24,1.24,0,0,1-.16.31c-.08.1-.15.16-.31.07s-.35-.23-.54-.31-.13-.13-.18-.21a9.46,9.46,0,0,1-1.1-1.9,2.1,2.1,0,0,1-.1-.4.29.29,0,0,1,.12-.31c.4-.3.77-.63,1.13-1,.1-.09.24-.12.45,0a1.12,1.12,0,0,1,.55.74A8.9,8.9,0,0,1,31.25,20.59Z"/><path id="_Path_13" data-name="&lt;Path&gt;" d="M8.62,17.56l.5,0c.18,0,.19,0,.12.22s-.28.63-.43.95a.39.39,0,0,0,0,.33,5.17,5.17,0,0,1,.27.71,1.48,1.48,0,0,1-.19,1,8.54,8.54,0,0,0-.52,1.23l0,.13a.37.37,0,0,1-.49.19c-.09-.05-.09-.14-.08-.22s0-.34,0-.51a.43.43,0,0,0-.24-.49s-.11-.05-.1-.12.06-.09.12-.1a.84.84,0,0,0,.57-.47c.12-.2.23-.38.12-.63s-.29-.56-.63-.63A.76.76,0,0,1,7.29,19c-.22-.19-.22-.18-.4,0l-.72.79-.08.08S6,20,6,20a.09.09,0,0,1,0-.1,1.09,1.09,0,0,1,.06-.2,1.8,1.8,0,0,1,.48-.73l.08-.08a.57.57,0,0,0,.27-.62c-.06-.26,0-.28.25-.34a3.2,3.2,0,0,1,.7-.15.12.12,0,0,0,.09,0c.18-.23.43-.14.67-.15Z"/><path id="_Path_14" data-name="&lt;Path&gt;" d="M9.24,13.46c0-.19,0-.37,0-.56a.32.32,0,0,1,.23-.35l.42-.19a.55.55,0,0,1,.32,0,12.14,12.14,0,0,1,1.57.4A.23.23,0,0,1,12,13c0,.34,0,.68,0,1a.38.38,0,0,1-.33.43c-.51.15-1,.27-1.55.38a.4.4,0,0,1-.37-.08l-.28-.24a.53.53,0,0,1-.19-.41q0-.31,0-.63Z"/><path id="_Path_15" data-name="&lt;Path&gt;" d="M8.27,28.51c-.51,0-.51,0-.49-.51,0-.25,0-.26.29-.28s.26,0,.28-.27c.06-.62.12-1.24.19-1.86a2.6,2.6,0,0,0,0-.48c0-.18-.06-.23-.25-.23a1.51,1.51,0,0,1-.37,0,.24.24,0,0,1-.21-.26c0-.17,0-.34,0-.51a.15.15,0,0,1,.17-.17A2.94,2.94,0,0,1,9,24.14a1.25,1.25,0,0,1,.61,1.2c-.07.53-.11,1.06-.17,1.59a3.43,3.43,0,0,1-.18,1,.93.93,0,0,1-.91.63Z"/><path id="_Path_16" data-name="&lt;Path&gt;" d="M15.62,17.59a6.74,6.74,0,0,1-1.08.36.52.52,0,0,0-.29.21,3.15,3.15,0,0,0-.44.81.24.24,0,0,1-.28.19c-.54-.06-1.08,0-1.62-.05a.92.92,0,0,1-.44-.2c-.54-.33-.47-.12-.67-.77a.56.56,0,0,1,0-.44.19.19,0,0,1,.19-.14h4.46A.39.39,0,0,1,15.62,17.59Z"/><path id="_Path_17" data-name="&lt;Path&gt;" d="M5.43,10.46c-.1-.33-.07-.43.19-.55a.89.89,0,0,0,.57-.63A2.53,2.53,0,0,1,7.58,7.71c.17-.09.2-.07.2.12a2.7,2.7,0,0,1,0,.51,1.23,1.23,0,0,0,.15.78.56.56,0,0,0,.31.27,3.45,3.45,0,0,0,.59.2.89.89,0,0,1,.49.23.25.25,0,0,0,.39,0l.19-.26A.3.3,0,0,1,10,9.4a.16.16,0,0,1,.19.06.11.11,0,0,1,0,.15L10,9.95s-.08,0-.12,0c-1.1,0-2.2,0-3.3,0L6,10a.39.39,0,0,0-.38.21A.93.93,0,0,1,5.43,10.46Z"/><path id="_Path_18" data-name="&lt;Path&gt;" d="M25,20.57c-.28,0-.32-.18-.42-.3s0-.17,0-.25a.23.23,0,0,1,.22-.09,1.22,1.22,0,0,0,1-.53.69.69,0,0,0,.14-.61.22.22,0,0,1,.15-.31.36.36,0,0,0,.24-.32c0-.2.06-.4.09-.6s0-.16.07-.18.15,0,.19.1l.47.6a3.19,3.19,0,0,1,.32.56.44.44,0,0,1-.1.57l-.08.08A4.79,4.79,0,0,1,26,20.35,3.18,3.18,0,0,1,25,20.57Z"/><path id="_Path_19" data-name="&lt;Path&gt;" d="M22.34,13.86q0-1,0-2.09c0-.07,0-.14,0-.21s.06-.15.17-.12a.91.91,0,0,1,.6.8c0,1,0,2.09,0,3.14a1.05,1.05,0,0,1-.55.89c-.13.09-.21,0-.23-.13s0-.19,0-.28Q22.34,14.86,22.34,13.86Z"/><path id="_Path_20" data-name="&lt;Path&gt;" d="M31.08,15.18a2.54,2.54,0,0,1,.25.43c0,.08.07.17.12.25.14.25.13.3-.05.53a8,8,0,0,1-1.22,1.14l-1,.86c-.2.18-.42.34-.64.5s-.18.11-.33,0l-.08-.08c-.21-.17-.21-.17,0-.34a6.93,6.93,0,0,0,1.1-1c.35-.39.74-.75,1.06-1.17a9.06,9.06,0,0,1,.63-.83C31,15.36,31,15.25,31.08,15.18Z"/><path id="_Path_21" data-name="&lt;Path&gt;" d="M7.14,29.82s0-.08,0-.12c0-.37,0-.41.34-.51a.33.33,0,0,0,.25-.3c0-.15.11-.19.24-.19s.18.07.17.19c-.06.62-.05,1.25-.1,1.87a2.53,2.53,0,0,1-.13.49,2,2,0,0,0-.1.54.54.54,0,0,1-.37.51A.39.39,0,0,1,7,32.07a.78.78,0,0,1,0-.59A5.61,5.61,0,0,0,7.14,29.82Z"/><path id="_Path_22" data-name="&lt;Path&gt;" d="M29.62,13.45c.58-.8.58-.82.06-1.38a.79.79,0,0,1,.31.2,1.23,1.23,0,0,0,.28.2.18.18,0,0,0,.18,0c.16-.08.25-.55.11-.65a.25.25,0,0,1-.09-.35,1.06,1.06,0,0,0,0-.11c.1-.28.14-.3.42-.18a2.17,2.17,0,0,0,.41.08.46.46,0,0,1,.3.7,1.17,1.17,0,0,0-.11.3,2.54,2.54,0,0,1-.45.91.2.2,0,0,1-.24.08c-.23-.06-.33,0-.44.18a.17.17,0,0,1-.23.09A1.41,1.41,0,0,0,29.62,13.45Z"/><path id="_Compound_Path_7" data-name="&lt;Compound Path&gt;" d="M23.73,15.25A1.14,1.14,0,0,1,25,14.15c.37,0,.88.63.9,1.11a1,1,0,0,1-1,1A1.05,1.05,0,0,1,23.73,15.25Zm1.14-.55a.57.57,0,1,0,.53.55A.51.51,0,0,0,24.87,14.7Z"/><path id="_Path_23" data-name="&lt;Path&gt;" d="M6.64,28.46a8.73,8.73,0,0,1,.13-1.4c.07-.3.3-.35.53-.4a.47.47,0,0,1,.48.21,1.69,1.69,0,0,1,.25.49c0,.06.06.13,0,.16a.15.15,0,0,1-.2-.06l0,0c0-.05,0-.11-.11-.09s-.06.08-.06.14,0,.34,0,.51,0,.45,0,.67-.13.44-.48.43-.46,0-.47-.47C6.64,28.55,6.64,28.5,6.64,28.46Z"/><path id="_Path_24" data-name="&lt;Path&gt;" d="M28.37,29.48c-.12-.15-.19-.33-.3-.48-.26-.35-.51-.72-.76-1.08-.14-.2-.11-.28.13-.3a14.28,14.28,0,0,1,1.62-.12h.12c.11,0,.16.06.1.17l0,.08c-.26.53-.55,1-.76,1.59A.17.17,0,0,1,28.37,29.48Z"/><path id="_Compound_Path_8" data-name="&lt;Compound Path&gt;" d="M20.51,21.35a.9.9,0,0,1-.42.79.88.88,0,0,1-1.08,0A.82.82,0,0,1,19,20.72c.12-.1.24-.24.44-.23a1.36,1.36,0,0,1,.77.23A.8.8,0,0,1,20.51,21.35Zm-1.4-.14a.47.47,0,0,0,.39.52c.24,0,.46-.29.45-.58s-.21-.31-.45-.31A.35.35,0,0,0,19.12,21.21Z"/><path id="_Path_25" data-name="&lt;Path&gt;" d="M34.58,28.19a6.34,6.34,0,0,0-.75-.67l-.72-.58-.1-.1c-.06-.08,0-.16.05-.18a14.94,14.94,0,0,0,1.73-.6c.14,0,.18,0,.15.15-.09.5-.18,1-.27,1.5A1.67,1.67,0,0,1,34.58,28.19Z"/><path id="_Path_26" data-name="&lt;Path&gt;" d="M6.49,27.89l0,.46a.11.11,0,0,1-.14.1A.8.8,0,0,1,6,28.32a1.28,1.28,0,0,1-.53-.93c0-.28-.06-.55-.09-.83a1.62,1.62,0,0,1,0-.21c0-.09,0-.15.15-.14a3.19,3.19,0,0,0,.67,0c.11,0,.16,0,.19.15a2.87,2.87,0,0,1,.06.62A6.08,6.08,0,0,1,6.49,27.89Z"/><path id="_Path_27" data-name="&lt;Path&gt;" d="M6.78,23.62a1,1,0,0,0,.64,0c.09,0,.13,0,.14.1s0,.14,0,.21c0,.37,0,.74,0,1.11,0,.05,0,.12.05.14s.09,0,.11-.09A.13.13,0,0,1,7.95,25c.09,0,.11.1.11.18a.85.85,0,0,1-.69.7.77.77,0,0,1-.53-.46A2,2,0,0,1,6.78,25C6.78,24.55,6.78,24.1,6.78,23.62Z"/><path id="_Path_28" data-name="&lt;Path&gt;" d="M28.23,15.62a8.43,8.43,0,0,1,.44-.74.38.38,0,0,1,.28-.15c.42-.09.85-.18,1.28-.23l.41-.07a.13.13,0,0,1,.17.12,1.27,1.27,0,0,1-.08.68.21.21,0,0,1-.19.12,5.93,5.93,0,0,1-1.38.08.77.77,0,0,0-.53.11A.49.49,0,0,1,28.23,15.62Z"/><path id="_Path_29" data-name="&lt;Path&gt;" d="M8,20.13a.46.46,0,0,1-.06.09c-.24.25-.47.52-.73.74a.19.19,0,0,1-.3,0c-.22-.25-.44-.5-.69-.72a.11.11,0,0,1,0-.18L7,19.22a.12.12,0,0,1,.18,0A5.58,5.58,0,0,1,8,20,.36.36,0,0,1,8,20.13Z"/><path id="_Path_30" data-name="&lt;Path&gt;" d="M7.59,22c0,.13,0,.26,0,.39a.18.18,0,0,0,.18.2c.37,0,.35.05.35.45,0,.17,0,.34,0,.51s-.07.19-.21.18-.19-.1-.11-.21.08-.46.07-.69-.11-.17-.26-.09a.91.91,0,0,1-.61.1c-.22,0-.27-.08-.27-.3a1.65,1.65,0,0,1,.17-1,.56.56,0,0,1,.21-.21.33.33,0,0,1,.5.28c0,.13,0,.26,0,.39Z"/><path id="_Path_31" data-name="&lt;Path&gt;" d="M6.59,24.35c0,.08,0,.17,0,.25s0,.18-.16.19-.18.11-.18.24,0,.25-.25.31a1.77,1.77,0,0,1-.48.06c-.23,0-.32-.09-.31-.32a1.2,1.2,0,0,1,1.18-1.21c.14,0,.2.06.2.2S6.59,24.25,6.59,24.35Z"/><path id="_Path_32" data-name="&lt;Path&gt;" d="M21.07,21.2a2,2,0,0,1-.07-.55.29.29,0,0,0-.06-.19L20.59,20c-.08-.11-.21-.13-.31-.2a1.34,1.34,0,0,0-1.2-.13,1.19,1.19,0,0,0-.83.71,1.33,1.33,0,0,0-.17.68c0,.08,0,.11-.12.08a.48.48,0,0,1-.33-.6v0c.1-.44.1-.44.54-.51a.54.54,0,0,0,.28-.14A1.82,1.82,0,0,1,20,19.38a1.13,1.13,0,0,1,.67.4A1.56,1.56,0,0,1,21.07,21.2Z"/><path id="_Path_33" data-name="&lt;Path&gt;" d="M22.93,10.22a.29.29,0,0,1-.25.07,19.93,19.93,0,0,0-2,.09c-.06,0-.13,0-.16-.05s0-.1.06-.14a.71.71,0,0,1,.66-.35h1A.72.72,0,0,1,22.93,10.22Z"/><path id="_Path_34" data-name="&lt;Path&gt;" d="M25.16,17.23a8.38,8.38,0,0,0,1,0c.19,0,.21,0,.19.22s0,.35-.07.53a.62.62,0,0,1,0,.16.21.21,0,0,1-.4,0,2.11,2.11,0,0,0-.75-.67l0,0c-.07-.06-.21-.11-.17-.22S25.06,17.25,25.16,17.23Z"/><path id="_Path_35" data-name="&lt;Path&gt;" d="M5.38,17.17s0,0,0-.07,0-.12.06-.14.1,0,.13.07a.92.92,0,0,0,.93.38c.32,0,.65,0,1,0h.16s.1,0,.1.07,0,.06-.08.07l-.09,0a4.76,4.76,0,0,1-1.22.25,1.56,1.56,0,0,1-.93-.42C5.35,17.36,5.38,17.25,5.38,17.17Z"/><path id="_Path_36" data-name="&lt;Path&gt;" d="M29.52,16.15a.45.45,0,0,1-.49.47.44.44,0,0,1-.46-.52.5.5,0,0,1,.55-.44C29.37,15.67,29.52,15.85,29.52,16.15Z"/><path id="_Path_37" data-name="&lt;Path&gt;" d="M29.42,13.32c0-.31-.21-.48-.35-.69s-.2-.25-.28-.4,0-.12.07-.12a1.27,1.27,0,0,1,.83.23.4.4,0,0,1,.12.57A1.17,1.17,0,0,1,29.42,13.32Z"/><path id="_Path_38" data-name="&lt;Path&gt;" d="M6.56,21.82A8.84,8.84,0,0,0,6,20.44s-.06-.11,0-.15.1,0,.14,0a7.42,7.42,0,0,1,.72.75c.07.07,0,.14,0,.21A3.68,3.68,0,0,0,6.56,21.82Z"/><path id="_Path_39" data-name="&lt;Path&gt;" d="M5.55,26l-.24,0a.23.23,0,0,1-.17-.31.11.11,0,0,1,.13-.08,2.93,2.93,0,0,0,.94-.13c.13,0,.19,0,.23.16s0,.21-.12.26A4.23,4.23,0,0,1,5.55,26Z"/><path id="_Path_40" data-name="&lt;Path&gt;" d="M7.69,23.14a.28.28,0,0,1-.18.28.84.84,0,0,1-.91-.1.26.26,0,0,1,0-.3c0-.11.13-.08.22-.05a1.11,1.11,0,0,0,.73,0C7.67,22.92,7.69,22.95,7.69,23.14Z"/><path id="_Path_41" data-name="&lt;Path&gt;" d="M21.91,22.94a.32.32,0,0,1-.35-.26c0-.06,0-.09.06-.1l.57-.09c.14,0,.16,0,.13.16S22.22,22.94,21.91,22.94Z"/><path id="_Path_42" data-name="&lt;Path&gt;" d="M23.91,16.61a.45.45,0,0,1-.45-.55c0-.09.11-.13.19-.05a1.49,1.49,0,0,1,.41.49C24.13,16.67,23.95,16.58,23.91,16.61Z"/><path id="_Path_43" data-name="&lt;Path&gt;" d="M25.44,16.57c.07-.24.27-.35.41-.51s.12,0,.14.06C26,16.46,25.82,16.64,25.44,16.57Z"/><path id="_Path_44" data-name="&lt;Path&gt;" d="M23.47,14.61a.62.62,0,0,1,0-.36.36.36,0,0,1,.45-.22c.06,0,.07.07,0,.11S23.71,14.51,23.47,14.61Z"/><path id="_Path_45" data-name="&lt;Path&gt;" d="M30.13,14a.11.11,0,0,1-.15.09l-.67-.26c-.1,0-.07-.13,0-.2s.14-.1.19,0a.68.68,0,0,0,.51.27C30.05,13.94,30.12,13.94,30.13,14Z"/><path id="_Path_46" data-name="&lt;Path&gt;" d="M26,14.6c-.07-.13-.2-.19-.29-.28a.68.68,0,0,1-.12-.14c-.06-.1,0-.16.09-.16a.37.37,0,0,1,.37.34c0,.08,0,.15,0,.23Z"/><path id="_Path_47" data-name="&lt;Path&gt;" d="M29.85,14.32a.07.07,0,0,1-.07.05.27.27,0,0,1-.17-.06,1.1,1.1,0,0,0-.41-.15s-.08,0-.07-.08a.07.07,0,0,1,.09,0,2.53,2.53,0,0,1,.6.23S29.84,14.31,29.85,14.32Z"/><path id="_Path_48" data-name="&lt;Path&gt;" d="M11.05,10.24c-.1,0-.18,0-.2-.12S11,10,11,10a.21.21,0,0,1,.16.2C11.19,10.25,11.11,10.24,11.05,10.24Z"/><path id="_Path_49" data-name="&lt;Path&gt;" d="M10,9.21c0-.1.07-.13.13-.13a.56.56,0,0,1,.38.26.08.08,0,0,1,0,.1s-.06,0-.07,0A.46.46,0,0,0,10,9.21Z"/><path id="_Path_50" data-name="&lt;Path&gt;" d="M30.72,13.43c.07,0,.13,0,.13.13s-.15.18-.22.17-.08-.08-.07-.14A.14.14,0,0,1,30.72,13.43Z"/><path id="_Path_51" data-name="&lt;Path&gt;" d="M11.15,9.69l-.4.2a.08.08,0,0,1-.1-.12A.45.45,0,0,1,11.15,9.69Z"/><path id="_Path_52" data-name="&lt;Path&gt;" d="M28.9,14.55c.08-.25.23-.28.48-.11A3.26,3.26,0,0,1,28.9,14.55Z"/><path id="_Path_53" data-name="&lt;Path&gt;" d="M17.51,16.28a.49.49,0,0,1,.18-.17s.1-.07.13,0,0,.16-.06.19A.27.27,0,0,1,17.51,16.28Z"/><path id="_Path_54" data-name="&lt;Path&gt;" d="M10.54,10.26c-.13.06-.25.11-.36-.09A1,1,0,0,0,10.54,10.26Z"/><path id="_Path_55" data-name="&lt;Path&gt;" d="M28.9,11.89a.39.39,0,0,1-.26,0Z"/><path id="_Path_56" data-name="&lt;Path&gt;" d="M17.23,17.88a.58.58,0,0,1,.1-.31c.08-.14.12-.14.24,0s.19.09.27,0,.19-.17.32-.06a.54.54,0,0,1,0,.78c-.06,0-.12.07-.17,0s-.17-.1-.26,0-.18.12-.3,0A.45.45,0,0,1,17.23,17.88Z"/><path id="_Path_57" data-name="&lt;Path&gt;" d="M22.06,19.86a.54.54,0,0,1-.3-.09c-.16-.09-.17-.14-.08-.3a.19.19,0,0,0,0-.25c-.09-.11-.08-.17,0-.26a.58.58,0,0,1,.67.06.11.11,0,0,1,0,.18c-.12.11-.11.22,0,.3s.06.1,0,.16A.47.47,0,0,1,22.06,19.86Z"/><path id="_Compound_Path_9" data-name="&lt;Compound Path&gt;" d="M34.66,24c-.3,0-.47-.15-.46-.36s.24-.33.51-.32.3.21.29.43S34.87,24,34.66,24Zm-.06-.18a.2.2,0,0,0,.18-.21.16.16,0,0,0-.18-.17.16.16,0,0,0-.16.19C34.45,23.71,34.5,23.79,34.6,23.79Z"/></g></g></svg>