<svg xmlns="http://www.w3.org/2000/svg" class="HeroAbility-icon HeroAbility-icon--hoverState" viewBox="0 0 40 40" preserveAspectRatio="xMidYMid meet"><path d="M12.75,26.84a3.92,3.92,0,0,0,2,.88c.37.08.77.16,1.19.22l0,0a22.86,22.86,0,0,0,3.39.25l.94,0a22.33,22.33,0,0,0,4.44-.47,3.88,3.88,0,0,0,2-.89l0,0,0,0c1.9-2.54,3.76-8.42,3.77-8.48a.2.2,0,0,0,0-.19.08.08,0,0,0-.13,0A21.93,21.93,0,0,1,26.53,23l.27-1.09a.2.2,0,0,0,0-.18.08.08,0,0,0-.12,0A4.59,4.59,0,0,1,25.23,23L25,23a12.44,12.44,0,0,0,1-2.74A.19.19,0,0,0,26,20s-.1,0-.13.06a7.89,7.89,0,0,1-1.92,2.4,4.44,4.44,0,0,1-2.06-1.71,1.34,1.34,0,0,1,0-1.22,2.29,2.29,0,0,1,.94-.44.36.36,0,0,0,.38-.26,10.71,10.71,0,0,1,.67-1.94.37.37,0,0,0,0-.38,9.17,9.17,0,0,1-.37-3.23c0-2.29,3.05-3.59,5.86-3.64a23.43,23.43,0,0,1,3.17.23l.07,0c.18,0,.38.09.52-.08l0,0a.34.34,0,0,0-.05-.41.39.39,0,0,0-.17-.1,13.37,13.37,0,0,0-5.42-.77h-.81l-.1,0a35.19,35.19,0,0,0-3.85,1.38c-.52.22-.94.41-1.22.54l-.41.2,0,0h0l-.12,0v0a13.53,13.53,0,0,0-2.06,1.41.33.33,0,0,0-.12.34.32.32,0,0,0,.05.11,1.48,1.48,0,0,1,.13.68,26.19,26.19,0,0,1-.52,3.07l0,.12a11.09,11.09,0,0,0-.77,1.58l0,.06a10,10,0,0,0-.63,5c-.63-.39-1.2-.78-1.54-1,0,0-.09,0-.11.06a.22.22,0,0,0,0,.18l.45,1.37a7.17,7.17,0,0,1-3.1-2.43.08.08,0,0,0-.13,0,.21.21,0,0,0,0,.2s1.16,2,1.48,2.47c-.66,0-4.47-3.38-5.95-5.21a.07.07,0,0,0-.12,0,.2.2,0,0,0,0,.17S10.56,25.22,12.75,26.84Zm8.47-16h0Zm-1.58,4a6.29,6.29,0,0,1,.49-2.06.34.34,0,0,0,.06-.11,4.9,4.9,0,0,1,.7-.61v.09A15.27,15.27,0,0,0,21,14.38c.22,1.5-.13,1.84-.89,2-.14,0-.2,0-.24,0S19.61,15.86,19.63,14.78Z"/><path d="M30.38,25.73v.39C32,26.52,33,27,33,27.56c0,1.32-5.84,2.6-13,2.6S7,28.89,7,27.56c0-.42.6-.82,1.64-1.16V26C6.39,26.56,5,27.31,5,28.14,5,30,11.74,31.5,20,31.5S35,30,35,28.14C35,27.2,33.19,26.34,30.38,25.73Z"/></svg>