<svg xmlns="http://www.w3.org/2000/svg" class="HeroAbility-icon HeroAbility-icon--hoverState" viewBox="0 0 40 40" preserveAspectRatio="xMidYMid meet"><g id="_Group_2" data-name="&lt;Group&gt;"><path id="_Compound_Path_2" data-name="&lt;Compound Path&gt;" d="M33.11,13.2c-.81.37-1.62.71-2.4,1.1a1,1,0,0,1-1.09-.1,1.82,1.82,0,0,1-1-1.86,1.26,1.26,0,0,1,.82-1.3c.75-.34,1.45-.76,2.24-1.18-.16-.14-.24-.22-.33-.29A3.92,3.92,0,0,0,25.27,12a5.38,5.38,0,0,1-2.16,3.23C17.7,19.26,18,19,12.65,23.11A3.68,3.68,0,0,1,10,24a3,3,0,0,0-3.1,2.75,3.12,3.12,0,0,0,2.3,3.34,3,3,0,0,0,3.8-2.2,4.13,4.13,0,0,1,1.65-2.38c4.94-3.7,4.16-3.15,9-6.92a7,7,0,0,1,4.13-1.48A10.72,10.72,0,0,0,30.15,17,3.93,3.93,0,0,0,33.11,13.2ZM11.59,27.35,11,28.42a.47.47,0,0,1-.41.24H9.33a.47.47,0,0,1-.41-.24l-.62-1.07a.47.47,0,0,1,0-.47l.62-1.07a.47.47,0,0,1,.41-.24h1.23a.47.47,0,0,1,.41.24l.62,1.07A.47.47,0,0,1,11.59,27.35Z"/><g id="_Group_3" data-name="&lt;Group&gt;"><path d="M26.54,18.57a.29.29,0,0,0-.27-.26l-1-.07a5.85,5.85,0,0,0-.3-.79l.77-.79a.29.29,0,0,0,0-.38l-.8-1.1a.29.29,0,0,0-.37-.09l-1,.5c-.13-.12-.26-.23-.4-.33l.29-1.09a.29.29,0,0,0-.16-.34l-1.24-.57a.29.29,0,0,0-.36.1l-.62.91a5.87,5.87,0,0,0-.83-.14l-.26-1A.29.29,0,0,0,19.7,13l-1.36.13a.29.29,0,0,0-.26.27l-.07,1a5.79,5.79,0,0,0-.78.3l-.79-.77a.29.29,0,0,0-.38,0l-1.1.8a.29.29,0,0,0-.09.37l.5,1c-.11.13-.22.26-.33.4l-1.09-.29a.29.29,0,0,0-.34.16L13,17.54a.29.29,0,0,0,.1.37l.91.62a5.79,5.79,0,0,0-.14.83l-1,.26a.29.29,0,0,0-.21.31l.13,1.36a.29.29,0,0,0,.27.26l1,.07a5.84,5.84,0,0,0,.3.79l-.77.79a.29.29,0,0,0,0,.38l.8,1.1a.29.29,0,0,0,.37.09l1-.5c.13.12.26.23.4.33l-.29,1.09a.29.29,0,0,0,.16.34l1.24.57a.29.29,0,0,0,.36-.1l.62-.91a5.89,5.89,0,0,0,.83.14l.26,1a.29.29,0,0,0,.28.22h0l1.36-.13a.29.29,0,0,0,.26-.27l.07-1a5.78,5.78,0,0,0,.78-.3L23,26a.29.29,0,0,0,.38,0l1.1-.8a.29.29,0,0,0,.09-.37l-.5-1,.17-.2.16-.21,1.09.29a.29.29,0,0,0,.34-.16l.57-1.24a.29.29,0,0,0-.1-.37l-.91-.62a5.81,5.81,0,0,0,.14-.83l1-.26a.29.29,0,0,0,.21-.31Zm-4.1,3.6a3.51,3.51,0,0,1-2.38,1.28l-.35,0a3.53,3.53,0,0,1-.34-7.05l.35,0a3.53,3.53,0,0,1,2.73,5.77Z"/></g></g></svg>