<svg xmlns="http://www.w3.org/2000/svg" class="HeroAbility-icon HeroAbility-icon--hoverState" viewBox="0 0 40 40" preserveAspectRatio="xMidYMid meet"><g id="_Group_2" data-name="&lt;Group&gt;"><path id="_Compound_Path_2" data-name="&lt;Compound Path&gt;" d="M31.07,9.7c0,.61-.08,1.34-.12,2.08a9.62,9.62,0,0,1-.76,2.82,26.81,26.81,0,0,1-1.12,2.52,22.19,22.19,0,0,1-1.36,2.36c-.4.6-.7,1.26-1.08,1.87-.13.21-.13.22,0,.39a9.59,9.59,0,0,1,1.55,2,11.35,11.35,0,0,1,1,1.92,6.26,6.26,0,0,1,.41,2.22c0,.26,0,.52,0,.77a3.14,3.14,0,0,1-.28,1.46,8.17,8.17,0,0,1-.6,1.19,3.29,3.29,0,0,1-.48.54A7.3,7.3,0,0,1,26.64,33a7.87,7.87,0,0,1-2.15.79,15.41,15.41,0,0,1-1.57.36c-.51.06-1,.14-1.54.17s-1,.05-1.52,0c-.73,0-1.45-.07-2.18-.14a16.79,16.79,0,0,1-2.86-.62,7,7,0,0,1-2.39-1.2,9,9,0,0,1-.71-.59,4.36,4.36,0,0,1-.94-1.42,6.81,6.81,0,0,1-.37-1,1.28,1.28,0,0,1,0-.35c0-.46,0-.91,0-1.37a5.52,5.52,0,0,1,.34-1.85,7.4,7.4,0,0,1,.53-1.23,15.58,15.58,0,0,1,1.44-2.21c.23-.27.48-.52.72-.78,0,0,.07-.09,0-.15-.34-.52-.6-1.09-.93-1.62s-.61-1-.9-1.46A26.27,26.27,0,0,1,10.4,16a26.44,26.44,0,0,1-1.09-2.79,5.56,5.56,0,0,1-.27-1.38c0-.5-.11-1-.12-1.49s0-1.16,0-1.74A7.2,7.2,0,0,1,9.26,6.5c.08-.24.19-.46.29-.69s.12-.13.23-.08a5.66,5.66,0,0,1,.85.51,8.27,8.27,0,0,1,1,.77,9.71,9.71,0,0,1,1,1.21,20.14,20.14,0,0,1,1.69,2.66,22.91,22.91,0,0,1,1.51,3.45,22.19,22.19,0,0,1,.7,2.36c.11.48.16,1,.24,1.46A17,17,0,0,1,17.07,20c0,.09,0,.12.13.1L18,20a9.31,9.31,0,0,1,1.2-.13c.4,0,.8,0,1.19,0A10.63,10.63,0,0,1,22,20c.26,0,.52.09.77.15.09,0,.12,0,.13-.1,0-.92.23-1.82.37-2.73a19.06,19.06,0,0,1,1-3.43,19.6,19.6,0,0,1,1-2.4,20.49,20.49,0,0,1,2.12-3.41,9.12,9.12,0,0,1,.88-1,9.36,9.36,0,0,1,1.32-1,4,4,0,0,1,.6-.34c.14-.06.17-.05.24.08A5.7,5.7,0,0,1,31,7.72,18.11,18.11,0,0,1,31.07,9.7ZM24.42,28.87a1.49,1.49,0,0,0,1.07-.46A1.51,1.51,0,0,0,25,25.94s-.1,0-.1-.07,0-.08.08-.1l.57-.35a.83.83,0,0,0,.41-.88c0-.27-.09-.29-.32-.16l-2.22,1.21a10.07,10.07,0,0,0-1.2.65.45.45,0,0,0-.21.31,2.84,2.84,0,0,0,0,.33,1.12,1.12,0,0,0,0,.32c0,.11.09.14.19.09a2.47,2.47,0,0,0,.58-.36c.05-.05.13-.12.2-.08s0,.13,0,.2A1.52,1.52,0,0,0,24.42,28.87ZM14.11,27.34c0,.09,0,.17,0,.24a1.5,1.5,0,0,0,2,1.18,1.52,1.52,0,0,0,1-1.52,1.4,1.4,0,0,0-.11-.39s0-.06,0-.08,0,0,.07,0a.85.85,0,0,1,.22.12,2.33,2.33,0,0,0,.58.36c.1,0,.16,0,.19-.09a1.07,1.07,0,0,0,0-.27.79.79,0,0,0-.42-.78c-.27-.15-.54-.31-.82-.45-.54-.27-1.06-.57-1.59-.85l-.95-.52c-.05,0-.11-.06-.14,0a.92.92,0,0,0-.07.48,1,1,0,0,0,.57.7l.49.27s.07,0,.06.09,0,.06-.08.07a1.89,1.89,0,0,0-.34.14A1.51,1.51,0,0,0,14.11,27.34ZM20,28.81a5.28,5.28,0,0,0-1,0c-.21,0-.26.15-.14.33a3.09,3.09,0,0,0,.57.59c.25.21.28.21,0,.39-.5.3-.45.29-1,0-.19-.11-.37-.23-.56-.33a.22.22,0,0,0-.33.08c-.09.13-.1.38,0,.45a6.31,6.31,0,0,0,1.11.69.58.58,0,0,0,.6,0c.17-.12.34-.25.51-.38a.33.33,0,0,1,.41,0,5.17,5.17,0,0,0,.61.43.59.59,0,0,0,.61,0c.32-.2.64-.4.95-.61a.36.36,0,0,0,.07-.59.2.2,0,0,0-.28,0l-.27.16a6.48,6.48,0,0,1-.65.38.42.42,0,0,1-.39,0,3,3,0,0,1-.42-.3.07.07,0,0,1,0-.13l.35-.33a2.37,2.37,0,0,0,.38-.4c.12-.18.07-.29-.15-.32A5.87,5.87,0,0,0,20,28.81Z"/><path id="_Path_" data-name="&lt;Path&gt;" d="M25.25,27.44a.8.8,0,1,1-1.61,0,.8.8,0,1,1,1.61,0Z"/><path id="_Path_2" data-name="&lt;Path&gt;" d="M14.74,27.43a.8.8,0,0,1,.87-.79.77.77,0,0,1,.79.81.78.78,0,0,1-.82.8A.84.84,0,0,1,14.74,27.43Z"/></g></svg>