<svg xmlns="http://www.w3.org/2000/svg" class="HeroAbility-icon HeroAbility-icon--hoverState" viewBox="0 0 40 40" preserveAspectRatio="xMidYMid meet"><g id="_Group_2" data-name="&lt;Group&gt;"><g id="_Group_3" data-name="&lt;Group&gt;"><path id="_Path_8" data-name="&lt;Path&gt;" d="M17.7,18.68h0l0,0Z"/><path id="_Path_9" data-name="&lt;Path&gt;" d="M17.82,18.08a1.16,1.16,0,0,0-.11-.43c-.28-.52-.58-1-.89-1.55a.7.7,0,0,0-1-.15,10.81,10.81,0,0,0-.94,2,.93.93,0,0,0,1,1.08l1.33-.14C17.72,18.8,17.87,18.61,17.82,18.08Z"/><path id="_Path_10" data-name="&lt;Path&gt;" d="M11,21.23A6.69,6.69,0,0,0,8.16,23a15.37,15.37,0,0,0-1.41,2,.34.34,0,0,0,.07.49c.2.11.41.38.69.13a9.37,9.37,0,0,1,1.6-1,.48.48,0,0,1,.49,0c.36.17.73.31,1.09.49a.47.47,0,0,0,.57,0,3.61,3.61,0,0,1,.89-.54.63.63,0,0,0,.45-.59,2.9,2.9,0,0,1,.47-1.25,9.35,9.35,0,0,1-1.18-1.72Z"/><path id="_Compound_Path_2" data-name="&lt;Compound Path&gt;" d="M28,19.61a6.72,6.72,0,0,0,.19-4A9.36,9.36,0,0,0,27,13.13c-.24-.34.68-1.28.9-1.68s.1-.72-.25-.83a1.71,1.71,0,0,0-.69,0c-.16,0-1.3.67-1.38.52-.52-.94-4.57-3.54-7.6-3A8.65,8.65,0,0,0,16.8,24.63a6.16,6.16,0,0,0-.91.23l-.26.13c-.22.12-.48.18-.62.44-.27.51-.57,1-.88,1.49a.32.32,0,0,0,.05.46,6.16,6.16,0,0,1,.58.67c.17.23.43.42.41.76-.06,1.1.11,2.2.07,3.31,0,.35.2.42.43.38s.69,0,1-.08a.36.36,0,0,0,.34-.28c.18-.52.39-1,.57-1.54a.37.37,0,0,1,.3-.29,11.32,11.32,0,0,1,4.48,0,.42.42,0,0,1,.32.31c.18.48.38.95.55,1.42.07.21.16.34.41.34a5.7,5.7,0,0,1,.81.07c.54.07.63,0,.63-.55,0-1.09,0-2.18.07-3.27a.7.7,0,0,1,.14-.41c.25-.3.49-.62.76-.9a.28.28,0,0,0,0-.42,7,7,0,0,1-.6-1,2.78,2.78,0,0,0-1.26-1.15,3.06,3.06,0,0,0-1-.27A9.23,9.23,0,0,0,28,19.61Zm-9.69-.44a1.34,1.34,0,0,1-.84.32l-1,.1-.78.08a1.52,1.52,0,0,1-1.28-.5,1.43,1.43,0,0,1-.36-1.26,5.6,5.6,0,0,1,.77-1.73,7.26,7.26,0,0,0,.48-.9l0-.05,0,0a1.09,1.09,0,0,1,.91-.29,1.21,1.21,0,0,1,.89.54c.43.7.83,1.42,1.17,2a1.78,1.78,0,0,1,.18.67A1.22,1.22,0,0,1,18.33,19.17Zm7-7.74a2.17,2.17,0,0,0,1.15,1.73c.1.06.24.08.14.24s-.27.49-.59.45a1.33,1.33,0,0,1-.47-.15,1.92,1.92,0,0,1-.93-1.16C24.38,11.84,24.52,11.66,25.29,11.43Zm-5.11-.89c0-.19,0-.25.18-.25a2.08,2.08,0,0,1,.65.13,8.38,8.38,0,0,1,1.1.62c.12.11.19.22,0,.28a3.89,3.89,0,0,0-1,.64A7.89,7.89,0,0,0,25,16.83a4.55,4.55,0,0,0,.76-.77c.12-.15.2-.11.26,0A4.26,4.26,0,0,1,26.14,18c0,.16-.1.12-.21.09C22.89,17.2,20.12,13.53,20.19,10.54Z"/><path id="_Path_11" data-name="&lt;Path&gt;" d="M33.2,24.8c-.48-.63-.87-1.31-1.41-1.89a5.69,5.69,0,0,0-2-1.38c-.55-.24-1.12-.44-1.69-.64A9.35,9.35,0,0,1,27,22.55a2.49,2.49,0,0,1,.48,1.12.9.9,0,0,0,.67.8c.4.12.67.61,1.09.55a4.06,4.06,0,0,0,1.19-.52.6.6,0,0,1,.63,0,9.57,9.57,0,0,1,1.53,1,.31.31,0,0,0,.36.08C33.37,25.41,33.47,25.15,33.2,24.8Z"/></g></g></svg>