<svg xmlns="http://www.w3.org/2000/svg" class="HeroAbility-icon HeroAbility-icon--hoverState" viewBox="0 0 40 40" preserveAspectRatio="xMidYMid meet"><g id="_Group_7" data-name="&lt;Group&gt;"><path id="_Path_100" data-name="&lt;Path&gt;" d="M29.22,14.26a.66.66,0,0,1,.75.3,1.7,1.7,0,0,1,.27.65,19.61,19.61,0,0,1,.38,3.45,12.93,12.93,0,0,1-.39,3.1c-.13.53-.27,1.05-.45,1.56l-.08.2a.56.56,0,0,1-.6.38c-2,0-4.08,0-6.13,0-.45,0-.47,0-.37-.45A13.82,13.82,0,0,0,22.89,22a14.57,14.57,0,0,0,.09-1.6c0-1.09,0-2.19-.06-3.28,0-.82-.1-1.63-.19-2.44,0-.22,0-.23.21-.24s.45,0,.68,0,.46-.07.7-.09c.67-.05.57,0,.69.49a6.85,6.85,0,0,1,.22,1c0,.19,0,.39,0,.58,0,.35,0,.69.05,1s.13.4.42.4h3.43c.34,0,.34,0,.34-.35,0-.87,0-1.73,0-2.6C29.51,14.6,29.51,14.39,29.22,14.26Z"/><path id="_Path_101" data-name="&lt;Path&gt;" d="M21.2,23.05a.55.55,0,0,0,.5.17.29.29,0,0,1,.29.14,5.39,5.39,0,0,1,.35.53.32.32,0,0,0,.31.19h6.1c.37,0,.36,0,.37.38a7.85,7.85,0,0,1-.31,2.45c-.08.27-.08.28-.36.28H26.9c-.11,0-.23,0-.24.16s-.08.09-.15.09a.27.27,0,0,0-.2.07.49.49,0,0,1-.42.14H24a.46.46,0,0,1-.4-.13.27.27,0,0,0-.22-.08.16.16,0,0,1-.18-.13c0-.13-.11-.12-.2-.12H20.92c-.05,0-.1,0-.1-.08s0-.08.09-.09.21,0,.27-.06,0-.2,0-.31a1.74,1.74,0,0,0,0-.19c0-.07,0-.14-.11-.14s-.18-.15-.18-.28c0-.66,0-1.33,0-2,0-.13,0-.22.17-.23s.15-.11.16-.21S21.18,23.28,21.2,23.05Z"/><path id="_Compound_Path_7" data-name="&lt;Compound Path&gt;" d="M31.58,19.07a11,11,0,0,0-.13-1.91s0-.08,0-.12c0-.24,0-.24.23-.26l.63,0a.29.29,0,0,0,.28-.16,2,2,0,0,1,1-.82,3.78,3.78,0,0,1,1.37-.45,3,3,0,0,1,1.45.2,3.33,3.33,0,0,1,1.09.75c.14.14.26.23.46.15a.26.26,0,0,1,.34.11c.23.29.47.58.71.86.09.11.07.18,0,.27-.31.29-.59.62-.89.93-.59.62-1.17,1.25-1.76,1.88-.35.37-.25.36-.78.24s-1.16-.21-1.75-.29l-1.9-.3c-.24,0-.27-.08-.27-.32S31.58,19.31,31.58,19.07ZM35,19a1.46,1.46,0,0,0,1.28-.69,1.83,1.83,0,0,0,.21-.46,1.12,1.12,0,0,0-.21-1.13,2.34,2.34,0,0,0-.56-.38,1.31,1.31,0,0,0-1.62.19,1.36,1.36,0,0,0-.24.33,1.51,1.51,0,0,0-.24.82A1.43,1.43,0,0,0,35,19Z"/><path id="_Path_102" data-name="&lt;Path&gt;" d="M15.19,21H9.4c-.14,0-.21-.07-.22-.2a5.21,5.21,0,0,1-.07-.94c0-.18,0-.2.22-.21H21a.14.14,0,0,1,.16.16q0,.51,0,1c0,.15-.09.16-.21.16H15.19Z"/><path id="_Path_103" data-name="&lt;Path&gt;" d="M15.1,18H9.37C9,18,9,18,9.06,17.63a3.76,3.76,0,0,1,.13-.57c.06-.2.09-.22.29-.22h11.3c.39,0,.39,0,.39.38,0,.19,0,.37,0,.56s0,.21-.21.22H15.1Z"/><path id="_Compound_Path_8" data-name="&lt;Compound Path&gt;" d="M14.68,19.22H8.63a2.75,2.75,0,0,1-1-.12,3.91,3.91,0,0,0-1.48-.16H5.63c-.08,0-.15,0-.15-.12a.14.14,0,0,1,.14-.16H6.93a.7.7,0,0,0,.33-.07,1.21,1.21,0,0,1,.54-.12H20.93c.22,0,.24,0,.24.24,0,.62.06.53-.5.53ZM8,18.88a.22.22,0,0,0-.21-.23c-.09,0-.18,0-.18.15s.12.2.23.21S8,19,8,18.88Z"/><path id="_Path_104" data-name="&lt;Path&gt;" d="M6.75,23.64a2.43,2.43,0,0,1-.94-.09,1.45,1.45,0,0,1-.39-.28,3.57,3.57,0,0,1-.88-1.46A9.15,9.15,0,0,1,4,18.43,7.92,7.92,0,0,1,4.54,16a4.21,4.21,0,0,1,.31-.73,1.54,1.54,0,0,1,.69-.65,1.55,1.55,0,0,1,.63,0,4.07,4.07,0,0,0-.88,2.15A14.45,14.45,0,0,0,5,19.15a8.86,8.86,0,0,0,.61,3.2,2.3,2.3,0,0,0,1,1.16C6.64,23.55,6.72,23.55,6.75,23.64Z"/><path id="_Path_105" data-name="&lt;Path&gt;" d="M8.29,21.81a1.3,1.3,0,0,1,.78-.16h8.31a12.48,12.48,0,0,1,2.08.1,1.4,1.4,0,0,0,.5-.06l1-.2c.21,0,.24,0,.25.2,0,0,0,.06,0,.1s0,.2-.19.22a7.33,7.33,0,0,0-1,.12,3.15,3.15,0,0,1-1,.08c-.51,0-1,0-1.53,0H8.94a3.53,3.53,0,0,0-1.22.14.83.83,0,0,1-.27,0H6.22c-.07,0-.13,0-.12-.12s.09-.06.14-.06h1A1,1,0,0,0,8,22s.13-.1.17,0a.12.12,0,0,0,.15.1A.2.2,0,0,0,8.43,22C8.46,21.89,8.38,21.86,8.29,21.81Z"/><path id="_Compound_Path_9" data-name="&lt;Compound Path&gt;" d="M29.15,17.12c.07-.15.21-.27.07-.42a.22.22,0,0,0-.27,0c-.12.06-.14.21-.06.44-.14,0-.17,0-.18-.15s0-.44,0-.66c0-.61,0-.54-.54-.54s-1.18,0-1.77,0c-.16,0-.22,0-.23.24s0,.58,0,.87,0,.28-.29.28-.43,0-.43-.42.05-.74.07-1.11,0-.56,0-.85,0-.28.28-.28h3.08c.32,0,.41.08.41.4q0,1,0,2C29.34,17,29.37,17.13,29.15,17.12ZM26,16.82a.2.2,0,0,0-.4,0,.23.23,0,0,0,.22.19A.19.19,0,0,0,26,16.82Z"/><path id="_Path_106" data-name="&lt;Path&gt;" d="M8.24,16c.24-.09.24-.09.17-.33H19.56a.81.81,0,0,1,.24,0,8.19,8.19,0,0,0,1.17.21.24.24,0,0,1,.17.36.12.12,0,0,1-.14.06A8.12,8.12,0,0,1,19.29,16a.33.33,0,0,0-.19,0l-.17,0a4.48,4.48,0,0,1-1.68.2H9.06a3.22,3.22,0,0,1-.55-.05A.46.46,0,0,1,8.24,16Z"/><path id="_Path_107" data-name="&lt;Path&gt;" d="M21.09,21.27c-.44.09-.88.2-1.33.28a4.06,4.06,0,0,1-1-.05c-.31,0-.61,0-.92,0H9.25c-.24,0-.47,0-.7.05a.67.67,0,0,0-.33.14,1.54,1.54,0,0,1-1,.31c-.3,0-.6,0-.9,0s-.28,0-.21-.29c.12-.48.13-.48.62-.48h14A.7.7,0,0,1,21.09,21.27Z"/><path id="_Path_108" data-name="&lt;Path&gt;" d="M13.7,16.65h-7c-.39,0-.39,0-.5-.38,0-.1-.06-.2-.08-.3a.1.1,0,0,1,.1-.13H7.53a.45.45,0,0,1,.35.13,3,3,0,0,0,.24.2,1.06,1.06,0,0,0,.7.25h8.39a4.9,4.9,0,0,0,1.7-.21.44.44,0,0,1,.26,0c.59.16,1.19.22,1.79.32.06,0,.18,0,.17.08s-.12.06-.18.06H13.7Z"/><path id="_Path_109" data-name="&lt;Path&gt;" d="M7.16,14.77C7,14.84,7,15,7,15.12s0,.25-.23.25H6.21a.34.34,0,0,0-.37.43,4.47,4.47,0,0,0,.2.7.88.88,0,0,1,0,.7,1.54,1.54,0,0,0-.12.62.27.27,0,0,1-.11.23l-.33.28a.43.43,0,0,0-.18.38,1.75,1.75,0,0,1,0,.24.42.42,0,0,0,.2.41l.16.12A.61.61,0,0,1,6,20a2.21,2.21,0,0,0,.12.72.56.56,0,0,1,0,.42,4.56,4.56,0,0,0-.24.74.76.76,0,0,0,.22.61s.1,0,.16,0H6.5a.84.84,0,0,1,.53.14.21.21,0,0,1,.13.23c0,.09,0,.18,0,.26s0,.26.15.35a.41.41,0,0,1-.33,0,1.86,1.86,0,0,1-1-.92A7.25,7.25,0,0,1,5.28,20a11.94,11.94,0,0,1,0-2,12.88,12.88,0,0,1,.32-2,2.81,2.81,0,0,1,.36-.9,1.59,1.59,0,0,1,.41-.44C6.68,14.51,6.83,14.52,7.16,14.77Z"/><path id="_Path_110" data-name="&lt;Path&gt;" d="M3.35,19.9H1.8a.57.57,0,0,1-.53-.31A1.43,1.43,0,0,1,1,18.76a1.29,1.29,0,0,1,.19-.59.47.47,0,0,1,.4-.24,14.36,14.36,0,0,1,1.53-.05l.13,0A1.64,1.64,0,0,0,3.35,19.9Z"/><path id="_Path_111" data-name="&lt;Path&gt;" d="M22.52,14.59a4,4,0,0,1,.11.75c.11,1.19.16,2.37.16,3.57,0,.44,0,.89,0,1.33A14.11,14.11,0,0,1,22.54,23c0,.19-.09.37-.14.56-.21-.12-.31-.28-.26-.46a10.91,10.91,0,0,0,.2-2.24c0-.94.05-1.88,0-2.82,0-.69-.08-1.37-.12-2.06,0-.19,0-.37,0-.56A1,1,0,0,1,22.52,14.59Z"/><path id="_Path_112" data-name="&lt;Path&gt;" d="M21.1,15.47H8.9a4.36,4.36,0,0,1-.79-.08,4.81,4.81,0,0,0-.7,0A.24.24,0,0,1,7.19,15,.11.11,0,0,1,7.28,15a2.43,2.43,0,0,1,.36-.05h.71a.76.76,0,0,1,.5.15,1.05,1.05,0,0,0,.66.2h8.68a3,3,0,0,0,.58-.06,2.12,2.12,0,0,1,.86,0,5.7,5.7,0,0,0,1.31.2A.28.28,0,0,1,21.1,15.47Z"/><path id="_Path_113" data-name="&lt;Path&gt;" d="M7.51,19.66H8.68c.21,0,.23,0,.24.24a7.08,7.08,0,0,0,.08.82C9,21,9,21,8.76,21H6.59a.27.27,0,0,1-.29-.19,4.2,4.2,0,0,1-.19-1c0-.15.1-.16.21-.16Z"/><path id="_Path_114" data-name="&lt;Path&gt;" d="M3.7,20.2a1.87,1.87,0,0,0,0,1.8.33.33,0,0,1-.25,0H2.15a.37.37,0,0,1-.36-.2,1.6,1.6,0,0,1-.23-.58,1.2,1.2,0,0,1,.32-1,.27.27,0,0,1,.21-.1H3.65Z"/><path id="_Path_115" data-name="&lt;Path&gt;" d="M2.82,17.71h-.7a.33.33,0,0,1-.32-.18,1.32,1.32,0,0,1-.21-1.15c.12-.38.3-.53.66-.51s.76,0,1.14,0c.22,0,.24,0,.17.22a1.83,1.83,0,0,0,.1,1.41c.09.19.09.19-.13.2Z"/><path id="_Path_116" data-name="&lt;Path&gt;" d="M20.43,22.77a4.76,4.76,0,0,0-.89.23,1.34,1.34,0,0,1-.76,0A4.35,4.35,0,0,0,18,23H9.7a.88.88,0,0,0-.52.15,1.23,1.23,0,0,1-.84.24,4.44,4.44,0,0,0-.78,0c-.21,0-.27-.06-.25-.27,0,0,0-.1,0-.15a.17.17,0,0,1,.19-.17H20.43Z"/><path id="_Path_117" data-name="&lt;Path&gt;" d="M7.72,16.84H8.78c.26,0,.27,0,.21.26a3.51,3.51,0,0,0-.14.74c0,.13-.08.16-.19.16H6.39c-.27,0-.31-.05-.26-.32A4.25,4.25,0,0,1,6.31,17a.24.24,0,0,1,.27-.18H7.72Z"/><path id="_Path_118" data-name="&lt;Path&gt;" d="M21.34,19.06q0-1.81,0-3.62c0-.11,0-.23.11-.3s.15,0,.16.07,0,.29,0,.44c0,.75.07,1.5.09,2.26,0,1,0,2,0,3.06,0,.21,0,.42,0,.63,0,.41-.06.82-.06,1.24a.3.3,0,0,1,0,.14.12.12,0,0,1-.22,0,.41.41,0,0,1-.06-.26q0-1.53,0-3.06,0-.3,0-.61Z"/><path id="_Path_119" data-name="&lt;Path&gt;" d="M9.76,22.39c.07-.06.16,0,.23,0h7.32c.64,0,1.28,0,1.91.07a1.52,1.52,0,0,0,.41-.06A5.91,5.91,0,0,1,21,22.19c.11,0,.21,0,.22.16s0,.22-.2.23H10.2c-.15,0-.31,0-.42-.13A.3.3,0,0,1,9.76,22.39Z"/><path id="_Path_120" data-name="&lt;Path&gt;" d="M27.43,15.93h.87c.2,0,.22,0,.22.2s0,.53,0,.8-.06.2-.2.2H26.55c-.18,0-.2,0-.2-.22s0-.52,0-.78,0-.21.21-.21h.87Z"/><path id="_Path_121" data-name="&lt;Path&gt;" d="M19.11,23.38a.77.77,0,0,1,0,.29c0,.19,0,.22.21.27a.59.59,0,0,0,.24,0l.41,0c.15,0,.19,0,.19.17q0,1,0,2c0,.19,0,.2-.22.21h-.56a.37.37,0,0,0-.25.06.16.16,0,0,1,0,0c0-.88-.09-1.76-.06-2.64A.76.76,0,0,1,19.11,23.38Z"/><path id="_Path_122" data-name="&lt;Path&gt;" d="M22.19,19.66c0,1.05-.06,2-.16,3A.89.89,0,0,1,22,23s0,.08-.09.05a.07.07,0,0,1,0-.08c0-.14,0-.27,0-.41.08-1.12.05-2.25.09-3.37,0-.93-.08-1.86-.08-2.79,0-.33,0-.66,0-1,0,0,0-.1,0-.15s0-.1.07-.11.1,0,.11.11a3.86,3.86,0,0,1,0,.6c0,.63.06,1.26.11,1.89S22.18,19.06,22.19,19.66Z"/><path id="_Path_123" data-name="&lt;Path&gt;" d="M5.54,19.13h.72a3.39,3.39,0,0,1,1.27.14,2.77,2.77,0,0,0,1,.12H21c.05,0,.14,0,.14.06s-.1.06-.16.05l-.34,0H6.31A.9.9,0,0,1,5.54,19.13Z"/><path id="_Path_124" data-name="&lt;Path&gt;" d="M30.48,22.64c.08-.31.14-.58.22-.85a16.21,16.21,0,0,0,.5-3,2.6,2.6,0,0,0,0-.58c-.07-.48,0-1-.15-1.45l-.23-1h0a2,2,0,0,1,.36.76c0,.39.11.79.16,1.18a4.31,4.31,0,0,1,0,.44c0,.62,0,1.25,0,1.87a5.58,5.58,0,0,1-.23,1.46,1.91,1.91,0,0,1-.28.64A4.3,4.3,0,0,1,30.48,22.64Z"/><path id="_Path_125" data-name="&lt;Path&gt;" d="M5.71,18.41a.46.46,0,0,1,.44-.25H20.73a.84.84,0,0,1,.39,0,.48.48,0,0,1-.27,0H8.33a3.72,3.72,0,0,0-1.24.17.61.61,0,0,1-.19,0h-1A.22.22,0,0,1,5.71,18.41Z"/><path id="_Path_126" data-name="&lt;Path&gt;" d="M30.09,23.39a4.17,4.17,0,0,1,.06.8,6.24,6.24,0,0,1-.29,1.95,1.11,1.11,0,0,1-.37.51,2.82,2.82,0,0,1,.06-.51c.06-.68.13-1.37.15-2.06A1.15,1.15,0,0,1,30.09,23.39Z"/><path id="_Path_127" data-name="&lt;Path&gt;" d="M30.08,22.94a13.82,13.82,0,0,0,.41-7.32.39.39,0,0,1,.12.24,12.14,12.14,0,0,1,.35,2,10.22,10.22,0,0,1-.3,3.39,10.8,10.8,0,0,1-.37,1.41l-.14.33Z"/><path id="_Path_128" data-name="&lt;Path&gt;" d="M3.86,18.24a5.25,5.25,0,0,0,0,1.34,1,1,0,0,1,0,.19c0,.12-.09.16-.18.09a1,1,0,0,1-.47-.59,1.47,1.47,0,0,1,.14-1.12.45.45,0,0,1,.35-.27c.14,0,.17,0,.17.16S3.86,18.16,3.86,18.24Z"/><path id="_Path_129" data-name="&lt;Path&gt;" d="M20.58,23c.16,0,.33-.06.41.07a.7.7,0,0,1,0,.52c0,.07-.08.07-.14.08l-1.25.14c-.19,0-.24,0-.25-.23s0-.3.26-.38S20,23,20.24,23A2.55,2.55,0,0,1,20.58,23Z"/><path id="_Path_130" data-name="&lt;Path&gt;" d="M4.69,22.85a8.16,8.16,0,0,1-.82,0H3.28a.39.39,0,0,1-.39-.24c0-.07-.09-.14-.12-.21s0-.18.11-.18h1a2,2,0,0,0,.36,0,.21.21,0,0,1,.26.16C4.53,22.54,4.61,22.68,4.69,22.85Z"/><path id="_Path_131" data-name="&lt;Path&gt;" d="M35.48,20.88a.27.27,0,0,1-.18,0,4.84,4.84,0,0,0-.82,0,2,2,0,0,1-.76-.11c-.67-.13-1.34-.28-2-.42,0,0-.1,0-.13,0a.1.1,0,0,1,0-.09.06.06,0,0,1,.07,0l.22,0,1.77.29,1.51.23A1.24,1.24,0,0,1,35.48,20.88Z"/><path id="_Path_132" data-name="&lt;Path&gt;" d="M27.45,17.33h1.63c.09,0,.24,0,.25.12s-.14.12-.24.12H25.81a.38.38,0,0,1-.21,0,.13.13,0,0,1-.07-.12c0-.06.05-.08.1-.08h1.82Z"/><path id="_Path_133" data-name="&lt;Path&gt;" d="M3.63,21a1.34,1.34,0,0,1,.17-.65s.05-.12.12-.1.06.07.07.12c.07.33.13.67.24,1l.15.49c0,.09,0,.15-.09.15-.32,0-.41,0-.55-.31A1.61,1.61,0,0,1,3.63,21Z"/><path id="_Path_134" data-name="&lt;Path&gt;" d="M3.89,17.53a.86.86,0,0,1-.21-.42,1.62,1.62,0,0,1,0-1,.44.44,0,0,1,.57-.24.08.08,0,0,1,0,.1l0,.14A9.69,9.69,0,0,0,4,17.3C4,17.38,4,17.46,3.89,17.53Z"/><path id="_Path_135" data-name="&lt;Path&gt;" d="M20.64,25.08c0,.3,0,.6,0,.9a1.46,1.46,0,0,1,0,.19c0,.08-.07.1-.14.1s-.09,0-.1-.11,0-.22,0-.34c0-.57,0-1.13,0-1.7,0,0,0-.08,0-.12s0-.14.13-.14.14.06.15.15,0,.15,0,.22Q20.64,24.65,20.64,25.08Z"/><path id="_Path_136" data-name="&lt;Path&gt;" d="M28.81,14.26a2,2,0,0,0-1.07-.14H25.82a.44.44,0,0,0-.42.48,3,3,0,0,1,0,.68,3.08,3.08,0,0,1-.23-.9.37.37,0,0,1,.33-.36h2.87A.57.57,0,0,1,28.81,14.26Z"/><path id="_Path_137" data-name="&lt;Path&gt;" d="M28.92,27.17c.07-.32.14-.61.2-.89a6.84,6.84,0,0,0,.18-1.78c0-.1,0-.19,0-.29s0-.1.09-.1a.11.11,0,0,1,.11.08.3.3,0,0,1,0,.12c-.07.78-.09,1.57-.23,2.34A.8.8,0,0,1,28.92,27.17Z"/><path id="_Path_138" data-name="&lt;Path&gt;" d="M22.42,14.28a.19.19,0,0,1,0-.13c.08-.43.14-.47.55-.39l.71.14.09,0c.08,0,.19.07.18.17s-.13.07-.2.07A13.1,13.1,0,0,0,22.42,14.28Z"/><path id="_Path_139" data-name="&lt;Path&gt;" d="M20.16,26.85H19.6c-.15,0-.2-.07-.2-.21s.08-.16.19-.16h1.17c.09,0,.18,0,.17.14s0,.23-.17.23h-.61Z"/><path id="_Path_140" data-name="&lt;Path&gt;" d="M2.83,15.68a.35.35,0,0,1,.37-.29H4.33c.07,0,.16,0,.17.08a.22.22,0,0,1-.16.23H3A.35.35,0,0,1,2.83,15.68Z"/><path id="_Path_141" data-name="&lt;Path&gt;" d="M7.47,22.58A2.3,2.3,0,0,0,8,22.42a1,1,0,0,1,.4-.07h.88a.25.25,0,0,1,.19,0s.09.08.07.14-.08,0-.12,0Z"/><path id="_Path_142" data-name="&lt;Path&gt;" d="M8.23,15.64a.45.45,0,0,0-.13.22H8a.62.62,0,0,0-.59-.19H6.36a.38.38,0,0,1-.24,0c0-.09.08-.09.15-.09H8A.47.47,0,0,1,8.23,15.64Z"/><path id="_Path_143" data-name="&lt;Path&gt;" d="M19.39,27.07a2.3,2.3,0,0,1,.81,0,.07.07,0,0,1,.07.08.06.06,0,0,1-.05.07,2,2,0,0,1-.76,0S19.43,27.12,19.39,27.07Z"/><path id="_Path_144" data-name="&lt;Path&gt;" d="M32.62,16.17c-.2.38-.3.43-.69.39A3.15,3.15,0,0,1,32.62,16.17Z"/><path id="_Path_145" data-name="&lt;Path&gt;" d="M21.11,15.67a1.17,1.17,0,0,1-.65,0A2.07,2.07,0,0,1,21.11,15.67Z"/><path id="_Path_146" data-name="&lt;Path&gt;" d="M20.61,27.13a.06.06,0,0,1-.06.06c-.06,0-.08,0-.08-.09a.06.06,0,0,1,.06-.06C20.59,27,20.6,27.08,20.61,27.13Z"/><path id="_Path_147" data-name="&lt;Path&gt;" d="M35.06,18.63a1.18,1.18,0,0,1-1.14-1.35,1.11,1.11,0,0,1,1.46-.89,1.22,1.22,0,0,1,.85.63.89.89,0,0,1,.06.43,1.33,1.33,0,0,1-1,1.16A1.35,1.35,0,0,1,35.06,18.63Z"/></g></svg>