<svg xmlns="http://www.w3.org/2000/svg" class="HeroAbility-icon HeroAbility-icon--hoverState" viewBox="0 0 40 40" preserveAspectRatio="xMidYMid meet"><path d="M28.31,24.16l-.06,0h-.07l-1,.15-1.51.24,1.48.39c2,.52,2.66,1.12,2.66,1.51,0,1-3.81,2.31-10,2.31s-10-1.35-10-2.31c0-.38.66-1,2.53-1.48l1.24-.34-1.25-.29-.59-.14-.32-.08-.08,0c-1.84.48-4,1.34-4,2.73,0,2.38,6.45,3.66,12.51,3.66s12.51-1.28,12.51-3.66C32.32,25.5,30.14,24.64,28.31,24.16Z"/><path d="M16.6,14.84c0,.18-.09.37-.12.55l-.06.27,0,.16.16,0,.7.1a8.76,8.76,0,0,1,.92.15c0,.28,0,.8,0,.94v.1l.1,0c.15,0,1,.52,1.48.81l.08,0,.08,0s1.31-.71,1.51-.81l.08,0v-.09c0-.14,0-.67,0-1l1.62-.24.17,0,0-.17c-.06-.28-.12-.56-.18-.84l.71-1c.29-.4.57-.79.87-1.18l.07-.09-.06-.09c-.38-.63-.67-1.15-.91-1.64l-.11-.23-.19-.39-.1-.11,0,0a7.47,7.47,0,0,0-2.85-1.16h0l-.54,0c-1.44.06-3.24.14-3.94,1.68-.33.72-.59,1.49-.83,2.17l0,.08.05.07C15.77,13.65,16.2,14.26,16.6,14.84ZM23,12.78a1.76,1.76,0,0,1-.2.46,2,2,0,0,1-.39.38,3,3,0,0,0-.32.29,3.06,3.06,0,0,0-.56,0,1.74,1.74,0,0,1-.56,0s-.06,0-.09-.08l.23-.07a2.53,2.53,0,0,0,.65-.5l.24-.21.2-.17.22-.19.1-.09a1.46,1.46,0,0,1,.28-.21,1.3,1.3,0,0,1,.38-.07A2.7,2.7,0,0,0,23,12.78Zm-3.3,2.32c.07-.11.14-.23.2-.36L20,15a3.74,3.74,0,0,1,.28.52l-.19.15a1.6,1.6,0,0,1-.27.19,3.85,3.85,0,0,0-.41-.31l0,0A2.92,2.92,0,0,1,19.67,15.11Zm-1.92-2,.38.3a4.48,4.48,0,0,1,.46.38l0,0h.06l.23,0,0,0,0,.05a2.9,2.9,0,0,0-.63,0,1.47,1.47,0,0,1-.53,0,3.49,3.49,0,0,1-.73-.69,2.11,2.11,0,0,1-.24-.56,3.55,3.55,0,0,0-.13-.35l.34.08a1.83,1.83,0,0,1,.53.41Z"/><path class="cls-1" d="M16.8,26.55l.29.15-.26-.18Z"/><path class="cls-1" d="M22.55,26.74l.26-.19,0,0-.24.21Z"/><path d="M32.65,14.77l0-.08-.07-.16a.47.47,0,0,0-.1-.13l0-.06a1.26,1.26,0,0,1,0-.14l-.13-.43a.54.54,0,0,0-.08-.17.43.43,0,0,0-.08-.51l0,0-.14-.14-.16-.15-.1-.1-.11-.11-.06-.07v0a.56.56,0,0,0-.17-.32l-.68-.67a.4.4,0,0,0-.18-.1h0a.51.51,0,0,0-.58.16l-.1.09a.4.4,0,0,0-.37.12l-.39.4-.28.07-.15,0-.06,0-.14,0-.05.11a.35.35,0,0,0-.06.13l-.08.28,0,.17a.39.39,0,0,0-.14.1l-.78.78L27,14c-.28.27-.56.54-.83.82l-.33.33.92-1.71-.9.42-.24.11-.23.12-.23.12-.23.13-.2.14a.65.65,0,0,0-.17.22.44.44,0,0,0,0,.41h0a.45.45,0,0,0-.32.35l-.07.09v.16a.51.51,0,0,0,0,.11v0a.37.37,0,0,0,.13.2.38.38,0,0,0,.24.08h.08a.69.69,0,0,0,.23-.08.57.57,0,0,0,.17-.15.63.63,0,0,0,.09-.16l0-.12a.41.41,0,0,0,0-.12l.18.09L25,16l-.48.47-.18.16-.21.19-.13.12h0a.36.36,0,0,0-.14-.28.36.36,0,0,0-.43,0l-.14.12-.46.46-.16.16-.17.17,0,0-.12.11c-.17.19-.35.37-.54.55l-.12.12-.22.19a1.14,1.14,0,0,0-.33.45l-.18.42,0,0a4.87,4.87,0,0,0-.22.67.38.38,0,0,0,0,.1l0,.3.19,0v.05a.44.44,0,0,0,.06.18l-.2,0h-.35A.51.51,0,0,0,20,21l-.21.28h0L19.59,21a.51.51,0,0,0-.4-.23h-.36l-.2,0a.44.44,0,0,0,.06-.18v0l.18-.05v-.38a4.93,4.93,0,0,0-.22-.67l0,0L18.45,19a1.16,1.16,0,0,0-.36-.46l-.2-.18-.12-.12c-.18-.18-.36-.36-.54-.55l-.12-.11,0,0-.17-.18-.16-.16-.46-.46-.14-.12a.36.36,0,0,0-.43,0,.35.35,0,0,0-.14.27h0l-.13-.12-.21-.19-.17-.16L14.58,16l-.46-.46-.72-.71c-.27-.27-.55-.55-.83-.82l-.16-.16-.77-.77a.42.42,0,0,0-.14-.11l0-.17-.08-.25h0v0a.37.37,0,0,0-.06-.13l-.06-.1-.12,0-.08,0-.16,0-.28-.07-.39-.4a.4.4,0,0,0-.37-.12l-.1-.09a.51.51,0,0,0-.57-.17.41.41,0,0,0-.22.12l-.67.67a.56.56,0,0,0-.17.32v0L8,12.55l-.11.11-.1.1-.16.15L7.54,13l0,0a.43.43,0,0,0-.08.51.54.54,0,0,0-.08.17l-.13.43a1.25,1.25,0,0,1,0,.15l0,.06a.47.47,0,0,0-.1.13L7,14.68l0,.08a.54.54,0,0,0,0,.23,2,2,0,0,0,0,.29,1.36,1.36,0,0,1,0,.17v.07a.59.59,0,0,0,.18.41l.45.45.09.09.13.11a.39.39,0,0,0,.5,0l.06,0,0,0,0,0,.06.07L9.85,18l.39.39.07.06a.78.78,0,0,0,.15.16l0,0a.37.37,0,0,0,.2.08h0l.17,0H11l0,0,.32.33c.17.17.35.34.51.52s.27.28.4.41l.18.18a.49.49,0,0,0,.18.13l.06.05,0,0a.52.52,0,0,0,.15.24l.2.2a.4.4,0,0,0,.11.2l.11.11.17.18,0,.05.07.09.06.08.14.2.1.14L14,22l0,.07a1.18,1.18,0,0,0,.13.17l.17.17.34.35.71.72.37.37a.36.36,0,0,0,.38.1h0a1.06,1.06,0,0,0,.2-.07v0a.83.83,0,0,0,0,.43,1.64,1.64,0,0,0,.08.22l0,0a7.66,7.66,0,0,1,.36.9,1,1,0,0,1,0,.12v.09c0,.06,0,.13,0,.19a.86.86,0,0,1,0,.25v.05a1.43,1.43,0,0,1-.13.28h0a.42.42,0,0,0-.15.15.37.37,0,0,0-.11.36,1.23,1.23,0,0,0,.1.34.4.4,0,0,0,.24.21l.32.1h.12a.82.82,0,0,0,.22,0,1.38,1.38,0,0,0,.42-.19l.19-.12.17-.08.1,0a1.16,1.16,0,0,0,.42-.28L19,26.8a.57.57,0,0,0,.16-.28.38.38,0,0,0-.08-.34l0,0,0,0c0-.08,0-.16,0-.24s0-.16,0-.24v-.23c0-.14,0-.27,0-.41v-.09c0-.08,0-.15,0-.23v-.07a2.43,2.43,0,0,1,0-.35.5.5,0,0,0,0-.09c0-.24,0-.5-.05-.82a.92.92,0,0,0,0-.15,1.86,1.86,0,0,0,0-.2c0-.08,0-.15,0-.24l0-.08.08-.14a.43.43,0,0,0,0-.43A.86.86,0,0,0,19,22h.13l.1,0,.1,0a.39.39,0,0,0,.45-.06l0,0,0,0,0,0h0l0,0,0,0a.39.39,0,0,0,.44.06l.1,0,.09,0h.13a.85.85,0,0,0-.13.18.43.43,0,0,0,0,.43l.08.14,0,.08c0,.08,0,.16,0,.24a1.81,1.81,0,0,0,0,.19,1,1,0,0,0,0,.16q0,.45,0,.78a.55.55,0,0,0,0,.11,2.43,2.43,0,0,1,0,.36v.07c0,.08,0,.15,0,.23V25c0,.14,0,.27,0,.41v.23c0,.08,0,.16,0,.24s0,.16,0,.22l0,.05,0,0a.38.38,0,0,0-.08.35.6.6,0,0,0,.18.3l.12.1a1.17,1.17,0,0,0,.42.28l.1,0,.17.08.2.12a1.44,1.44,0,0,0,.44.19.78.78,0,0,0,.2,0h.15l.29-.1a.4.4,0,0,0,.24-.21,1.26,1.26,0,0,0,.1-.35.36.36,0,0,0-.11-.35.41.41,0,0,0-.15-.15h0a1.18,1.18,0,0,1-.13-.28v-.05a.86.86,0,0,1,0-.25c0-.06,0-.13,0-.19v-.09a1,1,0,0,1,0-.12,7.65,7.65,0,0,1,.36-.9l0,0a1.63,1.63,0,0,0,.08-.22.84.84,0,0,0,0-.43v0l.2.07h0a.36.36,0,0,0,.37-.1l.38-.38.71-.72.34-.35.17-.18a1.18,1.18,0,0,0,.13-.17l0-.07.12-.17.1-.14.14-.2.05-.08.07-.09,0-.05.17-.18.11-.11a.4.4,0,0,0,.11-.2l.2-.2a.52.52,0,0,0,.15-.24l0,0L27,20.3a.5.5,0,0,0,.18-.13l.18-.17c.14-.13.28-.27.41-.41s.34-.35.51-.52l.33-.33,0,0h.12l.17,0h0a.38.38,0,0,0,.21-.09l0,0a.76.76,0,0,0,.15-.16l.08-.07.39-.39,1.32-1.32.06-.08,0,0,0,0,.09.06a.38.38,0,0,0,.49,0l.12-.1.09-.09.45-.45a.59.59,0,0,0,.18-.4v-.07a1.38,1.38,0,0,1,0-.17,2,2,0,0,0,0-.29A.53.53,0,0,0,32.65,14.77ZM16.4,22.88a.18.18,0,0,0-.07-.11l-.1-.1a.09.09,0,0,0-.12,0s-.08,0-.08.09,0,0,0,0,0,0,0,0a.32.32,0,0,0-.12-.17,1.59,1.59,0,0,1-.29-.39s0,0-.05-.09A.29.29,0,0,1,15.7,22l.06,0,.5-.17a.12.12,0,0,1,.14,0l.28.25.11.11a0,0,0,0,1,0,.05s0,.08,0,.12a.28.28,0,0,1-.2.19l-.15,0h0s0,0,0,0,0,0,0,0a.35.35,0,0,0,.19,0,.66.66,0,0,0,.29-.09.1.1,0,0,1,0,0C16.75,22.76,16.57,22.82,16.4,22.88Zm.41,3.66,0,0,.26.18Zm6,0,0,0-.26.19h0ZM24,22.19a1.59,1.59,0,0,1-.29.39.32.32,0,0,0-.12.17s0,0,0,0,0,0,0,0,0-.07-.08-.09a.09.09,0,0,0-.12,0l-.1.1a.18.18,0,0,0-.07.11c-.18-.07-.35-.12-.52-.2a.1.1,0,0,1,0,0,.66.66,0,0,0,.29.09.35.35,0,0,0,.19,0s0,0,0,0,0,0,0,0h0l-.15,0a.28.28,0,0,1-.2-.19s0-.08,0-.12a0,0,0,0,1,0-.05l.11-.11.28-.25a.12.12,0,0,1,.14,0l.5.17.06,0a.29.29,0,0,1,.19.08S24.06,22.16,24,22.19Z"/><path d="M14.31,15.16a.56.56,0,0,0,.15.09l.05,0,.06.06h.24l.11,0a.36.36,0,0,0,.14-.11l.07-.09V15a.46.46,0,0,0,0-.24.45.45,0,0,0-.14-.18l-.15-.08-.13,0H14.6l-.14,0-.12.05a.42.42,0,0,0-.12.12l-.08.14,0,.13A.42.42,0,0,0,14.31,15.16Z"/><path d="M12.9,13.92a.8.8,0,0,0,.16.17,1,1,0,0,0,.19.12l.21.08.12,0,.15-.05.07,0a.43.43,0,0,0,.19-.12.35.35,0,0,0,0-.49l-.15-.13-.16-.12-.17-.1-.18-.09-.17,0a.37.37,0,0,0-.27.11.4.4,0,0,0-.1.17.5.5,0,0,0,0,.15.49.49,0,0,0,0,.15A.76.76,0,0,0,12.9,13.92Z"/></svg>