<svg xmlns="http://www.w3.org/2000/svg" class="HeroAbility-icon HeroAbility-icon--hoverState" viewBox="0 0 40 40" preserveAspectRatio="xMidYMid meet"><polygon points="6.38 27.78 6.48 25.68 5.84 24.52 6.83 20.25 6.08 19.49 7.57 13.8 8.53 12.96 8.8 12.22 9.83 11.53 9.17 13.32 8.26 14.11 6.86 19.49 7.56 20.2 6.63 24.23 7.23 25.32 7.12 28.23 6.38 27.78" fill-rule="evenodd"/><polygon points="8.5 30.83 8.72 26.08 8.05 24.89 9.08 20.46 8.3 19.68 9.85 13.78 10.85 12.91 12.21 9.2 14.11 8.29 12.18 13.55 11.25 14.36 9.81 19.84 10.54 20.57 9.58 24.68 10.2 25.79 9.97 31.68 8.5 30.83" fill-rule="evenodd"/><path d="M24.2,18.37l-1.08,4-1.18,4-1.21,1.38L17.4,33.17a4.45,4.45,0,0,1-2.34,1,6.07,6.07,0,0,1-3.59-1.49l.28-6.19-.66-1.2,1-4.43-.78-.79,1.55-5.91,1-.87L16.6,5.9s5.17-.47,7,.54a6,6,0,0,1,2.61,3.89l-.65,3.13-.9,3.3L24,16.59l-.18-.33.15-.12.1-.43-.47-.78.15-.64-.1-3-.53-1.13-.72-.28-.42.35-.12,1.18.37.18L22,14l-.41.65-1,.66-.17.43.07.15-.39.29-2,.05-.19.14-.11-.54-.92.42-.37,1.19.58.6.41-.29,2.25.18,0,.39-.27.39-.19.59.56.9H20l0,.63-1.14,2.44-.48.18-.54,1.18.22.35.87-.28,1.17-1.13,1.81-3,.11-.34.71-.47.19-.59,0-.42.27-.36,0-.05Z" fill-rule="evenodd"/><path d="M34.54,17.93,32,13.62c-.16-.28-.66-.11-.76.26l-.42,1.58H26.57l-1.47,5.47h4.21l-.42,1.58c-.1.36.31.53.62.26l4.89-4.31a.43.43,0,0,0,.14-.52"/></svg>