<svg xmlns="http://www.w3.org/2000/svg" class="HeroAbility-icon HeroAbility-icon--hoverState" viewBox="0 0 40 40" preserveAspectRatio="xMidYMid meet"><g id="_Group_9" data-name="&lt;Group&gt;"><g id="_Group_10" data-name="&lt;Group&gt;"><path id="_Compound_Path_4" data-name="&lt;Compound Path&gt;" d="M22.09,13.73l.49.13,1.61.42,1.32.34,2.16.57,1.31.34c.21.06.43,0,.65.1a2,2,0,0,1,.4.1c.09,0,.09.07,0,.14a.93.93,0,0,0-.24.37.22.22,0,0,0,0,.18c0,.07.06.16.1.23a1.54,1.54,0,0,0,.45.48c.1.08.22.15.32.23a.24.24,0,0,0,.32,0c.18-.15.38-.26.55-.43a1,1,0,0,0,.28-.41.3.3,0,0,1,0-.08.29.29,0,0,0,0-.34,1.39,1.39,0,0,0-.2-.25c-.05-.06,0-.09,0-.13a1.23,1.23,0,0,1,.35-.09,4.65,4.65,0,0,1,.52-.07,2.63,2.63,0,0,0,.36-.08l.82-.21L34.86,15,37,14.42l1.93-.5.63-.17a.23.23,0,0,1,.11,0,1.06,1.06,0,0,1-.18.17,1.89,1.89,0,0,0-.44.44q-.21.25-.44.48l-.66.68-.68.72-.8.82-1.33,1.38-.61.62c-.16.16-.28.37-.44.53h0c-.05,0-.09.12-.17.11s-.06-.1-.08-.16-.07-.17-.11-.25a.22.22,0,0,0-.17-.13,1.48,1.48,0,0,0-.67,0l-.46.18-.16.07c-.11,0-.16.1-.15.21s0,.48.09.71a1.35,1.35,0,0,0,.32.59.29.29,0,0,0,.26.07l.29,0c.09,0,.11,0,.1.09a1.73,1.73,0,0,1-.13.42,3.69,3.69,0,0,1-.18.41,1.22,1.22,0,0,0-.07.23l-.48,1.75L32,25.21l-.38,1.37L31.21,28l-.25.91a.15.15,0,0,1,0,.09c0-.09-.05-.17-.06-.26s0-.19,0-.29a.08.08,0,0,0,0,0,3.09,3.09,0,0,1-.26-.72l-.34-1.16L30,25.71l-.3-1-.42-1.47c-.11-.38-.24-.75-.32-1.14s-.22-.56-.29-.85a.89.89,0,0,1,0-.17c0-.08,0-.1.1-.09L29,21a.29.29,0,0,0,.3-.14,1.42,1.42,0,0,0,.26-.48,3.75,3.75,0,0,0,.09-.76c0-.11-.1-.16-.18-.2l-.5-.22a1.1,1.1,0,0,0-.68-.08h-.09a.25.25,0,0,0-.22.16,3.17,3.17,0,0,0-.12.32c0,.08-.07.09-.14,0a1.29,1.29,0,0,1-.28-.3,6.2,6.2,0,0,0-.64-.7l-1.25-1.29-1.21-1.25-.85-.88-.8-.86a2.88,2.88,0,0,1-.22-.27,1.24,1.24,0,0,0-.23-.19l-.21-.19ZM34,19.49s0,0,0-.07c0-.36.08-.72.12-1.09a8.63,8.63,0,0,1,.17-1.16.22.22,0,0,1,.11-.15c.25-.15.49-.31.75-.45a.6.6,0,0,0,.24-.3s0,0,0,0-.18-.07-.28,0l-.93.5a.17.17,0,0,1-.17,0c-.64-.3-1.3-.54-2-.79,0,0-.09-.05-.11,0S32,16,32,16l.71.3c.41.17.82.34,1.22.53a.32.32,0,0,1,.2.41v.08A9.46,9.46,0,0,0,34,18.38q0,.51-.07,1A.13.13,0,0,0,34,19.49Zm-6.26,0a.13.13,0,0,0,0-.12c0-.31,0-.62-.07-.93a9.25,9.25,0,0,0-.15-1.28.11.11,0,0,1,0-.09.73.73,0,0,1,.27-.3c.48-.22,1-.42,1.45-.62l.46-.2s.05,0,0-.06,0,0-.06,0h0c-.65.25-1.31.49-1.94.78a.18.18,0,0,1-.18,0c-.29-.16-.58-.31-.87-.47a.38.38,0,0,0-.3,0s0,0,0,0,.08.22.2.29l.61.36c.24.14.24.14.3.42.12.6.14,1.2.22,1.8A2,2,0,0,0,27.72,19.5Zm5.33,1.63a.13.13,0,0,0-.1,0l-.76.53a9.14,9.14,0,0,0-1,.78.4.4,0,0,1-.39,0c-.2-.12-.39-.26-.58-.4l-1.08-.81L29,21.21a0,0,0,0,0,0,0s0,0,0,0l0,0c.55.43,1.08.87,1.65,1.26a.18.18,0,0,1,.09.17c0,.32,0,.64,0,1a.4.4,0,0,0,.14.28s0,0,.05,0,.14-.18.14-.31c0-.29,0-.57,0-.86a.18.18,0,0,1,.06-.14,6.85,6.85,0,0,1,.54-.47l1.25-.94A.27.27,0,0,0,33.05,21.13Zm-2.7-2.34a.53.53,0,0,0,.54.54c.36,0,.51-.17.52-.48a.61.61,0,0,0-.54-.58A.58.58,0,0,0,30.35,18.79Z"/></g><g id="_Group_11" data-name="&lt;Group&gt;"><path id="_Compound_Path_5" data-name="&lt;Compound Path&gt;" d="M9,18.23l.5-.1,1.63-.35,1.33-.28L14.68,17,16,16.75c.22,0,.41-.15.62-.21a2,2,0,0,1,.41-.09c.1,0,.12,0,.09.12a.93.93,0,0,0-.05.44.22.22,0,0,0,.1.15c.07,0,.13.11.2.16a1.54,1.54,0,0,0,.62.22c.13,0,.26,0,.39.06a.24.24,0,0,0,.29-.14c.1-.21.22-.41.3-.63a1,1,0,0,0,.07-.49.3.3,0,0,1,0-.08.29.29,0,0,0-.17-.29,1.39,1.39,0,0,0-.29-.14c-.08,0-.08-.06,0-.13a1.23,1.23,0,0,1,.27-.23,4.64,4.64,0,0,1,.44-.3,2.63,2.63,0,0,0,.28-.23l.63-.55.86-.76,1.66-1.46,1.5-1.31.49-.44a.23.23,0,0,1,.1-.05,1.06,1.06,0,0,1-.08.24,1.9,1.9,0,0,0-.2.59c-.05.21-.11.42-.18.62l-.28.9-.29.95-.34,1.09c-.19.61-.39,1.22-.57,1.83-.08.28-.18.55-.27.83s-.09.45-.16.67v0c0,.07,0,.15-.11.17s-.1-.07-.14-.1L21.94,18a.22.22,0,0,0-.21,0,1.48,1.48,0,0,0-.6.32c-.12.12-.22.24-.33.37l-.11.14a.17.17,0,0,0,0,.25c.13.2.25.4.4.59a1.35,1.35,0,0,0,.56.38.29.29,0,0,0,.27-.05l.24-.17c.07-.05.1,0,.13,0a1.73,1.73,0,0,1,.08.44,3.69,3.69,0,0,1,0,.45,1.22,1.22,0,0,0,0,.23l.36,1.78L23,24.06l.28,1.39.28,1.39.19.93a.15.15,0,0,1,0,.1c-.06-.07-.12-.13-.17-.2s-.1-.16-.15-.24l0,0a3.09,3.09,0,0,1-.55-.52L22,26l-.56-.61-.73-.79-1-1.13c-.27-.29-.55-.57-.8-.87s-.44-.4-.64-.62a.89.89,0,0,1-.11-.13c0-.07,0-.1,0-.12l.3-.09a.29.29,0,0,0,.21-.26,1.42,1.42,0,0,0,0-.54,3.75,3.75,0,0,0-.26-.72c0-.1-.16-.1-.25-.1l-.54,0a1.1,1.1,0,0,0-.65.24l-.08,0a.25.25,0,0,0-.13.24,3.17,3.17,0,0,0,0,.34c0,.09,0,.11-.1.1a1.29,1.29,0,0,1-.38-.14,6.2,6.2,0,0,0-.88-.34l-1.69-.6-1.64-.58L11,18.95l-1.1-.4L9.6,18.4a1.24,1.24,0,0,0-.29-.06L9,18.26ZM22.25,18s0-.06,0-.08l-.38-1a8.63,8.63,0,0,1-.37-1.12.22.22,0,0,1,0-.19c.16-.24.3-.5.47-.73a.6.6,0,0,0,.08-.38s0,0,0,0-.19,0-.26.11l-.61.87a.17.17,0,0,1-.14.08c-.7,0-1.4.1-2.1.17,0,0-.1,0-.1,0s.07,0,.11,0l.77,0c.44,0,.89-.07,1.33-.07a.32.32,0,0,1,.37.28l0,.07a9.46,9.46,0,0,0,.37,1l.39.94S22.21,18,22.25,18Zm-5.59,2.82a.13.13,0,0,0,0-.11l-.48-.8a9.25,9.25,0,0,0-.7-1.08s0,0,0-.08a.73.73,0,0,1,.11-.39c.33-.41.68-.81,1-1.21l.32-.39s0,0,0-.07,0,0-.06,0l0,0c-.47.51-.95,1-1.38,1.57a.18.18,0,0,1-.17.08l-1,0a.38.38,0,0,0-.28.12s0,0,0,.05.17.16.31.16l.71.05c.28,0,.28,0,.45.24.37.48.67,1,1,1.51A2,2,0,0,0,16.66,20.86Zm5.5-.94s-.06.05-.07.08l-.44.82A9.14,9.14,0,0,0,21.08,22a.4.4,0,0,1-.35.19c-.24,0-.47-.06-.7-.1l-1.33-.23h-.15a0,0,0,0,0,0,0s0,0,0,0h0c.68.14,1.36.3,2,.39a.18.18,0,0,1,.16.11c.15.28.3.56.45.84a.4.4,0,0,0,.25.19s.05,0,.05,0a.61.61,0,0,0,0-.34c-.13-.26-.25-.52-.37-.78a.18.18,0,0,1,0-.16,6.86,6.86,0,0,1,.27-.66l.7-1.4A.27.27,0,0,0,22.16,19.92ZM18.69,19a.53.53,0,0,0,.73.24c.31-.18.38-.38.25-.66a.61.61,0,0,0-.74-.28A.58.58,0,0,0,18.69,19Z"/></g><g id="_Group_12" data-name="&lt;Group&gt;"><path id="_Compound_Path_6" data-name="&lt;Compound Path&gt;" d="M.25,29.33.59,29l1.11-1.24.91-1,1.5-1.65c.3-.34.6-.68.9-1,.15-.16.24-.37.38-.53a2,2,0,0,1,.27-.31c.08-.06.11-.05.14,0a.93.93,0,0,0,.21.38.22.22,0,0,0,.17.07l.25,0a1.54,1.54,0,0,0,.63-.18c.12-.05.23-.13.35-.17a.24.24,0,0,0,.15-.28c0-.23-.06-.46-.13-.69a1,1,0,0,0-.24-.44l-.05-.06a.29.29,0,0,0-.31-.14,1.39,1.39,0,0,0-.32.06c-.08,0-.1,0-.1-.08a1.23,1.23,0,0,1,.08-.35,4.65,4.65,0,0,1,.18-.5,2.63,2.63,0,0,0,.09-.35L7,19.69l.25-1.12.49-2.16.44-1.94.14-.64a.23.23,0,0,1,0-.1,1.06,1.06,0,0,1,.07.24,1.89,1.89,0,0,0,.18.59c.08.2.16.4.22.61l.3.9.32.93.36,1.08c.2.61.4,1.21.61,1.82.09.27.18.55.27.82s.2.42.27.64v0c0,.07.06.14,0,.2s-.12,0-.18,0l-.27,0a.22.22,0,0,0-.19.09,1.48,1.48,0,0,0-.29.61c0,.16,0,.33,0,.49s0,.12,0,.18,0,.19.12.23.44.18.67.24a1.35,1.35,0,0,0,.67,0,.29.29,0,0,0,.19-.2c0-.09.06-.19.09-.28s.06-.09.13,0a1.73,1.73,0,0,1,.32.31,3.69,3.69,0,0,1,.29.35,1.22,1.22,0,0,0,.17.16L14,24.91l1,.94,1,1,1,1,.69.64a.15.15,0,0,1,.06.08l-.26-.06-.27-.11h0a3.09,3.09,0,0,1-.75-.1L15.33,28l-.81-.16-1.05-.21-1.5-.3c-.39-.08-.78-.14-1.16-.24s-.59-.06-.88-.13l-.16,0c-.07,0-.08-.06,0-.13l.19-.25a.29.29,0,0,0,0-.33,1.42,1.42,0,0,0-.3-.45A3.75,3.75,0,0,0,9,25.3c-.1-.05-.18,0-.26.07s-.29.22-.42.34a1.1,1.1,0,0,0-.38.57.71.71,0,0,1,0,.09.25.25,0,0,0,0,.27,3.17,3.17,0,0,0,.23.26c.06.06.05.1,0,.14a1.29,1.29,0,0,1-.39.11,6.2,6.2,0,0,0-.91.25l-1.72.51-1.67.49-1.17.35-1.13.32-.34.07a1.24,1.24,0,0,0-.27.12l-.27.1Zm10.58-7.91s0,0,0-.06l-.91-.6a8.62,8.62,0,0,1-1-.69.22.22,0,0,1-.09-.17c0-.29,0-.58-.05-.87a.6.6,0,0,0-.16-.36s0,0,0,0-.14.13-.14.24c0,.35,0,.71,0,1.06a.17.17,0,0,1-.07.15c-.56.43-1.08.9-1.6,1.37,0,0-.09.06-.06.09s.08,0,.11,0L7.43,21c.34-.29.68-.58,1-.84a.32.32,0,0,1,.46,0l.06,0a9.46,9.46,0,0,0,.89.59l.87.53A.13.13,0,0,0,10.83,21.42ZM8,27a.13.13,0,0,0-.09-.08L7,26.55a9.25,9.25,0,0,0-1.2-.46s-.06,0-.08,0a.73.73,0,0,1-.14-.38c0-.53.07-1.05.12-1.57,0-.17,0-.33,0-.5s0-.06,0-.06,0,0,0,.05v0c-.08.69-.17,1.38-.2,2.08a.18.18,0,0,1-.09.16c-.27.18-.54.38-.82.55a.38.38,0,0,0-.15.26s0,0,0,0a.6.6,0,0,0,.35,0l.6-.37c.24-.15.24-.15.51-.07.58.17,1.13.43,1.7.63A2,2,0,0,0,8,27Zm3.9-4a.13.13,0,0,0,0,.11L12,24a9.14,9.14,0,0,0,.22,1.27.4.4,0,0,1-.17.36c-.2.12-.41.23-.63.33l-1.21.59-.13.08a0,0,0,0,0,0,0s0,0,0,0l0,0c.63-.29,1.27-.56,1.88-.89a.18.18,0,0,1,.19,0l.86.42a.4.4,0,0,0,.31,0s.05,0,0,0-.09-.21-.21-.27l-.76-.41a.18.18,0,0,1-.1-.12,6.85,6.85,0,0,1-.17-.7l-.26-1.54A.27.27,0,0,0,11.86,23ZM8.54,24.32a.53.53,0,0,0,.73-.24c.15-.33.08-.53-.19-.68a.61.61,0,0,0-.76.21A.58.58,0,0,0,8.54,24.32Z"/></g></g></svg>