<svg xmlns="http://www.w3.org/2000/svg" class="HeroAbility-icon HeroAbility-icon--hoverState" viewBox="0 0 40 40" preserveAspectRatio="xMidYMid meet"><g id="_Group_3" data-name=" Group 3"><path id="_Path_13" data-name=" Path 13" d="M19.79,15.78c.53-.42,1-.81,1.48-1.18A16.19,16.19,0,0,1,23.49,13c.33-.17.38-.16.5.2.28.85.56,1.71.91,2.53a.29.29,0,0,1-.12.39,20.2,20.2,0,0,1-2,1.43l-4.72,3a3.35,3.35,0,0,1-.4.23c-.17.08-.35.19-.53,0a.68.68,0,0,1-.29-.66c.14-.9.29-1.81.46-2.7.31-1.55.59-3.1.88-4.65a2.94,2.94,0,0,1,.14-.64c0-.21,0-.28-.18-.17-.83.45-1.74.73-2.55,1.22-.51.3-1.07.54-1.57.87s-.83.59-1.26.86c-.21.13-.28.08-.33-.13-.36-1.42-.84-2.8-1.24-4.2a.35.35,0,0,1,.16-.47h0c.43-.22.86-.43,1.28-.66A55,55,0,0,1,17.67,7a33,33,0,0,1,3.59-1.35c.47-.15.58-.06.6.45a12.52,12.52,0,0,1-.3,2.17,42.56,42.56,0,0,1-1.32,5.21A19.09,19.09,0,0,0,19.79,15.78Z"/><path id="_Path_14" data-name=" Path 14" d="M15.36,27.75A17.45,17.45,0,0,0,12.89,30l-.19.23c-.09.11-.16.08-.23,0L11.14,28c-.09-.14,0-.24.07-.33a36.86,36.86,0,0,1,4.67-3.85c.5-.33.62-.29.7.31a16.88,16.88,0,0,1,.14,3.45,13.81,13.81,0,0,0,.07,2l.66-.87a10.93,10.93,0,0,1,1-1.15c.16-.16.27-.16.4,0,.26.4.53.8.82,1.19a.28.28,0,0,1,0,.39c-.5.66-1.09,1.24-1.64,1.85s-1,1.06-1.45,1.58c-.13.14-.26.34-.48.29s-.28-.3-.31-.52c-.1-.79-.13-1.59-.19-2.38S15.41,28.55,15.36,27.75Z"/><path id="_Path_15" data-name=" Path 15" d="M26.83,32.35a16.52,16.52,0,0,1,1.49-.85c.29-.14.33-.1.4.21s.1.55.17.82a.28.28,0,0,1-.15.37h0l-1.54.75-1.43.66c-.12.06-.25.13-.38,0a.33.33,0,0,1,0-.4L26.27,31c0-.08.11-.18,0-.25s-.17,0-.25,0a9.7,9.7,0,0,0-2,.78c-.17.1-.25,0-.27-.15-.08-.55-.16-1.09-.25-1.64a.23.23,0,0,1,.15-.29h0a26.8,26.8,0,0,1,4-1.25c.49-.1.57,0,.42.5a15.72,15.72,0,0,1-.93,2.44A8.66,8.66,0,0,0,26.83,32.35Z"/></g></svg>