<svg xmlns="http://www.w3.org/2000/svg" class="HeroAbility-icon HeroAbility-icon--hoverState" viewBox="0 0 40 40" preserveAspectRatio="xMidYMid meet"><g id="_Group_5" data-name="&lt;Group&gt;"><path id="_Path_3" data-name="&lt;Path&gt;" d="M21.25,28.22v-3.9L23.4,24a.34.34,0,0,0,.28-.44,32.56,32.56,0,0,0-1.36-3.66,31.1,31.1,0,0,0-2-3.36.34.34,0,0,0-.28-.15h0a.34.34,0,0,0-.28.16c-.06.1-1.51,2.37-2.23,3.88a23.72,23.72,0,0,0-1.12,3.14.34.34,0,0,0,.28.43l2.15.3v3.92a.34.34,0,0,0,.34.34h1.7A.34.34,0,0,0,21.25,28.22Z"/><path id="_Path_4" data-name="&lt;Path&gt;" d="M20.05,6.71a13.53,13.53,0,0,0-1.73,27h.19a.67.67,0,0,0,0-1.32h0C12.65,31.55,8.09,26.58,8.09,21c0-5.93,5.14-10.4,12-10.4,6.59,0,12,5,12,11.09,0,5-4.74,9.86-10.36,10.63h0a.67.67,0,0,0,0,1.34h.15A13.53,13.53,0,0,0,20.05,6.71Z"/><path id="_Path_5" data-name="&lt;Path&gt;" d="M21.6,30.17l-.06,0a.62.62,0,0,0,.11,1.24h.15a9.84,9.84,0,1,0-3.54,0h.13a.62.62,0,0,0,.21-1.21l-.13,0a8.29,8.29,0,0,1-6.85-7.89c0-4.17,3.62-7.31,8.42-7.31,4.64,0,8.42,3.5,8.42,7.8C28.47,26.13,25.39,29.45,21.6,30.17Z"/></g></svg>