<svg xmlns="http://www.w3.org/2000/svg" class="HeroAbility-icon HeroAbility-icon--hoverState" viewBox="0 0 40 40" preserveAspectRatio="xMidYMid meet"><g id="_Group_10" data-name="&lt;Group&gt;"><path id="_Compound_Path_3" data-name="&lt;Compound Path&gt;" d="M32.15,20.06a1.22,1.22,0,0,1,0,.54,1.54,1.54,0,0,0,.46,1.47,5.79,5.79,0,0,1,1.47,2.45A2.17,2.17,0,0,0,35,25.72a2.56,2.56,0,0,1,1.06,1.42,1.47,1.47,0,0,1-.48,1.64,4.75,4.75,0,0,0-.8.75c-.24.26-.57.42-.74.75a.28.28,0,0,1-.14.09,2.47,2.47,0,0,1-1.49.24,1.46,1.46,0,0,1-1.05-.88,4.17,4.17,0,0,1-.22-.84,1.15,1.15,0,0,1,.29-.86,1.09,1.09,0,0,0,.15-.8c0-.22,0-.45,0-.68s-.26-.47-.43-.68L29,23.26c-.18-.22-.08-.49-.07-.73,0-.1.12,0,.17,0,.26.15.52.29.77.45a.45.45,0,0,0,.54,0c.47-.25,1-.46,1.44-.67a.3.3,0,0,0,.21-.39,6.73,6.73,0,0,0-.19-.83.63.63,0,0,1,.05-.59C32,20.39,32.06,20.25,32.15,20.06Zm1.18,9.13a.39.39,0,0,0-.34-.35.52.52,0,0,0-.57.42.41.41,0,0,0,.33.46A.65.65,0,0,0,33.33,29.19Z"/><path id="_Path_23" data-name="&lt;Path&gt;" d="M11.28,11.3h-.69a.41.41,0,0,1-.26-.13c-.09-.07-.17-.15-.27-.21a.14.14,0,0,0-.23.09c-.09.34-.17.68-.25,1,0,.11.07.18.14.25l.61.56a.45.45,0,0,1,.15.47A23.71,23.71,0,0,0,10,16.67a23.59,23.59,0,0,0,.71,7.9c0,.12.05.23.08.35a.9.9,0,0,0,.59.7c.13,0,.11.09,0,.17A14.91,14.91,0,0,1,10,27.1a.49.49,0,0,1-.6-.2A4.91,4.91,0,0,1,9,26.07a11.71,11.71,0,0,1-.68-2.88A37.71,37.71,0,0,1,8,18.74a28.12,28.12,0,0,1,.41-5.13,14.18,14.18,0,0,1,.71-2.85,5,5,0,0,1,.3-.63.4.4,0,0,1,.68-.11,12.65,12.65,0,0,1,1.13,1.14A.26.26,0,0,1,11.28,11.3Z"/><path id="_Path_24" data-name="&lt;Path&gt;" d="M27.78,20.17l-.08.93a.29.29,0,0,1-.09.19c-.24.23-.47.47-.71.7-.06.06-.15.18-.25.08s-.29-.16-.24-.38a3.92,3.92,0,0,0,.23-1,1.52,1.52,0,0,0-.43-1c-.09-.1-.17,0-.24,0l-.3.3a.4.4,0,0,1-.48.08,1.88,1.88,0,0,0-.66-.16.26.26,0,0,0-.32.28,7.39,7.39,0,0,1-.38,2,.63.63,0,0,1-.68.5,1.54,1.54,0,0,0-1,.45,2.14,2.14,0,0,0-.65,1,7.89,7.89,0,0,0-.39,1.47.54.54,0,0,1-.8.35,3.31,3.31,0,0,1-.87-.93c-.14-.18-.28-.37-.42-.56a.6.6,0,0,0-.37-.2c-.73-.18-1.42-.5-2.15-.71a3.5,3.5,0,0,1-.79-.4c-.09-.05-.1-.12-.09-.21a2.2,2.2,0,0,1,.8-1.56.21.21,0,0,1,.28,0,4.88,4.88,0,0,0,1.83.64,4.07,4.07,0,0,0,3.3-.78c.26-.22.55-.43.82-.64,0,0,.09-.05.09-.08,0-.29.26-.36.47-.48a.55.55,0,0,0,.22-.3.89.89,0,0,1,.55-.47,3.62,3.62,0,0,1,1.85-.2c.25,0,.53,0,.74.19a.21.21,0,0,0,.14,0c.21,0,.39,0,.42.28,0,.1.13.11.23.12C27.79,19.72,27.79,19.72,27.78,20.17Z"/><path id="_Compound_Path_4" data-name="&lt;Compound Path&gt;" d="M14,17.59q0-.63,0-1.25c0-.1,0-.2.12-.25a20.69,20.69,0,0,0,2.18-1.35,4.77,4.77,0,0,1,3.51-.64,2.73,2.73,0,0,1,1.87,1.44,8.12,8.12,0,0,1,.65,1.4,3.21,3.21,0,0,1,.18,1,1,1,0,0,1-.32.79c-.45.41-.92.8-1.4,1.16a3.3,3.3,0,0,1-2.52.54A9,9,0,0,1,16.81,20a5.66,5.66,0,0,0-.57-.15.47.47,0,0,0-.59.41c0,.09,0,.11-.12.08A2.82,2.82,0,0,1,14,19a.32.32,0,0,1,0-.14c0-.42,0-.85,0-1.27Zm4.95-3a2,2,0,0,0-1.68.8,2.54,2.54,0,0,0,1.29,3.85,2,2,0,0,0,2.28-.63,2.3,2.3,0,0,0,.28-2.53A2.4,2.4,0,0,0,18.93,14.6Z"/><path id="_Compound_Path_5" data-name="&lt;Compound Path&gt;" d="M18.38,13.77c-.31.06-.62.1-.93.19a6.67,6.67,0,0,0-2,1.09,10.22,10.22,0,0,1-1.15.71c-.2.11-.25.08-.24-.15a9.44,9.44,0,0,1,.09-.95.54.54,0,0,1,.23-.39A3.41,3.41,0,0,1,15,13.9a1.06,1.06,0,0,0,.41-.25c.17-.19.15-.33,0-.47s-.19-.17,0-.32.4-.31.59-.48a1.33,1.33,0,0,1,.93-.29,12.47,12.47,0,0,1,3.48.38,1.07,1.07,0,0,1,.61.35.62.62,0,0,0,.36.2l4.28,1.12c.3.08.59.2.88.29a1.82,1.82,0,0,1,.54.14.65.65,0,0,1,.32.45c0,.25.1.48.38.58a.25.25,0,0,1,.14.32A10.43,10.43,0,0,1,27.6,17a.62.62,0,0,1-.7.44l-1.5-.06c-.16,0-.28.13-.44.12l-1.25,0c-.19,0-.26-.09-.28-.27a4.94,4.94,0,0,0-.54-1.62,4.22,4.22,0,0,0-1.3-1.49A6.57,6.57,0,0,0,17.32,13H17a.49.49,0,0,0-.48.35c-.08.22,0,.31.21.32.42,0,.85,0,1.27,0A1.27,1.27,0,0,1,18.38,13.77Zm7.89,1.95a4.13,4.13,0,0,0-.8.06c-.16,0-.33.08-.36.28a.4.4,0,0,0,.22.42,4.28,4.28,0,0,0,1.44.52A.63.63,0,0,0,27,15.76,3.32,3.32,0,0,0,26.27,15.71Z"/><path id="_Path_25" data-name="&lt;Path&gt;" d="M6.05,12.36c0-.08,0-.15,0-.21a9.36,9.36,0,0,1,1.51-3,.72.72,0,0,1,.77-.33c.51.1.72.18.91.47-.34-.16-.62,0-.75.37S8.15,10.51,8,11a21.88,21.88,0,0,0-1,5.19,35.63,35.63,0,0,0,.09,5.61,19.71,19.71,0,0,0,.6,3.12c.11.43.21.87.34,1.29a2.34,2.34,0,0,0,1,1.46c.16.09.09.17,0,.22a4.62,4.62,0,0,1-.85.24.28.28,0,0,1-.27-.1,2,2,0,0,1-.43-.6,9.09,9.09,0,0,1-.64-2.28,1.7,1.7,0,0,0-.26-.61,9.69,9.69,0,0,0-.62-1A1.11,1.11,0,0,1,5.8,23c-.13-.94-.16-1.89-.21-2.83,0-.66,0-1.33-.05-2a.52.52,0,0,1,.17-.43c.1-.09.17-.21.27-.3a1,1,0,0,0,.32-.85,20.7,20.7,0,0,1,.2-3.78,4.59,4.59,0,0,0,0-.51c0-.16-.08-.19-.22-.1A.9.9,0,0,1,6.05,12.36Z"/><path id="_Path_26" data-name="&lt;Path&gt;" d="M11.31,13.15l.9.12c.28,0,.3.09.26.37-.09.69-.19,1.37-.28,2.06a26.85,26.85,0,0,0,0,5.76,18.38,18.38,0,0,0,.64,3.43c.09.3.06.3-.25.35a5,5,0,0,0-.89.15c-.28.1-.51-.06-.62-.39a14.62,14.62,0,0,1-.41-1.58,24.54,24.54,0,0,1-.28-8.08,11.91,11.91,0,0,1,.33-1.88c.1-.33.08-.33.43-.31h.15Z"/><path id="_Path_27" data-name="&lt;Path&gt;" d="M13.35,25.28c-.18-.06-.2-.19-.24-.31a21.81,21.81,0,0,1-.78-5.08,25.09,25.09,0,0,1,.29-5.6c0-.18,0-.36.07-.55s.06-.15.16,0a1.41,1.41,0,0,0,.87.52c.15,0,.22.14.2.3a29.35,29.35,0,0,0-.08,5.84c0,.6,0,1.2.09,1.8a7.45,7.45,0,0,0,.3,1.45c.08.26.07.27-.19.31s-.17.12-.25.18A1.09,1.09,0,0,0,13.35,25.28Z"/><path id="_Path_28" data-name="&lt;Path&gt;" d="M34,30.63c-.43.19-.79.56-1.29.52-.79-.08-1.58,0-2.37,0a6.81,6.81,0,0,1-.88-.14c-.14,0-.23-.16-.34-.24A8.13,8.13,0,0,1,28,29.59c-.27-.28-.51-.59-.76-.88l-1.13-1.26a.44.44,0,0,1-.1-.21c-.15-.65-.29-1.31-.45-2,0-.15,0-.21.16-.17l.58.11a.4.4,0,0,1,.24.16c.3.39.67.7,1,1.07.61.69,1.25,1.36,1.87,2a.75.75,0,0,0,.69.32c.22,0,.45.06.67,0s.17.08.19.18.11.45.17.68A1.74,1.74,0,0,0,33,30.86C33.34,30.8,33.66,30.71,34,30.63Z"/><path id="_Path_29" data-name="&lt;Path&gt;" d="M6.35,10.73A9.65,9.65,0,0,0,5.86,12a2.2,2.2,0,0,0-.09.52.16.16,0,0,0,.07.17c.07,0,.12,0,.18,0s.15-.18.24-.12,0,.19,0,.28c-.07.86-.2,1.71-.21,2.58,0,.38,0,.76,0,1.14a.87.87,0,0,1-.27.71,3.79,3.79,0,0,1-.42.42.22.22,0,0,0-.08.21c0,1.33.06,2.66.17,4a7.47,7.47,0,0,0,.2,1.49,1,1,0,0,0,.22.4,5.15,5.15,0,0,1,.49.79,7.64,7.64,0,0,1,.52,1.8,4.17,4.17,0,0,0,.89,1.83.31.31,0,0,1,.09.27,4,4,0,0,0,.05,1.06c0,.16,0,.19-.18.2-.58.05-.83-.42-.87-.85,0-.27,0-.55,0-.83A1,1,0,0,1,7,27.41c.07-.1,0-.18-.07-.23s-.37-.21-.57-.28a.83.83,0,0,1-.46-.49,4.52,4.52,0,0,1-.45-2.11,9.25,9.25,0,0,0-.19-2c-.1-.63-.15-1.26-.19-1.89C5,19.54,5,18.7,5,17.85a7.36,7.36,0,0,0-.2-1.21,5.8,5.8,0,0,1,0-1.52c0-.54.09-1.08.18-1.62a.49.49,0,0,1,.23-.38.6.6,0,0,0,.29-.44,5,5,0,0,1,.65-1.76l.07-.1.09-.12Z"/><path id="_Path_30" data-name="&lt;Path&gt;" d="M13.55,28.19h-1.1c-.31,0-.4-.06-.48-.36a.22.22,0,0,0-.21-.18l-.57-.08c-.09,0-.22,0-.25-.12A.33.33,0,0,1,11,27.1a6.22,6.22,0,0,0,.87-.83,1.36,1.36,0,0,1,1.17-.38c.33,0,.47-.15.49-.48a1.18,1.18,0,0,0,0-.25.92.92,0,0,1,.4-.9.44.44,0,0,1,.32-.09l1.06,0c.25,0,.4.2.57.33s0,.13,0,.2c-.35,1.06-.63,2.14-.92,3.22a.26.26,0,0,1-.3.22Z"/><path id="_Path_31" data-name="&lt;Path&gt;" d="M21.48,25a2.25,2.25,0,0,0,1.37,1,1.59,1.59,0,0,0,1.49-.25,1,1,0,0,0,.34-.52,2.17,2.17,0,0,0-.15-1.4,3.13,3.13,0,0,0-.56-1,.17.17,0,0,1,0-.26c.11-.08.15.05.17.12a6.39,6.39,0,0,0,.67.95,2.12,2.12,0,0,1,.4,1,12,12,0,0,0,.34,1.66c.06.33.14.66.22,1a1.48,1.48,0,0,1,0,.71.51.51,0,0,1-.43.41,15,15,0,0,1-1.95.28.32.32,0,0,1-.36-.19A19.73,19.73,0,0,0,21.53,26a.65.65,0,0,1-.13-.61C21.44,25.3,21.45,25.18,21.48,25Z"/><path id="_Path_32" data-name="&lt;Path&gt;" d="M27.94,21c0-.39.06-.79.09-1.18,0-.14.1-.17.21-.18l2.24-.14,1.4,0c.1,0,.21,0,.27.07s0,.17-.08.24l-.48.89a.32.32,0,0,0,0,.26,7.86,7.86,0,0,1,.23.95.21.21,0,0,1-.13.27l-1.4.65a.28.28,0,0,1-.28,0c-.53-.31-1.07-.6-1.58-.94S27.94,21.62,27.94,21Z"/><path id="_Path_33" data-name="&lt;Path&gt;" d="M30.58,31.72l-.1.78c0,.13-.07.17-.22.17A10.38,10.38,0,0,0,29,32.8a3.33,3.33,0,0,1-.5,0A7.22,7.22,0,0,1,26,32.35a3.79,3.79,0,0,1-.8-.54A5.93,5.93,0,0,1,24,30.64c-.05-.06-.12-.14-.07-.23s.12,0,.19,0a4.64,4.64,0,0,0,1.19-.21.41.41,0,0,1,.43.11,3.07,3.07,0,0,0,1.4.81,15.32,15.32,0,0,0,1.63.22,1.48,1.48,0,0,0,.48,0,5.05,5.05,0,0,1,1.19.09C30.64,31.37,30.55,31.58,30.58,31.72Z"/><path id="_Path_34" data-name="&lt;Path&gt;" d="M19.08,21.84a5.3,5.3,0,0,1-1.86-.49,2,2,0,0,1-.68-.48,1.23,1.23,0,0,0-.4-.27.38.38,0,0,1-.19-.16c0-.08-.11-.16,0-.26a.26.26,0,0,1,.26-.1,2.89,2.89,0,0,1,.58.14,6.7,6.7,0,0,0,2.08.44,3.48,3.48,0,0,0,2.49-.94c.47-.42.36-.4.79,0,.14.15.27.31.4.47s.08.15,0,.22a6.78,6.78,0,0,1-1.77,1.18A7,7,0,0,1,19.08,21.84Z"/><path id="_Path_35" data-name="&lt;Path&gt;" d="M30.26,19.29l-1.75.11c-.18,0-.26,0-.26-.22,0-.52,0-1,0-1.57,0-.27.06-.31.32-.25q1.85.41,3.67.94a.25.25,0,0,1,.2.22,2.31,2.31,0,0,1,0,.29c0,.31-.11.42-.42.42h-1.8Z"/><path id="_Path_36" data-name="&lt;Path&gt;" d="M28.19,17.12l.31-1,.21-.62c.07-.21.1-.22.29-.09a1.24,1.24,0,0,0,.17.12.26.26,0,0,1,.18.31.22.22,0,0,0,.16.26,5,5,0,0,1,1.32.69,8.65,8.65,0,0,0,.85.44.75.75,0,0,0,.48,0,.65.65,0,0,1,.46.1l1,.62c.27.18.26.28,0,.46l-.69.44c-.12.08-.18.07-.18-.09a1.42,1.42,0,0,0,0-.17c0-.42-.1-.47-.5-.59-1.05-.32-2.12-.58-3.2-.83A1.6,1.6,0,0,0,28.19,17.12Z"/><path id="_Path_37" data-name="&lt;Path&gt;" d="M10.16,11.5c.8,0,1.59.15,2.39.13a2.4,2.4,0,0,1,.67.17.29.29,0,0,1,.16.16l.13.26c.08.15.19.27-.05.42s-.22.35-.07.59.28.28.16.51-.13.15-.25.07a2,2,0,0,1-.35-.34A1.18,1.18,0,0,0,12,13c-.42,0-.84-.08-1.26-.12a.33.33,0,0,1-.21-.08c-.21-.2-.43-.39-.63-.6s0-.4,0-.6S10.07,11.49,10.16,11.5Z"/><path id="_Path_38" data-name="&lt;Path&gt;" d="M14.09,19.56l.25.27a4.13,4.13,0,0,0,1.58.92c.57.23.59.28.17.72a2.07,2.07,0,0,0-.62,1.29c0,.54-.07.53-.61.53s-.48.06-.6-.5a10.1,10.1,0,0,1-.15-1.49c0-.52,0-1-.07-1.57A.18.18,0,0,1,14.09,19.56Z"/><path id="_Path_39" data-name="&lt;Path&gt;" d="M23.13,23a.9.9,0,0,0,.37-.07.26.26,0,0,1,.33.11,3.55,3.55,0,0,1,.6,1.3c0,.08,0,.14-.1.15a1.61,1.61,0,0,0-1.47,1.08c-.06.19-.13.22-.3.13a1.71,1.71,0,0,1-.92-.91.22.22,0,0,1,0-.14A2.14,2.14,0,0,1,22.81,23,.6.6,0,0,1,23.13,23Z"/><path id="_Path_40" data-name="&lt;Path&gt;" d="M17.72,24.84c-.18,0-.45,0-.72,0a.73.73,0,0,0-.61.57c-.08.24-.18.47-.26.71s-.19.17-.32.13-.07-.16,0-.25c.12-.41.25-.83.37-1.24a.37.37,0,0,0,0-.21,1.17,1.17,0,0,0-.85-.62h-.57c-.16,0-.22-.1-.25-.24s0-.2.15-.2h.42c.16,0,.34,0,.47-.13s.13,0,.19,0a6.09,6.09,0,0,0,1.49.6c.42.13.83.33,1.26.43.16,0,.12.13,0,.21S18.19,24.84,17.72,24.84Z"/><path id="_Path_41" data-name="&lt;Path&gt;" d="M26.55,18.46c0,.38,0,.44-.4.39a5.23,5.23,0,0,0-1.58,0,2.14,2.14,0,0,0-1.09.48c-.11.1-.2.11-.3,0s-.21-.21-.32-.31-.13-.27,0-.38A3.41,3.41,0,0,1,25,17.86l1.06,0c.39,0,.44.06.48.46C26.55,18.39,26.55,18.44,26.55,18.46Z"/><path id="_Path_42" data-name="&lt;Path&gt;" d="M17.64,13.18a6.83,6.83,0,0,1,3,.63,4.48,4.48,0,0,1,2.58,3.48.56.56,0,0,1-.38.52c-.12,0-.09-.09-.09-.15a3.34,3.34,0,0,0-.31-1.14,5.21,5.21,0,0,0-1.29-2,3.62,3.62,0,0,0-1.26-.67,10.25,10.25,0,0,0-2.93-.4c-.06,0-.17,0-.17-.07s.09-.12.17-.12A6.32,6.32,0,0,1,17.64,13.18Z"/><path id="_Path_43" data-name="&lt;Path&gt;" d="M10.68,27.56c0,.19.11.22.24.22s.25,0,.38,0a.51.51,0,0,1,.57.43.14.14,0,0,1,0,.16c-.42.37-.83.76-1.28,1.1a.65.65,0,0,1-.4.12,6.48,6.48,0,0,0-1,0,.11.11,0,0,1-.09,0,.57.57,0,0,1,0-.41c0-.12.12-.12.21-.12h.7c.17,0,.23-.07.22-.23s0-.28,0-.42-.1-.25-.27-.24a4.5,4.5,0,0,1-.78,0H9.7a.75.75,0,0,0,.77-.37A1.34,1.34,0,0,1,10.68,27.56Z"/><path id="_Path_44" data-name="&lt;Path&gt;" d="M29.41,15.41a1.85,1.85,0,0,1,1.67.24,11,11,0,0,1,2.65,1.77.62.62,0,0,1,.15.49l-.83-.51c-.1-.06-.19-.15-.3-.2s-.3-.19-.27-.4a.2.2,0,0,0-.1-.17A6.37,6.37,0,0,0,31.33,16a.63.63,0,0,0-.72.18.19.19,0,0,1-.29.07,4.11,4.11,0,0,0-.55-.22c-.12,0-.19-.1-.18-.24A.29.29,0,0,0,29.41,15.41Z"/><path id="_Path_45" data-name="&lt;Path&gt;" d="M15.58,28.19h-.14c-.25,0-.26,0-.2-.26.11-.4.22-.8.32-1.21,0-.14.11-.2.25-.19l.51,0a.69.69,0,0,0,.49-.08s.08,0,.11,0,0,.06,0,.09L16,28A.37.37,0,0,1,15.58,28.19Z"/><path id="_Path_46" data-name="&lt;Path&gt;" d="M14.08,12.77c.54-.12.79.34,1.14.58.1.07,0,.16,0,.2l-.4.2a2.19,2.19,0,0,0-.47.28.29.29,0,0,1-.41,0c-.14-.09-.18-.16-.11-.32a.37.37,0,0,0-.06-.42,1.37,1.37,0,0,1-.15-.23.21.21,0,0,1,.19-.32Z"/><path id="_Path_47" data-name="&lt;Path&gt;" d="M31.66,32.2c0,.09,0,.18,0,.27a.55.55,0,0,1-.79.41.25.25,0,0,1-.14-.26l.12-1.09a.12.12,0,0,1,0-.06c.16-.2.39-.09.59-.11s.19.08.2.19A4.08,4.08,0,0,1,31.66,32.2Z"/><path id="_Path_48" data-name="&lt;Path&gt;" d="M24,29.48c-.45,0-.52,0-.59-.29s0-.26.18-.27l.8-.08a9.49,9.49,0,0,0,.94-.17c.12,0,.26-.11.32.11a.36.36,0,0,1-.19.45,3.89,3.89,0,0,1-.43.1A8.74,8.74,0,0,1,24,29.48Z"/><path id="_Path_49" data-name="&lt;Path&gt;" d="M28,18.41c0,.23,0,.46,0,.7a.38.38,0,0,1-.56.34.13.13,0,0,1-.06-.18,4.82,4.82,0,0,0,.09-1.34c0-.08,0-.15,0-.23s.17-.22.33-.22.18.12.18.25S28,18.18,28,18.41Z"/><path id="_Path_50" data-name="&lt;Path&gt;" d="M8.77,29c0,.17,0,.34,0,.51s-.05.24-.23.24c-.35,0-.38,0-.42-.37a4.58,4.58,0,0,1,0-.8.2.2,0,0,1,.18-.22c.55-.15.51-.15.51.4,0,.08,0,.16,0,.23Z"/><path id="_Path_51" data-name="&lt;Path&gt;" d="M24.13,22.06s0-.12.05-.19a6.22,6.22,0,0,0,.26-1.43.47.47,0,0,1,.05-.22c.08-.11.2-.05.29,0s0,.15,0,.19a1,1,0,0,0-.17,1.25c.08.19.1.41.17.61s0,.33-.15.46-.07.07-.13,0A2.12,2.12,0,0,1,24.13,22.06Z"/><path id="_Path_52" data-name="&lt;Path&gt;" d="M24.2,30.14l-.3,0c-.15,0-.18-.13-.18-.25s.1-.14.19-.14a10.08,10.08,0,0,0,1.44-.24c.14,0,.24,0,.27.14a.22.22,0,0,1-.18.28,9,9,0,0,1-.95.21Z"/><path id="_Path_53" data-name="&lt;Path&gt;" d="M31.11,16.17a1.21,1.21,0,0,1,.45.17,4.14,4.14,0,0,1,.61.42.19.19,0,0,1,.08.2c0,.08-.1.09-.17.1a.56.56,0,0,1-.41-.05l-.77-.4c-.09,0-.22-.08-.17-.23a.25.25,0,0,1,.27-.2Z"/><path id="_Path_54" data-name="&lt;Path&gt;" d="M27.79,17.22l.15-.59c.05-.2.1-.4.15-.59a.48.48,0,0,0-.28-.65.32.32,0,0,1-.19-.26c0-.09-.08-.22,0-.26a.25.25,0,0,1,.27.13c.09.2.26.23.43.3s.17.1.13.22c-.19.52-.31,1.05-.53,1.56A.21.21,0,0,1,27.79,17.22Z"/><path id="_Path_55" data-name="&lt;Path&gt;" d="M27.25,18.39q0,.17,0,.34A.3.3,0,0,1,27,19c-.23.07-.3,0-.25-.23a1.69,1.69,0,0,0,0-.69c0-.15,0-.29.17-.3s.33,0,.34.26S27.25,18.29,27.25,18.39Z"/><path id="_Path_56" data-name="&lt;Path&gt;" d="M9.47,28.87H9.24c-.16,0-.23-.07-.22-.23s.08-.21.22-.21h.48c.18,0,.21.11.21.25s-.08.19-.21.19Z"/><path id="_Path_57" data-name="&lt;Path&gt;" d="M23.18,19.73a.21.21,0,0,1-.14.15.13.13,0,0,1-.17,0,4.81,4.81,0,0,0-.47-.51.14.14,0,0,1,0-.23.13.13,0,0,1,.21,0,4.08,4.08,0,0,0,.43.43A.34.34,0,0,1,23.18,19.73Z"/><path id="_Path_58" data-name="&lt;Path&gt;" d="M23.94,17.79a4.37,4.37,0,0,0-1.37.84A1.14,1.14,0,0,1,23.94,17.79Z"/><path id="_Path_59" data-name="&lt;Path&gt;" d="M7.09,9.39l-.4.69C6.65,9.63,6.75,9.45,7.09,9.39Z"/><path id="_Path_60" data-name="&lt;Path&gt;" d="M10.06,27.86a.84.84,0,0,1-.51.05s-.11,0-.11-.07.06-.08.11-.09S9.85,27.81,10.06,27.86Z"/><path id="_Path_61" data-name="&lt;Path&gt;" d="M22.23,19.54a.92.92,0,0,1,.42.46Z"/><path id="_Path_62" data-name="&lt;Path&gt;" d="M24,25.29a.29.29,0,0,1-.24.15C23.86,25.36,23.93,25.33,24,25.29Z"/><path id="_Path_63" data-name="&lt;Path&gt;" d="M22,19.28a.06.06,0,0,1-.06,0,0,0,0,0,1,0-.07s0,0,0,.05A0,0,0,0,1,22,19.28Z"/><path id="_Path_64" data-name="&lt;Path&gt;" d="M20,17.22a1.12,1.12,0,0,1-.61,1.1,1.08,1.08,0,0,1-1.23-.15,1.32,1.32,0,0,1-.5-1.38A1.09,1.09,0,0,1,19.29,16,1.32,1.32,0,0,1,20,17.22Z"/><path id="_Path_65" data-name="&lt;Path&gt;" d="M27.25,16.39a.38.38,0,0,1-.47.37,4.36,4.36,0,0,1-1.29-.46c-.07,0-.14-.09-.13-.18s.1-.12.17-.13a4.44,4.44,0,0,1,1.37,0A.36.36,0,0,1,27.25,16.39Z"/></g></svg>