<svg xmlns="http://www.w3.org/2000/svg" class="HeroAbility-icon HeroAbility-icon--hoverState" viewBox="0 0 40 40" preserveAspectRatio="xMidYMid meet"><g id="_Group_3" data-name="&lt;Group&gt;"><path id="_Compound_Path_2" data-name="&lt;Compound Path&gt;" d="M19.39,29.49a4.91,4.91,0,0,1-3.26-1.61,10.57,10.57,0,0,0-3.58-2.18,4.12,4.12,0,0,1-2.45-3.26.72.72,0,0,1,.29-.81,2.87,2.87,0,0,0,1-1.93,11.68,11.68,0,0,1,1.09-3.1.88.88,0,0,1,.82-.49,4.15,4.15,0,0,1,3.19.89.92.92,0,0,0,1,.09,7.18,7.18,0,0,1,5,0,1,1,0,0,0,1-.12,4.17,4.17,0,0,1,3.2-.86.79.79,0,0,1,.73.43,12.81,12.81,0,0,1,1.23,3.57,2.23,2.23,0,0,0,.81,1.38,1,1,0,0,1,.35,1.24,4,4,0,0,1-2.49,3,10.1,10.1,0,0,0-3.47,2.12,4.93,4.93,0,0,1-3.26,1.61ZM16,20.55a3.9,3.9,0,0,1,0-.39,1.46,1.46,0,0,0-2.09-1.28A1.62,1.62,0,0,0,13,20.6a1.62,1.62,0,0,0,1.89,1.54C15.7,22.11,16,21.71,16,20.55Zm8,.07c0,1.12.32,1.53,1.19,1.52A1.6,1.6,0,0,0,27,20.44c0-1.09-.59-1.73-1.56-1.71S24,19.38,24,20.62Zm-4.08,3.16h.37a5.35,5.35,0,0,0,3.14-1.2c.16-.11.39-.28.26-.48s-.33,0-.48.09-.57.32-.85.48a4.34,4.34,0,0,1-3.64.49,12.16,12.16,0,0,1-1.91-1c-.16-.08-.37-.34-.52-.09s.13.37.29.48A5.21,5.21,0,0,0,19.92,23.78Z"/><path id="_Path_11" data-name="&lt;Path&gt;" d="M21.35,10.51a3.79,3.79,0,0,0,1,.15,8.56,8.56,0,0,1,5.86,3.83,15.87,15.87,0,0,1,1.24,2.17,1.51,1.51,0,0,0,1.18.92c.35.07.45.26.46.59,0,2.1.09,4.2.13,6.3,0,.38-1,1-1.27.8s-.12-.32-.06-.49c.2-.6.39-1.2.62-1.79a1.16,1.16,0,0,0-.29-1.44,3,3,0,0,1-1-2,11.4,11.4,0,0,0-1.08-3.43,7.45,7.45,0,0,0-5.29-4.24,19,19,0,0,0-4.68-.15A7.34,7.34,0,0,0,14,13.31a7,7,0,0,0-2.45,3.2,15.45,15.45,0,0,0-1,3.4,2.27,2.27,0,0,1-.76,1.48,1.34,1.34,0,0,0-.37,1.7c.23.54.4,1.11.59,1.67.05.15.14.32,0,.46s-.31,0-.46,0c-.88-.28-.88-.28-.86-1.23,0-1.88.09-3.75.12-5.63,0-.44.08-.72.59-.81a1.21,1.21,0,0,0,1-.83,13.36,13.36,0,0,1,.68-1.23,9.06,9.06,0,0,1,4.14-4.1,6.6,6.6,0,0,1,2.63-.75,2,2,0,0,0,.72-.12Z"/><path id="_Path_12" data-name="&lt;Path&gt;" d="M6.29,19.33c.17-.29,0-.74.33-.94a7.39,7.39,0,0,1,1.69-.5c.26-.07.23.16.23.31,0,2.05,0,4.11,0,6.16,0,.33-.13.39-.41.26-.11-.05-.23-.08-.34-.13C6.45,24,6.43,24,6.4,22.55a13.2,13.2,0,0,0-.1-2.13Z"/><path id="_Path_13" data-name="&lt;Path&gt;" d="M33.71,20.43a10.88,10.88,0,0,0-.09,2.49,1.28,1.28,0,0,1-.9,1.39c-1.21.54-1.2.56-1.21-.74,0-1.73,0-3.46-.05-5.19,0-.44.09-.61.53-.42a1.08,1.08,0,0,0,.29.08c.84.1,1.46.43,1.43,1.41Z"/></g></svg>