<svg xmlns="http://www.w3.org/2000/svg" class="HeroAbility-icon HeroAbility-icon--hoverState" viewBox="0 0 40 40" preserveAspectRatio="xMidYMid meet"><g id="_Group_3" data-name="&lt;Group&gt;"><g id="_Group_4" data-name="&lt;Group&gt;"><path d="M32.36,19.52l-4.75-7.94c-.3-.51-1.22-.2-1.4.47L25.43,15H12a2,2,0,0,0-1.77,1.4L8.27,23.62a1,1,0,0,0,1,1.4H22.73L22,27.93c-.18.67.57,1,1.15.47l9-7.94A.79.79,0,0,0,32.36,19.52Z"/></g><path id="_Path_4" data-name="&lt;Path&gt;" d="M11.14,12.86c4.28.05,10,0,12.39,0q0-.53,0-1.06c0-.65-.46-1.13-.95-1-2.35.39-5.93.93-8.07,1.17l-3.15.33A3.39,3.39,0,0,1,11.14,12.86Z"/><path id="_Path_5" data-name="&lt;Path&gt;" d="M12.27,9.59l7.43-.21q-.08-.4-.19-.79c-.17-.65-.67-1-1.19-.91-1.84.45-4.2,1-5.76,1.41Z"/><path id="_Path_6" data-name="&lt;Path&gt;" d="M19.17,26.94c-.45,0-6.5.31-10.26.48a4.21,4.21,0,0,0,.77.62c3,.26,6.89.59,8.51.82a.88.88,0,0,0,.8-.35,5.69,5.69,0,0,0,.8-1.25A.82.82,0,0,0,19.17,26.94Z"/><path id="_Path_7" data-name="&lt;Path&gt;" d="M10,29.88q.28.3.55.62,1.56.51,3.12,1.1a1.74,1.74,0,0,0,2-.56l.49-.57C14.11,30.27,12.06,30.09,10,29.88Z"/></g></svg>