<svg xmlns="http://www.w3.org/2000/svg" class="HeroAbility-icon HeroAbility-icon--hoverState" viewBox="0 0 40 40" preserveAspectRatio="xMidYMid meet"><path d="M26.13,22.12l-.76,0a.77.77,0,0,1-.49.19l-1,.06c-1.74.34-3.51.55-5.26.84-1,.17-2,.38-3,.6a5.3,5.3,0,0,0-.18.62,13.05,13.05,0,0,1-1.26,3c-.14.29-.3.56-.46.84s-.26.15-.41.13-.21-.06-.22-.19a1.55,1.55,0,0,1,0-.65c.12-.39.42-.74.25-1.24a.55.55,0,0,0,.53,0c.12-.06.12-.16.12-.27a.16.16,0,0,0-.15-.18,3.32,3.32,0,0,1-1-.38,1.59,1.59,0,0,1-.79-.51.27.27,0,0,0-.43,0,2.56,2.56,0,0,1-.54.43.73.73,0,0,0-.33.59,2.8,2.8,0,0,1-.3,1,.75.75,0,0,1-.52.5.69.69,0,0,0-.3,1.07c0,.06.1.1.09.2a3.7,3.7,0,0,1-.32.94c-.18.37-.27.76-.47,1.12a1.32,1.32,0,0,0-.09.21c1.37-.69,2.75-1.38,4.14-2q1.49-.69,3-1.34l.17-.31c.07-.12.12-.26.31-.32l-.17.5a80,80,0,0,1,8.37-3c.73-.22,1.58-.5,2.48-.78A15.26,15.26,0,0,0,26.13,22.12Z"/><path d="M29.41,13.53a1.24,1.24,0,0,0,.17.43,2.15,2.15,0,0,1,.37.84c0,.1,0,.2,0,.3l.41,0L31.45,15v0a1.48,1.48,0,0,1,.16-.79,7.17,7.17,0,0,0,.39-1,.89.89,0,0,1,.58-.64c.17,0,.38-.09.34-.35s.11-.67-.3-.86c-.2-.09-.4-.25-.3-.52a.36.36,0,0,0-.18-.48,2.38,2.38,0,0,1-.49-.41.47.47,0,0,0-.28-.15L29.9,9.5c-.06,0-.13,0-.16,0s0,.12.08.17a1.58,1.58,0,0,0,.67.39c.08,0,.25.08.17.17s0,.33.08.44a.48.48,0,0,1-.15.78.76.76,0,0,0-.39.44,3.19,3.19,0,0,1-.19.39c0,.08-.09.2-.19.2s-.13-.13-.16-.22a1.55,1.55,0,0,0-.46-.73c-.14-.13-.29-.09-.28.08a3,3,0,0,0,.24,1.26A2.18,2.18,0,0,1,29.41,13.53Z"/><path d="M31.49,15.58,30,15.7A10.2,10.2,0,0,0,30,17c0,.07,0,.16-.11.1a2.05,2.05,0,0,1-.68-.7,2.47,2.47,0,0,0-.25-.54h0c-3.93.37-8.25,1-11.87,2.75a3.19,3.19,0,0,1,0,.66,3.2,3.2,0,0,0,0,.72c0,.27.06.54.1.81,0,0,0,0,0,.06a47.32,47.32,0,0,1,8.47-.28,1.37,1.37,0,0,1,.06-.47,15.73,15.73,0,0,0,.5-1.67c.08-.32.16-.34.43-.13s.64.45.94.71.94.64,1.37,1,1,1.06,1.57,1.55a.87.87,0,0,0,1.34-.28A3.92,3.92,0,0,0,32,18.08,11.26,11.26,0,0,1,31.49,15.58Z"/><path d="M16.07,12.77a1.23,1.23,0,0,0,1.22.23c-.11.35-.23.66-.31,1a.74.74,0,0,0,.22.79c.13.12.42.16.36.38s-.25.29-.38.43l-.14.11a.16.16,0,0,0-.08.17.9.9,0,0,1-.17.74.72.72,0,0,0,0,.68,6,6,0,0,1,.21.65c3.57-1.72,7.78-2.34,11.69-2.71a1,1,0,0,1,0-.3.47.47,0,0,0-.08-.27,2.09,2.09,0,0,0-1.41-1.11c-.11,0-.23,0-.29-.16a1,1,0,0,0-.43-.43.32.32,0,0,1-.11-.51,13.78,13.78,0,0,0,.94-1.86c.08-.17,0-.26-.14-.28s-.4-.06-.61-.06a19,19,0,0,0-2.18-.28c-.22,0-.24-.13-.16-.29a1,1,0,0,0,.06-.84,1.67,1.67,0,0,1-.12-.74,2.57,2.57,0,0,0-.72-1.81,1.26,1.26,0,0,1-.45-1c0-.21-.12-.33-.3-.42a2.84,2.84,0,0,1-.75-.45.89.89,0,0,0-1.11-.16,2.12,2.12,0,0,0-.48.32,13.35,13.35,0,0,0-1.14,1.16,6.34,6.34,0,0,0-1.43,2.76,1.12,1.12,0,0,0,.07.79,4.35,4.35,0,0,1,.33,1.35,1,1,0,0,1-.25.83,3.86,3.86,0,0,1-.46.44,1.41,1.41,0,0,1-1.81.09.85.85,0,0,0-.4-.2A2.65,2.65,0,0,0,16.07,12.77Z"/><path d="M24.92,27.46c-3.2.64-6.36,1.48-9.5,2.39,0,.07-.07.13-.17.07h0l-2.16.64c-1.67.5-3.34,1-5,1.57-.14.28-.17.28-.52.17l-.42.14h0a.31.31,0,0,0,.17.45l.24.1c.22.07.3.18.19.41a.29.29,0,0,0,0,.33c.21.24.12.41-.08.59a.29.29,0,0,0,0,.49l.74.6c.07.05.17.09.16.19a.28.28,0,0,0,.1.28q1.45-.79,2.91-1.55A7.77,7.77,0,0,0,10.7,34c-.13,0-.24-.11-.21-.3s.18-.14.29-.13a.57.57,0,0,0,.65-.42.53.53,0,0,1,.6-.4.51.51,0,0,0,.51-.27c.09-.15.19-.29.28-.44.23-.4.43-.44.81-.19s.52.2.72-.2c0-.09.09-.1.18-.07s.2.23.11.4a8.12,8.12,0,0,0-.44,1l1.57-.8A97.05,97.05,0,0,1,27.86,27C26.88,27.1,25.89,27.26,24.92,27.46Z"/></svg>