<svg xmlns="http://www.w3.org/2000/svg" class="HeroAbility-icon HeroAbility-icon--hoverState" viewBox="0 0 40 40" preserveAspectRatio="xMidYMid meet"><path d="M16.11,32.68c-.1-.55-.17-1.11-.32-1.65a2.82,2.82,0,0,0-.53-1.15c-.45-.48-.8-.33-.91.32-.15.86-.28,1.72-.43,2.58,0,.23-.1.46-.15.69h-.19c-.12-.64-.25-1.28-.36-1.93-.19-1.15-.39-2.29-.55-3.44a1.51,1.51,0,0,1,.15-.89q3.45-6,6.94-12c.36-.63.61-.63,1,0q3.48,6,6.94,12a1.27,1.27,0,0,1,.19.75c-.26,1.75-.56,3.49-.86,5.23a2.56,2.56,0,0,1-.26.49c-.2-1.19-.35-2.18-.55-3.16a4,4,0,0,0-.43-.9c-.31.3-.77.54-.91.91a11,11,0,0,0-.4,1.91,2.82,2.82,0,0,1-.22.43,7.09,7.09,0,0,0-.26-1.11c-.12-.27-.41-.72-.49-.7-.42.14-1,.22-1,.88,0,1,0,2.09,0,3.13,0,.6-.18.82-.79.79-1,0-1.94,0-2.91,0-.67,0-.84-.23-.81-.85,0-1,0-2,0-3,0-.71-.5-.81-.95-1-.09,0-.4.27-.48.47a7.54,7.54,0,0,0-.26,1.15Z"/><path d="M26.83,21.81a2.35,2.35,0,0,1-.23-.49,11.69,11.69,0,0,0-1.76-4.1c-1.38-2.31-2.7-4.65-4.05-7-.46-.79-.63-.78-1.1,0-1.7,2.91-3.42,5.8-5.07,8.73A10.59,10.59,0,0,0,14,21.07l-.21.65h-.19a25.43,25.43,0,0,0-.5-2.6,5,5,0,0,1,.74-4.29c2-3.29,3.91-6.69,5.85-10,.5-.87.67-.86,1.19,0,2.2,3.79,4.4,7.58,6.57,11.39a2.34,2.34,0,0,1,.24,1.36c-.16,1.25-.41,2.48-.64,3.72A4.32,4.32,0,0,1,26.83,21.81Z"/></svg>