<svg xmlns="http://www.w3.org/2000/svg" class="HeroAbility-icon HeroAbility-icon--hoverState" viewBox="0 0 40 40" preserveAspectRatio="xMidYMid meet"><g id="_Group_6" data-name="&lt;Group&gt;"><path id="_Path_6" data-name="&lt;Path&gt;" d="M20.47,25.3a3.43,3.43,0,0,1,0-.71,4.2,4.2,0,0,0-.16-1.35.71.71,0,0,0-.38-.43l-.21-.1a.24.24,0,0,1-.16-.25c0-.59,0-1.17,0-1.76a.55.55,0,0,1,.17-.41,2.37,2.37,0,0,0,.32-.43.71.71,0,0,0,.15-.5c0-.12.06-.22.06-.34s.08,0,.13-.08a.62.62,0,0,1,0,.32c0,.47,0,.94,0,1.41a.28.28,0,0,0,.18.28c.43.23.91.32,1.36.52a.82.82,0,0,0,.53,0c.22-.05.23-.05.33.15s.16.36.23.54a.52.52,0,0,0,.4.35c.12,0,.15.09.15.21a4.3,4.3,0,0,0,0,.72c0,.1,0,.17-.11.2l-.09,0c-.26.16-.27.17-.43-.1s-.37-.56-.57-.84a.4.4,0,0,0-.38-.19,2.52,2.52,0,0,0-1.06.33c-.13.06-.12.18-.12.3q0,.87,0,1.73C20.83,25.24,20.83,25.24,20.47,25.3Z"/><path id="_Path_7" data-name="&lt;Path&gt;" d="M19.6,17a.77.77,0,0,0,.08.59c-.3-.07-.52.06-.76,0a.92.92,0,0,0-.27,0H3.75a1.34,1.34,0,0,0-.43,0c.12.07.18.16.28.22a.59.59,0,0,1,.25.27,1.57,1.57,0,0,0,.5.54c.24.19.46.39.69.59a5.31,5.31,0,0,0,1.71,1,1.38,1.38,0,0,0,.55.05c.23,0,.3-.19.34-.4a.33.33,0,0,1,.22.18c.06.09,0,.16,0,.25-.27.31-.61.25-1,.22a1.49,1.49,0,0,1-.57-.24,10.57,10.57,0,0,1-1.39-.85,11.29,11.29,0,0,1-1.4-1.25,2.63,2.63,0,0,0-1-.64,1.24,1.24,0,0,0-.38-.08c-.5,0-1-.15-1.49-.18a3.74,3.74,0,0,0-.42-.05s-.06,0-.06-.07a.06.06,0,0,1,.07-.06c.48.07,1,0,1.44.12s.63-.06.94,0a.9.9,0,0,1,.38.07.79.79,0,0,0,.42,0H18.82c.22,0,.42,0,.58-.19C19.43,17.06,19.5,17,19.6,17Z"/><path id="_Path_8" data-name="&lt;Path&gt;" d="M20.23,16.9a.61.61,0,0,1,.42.2.57.57,0,0,0,.41.13H36.12c.48,0,1,0,1.43-.06a.89.89,0,0,1,.31,0c.14,0,.3,0,.44,0,.36,0,.72-.07,1.08-.07a.57.57,0,0,0,.34,0,.07.07,0,0,1,.11,0c0,.06,0,.07-.08.08l-1,.11a9.75,9.75,0,0,0-1.19.17,1.91,1.91,0,0,0-.91.54c-.38.41-.81.76-1.22,1.15a6.24,6.24,0,0,1-1,.75,8.28,8.28,0,0,1-.86.46,1.58,1.58,0,0,1-1.13.06.32.32,0,0,1-.19-.45.15.15,0,0,1,.15-.09.11.11,0,0,1,.1.11c0,.22.13.22.28.26a1.39,1.39,0,0,0,1-.13A6.26,6.26,0,0,0,36,18.32a2.57,2.57,0,0,1,.68-.66s.1,0,.1-.11a3.5,3.5,0,0,0-.56,0H21.35c-.11,0-.28-.09-.34.11,0,0,0,0-.06,0s-.24-.1-.37-.1-.19,0-.16-.16-.1-.31-.18-.46Z"/><path id="_Path_9" data-name="&lt;Path&gt;" d="M8,19.91a.43.43,0,0,1,.28,0,7.44,7.44,0,0,1,1.15.21,4.37,4.37,0,0,0,1.27.13h.61a6.88,6.88,0,0,0,1-.1,2.24,2.24,0,0,1,.56,0,.42.42,0,0,1,.3.15,2,2,0,0,0,1.12.68.24.24,0,0,1,.22.25.65.65,0,0,0,0,.21.25.25,0,0,1-.06.27,1.42,1.42,0,0,0-.31.86c0,.18,0,.17-.2.13a.84.84,0,0,1-.58-.41,6.08,6.08,0,0,0-.66-.9.31.31,0,0,0-.25-.13,1.27,1.27,0,0,1-.42-.07c-.73-.23-1.49-.31-2.24-.49l-1.64-.37c-.1,0-.16-.06-.16-.17S8,20,8,19.91Z"/><path id="_Compound_Path_4" data-name="&lt;Compound Path&gt;" d="M20.54,19.85c0-.25,0-.5,0-.74s.08-.2.2-.22.16.06.18.17.07.28.26.3a.5.5,0,0,0,.42-.17,2,2,0,0,0,.23-.29,2.34,2.34,0,0,1,1.22-.8,1.87,1.87,0,0,1,.55,0,.16.16,0,0,1,.13.08,1.61,1.61,0,0,1,.23.5.18.18,0,0,1-.11.24.58.58,0,0,0-.34.65c0,.26,0,.31-.31.28a1.17,1.17,0,0,0-.32,0,.29.29,0,0,0-.28.22c-.08.29-.14.33-.53.36H22c-.39,0-.48,0-.64.39s-.15.31-.46.18l-.07,0a.43.43,0,0,1-.33-.52,4.27,4.27,0,0,0,0-.58ZM23.43,19a.12.12,0,0,0-.13-.1.11.11,0,1,0,0,.23A.12.12,0,0,0,23.43,19Z"/><path id="_Path_10" data-name="&lt;Path&gt;" d="M16,21s0,0,0,.06a.71.71,0,0,1-.36.6c-.06,0-.09.1-.06.16a1.44,1.44,0,0,1,.1.86c.15-.06.15-.19.19-.28s.13-.35.3-.33.18.23.21.39a1.81,1.81,0,0,1-.09.84,2.59,2.59,0,0,1-.41-.16,3.61,3.61,0,0,0-.77-.31c-.18-.06-.38-.09-.56-.15s-.15-.08-.15-.19a1.26,1.26,0,0,1,.3-.78c.08-.09.15-.08.21,0a1,1,0,0,1,.12.49c0,.08,0,.16,0,.24s.1-.06.14-.1.17-.41.33-.57a.11.11,0,0,0,0-.1,2.3,2.3,0,0,1-.08-.66.14.14,0,0,0-.08-.12l-.27.42c0,.07-.09.15-.18.14s-.11-.1-.13-.18a2.71,2.71,0,0,1,0-.74c0-.06,0-.08.13-.07a5,5,0,0,1,.52.08l.77.15a3.22,3.22,0,0,0,.59.06c.09,0,.14,0,.12.12a1.53,1.53,0,0,1-.43.9c-.12.12-.19.1-.26-.05a1,1,0,0,1-.07-.47C16.06,21.21,16.1,21.1,16,21Z"/><path id="_Path_11" data-name="&lt;Path&gt;" d="M32.08,19.86c0,.32-.2.44-.45.54a9.84,9.84,0,0,1-2.29.58c-.46.07-.91.13-1.37.22-.22,0-.22,0-.23-.19s0-.41,0-.61,0-.28.26-.23a5.61,5.61,0,0,0,1.22,0c.57,0,1.13,0,1.7-.08a3.39,3.39,0,0,0,.93-.21A.39.39,0,0,1,32.08,19.86Z"/><path id="_Path_12" data-name="&lt;Path&gt;" d="M13.33,22.31a1.77,1.77,0,0,1-.71,0,.46.46,0,0,1-.29-.22.36.36,0,0,0-.29-.2l-2-.49a16.07,16.07,0,0,1-2.23-.74s-.09,0-.09-.08a.12.12,0,0,1,.07-.11.57.57,0,0,1,.37,0l.83.19c.8.19,1.61.35,2.42.51.35.07.68.21,1,.25a.47.47,0,0,1,.3.21C13,21.81,13.13,22,13.33,22.31Z"/><path id="_Path_13" data-name="&lt;Path&gt;" d="M27.12,21.51c0-.39,0-.78,0-1.17a2.73,2.73,0,0,0-.1-.81,5.06,5.06,0,0,1,0-1,.07.07,0,0,1,.08-.08c.07,0,.05.06,0,.1a1.38,1.38,0,0,0,0,.18.22.22,0,0,0,.15.23c.12,0,.18,0,.24-.13a.45.45,0,0,0,.06-.26c0-.1,0-.15.14-.14s.11.06.12.14a2.07,2.07,0,0,1-.16,1.15.46.46,0,0,0,0,.21q0,1.45,0,2.9a1.62,1.62,0,0,1,0,.32.24.24,0,0,1-.21.21c-.14,0-.22,0-.24-.17a2.2,2.2,0,0,1,0-.29C27.11,22.41,27.12,22,27.12,21.51Z"/><path id="_Path_14" data-name="&lt;Path&gt;" d="M27,20.17c0,.49,0,1,0,1.43a.16.16,0,0,1,0,.1,1.79,1.79,0,0,0-.33.6c-.13.28-.42.27-.65.39-.07,0-.14,0-.15-.1s0-.1,0-.16a1.25,1.25,0,0,0-.32-.66.35.35,0,0,1-.08-.31.57.57,0,0,1,.47-.56,1.62,1.62,0,0,0,.94-.66C26.82,20.2,26.88,20.2,27,20.17Z"/><path id="_Path_15" data-name="&lt;Path&gt;" d="M21,24.79a1.12,1.12,0,0,1,0-.37c0-.4,0-.8,0-1.2A.25.25,0,0,1,21.1,23a2.57,2.57,0,0,1,.78-.26.43.43,0,0,1,.44.18c.16.22.32.44.46.68s0,.16-.08.21a6.75,6.75,0,0,0-1.08.52,2.8,2.8,0,0,0-.37.34C21.18,24.7,21.12,24.8,21,24.79Z"/><path id="_Path_16" data-name="&lt;Path&gt;" d="M26.75,23.57c.48.52.78.51,1.21-.05a6.67,6.67,0,0,1,0,1,8.74,8.74,0,0,0,0,1.06c0,.25,0,.25-.25.25a7.6,7.6,0,0,1-.77-.05c-.09,0-.14,0-.14-.14C26.75,24.95,26.75,24.28,26.75,23.57Z"/><path id="_Path_17" data-name="&lt;Path&gt;" d="M19,26c0-.42-.27-.63-.45-.89a4.15,4.15,0,0,0-.34-.47.55.55,0,0,1-.1-.35,4.77,4.77,0,0,0-.21-1,1.13,1.13,0,0,0-.59-.75c-.1,0-.25-.09-.18-.27a.33.33,0,0,1,.42-.23.55.55,0,0,1,.45.4,5.31,5.31,0,0,0,.25.67,1,1,0,0,0,.58.51A.38.38,0,0,1,19,24c0,.56,0,1.12,0,1.68A.44.44,0,0,1,19,26Z"/><path id="_Path_18" data-name="&lt;Path&gt;" d="M23.91,18.08a1.38,1.38,0,0,1,.36,0,2,2,0,0,0,.63.07,8.4,8.4,0,0,0,1.32,0c.07,0,.1,0,.12.08a1.44,1.44,0,0,1,0,1.16s0,.1-.1.11l-.92.11c-.05-.06,0-.1,0-.14a1.06,1.06,0,0,0-.77-1,1.41,1.41,0,0,0-.34-.07A.28.28,0,0,1,23.91,18.08Z"/><path id="_Path_19" data-name="&lt;Path&gt;" d="M32.24,20.6a37.94,37.94,0,0,1-4.47,1.35,1,1,0,0,1,0-.44c0-.12.1-.13.18-.15A9.39,9.39,0,0,1,29,21.16a10.2,10.2,0,0,0,2.9-.73C32.09,20.35,32.09,20.36,32.24,20.6Z"/><path id="_Path_20" data-name="&lt;Path&gt;" d="M23.93,20.86a2.43,2.43,0,0,0,0,.51,1,1,0,0,1,0,.39c-.05.13-.1.15-.19.06a2,2,0,0,1-.46-.8.17.17,0,0,1,.15-.22c.37,0,.73-.16,1.11-.17a3.29,3.29,0,0,0,.55-.13c.18,0,.26,0,.27.18a2,2,0,0,1-.08.79c0,.11-.1.08-.16,0a.91.91,0,0,1-.34-.55c0-.08,0-.23-.11-.21s0,.15,0,.23a1.6,1.6,0,0,1-.09.73c-.06.13-.12.14-.2,0a1.84,1.84,0,0,1-.26-.61C24,21,24,20.92,23.93,20.86Z"/><path id="_Path_21" data-name="&lt;Path&gt;" d="M19.27,26.29a.53.53,0,0,1-.06-.34c0-.7,0-1.4,0-2.11a.31.31,0,0,0-.19-.34,1.52,1.52,0,0,1-.93-1.24,2,2,0,0,1,.13-1.09,1.16,1.16,0,0,1,.11.35,3,3,0,0,0,.24.76.64.64,0,0,0,.36.33l.07,0a.41.41,0,0,1,.31.47c0,1,0,1.9,0,2.85A.52.52,0,0,1,19.27,26.29Z"/><path id="_Path_22" data-name="&lt;Path&gt;" d="M32.52,19.82a.44.44,0,0,1,.25-.05,1.08,1.08,0,0,0,.38-.11c.15-.06.12-.32.37-.27s.29-.09.44-.15a7.59,7.59,0,0,0,1.73-.85c.06.08,0,.1,0,.13a5.45,5.45,0,0,1-.83.78,7.22,7.22,0,0,1-1.35.8,1,1,0,0,1-.67,0C32.63,20.09,32.61,19.94,32.52,19.82Z"/><path id="_Path_23" data-name="&lt;Path&gt;" d="M16.48,23.32a.1.1,0,0,1-.05-.11s0-.07,0-.11a1.65,1.65,0,0,1,.33-.88,10.09,10.09,0,0,0,1-1.87c0-.13.11-.16.24-.13s.23.06.23.23a.44.44,0,0,1,0,.13,4.64,4.64,0,0,0-.32,1.33c-.11,0-.17,0-.24-.07a.44.44,0,0,0-.62.18,1.26,1.26,0,0,0-.16.33q-.15.4-.31.8C16.57,23.22,16.56,23.3,16.48,23.32Z"/><path id="_Path_24" data-name="&lt;Path&gt;" d="M4.44,18.47c.22.09.41.21.63.3.39.17.78.36,1.17.54a.58.58,0,0,0,.29.1.17.17,0,0,1,.14.07,1.14,1.14,0,0,0,.66.32c.07,0,.15,0,.15.11a.18.18,0,0,1-.15.17.82.82,0,0,1-.32,0,3.93,3.93,0,0,1-1.5-.67,3.42,3.42,0,0,1-.67-.56C4.72,18.71,4.54,18.63,4.44,18.47Z"/><path id="_Path_25" data-name="&lt;Path&gt;" d="M25,22.73c0-.19,0-.34,0-.49a.56.56,0,0,1,0-.08c0-.14,0-.31.18-.36s.19.12.27.22a1.26,1.26,0,0,1,.19.52c0,.12,0,.18-.13.21a5.77,5.77,0,0,0-1.09.42.28.28,0,0,1-.08-.26,4.07,4.07,0,0,0,0-.58.29.29,0,0,1,.16-.33c.1,0,.25.09.32.24A2,2,0,0,0,25,22.73Z"/><path id="_Path_26" data-name="&lt;Path&gt;" d="M33.05,19.54c0-.14,0-.27-.11-.34a.18.18,0,0,0-.22,0c-.11.11-.07.23,0,.34s0,0,0,0a4,4,0,0,0-1.16.25,3,3,0,0,1-1.25.1c.47-.13.94-.26,1.4-.41a2.22,2.22,0,0,0,.68-.39.66.66,0,0,1,.61-.2c.12,0,.24,0,.28.19S33.19,19.43,33.05,19.54Z"/><path id="_Path_27" data-name="&lt;Path&gt;" d="M17.88,24.09a4.77,4.77,0,0,0-.56-.52c-.18-.13-.36-.34-.65-.23l.28-.71c0-.1.08-.11.18-.06a1.06,1.06,0,0,1,.6.68A2.74,2.74,0,0,1,17.88,24.09Z"/><path id="_Path_28" data-name="&lt;Path&gt;" d="M19.22,21c0,.59.11.5-.52.51-.22,0-.22,0-.29-.23s0-.46-.09-.68,0-.11.1-.11h.66a.12.12,0,0,1,.13.13Q19.22,20.77,19.22,21Z"/><path id="_Compound_Path_5" data-name="&lt;Compound Path&gt;" d="M9.79,20a.19.19,0,0,1-.19,0,9.5,9.5,0,0,0-2.16-.3,1.05,1.05,0,0,1-.57-.19c-.17-.12-.17-.25,0-.4a.62.62,0,0,1,.76,0,2.56,2.56,0,0,0,1.05.56Zm-2.63-.78a.15.15,0,0,0-.16.15.2.2,0,0,0,.2.21.18.18,0,0,0,.2-.17A.22.22,0,0,0,7.17,19.19Z"/><path id="_Path_29" data-name="&lt;Path&gt;" d="M27.79,22.34a.38.38,0,0,1,.21.37,1.43,1.43,0,0,1-.37,1,.4.4,0,0,1-.52,0,.62.62,0,0,1-.24-.28,3.21,3.21,0,0,0-.23-.59c-.06-.08,0-.17,0-.25a3.42,3.42,0,0,1,.2-.58c.09,0,.07.07.07.1,0,.3,0,.6,0,.91s.11.45.36.44a.42.42,0,0,0,.44-.46,4.51,4.51,0,0,1,0-.5A.21.21,0,0,1,27.79,22.34Z"/><path id="_Path_30" data-name="&lt;Path&gt;" d="M24.14,19a.46.46,0,0,1,.47.38.6.6,0,0,1-.51.57.5.5,0,0,1-.43-.46A.46.46,0,0,1,24.14,19Z"/><path id="_Path_31" data-name="&lt;Path&gt;" d="M17.57,20.43a1.51,1.51,0,0,1-.19.5c-.25.39-.45.8-.69,1.19a.33.33,0,0,1,0,.07c-.05.06-.07.19-.19.12a.24.24,0,0,1,0-.34,1.59,1.59,0,0,0,.49-.89.47.47,0,0,1,.12-.26s.07-.06,0-.09,0-.16.1-.24S17.43,20.49,17.57,20.43Z"/><path id="_Path_32" data-name="&lt;Path&gt;" d="M23.72,22.94a2.14,2.14,0,0,1,.08-.71c0-.05,0-.11.08-.13s.12,0,.16.07a1,1,0,0,1,.19.54,1,1,0,0,0,.06.39c.05.11,0,.14-.09.17l-.3.1c-.12,0-.17,0-.17-.12S23.72,23,23.72,22.94Z"/><path id="_Path_33" data-name="&lt;Path&gt;" d="M24.6,19.8l.06-.12a.53.53,0,0,0-.34-.82l-.1,0c-.11,0-.11-.14-.09-.22s.11-.07.17-.06A1.11,1.11,0,0,1,25,19,.52.52,0,0,1,24.6,19.8Z"/><path id="_Path_34" data-name="&lt;Path&gt;" d="M22.92,21.53c.09-.08.24-.11.2-.3a.83.83,0,0,1,.2.3,2,2,0,0,0,.26.36.36.36,0,0,1,.05.4.13.13,0,0,1-.16.07.37.37,0,0,1-.27-.19C23.09,22,23,21.75,22.92,21.53Z"/><path id="_Path_35" data-name="&lt;Path&gt;" d="M19,21.88c.45,0,.36,0,.37.36s-.08.38-.38.23-.26-.3-.33-.49,0-.1.08-.1Z"/><path id="_Path_36" data-name="&lt;Path&gt;" d="M27.1,26l.69,0c.07,0,.12,0,.12.1s0,.14-.11.14h-.92c-.09,0-.12,0-.12-.13s0-.13.12-.14l.24,0Z"/><path id="_Path_37" data-name="&lt;Path&gt;" d="M26.85,18.8c0,.11,0,.21,0,.32a.46.46,0,0,1-.08.22.11.11,0,0,1-.14,0c-.06,0,0-.07,0-.11a4.26,4.26,0,0,0-.05-.88c0-.06,0-.13,0-.15s.16,0,.2.08a.59.59,0,0,1,0,.21c0,.09,0,.18,0,.27Z"/><path id="_Path_38" data-name="&lt;Path&gt;" d="M19.71,17.25A.24.24,0,0,1,20,17a.32.32,0,0,1,.29.32.23.23,0,0,1-.25.25A.3.3,0,0,1,19.71,17.25Z"/><path id="_Path_39" data-name="&lt;Path&gt;" d="M26.38,20.45a1.82,1.82,0,0,1-.72.39c-.07,0-.15.05-.17-.06s0-.2.09-.24a2.3,2.3,0,0,1,.44-.07C26.14,20.47,26.24,20.38,26.38,20.45Z"/><path id="_Path_40" data-name="&lt;Path&gt;" d="M20.24,16.9l-.1,0c-.08,0-.19,0-.25-.08s.07-.13.08-.2,0-.23,0-.34,0-.07.05-.08.06,0,.07,0a2.18,2.18,0,0,1,.16.65.24.24,0,0,1,0,.07Z"/><path id="_Path_41" data-name="&lt;Path&gt;" d="M13.62,20.43l.59.1h.08c.19,0,.3.13.24.23s-.19,0-.28,0a1.78,1.78,0,0,1-.49-.2C13.71,20.54,13.65,20.52,13.62,20.43Z"/><path id="_Path_42" data-name="&lt;Path&gt;" d="M24.87,22c-.29-.18-.29-.19-.1-.59C25.1,21.65,25.1,21.67,24.87,22Z"/><path id="_Path_43" data-name="&lt;Path&gt;" d="M27.8,26.41c0,.1-.06.13-.12.13H27s-.07,0-.08-.05,0-.08.08-.08Z"/><path id="_Path_44" data-name="&lt;Path&gt;" d="M19.4,20.57c-.07-.26-.07-.26-.3-.27h-.53c0-.05,0-.08,0-.08h.93Z"/><path id="_Path_45" data-name="&lt;Path&gt;" d="M15.2,21.38c.11.34.11.34-.07.59C15,21.67,15,21.67,15.2,21.38Z"/><path id="_Path_46" data-name="&lt;Path&gt;" d="M15.89,21.63c.17.3.17.3-.08.47C15.64,21.84,15.64,21.84,15.89,21.63Z"/><path id="_Path_47" data-name="&lt;Path&gt;" d="M19.2,21.66a.9.9,0,0,1-.65,0A1,1,0,0,1,19.2,21.66Z"/><path id="_Path_48" data-name="&lt;Path&gt;" d="M24.21,22.13c-.24-.21-.24-.21-.11-.47C24.2,21.8,24.38,21.91,24.21,22.13Z"/></g></svg>