<svg xmlns="http://www.w3.org/2000/svg" class="HeroAbility-icon HeroAbility-icon--hoverState" viewBox="0 0 40 40" preserveAspectRatio="xMidYMid meet"><path d="M19.47,18.28a16.09,16.09,0,0,1-5.78-1.2,6.86,6.86,0,0,1-1.43-.85,2.54,2.54,0,0,1-.63-3.55,9.07,9.07,0,0,1,7.31-4.61A10.4,10.4,0,0,1,24.28,9a6.13,6.13,0,0,1,1.11.72A15,15,0,0,1,27.67,12a3.68,3.68,0,0,1,.87,2.39,2.09,2.09,0,0,1-.65,1.49,6.22,6.22,0,0,1-2.61,1.53A17.84,17.84,0,0,1,19.47,18.28Zm4.25-6.23a1.41,1.41,0,0,0,.75-.43,1.06,1.06,0,0,0-.07-1.76,2.6,2.6,0,0,0-.4-.23,9,9,0,0,0-6.34-.73,8,8,0,0,0-2.19.87A1.13,1.13,0,0,0,15,11.29a2.35,2.35,0,0,0,1,.79c.11-.31,0-.57,0-.83s-.12-.57.14-.87a9.92,9.92,0,0,1,1.42,1.28c-.26.31-.7.29-.85.73a11.13,11.13,0,0,0,6.38,0c-.18-.42-.63-.39-.86-.73a8.58,8.58,0,0,1,1.48-1.28C23.93,11,23.67,11.5,23.72,12.05Z"/><path d="M15.52,23.73l-2.25-3.84c-.22,0-.2.27-.45.23-.25-.84-.48-1.7-.67-2.67a15.1,15.1,0,0,0,15.37,0,18.14,18.14,0,0,1-.6,2.64c-.27.08-.22-.21-.44-.26l-2.2,3.76-.14,0-1-2.73c-.24,0-.29.17-.38.28l-2.37,3.06c-.14.18-.27.38-.51.44s-.44-.2-.59-.39l-2.3-3a1.29,1.29,0,0,0-.45-.46C16.18,21.73,16,22.71,15.52,23.73Z"/><path d="M15.33,26.95a13.57,13.57,0,0,0,2,.86c.34,2.06,1.13,3,2.53,2.94s2.2-.92,2.52-2.89a12.67,12.67,0,0,0,2-.89c.63,1.13,0,3.26-1.27,4.47a4.72,4.72,0,0,1-5.72.55A4.59,4.59,0,0,1,15.33,26.95Z"/><path d="M13.88,22.23a1.33,1.33,0,0,1,.47.59l1.22,2.09a.75.75,0,0,0,.59.46c.3-.94.36-1.95.66-2.89l.13,0L19.39,26a1.67,1.67,0,0,0,1,0l2.51-3.66c.35,1.09.43,2.09.7,3,.35,0,.48-.23.6-.44.41-.68.8-1.36,1.2-2a1.58,1.58,0,0,1,.45-.58,4.59,4.59,0,0,1-.53,2.12,4.39,4.39,0,0,1-2.35,2,7.28,7.28,0,0,1-7.54-.85A4.2,4.2,0,0,1,13.88,22.23Z"/><path d="M30.6,26.79a1.46,1.46,0,0,1,.26-.74,12.13,12.13,0,0,0-.79-13.61,22.27,22.27,0,0,1-1.64-2.77A22.85,22.85,0,0,0,27.1,7.52a3.6,3.6,0,0,1-.46-.76c1.92.21,5.56,4.62,6.46,7.8A13.21,13.21,0,0,1,30.6,26.79Z"/><path d="M7.48,18.59a12.14,12.14,0,0,0,5,9.35,5.1,5.1,0,0,1,1.14-2.57,10.23,10.23,0,0,0,.53,3.85,10.26,10.26,0,0,0,2.22,3.18A11.37,11.37,0,0,1,9.72,28C7.72,25.38,6.67,21.06,7.48,18.59Z"/><path d="M24.52,33.28a9.34,9.34,0,0,0,1.83-2.87.92.92,0,0,1,.47-.4,14.31,14.31,0,0,0,7.29-8.79c0-.15,0-.35.25-.39.32.9-.72,4.49-2.25,6.73A14,14,0,0,1,24.52,33.28Z"/><path d="M5.58,18.48a14.41,14.41,0,0,1,2.08-6.29A13.65,13.65,0,0,1,13.83,6.7c.16.24,0,.39-.16.53a20.75,20.75,0,0,0-2.51,3.16,3.45,3.45,0,0,1-.67.67A15.07,15.07,0,0,0,6,18C5.92,18.19,5.93,18.4,5.58,18.48Z"/><path d="M25.47,30.08a9.94,9.94,0,0,0-.15-4c.46.12.58.52,1,.73A11.93,11.93,0,0,0,30,19.43C31.29,22.07,28.54,28.45,25.47,30.08Z"/><path d="M18,28a11,11,0,0,0,3.71,0,1.77,1.77,0,0,1-.83,1.9,1.93,1.93,0,0,1-2.24-.09A1.67,1.67,0,0,1,18,28Z"/><path d="M13.22,31.52,14,33a1.74,1.74,0,0,1,.05.26,13.76,13.76,0,0,1-6-5.21A16.71,16.71,0,0,0,13.22,31.52Z"/><path d="M21.33,9.47a8.17,8.17,0,0,1,.73,2.18,7.08,7.08,0,0,0-4.39,0,9.52,9.52,0,0,1,.74-2.18c.75.22.8,1.11,1.45,1.4C20.52,10.65,20.58,9.76,21.33,9.47Z"/></svg>