<svg xmlns="http://www.w3.org/2000/svg" class="HeroAbility-icon HeroAbility-icon--hoverState" viewBox="0 0 40 40" preserveAspectRatio="xMidYMid meet"><g id="_Group_7"><path id="_Path_7" d="M21.98,11.78c-0.05,0.07-0.3,0.07-0.43,0c-1.21-0.57-10.4-0.89-9-0.57c0.58,0.14,8.25,4.75,8.58,5.81&#10;&#9;&#9;&#9;c-0.37,0.47-0.82,0.87-1.32,1.2c2.59,0.14,4.76,0.25,5.15,0.25c0.39,0,0.39,0,0.39-0.33c0-0.69,0-1.38,0-2.07&#10;&#9;&#9;&#9;c0-0.07-0.03-0.15,0.05-0.23l0.26,0.23l3,2.83l1.45,1.36c0.03,0.02,0.05,0.04,0.07,0.07c0.05,0.09,0.02,0.21-0.07,0.26l-0.42,0.4&#10;&#9;&#9;&#9;l-3.49,3.26l-0.87,0.8c0-0.13,0-0.21,0-0.28c0-0.7,0-1.4,0-2.11c0-0.27-0.1-0.27-0.32-0.27c-0.22,0-5.11,0.83-4.87,0.89&#10;&#9;&#9;&#9;c0.84,0.2,1.62,0.57,2.3,1.1c-1.72,3.75-9.27,4.51-9.51,4.61c1.05,0.91,8.15,1.59,9.51,0.53c-1.09,0.76-2.27,1.35-3.53,1.77&#10;&#9;&#9;&#9;c-1.26,0.45-2.56,0.77-3.86,1.16c0.08,0.03,0.16,0.03,0.24,0c0.74,0,1.47,0,2.21,0c0.84-0.01,1.68-0.09,2.51-0.26&#10;&#9;&#9;&#9;c1.44-0.21,2.86-0.55,4.25-1c0.21-0.09,0.43-0.14,0.66-0.16c0.23-0.04,0.45-0.13,0.65-0.25c1.32-0.64,2.52-1.49,3.55-2.53&#10;&#9;&#9;&#9;c0.73-0.66,1.37-1.42,1.9-2.25h0.07c-0.1,0.9-0.38,1.77-0.83,2.56c0.12-0.01,0.19-0.13,0.19-0.13c0.24-0.27,0.46-0.56,0.65-0.86&#10;&#9;&#9;&#9;c0.31-0.47,0.59-0.99,0.91-1.47c0.56-0.89,0.97-1.87,1.21-2.89c0.15-0.56,0.23-1.13,0.24-1.71c0.05-1-0.01-2.01-0.18-3&#10;&#9;&#9;&#9;c-0.25-1.46-0.78-2.86-1.57-4.12c-0.97-1.43-2.19-2.67-3.59-3.68c-0.58-0.45-1.18-0.85-1.82-1.21c-0.05,0-0.08-0.05-0.18,0&#10;&#9;&#9;&#9;s0,0.11,0,0.16c0.27,0.43,0.57,0.83,0.89,1.22c0.08,0.04,0.08,0.07,0.08,0.17l-0.25-0.19c-0.87-0.6-1.78-1.11-2.74-1.55&#10;&#9;&#9;&#9;c-1.89-0.77-3.86-1.32-5.88-1.64c-1.54-0.29-3.1-0.46-4.67-0.53c-0.62-0.06-1.24-0.06-1.87-0.06c1.07,0.18,2.07,0.55,3.07,0.81&#10;&#9;&#9;&#9;c1.46,0.39,2.88,0.91,4.24,1.55c1,0.49,1.93,1.12,2.76,1.86C21.87,11.39,22.03,11.71,21.98,11.78z"/><path d="M8.13,20.35v0.9c0.01,0.83,0.67,1.49,1.5,1.51l0,0l8-0.12h0.21v1.17c0,0.51,0.42,0.93,0.93,0.93s0.93-0.42,0.93-0.93&#10;&#9;&#9;&#9;l-0.05-6.39c0-0.51-0.42-0.93-0.93-0.93s-0.93,0.42-0.93,0.93v1.29h-0.21l-8,0.12H9.51C8.72,18.91,8.13,19.56,8.13,20.35z&#10;&#9;&#9;&#9; M15.97,20.49l0.44-0.59c0.02-0.02,0.04-0.05,0.06-0.06c0.15-0.11,0.36-0.09,0.48,0.06l0.45,0.59c0.09,0.12,0.09,0.29,0,0.41&#10;&#9;&#9;&#9;l-0.44,0.59c-0.02,0.02-0.04,0.05-0.06,0.06c-0.15,0.11-0.36,0.09-0.48-0.06l-0.45-0.59C15.87,20.78,15.87,20.61,15.97,20.49z&#10;&#9;&#9;&#9; M13.69,20.92c-0.11-0.12-0.11-0.3,0-0.43l0.44-0.59c0.02-0.02,0.04-0.05,0.06-0.06c0.15-0.11,0.36-0.09,0.48,0.06l0.45,0.59&#10;&#9;&#9;&#9;c0.09,0.12,0.09,0.29,0,0.41l-0.44,0.59c-0.02,0.02-0.04,0.05-0.06,0.06c-0.15,0.11-0.36,0.09-0.48-0.06l-0.45-0.59L13.69,20.92z&#10;&#9;&#9;&#9; M11.42,20.93c-0.11-0.12-0.11-0.31-0.01-0.44l0.44-0.59c0.02-0.02,0.04-0.05,0.06-0.06c0.15-0.11,0.36-0.09,0.48,0.06l0.45,0.59&#10;&#9;&#9;&#9;c0.09,0.12,0.09,0.29,0,0.41l-0.44,0.59c-0.02,0.02-0.04,0.05-0.06,0.06c-0.15,0.11-0.36,0.09-0.48-0.06l-0.45-0.59L11.42,20.93z"/></g></svg>