<svg xmlns="http://www.w3.org/2000/svg" class="HeroAbility-icon HeroAbility-icon--hoverState" viewBox="0 0 40 40" preserveAspectRatio="xMidYMid meet"><path id="_Compound_Path_" data-name="&lt;Compound Path&gt;" d="M33.59,16.89A8.92,8.92,0,0,1,30.72,24c-.63.64-1.23,1.32-1.83,2a2.28,2.28,0,0,1-3.75,0L24,24.73c-2.36-2.69-5.85-2.58-8.1.29-.86,1.1-1.75,2.09-3.06,2-.26,0-.55,0-.76-.23-1.8-1.95-3.89-3.5-5-6.39a9.35,9.35,0,0,1-.4-5.2c.25-1.35.91-1.85,1.92-1.47s1.73.75,2.58,1.16a1.15,1.15,0,0,1,.43.39c1,1.5,2.25,1.92,3.66,1.27a4.12,4.12,0,0,1,2.78.15,13.17,13.17,0,0,0,5.17-.2,2.34,2.34,0,0,1,2.12.37c.62.52,2.62-.17,3-1a2.22,2.22,0,0,1,1.29-1.28c.59-.25,1.17-.52,1.76-.76,1.42-.56,2.21.21,2.25,2.17C33.59,16.27,33.59,16.58,33.59,16.89ZM20,21.28h1.85a24.86,24.86,0,0,0,9-1.87,2.58,2.58,0,0,0,1.39-1.33,1.1,1.1,0,0,0,0-1c-.23-.41-.46,0-.69.1a8.42,8.42,0,0,1-1.4.7c-4.16,1.22-8.35,2.21-12.63,1.63-3.15-.43-6.32-.78-9.28-2.46-.19-.11-.39-.26-.55,0a.87.87,0,0,0,0,.77,2.52,2.52,0,0,0,1.46,1.55A25.69,25.69,0,0,0,20,21.28Z"/></svg>