<svg xmlns="http://www.w3.org/2000/svg" class="HeroAbility-icon HeroAbility-icon--hoverState" viewBox="0 0 40 40" preserveAspectRatio="xMidYMid meet"><g id="_Group_2" data-name="&lt;Group&gt;"><path id="_Compound_Path_2" data-name="&lt;Compound Path&gt;" d="M22.94,32l1.16-.35.05,0c.29-.17.64-.33,1-.49s.61-.41.92-.6l.92-.73.17-.22a1.81,1.81,0,0,1,.33-.32s0,0,0,0c0-.22.15-.35.27-.49a5.31,5.31,0,0,0,.65-1.28,4.18,4.18,0,0,0,.4-1.35,4.94,4.94,0,0,0,.09-1.63,1.66,1.66,0,0,1,.14-.7c.26-1.08.55-2.16.8-3.25a6.29,6.29,0,0,0,.12-1,7.68,7.68,0,0,0,0-.87,3.31,3.31,0,0,0-.63-1.81,8.7,8.7,0,0,0-2.82-2.38,15,15,0,0,0-2.12-.95c-.25-.1-.48-.25-.83-.36.32.57-.13.8-.39,1.12a2.73,2.73,0,0,1-1.11.6,7,7,0,0,1-2.05.44,8.83,8.83,0,0,1-1.35.09,11.32,11.32,0,0,1-3.29-.52,3.5,3.5,0,0,1-1.23-.72,1.31,1.31,0,0,1-.4-1L11.7,14a9.67,9.67,0,0,0-2.16,1.31,7.06,7.06,0,0,0-.88.75,4.27,4.27,0,0,0-.82,1.18c-.11.27-.18.55-.29.82a1.32,1.32,0,0,0,0,.55c0,.45,0,.91.05,1.36a11.18,11.18,0,0,0,.32,1.56c.19.85.41,1.7.61,2.55a.64.64,0,0,1,0,.19,7.35,7.35,0,0,0,.61,3.42,7.88,7.88,0,0,0,1.09,1.63,5.66,5.66,0,0,0,1.42,1.19,9.77,9.77,0,0,0,3.46,1.53,10,10,0,0,0,1.33.32l.72.08c.49,0,1,.12,1.47.13.22,0,.45,0,.67,0A14.32,14.32,0,0,0,22.74,32,.28.28,0,0,1,22.94,32Zm-1.63-3.47c-.59,0-1.17,0-1.76.05-.2,0-.23.09-.22.25,0,.44,0,.88,0,1.31s0,.53-.53.55a15.42,15.42,0,0,1-3.17-.32.33.33,0,0,1-.3-.37c0-.49,0-1,0-1.46,0-.2-.06-.26-.26-.3a9.57,9.57,0,0,1-1.88-.43.49.49,0,0,1-.35-.51q0-.58,0-1.16h0c0-.42,0-.84,0-1.25s.17-.47.51-.36c.52.18,1.07.24,1.6.37.21.05.29,0,.28-.23,0-.52,0-1,0-1.55,0-.36.1-.49.45-.47q1.56.1,3.12.24c.33,0,.47.23.48.58s0,1,0,1.43c0,.24.08.31.31.3.6,0,1.19,0,1.79,0,.23,0,.43.08.44.34,0,.84,0,1.67,0,2.51C21.83,28.37,21.63,28.51,21.32,28.52Z"/><path id="_Path_3" data-name="&lt;Path&gt;" d="M13.94,12.05c0,.09.09.18.14.27s.14.25,0,.39a.1.1,0,0,0,0,.13,2.08,2.08,0,0,0,.69.91,7.79,7.79,0,0,0,2.32.77c.34.09.69,0,1,.09s.63,0,.94,0a4.72,4.72,0,0,0,1.05-.1c.29,0,.58-.11.88-.13a3.64,3.64,0,0,0,.92-.26,3.12,3.12,0,0,0,1.23-.67.93.93,0,0,0,.3-.89c0-.11,0-.2.08-.25s.15.07.2.12a5.35,5.35,0,0,0,1.36,1.07,4.9,4.9,0,0,0,1.14.36,4.22,4.22,0,0,0,1.14.14,7.85,7.85,0,0,0,1.54-.13,8.9,8.9,0,0,0,1.73-.82,9.86,9.86,0,0,0,1.13-.64,1,1,0,0,0,.43-.66c.07-.39.18-.76.26-1.15s.09-.6-.36-.78a.68.68,0,0,1-.31-.18A2.23,2.23,0,0,0,30.44,9a19.16,19.16,0,0,0-2-.38,1,1,0,0,0-.45,0,1.52,1.52,0,0,1-1-.08,2.81,2.81,0,0,0-1.18-.06A10.58,10.58,0,0,0,23.44,9c-.34.11-.71.37-.65.73,0,.06,0,.12.08.15a3.72,3.72,0,0,1,.64.46.9.9,0,0,1,.34.75,2.36,2.36,0,0,0,0,.46c0,.12-.1.17-.17.24a3.81,3.81,0,0,1-1.63.87,9.08,9.08,0,0,1-1.93.34,7.64,7.64,0,0,1-1.23.1,16,16,0,0,1-3.34-.41,7.46,7.46,0,0,1-1.33-.58L14,12Z"/><path id="_Path_4" data-name="&lt;Path&gt;" d="M21.14,8.6a4.23,4.23,0,0,1-2.43.48,3.44,3.44,0,0,1-2.32-.61,4,4,0,0,1,.06.86.2.2,0,0,1-.2.24,3.71,3.71,0,0,0-1.38.53c-.24.12-.27.4-.42.6s.06.1.09.16a1.35,1.35,0,0,0,.68.66,7.42,7.42,0,0,0,2.14.57,4.08,4.08,0,0,0,.92,0c.24,0,.46.07.7.05a10.47,10.47,0,0,0,3.21-.54,2.76,2.76,0,0,0,.8-.57c.16-.14,0-.63-.11-.78a3.58,3.58,0,0,0-1.65-.77c-.11,0-.09-.1-.09-.17C21.14,9.12,21.14,8.87,21.14,8.6Z"/><path id="_Path_5" data-name="&lt;Path&gt;" d="M18.59,8.36a4.57,4.57,0,0,0,1.77-.25c.09,0,.19-.07.2-.21s-.09-.18-.18-.23a1.94,1.94,0,0,0-.89-.24,5.37,5.37,0,0,0-2,.13c-.17.05-.39.12-.38.31s.19.25.37.3A4.11,4.11,0,0,0,18.59,8.36Z"/></g></svg>