<svg xmlns="http://www.w3.org/2000/svg" class="HeroAbility-icon HeroAbility-icon--hoverState" viewBox="0 0 40 40" preserveAspectRatio="xMidYMid meet"><g id="_Group_6" data-name="&lt;Group&gt;"><path id="_Compound_Path_4" data-name="&lt;Compound Path&gt;" d="M14.09,17c0,.13,0,.23,0,.33s0,.21.07.26.21,0,.31-.07.1-.13,0-.21a2.57,2.57,0,0,1,.48,0c.17,0,.18,0,.22-.19s.08-.1.15-.1h1.86c.22,0,.22,0,.22.22s0,.71-.06,1.07a12,12,0,0,0,0,1.22c0,.11,0,.23.06.31a.34.34,0,0,1-.2.09,1.3,1.3,0,0,0-.6.35,5,5,0,0,0-.85,1.09,2.59,2.59,0,0,0-.3,1c0,.14,0,.28,0,.42s0,.14-.15.14H6.69a.22.22,0,0,1-.23-.14c-.06-.13-.12-.27-.17-.41A5,5,0,0,1,6,20.89c0-.31,0-.63,0-.94a10.78,10.78,0,0,1,.25-2.36c0-.15.1-.3.14-.45A.18.18,0,0,1,6.58,17h7.51Zm1.72.19s-.09-.06-.13,0a2.86,2.86,0,0,1-.33.33,1,1,0,0,0-.16.2c-.08.12,0,.19.1.21a2.27,2.27,0,0,0,.31,0,.11.11,0,0,0,.13-.1.11.11,0,0,0-.09-.14s-.07,0-.06-.06a.83.83,0,0,1,.23-.28,3.25,3.25,0,0,1,0,.57,1.16,1.16,0,0,0,0,.21.08.08,0,0,0,.11.08c.07,0,.14,0,.15-.12a.21.21,0,0,1,.15-.18.11.11,0,0,0,0-.2c-.12,0-.13-.13-.13-.23s0-.17,0-.26,0-.2-.2-.14a.21.21,0,0,0-.11.1Zm-2.35,1.07h.23a.07.07,0,0,0,0-.05s0-.06,0-.06l-.21,0c-.08,0-.14,0-.13-.12s.06-.12.14-.12h.21s.07,0,.06-.07a.08.08,0,0,0,0,0l-.26,0a.07.07,0,0,1,0-.05.07.07,0,0,1,0-.06l.26,0a.08.08,0,0,0,.05,0s0-.06-.06-.07h-.26c-.25,0-.27,0-.3.24,0,.06,0,.12,0,.18C13.1,18.33,13.18,18.25,13.45,18.26Zm1.19,0h0a.52.52,0,0,0,.35-.44c0-.18-.09-.29-.2-.4s-.11-.08-.16,0,0,.12,0,.19l0,0a.29.29,0,0,1-.06.4s-.09.05-.1.11S14.57,18.24,14.64,18.24Zm-.49-.43c-.12,0-.16.05-.12.16a.44.44,0,0,0,.3.27c.12,0,.19,0,.16-.16A.42.42,0,0,0,14.15,17.81Z"/><path id="_Path_9" data-name="&lt;Path&gt;" d="M30.27,15.72a.15.15,0,0,0-.16,0,7.66,7.66,0,0,0-.87.28.2.2,0,0,0-.15.21c0,.35,0,.7,0,1a.17.17,0,0,0,.17.19,5,5,0,0,1,.77.23c.1,0,.19.1.29.12s.14.11.14.21a.18.18,0,0,1-.15.18,6.4,6.4,0,0,1-.71.17l-.2,0c-.19,0-.19,0-.19.24s0,.61,0,.91c0,.11,0,.16.15.19s.46.16.69.24a3.56,3.56,0,0,0,.35.12.28.28,0,0,1,.24.29c0,.14,0,.28,0,.42a.11.11,0,0,1-.13.13H22.85a1.3,1.3,0,0,1-.39,0c-.09,0-.13-.07-.13-.16s0-.33,0-.5A.22.22,0,0,1,22.5,20c.33-.11.62-.32,1-.41a1,1,0,0,0,.16-.08.12.12,0,0,0,.08-.12c0-.28,0-.56,0-.84s0-.16-.18-.2c-.37-.08-.71-.25-1.07-.34a.15.15,0,0,1-.11-.15q0-.18,0-.36a.15.15,0,0,0-.17-.15,1.69,1.69,0,0,0-.66.09c-.38.16-.76.3-1.13.48a.35.35,0,0,1-.45,0s-.13-.06-.18-.12.09-.07.13-.09l.63-.32a6.24,6.24,0,0,1,.72-.31,2,2,0,0,1,.54-.07c.47,0,.94,0,1.41,0a.19.19,0,0,1,.16,0l-.73.23-.2.07a.06.06,0,0,0,0,.09.07.07,0,0,0,.09,0l.62-.19c.13,0,.25-.15.39,0a.07.07,0,0,0,.07,0c.05-.1.15-.1.24-.13a.09.09,0,0,0,.07-.12,2.94,2.94,0,0,1,0-.68c0-.24,0-.25-.25-.32l-.76-.2-.18,0c-.27-.08-.27-.08-.28-.37s0-.33,0-.49,0-.12.12-.12a14.94,14.94,0,0,1,1.51,0c.52.06,1,0,1.56,0,.87,0,1.74,0,2.6.07.64,0,1.28,0,1.92.06.26,0,.3,0,.31.3A2.48,2.48,0,0,1,30.27,15.72Z"/><path id="_Path_10" data-name="&lt;Path&gt;" d="M5.61,23.33H3.29c-.15,0-.3,0-.44,0a.32.32,0,0,1-.32-.18,3.72,3.72,0,0,1-.47-1.27,13,13,0,0,1-.22-3.09,10.83,10.83,0,0,1,.3-2.25.76.76,0,0,1,.11-.26.39.39,0,0,1,.35-.19H5a.46.46,0,0,1,.29,0c0,.13-.07.26-.11.39a9.54,9.54,0,0,0-.4,2.57c0,.42,0,.84,0,1.25a6.92,6.92,0,0,0,.33,2c.05.15.11.29.16.44A1,1,0,0,0,5.61,23.33Z"/><path id="_Compound_Path_5" data-name="&lt;Compound Path&gt;" d="M2.76,15.94a2.75,2.75,0,0,1,.49-1.08.26.26,0,0,1,.25-.11h2.2a.28.28,0,0,1,.3.15,2.6,2.6,0,0,0,.25.3c.06.09.18.08.29.08h13.8a.47.47,0,0,0,.2,0l1.22-.53a1.19,1.19,0,0,1,.06.63.06.06,0,0,1-.08,0,1.29,1.29,0,0,0-.86.13,6.9,6.9,0,0,0-.9.36,1.06,1.06,0,0,1-.5.1c-.57,0-1.13,0-1.7,0-1.29,0-2.58-.05-3.86,0h-.44a.24.24,0,0,0-.27.19l-.1.32a.27.27,0,0,1-.29.21H11.4c-.21,0-.27,0-.33-.22s-.14-.26-.17-.4a.1.1,0,0,0-.11-.08H6.61c-.19,0-.34,0-.4.23A.26.26,0,0,1,6,16.3a.2.2,0,0,1-.24,0s-.09-.06-.12-.1a.63.63,0,0,0-.6-.23H2.76ZM12,15.57a.2.2,0,0,0-.23-.2.21.21,0,0,0-.2.22.22.22,0,0,0,.23.19A.2.2,0,0,0,12,15.57Z"/><path id="_Path_11" data-name="&lt;Path&gt;" d="M33.75,14.8a1,1,0,0,0,.42.05c.42,0,.84,0,1.25,0,.1,0,.13,0,.12.12a3.93,3.93,0,0,0,0,.88c0,.3,0,.6.07.9a6.67,6.67,0,0,1,0,.7,21.84,21.84,0,0,0,.17,2.42,1.82,1.82,0,0,1,0,.31,4.26,4.26,0,0,0,0,.76c0,.14,0,.16-.13.16H34.24C34,21.07,34,21,34,20.8a3.18,3.18,0,0,1,0-.5.6.6,0,0,0,0-.15.17.17,0,0,0-.16-.17,8.7,8.7,0,0,1-1.12-.35.23.23,0,0,1-.19-.27c0-.16,0-.31,0-.47a.16.16,0,0,1,.13-.17l.45-.13.55-.17a.32.32,0,0,0,.25-.35c0-.43.07-.41-.42-.59l-.36-.15-.32-.12c-.28-.09-.28-.08-.31-.38,0,0,0-.09,0-.13a.27.27,0,0,1,.15-.3,5,5,0,0,1,.74-.38l.28-.13a.12.12,0,0,0,.08-.12,3,3,0,0,1,0-.68C33.79,15,33.75,14.91,33.75,14.8Z"/><path id="_Compound_Path_6" data-name="&lt;Compound Path&gt;" d="M16.77,21.33A.94.94,0,0,1,17.2,21a3.23,3.23,0,0,1,1.17-.41,1.13,1.13,0,0,1,.74.17c.16.1.31.22.46.34s.11.11,0,.23a.42.42,0,0,0,0,.49.38.38,0,0,0,.24.19c.12,0,.14.1.14.21s0,.5,0,.76a.51.51,0,0,0,.11.44c.06.05,0,.11,0,.17a1.21,1.21,0,0,1-.32.44,3,3,0,0,1-.77.44c-.17.07-.21.05-.3-.11a.6.6,0,0,0-.62-.23.29.29,0,0,0-.18.21c0,.11-.09.11-.18.1a1.78,1.78,0,0,1-1.18-.78,1.6,1.6,0,0,1-.27-1.12.9.9,0,0,1,0-.13c0-.17.07-.19.25-.2a.44.44,0,0,0,.44-.55C16.93,21.51,16.83,21.43,16.77,21.33Zm1,.3a.12.12,0,0,0-.12.16,1.06,1.06,0,0,0,.21.39,5,5,0,0,1,.67,1.11.46.46,0,0,0,.08.13.12.12,0,0,0,.16,0,.11.11,0,0,0,.05-.13s0-.06,0-.09a12.53,12.53,0,0,0-.87-1.48A.15.15,0,0,0,17.76,21.64Z"/><path id="_Path_12" data-name="&lt;Path&gt;" d="M20.9,23.48a.42.42,0,0,1-.08.28,5.19,5.19,0,0,1-.59.83.69.69,0,0,1-.18.15,2.79,2.79,0,0,1-1.26.46l-.18,0a2.49,2.49,0,0,1-2-.57c-.11-.08-.21-.18-.32-.27s-.07-.08-.1-.08-.2-.12-.27-.22a4.25,4.25,0,0,1-.29-.52,1.74,1.74,0,0,1-.11-.79c0-.19,0-.38.06-.57a2.88,2.88,0,0,1,.85-1.61,2.35,2.35,0,0,1,.41-.4,2.86,2.86,0,0,1,.8-.31,3.29,3.29,0,0,1,1.73,0,.2.2,0,0,1,.16.12,1.19,1.19,0,0,0,.3.42.65.65,0,0,1,.15.58c0,.1-.08.12-.14.05a6.12,6.12,0,0,0-.55-.44,1.08,1.08,0,0,0-.8-.26,1.91,1.91,0,0,0-.59.11,4.66,4.66,0,0,0-.88.4l0,0a2,2,0,0,1-.66.39c-.29.11-.33.41-.14.67a.14.14,0,0,1,0,.16,1.75,1.75,0,0,0,.58,1.94,2,2,0,0,0,.91.44.41.41,0,0,1,.26.14.46.46,0,0,0,.65,0s.06-.09.12-.08a1.43,1.43,0,0,0,.75-.27,1.53,1.53,0,0,0,.73-.76c0-.07.06-.13.14-.13A3.6,3.6,0,0,1,20.9,23.48Z"/><path id="_Path_13" data-name="&lt;Path&gt;" d="M33.76,23.52l.28-.18s.06-.05,0-.09-.07,0-.11,0l-.54.31-1,.54a.32.32,0,0,1-.37,0c-.11-.08-.24-.15-.35-.23a11,11,0,0,0-1.37-.91c-.43-.25-.84-.53-1.26-.79a.27.27,0,0,1-.12-.24c0-.08,0-.14.12-.14h1.12a.17.17,0,0,1,.14.05c.06.06.12,0,.14,0s.18-.14.3-.14c.28,0,.28,0,.28.27s0,.37,0,.55a.26.26,0,0,0,.27.3h1.88a1.63,1.63,0,0,1,.29,0c.22,0,.34-.07.34-.29,0,0,0-.07,0-.1s0-.15.14-.15h.63c.13,0,.16.05.1.16l-.26.48a.48.48,0,0,0-.09.39.39.39,0,0,1,0,.13c0,.14,0,.15-.15.16h-.44Z"/><path id="_Path_14" data-name="&lt;Path&gt;" d="M22.5,19.29c-.27,0-.59,0-.93,0a.47.47,0,0,0-.22.06l-.52.25A6.57,6.57,0,0,1,20,20l-.18,0a.17.17,0,0,1-.21-.12,1.1,1.1,0,0,1-.1-.32,5.7,5.7,0,0,1,0-.73.24.24,0,0,1,.17-.24l1.5-.67a.48.48,0,0,1,.35,0,14.29,14.29,0,0,1,1.56.43c.35.14.3.08.31.44,0,.11,0,.23,0,.34s0,.16-.15.16H22.5Z"/><path id="_Path_15" data-name="&lt;Path&gt;" d="M2.45,23.31a.33.33,0,0,1-.39-.1,1.93,1.93,0,0,0-.35-.3A1.59,1.59,0,0,1,1.16,22a2.26,2.26,0,0,1-.17-.7c0-.19-.06-.38-.07-.57s0-.54,0-.81,0-.83,0-1.25c0-.12.11-.23.06-.36s.07-.25.05-.39A1.62,1.62,0,0,1,1,17.57a3.31,3.31,0,0,0,.1-.33.93.93,0,0,1,.13-.29,1,1,0,0,1,.25-.32,4.5,4.5,0,0,0,.38-.35.23.23,0,0,1,.2-.06A7.09,7.09,0,0,0,1.76,18a13.25,13.25,0,0,0,.15,3.85A4.8,4.8,0,0,0,2.45,23.31Z"/><path id="_Path_16" data-name="&lt;Path&gt;" d="M19.61,17.61a.34.34,0,0,1,0-.27,3.51,3.51,0,0,0-.07-.91.16.16,0,0,1,.09-.2l.25-.15c.42-.2.85-.35,1.28-.52a1.17,1.17,0,0,1,.78,0l1.29.35c.11,0,.17.07.17.19s0,.36,0,.55,0,.13-.12.13H23c-.56,0-1.11,0-1.67,0a.39.39,0,0,0-.15,0A11,11,0,0,0,20,17.4C19.91,17.48,19.75,17.54,19.61,17.61Z"/><path id="_Path_17" data-name="&lt;Path&gt;" d="M22.45,21.09a.42.42,0,0,1,.25,0h7.63c.1,0,.23,0,.29,0s-.06.18-.1.28a.39.39,0,0,1-.43.25c-.8,0-1.6,0-2.4,0H23.28a.56.56,0,0,1-.52-.22A2.6,2.6,0,0,0,22.45,21.09Z"/><path id="_Path_18" data-name="&lt;Path&gt;" d="M5.49,16.2a1,1,0,0,1,.18.14.27.27,0,0,0,.36.11.25.25,0,0,1-.07.23,2.42,2.42,0,0,0-.41,1.07,10.53,10.53,0,0,0-.14,2.63,10.14,10.14,0,0,0,.29,1.91,1.59,1.59,0,0,0,.24.54.2.2,0,0,1,0,.3.17.17,0,0,1-.23,0,.59.59,0,0,1-.27-.31A6.08,6.08,0,0,1,5,21.28a13.27,13.27,0,0,1,.15-4.13c.05-.27.15-.54.23-.8A.21.21,0,0,1,5.49,16.2Z"/><path id="_Path_19" data-name="&lt;Path&gt;" d="M22.57,21.43a7.37,7.37,0,0,1-.81.42l-.17.08a.22.22,0,0,0-.15.22,11.34,11.34,0,0,0-.11,1.17h-1c-.2,0-.26-.08-.25-.28s0-.42,0-.63,0-.38,0-.57,0-.11.08-.14c.49-.18.95-.43,1.44-.61l.22-.08c.17-.05.18-.07.15-.23A7.28,7.28,0,0,1,22,20S22,20,22,20a.12.12,0,0,1,.14.05.38.38,0,0,1,0,.15c0,.18,0,.37,0,.55a.59.59,0,0,0,.21.51C22.45,21.28,22.5,21.35,22.57,21.43Z"/><path id="_Path_20" data-name="&lt;Path&gt;" d="M28.26,22a1.93,1.93,0,0,0,.38.36.24.24,0,0,1,.08.26,2.46,2.46,0,0,1-1.09,1.88,6,6,0,0,1-1.49.62,1.66,1.66,0,0,1-.67,0,7.32,7.32,0,0,1-1.38-.26,7.41,7.41,0,0,1-.7-.28.16.16,0,0,1-.1-.11c.06-.06.14,0,.2,0a.71.71,0,0,0,.36-.13.17.17,0,0,1,.23,0,3.11,3.11,0,0,0,1.33.42,1,1,0,0,0,.41,0A7.08,7.08,0,0,0,27,24.21a2.45,2.45,0,0,0,.85-.72.2.2,0,0,0,0-.09,6.08,6.08,0,0,0,.17-.92s0-.1,0-.12A.58.58,0,0,0,28.26,22Z"/><path id="_Path_21" data-name="&lt;Path&gt;" d="M36.06,20.82c.3.05.58.07.86.15s.36,0,.54.09.45.14.67.21a2.81,2.81,0,0,1,.63.37,2.43,2.43,0,0,1,.54.58.4.4,0,0,1,.08.32,2,2,0,0,1-.55,1.09.44.44,0,0,1-.13.08c-.21.11-.46.11-.68.23,0-.1,0-.13.06-.16l.28-.15.15-.1a.6.6,0,0,0,0-1,3.08,3.08,0,0,0-1.5-.8,1.7,1.7,0,0,1-.42-.14,1.64,1.64,0,0,0-.4-.13c-.14,0-.14,0-.11-.2a.19.19,0,0,0,0-.17A.39.39,0,0,1,36.06,20.82Z"/><path id="_Path_22" data-name="&lt;Path&gt;" d="M34.71,23.31l.06-.59c0-.09.08-.12.15-.15.36-.14.73-.22,1.1-.34.1,0,.23,0,.29-.15s.07,0,.12,0a3.53,3.53,0,0,1,1.31.4c.09.05.16.12.15.22a4.62,4.62,0,0,0,0,.55c0,.1,0,.14-.14.14l-.34,0c-.73-.05-1.46,0-2.19,0Z"/><path id="_Path_23" data-name="&lt;Path&gt;" d="M30.42,15.89l0-.65c0-.16,0-.17.16-.17a9.19,9.19,0,0,1,1.36,0c.42.06.83,0,1.25,0h.1c.09,0,.15,0,.15.13a1.62,1.62,0,0,0,.06.44c0,.07,0,.11-.08.13a2.67,2.67,0,0,1-.74.1H30.65A.38.38,0,0,1,30.42,15.89Z"/><path id="_Path_24" data-name="&lt;Path&gt;" d="M32.38,21H31.15a.34.34,0,0,1-.32-.13s0-.06-.05-.09,0-.35,0-.52a.08.08,0,0,1,.08-.09H33.2a1.47,1.47,0,0,1,.53.1c.08,0,.11.07.11.15s0,.3,0,.44,0,.14-.14.14H32.38Z"/><path id="_Path_25" data-name="&lt;Path&gt;" d="M21.52,23.53a1.35,1.35,0,0,1,0-.67s0-.08,0-.09.25-.24.43-.29a3.8,3.8,0,0,1,1.41-.18c.13,0,.22,0,.21.19s.08.12.17.12h.44a.13.13,0,0,1,.15.14c0,.27,0,.54,0,.81,0,.09-.06.11-.14.05a2.23,2.23,0,0,0-2.07-.35,1,1,0,0,0-.33.16A.44.44,0,0,1,21.52,23.53Z"/><path id="_Path_26" data-name="&lt;Path&gt;" d="M27.62,21.83v.7a.26.26,0,0,1-.06.17,2.46,2.46,0,0,1-.43.45,7.79,7.79,0,0,1-1.14.72,1,1,0,0,1-.29.12c-.1,0-.15,0-.15-.12,0-.37,0-.75,0-1.12a.11.11,0,0,1,.13-.13h.42c.09,0,.17,0,.2-.11s.12-.14.24-.14a1.34,1.34,0,0,0,.95-.43l.1-.12Z"/><path id="_Path_27" data-name="&lt;Path&gt;" d="M30.48,18.41c.11-.18.11-.18.11-.49s0-.27.27-.27h2.24a1.87,1.87,0,0,1,.52.16.08.08,0,0,1,.05.08c0,.09,0,.17,0,.26a.13.13,0,0,1-.1.11,2.08,2.08,0,0,1-.78.17c-.69,0-1.37,0-2.06,0A.63.63,0,0,1,30.48,18.41Z"/><path id="_Path_28" data-name="&lt;Path&gt;" d="M24.13,24.07a.87.87,0,0,1,.21-.21.43.43,0,0,0,.16-.37c0-.22,0-.44,0-.65,0,0,0-.09,0-.13a.07.07,0,0,1,.06-.07.08.08,0,0,1,.09.07,1.74,1.74,0,0,1,0,.23c0,.28,0,.56,0,.84a.18.18,0,0,0,.1.19,2.82,2.82,0,0,0,.43.2,1,1,0,0,0,.73-.1,6.72,6.72,0,0,0,1.43-.91,4.25,4.25,0,0,0,.38-.4.24.24,0,0,0,0-.15.21.21,0,0,1,.14-.17c.08,0,.06.12.05.19a2.48,2.48,0,0,1-.25.85,1.47,1.47,0,0,1-.68.6,6.71,6.71,0,0,1-1.15.4,2.52,2.52,0,0,1-1.54-.22A.37.37,0,0,1,24.13,24.07Z"/><path id="_Path_29" data-name="&lt;Path&gt;" d="M36.1,24.13H34.66c-.12,0-.13,0-.09-.15l0-.1c.14-.41.17-.42.6-.42.73,0,1.46,0,2.19,0l.34,0c.09,0,.14,0,.14.14,0,.33-.11.48-.45.48H36.1Z"/><path id="_Path_30" data-name="&lt;Path&gt;" d="M36,20.7A2.51,2.51,0,0,1,36,20c.08,0,.13,0,.18,0a.85.85,0,0,0,.9-.32,1,1,0,0,0,.08-1,.61.61,0,0,0-.37-.34,1.61,1.61,0,0,0-.94-.15.72.72,0,0,1,0-.31c0-.3,0-.33.3-.28a2,2,0,0,0,.41,0,.2.2,0,0,1,.17.1,6.66,6.66,0,0,0,.61.71.53.53,0,0,1,.15.34c0,.25,0,.5.06.75a.58.58,0,0,1-.11.41c-.14.2-.3.38-.44.58a.28.28,0,0,1-.26.13Z"/><path id="_Path_31" data-name="&lt;Path&gt;" d="M13,16.86H6.63s-.07,0-.08-.05,0-.08.08-.09h4.23a.31.31,0,0,1,.22,0s.1,0,.15,0h1.62a.49.49,0,0,0,.25,0,.45.45,0,0,1,.23,0h5.8c.08,0,.23-.06.23.08s-.14.06-.22.06Z"/><path id="_Path_32" data-name="&lt;Path&gt;" d="M6.27,17c0,.05,0,.09,0,.12A8.9,8.9,0,0,0,5.86,20a11.24,11.24,0,0,0,.09,1.59,4.35,4.35,0,0,0,.32,1.1l.06.15s0,.06,0,.07H6.23a.32.32,0,0,1-.14-.12,1.57,1.57,0,0,1-.26-.51,8.09,8.09,0,0,1-.22-1.21c-.06-.43-.08-.87-.1-1.3a10.91,10.91,0,0,1,.11-1.61,5.69,5.69,0,0,1,.22-.88A.35.35,0,0,1,6.27,17Z"/><path id="_Path_33" data-name="&lt;Path&gt;" d="M23.16,24.24a5.44,5.44,0,0,1-.65,0,1.12,1.12,0,0,1-.82-.46.07.07,0,0,1,0-.11,1.87,1.87,0,0,1,.53-.27,2.91,2.91,0,0,1,.38-.07,2.57,2.57,0,0,1,1.17.17c.15.06.33.15.34.3s-.18.24-.31.32A.87.87,0,0,1,23.16,24.24Z"/><path id="_Path_34" data-name="&lt;Path&gt;" d="M32.79,16.05c-.13.13-.25.27-.47.22s-.19.08-.26.15a.54.54,0,0,1-.46.18H29.33a.09.09,0,0,1-.09,0,.49.49,0,0,1,0-.23c0-.09.09-.07.14-.09a2,2,0,0,1,.91-.17Z"/><path id="_Path_35" data-name="&lt;Path&gt;" d="M32.76,24l.66-.34a.15.15,0,0,1,.17,0l.29.22,1,.73.08.06c.08.06.25.08.23.18a.87.87,0,0,1-.27.4s-.08,0-.12,0a2.81,2.81,0,0,1-.48-.26,8.26,8.26,0,0,0-.95-.59l-.52-.3S32.77,24.12,32.76,24Z"/><path id="_Path_36" data-name="&lt;Path&gt;" d="M20.11,21.57c0-.27,0-.49,0-.72a.21.21,0,0,1,.12-.19A7.2,7.2,0,0,1,21.66,20c.14,0,.16,0,.17.13s0,.38,0,.57a.14.14,0,0,1-.08.13h0Z"/><path id="_Path_37" data-name="&lt;Path&gt;" d="M30.53,17.31h-1l-.21,0a.12.12,0,0,1-.1-.11.68.68,0,0,1,0-.08c0-.42,0-.36.34-.36h2c.15,0,.18,0,.18.19a.35.35,0,0,1,0,.05c0,.36,0,.32-.34.33h-.89Z"/><path id="_Path_38" data-name="&lt;Path&gt;" d="M19.76,20.19a6.48,6.48,0,0,0,1.36-.58,1.46,1.46,0,0,1,.72-.17c.46,0,.92,0,1.39,0a3.05,3.05,0,0,1-.53.29.86.86,0,0,1-.6.09.84.84,0,0,0-.43.06,7.79,7.79,0,0,0-1.41.61c-.17.1-.17.09-.3-.06l-.1-.12S19.78,20.26,19.76,20.19Z"/><path id="_Path_39" data-name="&lt;Path&gt;" d="M32.32,18.56a.81.81,0,0,1-.22.33.43.43,0,0,1-.33.14H29.53c-.07,0-.16,0-.19-.09s0-.29.12-.33a.73.73,0,0,1,.31-.06c.76,0,1.53,0,2.29,0Z"/><path id="_Path_40" data-name="&lt;Path&gt;" d="M30.79,19.71c-.27,0-.54,0-.81,0a1.26,1.26,0,0,1-.53-.12.31.31,0,0,1-.1-.38.11.11,0,0,1,.06,0h2.16c.09,0,.2,0,.26.07a.66.66,0,0,1,0,.41c0,.07-.1.06-.16.06Z"/><path id="_Path_41" data-name="&lt;Path&gt;" d="M36.17,18.33a3.25,3.25,0,0,1,.55.15c.16.06.18.2.23.33a.62.62,0,0,1-.21.67.59.59,0,0,1-.72,0,.29.29,0,0,1-.12-.22c0-.2,0-.4,0-.6S35.91,18.32,36.17,18.33Z"/><path id="_Path_42" data-name="&lt;Path&gt;" d="M33.79,21.21l-.07.16c0,.1-.1.13-.22.13H30.79a.16.16,0,0,1-.12,0c.07-.27.08-.28.33-.29h2.5A.52.52,0,0,1,33.79,21.21Z"/><path id="_Path_43" data-name="&lt;Path&gt;" d="M36,21.3c-.12.1-.14.23-.2.35a.23.23,0,0,1-.22.15H34c-.23,0-.3-.13-.2-.35l0-.09c.08-.15.08-.16.24-.12a1.07,1.07,0,0,0,.28,0h1.33A.35.35,0,0,1,36,21.3Z"/><path id="_Path_44" data-name="&lt;Path&gt;" d="M19.38,17.82a.35.35,0,0,1-.13.45c-.21.15-.41.32-.62.47a7.34,7.34,0,0,0-1.14,1,1.15,1.15,0,0,1-.06-.55c0-.08.08-.13.14-.18a5.3,5.3,0,0,1,.73-.54Z"/><path id="_Path_45" data-name="&lt;Path&gt;" d="M38.4,21.2a7.46,7.46,0,0,0-1.4-.36,4.09,4.09,0,0,1,.49-.71.1.1,0,0,1,.13,0l.17.07c.12,0,.23.12.37,0a.14.14,0,0,1,.17,0c.05,0,0,.1,0,.14a2.65,2.65,0,0,0,0,.49A.53.53,0,0,1,38.4,21.2Z"/><path id="_Path_46" data-name="&lt;Path&gt;" d="M27.4,21.78a.5.5,0,0,1-.24.25c-.14.07-.28.13-.43.19a.3.3,0,0,1-.18,0c-.17,0-.2,0-.22-.22,0-.06,0-.17-.07-.16s-.06.1-.06.17,0,.12,0,.18,0,.22-.06.25a.37.37,0,0,1-.37,0,3.76,3.76,0,0,0-.33-.25.36.36,0,0,1-.09-.37.09.09,0,0,1,.08-.05h1.72A.49.49,0,0,1,27.4,21.78Z"/><path id="_Path_47" data-name="&lt;Path&gt;" d="M21.57,22.54c0-.05,0-.09,0-.14a.42.42,0,0,1,.32-.46,6.44,6.44,0,0,0,.63-.31c.18-.08.2-.08.32.08a.16.16,0,0,0,.2.07,1.53,1.53,0,0,1,.46,0c.1,0,.14.05.13.15s0,.17,0,.27A3.38,3.38,0,0,0,21.57,22.54Z"/><path id="_Path_48" data-name="&lt;Path&gt;" d="M17.44,18.91c0-.19,0-.35,0-.5a.28.28,0,0,1,.16-.22,7.55,7.55,0,0,1,.81-.47l.79-.4a.29.29,0,0,1,.17-.06c.08.26.08.3-.13.43a13.56,13.56,0,0,0-1.3.83C17.78,18.63,17.61,18.75,17.44,18.91Z"/><path id="_Path_49" data-name="&lt;Path&gt;" d="M25.41,23.31c0,.19,0,.38,0,.57s-.05.15-.17.14a1.17,1.17,0,0,1-.35-.16.17.17,0,0,1-.07-.16q0-.48,0-1c0-.07,0-.12.11-.12s.33-.06.46,0,0,.25,0,.37,0,.19,0,.29Z"/><path id="_Path_50" data-name="&lt;Path&gt;" d="M17.84,19.7a18.58,18.58,0,0,1,1.56-1.23c0,.2,0,.36-.06.51a.09.09,0,0,1,0,.06c-.25.13-.4.38-.63.54,0,0-.07.08-.13.07A4.89,4.89,0,0,0,17.84,19.7Z"/><path id="_Path_51" data-name="&lt;Path&gt;" d="M38.24,23.52a.34.34,0,0,1,.05-.09.59.59,0,0,0-.14-.9,3.85,3.85,0,0,0-1.57-.61,1.74,1.74,0,0,1-.68-.15c.06-.2.06-.2.23-.16a2,2,0,0,1,.52.17,1.27,1.27,0,0,0,.32.1,3.07,3.07,0,0,1,1.41.71l.1.09a.48.48,0,0,1-.25.84Z"/><path id="_Path_52" data-name="&lt;Path&gt;" d="M2.27,15.91a1.47,1.47,0,0,1,.21-.69,2.86,2.86,0,0,1,.14-.38c0-.07.08-.12.17-.12h.33c0,.06,0,.1,0,.14a5.63,5.63,0,0,0-.44.85C2.54,15.94,2.54,15.94,2.27,15.91Z"/><path id="_Path_53" data-name="&lt;Path&gt;" d="M19.39,17c-.62.4-1.3.62-1.88,1-.06-.23-.06-.26.1-.35a4.12,4.12,0,0,1,1-.48,1.21,1.21,0,0,0,.34-.13A.69.69,0,0,1,19.39,17Z"/><path id="_Path_54" data-name="&lt;Path&gt;" d="M30.25,19.88a.48.48,0,0,1,.27,0h1.1a.8.8,0,0,1,.36,0,.25.25,0,0,0,.15,0,1.52,1.52,0,0,1,.79.14.53.53,0,0,1-.27,0c-.51,0-1,0-1.51,0A2.35,2.35,0,0,1,30.25,19.88Z"/><path id="_Path_55" data-name="&lt;Path&gt;" d="M33.42,22.25a3.81,3.81,0,0,1-.61-.2.1.1,0,0,1-.07-.1c0-.07,0-.14,0-.21a.09.09,0,0,1,.1-.1h.52a.1.1,0,0,1,.1.12C33.45,21.93,33.43,22.08,33.42,22.25Z"/><path id="_Path_56" data-name="&lt;Path&gt;" d="M35.65,24.28a1.79,1.79,0,0,1-.21.55,2.92,2.92,0,0,1-.76-.54.62.62,0,0,1,.31,0h.34A1,1,0,0,1,35.65,24.28Z"/><path id="_Path_57" data-name="&lt;Path&gt;" d="M20.4,24.6l.23-.3a2.61,2.61,0,0,0,.42-.72.16.16,0,0,1,.26-.08s.08.08,0,.16a1.82,1.82,0,0,1-.18.31,4.79,4.79,0,0,0-.36.48C20.73,24.58,20.72,24.58,20.4,24.6Z"/><path id="_Path_58" data-name="&lt;Path&gt;" d="M23.76,22.3a1.39,1.39,0,0,1,0-.49,0,0,0,0,1,.06,0s0,0,0,.05c.05.23.05.23.28.2L25,22a.27.27,0,0,1,.15,0,.06.06,0,0,1,0,0,.05.05,0,0,1,0,0l0,0A8.4,8.4,0,0,1,23.76,22.3Z"/><path id="_Path_59" data-name="&lt;Path&gt;" d="M36.2,22l-1.33.4c0-.07,0-.1.05-.13s.11-.09.14-.15c.1-.24.29-.24.49-.2a.48.48,0,0,0,.25,0C35.92,21.92,36,22,36.2,22Z"/><path id="_Path_60" data-name="&lt;Path&gt;" d="M32,22.61a1.52,1.52,0,0,1,.32-.3.24.24,0,0,1,.27,0l.7.28A5.2,5.2,0,0,1,32,22.61Z"/><path id="_Path_61" data-name="&lt;Path&gt;" d="M32.37,18.84a3.74,3.74,0,0,1,0,.75c0,.12-.06.15-.19.16s-.12-.07-.14-.15A.61.61,0,0,1,32.37,18.84Z"/><path id="_Path_62" data-name="&lt;Path&gt;" d="M25.54,22.48c-.53,0-1.06,0-1.59,0,.37-.07.73-.14,1.09-.23a.35.35,0,0,1,.25,0l.26.16Z"/><path id="_Path_63" data-name="&lt;Path&gt;" d="M32.2,16.51c0,.26,0,.49,0,.71,0,.07,0,.15-.09.15s-.24-.05-.24-.15A.69.69,0,0,1,32.2,16.51Z"/><path id="_Path_64" data-name="&lt;Path&gt;" d="M29.34,22.49c-.28.1-.28.1-.44-.11a1.16,1.16,0,0,0-.22-.22L28.51,22a.2.2,0,0,1,0-.24s.22-.05.27,0a.12.12,0,0,1,0,.14c-.06.17,0,.26.17.32A1.47,1.47,0,0,1,29.34,22.49Z"/><path id="_Path_65" data-name="&lt;Path&gt;" d="M16.77,21.74a.25.25,0,0,1-.24.25c-.13,0-.31-.14-.3-.24a.35.35,0,0,1,.31-.27A.23.23,0,0,1,16.77,21.74Z"/><path id="_Path_66" data-name="&lt;Path&gt;" d="M31.59,22.14h-.26c-.12,0-.16-.07-.14-.2s.09-.11.17-.08a1.42,1.42,0,0,0,.49,0c.08,0,.11,0,.11.11s0,.15-.09.15h-.28Z"/><path id="_Path_67" data-name="&lt;Path&gt;" d="M32,22.31a.69.69,0,0,1-.75.22.11.11,0,0,1-.09-.13c0-.08.06-.1.12-.11A3,3,0,0,1,32,22.31Z"/><path id="_Path_68" data-name="&lt;Path&gt;" d="M21.65,17.51a.76.76,0,0,1,.07.27.06.06,0,0,1-.1,0,.32.32,0,0,0-.41,0l-.81.36c-.05,0-.1.07-.17,0s0-.08.05-.1A12.15,12.15,0,0,1,21.65,17.51Z"/><path id="_Path_69" data-name="&lt;Path&gt;" d="M19.59,17.86a3.36,3.36,0,0,1,.3.18.18.18,0,0,1,0,.34c-.32.16-.28.08-.29-.17A.73.73,0,0,1,19.59,17.86Z"/><path id="_Path_70" data-name="&lt;Path&gt;" d="M34.38,21.94h.52S35,22,35,22a.11.11,0,0,1,0,.06.27.27,0,0,1-.17,0H34l-.1,0s0-.07,0-.11,0,0,.07,0h.47Z"/><path id="_Path_71" data-name="&lt;Path&gt;" d="M27.79,22.3a2.09,2.09,0,0,1,0-.43c0-.09,0-.12.13-.12s.23,0,.22.21S28,22.24,27.79,22.3Z"/><path id="_Path_72" data-name="&lt;Path&gt;" d="M18.43,17a5,5,0,0,0-.91.47.16.16,0,0,1,.06-.23A1.18,1.18,0,0,1,18.43,17Z"/><path id="_Path_73" data-name="&lt;Path&gt;" d="M22.18,17.72a.86.86,0,0,1,0,.13.08.08,0,0,1,0,.06.4.4,0,0,1-.23,0c-.08,0,0-.08,0-.13v-.08c0-.18,0-.21.19-.2s.13,0,.13.13,0,.09,0,.13Z"/><path id="_Path_74" data-name="&lt;Path&gt;" d="M38.06,22.67a.45.45,0,0,1,.22.49.22.22,0,0,1-.12.16.1.1,0,0,1-.15-.08A1.53,1.53,0,0,1,38.06,22.67Z"/><path id="_Path_75" data-name="&lt;Path&gt;" d="M18.25,24.62c-.16,0-.23-.05-.23-.15a.26.26,0,0,1,.26-.23.21.21,0,0,1,.21.19C18.5,24.56,18.42,24.63,18.25,24.62Z"/><path id="_Path_76" data-name="&lt;Path&gt;" d="M38.63,21.3a.64.64,0,0,1,.08-.3.11.11,0,0,1,.19,0,.44.44,0,0,1-.05.43c-.05,0-.19,0-.21-.08A.16.16,0,0,1,38.63,21.3Z"/><path id="_Path_77" data-name="&lt;Path&gt;" d="M22,14.79c.11,0,.17,0,.19.14a2,2,0,0,1,0,.55c-.11,0-.2,0-.2-.15S22,15,22,14.79Z"/><path id="_Path_78" data-name="&lt;Path&gt;" d="M32.16,22.19c-.09-.15,0-.32-.08-.47s0-.07.09-.07.17,0,.18.09,0,.28-.1.37S32.22,22.18,32.16,22.19Z"/><path id="_Path_79" data-name="&lt;Path&gt;" d="M25,21.81a8.56,8.56,0,0,1-.92.08.05.05,0,0,1-.06-.06.09.09,0,0,1,0-.06l.1,0H25Z"/><path id="_Path_80" data-name="&lt;Path&gt;" d="M19.34,19.23v.54A.93.93,0,0,1,19,19.7,1.13,1.13,0,0,1,19.34,19.23Z"/><path id="_Path_81" data-name="&lt;Path&gt;" d="M33.16,22.37l.18,0c.16,0,.22,0,.23-.19s0-.31,0-.46c.08,0,.08.07.08.12s0,.33,0,.49-.05.18-.18.16a.51.51,0,0,1-.35-.14Z"/><path id="_Path_82" data-name="&lt;Path&gt;" d="M19.95,21.57s0,.09,0,.13,0,.11-.06.13-.12,0-.16-.06a.28.28,0,0,1,0-.36.17.17,0,0,1,.18-.08c.08,0,.05.1.06.15A.73.73,0,0,1,19.95,21.57Z"/><path id="_Path_83" data-name="&lt;Path&gt;" d="M31.8,17.48c-.59,0-1.19,0-1.78,0A13.62,13.62,0,0,1,31.8,17.48Z"/><path id="_Path_84" data-name="&lt;Path&gt;" d="M33.9,23.74a.83.83,0,0,1,.33,0c.06,0,.1,0,.1.09s0,.17,0,.22-.12,0-.17-.08S34,23.85,33.9,23.74Z"/><path id="_Path_85" data-name="&lt;Path&gt;" d="M23.66,16.44c0,.1,0,.22-.05.31-.15-.08-.05-.21-.08-.32a1.89,1.89,0,0,1,0-.34s0-.06,0-.05a.1.1,0,0,1,.07,0C23.68,16.19,23.64,16.32,23.66,16.44Z"/><path id="_Path_86" data-name="&lt;Path&gt;" d="M31.86,21.66a.66.66,0,0,1-.61,0Z"/><path id="_Path_87" data-name="&lt;Path&gt;" d="M23.51,18.53a1.32,1.32,0,0,1,0,.74Z"/><path id="_Path_88" data-name="&lt;Path&gt;" d="M34.54,23.53a.67.67,0,0,1,.08-.63Z"/><path id="_Path_89" data-name="&lt;Path&gt;" d="M6.22,16.85c-.06,0-.1,0-.12,0s0-.08.06-.1a.2.2,0,0,1,.2,0,0,0,0,0,1,0,0A.15.15,0,0,1,6.22,16.85Z"/><path id="_Path_90" data-name="&lt;Path&gt;" d="M36.53,24.29c-.09.09-.16.1-.24,0S36.43,24.26,36.53,24.29Z"/><path id="_Path_91" data-name="&lt;Path&gt;" d="M38.57,20.93a.17.17,0,0,1,0-.2.09.09,0,0,1,.06,0s0,0,0,0A.25.25,0,0,1,38.57,20.93Z"/><path id="_Path_92" data-name="&lt;Path&gt;" d="M32.64,17.48c-.09,0-.18.07-.26,0a0,0,0,0,1,0,0C32.48,17.36,32.56,17.46,32.64,17.48Z"/><path id="_Path_93" data-name="&lt;Path&gt;" d="M33.16,22.36a.28.28,0,0,1-.26-.11h0a.32.32,0,0,1,.26.1Z"/><path id="_Path_94" data-name="&lt;Path&gt;" d="M17.64,17a.1.1,0,0,1-.1.06s0,0,0,0a.08.08,0,0,1,.08,0S17.64,17,17.64,17Z"/><path id="_Path_95" data-name="&lt;Path&gt;" d="M38.23,23.51s-.05.06-.09.08-.06,0-.09,0a0,0,0,0,1,0,0,.07.07,0,0,1,.08,0h.12Z"/><path id="_Path_96" data-name="&lt;Path&gt;" d="M32.56,21.89a.35.35,0,0,1,0-.18A.31.31,0,0,1,32.56,21.89Z"/><path id="_Path_97" data-name="&lt;Path&gt;" d="M32.56,22.12l0,0,0,0v0Z"/><path id="_Path_98" data-name="&lt;Path&gt;" d="M32.9,22.26h-.07l0,0s0,0,.06,0l.06,0Z"/><path id="_Path_99" data-name="&lt;Path&gt;" d="M15.8,17.19l0,0s0,0,0,0l0-.06Z"/></g></svg>