<svg xmlns="http://www.w3.org/2000/svg" class="HeroAbility-icon HeroAbility-icon--hoverState" viewBox="0 0 40 40" preserveAspectRatio="xMidYMid meet"><g id="_Group_" data-name="&lt;Group&gt;"><path id="_Compound_Path_" data-name="&lt;Compound Path&gt;" d="M17.83,23.56c-.07,0-.08,0-.11.06a.46.46,0,0,0-.31.5.66.66,0,0,1-.28.49l-.88.67s-.07.06-.11,0,0-.09,0-.14c0-.24.05-.49.06-.73a1.07,1.07,0,0,0-.28-.62c0-.07-.13-.05-.2,0a3.57,3.57,0,0,0-.49.23.61.61,0,0,0-.25.42.67.67,0,0,1-.4.42.2.2,0,0,1-.27-.05,1.32,1.32,0,0,1-.18-.22c-.08-.14-.15-.15-.28-.06s-.43.27-.64.4-.15.15-.05.26l.3.37a.23.23,0,0,0,.33,0l1.1-.69a.35.35,0,0,0,.19-.27.34.34,0,0,1,.18-.28l.42-.26a.14.14,0,0,1,.22,0,.73.73,0,0,1,.06.86,4.77,4.77,0,0,1-1.75,1.67,8.32,8.32,0,0,0-.85.51.78.78,0,0,1-.41.12c-1.07.09-2.13.26-3.2.37-.79.08-1.58.21-2.38.32a2.51,2.51,0,0,1-.54,0,.65.65,0,0,1-.47-.28.33.33,0,0,1,0-.31,1.11,1.11,0,0,1,.82-.81c1.46-.41,2.9-.86,4.34-1.32a.61.61,0,0,0,.4-.3.48.48,0,0,1,.2-.19c.64-.39,1.31-.72,2-1.08a1.59,1.59,0,0,1,.41-.14A9.29,9.29,0,0,0,15.88,23l.48-.2a.51.51,0,0,0,.31-.29c0-.1.1-.19.14-.29a1,1,0,0,1,.57-.62l.07,0s.07-.06.05-.11-.07,0-.11,0a1.45,1.45,0,0,0-.94.36c-.26.27-.59.46-.85.73-.08.08-.14.08-.2,0a1,1,0,0,0-.23-.33.18.18,0,0,1,0-.24,1,1,0,0,1,.14-.19c.49-.52,1-1,1.54-1.49a2,2,0,0,0,.18-.16c.09-.1.16-.14.26,0s.13,0,.2,0A5.22,5.22,0,0,1,19,19.4a.3.3,0,0,0,.16-.1.29.29,0,0,1,.19-.1.65.65,0,0,0,.38-.19.29.29,0,0,1,.22-.08h.48s.08,0,.11,0c.21.18.5.22.71.38a.52.52,0,0,0,.19.09,5.09,5.09,0,0,1,1.43.59c.1.06.2.12.3,0s.13,0,.19,0c.6.57,1.22,1.12,1.78,1.74.18.21.17.25,0,.47a1.24,1.24,0,0,0-.15.24c-.06.12-.13.12-.22,0-.31-.32-.67-.56-1-.86a1.36,1.36,0,0,0-.79-.22.07.07,0,0,0-.07,0,.07.07,0,0,0,0,.09l.22.14a.67.67,0,0,1,.34.37,1.36,1.36,0,0,0,1,.93,8,8,0,0,1,1,.44,1.9,1.9,0,0,0,.33.08,4.35,4.35,0,0,1,.95.41l1.35.74a1,1,0,0,1,.45.39.39.39,0,0,0,.26.18c1,.32,2,.63,3,.93l1.45.42a1.13,1.13,0,0,1,.78.66.5.5,0,0,1-.45.75,2.08,2.08,0,0,1-.43,0l-2.42-.32-3.11-.36a1.48,1.48,0,0,1-.74-.25,9,9,0,0,0-.78-.46,4.72,4.72,0,0,1-1.68-1.7.79.79,0,0,1,.16-.78.12.12,0,0,1,.16,0l.51.32a.27.27,0,0,1,.12.22.36.36,0,0,0,.18.28l1,.64c.25.16.3.15.49-.08l.23-.28c.08-.09.07-.16,0-.23l-.76-.46c-.06,0-.09,0-.14,0a3,3,0,0,1-.24.3.19.19,0,0,1-.25,0,.63.63,0,0,1-.41-.44c-.08-.43-.45-.51-.77-.63-.1,0-.15,0-.21.1a1.13,1.13,0,0,0-.21.94c0,.12,0,.24.05.36s0,.08,0,.1-.07,0-.1,0c-.33-.25-.67-.48-1-.75a.73.73,0,0,1-.23-.55c0-.15,0-.27-.2-.31s-.1-.1-.19-.13c0,.16.06.28.1.4s.05.2-.13.29a4.7,4.7,0,0,1-1.08.3c-.13,0-.19,0-.2-.14a2.58,2.58,0,0,1,0-.39.26.26,0,0,0-.16-.28.52.52,0,0,1-.33-.44c0-.16-.12-.21-.27-.21h-.52c-.14,0-.24,0-.27.19a.58.58,0,0,1-.36.47.22.22,0,0,0-.12.21c0,.14,0,.29,0,.43s-.06.18-.19.16a4.81,4.81,0,0,1-1.14-.32c-.13-.06-.15-.13-.11-.25A1.09,1.09,0,0,0,17.83,23.56Zm2.36-2.34A6.86,6.86,0,0,0,22,21c.07,0,.19,0,.2-.1s.2-.29.33-.4.14-.15,0-.25a3,3,0,0,0-1-.46,6.66,6.66,0,0,0-2.23-.08,3.29,3.29,0,0,0-1.46.54c-.16.11-.16.12,0,.25s.26.15.28.28.15.21.28.24A7.21,7.21,0,0,0,20.18,21.21Zm-3.81,2.86c0,.24.13.39.33.39a.5.5,0,0,0,.44-.51.33.33,0,0,0-.35-.35C16.53,23.6,16.37,23.78,16.37,24.07Zm7.22-.47c-.23,0-.35.12-.35.37a.47.47,0,0,0,.41.49.37.37,0,0,0,.35-.38A.46.46,0,0,0,23.59,23.6Z"/><path id="_Path_" data-name="&lt;Path&gt;" d="M24.47,16.13H23.21a.41.41,0,0,1-.33-.16l-1-1.14c-.36-.4-.7-.83-1-1.24l-.14-.17a.79.79,0,0,0-1.25,0c-.34.45-.71.89-1.09,1.32L17.21,16a.36.36,0,0,1-.29.12H14.41c-.21,0-.24,0-.25-.26a2.67,2.67,0,0,1,.61-1.72c.64-.82,1.28-1.63,1.91-2.45.9-1.17,1.74-2.37,2.55-3.6.06-.09.13-.17.2-.26a.92.92,0,0,1,1.31,0c.08.12.18.22.26.34,1.18,1.82,2.49,3.55,3.84,5.25.26.33.52.65.76,1a2.47,2.47,0,0,1,.4,1.46c0,.18,0,.22-.21.22Z"/><path id="_Path_2" data-name="&lt;Path&gt;" d="M20.18,27.49H21c.21,0,.23,0,.22-.25,0-.66-.08-1.32-.06-2,0-.22,0-.22.26-.22.61,0,.82.42,1,.91.06.21.12.43.17.65a11.71,11.71,0,0,1,.31,1.81.56.56,0,0,1-.18.51.59.59,0,0,0-.18.36c-.18.86-.37,1.72-.54,2.58A1.57,1.57,0,0,1,20.76,33a2,2,0,0,1-1.91-.38A1.11,1.11,0,0,1,18.4,32c-.17-.85-.35-1.69-.53-2.54a1,1,0,0,0-.29-.61.37.37,0,0,1-.1-.32,7.5,7.5,0,0,1,.18-1.41,8.47,8.47,0,0,1,.52-1.69.41.41,0,0,1,.21-.23A3,3,0,0,1,19,25c.11,0,.16.05.16.15,0,.4,0,.79,0,1.19s-.05.6-.06.9,0,.21.22.21h.86Z"/><path id="_Path_3" data-name="&lt;Path&gt;" d="M15.15,21.66c-.08.19-.16.34-.38.38a1.85,1.85,0,0,0-.77.45c0,.05.09,0,.13,0l.51-.16c.25-.08.36,0,.45.21s.09.37-.17.58a1,1,0,0,1-.72.24c-.49,0-1,.07-1.46.1a.83.83,0,0,1-.44-.08c-.75-.38-1.55-.63-2.29-1a1.21,1.21,0,0,1-.26-.14c-.12-.11-.11-.21,0-.29a3.42,3.42,0,0,0,.48-.28,1.37,1.37,0,0,1,1.13-.23c.94.13,1.89.23,2.83.34a2.67,2.67,0,0,0,.64-.08A.62.62,0,0,1,15.15,21.66Z"/><path id="_Path_4" data-name="&lt;Path&gt;" d="M26.35,22.49a2.06,2.06,0,0,0-.78-.46c-.22,0-.3-.19-.37-.38a1.15,1.15,0,0,1,.4.06,2,2,0,0,0,.75,0l2.7-.33a1.21,1.21,0,0,1,.94.19,4.7,4.7,0,0,0,.56.33c.14.08.15.2,0,.29a1.67,1.67,0,0,1-.19.1c-.77.42-1.62.68-2.4,1.08a.7.7,0,0,1-.38.06,14.23,14.23,0,0,0-1.57-.1c-.35,0-.55-.21-.79-.39a.14.14,0,0,1,0-.14,1,1,0,0,1,.1-.37c.1-.18.17-.2.37-.13A2.3,2.3,0,0,0,26.35,22.49Z"/><path id="_Path_5" data-name="&lt;Path&gt;" d="M19.34,24.57a1.47,1.47,0,0,0,0-.19.49.49,0,0,1,.26-.56c.14-.08.15-.22.17-.35s.07-.25.3-.26h.13c.34,0,.36,0,.42.35a.4.4,0,0,0,.2.29.45.45,0,0,1,.23.47,4.25,4.25,0,0,0,0,.48.84.84,0,0,1-.07.35,2.41,2.41,0,0,0-.1.74,4.63,4.63,0,0,0,0,.54c0,.15-.05.21-.2.21h-1c-.15,0-.21-.07-.21-.21s0-.43,0-.65a2,2,0,0,0-.12-.76A1.37,1.37,0,0,1,19.34,24.57Z"/><path id="_Path_6" data-name="&lt;Path&gt;" d="M17,24a.37.37,0,0,1-.32.35.25.25,0,0,1-.21-.28.34.34,0,0,1,.31-.3A.21.21,0,0,1,17,24Z"/><path id="_Path_7" data-name="&lt;Path&gt;" d="M23.86,24.11a.23.23,0,0,1-.22.25.36.36,0,0,1-.31-.36.22.22,0,0,1,.24-.22A.34.34,0,0,1,23.86,24.11Z"/></g></svg>