<svg xmlns="http://www.w3.org/2000/svg" class="HeroAbility-icon HeroAbility-icon--hoverState" viewBox="0 0 40 40" preserveAspectRatio="xMidYMid meet"><g id="_Group_19" data-name="&lt;Group&gt;"><path id="_Compound_Path_2" data-name="&lt;Compound Path&gt;" d="M7.12,17.19c2.14,0,4.29,0,6.43,0a.71.71,0,0,1,.66.35c.59.86,1.21,1.7,1.82,2.55a.45.45,0,0,0,.41.21h4.79a.43.43,0,0,0,.38-.17l1.26-1.62a.47.47,0,0,0,.11-.31c0-.19,0-.37,0-.56s0-.34-.34-.33c-.6,0-1.2,0-1.8,0a.45.45,0,0,1-.43-.22A1.37,1.37,0,0,0,19,16.37c-1.42.05-2.84,0-4.25,0a.5.5,0,0,0-.49.24.77.77,0,0,1-.76.37H.41c-.13,0-.2-.08-.16-.21a2.57,2.57,0,0,0,0-.61.59.59,0,0,1,.64-.63l4.82,0a1.46,1.46,0,0,1,.56.16c.26.1.51.21.76.33a1.81,1.81,0,0,0,.83.15H13a.39.39,0,0,0,.4-.17.29.29,0,0,1,.28-.12h2c.11,0,.2,0,.24.13s.15.17.29.17h1.66c.11,0,.22,0,.29-.1a.49.49,0,0,1,.49-.2h1.22c.33,0,.64-.18,1-.12a8.57,8.57,0,0,0,1.37.14c.21,0,.34.25.51.39s.5.44.75.66a.39.39,0,0,1,.15.32c0,.42,0,.85,0,1.27a.44.44,0,0,1-.1.3,15,15,0,0,0-1.13,1.62,1.27,1.27,0,0,1-1.23.66c-2.11,0-4.22,0-6.33,0-.4,0-.79,0-1.19-.06a.31.31,0,0,1-.32-.25.41.41,0,0,0,0-.09c-.28-.53-.12-.47-.69-.47H.43A.19.19,0,0,1,.23,20c0-.06,0-.11,0-.17,0-.31,0-.34.33-.34.9,0,1.79,0,2.69,0,.24,0,.34-.07.33-.32s0-.55,0-.83S3.52,18,3.32,18c-.91,0-1.83,0-2.74,0-.34,0-.35,0-.35-.34,0-.53,0-.53.53-.53Zm11.24,3.39h2.47c.11,0,.32.07.32-.09s-.21-.07-.32-.07H16a.59.59,0,0,1-.56-.3,3.86,3.86,0,0,0-.48-.65.48.48,0,0,0-.39-.16c-2.49,0-5,0-7.48,0a2.48,2.48,0,0,0-1.26.28,1.45,1.45,0,0,1-.71.23H1.21c-.1,0-.27,0-.27.08s.18.1.28.1c1.19,0,2.38,0,3.57,0A2.41,2.41,0,0,0,6,19.72a1.38,1.38,0,0,1,.64-.23h7.9a.48.48,0,0,1,.42.2c.15.21.3.41.44.62a.55.55,0,0,0,.51.26ZM1.21,15.66H.94c-.32,0-.44.12-.45.44,0,.14,0,.28,0,.42s0,.16.07.19.12,0,.17-.08l.61-.52c.12-.11.38-.18.33-.35S1.35,15.71,1.21,15.66Zm21.21.77A.4.4,0,0,0,22,16a.37.37,0,0,0-.38.37.42.42,0,0,0,.42.37A.35.35,0,0,0,22.42,16.43ZM1.8,16.13c-.17,0-.28.1-.27.28s0,.3.24.31a.34.34,0,0,0,.3-.33A.26.26,0,0,0,1.8,16.13Zm12.11,4.21a.24.24,0,0,0,.23-.27.23.23,0,0,0-.27-.24c-.17,0-.23.13-.23.28S13.74,20.33,13.91,20.33Z"/><path id="_Compound_Path_3" data-name="&lt;Compound Path&gt;" d="M34,19.15a1.13,1.13,0,0,0-.5-.06H31.34a.29.29,0,0,0-.34.24,1,1,0,0,1-1.08.78.64.64,0,0,0-.59.34,6.12,6.12,0,0,1-.56.75,4.24,4.24,0,0,0,0-1.51.48.48,0,0,0-.21-.4A1.87,1.87,0,0,1,28.2,19a2.17,2.17,0,0,0-1.5-.68,2.36,2.36,0,0,0-1.48.56,2.15,2.15,0,0,0-.67,2.37c0,.09.05.19.07.28a.57.57,0,0,0,.32.48.69.69,0,0,1,.18.16,2.17,2.17,0,0,0,1,.54,2,2,0,0,1,.41.14.47.47,0,0,0,.5-.05,9.62,9.62,0,0,0,.9-.44,1.18,1.18,0,0,1-1,.81h-3.5a.55.55,0,0,0-.52.24.75.75,0,0,1-.76.36,4.91,4.91,0,0,0-.9,0,4,4,0,0,1-1.89-.35c-1.11-.47-2.25-.89-3.37-1.33a.54.54,0,0,1-.26-.7c.06-.11.16-.1.26-.1h5.57c.28,0,.55,0,.83,0s.21-.1.28-.2c.69-1,1.49-1.91,2.22-2.88a1.39,1.39,0,0,1,.92-.54.67.67,0,0,0,.56-.37.51.51,0,0,1,.5-.24h2.57a.46.46,0,0,1,.41.3.61.61,0,0,0,.6.33H33a.51.51,0,0,1,.54.36A7,7,0,0,1,34,19.15ZM19.23,21.48h-2.4c-.16,0-.32,0-.36.21a.37.37,0,0,0,.22.41c.25.14.54.18.8.3.76.34,1.55.6,2.34.86.26.09.54.18.77-.09l1.18-1.3c.08-.08.22-.16.15-.31s-.22-.08-.33-.08Zm9.94-2.24c0,.42.24.67.72.71a.63.63,0,0,0,.74-.6c0-.08,0-.17.06-.23a1.36,1.36,0,0,1,.91-.46c.57,0,1.14,0,1.71,0,.09,0,.17,0,.16-.12a.45.45,0,0,0-.45-.43H30.77a.78.78,0,0,0-.54.16,1.43,1.43,0,0,1-.52.26A.66.66,0,0,0,29.17,19.24ZM26.8,17.1a.21.21,0,0,0-.17.22.16.16,0,0,0,.18.16A.17.17,0,0,0,27,17.3C27,17.19,26.93,17.12,26.8,17.1Zm2.64.37a.19.19,0,0,0,.16-.21c0-.09,0-.16-.15-.15a.19.19,0,0,0-.19.19C29.27,17.4,29.34,17.46,29.44,17.47Z"/><path id="_Path_14" data-name="&lt;Path&gt;" d="M28.55,21.95c.32-.5.61-1,.93-1.4a.52.52,0,0,1,.42-.25A1.51,1.51,0,0,0,30.8,20a.87.87,0,0,0,.32-.45.29.29,0,0,1,.31-.24c.72,0,1.43,0,2.15,0a.6.6,0,0,1,.59.43l1.07,3.2a.7.7,0,0,1-.2.85,5.2,5.2,0,0,0-.61.69.45.45,0,0,1-.47.17c-1-.14-1.93-.3-2.9-.47l-2.18-.38c-.23,0-.19-.12-.08-.24a5.23,5.23,0,0,1,1.11-1,1.31,1.31,0,0,1,.6-.18c.55,0,1.08.1,1.63.1h1.17a.77.77,0,0,0,.79-.68c.05-.47-.15-.81-.6-.84A5.56,5.56,0,0,0,31.7,21a2.88,2.88,0,0,1-.95.07,2.29,2.29,0,0,0-1.73.58C28.88,21.73,28.73,21.82,28.55,21.95Z"/><path id="_Path_15" data-name="&lt;Path&gt;" d="M25.72,17.39c-.86.2-1.14.94-1.63,1.47a.29.29,0,0,1-.05-.25,12.06,12.06,0,0,0-.13-2.13.88.88,0,0,1,.15-.6,2,2,0,0,1,.24-.31c.87-.92.6-.8,1.78-.76.85,0,1.7.13,2.56.21a1.1,1.1,0,0,0,.6-.07.49.49,0,0,1,.26-.05l2.42.21c.32,0,.5.28.72.47.56.47,1.11.95,1.66,1.42a.65.65,0,0,0,.47.15c.29,0,.58,0,.87.06a.32.32,0,0,1,.33.2c.08.22,0,.31-.21.31H33.91a.38.38,0,0,1-.35-.17.37.37,0,0,0-.37-.17h-1a.35.35,0,0,1-.37-.21c-.14-.26-.33-.5-.49-.76s-.48-.25-.74-.27c-.72-.05-1.44-.05-2.16-.11-.44,0-.88,0-1.31-.09a.26.26,0,0,1-.12,0c-.44-.36-1-.18-1.45-.26-.18,0-.25.12-.25.26q0,.49,0,1C25.34,17.11,25.49,17.25,25.72,17.39Z"/><path id="_Compound_Path_4" data-name="&lt;Compound Path&gt;" d="M35.3,17.89h.22a2.75,2.75,0,0,1,2.18.65c.49.39,1,.71,1.57,1.07a.94.94,0,0,1,.36.93c-.07.34-.13.69-.21,1a.62.62,0,0,1-.84.32.21.21,0,0,1-.08-.19c0-.14,0-.28,0-.42,0-.34,0-.38-.38-.38H35.34a.72.72,0,0,1-.78-.6c-.23-.71-.47-1.42-.7-2.13-.08-.24-.06-.27.19-.27Zm3.47,3.25a.33.33,0,0,0,.36-.32.35.35,0,0,0-.31-.34.3.3,0,0,0-.29.33C38.52,21,38.59,21.13,38.77,21.14Z"/><path id="_Path_16" data-name="&lt;Path&gt;" d="M17.2,20c-.49.14-.75-.15-1-.51-.46-.67-1-1.32-1.42-2-.07-.1-.2-.2-.1-.34s.21-.41.47-.41h4.1c.27,0,.35.24.48.41s0,.24-.11.34l-1.69,2.34a.35.35,0,0,1-.33.17Z"/><path id="_Path_17" data-name="&lt;Path&gt;" d="M25.42,23.5c.45,0,.81,0,1.17,0a1.26,1.26,0,0,0,.93-.36,15.74,15.74,0,0,1,1.65-1.42,2.17,2.17,0,0,1,1.44-.49,4.78,4.78,0,0,0,.56,0c.16,0,.23.07.24.23,0,.67,0,.75-.64.7a1.87,1.87,0,0,0-1.49.65c-.33.32-.62.7-1,1a2.54,2.54,0,0,1-1.66.66c-.62,0-1.23.08-1.85.05l-.95,0c-.36,0-.54-.16-.55-.38s.2-.46.54-.52A10.84,10.84,0,0,1,25.42,23.5Z"/><path id="_Compound_Path_5" data-name="&lt;Compound Path&gt;" d="M36.39,23.28h-.64a.23.23,0,0,1-.25-.18c-.21-.63-.43-1.26-.64-1.89,0-.06-.07-.13,0-.18s.12,0,.18,0a.88.88,0,0,0,.31.05h2.15a.72.72,0,0,1,.81.79c0,.84,0,.84-.73,1.21C37.22,23.28,37.22,23.28,36.39,23.28Zm1-1.85a.67.67,0,0,0-.66.67.56.56,0,0,0,.6.62A.68.68,0,0,0,38,22,.56.56,0,0,0,37.38,21.43Z"/><path id="_Path_18" data-name="&lt;Path&gt;" d="M20.34,19.52h-1.1c-.21,0-.23-.07-.12-.23l1.08-1.54a.3.3,0,0,1,.28-.12h1.86c.19,0,.26.07.27.26a.85.85,0,0,1-.2.63,8.16,8.16,0,0,0-.58.78.45.45,0,0,1-.43.22Z"/><path id="_Path_19" data-name="&lt;Path&gt;" d="M1.8,19.27H.58c-.21,0-.32-.06-.3-.29s0-.36,0-.54a.18.18,0,0,1,.21-.21H3.18c.14,0,.21.08.21.22s0,.37,0,.56-.08.26-.26.26Z"/><path id="_Path_20" data-name="&lt;Path&gt;" d="M7.55,20.37h5.11c.12,0,.29,0,.28.15s-.17.07-.27.07c-2.65,0-5.3,0-7.94,0-.79,0-1.58,0-2.38-.06-.07,0-.2,0-.2-.08s.13-.06.21-.06Z"/><path id="_Path_21" data-name="&lt;Path&gt;" d="M26.27,19.19c-.54.36-.44.31-.22.84a9.75,9.75,0,0,0,1,1.61c.16.24.15.27-.14.32A1.43,1.43,0,0,1,25.3,20.8a1.39,1.39,0,0,1,1-1.61Z"/><path id="_Path_22" data-name="&lt;Path&gt;" d="M26.28,19.19a1.39,1.39,0,0,1,1.56.5,1.41,1.41,0,0,1,0,1.7s-.06.11-.12.11-.07-.1-.09-.15a6.6,6.6,0,0,0-1.1-2c-.07-.08-.12-.18-.24-.19Z"/><path id="_Path_23" data-name="&lt;Path&gt;" d="M32.79,22.26h-.71a.19.19,0,0,1-.22-.23c0-.24,0-.49,0-.73,0-.07,0-.16.11-.16s.09.08.09.15,0,.26,0,.39a.13.13,0,0,0,.14.11c.09,0,.1-.07.1-.14s0-.26,0-.39,0-.14.11-.13.09.07.09.13,0,.23,0,.34,0,.18.16.18.14-.09.14-.18c0-.5,0-.5.54-.5a.48.48,0,0,1,.52.45.6.6,0,0,1-.37.67A3,3,0,0,1,32.79,22.26Z"/><path id="_Path_24" data-name="&lt;Path&gt;" d="M24.48,14.36a.91.91,0,0,1,.67-.24c.52,0,1,0,1.56,0a.29.29,0,0,1,.25.08.8.8,0,0,0,.64.28,2.51,2.51,0,0,0,1.18,0,.2.2,0,0,1,.17,0s.09,0,.09.1a.08.08,0,0,1-.11.07.67.67,0,0,0-.53.13.54.54,0,0,1-.33,0l-2.36-.18a.36.36,0,0,1-.27-.1A.67.67,0,0,0,24.48,14.36Z"/><path id="_Path_25" data-name="&lt;Path&gt;" d="M27.43,21.39a.17.17,0,0,1-.11.2c-.08,0-.12,0-.16-.07a8.67,8.67,0,0,1-1-1.81.16.16,0,0,1,.07-.23c.11-.06.18,0,.25.08a4.52,4.52,0,0,1,.74,1.22C27.25,21,27.35,21.2,27.43,21.39Z"/><path id="_Path_26" data-name="&lt;Path&gt;" d="M22.79,20.51a.8.8,0,0,1,.15-.69c.24-.3.45-.62.68-.92a.57.57,0,0,0,.13-.38c0-.36,0-.72,0-1.08h.06c0,.57,0,1.15,0,1.72a.24.24,0,0,1-.06.13Z"/><path id="_Path_27" data-name="&lt;Path&gt;" d="M24.63,20.5c0-.16.06-.35.11-.54s0-.2.17-.16.27.08.24.26a2.21,2.21,0,0,0,0,1c0,.18-.12.21-.23.26s-.14-.08-.17-.15A2.9,2.9,0,0,1,24.63,20.5Z"/><path id="_Path_28" data-name="&lt;Path&gt;" d="M26.26,18.57c.11,0,.18,0,.2.12s0,.2-.08.23a2.46,2.46,0,0,0-.87.48c-.11.1-.23,0-.32-.1s0-.15.06-.2A2,2,0,0,1,26.26,18.57Z"/><path id="_Path_29" data-name="&lt;Path&gt;" d="M26.25,22.49a2,2,0,0,1-1-.55c-.06-.06-.08-.13,0-.19s.19-.16.3-.07a2.22,2.22,0,0,0,.81.44c.12,0,.12.14.1.24S26.37,22.5,26.25,22.49Z"/><path id="_Path_30" data-name="&lt;Path&gt;" d="M27.16,18.61a1.92,1.92,0,0,1,1,.68.09.09,0,0,1,0,.15c-.07.05-.16.11-.24,0a2.22,2.22,0,0,0-.82-.51c-.11,0-.09-.16-.08-.26S27.09,18.61,27.16,18.61Z"/><path id="_Path_31" data-name="&lt;Path&gt;" d="M27,22.3a.19.19,0,0,1,.14-.21,1.65,1.65,0,0,0,.7-.43.18.18,0,0,1,.28,0c.12.1,0,.17,0,.24a2,2,0,0,1-.86.54C27.11,22.48,27,22.47,27,22.3Z"/><path id="_Path_32" data-name="&lt;Path&gt;" d="M28.31,20.54c0-.13,0-.26,0-.38a.19.19,0,0,1,.16-.23c.13,0,.14.09.16.16a1.78,1.78,0,0,1,0,.93c0,.08,0,.18-.15.15s-.2-.09-.17-.22A2.66,2.66,0,0,0,28.31,20.54Z"/><path id="_Path_33" data-name="&lt;Path&gt;" d="M17.47,15.95h-.34s-.11,0-.12-.06a.11.11,0,0,1,.08-.13,2.55,2.55,0,0,1,.84,0,.07.07,0,0,1,.06.09.14.14,0,0,1-.12.11l-.41,0Z"/><path id="_Path_34" data-name="&lt;Path&gt;" d="M23.49,23.42c-.58.53-.49.93.24,1.23a.48.48,0,0,1-.46-.12.66.66,0,0,1-.19-.73A.46.46,0,0,1,23.49,23.42Z"/><path id="_Path_35" data-name="&lt;Path&gt;" d="M25,14.61c-.23,0-.33,0-.36.23s0,.14-.11.13-.07-.1-.06-.16a.48.48,0,0,1,.49-.38c.09,0,.21,0,.2.14S25,14.6,25,14.61Z"/><path id="_Path_36" data-name="&lt;Path&gt;" d="M31.64,21.23a2.1,2.1,0,0,1,0,.9A4.39,4.39,0,0,1,31.64,21.23Z"/><path id="_Path_37" data-name="&lt;Path&gt;" d="M24.35,15.17a.38.38,0,0,1,0-.58A.8.8,0,0,0,24.35,15.17Z"/><path id="_Path_38" data-name="&lt;Path&gt;" d="M25.24,19.61c0,.07,0,.09-.09.07s-.16,0-.19-.13,0-.08.07-.07A.32.32,0,0,1,25.24,19.61Z"/><path id="_Path_39" data-name="&lt;Path&gt;" d="M26.81,18.7c0,.06,0,.13-.08.12s-.06-.07-.06-.11,0-.13.07-.12S26.8,18.66,26.81,18.7Z"/><path id="_Path_40" data-name="&lt;Path&gt;" d="M25.15,21.42c.06,0,.1,0,.09.07s-.1.1-.16.12-.09,0-.08-.05S25.1,21.46,25.15,21.42Z"/><path id="_Path_41" data-name="&lt;Path&gt;" d="M28.4,19.64c0,.08-.07.1-.13.12s-.09,0-.09,0,.07-.1.13-.13A.06.06,0,0,1,28.4,19.64Z"/><path id="_Path_42" data-name="&lt;Path&gt;" d="M26.81,22.39s0,.09-.06.09-.07-.05-.07-.1,0-.09.06-.09S26.8,22.34,26.81,22.39Z"/><path id="_Path_43" data-name="&lt;Path&gt;" d="M28.23,21.34c.06,0,.12,0,.14.1a0,0,0,0,1-.06.06.14.14,0,0,1-.14-.1S28.19,21.34,28.23,21.34Z"/><path id="_Path_44" data-name="&lt;Path&gt;" d="M38.28,21.13s0,0-.05,0l0,0s0,0,.05,0S38.27,21.12,38.28,21.13Z"/><path id="_Path_45" data-name="&lt;Path&gt;" d="M28.77,14.79h.13A.08.08,0,0,1,28.77,14.79Z"/><path id="_Path_46" data-name="&lt;Path&gt;" d="M1.27,15.91l-.46.4c-.09.08-.13.07-.14-.06C.63,15.89.81,15.77,1.27,15.91Z"/><path id="_Path_47" data-name="&lt;Path&gt;" d="M22,16.23a.2.2,0,0,1,.19.18.14.14,0,0,1-.16.16c-.1,0-.19-.06-.2-.17S21.92,16.25,22,16.23Z"/><path id="_Path_48" data-name="&lt;Path&gt;" d="M19.21,21.66h2.25c.06,0,.15,0,.18,0s0,.13-.09.18c-.33.36-.67.71-1,1.08a.45.45,0,0,1-.52.16,21.46,21.46,0,0,1-2.32-.82L16.88,22c-.09,0-.21-.06-.2-.18s.16-.12.26-.12Z"/><path id="_Compound_Path_6" data-name="&lt;Compound Path&gt;" d="M32.17,18.5a1.17,1.17,0,0,1-.2,0,1.59,1.59,0,0,0-1.39.47.33.33,0,0,0-.15.3.47.47,0,0,1-.41.5.51.51,0,0,1-.62-.38.42.42,0,0,1,.26-.58,3.74,3.74,0,0,0,.81-.42.52.52,0,0,1,.28-.06H33c.06,0,.15,0,.15.09s-.09.08-.15.08h-.83Zm-2.3,1.09a.36.36,0,0,0,.37-.34.37.37,0,0,0-.33-.36c-.16,0-.31.2-.31.4A.27.27,0,0,0,29.87,19.59Z"/><path id="_Path_49" data-name="&lt;Path&gt;" d="M38.8,20.7a.12.12,0,0,1,.12.11.09.09,0,0,1-.1.11.11.11,0,0,1,0-.22Z"/><path id="_Path_50" data-name="&lt;Path&gt;" d="M37.31,22.52a.4.4,0,0,1-.4-.42.5.5,0,0,1,.44-.47.43.43,0,0,1,.46.41A.47.47,0,0,1,37.31,22.52Z"/><path id="_Path_51" data-name="&lt;Path&gt;" d="M30,19.24a.06.06,0,0,1-.08,0,0,0,0,0,1,0-.08.07.07,0,0,1,.06,0S30,19.2,30,19.24Z"/></g></svg>