<svg xmlns="http://www.w3.org/2000/svg" class="HeroAbility-icon HeroAbility-icon--hoverState" viewBox="0 0 40 40" preserveAspectRatio="xMidYMid meet"><path id="theviper-2" data-name="theviper" d="M18.37,19.64h.1v-.1h-.1ZM4.6,17.08H4.4L2.66,17a2.66,2.66,0,0,1-.43-.29.5.5,0,0,0-.22.1v.41H4.66Zm14.8,1.17h.53v-.38H19.4ZM3.53,17.36l.46.27H6.36a.29.29,0,0,1,.2.06l.07.07h.61l.18-.1h8.27l.45-.11.41-.08h.57l0,0H17ZM2.37,19.45a.53.53,0,0,0,.3.39,4.43,4.43,0,0,0-.3-.52A.28.28,0,0,0,2.37,19.45Zm.39-1.9c.1-.1.13-.12.16-.12h.24l.13-.07H1.51a.24.24,0,0,0-.1.1l-.07.09a1.1,1.1,0,0,0-.07.16,1.1,1.1,0,0,0,0,.17.84.84,0,0,0,.17.45.47.47,0,0,0,.14.14h.36a.21.21,0,0,1,0-.17C2.11,18.26,2.66,17.66,2.76,17.55Zm15.5,1.55h0v.09h.09A.14.14,0,0,0,18.26,19.1ZM5.63,20.27h0l-.15-.1A3.48,3.48,0,0,0,5,19.89l-.18-.08H4.7a4.89,4.89,0,0,0-.54-.19H4.07l.06-.06a.62.62,0,0,0,.08-.19h0a.59.59,0,0,0,0-.08h0a.13.13,0,0,0,0-.06.14.14,0,0,0,0-.11v0h0v0H3.73a.21.21,0,0,1,0,.13v.13H3.54a.18.18,0,0,1,0-.07,1.39,1.39,0,0,1-.35-.57l-.06-.21a2,2,0,0,1,0-.26h0v-.06h0V18h0a.93.93,0,0,1,.37-.39h.24a1.07,1.07,0,0,0-.27-.15l-.13.06H2.92l-.81.88h.12l.06.09h0l.11.17c0,.08.1.16.14.24l.12.19v.08a.49.49,0,0,1,.06.13h0a.49.49,0,0,0,0,.12h0v.19h0v0H4.38l.58,0h1.5l-.8-.11ZM24,17.84a.34.34,0,0,0,0-.17l-.14-.15a.16.16,0,0,0-.11,0H22.71a.33.33,0,0,0-.17,0l-.29.1H21.07L21,17.46h-.6v.36H24Zm1.28-.54h.06a.24.24,0,0,0-.12,0,.19.19,0,0,0-.16.07v0a.64.64,0,0,0,.11.09l.07,0h0a.08.08,0,0,1,0-.16Zm1.19.61c.06,0,.71.19.71.19a.66.66,0,0,0-.25-.45c-.17-.14-.43-.31-.29-.67a.93.93,0,0,1,.2-.29l-.11-.1a2,2,0,0,0-.52.59v.2a1,1,0,0,1,.22.54Zm-7.31-.61h0v.08h0v.28h.87a.16.16,0,0,1,0-.12l.08-.08a.17.17,0,0,1,.12,0H21a.21.21,0,0,1,.12,0l.09.1h1l.28-.11a.54.54,0,0,1,.21,0h1.16a.25.25,0,0,1,.18.08l.15.17a.3.3,0,0,1,.08.21v.43h.31a.35.35,0,0,1,.18,0l.09-.06V18h0c.66,0,.82.41.85.6H25.5v.12h.15c0,.21-.19.56-.85.6h0V19L24.7,19a.47.47,0,0,1-.17,0h-.31v.46a.76.76,0,0,0,.28.29.74.74,0,0,0,.32.1h.87l.17-.07h0l.12-.1h0v-.07h0a1.38,1.38,0,0,0,.12-.28,1.41,1.41,0,0,0,0-.2,1.2,1.2,0,0,0,0-.19.58.58,0,0,0,0-.19.19.19,0,0,0,0-.08.75.75,0,0,0-.38-.43l-.24-.11c-.24-.09-.36-.13-.36-.27a.34.34,0,0,1,0-.16h-.15l-.06,0h0l-.14-.08h0a.11.11,0,0,1,0-.08.31.31,0,0,1,0-.1h.82a.14.14,0,0,0,0-.06h0v-.07l0,0,0,0H24.39l-.23.07H19.63l-.11-.06h0l-.1-.07h-.11s-.06,0-.07,0h0v.13Zm1.59,1.62v-.41a.21.21,0,0,0-.11-.18l-.25-.12v1l.25-.12a.2.2,0,0,0,.08-.17Zm-.38.66V20H24a.17.17,0,0,0,.07-.15v-.21H20.42Zm4.41-.6.09,0v.23c.5,0,.64-.27.68-.47h-.13v-.18h.13c0-.21-.19-.44-.68-.48v.23l-.08,0a.36.36,0,0,1,.16.31.38.38,0,0,1-.2.26Zm.21-.33h.31v.13H25Zm-1,.8v-.35H22.87a.27.27,0,0,1-.26-.27v-.27a.27.27,0,0,1,.26-.27H24V18h0a.12.12,0,0,0-.1,0H20.41v.16l.31.15a.27.27,0,0,1,.14.25V19a.27.27,0,0,1-.14.24l-.31.15v.16h3.53a.16.16,0,0,0,.11-.12ZM20.18,20h0V17.47h0l-.07.08a.09.09,0,0,0,0,.06v.81h0v1.4a.09.09,0,0,0,.08.1h0Zm4.49-1.31a.27.27,0,0,0-.26-.28H23.06a.15.15,0,0,0-.15.15h0v.23a.15.15,0,0,0,.14.16h1.37A.27.27,0,0,0,24.67,18.65Zm-8.93-.92H7.47l-.15.11H6.52v-.06s0-.07-.17-.07H3.94a2.46,2.46,0,0,0-.46,0,1,1,0,0,0-.28.21H5.26l.1.06.17.08h.26v0H7.36v0H8.92v0H19.26v-.26l.08-.1H20v-.1h-.86a.07.07,0,0,1-.07-.07v-.21h0v.19h-.63a2,2,0,0,0-.06-.24L18.26,17H18.1a.45.45,0,0,0-.17.35h-.09s0,0,0,.09H16.65a6.43,6.43,0,0,0-.91.3ZM31,21.63l-4-1.52h-.08c-.08,0-.69.72-.77.82v.12a6,6,0,0,1-.83.41H25a8.29,8.29,0,0,1-.81-.54,1.16,1.16,0,0,0,0-.52c0-.07,0-.24.09-.27h.41a2.9,2.9,0,0,0,1.19-.1l.3-.18a.2.2,0,0,1,.2,0l.18.08.32,0a1.19,1.19,0,0,1,.25-1.29c.3-.31.85-.08,1.61.23.22.1.47.2.73.3,1,.39,1.2.34,1.2.34h0a1.23,1.23,0,0,1,.42.9.91.91,0,0,0,.78-.21.83.83,0,0,0,.29-.58s-.31-.2-.44-.26h-.13l-.87,0h-.16c-.58-.12-2.52-.79-3.08-1l-.45-.15s-.64-.15-.7-.19a1,1,0,0,0-.24-.54.73.73,0,0,0-.24-.08h0l-.29.06v.11c-.07.21,0,.22.23.33l.3.13a.82.82,0,0,1,.44.53,1.26,1.26,0,0,1-.15,1,1.46,1.46,0,0,1-1.27.54h-.24a1.31,1.31,0,0,1-.5-.14.08.08,0,0,0-.11,0h0a.21.21,0,0,1-.08.11h-.41a.49.49,0,0,1,.18.14.58.58,0,0,1,.12.25v.17a.53.53,0,0,1-.15.31.76.76,0,0,1-.52.21c-.07,0,1.46.6,1.46.6h.61l.82-.38a.25.25,0,0,1,.17,0l1.23.58a17.18,17.18,0,0,0,1.8.63,2.44,2.44,0,0,0,.81-.39,6.57,6.57,0,0,1,.7-.38v-.19Zm-.78.16-.56.31a.22.22,0,0,1-.18,0c-.2,0-2-.73-2-.76s-.06-.09-.08-.14h0l-.6-.23h0v-.12a.08.08,0,0,1,0-.07l.2-.24h.29l2.89,1.09h0a.83.83,0,0,1,0,.2Zm-6.43-1a.4.4,0,0,0,.12-.29.44.44,0,0,0-.25-.38.63.63,0,0,0-.28-.07H20.26v.22H13.63v.23a0,0,0,0,0,0,.06h7a1.26,1.26,0,0,1,.44.07c.28.09.54.46.64.58h.35l.19-.06a5.25,5.25,0,0,1,.85-.26h.18a.6.6,0,0,0,.53-.06Zm2.38-.16a.73.73,0,0,0,.3-.4,1.08,1.08,0,0,0,0-.25l-.13,0a.14.14,0,0,0-.14,0l-.21.12a.41.41,0,0,1,.08.28.27.27,0,0,1-.18.24v.13A.57.57,0,0,0,26.16,20.64Zm1.59,1.42-1.23-.58a.25.25,0,0,0-.17,0l-.82.39h-.61l-1.47-.59a.17.17,0,0,0,0,.12c0,.07.09.11.15.16l.39.3a2,2,0,0,0,1.33.51A4.14,4.14,0,0,0,26.5,22a2.12,2.12,0,0,1,.41.06,3.14,3.14,0,0,0,.89.08V22Zm2.42-1.66-.54-.52-2-.73h-.12a.24.24,0,0,0-.15,0,.21.21,0,0,0-.08.19v.7l2.55,1,.07-.17v-.28h0Zm4.87,3,.63-.23a.09.09,0,0,0,0-.11v-.19a.11.11,0,0,0-.06-.07l-1.23-.31a.08.08,0,0,0-.07,0l-.13.11a.17.17,0,0,1-.14,0l-.49,0a.16.16,0,0,1-.11-.1l0-.14c-.18-.48-.62-1.69-.67-1.83a.84.84,0,0,1,0-.31,1.37,1.37,0,0,0-.41-.45,1.09,1.09,0,0,1-.36.65,1.05,1.05,0,0,1-.87.18h0a1.21,1.21,0,0,0-.45-1,3.79,3.79,0,0,1-1.24-.35L28.72,19c-.73-.31-1.25-.51-1.52-.24A1.12,1.12,0,0,0,27,20h.18v-.71A.29.29,0,0,1,27.3,19a.4.4,0,0,1,.36,0c.11,0,2,.72,2.06.75h0l.62.62-.29.26v.25L30,21.1l1.11.43h.11l.14-.33a.25.25,0,0,1,.16-.14L32,21a.23.23,0,0,1,.25.12L33,22.5a.33.33,0,0,0,.22.18l.73.17h0l.16.2a.12.12,0,0,1,0,.1v.06l.4.1.16.08H35Zm-.69-1-.5.49h0l-.71-.17a.48.48,0,0,1-.27-.23l-.7-1.3a.17.17,0,0,0-.13-.09h0l-.46.1a.14.14,0,0,0-.11.09l-.18.29.06.06.47.57h0l.23.28a.57.57,0,0,0,.23.16l1.68.44h0ZM32,21.63a.18.18,0,1,1,.18-.18A.18.18,0,0,1,32,21.63Zm4-.08,3,1.61-.07-.09-.21-.34c0-.06-.07-.11-.1-.16a5.84,5.84,0,0,1-.29-.52c-.06-.14-.12-.29-.17-.43s-.1-.29-.14-.43a4.21,4.21,0,0,1-.18-.85V20.2a1.14,1.14,0,0,1,0-.19v-.5a.72.72,0,0,1,.16-.23l.07,0a2.05,2.05,0,0,1,.32-.19h.06a.44.44,0,0,0,.15-.08v0a1.54,1.54,0,0,0,0-.21h0v-.06h0a6.23,6.23,0,0,0-1.21-.45,2.41,2.41,0,0,1-.47-.19l-.1-.08a.57.57,0,0,0-.16-.11,17.85,17.85,0,0,0-1.84-.16h-.41l-.06.15h.84c.41.06.93.15,1.52.27h.29l.62.75h0a.56.56,0,0,0,0,.08,1.73,1.73,0,0,0-.1.23v.08a1.32,1.32,0,0,0-.06.3,1.61,1.61,0,0,0,0,.32v.29a.84.84,0,0,0,0,.34,5.83,5.83,0,0,0,.38,1.22q.08.18.17.36a8.2,8.2,0,0,0,.61,1.05l.09.12h0v.72a.07.07,0,0,1,0,0h-.07l-.81-.2h0l.22.33.65.2H39L39.11,23a.34.34,0,0,0-.19.14Zm-20.4-4h.08V19.1h0c-.11,0-.13.06-.13.06Zm-.07,0v.11h0Zm20,5h0v-.68a6.94,6.94,0,0,1-1.26-2.83,2.55,2.55,0,0,1,.11-1.53.17.17,0,0,0,0-.18l-.53-.63-.09,0c-1.4-.29-2.44-.39-2.45-.39h0a.19.19,0,0,0,0,.08h0a5.5,5.5,0,0,0,.51.34l.12.08a9.45,9.45,0,0,1,.8.57h0a2,2,0,0,1,.32.28,1,1,0,0,1,0,.52v.13a8.75,8.75,0,0,0,.08,1,4,4,0,0,0,.12.56h0a.71.71,0,0,1-.34.1h0s-2.53-.66-2.59-.71a4.2,4.2,0,0,1-.43-.52.38.38,0,0,0,0,.16c0,.15.51,1.36.68,1.84v.1a.07.07,0,0,0,0,0l.37.09H34l.11-.1a.15.15,0,0,1,.11,0h0l1.28.33a.17.17,0,0,1,.13.14l.06.21a.2.2,0,0,1-.12.23l-.63.22h-.26l.28.09h.24a4,4,0,0,0,.59-.06H36l.92.25.44.12.15,0h0l.87.21Zm-1.21-.86a.32.32,0,0,1-.32-.32h0a.33.33,0,0,1,.32-.33.32.32,0,0,1,.32.32h0a.32.32,0,0,1-.33.3h0ZM10.79,20v-.25a.29.29,0,0,1,.07-.18l0-.06a.21.21,0,0,1,.16-.08h2.35l.11.07a.21.21,0,0,1,.1.18v.42h6.32V18.46h-.62l-.07-.11H9.37l.18.76h0l.4.1a.09.09,0,0,1,.06.06l.16.37H9.81l-.1-.14H9.3a.21.21,0,0,1-.19-.17l-.25-.87a.2.2,0,0,1,0-.11h-1l.18.76h0l.4.1a.09.09,0,0,1,.06.06l.07.37H8.24l-.1-.14H7.73a.21.21,0,0,1-.19-.17l-.25-.87a.4.4,0,0,1,0-.11H6.2l.18.76h0l.4.1a.09.09,0,0,1,.06.06l.14.39h-.3l-.1-.14H6.17A.21.21,0,0,1,6,19.36l-.25-.87a.4.4,0,0,1,0-.11H5.5l-.3-.18h-2a1.43,1.43,0,0,0,.27.7A.16.16,0,0,0,3.6,19a.18.18,0,0,0-.07-.08.15.15,0,0,1-.07-.15.14.14,0,0,1,.12-.1h.24a.62.62,0,0,1,.6.38.51.51,0,0,1,0,.47,4.88,4.88,0,0,1,1.32.63l.83.11a.15.15,0,0,1,.11.08h4.26l-.09-.13A.3.3,0,0,1,10.79,20Zm7.76-.19h-.22v-.17h0v-.06h.12v.06h0Zm.13-.59-.13.08v.08h0V19.3h0v.1h-.06v-.09h0v.08h0v-.07l-.11-.07v-.08a.26.26,0,0,1,.52,0A.13.13,0,0,0,18.68,19.23Zm.57-.44-.09.23-.22.11h.21l.09.07-.09.07H19l.18.07h0l-.12.07-.12-.07.09.11v.06l-.21,0v0l-.06-.08a.39.39,0,0,0,.09-.26v-.1Zm-.81-.14a.52.52,0,0,1,.45.27l-.12.08a.39.39,0,0,0-.34-.19.37.37,0,0,0-.33.19L18,18.92A.53.53,0,0,1,18.43,18.65Zm-.39.46a.38.38,0,0,0,.08.38l0,.07v0l-.21,0v-.11l.09-.11-.13.07-.11-.07h0l.18-.07h-.19l-.09-.07.08-.07h.22L17.7,19l-.09-.23Zm-4.61,1.6a.14.14,0,0,1,0-.06v-.86h0l-.15-.14H11.11v0h0a.09.09,0,0,0,0,.07V20h0l.45.7h2l.08-.07V20.6H13.5A.14.14,0,0,1,13.44,20.7Zm23.8,2a.18.18,0,0,0-.18.18h0a.18.18,0,1,0,.19-.19h0Z"/></svg>