<svg xmlns="http://www.w3.org/2000/svg" class="HeroAbility-icon HeroAbility-icon--hoverState" viewBox="0 0 40 40" preserveAspectRatio="xMidYMid meet"><g id="_Group_" data-name="&lt;Group&gt;"><path id="_Compound_Path_" data-name="&lt;Compound Path&gt;" d="M22,24.77a20.88,20.88,0,0,1-5.86-.83,18.16,18.16,0,0,1-4.74-2.12,13.61,13.61,0,0,1-2.75-2.29.28.28,0,0,1-.09-.22c0-.19,0-.39.06-.58s.08-.17.2-.14l.75.15a1.36,1.36,0,0,0,1.34-.62,1,1,0,0,0-.33-1.24,3,3,0,0,0-1.18-.38c-.25,0-.26-.05-.17-.28A11.6,11.6,0,0,1,12,11.89c.11-.11.16-.1.26,0,.27.35.56.69.86,1a1.07,1.07,0,0,0,1.36.16A1.09,1.09,0,0,0,15,11.81a2.46,2.46,0,0,0-.67-1.1c-.33-.31-.32-.36.07-.58a11.25,11.25,0,0,1,2.51-1c.13,0,.18,0,.21.12.08.4.12.82.19,1.22a1.12,1.12,0,0,0,1.14,1,1.11,1.11,0,0,0,1-.92,8,8,0,0,0,0-1.47,2,2,0,0,0,0-.2c0-.14,0-.19.17-.19a11.46,11.46,0,0,1,7.68,2.57c.1.08.09.13,0,.22-.33.37-.7.69-1.06,1a1.18,1.18,0,0,0-.39,1.12,1,1,0,0,0,.78.84,1.09,1.09,0,0,0,1.14-.33,7,7,0,0,1,.7-.63c.15-.12.26-.27.42-.38s.16-.07.24,0A11.61,11.61,0,0,1,30.74,16a11.49,11.49,0,0,1,.74,4.73,7.21,7.21,0,0,1-.09.9c0,.19,0,.2-.24.15l-.68-.18a1.18,1.18,0,0,0-1.18.27,1,1,0,0,0-.16,1.23c.08.14,0,.19-.09.24a16.9,16.9,0,0,1-4.78,1.25A17.85,17.85,0,0,1,22,24.77ZM18.36,18.4a3.09,3.09,0,0,0-.47-1.5c-.06-.09-.09-.16,0-.23s.14-.14.06-.25-.18-.15-.29-.07-.19,0-.28,0A3,3,0,0,0,13.61,16c-.12.09-.19.08-.27,0l-.05-.06A.18.18,0,0,0,13,16a.64.64,0,0,0,.06.34c.05.08,0,.14,0,.21a3,3,0,0,0-.37,3.2c0,.09.05.15,0,.22a.29.29,0,0,0-.07.4.28.28,0,0,0,.37.08c.12-.08.18,0,.25.05a2.77,2.77,0,0,0,.94.68,3,3,0,0,0,3.08-.33.39.39,0,0,1,.28-.11c.15,0,.22-.11.21-.24a.32.32,0,0,1,.08-.22A3.11,3.11,0,0,0,18.36,18.4Zm4.39,3.05a.29.29,0,0,0,.46.25c.12-.09.17-.05.25,0a3,3,0,0,0,4.06.31.23.23,0,0,1,.24,0c.17.06.3-.06.24-.21a.25.25,0,0,1,.06-.28,3,3,0,0,0,.17-3.4c-.07-.11-.07-.18,0-.26a.22.22,0,0,0,.07-.33.25.25,0,0,0-.36,0c-.09.11-.15.07-.23,0A3,3,0,0,0,24,17.13c-.1.06-.15.07-.23,0a.29.29,0,0,0-.44,0,.28.28,0,0,0,0,.43c.11.1.07.15,0,.24a3,3,0,0,0-.7,1.83A3,3,0,0,0,23,21c0,.09,0,.14-.06.18A.27.27,0,0,0,22.75,21.45Z"/><path id="_Path_" data-name="&lt;Path&gt;" d="M20,31.61a8.63,8.63,0,0,1-1,0c-.19,0-.21,0-.18-.23l.45-3.58c.09-.74.19-1.48.24-2.22,0-.18.12-.18.24-.16a11.15,11.15,0,0,0,1.9.06c.49,0,1-.06,1.46-.1.21,0,.22,0,.19.2-.14.84-.26,1.68-.37,2.53l-.28,2.05c0,.36-.1.72-.14,1.08a.18.18,0,0,1-.16.18,11.4,11.4,0,0,1-1.45.21A6.58,6.58,0,0,1,20,31.61Z"/><path id="_Path_2" data-name="&lt;Path&gt;" d="M15,30.36l.14-1.08.33-2.53q.14-1.07.27-2.13c0-.11.07-.13.16-.1.67.17,1.34.32,2,.54a6.07,6.07,0,0,0,1,.23c.21,0,.23,0,.2.23-.17,1-.3,2-.43,3s-.25,1.87-.36,2.81c0,.14-.07.17-.21.15a11.76,11.76,0,0,1-3-.93C15.07,30.49,15,30.46,15,30.36Z"/><path id="_Path_3" data-name="&lt;Path&gt;" d="M11.44,27.63l.22-1.74c.11-.91.24-1.82.32-2.73,0-.32,0-.34.3-.16a14.36,14.36,0,0,0,2.6,1.2c.33.13.33.12.29.47l-.34,2.62c0,.18,0,.18-.19.11a1.1,1.1,0,0,0-1.3.25c-.28.28-.52.61-.78.91s-.16.18-.32,0l-.7-.7A.26.26,0,0,1,11.44,27.63Z"/><path id="_Path_4" data-name="&lt;Path&gt;" d="M23.83,28.51h-.09c-.28,0-.29,0-.25-.27.09-.82.19-1.64.28-2.45,0-.13,0-.25,0-.38a.13.13,0,0,1,.13-.14q1-.11,2-.28a5.59,5.59,0,0,0,.84-.19c.17-.06.2,0,.18.14q-.18,1.27-.36,2.55c-.1.71-.19,1.42-.28,2.14a.29.29,0,0,1-.15.23l-.65.38c-.11.07-.17.06-.23-.07a11.07,11.07,0,0,0-.5-1,1.18,1.18,0,0,0-.83-.59Z"/><path id="_Path_5" data-name="&lt;Path&gt;" d="M30.76,24.16l-.07.19A11.48,11.48,0,0,1,27,29.22s-.09.1-.14.07,0-.1,0-.15c.11-.88.22-1.77.33-2.65.06-.52.12-1,.17-1.56s0-.39.42-.52l1.65-.53c.12,0,.26,0,.36-.13s.06,0,.1,0l.75.27C30.72,24.06,30.78,24.07,30.76,24.16Z"/><path id="_Path_6" data-name="&lt;Path&gt;" d="M11,27.13a.75.75,0,0,1-.22-.24,11.48,11.48,0,0,1-2.12-5.4,8,8,0,0,1-.08-1.2s0-.11,0-.13.09,0,.12.07a18.46,18.46,0,0,0,2.65,2.12.4.4,0,0,1,.2.47c-.23,1.25-.36,2.52-.53,3.78Z"/><path id="_Path_7" data-name="&lt;Path&gt;" d="M14.84,12.12a.91.91,0,0,1-1.12.88,1.41,1.41,0,0,1-.81-.58c-.63-.84-1.22-1.7-1.83-2.55a.39.39,0,0,1,.1-.6l.84-.6a.43.43,0,0,1,.65.11l1.9,2.58A1.13,1.13,0,0,1,14.84,12.12Z"/><path id="_Path_8" data-name="&lt;Path&gt;" d="M18.43,11.06a.87.87,0,0,1-.9-.8c-.14-.71-.19-1.43-.27-2.15,0-.27-.05-.54-.09-.81a.36.36,0,0,1,.36-.47l.85-.09c.35,0,.5.1.54.45.1.94.22,1.88.31,2.82a1,1,0,0,1-.34.93A.83.83,0,0,1,18.43,11.06Z"/><path id="_Path_9" data-name="&lt;Path&gt;" d="M30.12,21.86a5.68,5.68,0,0,1,1.28.28l2,.62a.35.35,0,0,1,.25.48q-.14.45-.28.89a.4.4,0,0,1-.53.28l-2.73-.83a1.16,1.16,0,0,1-.65-.44A.84.84,0,0,1,29.68,22,.76.76,0,0,1,30.12,21.86Z"/><path id="_Path_10" data-name="&lt;Path&gt;" d="M23,29.73a.75.75,0,0,1,.55-.8.8.8,0,0,1,.9.24,5.27,5.27,0,0,1,.66,1.21c.27.59.52,1.18.78,1.77a.35.35,0,0,1-.2.54l-.87.38a.35.35,0,0,1-.5-.19l-1.21-2.69A1.57,1.57,0,0,1,23,29.73Z"/><path id="_Path_11" data-name="&lt;Path&gt;" d="M14.91,28.45a.92.92,0,0,1-.26.65c-.6.75-1.2,1.49-1.8,2.23a.39.39,0,0,1-.62.07l-.74-.58a.33.33,0,0,1-.06-.5c.64-.78,1.22-1.6,1.91-2.34a1,1,0,0,1,.75-.38A.81.81,0,0,1,14.91,28.45Z"/><path id="_Path_12" data-name="&lt;Path&gt;" d="M9.79,18.51a6.06,6.06,0,0,1-1.13-.2l-2-.4a.4.4,0,0,1-.34-.51q.08-.47.18-.93A.35.35,0,0,1,7,16.2c1,.23,1.95.36,2.9.63a1.18,1.18,0,0,1,.57.3.89.89,0,0,1,.11,1,.71.71,0,0,1-.59.35Z"/><path id="_Path_13" data-name="&lt;Path&gt;" d="M26.85,14.22a.84.84,0,0,1-.83-.76,1.18,1.18,0,0,1,.44-.92c.54-.51,1.11-1,1.67-1.49l.44-.39a.34.34,0,0,1,.55.05l.57.65a.39.39,0,0,1,0,.62c-.71.65-1.42,1.3-2.14,1.94A.91.91,0,0,1,26.85,14.22Z"/><path id="_Path_14" data-name="&lt;Path&gt;" d="M15.37,21.26a2.78,2.78,0,0,1-2.1-.94c-.09-.1-.09-.16,0-.24l1.82-1.35a.14.14,0,0,1,.21,0L17,20.48c.11.11,0,.16,0,.22A2.8,2.8,0,0,1,15.37,21.26Z"/><path id="_Path_15" data-name="&lt;Path&gt;" d="M17.3,16.6a.17.17,0,0,1-.08.1L15.44,18a.11.11,0,0,1-.17,0l-1.54-1.6c-.08-.08,0-.12,0-.17a2.76,2.76,0,0,1,3.45.26S17.3,16.54,17.3,16.6Z"/><path id="_Path_16" data-name="&lt;Path&gt;" d="M18.08,18.42a2.82,2.82,0,0,1-.51,1.68c-.08.11-.13.14-.24,0l-1.61-1.67c-.08-.08-.08-.13,0-.19L17.46,17c.1-.08.16-.06.22,0A2.64,2.64,0,0,1,18.08,18.42Z"/><path id="_Path_17" data-name="&lt;Path&gt;" d="M12.58,18.36a2.74,2.74,0,0,1,.57-1.55c.08-.11.13-.12.23,0l1.44,1.45c.09.09.1.14,0,.23l-1.73,1.25c-.13.09-.18.08-.24-.07A3,3,0,0,1,12.58,18.36Z"/><path id="_Path_18" data-name="&lt;Path&gt;" d="M25.52,22.43a2.7,2.7,0,0,1-2-1c-.07-.08-.08-.13,0-.2l1.93-1.41a.12.12,0,0,1,.19,0l1.69,1.78c.09.09,0,.14,0,.2A2.85,2.85,0,0,1,25.52,22.43Z"/><path id="_Path_19" data-name="&lt;Path&gt;" d="M25.75,16.91a2.64,2.64,0,0,1,1.82.76c.08.08.1.13,0,.21L25.8,19.2c-.1.08-.17.08-.25,0l-1.43-1.62c-.08-.09-.06-.15,0-.21A3,3,0,0,1,25.75,16.91Z"/><path id="_Path_20" data-name="&lt;Path&gt;" d="M28.41,19.6a2.79,2.79,0,0,1-.55,1.72c-.08.11-.13.12-.23,0L26,19.68c-.1-.1-.07-.15,0-.22l1.77-1.28c.1-.08.15,0,.2,0A2.62,2.62,0,0,1,28.41,19.6Z"/><path id="_Path_21" data-name="&lt;Path&gt;" d="M22.91,19.79a2.88,2.88,0,0,1,.65-1.91c.08-.1.14-.11.23,0l1.43,1.51c.1.1.1.16,0,.24l-1.83,1.29c-.11.08-.16.05-.21-.06A2.77,2.77,0,0,1,22.91,19.79Z"/></g></svg>