<svg xmlns="http://www.w3.org/2000/svg" class="HeroAbility-icon HeroAbility-icon--hoverState" viewBox="0 0 40 40" preserveAspectRatio="xMidYMid meet"><path class="cls-1" d="M27.68,26.48l-.63.48c1.36.44,2.19,1,2.19,1.65,0,1.41-4.14,2.55-9.24,2.55S10.76,30,10.76,28.61c0-.63.83-1.21,2.21-1.65l-.56-.5c-2.45.75-4,1.87-4,3.11,0,2.27,5.19,4.11,11.59,4.11s11.59-1.84,11.59-4.11C31.59,28.33,30.08,27.23,27.68,26.48Z"/><path d="M29.46,11.53l-3-1.71-5,5v4.81h3l-.78.73-3.15,2.92-.39.35a.2.2,0,0,1-.32,0l-1.32-1.21-2.74-2.54-.23-.22s1.36,0,3,0V13.6l5.33-5.33-3-1.72a1.66,1.66,0,0,0-1.66,0l-8.63,5A1.66,1.66,0,0,0,9.71,13v10a1.66,1.66,0,0,0,.83,1.43l8.63,5a1.66,1.66,0,0,0,1.66,0l8.63-5a1.66,1.66,0,0,0,.83-1.43V13A1.66,1.66,0,0,0,29.46,11.53Z"/></svg>