<svg xmlns="http://www.w3.org/2000/svg" class="HeroAbility-icon HeroAbility-icon--hoverState" viewBox="0 0 40 40" preserveAspectRatio="xMidYMid meet"><path d="M35.42,16.41c0,1.07-1.07,2.51-2.45,3.56a14.85,14.85,0,0,1-2.48,1.31,5.42,5.42,0,0,0,.9-1.45,7.61,7.61,0,0,0,.79-3.66,3.4,3.4,0,0,0-.13-1h0c0,.54-1.21,1.86-2.1,2.21a4.31,4.31,0,0,0,1.23-1.87C32,10.51,26,7.92,26,7.92c2.31,2.49,2.91,6.6-3.09,13.67a20,20,0,0,0-4.82,9.94,2.24,2.24,0,0,1,.13-.39l-.13.39a33.53,33.53,0,0,1,4.12-6.18A35,35,0,0,1,29,20.2,10.08,10.08,0,0,0,31,18.67a6,6,0,0,0,.53-.58.05.05,0,0,1,.09,0,10.55,10.55,0,0,1-2.19,3.24A10,10,0,0,1,26.79,23a23.27,23.27,0,0,0-2.86,1.68A14.24,14.24,0,0,0,19.43,30c2.81-3.23,5.49-3.5,11.25-5.6S35.42,16.41,35.42,16.41ZM22.1,28.34c2.88-.82,3.49.33,5.75.25,3.29-.12,4.87-3.31,4.87-3.31-2.15,1.14-3.61.84-5.91,1.27C22.93,27.29,22.1,28.34,22.1,28.34Zm-8.8-1.78c-2.3-.43-3.76-.14-5.91-1.27,0,0,1.58,3.19,4.87,3.31,2.26.08,2.87-1.07,5.75-.25C18,28.34,17.18,27.29,13.3,26.56Zm4.82,1.2a4.4,4.4,0,0,0-1.95-3.11A23.28,23.28,0,0,0,13.32,23a10,10,0,0,1-2.59-1.59,10.55,10.55,0,0,1-2.19-3.24.05.05,0,0,1,.09,0,6,6,0,0,0,.53.58,10.08,10.08,0,0,0,1.93,1.53,35,35,0,0,1,6.83,5.15c.22.25.44.51.65.77a6,6,0,0,0-1.36-4.53c-6-7.07-5.39-11.18-3.09-13.67,0,0-6,2.59-5.19,7.62a4.31,4.31,0,0,0,1.23,1.87C9.26,17,8,15.72,8.06,15.19h0a3.4,3.4,0,0,0-.13,1,7.61,7.61,0,0,0,.79,3.66,5.42,5.42,0,0,0,.9,1.45A14.85,14.85,0,0,1,7.14,20c-1.39-1-2.42-2.49-2.45-3.56,0,0-1,5.89,4.75,8C13.48,25.86,16,26.43,18.12,27.76Z"/></svg>