<svg xmlns="http://www.w3.org/2000/svg" class="HeroAbility-icon HeroAbility-icon--hoverState" viewBox="0 0 40 40" preserveAspectRatio="xMidYMid meet"><path d="M15.55,23.05,17.21,22l.77.78L16.9,24.43A11,11,0,0,1,15.55,23.05Zm9.65-2.45c.16.24.24.41.22.48L19.1,25.26l-.73.23a11.23,11.23,0,0,1-1.16-.8c.37-.57.76-1.13,1.12-1.71a.42.42,0,0,0,0-.4c-.12-.22-.7-1-1.11-1a.31.31,0,0,0-.17,0,9.51,9.51,0,0,0-1.76,1.12,11.73,11.73,0,0,1-.72-1.06l.11-.71,4.4-6.3a2.93,2.93,0,0,1,.48.25q1.08.83,2.08,1.74l-.33.51L23,18.88l.5-.33.51.58Q24.64,19.84,25.2,20.61Z" fill-rule="evenodd"/><path d="M14.6,22.47l-.17.19a.56.56,0,0,0,0,.72c.18.24.38.47.57.69l-.66.66a1.86,1.86,0,0,0-.94-.33c-1.1,0-1.73,1-2.54,1.88a1.54,1.54,0,0,0-.29,1.64,2.48,2.48,0,0,0,.21.38l-.65.66a1.58,1.58,0,0,0-.91-.37H9c-.93.07-1.63,1.1-2.4,1.88a1.56,1.56,0,0,0,0,2.1c.56.56,1.14,1.18,1.87,1.13.92-.07,1.61-1.08,2.4-1.88a1.56,1.56,0,0,0,0-2l.62-.63a1.82,1.82,0,0,0,1.09.35c.94,0,1.64-1.06,2.44-1.89a1.55,1.55,0,0,0,.25-1.71,2.72,2.72,0,0,0-.21-.34l.65-.65c.24.21.48.41.73.6a.57.57,0,0,0,.71,0l.19-.18A12.5,12.5,0,0,1,14.6,22.47Zm-4.4,8.66q-.71.72-1.43,1.43a.5.5,0,0,1-.53.09c-.36-.15-1.27-1-.85-1.48s.95-1,1.43-1.43a.5.5,0,0,1,.32-.13.65.65,0,0,1,.25.05l-.44.44a.3.3,0,0,0,0,.43l.43.43a.3.3,0,0,0,.43,0l.44-.44A.54.54,0,0,1,10.2,31.12Zm4.18-4.19q-.71.73-1.43,1.43a.5.5,0,0,1-.53.09l-.08,0,.66-.66a.3.3,0,0,0,0-.43l-.43-.43a.3.3,0,0,0-.43,0l-.62.62a.48.48,0,0,1,0-.54q.71-.73,1.43-1.43a.51.51,0,0,1,.32-.13.65.65,0,0,1,.25.05l-.5.5a.3.3,0,0,0,0,.43l.43.43a.3.3,0,0,0,.43,0l.5-.5A.54.54,0,0,1,14.38,26.93Z" fill-rule="evenodd"/><polygon points="26.07 16.17 24 14.04 21.72 16.07 24.13 18.42 26.07 16.17" fill-rule="evenodd"/><polygon points="16.24 9.46 7.11 19.46 15.78 12.07 12.42 18.04 17.76 11.71 16.52 10.45 16.24 9.46" fill-rule="evenodd"/><polygon points="28.39 22.39 22.76 26.98 28.34 24.22 22.21 31.62 30.77 24.05 29.72 23.88 28.39 22.39" fill-rule="evenodd"/><path d="M34.19,24.09l-3-5.23-1.35-.62L28.59,17l-.69,0-1.64.8,1.36-1.59a.57.57,0,0,0,0-.76l-2.84-2.92a.57.57,0,0,0-.78,0l-1.53,1.32.73-1.47,0-.69-1.21-1.26L21.33,9,16.12,6l-.48-.07-1.11,1.2L15.1,8.5l1,1,.6-.12a.17.17,0,0,1,.15,0l2.58,1.67a.17.17,0,0,1,.07.16l-.07,2L20.63,15l.21.18h0l.61.59,2.3-2c.07-.06.07-.1.28-.09a.33.33,0,0,1,.25.11l2.07,2.13a.39.39,0,0,1,0,.51l-2,2.26.05.05.51.62,2,1.34,2-.06a.17.17,0,0,1,.16.07l1.9,2.49a.17.17,0,0,1,0,.15l-.26.73,1,1,1.36.59,1.09-1.15Z" fill-rule="evenodd"/></svg>