<svg xmlns="http://www.w3.org/2000/svg" class="HeroAbility-icon HeroAbility-icon--hoverState" viewBox="0 0 40 40" preserveAspectRatio="xMidYMid meet"><g id="_Group_" data-name="&lt;Group&gt;"><path id="_Compound_Path_" data-name="&lt;Compound Path&gt;" d="M29.68,13.69c.16-.7.31-4.34.34-4.59.06-.41-.08-.56-.49-.48-.77.25-4.14,1.29-5.41,1.87a15.17,15.17,0,0,0-7.89-.14C15,9.77,11.6,8.73,10.82,8.48c-.4-.09-.54.07-.49.48,0,.23.15,3.22.29,4.31A9.69,9.69,0,0,0,7.21,20.5c0,5.86,5.7,10.6,12.72,10.6s12.72-4.75,12.72-10.6A9.58,9.58,0,0,0,29.68,13.69Zm-17.82,0c-.21,0-.2-.2-.21-.3-.09-.71-.17-1.42-.21-2.13a7.62,7.62,0,0,1-.1-1.33c0-.18,0-.32.28-.23,1.5.53,3.06.91,4.57,1.62C15.61,11.6,12.2,13.65,11.87,13.68Zm1.93,4.84c-.45,0-.79-.43-.79-1a.76.76,0,0,1,.72-.85.9.9,0,0,1,.83.94A1,1,0,0,1,13.8,18.52Zm6.09,7.91C17.13,26.42,15,24.49,15,22s2.19-4.34,5-4.34h0c2.77,0,4.94,1.93,4.94,4.38S22.7,26.43,19.89,26.43Zm6-7.91c-.45,0-.79-.43-.79-1a.76.76,0,0,1,.72-.85.9.9,0,0,1,.83.94A1,1,0,0,1,25.85,18.52ZM29,11.39c0,.71-.12,1.42-.21,2.13,0,.11,0,.33-.21.3s-3.75-2.08-4.34-2.37c1.51-.71,3.07-1.08,4.57-1.62.24-.09.26.05.28.23A7.62,7.62,0,0,1,29,11.39Z"/><path id="_Path_" data-name="&lt;Path&gt;" d="M21.83,19.53,20,21.2c-.65-.48-1.31-.94-2-1.39s-1.26.62-.61,1S18.49,21.62,19,22l-1.48,1.32a.63.63,0,0,0-.15.11l-.16.16c-.55.56.28,1.37.85.85L20,22.75c.49.38,1.28,1,1.74,1.36l.08.07.11.08c.55.4,1.25-.5.73-.95s-1.27-1-1.76-1.38l1.74-1.56C23.26,19.87,22.41,19,21.83,19.53Z"/></g></svg>