<svg xmlns="http://www.w3.org/2000/svg" class="HeroAbility-icon HeroAbility-icon--hoverState" viewBox="0 0 40 40" preserveAspectRatio="xMidYMid meet"><g id="_Group_4" data-name="&lt;Group&gt;"><path id="_Path_4" data-name="&lt;Path&gt;" d="M20.95,20.32a.46.46,0,0,1,.3-.05h2.81c.2,0,.23-.05.13-.22a.91.91,0,0,1-.12-.36.66.66,0,0,1,.45-.74.12.12,0,0,1,.16,0l0,0a.86.86,0,0,0,.88.4c.94,0,1.89,0,2.84,0,1.23,0,2.46,0,3.69,0a1.25,1.25,0,0,1,.79.28c.6.47,1.21.92,1.82,1.37a1.34,1.34,0,0,1,.19.16,1,1,0,0,0,.58.29,8,8,0,0,0,.95.17c.23,0,.24,0,.32-.21s.12-.28.17-.42a4.19,4.19,0,0,0,.26-1.74.44.44,0,0,0-.08-.23c-.25-.35-.49-.71-.76-1a.57.57,0,0,0-.44-.25c-.31,0-.62-.09-.93-.12a5.46,5.46,0,0,0-1.91.15.41.41,0,0,0-.18.09.81.81,0,0,1-.59.16,1,1,0,0,0-.54.2.31.31,0,0,0-.13.26c0,.07,0,.13,0,.2a.35.35,0,0,0,.27.38c.05,0,.12,0,.15.1a.67.67,0,0,1-.27,0H29.55c-1.38,0-2.77,0-4.15,0a.65.65,0,0,1-.58-.37.06.06,0,0,1,0-.09s.08,0,.1,0a.44.44,0,0,0,.23.23.3.3,0,0,0,.48-.23.59.59,0,0,1,.1-.31c0,.12,0,.22.07.32a.29.29,0,0,0,.28.25.28.28,0,0,0,.3-.19c0-.09.07-.19.12-.32,0,.13,0,.22.06.32a.29.29,0,0,0,.51.16.71.71,0,0,0,.23-.44c0-.07,0-.15,0-.22s.07,0,.06.09a.85.85,0,0,0,0,.35.32.32,0,0,0,.49.24c.09,0,.19,0,.27-.11s.11,0,.16,0c.25.12.36.09.49-.15,0,0,0-.08.08-.08s.05.06.07.1c.07.23.07.22.3.24a2.89,2.89,0,0,0,.63,0,.25.25,0,0,0,.24-.21,2.77,2.77,0,0,1,.19-.5.49.49,0,0,1,.28-.27,1.3,1.3,0,0,0,.48-.36.48.48,0,0,0,.07-.7.25.25,0,0,1,0-.05c.05-.06.12,0,.19,0,.22,0,.44,0,.66,0s.64-.06,1-.05c0,0,.06,0,.07,0s.31-.06.47,0a8,8,0,0,0,1.83.38c.48,0,1,.12,1.43.21a1.4,1.4,0,0,1,.9.69A2.66,2.66,0,0,1,38,19.56a6.32,6.32,0,0,1,0,1.21,2.88,2.88,0,0,1-.45,1.14,6.33,6.33,0,0,0-.34.59,6.12,6.12,0,0,1-.78,1.09l-.5.6a.22.22,0,0,1-.26.08l-2.39-.63a.66.66,0,0,1-.24-.12,4.45,4.45,0,0,1-.91-.86,1.92,1.92,0,0,0-.48-.44l-1.17-.78a.45.45,0,0,0-.28-.09c-.24,0-.49,0-.73,0a.74.74,0,0,1-.53-.19l-.84-.73a.25.25,0,0,0-.21-.06,3.28,3.28,0,0,1-1,0,.24.24,0,0,0-.25.09,4.33,4.33,0,0,0-.5.73.49.49,0,0,0,0,.3c0,.09,0,.13-.11.13H23.42c-.11,0-.15,0-.15-.15,0-.26,0-.52,0-.78s0-.31-.31-.31H21.24A.6.6,0,0,1,20.95,20.32Z"/><path id="_Compound_Path_4" data-name="&lt;Compound Path&gt;" d="M24,20.07a.29.29,0,0,1-.2,0H21.21c-.26,0-.27,0-.31-.28s0-.52-.05-.78a13,13,0,0,0-.38-1.68,1.73,1.73,0,0,0-.58-.85,11.66,11.66,0,0,1-.93-.86s-.15-.08-.1-.18.06-.24.2-.27a.62.62,0,0,1,.17,0,3,3,0,0,1,.7,0,.88.88,0,0,0,.43,0,.33.33,0,0,1,.32.09l.35.33a.25.25,0,0,0,.2.09,16.07,16.07,0,0,1,1.72,0,12.28,12.28,0,0,1,2.77.37,4.63,4.63,0,0,1,.46.12,1.1,1.1,0,0,1,.46.24c.12.12.33.16.48.27l.15.1a.49.49,0,0,1,0,.85,1.55,1.55,0,0,1-.78.27,2.16,2.16,0,0,0-.67.16l-.37.1a.4.4,0,0,0-.33.24c0,.06-.09.08-.13.11a7.78,7.78,0,0,1-.74.44.7.7,0,0,0-.31.76A2.5,2.5,0,0,0,24,20.07Zm-2-4.24H20.39a.15.15,0,0,0-.15.12c0,.07,0,.13,0,.18a2.13,2.13,0,0,0,.45.33.23.23,0,0,0,.26,0,.38.38,0,0,1,.27,0h1.64c.39,0,.77,0,1.16,0,.11,0,.17-.07.12-.15a1.62,1.62,0,0,0-.47-.45s-.06,0-.1,0Zm0,1.79a.74.74,0,0,1-.19-.37s0-.1-.1-.1-.09,0-.11.09-.09.22-.14.32-.1.11-.16,0-.26-.42-.1-.68a.16.16,0,0,0,0-.07.09.09,0,0,0,0-.07.08.08,0,0,0-.07,0,.58.58,0,0,0-.2.55,6.83,6.83,0,0,1,.37.86.12.12,0,0,0,.23,0c0-.06,0-.12,0-.17a.87.87,0,0,1,.14-.38.55.55,0,0,1,.07.27,2.23,2.23,0,0,0,0,.22.13.13,0,0,0,.12.11c.06,0,.08-.05.1-.1a4.89,4.89,0,0,1,.4-.87.32.32,0,0,0-.13-.43s-.08,0-.11,0,0,.08,0,.11.12.11.07.2Z"/><path id="_Path_5" data-name="&lt;Path&gt;" d="M15.06,22.81c-.45-.06-.86-.06-1.27-.13-.19,0-.38,0-.58-.05-.44-.06-.89-.07-1.33-.11a5.29,5.29,0,0,1-.6-.09,7.33,7.33,0,0,0-.75-.09L7.48,22H7.4A8,8,0,0,1,6,21.95c-.28,0-.56-.05-.84-.09a1,1,0,0,1-.7-.48,7.5,7.5,0,0,1-.43-.8c-.08-.18,0-.32.06-.48s.13-.09.22-.09H5.93a2.1,2.1,0,0,0,.52,0A1.27,1.27,0,0,1,7,20a1.5,1.5,0,0,0,.68,0,.45.45,0,0,1,.17,0l.07,0c.32,0,.65,0,1,0a.69.69,0,0,1,.22,0,.72.72,0,0,0,.4,0,.39.39,0,0,1,.25,0,.61.61,0,0,0,.4,0c.07,0,.14,0,.14.08s.08.16.17.19a1,1,0,0,1,.42.26.56.56,0,0,0,.43.16.86.86,0,0,1,.4,0,.47.47,0,0,1,.24.24,3.47,3.47,0,0,1,.23.72.66.66,0,0,0,.52.49.25.25,0,0,0,.17,0,.79.79,0,0,0,.27-.22.51.51,0,0,1,.52-.23h.15a.76.76,0,0,1,.71.24.56.56,0,0,0,.89-.1c0-.05.07-.12.11-.17.16-.22.32-.18.45,0a2.05,2.05,0,0,1,.28.59.15.15,0,0,1-.06.18,2.9,2.9,0,0,1-1.08.46Z"/><path id="_Path_6" data-name="&lt;Path&gt;" d="M6.55,15.32c-.06.17-.12.3-.17.43s0,.18.12.19a1.5,1.5,0,0,0,.43,0c.07,0,.11-.07.14-.14a4.14,4.14,0,0,1,.34-.53c0-.06.08-.11.16-.06a1,1,0,0,0,.71.05,1,1,0,0,1,.15,0c.61,0,1.23,0,1.84-.06s1,0,1.43-.05.81,0,1.21,0c.76,0,1.51-.09,2.27-.06a.74.74,0,0,1,.42.13c.16.12.33.23.51.33s.1.08.06.16-.17.31-.26.46a.26.26,0,0,1-.45,0,2.12,2.12,0,0,1-.13-.27.21.21,0,0,0-.25-.16h-.2a.32.32,0,0,0-.3.14.25.25,0,0,1-.26.11l-.85-.09a.58.58,0,0,1-.34-.15.56.56,0,0,0-.93.18,2.14,2.14,0,0,0-.14.33,1.67,1.67,0,0,1-.14.3.49.49,0,0,1-.45.27h-.58a.34.34,0,0,0-.23.08l-.73.59a.61.61,0,0,1-.4.13h-5c-.28,0-.31,0-.35-.32a1.21,1.21,0,0,1,0-.55,2.69,2.69,0,0,1,.68-1.19c.06-.05.1-.11.19-.1.43,0,.85-.06,1.28-.05Z"/><path id="_Compound_Path_5" data-name="&lt;Compound Path&gt;" d="M35.65,24.75l.72-.87a9.21,9.21,0,0,1,.64-.75.64.64,0,0,0,.1-.14,11.83,11.83,0,0,1,1-1.44,1,1,0,0,0,.21-.48c.06-.36.12-.71.17-1.07a6.08,6.08,0,0,1,.24-1,.35.35,0,0,0,0-.31c-.24-.41-.5-.8-.76-1.2a.56.56,0,0,0-.52-.29,12.2,12.2,0,0,1-1.36-.11c-.33,0-.66,0-1-.09a6.13,6.13,0,0,1-1.41-.26l-.19-.08a1.61,1.61,0,0,1,.84-.17c.21,0,.44,0,.65.07a4.26,4.26,0,0,0,.88,0c.4,0,.8-.06,1.2-.09a2.17,2.17,0,0,1,.8,0,.25.25,0,0,1,.15.11c.36.53.74,1.06,1.07,1.61a1.54,1.54,0,0,1,.15,1,7.17,7.17,0,0,1-.17.7.65.65,0,0,0,0,.3c.07.34.1.69.14,1a.9.9,0,0,0,0,.12.67.67,0,0,1-.1.59c-.5.72-1,1.44-1.47,2.18a.67.67,0,0,1-.24.21,1.63,1.63,0,0,1-1,.25C36.19,24.73,36,24.75,35.65,24.75Zm1.6-.68a.1.1,0,0,0,.11-.1.14.14,0,0,0-.11-.17.13.13,0,0,0-.15.13A.16.16,0,0,0,37.25,24.07ZM39,21.86c0-.06,0-.11-.12-.09a.14.14,0,0,0-.12.17.09.09,0,0,0,.11.08A.14.14,0,0,0,39,21.86Z"/><path id="_Path_7" data-name="&lt;Path&gt;" d="M26.06,18.16c0-.08.11-.12.17-.1A.71.71,0,0,0,26.7,18c.16-.05.32-.12.48-.17.35-.1.44-.38.5-.69a.25.25,0,0,0,0-.2c-.14-.2-.24-.43-.51-.49a.55.55,0,0,1-.25-.16,1,1,0,0,0-.43-.25,10.14,10.14,0,0,0-2.33-.46H24a3.81,3.81,0,0,0-1.18-.09h-.1l-.06,0A.67.67,0,0,1,23,15a.22.22,0,0,1,.32,0c.1.16.26.14.4.15a.13.13,0,0,0,.15-.07c0-.12.13-.12.22-.11s.32,0,.47.12.3.08.46.07a.11.11,0,0,0,.08-.05c.06-.16.19-.14.31-.15a2.15,2.15,0,0,1,1.13.32c.42.21.84.43,1.26.65l.09,0a3.44,3.44,0,0,0,1.38.58c.25.07.51.08.76.14s.54,0,.78.15.42.52.16.76a1.47,1.47,0,0,1-.57.36c-.67.19-1.32.46-2,.66l-.1,0a.34.34,0,0,1-.46-.14c-.05-.08-.15-.14-.2-.23a.45.45,0,0,0-.49-.21C26.79,18.19,26.43,18.13,26.06,18.16Z"/><path id="_Compound_Path_6" data-name="&lt;Compound Path&gt;" d="M27.3,20.57h.11a1,1,0,0,1,.87.28,3.79,3.79,0,0,0,.34.3.59.59,0,0,1,.18.34c0,.08,0,.13-.07.17s-.1,0-.15,0a.19.19,0,0,0-.11-.05c-.17,0-.22,0-.22.22a.46.46,0,0,0,.09.23c.49.76,1,1.53,1.45,2.28.12.17.22.36.34.53a.2.2,0,0,1,0,.29c-.27.31-.56.61-.85.9l-.1.08a.13.13,0,0,1-.21,0,1.91,1.91,0,0,1-.32-.6,1.9,1.9,0,0,0-.37-.74c-.39-.52-.74-1.06-1.1-1.61s-.52-.92-.82-1.36a.55.55,0,0,1,0-.66c.09-.13.18-.27.26-.4a.32.32,0,0,1,.32-.15Zm-.71.56c0,.17.05.29.26.35a.68.68,0,0,1,.11.06c.15.07.22.07.33-.06.3-.35.4-.28,0-.71-.07-.08-.12-.19-.24-.15a1.4,1.4,0,0,0-.46.23s0,.06,0,.1S26.6,21,26.6,21.13Z"/><path id="_Path_8" data-name="&lt;Path&gt;" d="M22.82,24.33l-1.67-.52L18.45,23a3.64,3.64,0,0,0-.94-.17,1.86,1.86,0,0,1-.66-.1c-.15-.07-.18-.12-.07-.25a2.12,2.12,0,0,1,.27-.27,5,5,0,0,1,1.12-.77,1.7,1.7,0,0,0,.3-.18.46.46,0,0,1,.43,0,6.3,6.3,0,0,0,.89.19,1.44,1.44,0,0,1,.88.44c.46.5,1,1,1.48,1.42a4.32,4.32,0,0,1,.63.72C22.88,24.11,22.88,24.13,22.82,24.33Z"/><path id="_Path_9" data-name="&lt;Path&gt;" d="M28.43,15.12a1.12,1.12,0,0,1-.4.57l0,0c-.11.15-.11.15-.25.07A17.91,17.91,0,0,0,26,14.93a1.46,1.46,0,0,0-.55-.05c-.18,0-.37,0-.5.16s-.17,0-.21,0-.13-.09-.21-.1H24c-.12,0-.25,0-.33.12s-.15,0-.21,0a.28.28,0,0,0-.18-.11.43.43,0,0,0-.54.19,2.58,2.58,0,0,0-.2.32.21.21,0,0,1-.22.13l-1.09,0a.28.28,0,0,1-.19-.1c-.1-.1-.22-.19-.31-.3a.3.3,0,0,0-.31-.1c-.21,0-.22,0-.23-.17a1.06,1.06,0,0,0-.07-.32c-.06-.15,0-.19.14-.2h1.29c1.09,0,2.17.08,3.26.06a4.6,4.6,0,0,1,1,.14c.8.16,1.6.34,2.39.56Z"/><path id="_Path_10" data-name="&lt;Path&gt;" d="M20.73,19.78a4.68,4.68,0,0,0,0,.48.09.09,0,0,1,0,.11.41.41,0,0,1-.46-.07,8,8,0,0,1-1.38-2.22c-.14-.38-.31-.74-.42-1.13s-.08-.6-.16-.89a.12.12,0,0,1,.05-.13l.24-.18a.21.21,0,0,1,.26,0,2.66,2.66,0,0,1,.28.25c.22.23.48.43.71.64a1.67,1.67,0,0,1,.5.81A8.48,8.48,0,0,1,20.73,19.78Z"/><path id="_Path_11" data-name="&lt;Path&gt;" d="M25.73,21.8a.59.59,0,0,1,.22,0,.34.34,0,0,1,.39.21c.08.17.24.3.29.51a3.22,3.22,0,0,0-.64.34c0,.06.05.07.09.07a2.36,2.36,0,0,0,.68,0,.12.12,0,0,1,.15.06l.16.26a19.3,19.3,0,0,0,1.11,1.66,1.65,1.65,0,0,1,.31.6,2,2,0,0,0,.37.74c.11.15.05.18-.05.27a1.71,1.71,0,0,1-.42.22c-.12.05-.36-.13-.37-.26a.65.65,0,0,1,0-.18,1.21,1.21,0,0,0-.11-.61,11.26,11.26,0,0,0-1-2v0c-.11-.36-.4-.37-.69-.33s-.69,0-1,.05a1.08,1.08,0,0,1-.82-.34,8.33,8.33,0,0,1-.63-.76L23.45,22a.41.41,0,0,0-.24-.13l-.73-.16c-.07,0-.11,0-.12-.11,0-.29,0-.59,0-.88,0-.08.05-.12.13-.12H23c.11,0,.15.06.14.16,0,.27,0,.54,0,.81s0,.26.26.25h.76a.22.22,0,0,1,.25.16c.06.18.15.35.2.54s.17.24.25.36a.22.22,0,0,0,.23.12h.61c.16,0,.18,0,.18-.18a1.89,1.89,0,0,0-.08-.85A.53.53,0,0,1,25.73,21.8Z"/><path id="_Path_12" data-name="&lt;Path&gt;" d="M18.24,13.58c0,.46,0,.92-.09,1.38a1.88,1.88,0,0,0,.08.62.31.31,0,0,1-.06.28.21.21,0,0,1-.26.08.39.39,0,0,0-.54.28c0,.09-.07.12-.16.09l-.61-.24c-.17-.07-.21-.17-.2-.36a6.19,6.19,0,0,1,.39-1.57,1,1,0,0,1,.63-.68,6.88,6.88,0,0,0,.65-.33c.14-.07.18,0,.18.11S18.24,13.46,18.24,13.58Z"/><path id="_Path_13" data-name="&lt;Path&gt;" d="M17.19,19.66h1.16c.19,0,.19,0,.2.2a.91.91,0,0,0,0,.37.33.33,0,0,0,.33.22h.94a.53.53,0,0,1,.36.09.43.43,0,0,0,.34,0c.06,0,.1,0,.11.06s0,.14-.09.16H18.69a.42.42,0,0,0-.39.18.51.51,0,0,1-.53.22h-.1a1.09,1.09,0,0,1-.83-.29,5.87,5.87,0,0,0-.83-.57.31.31,0,0,1-.19-.35s0-.1,0-.15,0-.2.21-.2Z"/><path id="_Path_14" data-name="&lt;Path&gt;" d="M12,18.29a.42.42,0,0,1-.38.18H9.82c-.14,0-.16,0-.14.16s0,.22.05.32,0,.18-.13.18c-.51,0-1,0-1.54,0a1.19,1.19,0,0,1-.63-.23.54.54,0,0,0-.4-.12c-.26,0-.42-.13-.61-.25a.17.17,0,0,1-.06-.16c0-.17,0-.34,0-.51s0-.18.18-.18h.71a.15.15,0,0,1,.16.09c.06.15.2.23.28.35s.14.07.23.07H9.52a.46.46,0,0,1,.34.08s.09,0,.14,0c.4,0,.81,0,1.21,0S11.75,18.29,12,18.29Z"/><path id="_Path_15" data-name="&lt;Path&gt;" d="M33.07,18a5.59,5.59,0,0,1,1.11-.2A9,9,0,0,1,36,18a.38.38,0,0,1,.25.16,12.19,12.19,0,0,1,.72,1,.68.68,0,0,1,.09.39,4.36,4.36,0,0,1-.38,1.79.29.29,0,0,1-.33.2,6.75,6.75,0,0,1-1-.22A.66.66,0,0,1,35,21l.48.06a1.82,1.82,0,0,0,.4,0A.18.18,0,0,0,36,21a2.78,2.78,0,0,0,.2-1,3.4,3.4,0,0,1,0-.53.51.51,0,0,0-.12-.37,7.48,7.48,0,0,0-.65-.77.6.6,0,0,0-.43-.18c-.2,0-.41,0-.61,0A11,11,0,0,1,33.07,18Z"/><path id="_Compound_Path_7" data-name="&lt;Compound Path&gt;" d="M3.77,18.39c-.13,0-.22.11-.32.06A.78.78,0,0,1,3,18.13a.35.35,0,0,0-.43-.21H2.36c-.12,0-.16.07-.12.19a.89.89,0,0,0,.23.34c-.22.06-.41-.05-.62,0a1.91,1.91,0,0,1-.6,0,.68.68,0,0,1-.38-.17c-.06-.06-.09-.13,0-.2a.46.46,0,0,0,.09-.26c0-.06.05-.08.11-.09H2.12a.23.23,0,0,0,.19-.05.25.25,0,0,0,.06-.28.19.19,0,0,0-.23-.12c-.35,0-.71,0-1.06,0-.06,0-.12,0-.17,0S.79,17,.73,16.95s0,0,0-.06a.17.17,0,0,1,.13-.06c.29,0,.58-.08.88-.05a.58.58,0,0,0,.28,0c.12,0,.19-.05.19.11s.05.1.12.1l.43,0a.21.21,0,0,0,.13-.06c.22-.27.49-.14.74-.1.08,0,.06.09.05.15a3.92,3.92,0,0,0,0,.76A1.65,1.65,0,0,0,3.77,18.39ZM3,17.64l.25,0a.29.29,0,0,0,.25-.19c0-.09,0-.16-.08-.18a.88.88,0,0,0-.61.1.18.18,0,0,0-.1.19c0,.09.11.09.18.1Z"/><path id="_Path_16" data-name="&lt;Path&gt;" d="M13.55,17.41a.13.13,0,0,1,.11-.06,1.41,1.41,0,0,0,.7-.38c.1-.07.12-.2.2-.29s.12-.14.23-.1.2,0,.32,0a3,3,0,0,1-.38.63l-.18.25a.09.09,0,0,0,0,.12s.08,0,.11,0a.67.67,0,0,1,.4,0c.12,0,.17,0,.17-.16s0-.22,0-.33a1,1,0,0,1,.18-.62s0-.09.11-.08a.11.11,0,0,1,.1.12c0,.13,0,.25,0,.38q0,1.71,0,3.42a1.43,1.43,0,0,1,0,.18c0,.11,0,.13-.15.09s-.18-.07-.26.11,0,.13-.08.19a.24.24,0,0,1-.07-.25,1.15,1.15,0,0,1,.06-.3,1.92,1.92,0,0,0,.09-.75c0-.12,0-.2-.17-.24s-.15-.15-.06-.25l0,0c.08-.05.16-.11.14-.22a.22.22,0,0,0-.23-.16c-.23,0-.31-.21-.5-.26a.08.08,0,0,1,0-.06c0-.18-.14-.18-.28-.18H13.7c0-.11.12-.09.18-.09H15a.18.18,0,0,0,.16-.17.17.17,0,0,0-.15-.18,1.29,1.29,0,0,0-.23,0c-.12,0-.25,0-.36-.07a.12.12,0,0,0-.12,0l-.15,0c-.13,0-.27.17-.4.11S13.62,17.52,13.55,17.41Z"/><path id="_Path_17" data-name="&lt;Path&gt;" d="M10.25,18.65s0,.07,0,.1c0,.19.05.24.24.24h1.14c.19,0,.19,0,.26.23a1.9,1.9,0,0,1-.45,0h-.18c-.08,0-.1.08-.06.15l0,0c.29.22.51.51.8.73a1.11,1.11,0,0,0,.42.23c-.29,0-.57,0-.86,0a1.08,1.08,0,0,1-.56-.2l-1-.73a.23.23,0,0,1-.12-.2,2.19,2.19,0,0,0,0-.48c0-.09,0-.15.12-.14A.71.71,0,0,1,10.25,18.65Z"/><path id="_Path_18" data-name="&lt;Path&gt;" d="M16.77,17.27l-.76,0c-.16,0-.18,0-.18-.16s-.07-.39,0-.52a1.82,1.82,0,0,1,.59-.39.22.22,0,0,1,.19,0l.59.24c.15.06.23.21.37.29s.23.12.36,0l.07,0c.06,0,.13-.06.19,0a.35.35,0,0,1,.07.21s0,.06-.06.07a2,2,0,0,1-.82.22Z"/><path id="_Path_19" data-name="&lt;Path&gt;" d="M34.51,20.66c-.16-.1-.32-.18-.47-.29a11.26,11.26,0,0,1-1.12-.87,1.79,1.79,0,0,0-.55-.35L32,19c-.14-.06-.15-.18-.16-.32a.28.28,0,0,1,.15-.29.67.67,0,0,1,.47-.05.54.54,0,0,1,.37.22c.3.41.64.79,1,1.19s.49.63.74.95Z"/><path id="_Path_20" data-name="&lt;Path&gt;" d="M28.24,27.06c0-.1,0-.16.09-.19a3.39,3.39,0,0,0,1.33-1,7.4,7.4,0,0,0,.73-.76.1.1,0,0,1,.15,0l.11.06c.22.12.22.17,0,.34-.53.55-1.13,1-1.65,1.6-.13.14-.29.23-.42.36s-.19.07-.26,0A1.17,1.17,0,0,1,28.24,27.06Z"/><path id="_Path_21" data-name="&lt;Path&gt;" d="M20.53,21c.29,0,.29,0,.31-.28s0-.2.21-.21H22c.16,0,.18,0,.18.17s0,.52,0,.78-.06.16-.17.16h-.43a.29.29,0,0,1-.17,0Z"/><path id="_Compound_Path_8" data-name="&lt;Compound Path&gt;" d="M6.52,18.84A6,6,0,0,1,5,18.76c-.18-.05-.21-.07-.21-.27s0-.44,0-.66.06-.16.18-.16H6c.16,0,.17,0,.17.18s0,.35,0,.53a.26.26,0,0,0,.19.31A.28.28,0,0,1,6.52,18.84Zm-.81-.44s0,0,0,0l-.24-.22a.07.07,0,0,0-.07,0,.07.07,0,0,0,0,.09.54.54,0,0,0,.24.24C5.66,18.5,5.7,18.46,5.72,18.4Zm-.49.09s.09,0,.07-.08a.61.61,0,0,0-.22-.26s-.06,0-.07,0A.33.33,0,0,0,5.23,18.5Zm.8-.1c0-.08-.14-.24-.22-.25s-.09,0-.07.08a.45.45,0,0,0,.18.23C6,18.48,6,18.45,6,18.39Z"/><path id="_Path_22" data-name="&lt;Path&gt;" d="M20,20.29H19c-.19,0-.26-.08-.27-.29,0-.58,0-1.16,0-1.75A10.11,10.11,0,0,0,20,20.29Z"/><path id="_Path_23" data-name="&lt;Path&gt;" d="M22.47,23.26c0-.12,0-.2,0-.28a.2.2,0,0,0-.16-.23l-.22-.06a1.19,1.19,0,0,1-.71-.35L21.08,22s-.1-.1,0-.15.11-.13.22-.08a13.26,13.26,0,0,0,1.36.45l.17.05a.11.11,0,0,1,.09.15l-.22.88s0,.11-.09.1-.08-.06-.1-.11A.08.08,0,0,1,22.47,23.26Z"/><path id="_Path_24" data-name="&lt;Path&gt;" d="M38,21.35a6.58,6.58,0,0,0,.16-.95,4.85,4.85,0,0,0-.11-1.68,1.88,1.88,0,0,0-.83-1.19l-.08-.06s0,0,0,0a1.11,1.11,0,0,1,.37,0,.39.39,0,0,1,.29.18l.68,1.06a.45.45,0,0,1,.07.41A12,12,0,0,0,38.21,21,.54.54,0,0,1,38,21.35Z"/><path id="_Path_25" data-name="&lt;Path&gt;" d="M12.25,16.09a.47.47,0,0,1-.08.5,1.28,1.28,0,0,1-.74.58l-.31.11a.44.44,0,0,0-.22.12.57.57,0,0,1-.53.26.15.15,0,0,0-.17.12c0,.1,0,.15.13.19a.55.55,0,0,0,.22,0,.17.17,0,0,1,.18.08,3.57,3.57,0,0,1-.7,0,.1.1,0,0,1-.06,0,.5.5,0,0,1,0-.56,6.29,6.29,0,0,1,.7-.54A.43.43,0,0,1,11,16.9h.56a.41.41,0,0,0,.3-.11A1.28,1.28,0,0,0,12.25,16.09Z"/><path id="_Path_26" data-name="&lt;Path&gt;" d="M29.07,16.36a1.64,1.64,0,0,1-.79-.25c-.08-.05-.09-.1,0-.18s.31-.41.45-.62.13-.12.23-.07l.47.23c.07,0,.09.09.06.19s-.16.4-.23.61A.12.12,0,0,1,29.07,16.36Z"/><path id="_Path_27" data-name="&lt;Path&gt;" d="M13,16.76a1.39,1.39,0,0,1,.2-.38.39.39,0,0,0,.09-.28c0-.11,0-.16.15-.14.3.05.6,0,.9.09.13,0,.18.08.16.2s0,.07,0,.1c0,.25,0,.29-.3.29a1.65,1.65,0,0,0-.69.08,1,1,0,0,1-.44.07Z"/><path id="_Path_28" data-name="&lt;Path&gt;" d="M4.06,16.63a2.58,2.58,0,0,0,0,.68c0,.27.11.35.38.37s.26,0,.28.28c0,.07,0,.14,0,.2a.3.3,0,0,1-.19.32.38.38,0,0,1-.57-.18A.74.74,0,0,1,3.83,18a4.89,4.89,0,0,1,0-1.13A.29.29,0,0,1,4.06,16.63Z"/><path id="_Path_29" data-name="&lt;Path&gt;" d="M12.14,19.21a.67.67,0,0,0,.42-.16c.08-.06.13-.06.17,0a2.17,2.17,0,0,0,.35.58.32.32,0,0,1,.06.24,6.6,6.6,0,0,1-.08.85.42.42,0,0,1-.36-.36,1.15,1.15,0,0,1,0-.35.46.46,0,0,0-.19-.44A2.58,2.58,0,0,1,12.14,19.21Z"/><path id="_Path_30" data-name="&lt;Path&gt;" d="M8.66,17.68h.91a.19.19,0,0,1,.17.27.11.11,0,0,1-.12.07H8a.5.5,0,0,1-.39-.19s-.06-.07,0-.11.06,0,.11,0h1Z"/><path id="_Path_31" data-name="&lt;Path&gt;" d="M12.87,16.49a.72.72,0,0,1-.14.27,1,1,0,0,0-.13.22.89.89,0,0,1-.57.59l0,0c-.1,0-.18.17-.28.15s-.11-.2-.18-.29,0-.14.05-.18h0a1.09,1.09,0,0,0,.68-.59.39.39,0,0,1,.47-.22h.08Z"/><path id="_Path_32" data-name="&lt;Path&gt;" d="M18.52,19.26a1,1,0,0,1-.57-1,.45.45,0,0,1,.17-.38l.36-.28A5.72,5.72,0,0,1,18.52,19.26Z"/><path id="_Path_33" data-name="&lt;Path&gt;" d="M17.28,19.09l-.07,0c-.52,0-.55.07-.52-.5,0-.19,0-.39,0-.58s.05-.17.17-.17c.36,0,.4,0,.4.35A3.84,3.84,0,0,0,17.28,19.09Z"/><path id="_Path_34" data-name="&lt;Path&gt;" d="M13.09,19.4a6.54,6.54,0,0,1,1,0,.14.14,0,0,1,.11.06,3.07,3.07,0,0,1,.21.31c.07.13,0,.22-.13.22h-.86c-.06,0-.14,0-.13-.09S13.21,19.59,13.09,19.4Z"/><path id="_Path_35" data-name="&lt;Path&gt;" d="M14.3,19.25a1.63,1.63,0,0,0,.37-.17.1.1,0,0,1,.09.09,1.41,1.41,0,0,0,.18.39A.52.52,0,0,1,15,20a2.4,2.4,0,0,0-.1.47.83.83,0,0,1-.06.24c-.25,0-.29-.12-.26-.36,0,0,0-.07,0-.1a1,1,0,0,0-.23-.89A.2.2,0,0,1,14.3,19.25Z"/><path id="_Path_36" data-name="&lt;Path&gt;" d="M23.39,22.75c0,.08.05.15,0,.22s0,.1,0,.15a.27.27,0,0,1-.1.3.2.2,0,0,0-.1.2c0,.06-.1.15-.17.22s-.08,0-.11,0a.28.28,0,0,1-.1-.32c.12-.33.17-.67.26-1,.05-.18.1-.19.23-.06A.29.29,0,0,1,23.39,22.75Z"/><path id="_Path_37" data-name="&lt;Path&gt;" d="M14.17,20.79a.52.52,0,0,0-.13.64,3.41,3.41,0,0,1-.7,0c-.07,0-.1,0-.09-.12s0-.34,0-.52A3.12,3.12,0,0,1,14.17,20.79Z"/><path id="_Path_38" data-name="&lt;Path&gt;" d="M18.36,17.49a1.45,1.45,0,0,1-.93.22c-.45,0-.91,0-1.36,0h-.15s-.08,0-.09-.06a.1.1,0,0,1,.06-.1.54.54,0,0,1,.27-.05c.44,0,.89-.05,1.33,0,.24,0,.49,0,.73,0Z"/><path id="_Path_39" data-name="&lt;Path&gt;" d="M18.47,19.46a.35.35,0,0,1-.23,0h-2.3c-.06,0-.11,0-.12-.1a.12.12,0,0,1,.1-.13.52.52,0,0,1,.22,0c.63.06,1.26,0,1.89.06A.5.5,0,0,1,18.47,19.46Z"/><path id="_Path_40" data-name="&lt;Path&gt;" d="M18,19.12a1.56,1.56,0,0,1-.46,0c-.07,0-.1,0-.11-.11a2.24,2.24,0,0,1,0-.48c0-.16,0-.32,0-.48s0-.2.21-.19.18,0,.15.17A1.45,1.45,0,0,0,18,19,.63.63,0,0,1,18,19.12Z"/><path id="_Path_41" data-name="&lt;Path&gt;" d="M14,17a.53.53,0,0,1-.31.21l-.61.17a.3.3,0,0,0-.22.16.28.28,0,0,1-.33.17c-.08,0-.17,0-.24,0v0c.25-.05.33-.25.4-.46A.27.27,0,0,1,13,17Z"/><path id="_Path_42" data-name="&lt;Path&gt;" d="M30.21,18.29a3.65,3.65,0,0,0-.19.49c0,.1-.09.13-.18.14a2.39,2.39,0,0,1-.55,0c-.11,0-.13-.09-.14-.18a.11.11,0,0,1,.07-.14A5.23,5.23,0,0,1,30.21,18.29Z"/><path id="_Path_43" data-name="&lt;Path&gt;" d="M15.85,20.47a2.61,2.61,0,0,1,.63.39c.23.19.48.33.73.5a.36.36,0,0,0,.26,0,.5.5,0,0,1,.3,0,1.13,1.13,0,0,1-.35.24c-.08,0-.13,0-.18,0l-1-.72-.27-.18A.17.17,0,0,1,15.85,20.47Z"/><path id="_Path_44" data-name="&lt;Path&gt;" d="M11.49,19.41h.15c.45,0,.5,0,.77.39a.26.26,0,0,1,0,.06c0,.1.09.23,0,.31s-.19,0-.26-.08-.28-.24-.42-.36Z"/><path id="_Path_45" data-name="&lt;Path&gt;" d="M19.09,21h1.06a.2.2,0,0,1,.14,0,7.35,7.35,0,0,0,.64.45s.14.07.09.15a.17.17,0,0,1-.23,0,.28.28,0,0,1-.09-.08,1,1,0,0,0-.6-.34l-.87-.17-.14,0Z"/><path id="_Path_46" data-name="&lt;Path&gt;" d="M15.31,21.41a.45.45,0,0,1-.28.42.32.32,0,0,1-.38,0c-.06-.05-.08-.11,0-.16a.71.71,0,0,0,.34-.48s0-.11.08-.11a.14.14,0,0,1,.12.08A.78.78,0,0,1,15.31,21.41Z"/><path id="_Path_47" data-name="&lt;Path&gt;" d="M7.33,14.76a.59.59,0,0,1-.12.49c-.08.1-.15.22-.23.33a.63.63,0,0,1-.11.13c-.07.05-.23.06-.26,0s0-.13,0-.19.21-.3.24-.49S7,15,7,15,7.27,14.92,7.33,14.76Z"/><path id="_Compound_Path_9" data-name="&lt;Compound Path&gt;" d="M15,15.8a.36.36,0,0,1,.3.34c0,.13-.23.28-.43.28s-.25-.08-.24-.25A.36.36,0,0,1,15,15.8ZM15,16a.22.22,0,0,0-.18.18s0,.06,0,.07.12-.06.18-.09a.11.11,0,0,0,0-.06A.07.07,0,0,0,15,16Z"/><path id="_Path_48" data-name="&lt;Path&gt;" d="M10.92,18a.33.33,0,0,1,0-.46.35.35,0,0,1,.37-.06.42.42,0,0,1,.13.43.35.35,0,0,1-.36.16.45.45,0,0,1-.19-.07.14.14,0,0,0,.17-.06c0-.07.14-.13.15-.22a.06.06,0,0,0-.1-.05C11,17.78,10.91,17.86,10.92,18Z"/><path id="_Path_49" data-name="&lt;Path&gt;" d="M12.83,15.67a1.74,1.74,0,0,1-.21.31s-.05.09,0,.13.11,0,.15,0l.19-.27c0-.06.09,0,.11,0a.33.33,0,0,1-.18.4.3.3,0,0,1-.39,0,.54.54,0,0,1,0-.44C12.55,15.65,12.66,15.63,12.83,15.67Z"/><path id="_Path_50" data-name="&lt;Path&gt;" d="M12.54,21.37l0,0a.31.31,0,0,1-.06-.37.25.25,0,0,1,.26-.15A.32.32,0,0,1,13,21c.08.18.08.25,0,.33a.31.31,0,0,1-.44,0,.18.18,0,0,0,.18-.07.86.86,0,0,0,.16-.28.08.08,0,0,0,0-.06s-.06,0-.07,0S12.52,21.18,12.54,21.37Z"/><path id="_Path_51" data-name="&lt;Path&gt;" d="M18.05,16.37c0,.16-.14.32-.27.31a.31.31,0,0,1-.25-.33c0-.18.11-.29.25-.28A.25.25,0,0,1,18.05,16.37Z"/><path id="_Path_52" data-name="&lt;Path&gt;" d="M12.56,18.32a.62.62,0,0,1,.27,0h.56c.08,0,.12,0,.12.13s0,.16-.12.16a5.14,5.14,0,0,1-.53,0C12.71,18.57,12.69,18.4,12.56,18.32Z"/><path id="_Path_53" data-name="&lt;Path&gt;" d="M14.66,20.91c.14.11.17.2.1.38a.34.34,0,0,1-.31.22.41.41,0,0,1-.29-.29.36.36,0,0,1,.27-.35.24.24,0,0,1,.24,0c-.14.06-.22.2-.34.29a.08.08,0,0,0,0,.11.08.08,0,0,0,.13,0l.24-.25C14.72,21,14.69,21,14.66,20.91Z"/><path id="_Compound_Path_10" data-name="&lt;Compound Path&gt;" d="M12,18.76a.33.33,0,0,1,.34-.33c.15,0,.31.13.3.25a.47.47,0,0,1-.38.36A.27.27,0,0,1,12,18.76Zm.19.18h.07a.5.5,0,0,0,.17-.29.08.08,0,0,0-.05,0c-.06,0-.21.16-.23.25a.09.09,0,0,0,0,0Z"/><path id="_Path_54" data-name="&lt;Path&gt;" d="M13.12,18l.18-.21s.08-.1,0-.15-.09,0-.13,0l-.19.2c-.07-.2-.05-.29.06-.37a.31.31,0,0,1,.41,0c.1.1.12.19.06.29A.3.3,0,0,1,13.12,18Z"/><path id="_Path_55" data-name="&lt;Path&gt;" d="M16.53,18.49c0,.16,0,.32,0,.48s0,.09-.05.1-.07,0-.08-.08c0-.32-.07-.63-.06-1a.58.58,0,0,1,0-.08s0-.08.08-.08a.09.09,0,0,1,.1.08c0,.13,0,.25,0,.38s0,.1,0,.15Z"/><path id="_Path_56" data-name="&lt;Path&gt;" d="M14,19.17a1.53,1.53,0,0,1-.47,0h-.4a.19.19,0,0,1-.14,0,.12.12,0,0,1,0-.11A.07.07,0,0,1,13,19a6.67,6.67,0,0,1,.83,0C13.92,19,14,19.06,14,19.17Z"/><path id="_Path_57" data-name="&lt;Path&gt;" d="M12.31,21.47c.34.21.34.21.82,0,0,.1-.11.16-.16.22s-.2.24-.38.17S12.31,21.73,12.31,21.47Z"/><path id="_Compound_Path_11" data-name="&lt;Compound Path&gt;" d="M14.36,18.57a.21.21,0,0,1,.23.2.27.27,0,0,1-.29.27.24.24,0,0,1-.25-.23C14.05,18.66,14.16,18.57,14.36,18.57Zm-.08.35h0c.07,0,.19-.16.17-.22a.08.08,0,0,0-.05,0c-.07,0-.18.1-.19.19A.06.06,0,0,0,14.28,18.92Z"/><path id="_Path_58" data-name="&lt;Path&gt;" d="M2.44,18.1c.19,0,.38-.07.49.16a1,1,0,0,0,.16.19A.49.49,0,0,1,2.44,18.1Z"/><path id="_Path_59" data-name="&lt;Path&gt;" d="M26.76,18.34a.52.52,0,0,1,0,.09c0,.27,0,.27.3.24,0,0,0,.05,0,.07S27,19,26.83,19s-.11-.19-.12-.3A.47.47,0,0,1,26.76,18.34Z"/><path id="_Path_60" data-name="&lt;Path&gt;" d="M13.28,20.47c0-.07,0-.13,0-.2s.11-.12.2-.1.08.09.07.16,0,.13,0,.19-.1.1-.18.08S13.27,20.53,13.28,20.47Z"/><path id="_Path_61" data-name="&lt;Path&gt;" d="M15.93,18.57a1.3,1.3,0,0,1,0-.19.11.11,0,0,1,.13-.09.11.11,0,0,1,.1.1c0,.08,0,.17,0,.25s0,.12-.06.14a.17.17,0,0,1-.21-.1A.49.49,0,0,1,15.93,18.57Z"/><path id="_Path_62" data-name="&lt;Path&gt;" d="M12.92,18.12H11.75s-.06,0-.06,0,0-.06.06-.06h.93A.26.26,0,0,1,12.92,18.12Z"/><path id="_Path_63" data-name="&lt;Path&gt;" d="M14.24,18.31l-.28.23a.19.19,0,0,1-.21,0c-.07,0-.05-.12,0-.18a.09.09,0,0,1,.09-.08A1.63,1.63,0,0,1,14.24,18.31Z"/><path id="_Path_64" data-name="&lt;Path&gt;" d="M25.47,18.63a.17.17,0,0,1,0,.14c0,.07,0,.15-.13.16a.29.29,0,0,1-.24-.15c0-.07,0-.14.09-.13A.47.47,0,0,0,25.47,18.63Z"/><path id="_Path_65" data-name="&lt;Path&gt;" d="M15.85,18.17a.25.25,0,0,1,0-.18c0-.06,0-.12.1-.12s.15,0,.22,0a.13.13,0,0,1-.06.21Z"/><path id="_Path_66" data-name="&lt;Path&gt;" d="M26,18.52c.1.09.19.19.31,0a.33.33,0,0,1,0,.24.14.14,0,0,1-.15.08.13.13,0,0,1-.12-.11A.43.43,0,0,1,26,18.52Z"/><path id="_Path_67" data-name="&lt;Path&gt;" d="M11.7,18.82h0Z"/><path id="_Path_68" data-name="&lt;Path&gt;" d="M20,14.84c0,.07,0,.16-.08.16a.1.1,0,0,1-.11-.11c0-.09,0-.15.11-.16S20,14.81,20,14.84Z"/><path id="_Path_69" data-name="&lt;Path&gt;" d="M16,16.3a1.54,1.54,0,0,1,.21-.39C16.3,16.12,16.3,16.12,16,16.3Z"/><path id="_Path_70" data-name="&lt;Path&gt;" d="M2.14,17.43a3.45,3.45,0,0,1-1,0Z"/><path id="_Path_71" data-name="&lt;Path&gt;" d="M16.26,19a.62.62,0,0,1-.37,0s-.06-.05-.06-.1,0-.07.09,0Z"/><path id="_Path_72" data-name="&lt;Path&gt;" d="M27.59,18.61a.41.41,0,0,1,.21.18.08.08,0,0,1,0,.11s-.09,0-.13,0S27.58,18.72,27.59,18.61Z"/><path id="_Path_73" data-name="&lt;Path&gt;" d="M14.13,17.84h.82v0h-.82Z"/><path id="_Path_74" data-name="&lt;Path&gt;" d="M22,22.85c.27,0,.27,0,.27.25A.56.56,0,0,1,22,22.85Z"/><path id="_Path_75" data-name="&lt;Path&gt;" d="M15,17.11a.22.22,0,0,1,0,.21.08.08,0,0,1-.11,0c-.06,0,0-.06,0-.1S15,17.13,15,17.11Z"/><path id="_Path_76" data-name="&lt;Path&gt;" d="M25.52,18.32a2,2,0,0,1,.39-.14C25.8,18.32,25.8,18.32,25.52,18.32Z"/><path id="_Path_77" data-name="&lt;Path&gt;" d="M12.2,21.16a.8.8,0,0,1-.11-.26C12.24,20.94,12.24,20.94,12.2,21.16Z"/><path id="_Path_78" data-name="&lt;Path&gt;" d="M34.51,20.66l.38.14a.36.36,0,0,1-.38-.14Z"/><path id="_Path_79" data-name="&lt;Path&gt;" d="M2.4,16.76a.45.45,0,0,1,.36,0A.55.55,0,0,1,2.4,16.76Z"/><path id="_Path_80" data-name="&lt;Path&gt;" d="M20.4,16H22c.06,0,.13,0,.14.08a.15.15,0,0,1-.12.17H20.89A.52.52,0,0,1,20.4,16Z"/><path id="_Path_81" data-name="&lt;Path&gt;" d="M23.44,16.25h-1s-.09,0-.09-.07,0-.08.08-.08h.83A.23.23,0,0,1,23.44,16.25Z"/><path id="_Path_82" data-name="&lt;Path&gt;" d="M23.9,16.22c-.21.07-.25-.1-.39-.19C23.72,16,23.79,16.12,23.9,16.22Z"/><path id="_Path_83" data-name="&lt;Path&gt;" d="M26.77,21.11a.43.43,0,0,1,.31-.32c.07,0,.29.24.29.32s-.19.3-.28.29A.35.35,0,0,1,26.77,21.11Z"/><path id="_Path_84" data-name="&lt;Path&gt;" d="M3.07,17.45c.07,0,.13,0,.24,0A.32.32,0,0,1,3.07,17.45Z"/></g></svg>