<svg xmlns="http://www.w3.org/2000/svg" class="HeroAbility-icon HeroAbility-icon--hoverState" viewBox="0 0 40 40" preserveAspectRatio="xMidYMid meet"><path id="_Compound_Path_4" data-name="&lt;Compound Path&gt;" d="M29.36,27.69a2.53,2.53,0,0,1-.51.25,6.2,6.2,0,0,0-1.3.8,7.84,7.84,0,0,1-2.24,1.18,9.16,9.16,0,0,0-1.53.63,8.42,8.42,0,0,0-1.49,1.15.77.77,0,0,1-.15.12,6.58,6.58,0,0,1,.8-1.4l-1.11.69a2.45,2.45,0,0,1-2.4.07,3.3,3.3,0,0,1-.79-.47,1.17,1.17,0,0,0-.3-.17c0,.07,0,.1.05.14a7,7,0,0,0,.69.79.27.27,0,0,1,.07.09c0,.07.09.15,0,.2s-.13,0-.18-.07a1.88,1.88,0,0,0-.41-.15c-.58-.25-1.18-.47-1.75-.74s-1.39-.6-2.1-.86a9.85,9.85,0,0,1-2.69-1.44,9.19,9.19,0,0,0-1-.59c-.19-.12-.19-.15,0-.27a6,6,0,0,0,1.57-1.69,3.34,3.34,0,0,0,.53-1s0-.07,0-.11A7.9,7.9,0,0,1,12,26.26l-.07.06c-.05,0-.1.14-.18.07s0-.13,0-.19A32,32,0,0,0,13.61,23c.38-.84.72-1.68,1-2.55a1.54,1.54,0,0,1,.34-.71c.28-.23.3-.57.46-.84a7.11,7.11,0,0,0,.45-1c.19-.48.34-1,.53-1.45a10,10,0,0,1,.79-1.46c0-.06.1-.13.1-.19,0-.33.24-.5.45-.67a5.69,5.69,0,0,1,1.54-1,2.7,2.7,0,0,1,2,.13,4.26,4.26,0,0,1,1.36,1,8,8,0,0,1,1.46,2.31c.11.24.12.5.22.74a20.17,20.17,0,0,1,.82,1.91,22,22,0,0,0,1,2.21c.3.75.63,1.49,1,2.23a16.64,16.64,0,0,0,1,1.71,9.48,9.48,0,0,1,1,2A.45.45,0,0,0,29.36,27.69Zm-6.1-2.56-.19.13-.74.54c-.06,0-.13.1-.2.05s0-.14,0-.22l0-.07c.12-.38.26-.76.36-1.14a3.18,3.18,0,0,1,.67-1.27,5.72,5.72,0,0,1,.69-.6.41.41,0,0,0,.07-.67c-.23-.28-.23-.28-.42,0a1.42,1.42,0,0,1-.1.16,1.73,1.73,0,0,1-1.57.72.27.27,0,0,1-.2-.11.26.26,0,0,0-.41,0s-.08.12-.18.12a1,1,0,0,1,.16-.4,2.66,2.66,0,0,1,.7-.64l1.28-.89c.07,0,.14-.1.14-.18a4.05,4.05,0,0,1,.14-.68.27.27,0,0,0-.06-.27c-.4-.41-.79-.85-1.22-1.23a1.07,1.07,0,0,0-.85-.34c-.57.06-1.14.1-1.7.17A2.42,2.42,0,0,0,18,19a5.12,5.12,0,0,1-.62.57.32.32,0,0,0-.12.37,3.82,3.82,0,0,1,.13.56.37.37,0,0,0,.16.29c.39.27.76.55,1.16.8a3.91,3.91,0,0,1,.66.53,1,1,0,0,1,.31.59c-.1,0-.13-.09-.19-.13a.25.25,0,0,0-.39,0,.34.34,0,0,1-.3.13,1.71,1.71,0,0,1-1.58-.87c-.19-.31-.19-.31-.42,0a.4.4,0,0,0,.06.67l.49.4a2.35,2.35,0,0,1,.65.84c.25.61.42,1.26.62,1.89,0,.06,0,.14,0,.19s-.13,0-.19,0l-.81-.59s-.06-.08-.13,0a1.57,1.57,0,0,0,.37.62,6.28,6.28,0,0,1,1,1.44A4.14,4.14,0,0,0,20,28.87c.3.25.39.26.67,0a3.56,3.56,0,0,0,1.07-1.27c.07-.17.17-.33.25-.49a8.93,8.93,0,0,1,1-1.47A1.21,1.21,0,0,0,23.27,25.13Z"/><path id="_Compound_Path_5" data-name="&lt;Compound Path&gt;" d="M10.71,26.76a13,13,0,0,0,1.11-1.16,4.9,4.9,0,0,1-1,1.59c-.18.21-.2.22-.45.1a14,14,0,0,0-2.21-.87c-.31-.09-.45-.25-.43-.55a1,1,0,0,0-.29-1,1.09,1.09,0,0,1,.62.52A.75.75,0,0,0,7.73,25c.09.07-4.94-3-3.18-2.88.3,0,1,1.37,1.48,1.44s1.5-.21,1.69-.58a.58.58,0,0,0-.28-.81l-.07,0A3,3,0,0,1,7,21.07a2.57,2.57,0,0,0-1.44-.59c-2.22.12,2.19-4.09,2.15-4.06.49-.46,1.84-2.18,2.31-2,0,0-1.73,4.29-1.8,3.44A2,2,0,0,0,9,19.16c1.27,1.23.06-.92.53-.91,1.5,0,5.49-4.09,5.21-5.22,0,.06,0,.13,0,.21a5.29,5.29,0,0,0,.28-.76,18.77,18.77,0,0,0-.17-1.93c.22-.17,1.47.8,2.09.81,0,0-2.66-1.35-2.4-1.7.09-.12,2.15,2.07,3.22,1-.86.86,2.11-2,1.71-.93-.18.51-1.2.61-1.2,1.1,1.5-.2,5.07-3.11,6.69-1,1.17,1.49,1.67,4.63,2.2,6.29a1.09,1.09,0,0,0,.85.74,4.17,4.17,0,0,0,2.22-.65,2,2,0,0,1,1.6.27,1.43,1.43,0,0,1,.65,1.3A23,23,0,0,0,32.56,21a.2.2,0,0,0,.19.18,2.64,2.64,0,0,0,1.62.14q.25,0,.14.2c-.67,1.09-2.14,1.59-3.09,2.36a2.19,2.19,0,0,0-.84,1.95c0,.38,1,1.29.48,1.4l-1,.24a.13.13,0,0,1-.16-.09c-1.39-3-5.42-16.17-10.42-15.36-2.62.43-6,9-5.69,9.15a1.6,1.6,0,0,1,.15-.86,24.92,24.92,0,0,1-3.23,6.45C11.12,26.44,12.08,24.76,10.71,26.76Zm20.62-5.54a7.83,7.83,0,0,0,0-2.4q-1-1.55-2.17,0a3.71,3.71,0,0,0-.53,1.71,23.09,23.09,0,0,0,.64,2.31.85.85,0,0,0,.49.28,1.8,1.8,0,0,0,.91-.35,4,4,0,0,0,.4-1.43c.09-.19.12-.2.28-.07C31.43,21.05,31.17,21.09,31.33,21.23ZM12.16,20.05Q12,19,11,19.44A12.49,12.49,0,0,1,9.86,21a1.06,1.06,0,0,0-1,.25c-.71.8,1.36,1.7,1.81,1.46a2.52,2.52,0,0,0,1-.92,5.58,5.58,0,0,0,.47-1.76C12.15,19.73,12,20.61,12.16,20.05ZM24.85,13a2.56,2.56,0,0,0-1.31-2q-1.37-1-1.58.39c.51,1.14,1.8,1.23,2.5,2.14a.43.43,0,0,0,.48.05,1.69,1.69,0,0,0-.08-.62C24.86,12.89,24.83,13.06,24.85,13Z"/><path id="_Path_7" data-name="&lt;Path&gt;" d="M26.67,12.18a.34.34,0,0,1-.08-.23,4.85,4.85,0,0,1,0-1.08.26.26,0,0,0,0-.19,4.26,4.26,0,0,0-.82-1.08s-.1-.07-.07-.13a.13.13,0,0,1,.16-.06l.43.11.86.29A.71.71,0,0,1,27.45,11L27,11.5A1.68,1.68,0,0,0,26.67,12.18Z"/><path id="_Path_8" data-name="&lt;Path&gt;" d="M12.44,15c0-.05,0-.12,0-.16.2-.25.26-.59.53-.8a3.44,3.44,0,0,0,.73-.78c0-.06.09-.15.17-.1s0,.12,0,.18a1.18,1.18,0,0,1-.25.43c-.36.41-.67.86-1,1.26,0,0-.07.09-.14.06S12.44,15,12.44,15Z"/><path id="_Path_9" data-name="&lt;Path&gt;" d="M19.46,24.56a2.81,2.81,0,0,1,0-.51c0-.05,0-.12.07-.13s.09.06.11.12l.4,1.19a1.64,1.64,0,0,0,.2.39c.06.08.11.09.17,0a1.62,1.62,0,0,0,.2-.39L21,24.07c0-.07,0-.17.12-.16s.07.11.08.16a4.3,4.3,0,0,1-.65,2.81c-.18.27-.25.26-.45,0a4,4,0,0,1-.64-1.75A2.75,2.75,0,0,1,19.46,24.56Z"/></svg>